%TF.GenerationSoftware,KiCad,Pcbnew,9.0.9.1-1.fc43*%
%TF.CreationDate,2026-06-26T00:54:02-06:00*%
%TF.ProjectId,arcade-controller-routed,61726361-6465-42d6-936f-6e74726f6c6c,rev?*%
%TF.SameCoordinates,Original*%
%TF.FileFunction,AssemblyDrawing,Top*%
%FSLAX46Y46*%
G04 Gerber Fmt 4.6, Leading zero omitted, Abs format (unit mm)*
G04 Created by KiCad (PCBNEW 9.0.9.1-1.fc43) date 2026-06-26 00:54:02*
%MOMM*%
%LPD*%
G01*
G04 APERTURE LIST*
%ADD10C,0.150000*%
G04 APERTURE END LIST*
D10*
X75380952Y-142604819D02*
X75380952Y-141604819D01*
X75380952Y-141604819D02*
X75714285Y-142319104D01*
X75714285Y-142319104D02*
X76047618Y-141604819D01*
X76047618Y-141604819D02*
X76047618Y-142604819D01*
X76666666Y-142604819D02*
X76571428Y-142557200D01*
X76571428Y-142557200D02*
X76523809Y-142509580D01*
X76523809Y-142509580D02*
X76476190Y-142414342D01*
X76476190Y-142414342D02*
X76476190Y-142128628D01*
X76476190Y-142128628D02*
X76523809Y-142033390D01*
X76523809Y-142033390D02*
X76571428Y-141985771D01*
X76571428Y-141985771D02*
X76666666Y-141938152D01*
X76666666Y-141938152D02*
X76809523Y-141938152D01*
X76809523Y-141938152D02*
X76904761Y-141985771D01*
X76904761Y-141985771D02*
X76952380Y-142033390D01*
X76952380Y-142033390D02*
X76999999Y-142128628D01*
X76999999Y-142128628D02*
X76999999Y-142414342D01*
X76999999Y-142414342D02*
X76952380Y-142509580D01*
X76952380Y-142509580D02*
X76904761Y-142557200D01*
X76904761Y-142557200D02*
X76809523Y-142604819D01*
X76809523Y-142604819D02*
X76666666Y-142604819D01*
X77857142Y-141938152D02*
X77857142Y-142604819D01*
X77428571Y-141938152D02*
X77428571Y-142461961D01*
X77428571Y-142461961D02*
X77476190Y-142557200D01*
X77476190Y-142557200D02*
X77571428Y-142604819D01*
X77571428Y-142604819D02*
X77714285Y-142604819D01*
X77714285Y-142604819D02*
X77809523Y-142557200D01*
X77809523Y-142557200D02*
X77857142Y-142509580D01*
X78333333Y-141938152D02*
X78333333Y-142604819D01*
X78333333Y-142033390D02*
X78380952Y-141985771D01*
X78380952Y-141985771D02*
X78476190Y-141938152D01*
X78476190Y-141938152D02*
X78619047Y-141938152D01*
X78619047Y-141938152D02*
X78714285Y-141985771D01*
X78714285Y-141985771D02*
X78761904Y-142081009D01*
X78761904Y-142081009D02*
X78761904Y-142604819D01*
X79095238Y-141938152D02*
X79476190Y-141938152D01*
X79238095Y-141604819D02*
X79238095Y-142461961D01*
X79238095Y-142461961D02*
X79285714Y-142557200D01*
X79285714Y-142557200D02*
X79380952Y-142604819D01*
X79380952Y-142604819D02*
X79476190Y-142604819D01*
X79809524Y-142604819D02*
X79809524Y-141938152D01*
X79809524Y-141604819D02*
X79761905Y-141652438D01*
X79761905Y-141652438D02*
X79809524Y-141700057D01*
X79809524Y-141700057D02*
X79857143Y-141652438D01*
X79857143Y-141652438D02*
X79809524Y-141604819D01*
X79809524Y-141604819D02*
X79809524Y-141700057D01*
X80285714Y-141938152D02*
X80285714Y-142604819D01*
X80285714Y-142033390D02*
X80333333Y-141985771D01*
X80333333Y-141985771D02*
X80428571Y-141938152D01*
X80428571Y-141938152D02*
X80571428Y-141938152D01*
X80571428Y-141938152D02*
X80666666Y-141985771D01*
X80666666Y-141985771D02*
X80714285Y-142081009D01*
X80714285Y-142081009D02*
X80714285Y-142604819D01*
X81619047Y-141938152D02*
X81619047Y-142747676D01*
X81619047Y-142747676D02*
X81571428Y-142842914D01*
X81571428Y-142842914D02*
X81523809Y-142890533D01*
X81523809Y-142890533D02*
X81428571Y-142938152D01*
X81428571Y-142938152D02*
X81285714Y-142938152D01*
X81285714Y-142938152D02*
X81190476Y-142890533D01*
X81619047Y-142557200D02*
X81523809Y-142604819D01*
X81523809Y-142604819D02*
X81333333Y-142604819D01*
X81333333Y-142604819D02*
X81238095Y-142557200D01*
X81238095Y-142557200D02*
X81190476Y-142509580D01*
X81190476Y-142509580D02*
X81142857Y-142414342D01*
X81142857Y-142414342D02*
X81142857Y-142128628D01*
X81142857Y-142128628D02*
X81190476Y-142033390D01*
X81190476Y-142033390D02*
X81238095Y-141985771D01*
X81238095Y-141985771D02*
X81333333Y-141938152D01*
X81333333Y-141938152D02*
X81523809Y-141938152D01*
X81523809Y-141938152D02*
X81619047Y-141985771D01*
X82095238Y-142604819D02*
X82095238Y-141604819D01*
X82095238Y-142081009D02*
X82666666Y-142081009D01*
X82666666Y-142604819D02*
X82666666Y-141604819D01*
X83285714Y-142604819D02*
X83190476Y-142557200D01*
X83190476Y-142557200D02*
X83142857Y-142509580D01*
X83142857Y-142509580D02*
X83095238Y-142414342D01*
X83095238Y-142414342D02*
X83095238Y-142128628D01*
X83095238Y-142128628D02*
X83142857Y-142033390D01*
X83142857Y-142033390D02*
X83190476Y-141985771D01*
X83190476Y-141985771D02*
X83285714Y-141938152D01*
X83285714Y-141938152D02*
X83428571Y-141938152D01*
X83428571Y-141938152D02*
X83523809Y-141985771D01*
X83523809Y-141985771D02*
X83571428Y-142033390D01*
X83571428Y-142033390D02*
X83619047Y-142128628D01*
X83619047Y-142128628D02*
X83619047Y-142414342D01*
X83619047Y-142414342D02*
X83571428Y-142509580D01*
X83571428Y-142509580D02*
X83523809Y-142557200D01*
X83523809Y-142557200D02*
X83428571Y-142604819D01*
X83428571Y-142604819D02*
X83285714Y-142604819D01*
X84190476Y-142604819D02*
X84095238Y-142557200D01*
X84095238Y-142557200D02*
X84047619Y-142461961D01*
X84047619Y-142461961D02*
X84047619Y-141604819D01*
X84952381Y-142557200D02*
X84857143Y-142604819D01*
X84857143Y-142604819D02*
X84666667Y-142604819D01*
X84666667Y-142604819D02*
X84571429Y-142557200D01*
X84571429Y-142557200D02*
X84523810Y-142461961D01*
X84523810Y-142461961D02*
X84523810Y-142081009D01*
X84523810Y-142081009D02*
X84571429Y-141985771D01*
X84571429Y-141985771D02*
X84666667Y-141938152D01*
X84666667Y-141938152D02*
X84857143Y-141938152D01*
X84857143Y-141938152D02*
X84952381Y-141985771D01*
X84952381Y-141985771D02*
X85000000Y-142081009D01*
X85000000Y-142081009D02*
X85000000Y-142176247D01*
X85000000Y-142176247D02*
X84523810Y-142271485D01*
X85190477Y-142700057D02*
X85952381Y-142700057D01*
X86095239Y-141604819D02*
X86714286Y-141604819D01*
X86714286Y-141604819D02*
X86380953Y-141985771D01*
X86380953Y-141985771D02*
X86523810Y-141985771D01*
X86523810Y-141985771D02*
X86619048Y-142033390D01*
X86619048Y-142033390D02*
X86666667Y-142081009D01*
X86666667Y-142081009D02*
X86714286Y-142176247D01*
X86714286Y-142176247D02*
X86714286Y-142414342D01*
X86714286Y-142414342D02*
X86666667Y-142509580D01*
X86666667Y-142509580D02*
X86619048Y-142557200D01*
X86619048Y-142557200D02*
X86523810Y-142604819D01*
X86523810Y-142604819D02*
X86238096Y-142604819D01*
X86238096Y-142604819D02*
X86142858Y-142557200D01*
X86142858Y-142557200D02*
X86095239Y-142509580D01*
X87142858Y-142509580D02*
X87190477Y-142557200D01*
X87190477Y-142557200D02*
X87142858Y-142604819D01*
X87142858Y-142604819D02*
X87095239Y-142557200D01*
X87095239Y-142557200D02*
X87142858Y-142509580D01*
X87142858Y-142509580D02*
X87142858Y-142604819D01*
X87571429Y-141700057D02*
X87619048Y-141652438D01*
X87619048Y-141652438D02*
X87714286Y-141604819D01*
X87714286Y-141604819D02*
X87952381Y-141604819D01*
X87952381Y-141604819D02*
X88047619Y-141652438D01*
X88047619Y-141652438D02*
X88095238Y-141700057D01*
X88095238Y-141700057D02*
X88142857Y-141795295D01*
X88142857Y-141795295D02*
X88142857Y-141890533D01*
X88142857Y-141890533D02*
X88095238Y-142033390D01*
X88095238Y-142033390D02*
X87523810Y-142604819D01*
X87523810Y-142604819D02*
X88142857Y-142604819D01*
X88571429Y-142604819D02*
X88571429Y-141938152D01*
X88571429Y-142033390D02*
X88619048Y-141985771D01*
X88619048Y-141985771D02*
X88714286Y-141938152D01*
X88714286Y-141938152D02*
X88857143Y-141938152D01*
X88857143Y-141938152D02*
X88952381Y-141985771D01*
X88952381Y-141985771D02*
X89000000Y-142081009D01*
X89000000Y-142081009D02*
X89000000Y-142604819D01*
X89000000Y-142081009D02*
X89047619Y-141985771D01*
X89047619Y-141985771D02*
X89142857Y-141938152D01*
X89142857Y-141938152D02*
X89285714Y-141938152D01*
X89285714Y-141938152D02*
X89380953Y-141985771D01*
X89380953Y-141985771D02*
X89428572Y-142081009D01*
X89428572Y-142081009D02*
X89428572Y-142604819D01*
X89904762Y-142604819D02*
X89904762Y-141938152D01*
X89904762Y-142033390D02*
X89952381Y-141985771D01*
X89952381Y-141985771D02*
X90047619Y-141938152D01*
X90047619Y-141938152D02*
X90190476Y-141938152D01*
X90190476Y-141938152D02*
X90285714Y-141985771D01*
X90285714Y-141985771D02*
X90333333Y-142081009D01*
X90333333Y-142081009D02*
X90333333Y-142604819D01*
X90333333Y-142081009D02*
X90380952Y-141985771D01*
X90380952Y-141985771D02*
X90476190Y-141938152D01*
X90476190Y-141938152D02*
X90619047Y-141938152D01*
X90619047Y-141938152D02*
X90714286Y-141985771D01*
X90714286Y-141985771D02*
X90761905Y-142081009D01*
X90761905Y-142081009D02*
X90761905Y-142604819D01*
X91000000Y-142700057D02*
X91761904Y-142700057D01*
X92000000Y-142604819D02*
X92000000Y-141604819D01*
X92000000Y-141604819D02*
X92333333Y-142319104D01*
X92333333Y-142319104D02*
X92666666Y-141604819D01*
X92666666Y-141604819D02*
X92666666Y-142604819D01*
X93047619Y-141604819D02*
X93666666Y-141604819D01*
X93666666Y-141604819D02*
X93333333Y-141985771D01*
X93333333Y-141985771D02*
X93476190Y-141985771D01*
X93476190Y-141985771D02*
X93571428Y-142033390D01*
X93571428Y-142033390D02*
X93619047Y-142081009D01*
X93619047Y-142081009D02*
X93666666Y-142176247D01*
X93666666Y-142176247D02*
X93666666Y-142414342D01*
X93666666Y-142414342D02*
X93619047Y-142509580D01*
X93619047Y-142509580D02*
X93571428Y-142557200D01*
X93571428Y-142557200D02*
X93476190Y-142604819D01*
X93476190Y-142604819D02*
X93190476Y-142604819D01*
X93190476Y-142604819D02*
X93095238Y-142557200D01*
X93095238Y-142557200D02*
X93047619Y-142509580D01*
X83166667Y-138454819D02*
X83166667Y-137454819D01*
X83166667Y-137454819D02*
X83500000Y-138169104D01*
X83500000Y-138169104D02*
X83833333Y-137454819D01*
X83833333Y-137454819D02*
X83833333Y-138454819D01*
X84309524Y-138454819D02*
X84309524Y-137454819D01*
X84309524Y-137931009D02*
X84880952Y-137931009D01*
X84880952Y-138454819D02*
X84880952Y-137454819D01*
X85261905Y-137454819D02*
X85880952Y-137454819D01*
X85880952Y-137454819D02*
X85547619Y-137835771D01*
X85547619Y-137835771D02*
X85690476Y-137835771D01*
X85690476Y-137835771D02*
X85785714Y-137883390D01*
X85785714Y-137883390D02*
X85833333Y-137931009D01*
X85833333Y-137931009D02*
X85880952Y-138026247D01*
X85880952Y-138026247D02*
X85880952Y-138264342D01*
X85880952Y-138264342D02*
X85833333Y-138359580D01*
X85833333Y-138359580D02*
X85785714Y-138407200D01*
X85785714Y-138407200D02*
X85690476Y-138454819D01*
X85690476Y-138454819D02*
X85404762Y-138454819D01*
X85404762Y-138454819D02*
X85309524Y-138407200D01*
X85309524Y-138407200D02*
X85261905Y-138359580D01*
X75380952Y-82604819D02*
X75380952Y-81604819D01*
X75380952Y-81604819D02*
X75714285Y-82319104D01*
X75714285Y-82319104D02*
X76047618Y-81604819D01*
X76047618Y-81604819D02*
X76047618Y-82604819D01*
X76666666Y-82604819D02*
X76571428Y-82557200D01*
X76571428Y-82557200D02*
X76523809Y-82509580D01*
X76523809Y-82509580D02*
X76476190Y-82414342D01*
X76476190Y-82414342D02*
X76476190Y-82128628D01*
X76476190Y-82128628D02*
X76523809Y-82033390D01*
X76523809Y-82033390D02*
X76571428Y-81985771D01*
X76571428Y-81985771D02*
X76666666Y-81938152D01*
X76666666Y-81938152D02*
X76809523Y-81938152D01*
X76809523Y-81938152D02*
X76904761Y-81985771D01*
X76904761Y-81985771D02*
X76952380Y-82033390D01*
X76952380Y-82033390D02*
X76999999Y-82128628D01*
X76999999Y-82128628D02*
X76999999Y-82414342D01*
X76999999Y-82414342D02*
X76952380Y-82509580D01*
X76952380Y-82509580D02*
X76904761Y-82557200D01*
X76904761Y-82557200D02*
X76809523Y-82604819D01*
X76809523Y-82604819D02*
X76666666Y-82604819D01*
X77857142Y-81938152D02*
X77857142Y-82604819D01*
X77428571Y-81938152D02*
X77428571Y-82461961D01*
X77428571Y-82461961D02*
X77476190Y-82557200D01*
X77476190Y-82557200D02*
X77571428Y-82604819D01*
X77571428Y-82604819D02*
X77714285Y-82604819D01*
X77714285Y-82604819D02*
X77809523Y-82557200D01*
X77809523Y-82557200D02*
X77857142Y-82509580D01*
X78333333Y-81938152D02*
X78333333Y-82604819D01*
X78333333Y-82033390D02*
X78380952Y-81985771D01*
X78380952Y-81985771D02*
X78476190Y-81938152D01*
X78476190Y-81938152D02*
X78619047Y-81938152D01*
X78619047Y-81938152D02*
X78714285Y-81985771D01*
X78714285Y-81985771D02*
X78761904Y-82081009D01*
X78761904Y-82081009D02*
X78761904Y-82604819D01*
X79095238Y-81938152D02*
X79476190Y-81938152D01*
X79238095Y-81604819D02*
X79238095Y-82461961D01*
X79238095Y-82461961D02*
X79285714Y-82557200D01*
X79285714Y-82557200D02*
X79380952Y-82604819D01*
X79380952Y-82604819D02*
X79476190Y-82604819D01*
X79809524Y-82604819D02*
X79809524Y-81938152D01*
X79809524Y-81604819D02*
X79761905Y-81652438D01*
X79761905Y-81652438D02*
X79809524Y-81700057D01*
X79809524Y-81700057D02*
X79857143Y-81652438D01*
X79857143Y-81652438D02*
X79809524Y-81604819D01*
X79809524Y-81604819D02*
X79809524Y-81700057D01*
X80285714Y-81938152D02*
X80285714Y-82604819D01*
X80285714Y-82033390D02*
X80333333Y-81985771D01*
X80333333Y-81985771D02*
X80428571Y-81938152D01*
X80428571Y-81938152D02*
X80571428Y-81938152D01*
X80571428Y-81938152D02*
X80666666Y-81985771D01*
X80666666Y-81985771D02*
X80714285Y-82081009D01*
X80714285Y-82081009D02*
X80714285Y-82604819D01*
X81619047Y-81938152D02*
X81619047Y-82747676D01*
X81619047Y-82747676D02*
X81571428Y-82842914D01*
X81571428Y-82842914D02*
X81523809Y-82890533D01*
X81523809Y-82890533D02*
X81428571Y-82938152D01*
X81428571Y-82938152D02*
X81285714Y-82938152D01*
X81285714Y-82938152D02*
X81190476Y-82890533D01*
X81619047Y-82557200D02*
X81523809Y-82604819D01*
X81523809Y-82604819D02*
X81333333Y-82604819D01*
X81333333Y-82604819D02*
X81238095Y-82557200D01*
X81238095Y-82557200D02*
X81190476Y-82509580D01*
X81190476Y-82509580D02*
X81142857Y-82414342D01*
X81142857Y-82414342D02*
X81142857Y-82128628D01*
X81142857Y-82128628D02*
X81190476Y-82033390D01*
X81190476Y-82033390D02*
X81238095Y-81985771D01*
X81238095Y-81985771D02*
X81333333Y-81938152D01*
X81333333Y-81938152D02*
X81523809Y-81938152D01*
X81523809Y-81938152D02*
X81619047Y-81985771D01*
X82095238Y-82604819D02*
X82095238Y-81604819D01*
X82095238Y-82081009D02*
X82666666Y-82081009D01*
X82666666Y-82604819D02*
X82666666Y-81604819D01*
X83285714Y-82604819D02*
X83190476Y-82557200D01*
X83190476Y-82557200D02*
X83142857Y-82509580D01*
X83142857Y-82509580D02*
X83095238Y-82414342D01*
X83095238Y-82414342D02*
X83095238Y-82128628D01*
X83095238Y-82128628D02*
X83142857Y-82033390D01*
X83142857Y-82033390D02*
X83190476Y-81985771D01*
X83190476Y-81985771D02*
X83285714Y-81938152D01*
X83285714Y-81938152D02*
X83428571Y-81938152D01*
X83428571Y-81938152D02*
X83523809Y-81985771D01*
X83523809Y-81985771D02*
X83571428Y-82033390D01*
X83571428Y-82033390D02*
X83619047Y-82128628D01*
X83619047Y-82128628D02*
X83619047Y-82414342D01*
X83619047Y-82414342D02*
X83571428Y-82509580D01*
X83571428Y-82509580D02*
X83523809Y-82557200D01*
X83523809Y-82557200D02*
X83428571Y-82604819D01*
X83428571Y-82604819D02*
X83285714Y-82604819D01*
X84190476Y-82604819D02*
X84095238Y-82557200D01*
X84095238Y-82557200D02*
X84047619Y-82461961D01*
X84047619Y-82461961D02*
X84047619Y-81604819D01*
X84952381Y-82557200D02*
X84857143Y-82604819D01*
X84857143Y-82604819D02*
X84666667Y-82604819D01*
X84666667Y-82604819D02*
X84571429Y-82557200D01*
X84571429Y-82557200D02*
X84523810Y-82461961D01*
X84523810Y-82461961D02*
X84523810Y-82081009D01*
X84523810Y-82081009D02*
X84571429Y-81985771D01*
X84571429Y-81985771D02*
X84666667Y-81938152D01*
X84666667Y-81938152D02*
X84857143Y-81938152D01*
X84857143Y-81938152D02*
X84952381Y-81985771D01*
X84952381Y-81985771D02*
X85000000Y-82081009D01*
X85000000Y-82081009D02*
X85000000Y-82176247D01*
X85000000Y-82176247D02*
X84523810Y-82271485D01*
X85190477Y-82700057D02*
X85952381Y-82700057D01*
X86095239Y-81604819D02*
X86714286Y-81604819D01*
X86714286Y-81604819D02*
X86380953Y-81985771D01*
X86380953Y-81985771D02*
X86523810Y-81985771D01*
X86523810Y-81985771D02*
X86619048Y-82033390D01*
X86619048Y-82033390D02*
X86666667Y-82081009D01*
X86666667Y-82081009D02*
X86714286Y-82176247D01*
X86714286Y-82176247D02*
X86714286Y-82414342D01*
X86714286Y-82414342D02*
X86666667Y-82509580D01*
X86666667Y-82509580D02*
X86619048Y-82557200D01*
X86619048Y-82557200D02*
X86523810Y-82604819D01*
X86523810Y-82604819D02*
X86238096Y-82604819D01*
X86238096Y-82604819D02*
X86142858Y-82557200D01*
X86142858Y-82557200D02*
X86095239Y-82509580D01*
X87142858Y-82509580D02*
X87190477Y-82557200D01*
X87190477Y-82557200D02*
X87142858Y-82604819D01*
X87142858Y-82604819D02*
X87095239Y-82557200D01*
X87095239Y-82557200D02*
X87142858Y-82509580D01*
X87142858Y-82509580D02*
X87142858Y-82604819D01*
X87571429Y-81700057D02*
X87619048Y-81652438D01*
X87619048Y-81652438D02*
X87714286Y-81604819D01*
X87714286Y-81604819D02*
X87952381Y-81604819D01*
X87952381Y-81604819D02*
X88047619Y-81652438D01*
X88047619Y-81652438D02*
X88095238Y-81700057D01*
X88095238Y-81700057D02*
X88142857Y-81795295D01*
X88142857Y-81795295D02*
X88142857Y-81890533D01*
X88142857Y-81890533D02*
X88095238Y-82033390D01*
X88095238Y-82033390D02*
X87523810Y-82604819D01*
X87523810Y-82604819D02*
X88142857Y-82604819D01*
X88571429Y-82604819D02*
X88571429Y-81938152D01*
X88571429Y-82033390D02*
X88619048Y-81985771D01*
X88619048Y-81985771D02*
X88714286Y-81938152D01*
X88714286Y-81938152D02*
X88857143Y-81938152D01*
X88857143Y-81938152D02*
X88952381Y-81985771D01*
X88952381Y-81985771D02*
X89000000Y-82081009D01*
X89000000Y-82081009D02*
X89000000Y-82604819D01*
X89000000Y-82081009D02*
X89047619Y-81985771D01*
X89047619Y-81985771D02*
X89142857Y-81938152D01*
X89142857Y-81938152D02*
X89285714Y-81938152D01*
X89285714Y-81938152D02*
X89380953Y-81985771D01*
X89380953Y-81985771D02*
X89428572Y-82081009D01*
X89428572Y-82081009D02*
X89428572Y-82604819D01*
X89904762Y-82604819D02*
X89904762Y-81938152D01*
X89904762Y-82033390D02*
X89952381Y-81985771D01*
X89952381Y-81985771D02*
X90047619Y-81938152D01*
X90047619Y-81938152D02*
X90190476Y-81938152D01*
X90190476Y-81938152D02*
X90285714Y-81985771D01*
X90285714Y-81985771D02*
X90333333Y-82081009D01*
X90333333Y-82081009D02*
X90333333Y-82604819D01*
X90333333Y-82081009D02*
X90380952Y-81985771D01*
X90380952Y-81985771D02*
X90476190Y-81938152D01*
X90476190Y-81938152D02*
X90619047Y-81938152D01*
X90619047Y-81938152D02*
X90714286Y-81985771D01*
X90714286Y-81985771D02*
X90761905Y-82081009D01*
X90761905Y-82081009D02*
X90761905Y-82604819D01*
X91000000Y-82700057D02*
X91761904Y-82700057D01*
X92000000Y-82604819D02*
X92000000Y-81604819D01*
X92000000Y-81604819D02*
X92333333Y-82319104D01*
X92333333Y-82319104D02*
X92666666Y-81604819D01*
X92666666Y-81604819D02*
X92666666Y-82604819D01*
X93047619Y-81604819D02*
X93666666Y-81604819D01*
X93666666Y-81604819D02*
X93333333Y-81985771D01*
X93333333Y-81985771D02*
X93476190Y-81985771D01*
X93476190Y-81985771D02*
X93571428Y-82033390D01*
X93571428Y-82033390D02*
X93619047Y-82081009D01*
X93619047Y-82081009D02*
X93666666Y-82176247D01*
X93666666Y-82176247D02*
X93666666Y-82414342D01*
X93666666Y-82414342D02*
X93619047Y-82509580D01*
X93619047Y-82509580D02*
X93571428Y-82557200D01*
X93571428Y-82557200D02*
X93476190Y-82604819D01*
X93476190Y-82604819D02*
X93190476Y-82604819D01*
X93190476Y-82604819D02*
X93095238Y-82557200D01*
X93095238Y-82557200D02*
X93047619Y-82509580D01*
X83166667Y-78454819D02*
X83166667Y-77454819D01*
X83166667Y-77454819D02*
X83500000Y-78169104D01*
X83500000Y-78169104D02*
X83833333Y-77454819D01*
X83833333Y-77454819D02*
X83833333Y-78454819D01*
X84309524Y-78454819D02*
X84309524Y-77454819D01*
X84309524Y-77931009D02*
X84880952Y-77931009D01*
X84880952Y-78454819D02*
X84880952Y-77454819D01*
X85880952Y-78454819D02*
X85309524Y-78454819D01*
X85595238Y-78454819D02*
X85595238Y-77454819D01*
X85595238Y-77454819D02*
X85500000Y-77597676D01*
X85500000Y-77597676D02*
X85404762Y-77692914D01*
X85404762Y-77692914D02*
X85309524Y-77740533D01*
X185380952Y-82604819D02*
X185380952Y-81604819D01*
X185380952Y-81604819D02*
X185714285Y-82319104D01*
X185714285Y-82319104D02*
X186047618Y-81604819D01*
X186047618Y-81604819D02*
X186047618Y-82604819D01*
X186666666Y-82604819D02*
X186571428Y-82557200D01*
X186571428Y-82557200D02*
X186523809Y-82509580D01*
X186523809Y-82509580D02*
X186476190Y-82414342D01*
X186476190Y-82414342D02*
X186476190Y-82128628D01*
X186476190Y-82128628D02*
X186523809Y-82033390D01*
X186523809Y-82033390D02*
X186571428Y-81985771D01*
X186571428Y-81985771D02*
X186666666Y-81938152D01*
X186666666Y-81938152D02*
X186809523Y-81938152D01*
X186809523Y-81938152D02*
X186904761Y-81985771D01*
X186904761Y-81985771D02*
X186952380Y-82033390D01*
X186952380Y-82033390D02*
X186999999Y-82128628D01*
X186999999Y-82128628D02*
X186999999Y-82414342D01*
X186999999Y-82414342D02*
X186952380Y-82509580D01*
X186952380Y-82509580D02*
X186904761Y-82557200D01*
X186904761Y-82557200D02*
X186809523Y-82604819D01*
X186809523Y-82604819D02*
X186666666Y-82604819D01*
X187857142Y-81938152D02*
X187857142Y-82604819D01*
X187428571Y-81938152D02*
X187428571Y-82461961D01*
X187428571Y-82461961D02*
X187476190Y-82557200D01*
X187476190Y-82557200D02*
X187571428Y-82604819D01*
X187571428Y-82604819D02*
X187714285Y-82604819D01*
X187714285Y-82604819D02*
X187809523Y-82557200D01*
X187809523Y-82557200D02*
X187857142Y-82509580D01*
X188333333Y-81938152D02*
X188333333Y-82604819D01*
X188333333Y-82033390D02*
X188380952Y-81985771D01*
X188380952Y-81985771D02*
X188476190Y-81938152D01*
X188476190Y-81938152D02*
X188619047Y-81938152D01*
X188619047Y-81938152D02*
X188714285Y-81985771D01*
X188714285Y-81985771D02*
X188761904Y-82081009D01*
X188761904Y-82081009D02*
X188761904Y-82604819D01*
X189095238Y-81938152D02*
X189476190Y-81938152D01*
X189238095Y-81604819D02*
X189238095Y-82461961D01*
X189238095Y-82461961D02*
X189285714Y-82557200D01*
X189285714Y-82557200D02*
X189380952Y-82604819D01*
X189380952Y-82604819D02*
X189476190Y-82604819D01*
X189809524Y-82604819D02*
X189809524Y-81938152D01*
X189809524Y-81604819D02*
X189761905Y-81652438D01*
X189761905Y-81652438D02*
X189809524Y-81700057D01*
X189809524Y-81700057D02*
X189857143Y-81652438D01*
X189857143Y-81652438D02*
X189809524Y-81604819D01*
X189809524Y-81604819D02*
X189809524Y-81700057D01*
X190285714Y-81938152D02*
X190285714Y-82604819D01*
X190285714Y-82033390D02*
X190333333Y-81985771D01*
X190333333Y-81985771D02*
X190428571Y-81938152D01*
X190428571Y-81938152D02*
X190571428Y-81938152D01*
X190571428Y-81938152D02*
X190666666Y-81985771D01*
X190666666Y-81985771D02*
X190714285Y-82081009D01*
X190714285Y-82081009D02*
X190714285Y-82604819D01*
X191619047Y-81938152D02*
X191619047Y-82747676D01*
X191619047Y-82747676D02*
X191571428Y-82842914D01*
X191571428Y-82842914D02*
X191523809Y-82890533D01*
X191523809Y-82890533D02*
X191428571Y-82938152D01*
X191428571Y-82938152D02*
X191285714Y-82938152D01*
X191285714Y-82938152D02*
X191190476Y-82890533D01*
X191619047Y-82557200D02*
X191523809Y-82604819D01*
X191523809Y-82604819D02*
X191333333Y-82604819D01*
X191333333Y-82604819D02*
X191238095Y-82557200D01*
X191238095Y-82557200D02*
X191190476Y-82509580D01*
X191190476Y-82509580D02*
X191142857Y-82414342D01*
X191142857Y-82414342D02*
X191142857Y-82128628D01*
X191142857Y-82128628D02*
X191190476Y-82033390D01*
X191190476Y-82033390D02*
X191238095Y-81985771D01*
X191238095Y-81985771D02*
X191333333Y-81938152D01*
X191333333Y-81938152D02*
X191523809Y-81938152D01*
X191523809Y-81938152D02*
X191619047Y-81985771D01*
X192095238Y-82604819D02*
X192095238Y-81604819D01*
X192095238Y-82081009D02*
X192666666Y-82081009D01*
X192666666Y-82604819D02*
X192666666Y-81604819D01*
X193285714Y-82604819D02*
X193190476Y-82557200D01*
X193190476Y-82557200D02*
X193142857Y-82509580D01*
X193142857Y-82509580D02*
X193095238Y-82414342D01*
X193095238Y-82414342D02*
X193095238Y-82128628D01*
X193095238Y-82128628D02*
X193142857Y-82033390D01*
X193142857Y-82033390D02*
X193190476Y-81985771D01*
X193190476Y-81985771D02*
X193285714Y-81938152D01*
X193285714Y-81938152D02*
X193428571Y-81938152D01*
X193428571Y-81938152D02*
X193523809Y-81985771D01*
X193523809Y-81985771D02*
X193571428Y-82033390D01*
X193571428Y-82033390D02*
X193619047Y-82128628D01*
X193619047Y-82128628D02*
X193619047Y-82414342D01*
X193619047Y-82414342D02*
X193571428Y-82509580D01*
X193571428Y-82509580D02*
X193523809Y-82557200D01*
X193523809Y-82557200D02*
X193428571Y-82604819D01*
X193428571Y-82604819D02*
X193285714Y-82604819D01*
X194190476Y-82604819D02*
X194095238Y-82557200D01*
X194095238Y-82557200D02*
X194047619Y-82461961D01*
X194047619Y-82461961D02*
X194047619Y-81604819D01*
X194952381Y-82557200D02*
X194857143Y-82604819D01*
X194857143Y-82604819D02*
X194666667Y-82604819D01*
X194666667Y-82604819D02*
X194571429Y-82557200D01*
X194571429Y-82557200D02*
X194523810Y-82461961D01*
X194523810Y-82461961D02*
X194523810Y-82081009D01*
X194523810Y-82081009D02*
X194571429Y-81985771D01*
X194571429Y-81985771D02*
X194666667Y-81938152D01*
X194666667Y-81938152D02*
X194857143Y-81938152D01*
X194857143Y-81938152D02*
X194952381Y-81985771D01*
X194952381Y-81985771D02*
X195000000Y-82081009D01*
X195000000Y-82081009D02*
X195000000Y-82176247D01*
X195000000Y-82176247D02*
X194523810Y-82271485D01*
X195190477Y-82700057D02*
X195952381Y-82700057D01*
X196095239Y-81604819D02*
X196714286Y-81604819D01*
X196714286Y-81604819D02*
X196380953Y-81985771D01*
X196380953Y-81985771D02*
X196523810Y-81985771D01*
X196523810Y-81985771D02*
X196619048Y-82033390D01*
X196619048Y-82033390D02*
X196666667Y-82081009D01*
X196666667Y-82081009D02*
X196714286Y-82176247D01*
X196714286Y-82176247D02*
X196714286Y-82414342D01*
X196714286Y-82414342D02*
X196666667Y-82509580D01*
X196666667Y-82509580D02*
X196619048Y-82557200D01*
X196619048Y-82557200D02*
X196523810Y-82604819D01*
X196523810Y-82604819D02*
X196238096Y-82604819D01*
X196238096Y-82604819D02*
X196142858Y-82557200D01*
X196142858Y-82557200D02*
X196095239Y-82509580D01*
X197142858Y-82509580D02*
X197190477Y-82557200D01*
X197190477Y-82557200D02*
X197142858Y-82604819D01*
X197142858Y-82604819D02*
X197095239Y-82557200D01*
X197095239Y-82557200D02*
X197142858Y-82509580D01*
X197142858Y-82509580D02*
X197142858Y-82604819D01*
X197571429Y-81700057D02*
X197619048Y-81652438D01*
X197619048Y-81652438D02*
X197714286Y-81604819D01*
X197714286Y-81604819D02*
X197952381Y-81604819D01*
X197952381Y-81604819D02*
X198047619Y-81652438D01*
X198047619Y-81652438D02*
X198095238Y-81700057D01*
X198095238Y-81700057D02*
X198142857Y-81795295D01*
X198142857Y-81795295D02*
X198142857Y-81890533D01*
X198142857Y-81890533D02*
X198095238Y-82033390D01*
X198095238Y-82033390D02*
X197523810Y-82604819D01*
X197523810Y-82604819D02*
X198142857Y-82604819D01*
X198571429Y-82604819D02*
X198571429Y-81938152D01*
X198571429Y-82033390D02*
X198619048Y-81985771D01*
X198619048Y-81985771D02*
X198714286Y-81938152D01*
X198714286Y-81938152D02*
X198857143Y-81938152D01*
X198857143Y-81938152D02*
X198952381Y-81985771D01*
X198952381Y-81985771D02*
X199000000Y-82081009D01*
X199000000Y-82081009D02*
X199000000Y-82604819D01*
X199000000Y-82081009D02*
X199047619Y-81985771D01*
X199047619Y-81985771D02*
X199142857Y-81938152D01*
X199142857Y-81938152D02*
X199285714Y-81938152D01*
X199285714Y-81938152D02*
X199380953Y-81985771D01*
X199380953Y-81985771D02*
X199428572Y-82081009D01*
X199428572Y-82081009D02*
X199428572Y-82604819D01*
X199904762Y-82604819D02*
X199904762Y-81938152D01*
X199904762Y-82033390D02*
X199952381Y-81985771D01*
X199952381Y-81985771D02*
X200047619Y-81938152D01*
X200047619Y-81938152D02*
X200190476Y-81938152D01*
X200190476Y-81938152D02*
X200285714Y-81985771D01*
X200285714Y-81985771D02*
X200333333Y-82081009D01*
X200333333Y-82081009D02*
X200333333Y-82604819D01*
X200333333Y-82081009D02*
X200380952Y-81985771D01*
X200380952Y-81985771D02*
X200476190Y-81938152D01*
X200476190Y-81938152D02*
X200619047Y-81938152D01*
X200619047Y-81938152D02*
X200714286Y-81985771D01*
X200714286Y-81985771D02*
X200761905Y-82081009D01*
X200761905Y-82081009D02*
X200761905Y-82604819D01*
X201000000Y-82700057D02*
X201761904Y-82700057D01*
X202000000Y-82604819D02*
X202000000Y-81604819D01*
X202000000Y-81604819D02*
X202333333Y-82319104D01*
X202333333Y-82319104D02*
X202666666Y-81604819D01*
X202666666Y-81604819D02*
X202666666Y-82604819D01*
X203047619Y-81604819D02*
X203666666Y-81604819D01*
X203666666Y-81604819D02*
X203333333Y-81985771D01*
X203333333Y-81985771D02*
X203476190Y-81985771D01*
X203476190Y-81985771D02*
X203571428Y-82033390D01*
X203571428Y-82033390D02*
X203619047Y-82081009D01*
X203619047Y-82081009D02*
X203666666Y-82176247D01*
X203666666Y-82176247D02*
X203666666Y-82414342D01*
X203666666Y-82414342D02*
X203619047Y-82509580D01*
X203619047Y-82509580D02*
X203571428Y-82557200D01*
X203571428Y-82557200D02*
X203476190Y-82604819D01*
X203476190Y-82604819D02*
X203190476Y-82604819D01*
X203190476Y-82604819D02*
X203095238Y-82557200D01*
X203095238Y-82557200D02*
X203047619Y-82509580D01*
X193166667Y-78454819D02*
X193166667Y-77454819D01*
X193166667Y-77454819D02*
X193500000Y-78169104D01*
X193500000Y-78169104D02*
X193833333Y-77454819D01*
X193833333Y-77454819D02*
X193833333Y-78454819D01*
X194309524Y-78454819D02*
X194309524Y-77454819D01*
X194309524Y-77931009D02*
X194880952Y-77931009D01*
X194880952Y-78454819D02*
X194880952Y-77454819D01*
X195309524Y-77550057D02*
X195357143Y-77502438D01*
X195357143Y-77502438D02*
X195452381Y-77454819D01*
X195452381Y-77454819D02*
X195690476Y-77454819D01*
X195690476Y-77454819D02*
X195785714Y-77502438D01*
X195785714Y-77502438D02*
X195833333Y-77550057D01*
X195833333Y-77550057D02*
X195880952Y-77645295D01*
X195880952Y-77645295D02*
X195880952Y-77740533D01*
X195880952Y-77740533D02*
X195833333Y-77883390D01*
X195833333Y-77883390D02*
X195261905Y-78454819D01*
X195261905Y-78454819D02*
X195880952Y-78454819D01*
X185380952Y-142604819D02*
X185380952Y-141604819D01*
X185380952Y-141604819D02*
X185714285Y-142319104D01*
X185714285Y-142319104D02*
X186047618Y-141604819D01*
X186047618Y-141604819D02*
X186047618Y-142604819D01*
X186666666Y-142604819D02*
X186571428Y-142557200D01*
X186571428Y-142557200D02*
X186523809Y-142509580D01*
X186523809Y-142509580D02*
X186476190Y-142414342D01*
X186476190Y-142414342D02*
X186476190Y-142128628D01*
X186476190Y-142128628D02*
X186523809Y-142033390D01*
X186523809Y-142033390D02*
X186571428Y-141985771D01*
X186571428Y-141985771D02*
X186666666Y-141938152D01*
X186666666Y-141938152D02*
X186809523Y-141938152D01*
X186809523Y-141938152D02*
X186904761Y-141985771D01*
X186904761Y-141985771D02*
X186952380Y-142033390D01*
X186952380Y-142033390D02*
X186999999Y-142128628D01*
X186999999Y-142128628D02*
X186999999Y-142414342D01*
X186999999Y-142414342D02*
X186952380Y-142509580D01*
X186952380Y-142509580D02*
X186904761Y-142557200D01*
X186904761Y-142557200D02*
X186809523Y-142604819D01*
X186809523Y-142604819D02*
X186666666Y-142604819D01*
X187857142Y-141938152D02*
X187857142Y-142604819D01*
X187428571Y-141938152D02*
X187428571Y-142461961D01*
X187428571Y-142461961D02*
X187476190Y-142557200D01*
X187476190Y-142557200D02*
X187571428Y-142604819D01*
X187571428Y-142604819D02*
X187714285Y-142604819D01*
X187714285Y-142604819D02*
X187809523Y-142557200D01*
X187809523Y-142557200D02*
X187857142Y-142509580D01*
X188333333Y-141938152D02*
X188333333Y-142604819D01*
X188333333Y-142033390D02*
X188380952Y-141985771D01*
X188380952Y-141985771D02*
X188476190Y-141938152D01*
X188476190Y-141938152D02*
X188619047Y-141938152D01*
X188619047Y-141938152D02*
X188714285Y-141985771D01*
X188714285Y-141985771D02*
X188761904Y-142081009D01*
X188761904Y-142081009D02*
X188761904Y-142604819D01*
X189095238Y-141938152D02*
X189476190Y-141938152D01*
X189238095Y-141604819D02*
X189238095Y-142461961D01*
X189238095Y-142461961D02*
X189285714Y-142557200D01*
X189285714Y-142557200D02*
X189380952Y-142604819D01*
X189380952Y-142604819D02*
X189476190Y-142604819D01*
X189809524Y-142604819D02*
X189809524Y-141938152D01*
X189809524Y-141604819D02*
X189761905Y-141652438D01*
X189761905Y-141652438D02*
X189809524Y-141700057D01*
X189809524Y-141700057D02*
X189857143Y-141652438D01*
X189857143Y-141652438D02*
X189809524Y-141604819D01*
X189809524Y-141604819D02*
X189809524Y-141700057D01*
X190285714Y-141938152D02*
X190285714Y-142604819D01*
X190285714Y-142033390D02*
X190333333Y-141985771D01*
X190333333Y-141985771D02*
X190428571Y-141938152D01*
X190428571Y-141938152D02*
X190571428Y-141938152D01*
X190571428Y-141938152D02*
X190666666Y-141985771D01*
X190666666Y-141985771D02*
X190714285Y-142081009D01*
X190714285Y-142081009D02*
X190714285Y-142604819D01*
X191619047Y-141938152D02*
X191619047Y-142747676D01*
X191619047Y-142747676D02*
X191571428Y-142842914D01*
X191571428Y-142842914D02*
X191523809Y-142890533D01*
X191523809Y-142890533D02*
X191428571Y-142938152D01*
X191428571Y-142938152D02*
X191285714Y-142938152D01*
X191285714Y-142938152D02*
X191190476Y-142890533D01*
X191619047Y-142557200D02*
X191523809Y-142604819D01*
X191523809Y-142604819D02*
X191333333Y-142604819D01*
X191333333Y-142604819D02*
X191238095Y-142557200D01*
X191238095Y-142557200D02*
X191190476Y-142509580D01*
X191190476Y-142509580D02*
X191142857Y-142414342D01*
X191142857Y-142414342D02*
X191142857Y-142128628D01*
X191142857Y-142128628D02*
X191190476Y-142033390D01*
X191190476Y-142033390D02*
X191238095Y-141985771D01*
X191238095Y-141985771D02*
X191333333Y-141938152D01*
X191333333Y-141938152D02*
X191523809Y-141938152D01*
X191523809Y-141938152D02*
X191619047Y-141985771D01*
X192095238Y-142604819D02*
X192095238Y-141604819D01*
X192095238Y-142081009D02*
X192666666Y-142081009D01*
X192666666Y-142604819D02*
X192666666Y-141604819D01*
X193285714Y-142604819D02*
X193190476Y-142557200D01*
X193190476Y-142557200D02*
X193142857Y-142509580D01*
X193142857Y-142509580D02*
X193095238Y-142414342D01*
X193095238Y-142414342D02*
X193095238Y-142128628D01*
X193095238Y-142128628D02*
X193142857Y-142033390D01*
X193142857Y-142033390D02*
X193190476Y-141985771D01*
X193190476Y-141985771D02*
X193285714Y-141938152D01*
X193285714Y-141938152D02*
X193428571Y-141938152D01*
X193428571Y-141938152D02*
X193523809Y-141985771D01*
X193523809Y-141985771D02*
X193571428Y-142033390D01*
X193571428Y-142033390D02*
X193619047Y-142128628D01*
X193619047Y-142128628D02*
X193619047Y-142414342D01*
X193619047Y-142414342D02*
X193571428Y-142509580D01*
X193571428Y-142509580D02*
X193523809Y-142557200D01*
X193523809Y-142557200D02*
X193428571Y-142604819D01*
X193428571Y-142604819D02*
X193285714Y-142604819D01*
X194190476Y-142604819D02*
X194095238Y-142557200D01*
X194095238Y-142557200D02*
X194047619Y-142461961D01*
X194047619Y-142461961D02*
X194047619Y-141604819D01*
X194952381Y-142557200D02*
X194857143Y-142604819D01*
X194857143Y-142604819D02*
X194666667Y-142604819D01*
X194666667Y-142604819D02*
X194571429Y-142557200D01*
X194571429Y-142557200D02*
X194523810Y-142461961D01*
X194523810Y-142461961D02*
X194523810Y-142081009D01*
X194523810Y-142081009D02*
X194571429Y-141985771D01*
X194571429Y-141985771D02*
X194666667Y-141938152D01*
X194666667Y-141938152D02*
X194857143Y-141938152D01*
X194857143Y-141938152D02*
X194952381Y-141985771D01*
X194952381Y-141985771D02*
X195000000Y-142081009D01*
X195000000Y-142081009D02*
X195000000Y-142176247D01*
X195000000Y-142176247D02*
X194523810Y-142271485D01*
X195190477Y-142700057D02*
X195952381Y-142700057D01*
X196095239Y-141604819D02*
X196714286Y-141604819D01*
X196714286Y-141604819D02*
X196380953Y-141985771D01*
X196380953Y-141985771D02*
X196523810Y-141985771D01*
X196523810Y-141985771D02*
X196619048Y-142033390D01*
X196619048Y-142033390D02*
X196666667Y-142081009D01*
X196666667Y-142081009D02*
X196714286Y-142176247D01*
X196714286Y-142176247D02*
X196714286Y-142414342D01*
X196714286Y-142414342D02*
X196666667Y-142509580D01*
X196666667Y-142509580D02*
X196619048Y-142557200D01*
X196619048Y-142557200D02*
X196523810Y-142604819D01*
X196523810Y-142604819D02*
X196238096Y-142604819D01*
X196238096Y-142604819D02*
X196142858Y-142557200D01*
X196142858Y-142557200D02*
X196095239Y-142509580D01*
X197142858Y-142509580D02*
X197190477Y-142557200D01*
X197190477Y-142557200D02*
X197142858Y-142604819D01*
X197142858Y-142604819D02*
X197095239Y-142557200D01*
X197095239Y-142557200D02*
X197142858Y-142509580D01*
X197142858Y-142509580D02*
X197142858Y-142604819D01*
X197571429Y-141700057D02*
X197619048Y-141652438D01*
X197619048Y-141652438D02*
X197714286Y-141604819D01*
X197714286Y-141604819D02*
X197952381Y-141604819D01*
X197952381Y-141604819D02*
X198047619Y-141652438D01*
X198047619Y-141652438D02*
X198095238Y-141700057D01*
X198095238Y-141700057D02*
X198142857Y-141795295D01*
X198142857Y-141795295D02*
X198142857Y-141890533D01*
X198142857Y-141890533D02*
X198095238Y-142033390D01*
X198095238Y-142033390D02*
X197523810Y-142604819D01*
X197523810Y-142604819D02*
X198142857Y-142604819D01*
X198571429Y-142604819D02*
X198571429Y-141938152D01*
X198571429Y-142033390D02*
X198619048Y-141985771D01*
X198619048Y-141985771D02*
X198714286Y-141938152D01*
X198714286Y-141938152D02*
X198857143Y-141938152D01*
X198857143Y-141938152D02*
X198952381Y-141985771D01*
X198952381Y-141985771D02*
X199000000Y-142081009D01*
X199000000Y-142081009D02*
X199000000Y-142604819D01*
X199000000Y-142081009D02*
X199047619Y-141985771D01*
X199047619Y-141985771D02*
X199142857Y-141938152D01*
X199142857Y-141938152D02*
X199285714Y-141938152D01*
X199285714Y-141938152D02*
X199380953Y-141985771D01*
X199380953Y-141985771D02*
X199428572Y-142081009D01*
X199428572Y-142081009D02*
X199428572Y-142604819D01*
X199904762Y-142604819D02*
X199904762Y-141938152D01*
X199904762Y-142033390D02*
X199952381Y-141985771D01*
X199952381Y-141985771D02*
X200047619Y-141938152D01*
X200047619Y-141938152D02*
X200190476Y-141938152D01*
X200190476Y-141938152D02*
X200285714Y-141985771D01*
X200285714Y-141985771D02*
X200333333Y-142081009D01*
X200333333Y-142081009D02*
X200333333Y-142604819D01*
X200333333Y-142081009D02*
X200380952Y-141985771D01*
X200380952Y-141985771D02*
X200476190Y-141938152D01*
X200476190Y-141938152D02*
X200619047Y-141938152D01*
X200619047Y-141938152D02*
X200714286Y-141985771D01*
X200714286Y-141985771D02*
X200761905Y-142081009D01*
X200761905Y-142081009D02*
X200761905Y-142604819D01*
X201000000Y-142700057D02*
X201761904Y-142700057D01*
X202000000Y-142604819D02*
X202000000Y-141604819D01*
X202000000Y-141604819D02*
X202333333Y-142319104D01*
X202333333Y-142319104D02*
X202666666Y-141604819D01*
X202666666Y-141604819D02*
X202666666Y-142604819D01*
X203047619Y-141604819D02*
X203666666Y-141604819D01*
X203666666Y-141604819D02*
X203333333Y-141985771D01*
X203333333Y-141985771D02*
X203476190Y-141985771D01*
X203476190Y-141985771D02*
X203571428Y-142033390D01*
X203571428Y-142033390D02*
X203619047Y-142081009D01*
X203619047Y-142081009D02*
X203666666Y-142176247D01*
X203666666Y-142176247D02*
X203666666Y-142414342D01*
X203666666Y-142414342D02*
X203619047Y-142509580D01*
X203619047Y-142509580D02*
X203571428Y-142557200D01*
X203571428Y-142557200D02*
X203476190Y-142604819D01*
X203476190Y-142604819D02*
X203190476Y-142604819D01*
X203190476Y-142604819D02*
X203095238Y-142557200D01*
X203095238Y-142557200D02*
X203047619Y-142509580D01*
X193166667Y-138454819D02*
X193166667Y-137454819D01*
X193166667Y-137454819D02*
X193500000Y-138169104D01*
X193500000Y-138169104D02*
X193833333Y-137454819D01*
X193833333Y-137454819D02*
X193833333Y-138454819D01*
X194309524Y-138454819D02*
X194309524Y-137454819D01*
X194309524Y-137931009D02*
X194880952Y-137931009D01*
X194880952Y-138454819D02*
X194880952Y-137454819D01*
X195785714Y-137788152D02*
X195785714Y-138454819D01*
X195547619Y-137407200D02*
X195309524Y-138121485D01*
X195309524Y-138121485D02*
X195928571Y-138121485D01*
M02*
