%TF.GenerationSoftware,KiCad,Pcbnew,9.0.9.1-1.fc43*%
%TF.CreationDate,2026-06-26T00:54:02-06:00*%
%TF.ProjectId,arcade-controller-routed,61726361-6465-42d6-936f-6e74726f6c6c,rev?*%
%TF.SameCoordinates,Original*%
%TF.FileFunction,Legend,Top*%
%TF.FilePolarity,Positive*%
%FSLAX46Y46*%
G04 Gerber Fmt 4.6, Leading zero omitted, Abs format (unit mm)*
G04 Created by KiCad (PCBNEW 9.0.9.1-1.fc43) date 2026-06-26 00:54:02*
%MOMM*%
%LPD*%
G01*
G04 APERTURE LIST*
%ADD10C,0.100000*%
%ADD11C,0.150000*%
%ADD12C,0.000000*%
G04 APERTURE END LIST*
D10*
X168166667Y-83409800D02*
X168309524Y-83457419D01*
X168309524Y-83457419D02*
X168547619Y-83457419D01*
X168547619Y-83457419D02*
X168642857Y-83409800D01*
X168642857Y-83409800D02*
X168690476Y-83362180D01*
X168690476Y-83362180D02*
X168738095Y-83266942D01*
X168738095Y-83266942D02*
X168738095Y-83171704D01*
X168738095Y-83171704D02*
X168690476Y-83076466D01*
X168690476Y-83076466D02*
X168642857Y-83028847D01*
X168642857Y-83028847D02*
X168547619Y-82981228D01*
X168547619Y-82981228D02*
X168357143Y-82933609D01*
X168357143Y-82933609D02*
X168261905Y-82885990D01*
X168261905Y-82885990D02*
X168214286Y-82838371D01*
X168214286Y-82838371D02*
X168166667Y-82743133D01*
X168166667Y-82743133D02*
X168166667Y-82647895D01*
X168166667Y-82647895D02*
X168214286Y-82552657D01*
X168214286Y-82552657D02*
X168261905Y-82505038D01*
X168261905Y-82505038D02*
X168357143Y-82457419D01*
X168357143Y-82457419D02*
X168595238Y-82457419D01*
X168595238Y-82457419D02*
X168738095Y-82505038D01*
X169071429Y-82457419D02*
X169309524Y-83457419D01*
X169309524Y-83457419D02*
X169500000Y-82743133D01*
X169500000Y-82743133D02*
X169690476Y-83457419D01*
X169690476Y-83457419D02*
X169928572Y-82457419D01*
X170452381Y-82885990D02*
X170357143Y-82838371D01*
X170357143Y-82838371D02*
X170309524Y-82790752D01*
X170309524Y-82790752D02*
X170261905Y-82695514D01*
X170261905Y-82695514D02*
X170261905Y-82647895D01*
X170261905Y-82647895D02*
X170309524Y-82552657D01*
X170309524Y-82552657D02*
X170357143Y-82505038D01*
X170357143Y-82505038D02*
X170452381Y-82457419D01*
X170452381Y-82457419D02*
X170642857Y-82457419D01*
X170642857Y-82457419D02*
X170738095Y-82505038D01*
X170738095Y-82505038D02*
X170785714Y-82552657D01*
X170785714Y-82552657D02*
X170833333Y-82647895D01*
X170833333Y-82647895D02*
X170833333Y-82695514D01*
X170833333Y-82695514D02*
X170785714Y-82790752D01*
X170785714Y-82790752D02*
X170738095Y-82838371D01*
X170738095Y-82838371D02*
X170642857Y-82885990D01*
X170642857Y-82885990D02*
X170452381Y-82885990D01*
X170452381Y-82885990D02*
X170357143Y-82933609D01*
X170357143Y-82933609D02*
X170309524Y-82981228D01*
X170309524Y-82981228D02*
X170261905Y-83076466D01*
X170261905Y-83076466D02*
X170261905Y-83266942D01*
X170261905Y-83266942D02*
X170309524Y-83362180D01*
X170309524Y-83362180D02*
X170357143Y-83409800D01*
X170357143Y-83409800D02*
X170452381Y-83457419D01*
X170452381Y-83457419D02*
X170642857Y-83457419D01*
X170642857Y-83457419D02*
X170738095Y-83409800D01*
X170738095Y-83409800D02*
X170785714Y-83362180D01*
X170785714Y-83362180D02*
X170833333Y-83266942D01*
X170833333Y-83266942D02*
X170833333Y-83076466D01*
X170833333Y-83076466D02*
X170785714Y-82981228D01*
X170785714Y-82981228D02*
X170738095Y-82933609D01*
X170738095Y-82933609D02*
X170642857Y-82885990D01*
X186166667Y-101409800D02*
X186309524Y-101457419D01*
X186309524Y-101457419D02*
X186547619Y-101457419D01*
X186547619Y-101457419D02*
X186642857Y-101409800D01*
X186642857Y-101409800D02*
X186690476Y-101362180D01*
X186690476Y-101362180D02*
X186738095Y-101266942D01*
X186738095Y-101266942D02*
X186738095Y-101171704D01*
X186738095Y-101171704D02*
X186690476Y-101076466D01*
X186690476Y-101076466D02*
X186642857Y-101028847D01*
X186642857Y-101028847D02*
X186547619Y-100981228D01*
X186547619Y-100981228D02*
X186357143Y-100933609D01*
X186357143Y-100933609D02*
X186261905Y-100885990D01*
X186261905Y-100885990D02*
X186214286Y-100838371D01*
X186214286Y-100838371D02*
X186166667Y-100743133D01*
X186166667Y-100743133D02*
X186166667Y-100647895D01*
X186166667Y-100647895D02*
X186214286Y-100552657D01*
X186214286Y-100552657D02*
X186261905Y-100505038D01*
X186261905Y-100505038D02*
X186357143Y-100457419D01*
X186357143Y-100457419D02*
X186595238Y-100457419D01*
X186595238Y-100457419D02*
X186738095Y-100505038D01*
X187071429Y-100457419D02*
X187309524Y-101457419D01*
X187309524Y-101457419D02*
X187500000Y-100743133D01*
X187500000Y-100743133D02*
X187690476Y-101457419D01*
X187690476Y-101457419D02*
X187928572Y-100457419D01*
X188738095Y-100457419D02*
X188547619Y-100457419D01*
X188547619Y-100457419D02*
X188452381Y-100505038D01*
X188452381Y-100505038D02*
X188404762Y-100552657D01*
X188404762Y-100552657D02*
X188309524Y-100695514D01*
X188309524Y-100695514D02*
X188261905Y-100885990D01*
X188261905Y-100885990D02*
X188261905Y-101266942D01*
X188261905Y-101266942D02*
X188309524Y-101362180D01*
X188309524Y-101362180D02*
X188357143Y-101409800D01*
X188357143Y-101409800D02*
X188452381Y-101457419D01*
X188452381Y-101457419D02*
X188642857Y-101457419D01*
X188642857Y-101457419D02*
X188738095Y-101409800D01*
X188738095Y-101409800D02*
X188785714Y-101362180D01*
X188785714Y-101362180D02*
X188833333Y-101266942D01*
X188833333Y-101266942D02*
X188833333Y-101028847D01*
X188833333Y-101028847D02*
X188785714Y-100933609D01*
X188785714Y-100933609D02*
X188738095Y-100885990D01*
X188738095Y-100885990D02*
X188642857Y-100838371D01*
X188642857Y-100838371D02*
X188452381Y-100838371D01*
X188452381Y-100838371D02*
X188357143Y-100885990D01*
X188357143Y-100885990D02*
X188309524Y-100933609D01*
X188309524Y-100933609D02*
X188261905Y-101028847D01*
X150166667Y-101409800D02*
X150309524Y-101457419D01*
X150309524Y-101457419D02*
X150547619Y-101457419D01*
X150547619Y-101457419D02*
X150642857Y-101409800D01*
X150642857Y-101409800D02*
X150690476Y-101362180D01*
X150690476Y-101362180D02*
X150738095Y-101266942D01*
X150738095Y-101266942D02*
X150738095Y-101171704D01*
X150738095Y-101171704D02*
X150690476Y-101076466D01*
X150690476Y-101076466D02*
X150642857Y-101028847D01*
X150642857Y-101028847D02*
X150547619Y-100981228D01*
X150547619Y-100981228D02*
X150357143Y-100933609D01*
X150357143Y-100933609D02*
X150261905Y-100885990D01*
X150261905Y-100885990D02*
X150214286Y-100838371D01*
X150214286Y-100838371D02*
X150166667Y-100743133D01*
X150166667Y-100743133D02*
X150166667Y-100647895D01*
X150166667Y-100647895D02*
X150214286Y-100552657D01*
X150214286Y-100552657D02*
X150261905Y-100505038D01*
X150261905Y-100505038D02*
X150357143Y-100457419D01*
X150357143Y-100457419D02*
X150595238Y-100457419D01*
X150595238Y-100457419D02*
X150738095Y-100505038D01*
X151071429Y-100457419D02*
X151309524Y-101457419D01*
X151309524Y-101457419D02*
X151500000Y-100743133D01*
X151500000Y-100743133D02*
X151690476Y-101457419D01*
X151690476Y-101457419D02*
X151928572Y-100457419D01*
X152214286Y-100457419D02*
X152880952Y-100457419D01*
X152880952Y-100457419D02*
X152452381Y-101457419D01*
X108166667Y-119409800D02*
X108309524Y-119457419D01*
X108309524Y-119457419D02*
X108547619Y-119457419D01*
X108547619Y-119457419D02*
X108642857Y-119409800D01*
X108642857Y-119409800D02*
X108690476Y-119362180D01*
X108690476Y-119362180D02*
X108738095Y-119266942D01*
X108738095Y-119266942D02*
X108738095Y-119171704D01*
X108738095Y-119171704D02*
X108690476Y-119076466D01*
X108690476Y-119076466D02*
X108642857Y-119028847D01*
X108642857Y-119028847D02*
X108547619Y-118981228D01*
X108547619Y-118981228D02*
X108357143Y-118933609D01*
X108357143Y-118933609D02*
X108261905Y-118885990D01*
X108261905Y-118885990D02*
X108214286Y-118838371D01*
X108214286Y-118838371D02*
X108166667Y-118743133D01*
X108166667Y-118743133D02*
X108166667Y-118647895D01*
X108166667Y-118647895D02*
X108214286Y-118552657D01*
X108214286Y-118552657D02*
X108261905Y-118505038D01*
X108261905Y-118505038D02*
X108357143Y-118457419D01*
X108357143Y-118457419D02*
X108595238Y-118457419D01*
X108595238Y-118457419D02*
X108738095Y-118505038D01*
X109071429Y-118457419D02*
X109309524Y-119457419D01*
X109309524Y-119457419D02*
X109500000Y-118743133D01*
X109500000Y-118743133D02*
X109690476Y-119457419D01*
X109690476Y-119457419D02*
X109928572Y-118457419D01*
X110261905Y-118552657D02*
X110309524Y-118505038D01*
X110309524Y-118505038D02*
X110404762Y-118457419D01*
X110404762Y-118457419D02*
X110642857Y-118457419D01*
X110642857Y-118457419D02*
X110738095Y-118505038D01*
X110738095Y-118505038D02*
X110785714Y-118552657D01*
X110785714Y-118552657D02*
X110833333Y-118647895D01*
X110833333Y-118647895D02*
X110833333Y-118743133D01*
X110833333Y-118743133D02*
X110785714Y-118885990D01*
X110785714Y-118885990D02*
X110214286Y-119457419D01*
X110214286Y-119457419D02*
X110833333Y-119457419D01*
D11*
X83166667Y-134304819D02*
X83166667Y-133304819D01*
X83166667Y-133304819D02*
X83500000Y-134019104D01*
X83500000Y-134019104D02*
X83833333Y-133304819D01*
X83833333Y-133304819D02*
X83833333Y-134304819D01*
X84309524Y-134304819D02*
X84309524Y-133304819D01*
X84309524Y-133781009D02*
X84880952Y-133781009D01*
X84880952Y-134304819D02*
X84880952Y-133304819D01*
X85261905Y-133304819D02*
X85880952Y-133304819D01*
X85880952Y-133304819D02*
X85547619Y-133685771D01*
X85547619Y-133685771D02*
X85690476Y-133685771D01*
X85690476Y-133685771D02*
X85785714Y-133733390D01*
X85785714Y-133733390D02*
X85833333Y-133781009D01*
X85833333Y-133781009D02*
X85880952Y-133876247D01*
X85880952Y-133876247D02*
X85880952Y-134114342D01*
X85880952Y-134114342D02*
X85833333Y-134209580D01*
X85833333Y-134209580D02*
X85785714Y-134257200D01*
X85785714Y-134257200D02*
X85690476Y-134304819D01*
X85690476Y-134304819D02*
X85404762Y-134304819D01*
X85404762Y-134304819D02*
X85309524Y-134257200D01*
X85309524Y-134257200D02*
X85261905Y-134209580D01*
D10*
X126166667Y-101409800D02*
X126309524Y-101457419D01*
X126309524Y-101457419D02*
X126547619Y-101457419D01*
X126547619Y-101457419D02*
X126642857Y-101409800D01*
X126642857Y-101409800D02*
X126690476Y-101362180D01*
X126690476Y-101362180D02*
X126738095Y-101266942D01*
X126738095Y-101266942D02*
X126738095Y-101171704D01*
X126738095Y-101171704D02*
X126690476Y-101076466D01*
X126690476Y-101076466D02*
X126642857Y-101028847D01*
X126642857Y-101028847D02*
X126547619Y-100981228D01*
X126547619Y-100981228D02*
X126357143Y-100933609D01*
X126357143Y-100933609D02*
X126261905Y-100885990D01*
X126261905Y-100885990D02*
X126214286Y-100838371D01*
X126214286Y-100838371D02*
X126166667Y-100743133D01*
X126166667Y-100743133D02*
X126166667Y-100647895D01*
X126166667Y-100647895D02*
X126214286Y-100552657D01*
X126214286Y-100552657D02*
X126261905Y-100505038D01*
X126261905Y-100505038D02*
X126357143Y-100457419D01*
X126357143Y-100457419D02*
X126595238Y-100457419D01*
X126595238Y-100457419D02*
X126738095Y-100505038D01*
X127071429Y-100457419D02*
X127309524Y-101457419D01*
X127309524Y-101457419D02*
X127500000Y-100743133D01*
X127500000Y-100743133D02*
X127690476Y-101457419D01*
X127690476Y-101457419D02*
X127928572Y-100457419D01*
X128738095Y-100790752D02*
X128738095Y-101457419D01*
X128500000Y-100409800D02*
X128261905Y-101124085D01*
X128261905Y-101124085D02*
X128880952Y-101124085D01*
D11*
X83166667Y-74304819D02*
X83166667Y-73304819D01*
X83166667Y-73304819D02*
X83500000Y-74019104D01*
X83500000Y-74019104D02*
X83833333Y-73304819D01*
X83833333Y-73304819D02*
X83833333Y-74304819D01*
X84309524Y-74304819D02*
X84309524Y-73304819D01*
X84309524Y-73781009D02*
X84880952Y-73781009D01*
X84880952Y-74304819D02*
X84880952Y-73304819D01*
X85880952Y-74304819D02*
X85309524Y-74304819D01*
X85595238Y-74304819D02*
X85595238Y-73304819D01*
X85595238Y-73304819D02*
X85500000Y-73447676D01*
X85500000Y-73447676D02*
X85404762Y-73542914D01*
X85404762Y-73542914D02*
X85309524Y-73590533D01*
X193166667Y-74304819D02*
X193166667Y-73304819D01*
X193166667Y-73304819D02*
X193500000Y-74019104D01*
X193500000Y-74019104D02*
X193833333Y-73304819D01*
X193833333Y-73304819D02*
X193833333Y-74304819D01*
X194309524Y-74304819D02*
X194309524Y-73304819D01*
X194309524Y-73781009D02*
X194880952Y-73781009D01*
X194880952Y-74304819D02*
X194880952Y-73304819D01*
X195309524Y-73400057D02*
X195357143Y-73352438D01*
X195357143Y-73352438D02*
X195452381Y-73304819D01*
X195452381Y-73304819D02*
X195690476Y-73304819D01*
X195690476Y-73304819D02*
X195785714Y-73352438D01*
X195785714Y-73352438D02*
X195833333Y-73400057D01*
X195833333Y-73400057D02*
X195880952Y-73495295D01*
X195880952Y-73495295D02*
X195880952Y-73590533D01*
X195880952Y-73590533D02*
X195833333Y-73733390D01*
X195833333Y-73733390D02*
X195261905Y-74304819D01*
X195261905Y-74304819D02*
X195880952Y-74304819D01*
D10*
X90166667Y-101409800D02*
X90309524Y-101457419D01*
X90309524Y-101457419D02*
X90547619Y-101457419D01*
X90547619Y-101457419D02*
X90642857Y-101409800D01*
X90642857Y-101409800D02*
X90690476Y-101362180D01*
X90690476Y-101362180D02*
X90738095Y-101266942D01*
X90738095Y-101266942D02*
X90738095Y-101171704D01*
X90738095Y-101171704D02*
X90690476Y-101076466D01*
X90690476Y-101076466D02*
X90642857Y-101028847D01*
X90642857Y-101028847D02*
X90547619Y-100981228D01*
X90547619Y-100981228D02*
X90357143Y-100933609D01*
X90357143Y-100933609D02*
X90261905Y-100885990D01*
X90261905Y-100885990D02*
X90214286Y-100838371D01*
X90214286Y-100838371D02*
X90166667Y-100743133D01*
X90166667Y-100743133D02*
X90166667Y-100647895D01*
X90166667Y-100647895D02*
X90214286Y-100552657D01*
X90214286Y-100552657D02*
X90261905Y-100505038D01*
X90261905Y-100505038D02*
X90357143Y-100457419D01*
X90357143Y-100457419D02*
X90595238Y-100457419D01*
X90595238Y-100457419D02*
X90738095Y-100505038D01*
X91071429Y-100457419D02*
X91309524Y-101457419D01*
X91309524Y-101457419D02*
X91500000Y-100743133D01*
X91500000Y-100743133D02*
X91690476Y-101457419D01*
X91690476Y-101457419D02*
X91928572Y-100457419D01*
X92214286Y-100457419D02*
X92833333Y-100457419D01*
X92833333Y-100457419D02*
X92500000Y-100838371D01*
X92500000Y-100838371D02*
X92642857Y-100838371D01*
X92642857Y-100838371D02*
X92738095Y-100885990D01*
X92738095Y-100885990D02*
X92785714Y-100933609D01*
X92785714Y-100933609D02*
X92833333Y-101028847D01*
X92833333Y-101028847D02*
X92833333Y-101266942D01*
X92833333Y-101266942D02*
X92785714Y-101362180D01*
X92785714Y-101362180D02*
X92738095Y-101409800D01*
X92738095Y-101409800D02*
X92642857Y-101457419D01*
X92642857Y-101457419D02*
X92357143Y-101457419D01*
X92357143Y-101457419D02*
X92261905Y-101409800D01*
X92261905Y-101409800D02*
X92214286Y-101362180D01*
D11*
X193166667Y-134304819D02*
X193166667Y-133304819D01*
X193166667Y-133304819D02*
X193500000Y-134019104D01*
X193500000Y-134019104D02*
X193833333Y-133304819D01*
X193833333Y-133304819D02*
X193833333Y-134304819D01*
X194309524Y-134304819D02*
X194309524Y-133304819D01*
X194309524Y-133781009D02*
X194880952Y-133781009D01*
X194880952Y-134304819D02*
X194880952Y-133304819D01*
X195785714Y-133638152D02*
X195785714Y-134304819D01*
X195547619Y-133257200D02*
X195309524Y-133971485D01*
X195309524Y-133971485D02*
X195928571Y-133971485D01*
D10*
X108166667Y-83409800D02*
X108309524Y-83457419D01*
X108309524Y-83457419D02*
X108547619Y-83457419D01*
X108547619Y-83457419D02*
X108642857Y-83409800D01*
X108642857Y-83409800D02*
X108690476Y-83362180D01*
X108690476Y-83362180D02*
X108738095Y-83266942D01*
X108738095Y-83266942D02*
X108738095Y-83171704D01*
X108738095Y-83171704D02*
X108690476Y-83076466D01*
X108690476Y-83076466D02*
X108642857Y-83028847D01*
X108642857Y-83028847D02*
X108547619Y-82981228D01*
X108547619Y-82981228D02*
X108357143Y-82933609D01*
X108357143Y-82933609D02*
X108261905Y-82885990D01*
X108261905Y-82885990D02*
X108214286Y-82838371D01*
X108214286Y-82838371D02*
X108166667Y-82743133D01*
X108166667Y-82743133D02*
X108166667Y-82647895D01*
X108166667Y-82647895D02*
X108214286Y-82552657D01*
X108214286Y-82552657D02*
X108261905Y-82505038D01*
X108261905Y-82505038D02*
X108357143Y-82457419D01*
X108357143Y-82457419D02*
X108595238Y-82457419D01*
X108595238Y-82457419D02*
X108738095Y-82505038D01*
X109071429Y-82457419D02*
X109309524Y-83457419D01*
X109309524Y-83457419D02*
X109500000Y-82743133D01*
X109500000Y-82743133D02*
X109690476Y-83457419D01*
X109690476Y-83457419D02*
X109928572Y-82457419D01*
X110833333Y-83457419D02*
X110261905Y-83457419D01*
X110547619Y-83457419D02*
X110547619Y-82457419D01*
X110547619Y-82457419D02*
X110452381Y-82600276D01*
X110452381Y-82600276D02*
X110357143Y-82695514D01*
X110357143Y-82695514D02*
X110261905Y-82743133D01*
X168166667Y-119409800D02*
X168309524Y-119457419D01*
X168309524Y-119457419D02*
X168547619Y-119457419D01*
X168547619Y-119457419D02*
X168642857Y-119409800D01*
X168642857Y-119409800D02*
X168690476Y-119362180D01*
X168690476Y-119362180D02*
X168738095Y-119266942D01*
X168738095Y-119266942D02*
X168738095Y-119171704D01*
X168738095Y-119171704D02*
X168690476Y-119076466D01*
X168690476Y-119076466D02*
X168642857Y-119028847D01*
X168642857Y-119028847D02*
X168547619Y-118981228D01*
X168547619Y-118981228D02*
X168357143Y-118933609D01*
X168357143Y-118933609D02*
X168261905Y-118885990D01*
X168261905Y-118885990D02*
X168214286Y-118838371D01*
X168214286Y-118838371D02*
X168166667Y-118743133D01*
X168166667Y-118743133D02*
X168166667Y-118647895D01*
X168166667Y-118647895D02*
X168214286Y-118552657D01*
X168214286Y-118552657D02*
X168261905Y-118505038D01*
X168261905Y-118505038D02*
X168357143Y-118457419D01*
X168357143Y-118457419D02*
X168595238Y-118457419D01*
X168595238Y-118457419D02*
X168738095Y-118505038D01*
X169071429Y-118457419D02*
X169309524Y-119457419D01*
X169309524Y-119457419D02*
X169500000Y-118743133D01*
X169500000Y-118743133D02*
X169690476Y-119457419D01*
X169690476Y-119457419D02*
X169928572Y-118457419D01*
X170785714Y-118457419D02*
X170309524Y-118457419D01*
X170309524Y-118457419D02*
X170261905Y-118933609D01*
X170261905Y-118933609D02*
X170309524Y-118885990D01*
X170309524Y-118885990D02*
X170404762Y-118838371D01*
X170404762Y-118838371D02*
X170642857Y-118838371D01*
X170642857Y-118838371D02*
X170738095Y-118885990D01*
X170738095Y-118885990D02*
X170785714Y-118933609D01*
X170785714Y-118933609D02*
X170833333Y-119028847D01*
X170833333Y-119028847D02*
X170833333Y-119266942D01*
X170833333Y-119266942D02*
X170785714Y-119362180D01*
X170785714Y-119362180D02*
X170738095Y-119409800D01*
X170738095Y-119409800D02*
X170642857Y-119457419D01*
X170642857Y-119457419D02*
X170404762Y-119457419D01*
X170404762Y-119457419D02*
X170309524Y-119409800D01*
X170309524Y-119409800D02*
X170261905Y-119362180D01*
D12*
%TO.C,SW8*%
G36*
X175500000Y-96000000D02*
G01*
X163500000Y-96000000D01*
X163500000Y-84000000D01*
X175500000Y-84000000D01*
X175500000Y-96000000D01*
G37*
%TO.C,SW6*%
G36*
X193500000Y-114000000D02*
G01*
X181500000Y-114000000D01*
X181500000Y-102000000D01*
X193500000Y-102000000D01*
X193500000Y-114000000D01*
G37*
%TO.C,SW7*%
G36*
X157500000Y-114000000D02*
G01*
X145500000Y-114000000D01*
X145500000Y-102000000D01*
X157500000Y-102000000D01*
X157500000Y-114000000D01*
G37*
%TO.C,SW2*%
G36*
X115500000Y-132000000D02*
G01*
X103500000Y-132000000D01*
X103500000Y-120000000D01*
X115500000Y-120000000D01*
X115500000Y-132000000D01*
G37*
%TO.C,SW4*%
G36*
X133500000Y-114000000D02*
G01*
X121500000Y-114000000D01*
X121500000Y-102000000D01*
X133500000Y-102000000D01*
X133500000Y-114000000D01*
G37*
%TO.C,SW3*%
G36*
X97500000Y-114000000D02*
G01*
X85500000Y-114000000D01*
X85500000Y-102000000D01*
X97500000Y-102000000D01*
X97500000Y-114000000D01*
G37*
%TO.C,SW1*%
G36*
X115500000Y-96000000D02*
G01*
X103500000Y-96000000D01*
X103500000Y-84000000D01*
X115500000Y-84000000D01*
X115500000Y-96000000D01*
G37*
%TO.C,SW5*%
G36*
X175500000Y-132000000D02*
G01*
X163500000Y-132000000D01*
X163500000Y-120000000D01*
X175500000Y-120000000D01*
X175500000Y-132000000D01*
G37*
%TD*%
M02*
