M48
; DRILL file {KiCad 9.0.9.1-1.fc43} date 2026-06-26T00:54:03-0600
; FORMAT={-:-/ absolute / metric / decimal}
; #@! TF.CreationDate,2026-06-26T00:54:03-06:00
; #@! TF.GenerationSoftware,Kicad,Pcbnew,9.0.9.1-1.fc43
; #@! TF.FileFunction,MixedPlating,1,2
FMAT,2
METRIC
; #@! TA.AperFunction,Plated,PTH,ViaDrill
T1C0.300
; #@! TA.AperFunction,Plated,PTH,ComponentDrill
T2C1.015
; #@! TA.AperFunction,Plated,PTH,ComponentDrill
T3C1.300
; #@! TA.AperFunction,NonPlated,NPTH,ComponentDrill
T4C3.200
%
G90
G05
T1
X115.756Y-130.425
X127.331Y-131.05
X129.686Y-133.879
X129.977Y-129.657
X130.68Y-132.0
X143.951Y-129.7
X146.215Y-131.637
X147.341Y-132.685
X147.341Y-130.99
X149.543Y-137.47
X150.68Y-132.0
T2
X128.25Y-139.0
X130.75Y-139.0
X133.25Y-139.0
X135.75Y-139.0
X138.25Y-139.0
X140.75Y-139.0
X143.25Y-139.0
X145.75Y-139.0
X148.25Y-139.0
X150.75Y-139.0
T3
X85.25Y-105.5
X85.25Y-110.5
X97.75Y-105.5
X97.75Y-110.5
X103.25Y-87.5
X103.25Y-92.5
X103.25Y-123.5
X103.25Y-128.5
X115.75Y-87.5
X115.75Y-92.5
X115.75Y-123.5
X115.75Y-128.5
X121.25Y-105.5
X121.25Y-110.5
X133.75Y-105.5
X133.75Y-110.5
X145.25Y-105.5
X145.25Y-110.5
X157.75Y-105.5
X157.75Y-110.5
X163.25Y-87.5
X163.25Y-92.5
X163.25Y-123.5
X163.25Y-128.5
X175.75Y-87.5
X175.75Y-92.5
X175.75Y-123.5
X175.75Y-128.5
X181.25Y-105.5
X181.25Y-110.5
X193.75Y-105.5
X193.75Y-110.5
T4
X84.5Y-78.0
X84.5Y-138.0
X194.5Y-78.0
X194.5Y-138.0
M30
