%TF.GenerationSoftware,KiCad,Pcbnew,9.0.9.1-1.fc43*%
%TF.CreationDate,2026-06-26T00:54:02-06:00*%
%TF.ProjectId,arcade-controller-routed,61726361-6465-42d6-936f-6e74726f6c6c,rev?*%
%TF.SameCoordinates,Original*%
%TF.FileFunction,Other,User*%
%FSLAX46Y46*%
G04 Gerber Fmt 4.6, Leading zero omitted, Abs format (unit mm)*
G04 Created by KiCad (PCBNEW 9.0.9.1-1.fc43) date 2026-06-26 00:54:02*
%MOMM*%
%LPD*%
G01*
G04 APERTURE LIST*
%ADD10C,0.050000*%
G04 APERTURE END LIST*
D10*
%TO.C,R15*%
X153375000Y-106975000D02*
X154625000Y-106975000D01*
X153375000Y-109025000D02*
X153375000Y-106975000D01*
X154625000Y-106975000D02*
X154625000Y-109025000D01*
X154625000Y-109025000D02*
X153375000Y-109025000D01*
%TO.C,R10*%
X111375000Y-124975000D02*
X112625000Y-124975000D01*
X111375000Y-127025000D02*
X111375000Y-124975000D01*
X112625000Y-124975000D02*
X112625000Y-127025000D01*
X112625000Y-127025000D02*
X111375000Y-127025000D01*
%TO.C,R3*%
X88375000Y-106975000D02*
X89625000Y-106975000D01*
X88375000Y-109025000D02*
X88375000Y-106975000D01*
X89625000Y-106975000D02*
X89625000Y-109025000D01*
X89625000Y-109025000D02*
X88375000Y-109025000D01*
%TO.C,R1*%
X106375000Y-88975000D02*
X107625000Y-88975000D01*
X106375000Y-91025000D02*
X106375000Y-88975000D01*
X107625000Y-88975000D02*
X107625000Y-91025000D01*
X107625000Y-91025000D02*
X106375000Y-91025000D01*
%TO.C,R7*%
X148375000Y-106975000D02*
X149625000Y-106975000D01*
X148375000Y-109025000D02*
X148375000Y-106975000D01*
X149625000Y-106975000D02*
X149625000Y-109025000D01*
X149625000Y-109025000D02*
X148375000Y-109025000D01*
%TO.C,J1*%
X126917100Y-137662100D02*
X126917100Y-140337900D01*
X126917100Y-140337900D02*
X152087900Y-140337900D01*
X152087900Y-137662100D02*
X126917100Y-137662100D01*
X152087900Y-140337900D02*
X152087900Y-137662100D01*
%TO.C,R4*%
X124375000Y-106975000D02*
X125625000Y-106975000D01*
X124375000Y-109025000D02*
X124375000Y-106975000D01*
X125625000Y-106975000D02*
X125625000Y-109025000D01*
X125625000Y-109025000D02*
X124375000Y-109025000D01*
%TO.C,R5*%
X166375000Y-124975000D02*
X167625000Y-124975000D01*
X166375000Y-127025000D02*
X166375000Y-124975000D01*
X167625000Y-124975000D02*
X167625000Y-127025000D01*
X167625000Y-127025000D02*
X166375000Y-127025000D01*
%TO.C,D2*%
X147650000Y-130550000D02*
X147650000Y-133450000D01*
X147650000Y-133450000D02*
X151350000Y-133450000D01*
X151350000Y-130550000D02*
X147650000Y-130550000D01*
X151350000Y-133450000D02*
X151350000Y-130550000D01*
%TO.C,R2*%
X106375000Y-124975000D02*
X107625000Y-124975000D01*
X106375000Y-127025000D02*
X106375000Y-124975000D01*
X107625000Y-124975000D02*
X107625000Y-127025000D01*
X107625000Y-127025000D02*
X106375000Y-127025000D01*
%TO.C,R6*%
X184375000Y-106975000D02*
X185625000Y-106975000D01*
X184375000Y-109025000D02*
X184375000Y-106975000D01*
X185625000Y-106975000D02*
X185625000Y-109025000D01*
X185625000Y-109025000D02*
X184375000Y-109025000D01*
%TO.C,R8*%
X166375000Y-88975000D02*
X167625000Y-88975000D01*
X166375000Y-91025000D02*
X166375000Y-88975000D01*
X167625000Y-88975000D02*
X167625000Y-91025000D01*
X167625000Y-91025000D02*
X166375000Y-91025000D01*
%TO.C,D1*%
X127650000Y-130550000D02*
X127650000Y-133450000D01*
X127650000Y-133450000D02*
X131350000Y-133450000D01*
X131350000Y-130550000D02*
X127650000Y-130550000D01*
X131350000Y-133450000D02*
X131350000Y-130550000D01*
%TO.C,R16*%
X171375000Y-88975000D02*
X172625000Y-88975000D01*
X171375000Y-91025000D02*
X171375000Y-88975000D01*
X172625000Y-88975000D02*
X172625000Y-91025000D01*
X172625000Y-91025000D02*
X171375000Y-91025000D01*
%TO.C,R11*%
X93375000Y-106975000D02*
X94625000Y-106975000D01*
X93375000Y-109025000D02*
X93375000Y-106975000D01*
X94625000Y-106975000D02*
X94625000Y-109025000D01*
X94625000Y-109025000D02*
X93375000Y-109025000D01*
%TO.C,R13*%
X171375000Y-124975000D02*
X172625000Y-124975000D01*
X171375000Y-127025000D02*
X171375000Y-124975000D01*
X172625000Y-124975000D02*
X172625000Y-127025000D01*
X172625000Y-127025000D02*
X171375000Y-127025000D01*
%TO.C,R12*%
X129375000Y-106975000D02*
X130625000Y-106975000D01*
X129375000Y-109025000D02*
X129375000Y-106975000D01*
X130625000Y-106975000D02*
X130625000Y-109025000D01*
X130625000Y-109025000D02*
X129375000Y-109025000D01*
%TO.C,R9*%
X111375000Y-88975000D02*
X112625000Y-88975000D01*
X111375000Y-91025000D02*
X111375000Y-88975000D01*
X112625000Y-88975000D02*
X112625000Y-91025000D01*
X112625000Y-91025000D02*
X111375000Y-91025000D01*
%TO.C,R14*%
X189375000Y-106975000D02*
X190625000Y-106975000D01*
X189375000Y-109025000D02*
X189375000Y-106975000D01*
X190625000Y-106975000D02*
X190625000Y-109025000D01*
X190625000Y-109025000D02*
X189375000Y-109025000D01*
%TD*%
M02*
