%TF.GenerationSoftware,KiCad,Pcbnew,9.0.9.1-1.fc43*%
%TF.CreationDate,2026-06-26T00:54:02-06:00*%
%TF.ProjectId,arcade-controller-routed,61726361-6465-42d6-936f-6e74726f6c6c,rev?*%
%TF.SameCoordinates,Original*%
%TF.FileFunction,Soldermask,Top*%
%TF.FilePolarity,Negative*%
%FSLAX46Y46*%
G04 Gerber Fmt 4.6, Leading zero omitted, Abs format (unit mm)*
G04 Created by KiCad (PCBNEW 9.0.9.1-1.fc43) date 2026-06-26 00:54:02*
%MOMM*%
%LPD*%
G01*
G04 APERTURE LIST*
%ADD10C,2.000000*%
%ADD11C,3.302000*%
%ADD12C,1.665800*%
G04 APERTURE END LIST*
D10*
%TO.C,SW8*%
X163250000Y-87500000D03*
X163250000Y-92500000D03*
X175750000Y-87500000D03*
X175750000Y-92500000D03*
%TD*%
%TO.C,SW6*%
X181250000Y-105500000D03*
X181250000Y-110500000D03*
X193750000Y-105500000D03*
X193750000Y-110500000D03*
%TD*%
%TO.C,SW7*%
X145250000Y-105500000D03*
X145250000Y-110500000D03*
X157750000Y-105500000D03*
X157750000Y-110500000D03*
%TD*%
%TO.C,SW2*%
X103250000Y-123500000D03*
X103250000Y-128500000D03*
X115750000Y-123500000D03*
X115750000Y-128500000D03*
%TD*%
D11*
%TO.C,MH3*%
X84500000Y-138000000D03*
%TD*%
D10*
%TO.C,SW4*%
X121250000Y-105500000D03*
X121250000Y-110500000D03*
X133750000Y-105500000D03*
X133750000Y-110500000D03*
%TD*%
D11*
%TO.C,MH1*%
X84500000Y-78000000D03*
%TD*%
%TO.C,MH2*%
X194500000Y-78000000D03*
%TD*%
D10*
%TO.C,SW3*%
X85250000Y-105500000D03*
X85250000Y-110500000D03*
X97750000Y-105500000D03*
X97750000Y-110500000D03*
%TD*%
D11*
%TO.C,MH4*%
X194500000Y-138000000D03*
%TD*%
D10*
%TO.C,SW1*%
X103250000Y-87500000D03*
X103250000Y-92500000D03*
X115750000Y-87500000D03*
X115750000Y-92500000D03*
%TD*%
%TO.C,SW5*%
X163250000Y-123500000D03*
X163250000Y-128500000D03*
X175750000Y-123500000D03*
X175750000Y-128500000D03*
%TD*%
D12*
%TO.C,J1*%
X150750000Y-139000000D03*
X148250000Y-139000000D03*
X145750000Y-139000000D03*
X143250000Y-139000000D03*
X140750000Y-139000000D03*
X138250000Y-139000000D03*
X135750000Y-139000000D03*
X133250000Y-139000000D03*
X130750000Y-139000000D03*
X128250000Y-139000000D03*
%TD*%
M02*
