%TF.GenerationSoftware,KiCad,Pcbnew,9.0.9.1-1.fc43*%
%TF.CreationDate,2026-06-28T21:25:27-06:00*%
%TF.ProjectId,rp2350-console-v2-stitched,72703233-3530-42d6-936f-6e736f6c652d,rev?*%
%TF.SameCoordinates,Original*%
%TF.FileFunction,AssemblyDrawing,Top*%
%FSLAX46Y46*%
G04 Gerber Fmt 4.6, Leading zero omitted, Abs format (unit mm)*
G04 Created by KiCad (PCBNEW 9.0.9.1-1.fc43) date 2026-06-28 21:25:27*
%MOMM*%
%LPD*%
G01*
G04 APERTURE LIST*
%ADD10C,0.100000*%
%ADD11C,0.075000*%
%ADD12C,0.060000*%
%ADD13C,0.000000*%
%ADD14C,0.400000*%
G04 APERTURE END LIST*
D10*
X159434836Y-120438509D02*
X159434836Y-119938509D01*
X159720550Y-120438509D02*
X159506265Y-120152795D01*
X159720550Y-119938509D02*
X159434836Y-120224223D01*
X159863408Y-119938509D02*
X160149122Y-119938509D01*
X160006265Y-120438509D02*
X160006265Y-119938509D01*
X160315788Y-120248033D02*
X160696741Y-120248033D01*
X161030074Y-119938509D02*
X161077693Y-119938509D01*
X161077693Y-119938509D02*
X161125312Y-119962319D01*
X161125312Y-119962319D02*
X161149122Y-119986128D01*
X161149122Y-119986128D02*
X161172931Y-120033747D01*
X161172931Y-120033747D02*
X161196741Y-120128985D01*
X161196741Y-120128985D02*
X161196741Y-120248033D01*
X161196741Y-120248033D02*
X161172931Y-120343271D01*
X161172931Y-120343271D02*
X161149122Y-120390890D01*
X161149122Y-120390890D02*
X161125312Y-120414700D01*
X161125312Y-120414700D02*
X161077693Y-120438509D01*
X161077693Y-120438509D02*
X161030074Y-120438509D01*
X161030074Y-120438509D02*
X160982455Y-120414700D01*
X160982455Y-120414700D02*
X160958646Y-120390890D01*
X160958646Y-120390890D02*
X160934836Y-120343271D01*
X160934836Y-120343271D02*
X160911027Y-120248033D01*
X160911027Y-120248033D02*
X160911027Y-120128985D01*
X160911027Y-120128985D02*
X160934836Y-120033747D01*
X160934836Y-120033747D02*
X160958646Y-119986128D01*
X160958646Y-119986128D02*
X160982455Y-119962319D01*
X160982455Y-119962319D02*
X161030074Y-119938509D01*
X161482455Y-120152795D02*
X161434836Y-120128985D01*
X161434836Y-120128985D02*
X161411026Y-120105176D01*
X161411026Y-120105176D02*
X161387217Y-120057557D01*
X161387217Y-120057557D02*
X161387217Y-120033747D01*
X161387217Y-120033747D02*
X161411026Y-119986128D01*
X161411026Y-119986128D02*
X161434836Y-119962319D01*
X161434836Y-119962319D02*
X161482455Y-119938509D01*
X161482455Y-119938509D02*
X161577693Y-119938509D01*
X161577693Y-119938509D02*
X161625312Y-119962319D01*
X161625312Y-119962319D02*
X161649121Y-119986128D01*
X161649121Y-119986128D02*
X161672931Y-120033747D01*
X161672931Y-120033747D02*
X161672931Y-120057557D01*
X161672931Y-120057557D02*
X161649121Y-120105176D01*
X161649121Y-120105176D02*
X161625312Y-120128985D01*
X161625312Y-120128985D02*
X161577693Y-120152795D01*
X161577693Y-120152795D02*
X161482455Y-120152795D01*
X161482455Y-120152795D02*
X161434836Y-120176604D01*
X161434836Y-120176604D02*
X161411026Y-120200414D01*
X161411026Y-120200414D02*
X161387217Y-120248033D01*
X161387217Y-120248033D02*
X161387217Y-120343271D01*
X161387217Y-120343271D02*
X161411026Y-120390890D01*
X161411026Y-120390890D02*
X161434836Y-120414700D01*
X161434836Y-120414700D02*
X161482455Y-120438509D01*
X161482455Y-120438509D02*
X161577693Y-120438509D01*
X161577693Y-120438509D02*
X161625312Y-120414700D01*
X161625312Y-120414700D02*
X161649121Y-120390890D01*
X161649121Y-120390890D02*
X161672931Y-120343271D01*
X161672931Y-120343271D02*
X161672931Y-120248033D01*
X161672931Y-120248033D02*
X161649121Y-120200414D01*
X161649121Y-120200414D02*
X161625312Y-120176604D01*
X161625312Y-120176604D02*
X161577693Y-120152795D01*
X161982454Y-119938509D02*
X162030073Y-119938509D01*
X162030073Y-119938509D02*
X162077692Y-119962319D01*
X162077692Y-119962319D02*
X162101502Y-119986128D01*
X162101502Y-119986128D02*
X162125311Y-120033747D01*
X162125311Y-120033747D02*
X162149121Y-120128985D01*
X162149121Y-120128985D02*
X162149121Y-120248033D01*
X162149121Y-120248033D02*
X162125311Y-120343271D01*
X162125311Y-120343271D02*
X162101502Y-120390890D01*
X162101502Y-120390890D02*
X162077692Y-120414700D01*
X162077692Y-120414700D02*
X162030073Y-120438509D01*
X162030073Y-120438509D02*
X161982454Y-120438509D01*
X161982454Y-120438509D02*
X161934835Y-120414700D01*
X161934835Y-120414700D02*
X161911026Y-120390890D01*
X161911026Y-120390890D02*
X161887216Y-120343271D01*
X161887216Y-120343271D02*
X161863407Y-120248033D01*
X161863407Y-120248033D02*
X161863407Y-120128985D01*
X161863407Y-120128985D02*
X161887216Y-120033747D01*
X161887216Y-120033747D02*
X161911026Y-119986128D01*
X161911026Y-119986128D02*
X161934835Y-119962319D01*
X161934835Y-119962319D02*
X161982454Y-119938509D01*
X162601501Y-119938509D02*
X162363406Y-119938509D01*
X162363406Y-119938509D02*
X162339597Y-120176604D01*
X162339597Y-120176604D02*
X162363406Y-120152795D01*
X162363406Y-120152795D02*
X162411025Y-120128985D01*
X162411025Y-120128985D02*
X162530073Y-120128985D01*
X162530073Y-120128985D02*
X162577692Y-120152795D01*
X162577692Y-120152795D02*
X162601501Y-120176604D01*
X162601501Y-120176604D02*
X162625311Y-120224223D01*
X162625311Y-120224223D02*
X162625311Y-120343271D01*
X162625311Y-120343271D02*
X162601501Y-120390890D01*
X162601501Y-120390890D02*
X162577692Y-120414700D01*
X162577692Y-120414700D02*
X162530073Y-120438509D01*
X162530073Y-120438509D02*
X162411025Y-120438509D01*
X162411025Y-120438509D02*
X162363406Y-120414700D01*
X162363406Y-120414700D02*
X162339597Y-120390890D01*
X163101501Y-119962319D02*
X163053882Y-119938509D01*
X163053882Y-119938509D02*
X162982453Y-119938509D01*
X162982453Y-119938509D02*
X162911025Y-119962319D01*
X162911025Y-119962319D02*
X162863406Y-120009938D01*
X162863406Y-120009938D02*
X162839596Y-120057557D01*
X162839596Y-120057557D02*
X162815787Y-120152795D01*
X162815787Y-120152795D02*
X162815787Y-120224223D01*
X162815787Y-120224223D02*
X162839596Y-120319461D01*
X162839596Y-120319461D02*
X162863406Y-120367080D01*
X162863406Y-120367080D02*
X162911025Y-120414700D01*
X162911025Y-120414700D02*
X162982453Y-120438509D01*
X162982453Y-120438509D02*
X163030072Y-120438509D01*
X163030072Y-120438509D02*
X163101501Y-120414700D01*
X163101501Y-120414700D02*
X163125310Y-120390890D01*
X163125310Y-120390890D02*
X163125310Y-120224223D01*
X163125310Y-120224223D02*
X163030072Y-120224223D01*
D11*
X143853572Y-117834885D02*
X144039286Y-117834885D01*
X144039286Y-117834885D02*
X143939286Y-117949171D01*
X143939286Y-117949171D02*
X143982143Y-117949171D01*
X143982143Y-117949171D02*
X144010715Y-117963457D01*
X144010715Y-117963457D02*
X144025000Y-117977742D01*
X144025000Y-117977742D02*
X144039286Y-118006314D01*
X144039286Y-118006314D02*
X144039286Y-118077742D01*
X144039286Y-118077742D02*
X144025000Y-118106314D01*
X144025000Y-118106314D02*
X144010715Y-118120600D01*
X144010715Y-118120600D02*
X143982143Y-118134885D01*
X143982143Y-118134885D02*
X143896429Y-118134885D01*
X143896429Y-118134885D02*
X143867857Y-118120600D01*
X143867857Y-118120600D02*
X143853572Y-118106314D01*
X144225000Y-117834885D02*
X144253571Y-117834885D01*
X144253571Y-117834885D02*
X144282143Y-117849171D01*
X144282143Y-117849171D02*
X144296429Y-117863457D01*
X144296429Y-117863457D02*
X144310714Y-117892028D01*
X144310714Y-117892028D02*
X144325000Y-117949171D01*
X144325000Y-117949171D02*
X144325000Y-118020600D01*
X144325000Y-118020600D02*
X144310714Y-118077742D01*
X144310714Y-118077742D02*
X144296429Y-118106314D01*
X144296429Y-118106314D02*
X144282143Y-118120600D01*
X144282143Y-118120600D02*
X144253571Y-118134885D01*
X144253571Y-118134885D02*
X144225000Y-118134885D01*
X144225000Y-118134885D02*
X144196429Y-118120600D01*
X144196429Y-118120600D02*
X144182143Y-118106314D01*
X144182143Y-118106314D02*
X144167857Y-118077742D01*
X144167857Y-118077742D02*
X144153571Y-118020600D01*
X144153571Y-118020600D02*
X144153571Y-117949171D01*
X144153571Y-117949171D02*
X144167857Y-117892028D01*
X144167857Y-117892028D02*
X144182143Y-117863457D01*
X144182143Y-117863457D02*
X144196429Y-117849171D01*
X144196429Y-117849171D02*
X144225000Y-117834885D01*
X144682142Y-117934885D02*
X144682142Y-118234885D01*
X144682142Y-117949171D02*
X144710714Y-117934885D01*
X144710714Y-117934885D02*
X144767856Y-117934885D01*
X144767856Y-117934885D02*
X144796428Y-117949171D01*
X144796428Y-117949171D02*
X144810714Y-117963457D01*
X144810714Y-117963457D02*
X144824999Y-117992028D01*
X144824999Y-117992028D02*
X144824999Y-118077742D01*
X144824999Y-118077742D02*
X144810714Y-118106314D01*
X144810714Y-118106314D02*
X144796428Y-118120600D01*
X144796428Y-118120600D02*
X144767856Y-118134885D01*
X144767856Y-118134885D02*
X144710714Y-118134885D01*
X144710714Y-118134885D02*
X144682142Y-118120600D01*
X145053571Y-117977742D02*
X144953571Y-117977742D01*
X144953571Y-118134885D02*
X144953571Y-117834885D01*
X144953571Y-117834885D02*
X145096428Y-117834885D01*
X122975000Y-119334885D02*
X123003571Y-119334885D01*
X123003571Y-119334885D02*
X123032143Y-119349171D01*
X123032143Y-119349171D02*
X123046429Y-119363457D01*
X123046429Y-119363457D02*
X123060714Y-119392028D01*
X123060714Y-119392028D02*
X123075000Y-119449171D01*
X123075000Y-119449171D02*
X123075000Y-119520600D01*
X123075000Y-119520600D02*
X123060714Y-119577742D01*
X123060714Y-119577742D02*
X123046429Y-119606314D01*
X123046429Y-119606314D02*
X123032143Y-119620600D01*
X123032143Y-119620600D02*
X123003571Y-119634885D01*
X123003571Y-119634885D02*
X122975000Y-119634885D01*
X122975000Y-119634885D02*
X122946429Y-119620600D01*
X122946429Y-119620600D02*
X122932143Y-119606314D01*
X122932143Y-119606314D02*
X122917857Y-119577742D01*
X122917857Y-119577742D02*
X122903571Y-119520600D01*
X122903571Y-119520600D02*
X122903571Y-119449171D01*
X122903571Y-119449171D02*
X122917857Y-119392028D01*
X122917857Y-119392028D02*
X122932143Y-119363457D01*
X122932143Y-119363457D02*
X122946429Y-119349171D01*
X122946429Y-119349171D02*
X122975000Y-119334885D01*
X123417856Y-119634885D02*
X123489285Y-119634885D01*
X123489285Y-119634885D02*
X123489285Y-119577742D01*
X123489285Y-119577742D02*
X123460714Y-119563457D01*
X123460714Y-119563457D02*
X123432142Y-119534885D01*
X123432142Y-119534885D02*
X123417856Y-119492028D01*
X123417856Y-119492028D02*
X123417856Y-119420600D01*
X123417856Y-119420600D02*
X123432142Y-119377742D01*
X123432142Y-119377742D02*
X123460714Y-119349171D01*
X123460714Y-119349171D02*
X123503571Y-119334885D01*
X123503571Y-119334885D02*
X123560714Y-119334885D01*
X123560714Y-119334885D02*
X123603571Y-119349171D01*
X123603571Y-119349171D02*
X123632142Y-119377742D01*
X123632142Y-119377742D02*
X123646428Y-119420600D01*
X123646428Y-119420600D02*
X123646428Y-119492028D01*
X123646428Y-119492028D02*
X123632142Y-119534885D01*
X123632142Y-119534885D02*
X123603571Y-119563457D01*
X123603571Y-119563457D02*
X123574999Y-119577742D01*
X123574999Y-119577742D02*
X123574999Y-119634885D01*
X123574999Y-119634885D02*
X123646428Y-119634885D01*
X132500000Y-109834885D02*
X132528571Y-109834885D01*
X132528571Y-109834885D02*
X132557143Y-109849171D01*
X132557143Y-109849171D02*
X132571429Y-109863457D01*
X132571429Y-109863457D02*
X132585714Y-109892028D01*
X132585714Y-109892028D02*
X132600000Y-109949171D01*
X132600000Y-109949171D02*
X132600000Y-110020600D01*
X132600000Y-110020600D02*
X132585714Y-110077742D01*
X132585714Y-110077742D02*
X132571429Y-110106314D01*
X132571429Y-110106314D02*
X132557143Y-110120600D01*
X132557143Y-110120600D02*
X132528571Y-110134885D01*
X132528571Y-110134885D02*
X132500000Y-110134885D01*
X132500000Y-110134885D02*
X132471429Y-110120600D01*
X132471429Y-110120600D02*
X132457143Y-110106314D01*
X132457143Y-110106314D02*
X132442857Y-110077742D01*
X132442857Y-110077742D02*
X132428571Y-110020600D01*
X132428571Y-110020600D02*
X132428571Y-109949171D01*
X132428571Y-109949171D02*
X132442857Y-109892028D01*
X132442857Y-109892028D02*
X132457143Y-109863457D01*
X132457143Y-109863457D02*
X132471429Y-109849171D01*
X132471429Y-109849171D02*
X132500000Y-109834885D01*
X132942856Y-110134885D02*
X133014285Y-110134885D01*
X133014285Y-110134885D02*
X133014285Y-110077742D01*
X133014285Y-110077742D02*
X132985714Y-110063457D01*
X132985714Y-110063457D02*
X132957142Y-110034885D01*
X132957142Y-110034885D02*
X132942856Y-109992028D01*
X132942856Y-109992028D02*
X132942856Y-109920600D01*
X132942856Y-109920600D02*
X132957142Y-109877742D01*
X132957142Y-109877742D02*
X132985714Y-109849171D01*
X132985714Y-109849171D02*
X133028571Y-109834885D01*
X133028571Y-109834885D02*
X133085714Y-109834885D01*
X133085714Y-109834885D02*
X133128571Y-109849171D01*
X133128571Y-109849171D02*
X133157142Y-109877742D01*
X133157142Y-109877742D02*
X133171428Y-109920600D01*
X133171428Y-109920600D02*
X133171428Y-109992028D01*
X133171428Y-109992028D02*
X133157142Y-110034885D01*
X133157142Y-110034885D02*
X133128571Y-110063457D01*
X133128571Y-110063457D02*
X133099999Y-110077742D01*
X133099999Y-110077742D02*
X133099999Y-110134885D01*
X133099999Y-110134885D02*
X133171428Y-110134885D01*
X120710715Y-98934885D02*
X120710715Y-99134885D01*
X120639286Y-98820600D02*
X120567857Y-99034885D01*
X120567857Y-99034885D02*
X120753572Y-99034885D01*
X120867857Y-99106314D02*
X120882143Y-99120600D01*
X120882143Y-99120600D02*
X120867857Y-99134885D01*
X120867857Y-99134885D02*
X120853571Y-99120600D01*
X120853571Y-99120600D02*
X120867857Y-99106314D01*
X120867857Y-99106314D02*
X120867857Y-99134885D01*
X120982143Y-98834885D02*
X121182143Y-98834885D01*
X121182143Y-98834885D02*
X121053571Y-99134885D01*
X121524999Y-99134885D02*
X121524999Y-98834885D01*
X121553571Y-99020600D02*
X121639285Y-99134885D01*
X121639285Y-98934885D02*
X121524999Y-99049171D01*
X121753570Y-99134885D02*
X121824999Y-99134885D01*
X121824999Y-99134885D02*
X121824999Y-99077742D01*
X121824999Y-99077742D02*
X121796428Y-99063457D01*
X121796428Y-99063457D02*
X121767856Y-99034885D01*
X121767856Y-99034885D02*
X121753570Y-98992028D01*
X121753570Y-98992028D02*
X121753570Y-98920600D01*
X121753570Y-98920600D02*
X121767856Y-98877742D01*
X121767856Y-98877742D02*
X121796428Y-98849171D01*
X121796428Y-98849171D02*
X121839285Y-98834885D01*
X121839285Y-98834885D02*
X121896428Y-98834885D01*
X121896428Y-98834885D02*
X121939285Y-98849171D01*
X121939285Y-98849171D02*
X121967856Y-98877742D01*
X121967856Y-98877742D02*
X121982142Y-98920600D01*
X121982142Y-98920600D02*
X121982142Y-98992028D01*
X121982142Y-98992028D02*
X121967856Y-99034885D01*
X121967856Y-99034885D02*
X121939285Y-99063457D01*
X121939285Y-99063457D02*
X121910713Y-99077742D01*
X121910713Y-99077742D02*
X121910713Y-99134885D01*
X121910713Y-99134885D02*
X121982142Y-99134885D01*
X125296428Y-122363457D02*
X125310714Y-122349171D01*
X125310714Y-122349171D02*
X125339286Y-122334885D01*
X125339286Y-122334885D02*
X125410714Y-122334885D01*
X125410714Y-122334885D02*
X125439286Y-122349171D01*
X125439286Y-122349171D02*
X125453571Y-122363457D01*
X125453571Y-122363457D02*
X125467857Y-122392028D01*
X125467857Y-122392028D02*
X125467857Y-122420600D01*
X125467857Y-122420600D02*
X125453571Y-122463457D01*
X125453571Y-122463457D02*
X125282143Y-122634885D01*
X125282143Y-122634885D02*
X125467857Y-122634885D01*
X125596428Y-122606314D02*
X125610714Y-122620600D01*
X125610714Y-122620600D02*
X125596428Y-122634885D01*
X125596428Y-122634885D02*
X125582142Y-122620600D01*
X125582142Y-122620600D02*
X125596428Y-122606314D01*
X125596428Y-122606314D02*
X125596428Y-122634885D01*
X125724999Y-122363457D02*
X125739285Y-122349171D01*
X125739285Y-122349171D02*
X125767857Y-122334885D01*
X125767857Y-122334885D02*
X125839285Y-122334885D01*
X125839285Y-122334885D02*
X125867857Y-122349171D01*
X125867857Y-122349171D02*
X125882142Y-122363457D01*
X125882142Y-122363457D02*
X125896428Y-122392028D01*
X125896428Y-122392028D02*
X125896428Y-122420600D01*
X125896428Y-122420600D02*
X125882142Y-122463457D01*
X125882142Y-122463457D02*
X125710714Y-122634885D01*
X125710714Y-122634885D02*
X125896428Y-122634885D01*
X126253570Y-122434885D02*
X126253570Y-122634885D01*
X126253570Y-122463457D02*
X126267856Y-122449171D01*
X126267856Y-122449171D02*
X126296427Y-122434885D01*
X126296427Y-122434885D02*
X126339284Y-122434885D01*
X126339284Y-122434885D02*
X126367856Y-122449171D01*
X126367856Y-122449171D02*
X126382142Y-122477742D01*
X126382142Y-122477742D02*
X126382142Y-122634885D01*
X126624999Y-122477742D02*
X126524999Y-122477742D01*
X126524999Y-122634885D02*
X126524999Y-122334885D01*
X126524999Y-122334885D02*
X126667856Y-122334885D01*
D10*
X128414895Y-114071429D02*
X128414895Y-113614286D01*
X129214895Y-113842858D02*
X128414895Y-113842858D01*
X129214895Y-113347619D02*
X128414895Y-113347619D01*
X128414895Y-113347619D02*
X128414895Y-113042857D01*
X128414895Y-113042857D02*
X128452990Y-112966667D01*
X128452990Y-112966667D02*
X128491085Y-112928572D01*
X128491085Y-112928572D02*
X128567276Y-112890476D01*
X128567276Y-112890476D02*
X128681561Y-112890476D01*
X128681561Y-112890476D02*
X128757752Y-112928572D01*
X128757752Y-112928572D02*
X128795847Y-112966667D01*
X128795847Y-112966667D02*
X128833942Y-113042857D01*
X128833942Y-113042857D02*
X128833942Y-113347619D01*
X129214895Y-112547619D02*
X128414895Y-112547619D01*
X128414895Y-112547619D02*
X128414895Y-112357143D01*
X128414895Y-112357143D02*
X128452990Y-112242857D01*
X128452990Y-112242857D02*
X128529180Y-112166667D01*
X128529180Y-112166667D02*
X128605371Y-112128572D01*
X128605371Y-112128572D02*
X128757752Y-112090476D01*
X128757752Y-112090476D02*
X128872038Y-112090476D01*
X128872038Y-112090476D02*
X129024419Y-112128572D01*
X129024419Y-112128572D02*
X129100609Y-112166667D01*
X129100609Y-112166667D02*
X129176800Y-112242857D01*
X129176800Y-112242857D02*
X129214895Y-112357143D01*
X129214895Y-112357143D02*
X129214895Y-112547619D01*
X128757752Y-111633334D02*
X128719657Y-111709524D01*
X128719657Y-111709524D02*
X128681561Y-111747619D01*
X128681561Y-111747619D02*
X128605371Y-111785715D01*
X128605371Y-111785715D02*
X128567276Y-111785715D01*
X128567276Y-111785715D02*
X128491085Y-111747619D01*
X128491085Y-111747619D02*
X128452990Y-111709524D01*
X128452990Y-111709524D02*
X128414895Y-111633334D01*
X128414895Y-111633334D02*
X128414895Y-111480953D01*
X128414895Y-111480953D02*
X128452990Y-111404762D01*
X128452990Y-111404762D02*
X128491085Y-111366667D01*
X128491085Y-111366667D02*
X128567276Y-111328572D01*
X128567276Y-111328572D02*
X128605371Y-111328572D01*
X128605371Y-111328572D02*
X128681561Y-111366667D01*
X128681561Y-111366667D02*
X128719657Y-111404762D01*
X128719657Y-111404762D02*
X128757752Y-111480953D01*
X128757752Y-111480953D02*
X128757752Y-111633334D01*
X128757752Y-111633334D02*
X128795847Y-111709524D01*
X128795847Y-111709524D02*
X128833942Y-111747619D01*
X128833942Y-111747619D02*
X128910133Y-111785715D01*
X128910133Y-111785715D02*
X129062514Y-111785715D01*
X129062514Y-111785715D02*
X129138704Y-111747619D01*
X129138704Y-111747619D02*
X129176800Y-111709524D01*
X129176800Y-111709524D02*
X129214895Y-111633334D01*
X129214895Y-111633334D02*
X129214895Y-111480953D01*
X129214895Y-111480953D02*
X129176800Y-111404762D01*
X129176800Y-111404762D02*
X129138704Y-111366667D01*
X129138704Y-111366667D02*
X129062514Y-111328572D01*
X129062514Y-111328572D02*
X128910133Y-111328572D01*
X128910133Y-111328572D02*
X128833942Y-111366667D01*
X128833942Y-111366667D02*
X128795847Y-111404762D01*
X128795847Y-111404762D02*
X128757752Y-111480953D01*
X129176800Y-111023810D02*
X129214895Y-110909524D01*
X129214895Y-110909524D02*
X129214895Y-110719048D01*
X129214895Y-110719048D02*
X129176800Y-110642857D01*
X129176800Y-110642857D02*
X129138704Y-110604762D01*
X129138704Y-110604762D02*
X129062514Y-110566667D01*
X129062514Y-110566667D02*
X128986323Y-110566667D01*
X128986323Y-110566667D02*
X128910133Y-110604762D01*
X128910133Y-110604762D02*
X128872038Y-110642857D01*
X128872038Y-110642857D02*
X128833942Y-110719048D01*
X128833942Y-110719048D02*
X128795847Y-110871429D01*
X128795847Y-110871429D02*
X128757752Y-110947619D01*
X128757752Y-110947619D02*
X128719657Y-110985714D01*
X128719657Y-110985714D02*
X128643466Y-111023810D01*
X128643466Y-111023810D02*
X128567276Y-111023810D01*
X128567276Y-111023810D02*
X128491085Y-110985714D01*
X128491085Y-110985714D02*
X128452990Y-110947619D01*
X128452990Y-110947619D02*
X128414895Y-110871429D01*
X128414895Y-110871429D02*
X128414895Y-110680952D01*
X128414895Y-110680952D02*
X128452990Y-110566667D01*
X128414895Y-110071428D02*
X128414895Y-109995238D01*
X128414895Y-109995238D02*
X128452990Y-109919047D01*
X128452990Y-109919047D02*
X128491085Y-109880952D01*
X128491085Y-109880952D02*
X128567276Y-109842857D01*
X128567276Y-109842857D02*
X128719657Y-109804762D01*
X128719657Y-109804762D02*
X128910133Y-109804762D01*
X128910133Y-109804762D02*
X129062514Y-109842857D01*
X129062514Y-109842857D02*
X129138704Y-109880952D01*
X129138704Y-109880952D02*
X129176800Y-109919047D01*
X129176800Y-109919047D02*
X129214895Y-109995238D01*
X129214895Y-109995238D02*
X129214895Y-110071428D01*
X129214895Y-110071428D02*
X129176800Y-110147619D01*
X129176800Y-110147619D02*
X129138704Y-110185714D01*
X129138704Y-110185714D02*
X129062514Y-110223809D01*
X129062514Y-110223809D02*
X128910133Y-110261905D01*
X128910133Y-110261905D02*
X128719657Y-110261905D01*
X128719657Y-110261905D02*
X128567276Y-110223809D01*
X128567276Y-110223809D02*
X128491085Y-110185714D01*
X128491085Y-110185714D02*
X128452990Y-110147619D01*
X128452990Y-110147619D02*
X128414895Y-110071428D01*
X128414895Y-109309523D02*
X128414895Y-109233333D01*
X128414895Y-109233333D02*
X128452990Y-109157142D01*
X128452990Y-109157142D02*
X128491085Y-109119047D01*
X128491085Y-109119047D02*
X128567276Y-109080952D01*
X128567276Y-109080952D02*
X128719657Y-109042857D01*
X128719657Y-109042857D02*
X128910133Y-109042857D01*
X128910133Y-109042857D02*
X129062514Y-109080952D01*
X129062514Y-109080952D02*
X129138704Y-109119047D01*
X129138704Y-109119047D02*
X129176800Y-109157142D01*
X129176800Y-109157142D02*
X129214895Y-109233333D01*
X129214895Y-109233333D02*
X129214895Y-109309523D01*
X129214895Y-109309523D02*
X129176800Y-109385714D01*
X129176800Y-109385714D02*
X129138704Y-109423809D01*
X129138704Y-109423809D02*
X129062514Y-109461904D01*
X129062514Y-109461904D02*
X128910133Y-109500000D01*
X128910133Y-109500000D02*
X128719657Y-109500000D01*
X128719657Y-109500000D02*
X128567276Y-109461904D01*
X128567276Y-109461904D02*
X128491085Y-109423809D01*
X128491085Y-109423809D02*
X128452990Y-109385714D01*
X128452990Y-109385714D02*
X128414895Y-109309523D01*
X129214895Y-108661904D02*
X129214895Y-108509523D01*
X129214895Y-108509523D02*
X129176800Y-108433333D01*
X129176800Y-108433333D02*
X129138704Y-108395237D01*
X129138704Y-108395237D02*
X129024419Y-108319047D01*
X129024419Y-108319047D02*
X128872038Y-108280952D01*
X128872038Y-108280952D02*
X128567276Y-108280952D01*
X128567276Y-108280952D02*
X128491085Y-108319047D01*
X128491085Y-108319047D02*
X128452990Y-108357142D01*
X128452990Y-108357142D02*
X128414895Y-108433333D01*
X128414895Y-108433333D02*
X128414895Y-108585714D01*
X128414895Y-108585714D02*
X128452990Y-108661904D01*
X128452990Y-108661904D02*
X128491085Y-108699999D01*
X128491085Y-108699999D02*
X128567276Y-108738095D01*
X128567276Y-108738095D02*
X128757752Y-108738095D01*
X128757752Y-108738095D02*
X128833942Y-108699999D01*
X128833942Y-108699999D02*
X128872038Y-108661904D01*
X128872038Y-108661904D02*
X128910133Y-108585714D01*
X128910133Y-108585714D02*
X128910133Y-108433333D01*
X128910133Y-108433333D02*
X128872038Y-108357142D01*
X128872038Y-108357142D02*
X128833942Y-108319047D01*
X128833942Y-108319047D02*
X128757752Y-108280952D01*
X129214895Y-107938094D02*
X128414895Y-107938094D01*
X128414895Y-107938094D02*
X128414895Y-107747618D01*
X128414895Y-107747618D02*
X128452990Y-107633332D01*
X128452990Y-107633332D02*
X128529180Y-107557142D01*
X128529180Y-107557142D02*
X128605371Y-107519047D01*
X128605371Y-107519047D02*
X128757752Y-107480951D01*
X128757752Y-107480951D02*
X128872038Y-107480951D01*
X128872038Y-107480951D02*
X129024419Y-107519047D01*
X129024419Y-107519047D02*
X129100609Y-107557142D01*
X129100609Y-107557142D02*
X129176800Y-107633332D01*
X129176800Y-107633332D02*
X129214895Y-107747618D01*
X129214895Y-107747618D02*
X129214895Y-107938094D01*
X129176800Y-107176190D02*
X129214895Y-107061904D01*
X129214895Y-107061904D02*
X129214895Y-106871428D01*
X129214895Y-106871428D02*
X129176800Y-106795237D01*
X129176800Y-106795237D02*
X129138704Y-106757142D01*
X129138704Y-106757142D02*
X129062514Y-106719047D01*
X129062514Y-106719047D02*
X128986323Y-106719047D01*
X128986323Y-106719047D02*
X128910133Y-106757142D01*
X128910133Y-106757142D02*
X128872038Y-106795237D01*
X128872038Y-106795237D02*
X128833942Y-106871428D01*
X128833942Y-106871428D02*
X128795847Y-107023809D01*
X128795847Y-107023809D02*
X128757752Y-107099999D01*
X128757752Y-107099999D02*
X128719657Y-107138094D01*
X128719657Y-107138094D02*
X128643466Y-107176190D01*
X128643466Y-107176190D02*
X128567276Y-107176190D01*
X128567276Y-107176190D02*
X128491085Y-107138094D01*
X128491085Y-107138094D02*
X128452990Y-107099999D01*
X128452990Y-107099999D02*
X128414895Y-107023809D01*
X128414895Y-107023809D02*
X128414895Y-106833332D01*
X128414895Y-106833332D02*
X128452990Y-106719047D01*
X129214895Y-106376189D02*
X128414895Y-106376189D01*
X128414895Y-106376189D02*
X128986323Y-106109523D01*
X128986323Y-106109523D02*
X128414895Y-105842856D01*
X128414895Y-105842856D02*
X129214895Y-105842856D01*
X129214895Y-105004760D02*
X128833942Y-105271427D01*
X129214895Y-105461903D02*
X128414895Y-105461903D01*
X128414895Y-105461903D02*
X128414895Y-105157141D01*
X128414895Y-105157141D02*
X128452990Y-105080951D01*
X128452990Y-105080951D02*
X128491085Y-105042856D01*
X128491085Y-105042856D02*
X128567276Y-105004760D01*
X128567276Y-105004760D02*
X128681561Y-105004760D01*
X128681561Y-105004760D02*
X128757752Y-105042856D01*
X128757752Y-105042856D02*
X128795847Y-105080951D01*
X128795847Y-105080951D02*
X128833942Y-105157141D01*
X128833942Y-105157141D02*
X128833942Y-105461903D01*
X143911027Y-84544200D02*
X143982455Y-84568009D01*
X143982455Y-84568009D02*
X144101503Y-84568009D01*
X144101503Y-84568009D02*
X144149122Y-84544200D01*
X144149122Y-84544200D02*
X144172931Y-84520390D01*
X144172931Y-84520390D02*
X144196741Y-84472771D01*
X144196741Y-84472771D02*
X144196741Y-84425152D01*
X144196741Y-84425152D02*
X144172931Y-84377533D01*
X144172931Y-84377533D02*
X144149122Y-84353723D01*
X144149122Y-84353723D02*
X144101503Y-84329914D01*
X144101503Y-84329914D02*
X144006265Y-84306104D01*
X144006265Y-84306104D02*
X143958646Y-84282295D01*
X143958646Y-84282295D02*
X143934836Y-84258485D01*
X143934836Y-84258485D02*
X143911027Y-84210866D01*
X143911027Y-84210866D02*
X143911027Y-84163247D01*
X143911027Y-84163247D02*
X143934836Y-84115628D01*
X143934836Y-84115628D02*
X143958646Y-84091819D01*
X143958646Y-84091819D02*
X144006265Y-84068009D01*
X144006265Y-84068009D02*
X144125312Y-84068009D01*
X144125312Y-84068009D02*
X144196741Y-84091819D01*
X144411026Y-84568009D02*
X144411026Y-84068009D01*
X144411026Y-84068009D02*
X144577693Y-84425152D01*
X144577693Y-84425152D02*
X144744359Y-84068009D01*
X144744359Y-84068009D02*
X144744359Y-84568009D01*
X145149122Y-84306104D02*
X144982455Y-84306104D01*
X144982455Y-84568009D02*
X144982455Y-84068009D01*
X144982455Y-84068009D02*
X145220550Y-84068009D01*
X145649121Y-84068009D02*
X145411026Y-84068009D01*
X145411026Y-84068009D02*
X145387217Y-84306104D01*
X145387217Y-84306104D02*
X145411026Y-84282295D01*
X145411026Y-84282295D02*
X145458645Y-84258485D01*
X145458645Y-84258485D02*
X145577693Y-84258485D01*
X145577693Y-84258485D02*
X145625312Y-84282295D01*
X145625312Y-84282295D02*
X145649121Y-84306104D01*
X145649121Y-84306104D02*
X145672931Y-84353723D01*
X145672931Y-84353723D02*
X145672931Y-84472771D01*
X145672931Y-84472771D02*
X145649121Y-84520390D01*
X145649121Y-84520390D02*
X145625312Y-84544200D01*
X145625312Y-84544200D02*
X145577693Y-84568009D01*
X145577693Y-84568009D02*
X145458645Y-84568009D01*
X145458645Y-84568009D02*
X145411026Y-84544200D01*
X145411026Y-84544200D02*
X145387217Y-84520390D01*
X145887216Y-84520390D02*
X145911026Y-84544200D01*
X145911026Y-84544200D02*
X145887216Y-84568009D01*
X145887216Y-84568009D02*
X145863407Y-84544200D01*
X145863407Y-84544200D02*
X145887216Y-84520390D01*
X145887216Y-84520390D02*
X145887216Y-84568009D01*
X146220549Y-84068009D02*
X146268168Y-84068009D01*
X146268168Y-84068009D02*
X146315787Y-84091819D01*
X146315787Y-84091819D02*
X146339597Y-84115628D01*
X146339597Y-84115628D02*
X146363406Y-84163247D01*
X146363406Y-84163247D02*
X146387216Y-84258485D01*
X146387216Y-84258485D02*
X146387216Y-84377533D01*
X146387216Y-84377533D02*
X146363406Y-84472771D01*
X146363406Y-84472771D02*
X146339597Y-84520390D01*
X146339597Y-84520390D02*
X146315787Y-84544200D01*
X146315787Y-84544200D02*
X146268168Y-84568009D01*
X146268168Y-84568009D02*
X146220549Y-84568009D01*
X146220549Y-84568009D02*
X146172930Y-84544200D01*
X146172930Y-84544200D02*
X146149121Y-84520390D01*
X146149121Y-84520390D02*
X146125311Y-84472771D01*
X146125311Y-84472771D02*
X146101502Y-84377533D01*
X146101502Y-84377533D02*
X146101502Y-84258485D01*
X146101502Y-84258485D02*
X146125311Y-84163247D01*
X146125311Y-84163247D02*
X146149121Y-84115628D01*
X146149121Y-84115628D02*
X146172930Y-84091819D01*
X146172930Y-84091819D02*
X146220549Y-84068009D01*
X146577692Y-84425152D02*
X146815787Y-84425152D01*
X146530073Y-84568009D02*
X146696739Y-84068009D01*
X146696739Y-84068009D02*
X146863406Y-84568009D01*
D11*
X132500000Y-105834885D02*
X132528571Y-105834885D01*
X132528571Y-105834885D02*
X132557143Y-105849171D01*
X132557143Y-105849171D02*
X132571429Y-105863457D01*
X132571429Y-105863457D02*
X132585714Y-105892028D01*
X132585714Y-105892028D02*
X132600000Y-105949171D01*
X132600000Y-105949171D02*
X132600000Y-106020600D01*
X132600000Y-106020600D02*
X132585714Y-106077742D01*
X132585714Y-106077742D02*
X132571429Y-106106314D01*
X132571429Y-106106314D02*
X132557143Y-106120600D01*
X132557143Y-106120600D02*
X132528571Y-106134885D01*
X132528571Y-106134885D02*
X132500000Y-106134885D01*
X132500000Y-106134885D02*
X132471429Y-106120600D01*
X132471429Y-106120600D02*
X132457143Y-106106314D01*
X132457143Y-106106314D02*
X132442857Y-106077742D01*
X132442857Y-106077742D02*
X132428571Y-106020600D01*
X132428571Y-106020600D02*
X132428571Y-105949171D01*
X132428571Y-105949171D02*
X132442857Y-105892028D01*
X132442857Y-105892028D02*
X132457143Y-105863457D01*
X132457143Y-105863457D02*
X132471429Y-105849171D01*
X132471429Y-105849171D02*
X132500000Y-105834885D01*
X132942856Y-106134885D02*
X133014285Y-106134885D01*
X133014285Y-106134885D02*
X133014285Y-106077742D01*
X133014285Y-106077742D02*
X132985714Y-106063457D01*
X132985714Y-106063457D02*
X132957142Y-106034885D01*
X132957142Y-106034885D02*
X132942856Y-105992028D01*
X132942856Y-105992028D02*
X132942856Y-105920600D01*
X132942856Y-105920600D02*
X132957142Y-105877742D01*
X132957142Y-105877742D02*
X132985714Y-105849171D01*
X132985714Y-105849171D02*
X133028571Y-105834885D01*
X133028571Y-105834885D02*
X133085714Y-105834885D01*
X133085714Y-105834885D02*
X133128571Y-105849171D01*
X133128571Y-105849171D02*
X133157142Y-105877742D01*
X133157142Y-105877742D02*
X133171428Y-105920600D01*
X133171428Y-105920600D02*
X133171428Y-105992028D01*
X133171428Y-105992028D02*
X133157142Y-106034885D01*
X133157142Y-106034885D02*
X133128571Y-106063457D01*
X133128571Y-106063457D02*
X133099999Y-106077742D01*
X133099999Y-106077742D02*
X133099999Y-106134885D01*
X133099999Y-106134885D02*
X133171428Y-106134885D01*
X153810715Y-128634885D02*
X153639286Y-128634885D01*
X153725001Y-128634885D02*
X153725001Y-128334885D01*
X153725001Y-128334885D02*
X153696429Y-128377742D01*
X153696429Y-128377742D02*
X153667858Y-128406314D01*
X153667858Y-128406314D02*
X153639286Y-128420600D01*
X153996429Y-128334885D02*
X154025000Y-128334885D01*
X154025000Y-128334885D02*
X154053572Y-128349171D01*
X154053572Y-128349171D02*
X154067858Y-128363457D01*
X154067858Y-128363457D02*
X154082143Y-128392028D01*
X154082143Y-128392028D02*
X154096429Y-128449171D01*
X154096429Y-128449171D02*
X154096429Y-128520600D01*
X154096429Y-128520600D02*
X154082143Y-128577742D01*
X154082143Y-128577742D02*
X154067858Y-128606314D01*
X154067858Y-128606314D02*
X154053572Y-128620600D01*
X154053572Y-128620600D02*
X154025000Y-128634885D01*
X154025000Y-128634885D02*
X153996429Y-128634885D01*
X153996429Y-128634885D02*
X153967858Y-128620600D01*
X153967858Y-128620600D02*
X153953572Y-128606314D01*
X153953572Y-128606314D02*
X153939286Y-128577742D01*
X153939286Y-128577742D02*
X153925000Y-128520600D01*
X153925000Y-128520600D02*
X153925000Y-128449171D01*
X153925000Y-128449171D02*
X153939286Y-128392028D01*
X153939286Y-128392028D02*
X153953572Y-128363457D01*
X153953572Y-128363457D02*
X153967858Y-128349171D01*
X153967858Y-128349171D02*
X153996429Y-128334885D01*
X154453571Y-128634885D02*
X154453571Y-128334885D01*
X154482143Y-128520600D02*
X154567857Y-128634885D01*
X154567857Y-128434885D02*
X154453571Y-128549171D01*
X154682142Y-128634885D02*
X154753571Y-128634885D01*
X154753571Y-128634885D02*
X154753571Y-128577742D01*
X154753571Y-128577742D02*
X154725000Y-128563457D01*
X154725000Y-128563457D02*
X154696428Y-128534885D01*
X154696428Y-128534885D02*
X154682142Y-128492028D01*
X154682142Y-128492028D02*
X154682142Y-128420600D01*
X154682142Y-128420600D02*
X154696428Y-128377742D01*
X154696428Y-128377742D02*
X154725000Y-128349171D01*
X154725000Y-128349171D02*
X154767857Y-128334885D01*
X154767857Y-128334885D02*
X154825000Y-128334885D01*
X154825000Y-128334885D02*
X154867857Y-128349171D01*
X154867857Y-128349171D02*
X154896428Y-128377742D01*
X154896428Y-128377742D02*
X154910714Y-128420600D01*
X154910714Y-128420600D02*
X154910714Y-128492028D01*
X154910714Y-128492028D02*
X154896428Y-128534885D01*
X154896428Y-128534885D02*
X154867857Y-128563457D01*
X154867857Y-128563457D02*
X154839285Y-128577742D01*
X154839285Y-128577742D02*
X154839285Y-128634885D01*
X154839285Y-128634885D02*
X154910714Y-128634885D01*
X156453572Y-122134885D02*
X156282143Y-122134885D01*
X156367858Y-122134885D02*
X156367858Y-121834885D01*
X156367858Y-121834885D02*
X156339286Y-121877742D01*
X156339286Y-121877742D02*
X156310715Y-121906314D01*
X156310715Y-121906314D02*
X156282143Y-121920600D01*
X156810714Y-122134885D02*
X156810714Y-121834885D01*
X156839286Y-122020600D02*
X156925000Y-122134885D01*
X156925000Y-121934885D02*
X156810714Y-122049171D01*
X157039285Y-122134885D02*
X157110714Y-122134885D01*
X157110714Y-122134885D02*
X157110714Y-122077742D01*
X157110714Y-122077742D02*
X157082143Y-122063457D01*
X157082143Y-122063457D02*
X157053571Y-122034885D01*
X157053571Y-122034885D02*
X157039285Y-121992028D01*
X157039285Y-121992028D02*
X157039285Y-121920600D01*
X157039285Y-121920600D02*
X157053571Y-121877742D01*
X157053571Y-121877742D02*
X157082143Y-121849171D01*
X157082143Y-121849171D02*
X157125000Y-121834885D01*
X157125000Y-121834885D02*
X157182143Y-121834885D01*
X157182143Y-121834885D02*
X157225000Y-121849171D01*
X157225000Y-121849171D02*
X157253571Y-121877742D01*
X157253571Y-121877742D02*
X157267857Y-121920600D01*
X157267857Y-121920600D02*
X157267857Y-121992028D01*
X157267857Y-121992028D02*
X157253571Y-122034885D01*
X157253571Y-122034885D02*
X157225000Y-122063457D01*
X157225000Y-122063457D02*
X157196428Y-122077742D01*
X157196428Y-122077742D02*
X157196428Y-122134885D01*
X157196428Y-122134885D02*
X157267857Y-122134885D01*
X144135714Y-95600357D02*
X144150000Y-95586071D01*
X144150000Y-95586071D02*
X144178572Y-95571785D01*
X144178572Y-95571785D02*
X144250000Y-95571785D01*
X144250000Y-95571785D02*
X144278572Y-95586071D01*
X144278572Y-95586071D02*
X144292857Y-95600357D01*
X144292857Y-95600357D02*
X144307143Y-95628928D01*
X144307143Y-95628928D02*
X144307143Y-95657500D01*
X144307143Y-95657500D02*
X144292857Y-95700357D01*
X144292857Y-95700357D02*
X144121429Y-95871785D01*
X144121429Y-95871785D02*
X144307143Y-95871785D01*
X144407143Y-95571785D02*
X144607143Y-95571785D01*
X144607143Y-95571785D02*
X144478571Y-95871785D01*
X144935713Y-95871785D02*
X145007142Y-95871785D01*
X145007142Y-95871785D02*
X145007142Y-95814642D01*
X145007142Y-95814642D02*
X144978571Y-95800357D01*
X144978571Y-95800357D02*
X144949999Y-95771785D01*
X144949999Y-95771785D02*
X144935713Y-95728928D01*
X144935713Y-95728928D02*
X144935713Y-95657500D01*
X144935713Y-95657500D02*
X144949999Y-95614642D01*
X144949999Y-95614642D02*
X144978571Y-95586071D01*
X144978571Y-95586071D02*
X145021428Y-95571785D01*
X145021428Y-95571785D02*
X145078571Y-95571785D01*
X145078571Y-95571785D02*
X145121428Y-95586071D01*
X145121428Y-95586071D02*
X145149999Y-95614642D01*
X145149999Y-95614642D02*
X145164285Y-95657500D01*
X145164285Y-95657500D02*
X145164285Y-95728928D01*
X145164285Y-95728928D02*
X145149999Y-95771785D01*
X145149999Y-95771785D02*
X145121428Y-95800357D01*
X145121428Y-95800357D02*
X145092856Y-95814642D01*
X145092856Y-95814642D02*
X145092856Y-95871785D01*
X145092856Y-95871785D02*
X145164285Y-95871785D01*
X130500000Y-105834885D02*
X130528571Y-105834885D01*
X130528571Y-105834885D02*
X130557143Y-105849171D01*
X130557143Y-105849171D02*
X130571429Y-105863457D01*
X130571429Y-105863457D02*
X130585714Y-105892028D01*
X130585714Y-105892028D02*
X130600000Y-105949171D01*
X130600000Y-105949171D02*
X130600000Y-106020600D01*
X130600000Y-106020600D02*
X130585714Y-106077742D01*
X130585714Y-106077742D02*
X130571429Y-106106314D01*
X130571429Y-106106314D02*
X130557143Y-106120600D01*
X130557143Y-106120600D02*
X130528571Y-106134885D01*
X130528571Y-106134885D02*
X130500000Y-106134885D01*
X130500000Y-106134885D02*
X130471429Y-106120600D01*
X130471429Y-106120600D02*
X130457143Y-106106314D01*
X130457143Y-106106314D02*
X130442857Y-106077742D01*
X130442857Y-106077742D02*
X130428571Y-106020600D01*
X130428571Y-106020600D02*
X130428571Y-105949171D01*
X130428571Y-105949171D02*
X130442857Y-105892028D01*
X130442857Y-105892028D02*
X130457143Y-105863457D01*
X130457143Y-105863457D02*
X130471429Y-105849171D01*
X130471429Y-105849171D02*
X130500000Y-105834885D01*
X130942856Y-106134885D02*
X131014285Y-106134885D01*
X131014285Y-106134885D02*
X131014285Y-106077742D01*
X131014285Y-106077742D02*
X130985714Y-106063457D01*
X130985714Y-106063457D02*
X130957142Y-106034885D01*
X130957142Y-106034885D02*
X130942856Y-105992028D01*
X130942856Y-105992028D02*
X130942856Y-105920600D01*
X130942856Y-105920600D02*
X130957142Y-105877742D01*
X130957142Y-105877742D02*
X130985714Y-105849171D01*
X130985714Y-105849171D02*
X131028571Y-105834885D01*
X131028571Y-105834885D02*
X131085714Y-105834885D01*
X131085714Y-105834885D02*
X131128571Y-105849171D01*
X131128571Y-105849171D02*
X131157142Y-105877742D01*
X131157142Y-105877742D02*
X131171428Y-105920600D01*
X131171428Y-105920600D02*
X131171428Y-105992028D01*
X131171428Y-105992028D02*
X131157142Y-106034885D01*
X131157142Y-106034885D02*
X131128571Y-106063457D01*
X131128571Y-106063457D02*
X131099999Y-106077742D01*
X131099999Y-106077742D02*
X131099999Y-106134885D01*
X131099999Y-106134885D02*
X131171428Y-106134885D01*
X152907143Y-86834885D02*
X152764286Y-86834885D01*
X152764286Y-86834885D02*
X152750000Y-86977742D01*
X152750000Y-86977742D02*
X152764286Y-86963457D01*
X152764286Y-86963457D02*
X152792858Y-86949171D01*
X152792858Y-86949171D02*
X152864286Y-86949171D01*
X152864286Y-86949171D02*
X152892858Y-86963457D01*
X152892858Y-86963457D02*
X152907143Y-86977742D01*
X152907143Y-86977742D02*
X152921429Y-87006314D01*
X152921429Y-87006314D02*
X152921429Y-87077742D01*
X152921429Y-87077742D02*
X152907143Y-87106314D01*
X152907143Y-87106314D02*
X152892858Y-87120600D01*
X152892858Y-87120600D02*
X152864286Y-87134885D01*
X152864286Y-87134885D02*
X152792858Y-87134885D01*
X152792858Y-87134885D02*
X152764286Y-87120600D01*
X152764286Y-87120600D02*
X152750000Y-87106314D01*
X153207143Y-87134885D02*
X153035714Y-87134885D01*
X153121429Y-87134885D02*
X153121429Y-86834885D01*
X153121429Y-86834885D02*
X153092857Y-86877742D01*
X153092857Y-86877742D02*
X153064286Y-86906314D01*
X153064286Y-86906314D02*
X153035714Y-86920600D01*
X153335714Y-87106314D02*
X153350000Y-87120600D01*
X153350000Y-87120600D02*
X153335714Y-87134885D01*
X153335714Y-87134885D02*
X153321428Y-87120600D01*
X153321428Y-87120600D02*
X153335714Y-87106314D01*
X153335714Y-87106314D02*
X153335714Y-87134885D01*
X153450000Y-86834885D02*
X153650000Y-86834885D01*
X153650000Y-86834885D02*
X153521428Y-87134885D01*
X153992856Y-87134885D02*
X153992856Y-86834885D01*
X154021428Y-87020600D02*
X154107142Y-87134885D01*
X154107142Y-86934885D02*
X153992856Y-87049171D01*
X154221427Y-87134885D02*
X154292856Y-87134885D01*
X154292856Y-87134885D02*
X154292856Y-87077742D01*
X154292856Y-87077742D02*
X154264285Y-87063457D01*
X154264285Y-87063457D02*
X154235713Y-87034885D01*
X154235713Y-87034885D02*
X154221427Y-86992028D01*
X154221427Y-86992028D02*
X154221427Y-86920600D01*
X154221427Y-86920600D02*
X154235713Y-86877742D01*
X154235713Y-86877742D02*
X154264285Y-86849171D01*
X154264285Y-86849171D02*
X154307142Y-86834885D01*
X154307142Y-86834885D02*
X154364285Y-86834885D01*
X154364285Y-86834885D02*
X154407142Y-86849171D01*
X154407142Y-86849171D02*
X154435713Y-86877742D01*
X154435713Y-86877742D02*
X154449999Y-86920600D01*
X154449999Y-86920600D02*
X154449999Y-86992028D01*
X154449999Y-86992028D02*
X154435713Y-87034885D01*
X154435713Y-87034885D02*
X154407142Y-87063457D01*
X154407142Y-87063457D02*
X154378570Y-87077742D01*
X154378570Y-87077742D02*
X154378570Y-87134885D01*
X154378570Y-87134885D02*
X154449999Y-87134885D01*
X161492857Y-85134885D02*
X161321428Y-85134885D01*
X161407143Y-85134885D02*
X161407143Y-84834885D01*
X161407143Y-84834885D02*
X161378571Y-84877742D01*
X161378571Y-84877742D02*
X161350000Y-84906314D01*
X161350000Y-84906314D02*
X161321428Y-84920600D01*
X161678571Y-84834885D02*
X161707142Y-84834885D01*
X161707142Y-84834885D02*
X161735714Y-84849171D01*
X161735714Y-84849171D02*
X161750000Y-84863457D01*
X161750000Y-84863457D02*
X161764285Y-84892028D01*
X161764285Y-84892028D02*
X161778571Y-84949171D01*
X161778571Y-84949171D02*
X161778571Y-85020600D01*
X161778571Y-85020600D02*
X161764285Y-85077742D01*
X161764285Y-85077742D02*
X161750000Y-85106314D01*
X161750000Y-85106314D02*
X161735714Y-85120600D01*
X161735714Y-85120600D02*
X161707142Y-85134885D01*
X161707142Y-85134885D02*
X161678571Y-85134885D01*
X161678571Y-85134885D02*
X161650000Y-85120600D01*
X161650000Y-85120600D02*
X161635714Y-85106314D01*
X161635714Y-85106314D02*
X161621428Y-85077742D01*
X161621428Y-85077742D02*
X161607142Y-85020600D01*
X161607142Y-85020600D02*
X161607142Y-84949171D01*
X161607142Y-84949171D02*
X161621428Y-84892028D01*
X161621428Y-84892028D02*
X161635714Y-84863457D01*
X161635714Y-84863457D02*
X161650000Y-84849171D01*
X161650000Y-84849171D02*
X161678571Y-84834885D01*
X162135713Y-84934885D02*
X162135713Y-85234885D01*
X162278570Y-85092028D02*
X162292856Y-85120600D01*
X162292856Y-85120600D02*
X162321427Y-85134885D01*
X162135713Y-85092028D02*
X162149999Y-85120600D01*
X162149999Y-85120600D02*
X162178570Y-85134885D01*
X162178570Y-85134885D02*
X162235713Y-85134885D01*
X162235713Y-85134885D02*
X162264285Y-85120600D01*
X162264285Y-85120600D02*
X162278570Y-85092028D01*
X162278570Y-85092028D02*
X162278570Y-84934885D01*
X162549999Y-84977742D02*
X162449999Y-84977742D01*
X162449999Y-85134885D02*
X162449999Y-84834885D01*
X162449999Y-84834885D02*
X162592856Y-84834885D01*
X152921429Y-89134885D02*
X152750000Y-89134885D01*
X152835715Y-89134885D02*
X152835715Y-88834885D01*
X152835715Y-88834885D02*
X152807143Y-88877742D01*
X152807143Y-88877742D02*
X152778572Y-88906314D01*
X152778572Y-88906314D02*
X152750000Y-88920600D01*
X153207143Y-89134885D02*
X153035714Y-89134885D01*
X153121429Y-89134885D02*
X153121429Y-88834885D01*
X153121429Y-88834885D02*
X153092857Y-88877742D01*
X153092857Y-88877742D02*
X153064286Y-88906314D01*
X153064286Y-88906314D02*
X153035714Y-88920600D01*
X153335714Y-89106314D02*
X153350000Y-89120600D01*
X153350000Y-89120600D02*
X153335714Y-89134885D01*
X153335714Y-89134885D02*
X153321428Y-89120600D01*
X153321428Y-89120600D02*
X153335714Y-89106314D01*
X153335714Y-89106314D02*
X153335714Y-89134885D01*
X153621428Y-88834885D02*
X153478571Y-88834885D01*
X153478571Y-88834885D02*
X153464285Y-88977742D01*
X153464285Y-88977742D02*
X153478571Y-88963457D01*
X153478571Y-88963457D02*
X153507143Y-88949171D01*
X153507143Y-88949171D02*
X153578571Y-88949171D01*
X153578571Y-88949171D02*
X153607143Y-88963457D01*
X153607143Y-88963457D02*
X153621428Y-88977742D01*
X153621428Y-88977742D02*
X153635714Y-89006314D01*
X153635714Y-89006314D02*
X153635714Y-89077742D01*
X153635714Y-89077742D02*
X153621428Y-89106314D01*
X153621428Y-89106314D02*
X153607143Y-89120600D01*
X153607143Y-89120600D02*
X153578571Y-89134885D01*
X153578571Y-89134885D02*
X153507143Y-89134885D01*
X153507143Y-89134885D02*
X153478571Y-89120600D01*
X153478571Y-89120600D02*
X153464285Y-89106314D01*
X153992856Y-89134885D02*
X153992856Y-88834885D01*
X154021428Y-89020600D02*
X154107142Y-89134885D01*
X154107142Y-88934885D02*
X153992856Y-89049171D01*
X154221427Y-89134885D02*
X154292856Y-89134885D01*
X154292856Y-89134885D02*
X154292856Y-89077742D01*
X154292856Y-89077742D02*
X154264285Y-89063457D01*
X154264285Y-89063457D02*
X154235713Y-89034885D01*
X154235713Y-89034885D02*
X154221427Y-88992028D01*
X154221427Y-88992028D02*
X154221427Y-88920600D01*
X154221427Y-88920600D02*
X154235713Y-88877742D01*
X154235713Y-88877742D02*
X154264285Y-88849171D01*
X154264285Y-88849171D02*
X154307142Y-88834885D01*
X154307142Y-88834885D02*
X154364285Y-88834885D01*
X154364285Y-88834885D02*
X154407142Y-88849171D01*
X154407142Y-88849171D02*
X154435713Y-88877742D01*
X154435713Y-88877742D02*
X154449999Y-88920600D01*
X154449999Y-88920600D02*
X154449999Y-88992028D01*
X154449999Y-88992028D02*
X154435713Y-89034885D01*
X154435713Y-89034885D02*
X154407142Y-89063457D01*
X154407142Y-89063457D02*
X154378570Y-89077742D01*
X154378570Y-89077742D02*
X154378570Y-89134885D01*
X154378570Y-89134885D02*
X154449999Y-89134885D01*
D10*
X135100878Y-73483419D02*
X135672306Y-73483419D01*
X135386592Y-74483419D02*
X135386592Y-73483419D01*
X136196116Y-74007228D02*
X136196116Y-74483419D01*
X135862783Y-73483419D02*
X136196116Y-74007228D01*
X136196116Y-74007228D02*
X136529449Y-73483419D01*
X136862783Y-74483419D02*
X136862783Y-73483419D01*
X136862783Y-73483419D02*
X137243735Y-73483419D01*
X137243735Y-73483419D02*
X137338973Y-73531038D01*
X137338973Y-73531038D02*
X137386592Y-73578657D01*
X137386592Y-73578657D02*
X137434211Y-73673895D01*
X137434211Y-73673895D02*
X137434211Y-73816752D01*
X137434211Y-73816752D02*
X137386592Y-73911990D01*
X137386592Y-73911990D02*
X137338973Y-73959609D01*
X137338973Y-73959609D02*
X137243735Y-74007228D01*
X137243735Y-74007228D02*
X136862783Y-74007228D01*
X137862783Y-73959609D02*
X138196116Y-73959609D01*
X138338973Y-74483419D02*
X137862783Y-74483419D01*
X137862783Y-74483419D02*
X137862783Y-73483419D01*
X137862783Y-73483419D02*
X138338973Y-73483419D01*
X138767545Y-74102466D02*
X139529450Y-74102466D01*
X140577068Y-74388180D02*
X140529449Y-74435800D01*
X140529449Y-74435800D02*
X140386592Y-74483419D01*
X140386592Y-74483419D02*
X140291354Y-74483419D01*
X140291354Y-74483419D02*
X140148497Y-74435800D01*
X140148497Y-74435800D02*
X140053259Y-74340561D01*
X140053259Y-74340561D02*
X140005640Y-74245323D01*
X140005640Y-74245323D02*
X139958021Y-74054847D01*
X139958021Y-74054847D02*
X139958021Y-73911990D01*
X139958021Y-73911990D02*
X140005640Y-73721514D01*
X140005640Y-73721514D02*
X140053259Y-73626276D01*
X140053259Y-73626276D02*
X140148497Y-73531038D01*
X140148497Y-73531038D02*
X140291354Y-73483419D01*
X140291354Y-73483419D02*
X140386592Y-73483419D01*
X140386592Y-73483419D02*
X140529449Y-73531038D01*
X140529449Y-73531038D02*
X140577068Y-73578657D01*
X141005640Y-74102466D02*
X141767545Y-74102466D01*
X142148497Y-73483419D02*
X142767544Y-73483419D01*
X142767544Y-73483419D02*
X142434211Y-73864371D01*
X142434211Y-73864371D02*
X142577068Y-73864371D01*
X142577068Y-73864371D02*
X142672306Y-73911990D01*
X142672306Y-73911990D02*
X142719925Y-73959609D01*
X142719925Y-73959609D02*
X142767544Y-74054847D01*
X142767544Y-74054847D02*
X142767544Y-74292942D01*
X142767544Y-74292942D02*
X142719925Y-74388180D01*
X142719925Y-74388180D02*
X142672306Y-74435800D01*
X142672306Y-74435800D02*
X142577068Y-74483419D01*
X142577068Y-74483419D02*
X142291354Y-74483419D01*
X142291354Y-74483419D02*
X142196116Y-74435800D01*
X142196116Y-74435800D02*
X142148497Y-74388180D01*
X143719925Y-74483419D02*
X143148497Y-74483419D01*
X143434211Y-74483419D02*
X143434211Y-73483419D01*
X143434211Y-73483419D02*
X143338973Y-73626276D01*
X143338973Y-73626276D02*
X143243735Y-73721514D01*
X143243735Y-73721514D02*
X143148497Y-73769133D01*
X144148497Y-74102466D02*
X144910402Y-74102466D01*
X145386592Y-74483419D02*
X145386592Y-73483419D01*
X145386592Y-73483419D02*
X145719925Y-74197704D01*
X145719925Y-74197704D02*
X146053258Y-73483419D01*
X146053258Y-73483419D02*
X146053258Y-74483419D01*
X146529449Y-74102466D02*
X147291354Y-74102466D01*
X148291353Y-74483419D02*
X147719925Y-74483419D01*
X148005639Y-74483419D02*
X148005639Y-73483419D01*
X148005639Y-73483419D02*
X147910401Y-73626276D01*
X147910401Y-73626276D02*
X147815163Y-73721514D01*
X147815163Y-73721514D02*
X147719925Y-73769133D01*
X148672306Y-73578657D02*
X148719925Y-73531038D01*
X148719925Y-73531038D02*
X148815163Y-73483419D01*
X148815163Y-73483419D02*
X149053258Y-73483419D01*
X149053258Y-73483419D02*
X149148496Y-73531038D01*
X149148496Y-73531038D02*
X149196115Y-73578657D01*
X149196115Y-73578657D02*
X149243734Y-73673895D01*
X149243734Y-73673895D02*
X149243734Y-73769133D01*
X149243734Y-73769133D02*
X149196115Y-73911990D01*
X149196115Y-73911990D02*
X148624687Y-74483419D01*
X148624687Y-74483419D02*
X149243734Y-74483419D01*
D11*
X122960714Y-122634885D02*
X122789285Y-122634885D01*
X122875000Y-122634885D02*
X122875000Y-122334885D01*
X122875000Y-122334885D02*
X122846428Y-122377742D01*
X122846428Y-122377742D02*
X122817857Y-122406314D01*
X122817857Y-122406314D02*
X122789285Y-122420600D01*
X123317856Y-122434885D02*
X123317856Y-122734885D01*
X123460713Y-122592028D02*
X123474999Y-122620600D01*
X123474999Y-122620600D02*
X123503570Y-122634885D01*
X123317856Y-122592028D02*
X123332142Y-122620600D01*
X123332142Y-122620600D02*
X123360713Y-122634885D01*
X123360713Y-122634885D02*
X123417856Y-122634885D01*
X123417856Y-122634885D02*
X123446428Y-122620600D01*
X123446428Y-122620600D02*
X123460713Y-122592028D01*
X123460713Y-122592028D02*
X123460713Y-122434885D01*
X123732142Y-122477742D02*
X123632142Y-122477742D01*
X123632142Y-122634885D02*
X123632142Y-122334885D01*
X123632142Y-122334885D02*
X123774999Y-122334885D01*
X132500000Y-111834885D02*
X132528571Y-111834885D01*
X132528571Y-111834885D02*
X132557143Y-111849171D01*
X132557143Y-111849171D02*
X132571429Y-111863457D01*
X132571429Y-111863457D02*
X132585714Y-111892028D01*
X132585714Y-111892028D02*
X132600000Y-111949171D01*
X132600000Y-111949171D02*
X132600000Y-112020600D01*
X132600000Y-112020600D02*
X132585714Y-112077742D01*
X132585714Y-112077742D02*
X132571429Y-112106314D01*
X132571429Y-112106314D02*
X132557143Y-112120600D01*
X132557143Y-112120600D02*
X132528571Y-112134885D01*
X132528571Y-112134885D02*
X132500000Y-112134885D01*
X132500000Y-112134885D02*
X132471429Y-112120600D01*
X132471429Y-112120600D02*
X132457143Y-112106314D01*
X132457143Y-112106314D02*
X132442857Y-112077742D01*
X132442857Y-112077742D02*
X132428571Y-112020600D01*
X132428571Y-112020600D02*
X132428571Y-111949171D01*
X132428571Y-111949171D02*
X132442857Y-111892028D01*
X132442857Y-111892028D02*
X132457143Y-111863457D01*
X132457143Y-111863457D02*
X132471429Y-111849171D01*
X132471429Y-111849171D02*
X132500000Y-111834885D01*
X132942856Y-112134885D02*
X133014285Y-112134885D01*
X133014285Y-112134885D02*
X133014285Y-112077742D01*
X133014285Y-112077742D02*
X132985714Y-112063457D01*
X132985714Y-112063457D02*
X132957142Y-112034885D01*
X132957142Y-112034885D02*
X132942856Y-111992028D01*
X132942856Y-111992028D02*
X132942856Y-111920600D01*
X132942856Y-111920600D02*
X132957142Y-111877742D01*
X132957142Y-111877742D02*
X132985714Y-111849171D01*
X132985714Y-111849171D02*
X133028571Y-111834885D01*
X133028571Y-111834885D02*
X133085714Y-111834885D01*
X133085714Y-111834885D02*
X133128571Y-111849171D01*
X133128571Y-111849171D02*
X133157142Y-111877742D01*
X133157142Y-111877742D02*
X133171428Y-111920600D01*
X133171428Y-111920600D02*
X133171428Y-111992028D01*
X133171428Y-111992028D02*
X133157142Y-112034885D01*
X133157142Y-112034885D02*
X133128571Y-112063457D01*
X133128571Y-112063457D02*
X133099999Y-112077742D01*
X133099999Y-112077742D02*
X133099999Y-112134885D01*
X133099999Y-112134885D02*
X133171428Y-112134885D01*
X128992857Y-124934885D02*
X128821428Y-124934885D01*
X128907143Y-124934885D02*
X128907143Y-124634885D01*
X128907143Y-124634885D02*
X128878571Y-124677742D01*
X128878571Y-124677742D02*
X128850000Y-124706314D01*
X128850000Y-124706314D02*
X128821428Y-124720600D01*
X129178571Y-124634885D02*
X129207142Y-124634885D01*
X129207142Y-124634885D02*
X129235714Y-124649171D01*
X129235714Y-124649171D02*
X129250000Y-124663457D01*
X129250000Y-124663457D02*
X129264285Y-124692028D01*
X129264285Y-124692028D02*
X129278571Y-124749171D01*
X129278571Y-124749171D02*
X129278571Y-124820600D01*
X129278571Y-124820600D02*
X129264285Y-124877742D01*
X129264285Y-124877742D02*
X129250000Y-124906314D01*
X129250000Y-124906314D02*
X129235714Y-124920600D01*
X129235714Y-124920600D02*
X129207142Y-124934885D01*
X129207142Y-124934885D02*
X129178571Y-124934885D01*
X129178571Y-124934885D02*
X129150000Y-124920600D01*
X129150000Y-124920600D02*
X129135714Y-124906314D01*
X129135714Y-124906314D02*
X129121428Y-124877742D01*
X129121428Y-124877742D02*
X129107142Y-124820600D01*
X129107142Y-124820600D02*
X129107142Y-124749171D01*
X129107142Y-124749171D02*
X129121428Y-124692028D01*
X129121428Y-124692028D02*
X129135714Y-124663457D01*
X129135714Y-124663457D02*
X129150000Y-124649171D01*
X129150000Y-124649171D02*
X129178571Y-124634885D01*
X129635713Y-124734885D02*
X129635713Y-125034885D01*
X129778570Y-124892028D02*
X129792856Y-124920600D01*
X129792856Y-124920600D02*
X129821427Y-124934885D01*
X129635713Y-124892028D02*
X129649999Y-124920600D01*
X129649999Y-124920600D02*
X129678570Y-124934885D01*
X129678570Y-124934885D02*
X129735713Y-124934885D01*
X129735713Y-124934885D02*
X129764285Y-124920600D01*
X129764285Y-124920600D02*
X129778570Y-124892028D01*
X129778570Y-124892028D02*
X129778570Y-124734885D01*
X130049999Y-124777742D02*
X129949999Y-124777742D01*
X129949999Y-124934885D02*
X129949999Y-124634885D01*
X129949999Y-124634885D02*
X130092856Y-124634885D01*
D10*
X139708646Y-119457419D02*
X140375312Y-120457419D01*
X140375312Y-119457419D02*
X139708646Y-120457419D01*
X140661027Y-119457419D02*
X141280074Y-119457419D01*
X141280074Y-119457419D02*
X140946741Y-119838371D01*
X140946741Y-119838371D02*
X141089598Y-119838371D01*
X141089598Y-119838371D02*
X141184836Y-119885990D01*
X141184836Y-119885990D02*
X141232455Y-119933609D01*
X141232455Y-119933609D02*
X141280074Y-120028847D01*
X141280074Y-120028847D02*
X141280074Y-120266942D01*
X141280074Y-120266942D02*
X141232455Y-120362180D01*
X141232455Y-120362180D02*
X141184836Y-120409800D01*
X141184836Y-120409800D02*
X141089598Y-120457419D01*
X141089598Y-120457419D02*
X140803884Y-120457419D01*
X140803884Y-120457419D02*
X140708646Y-120409800D01*
X140708646Y-120409800D02*
X140661027Y-120362180D01*
X141661027Y-119552657D02*
X141708646Y-119505038D01*
X141708646Y-119505038D02*
X141803884Y-119457419D01*
X141803884Y-119457419D02*
X142041979Y-119457419D01*
X142041979Y-119457419D02*
X142137217Y-119505038D01*
X142137217Y-119505038D02*
X142184836Y-119552657D01*
X142184836Y-119552657D02*
X142232455Y-119647895D01*
X142232455Y-119647895D02*
X142232455Y-119743133D01*
X142232455Y-119743133D02*
X142184836Y-119885990D01*
X142184836Y-119885990D02*
X141613408Y-120457419D01*
X141613408Y-120457419D02*
X142232455Y-120457419D01*
X142613408Y-119552657D02*
X142661027Y-119505038D01*
X142661027Y-119505038D02*
X142756265Y-119457419D01*
X142756265Y-119457419D02*
X142994360Y-119457419D01*
X142994360Y-119457419D02*
X143089598Y-119505038D01*
X143089598Y-119505038D02*
X143137217Y-119552657D01*
X143137217Y-119552657D02*
X143184836Y-119647895D01*
X143184836Y-119647895D02*
X143184836Y-119743133D01*
X143184836Y-119743133D02*
X143137217Y-119885990D01*
X143137217Y-119885990D02*
X142565789Y-120457419D01*
X142565789Y-120457419D02*
X143184836Y-120457419D01*
X144089598Y-119457419D02*
X143613408Y-119457419D01*
X143613408Y-119457419D02*
X143565789Y-119933609D01*
X143565789Y-119933609D02*
X143613408Y-119885990D01*
X143613408Y-119885990D02*
X143708646Y-119838371D01*
X143708646Y-119838371D02*
X143946741Y-119838371D01*
X143946741Y-119838371D02*
X144041979Y-119885990D01*
X144041979Y-119885990D02*
X144089598Y-119933609D01*
X144089598Y-119933609D02*
X144137217Y-120028847D01*
X144137217Y-120028847D02*
X144137217Y-120266942D01*
X144137217Y-120266942D02*
X144089598Y-120362180D01*
X144089598Y-120362180D02*
X144041979Y-120409800D01*
X144041979Y-120409800D02*
X143946741Y-120457419D01*
X143946741Y-120457419D02*
X143708646Y-120457419D01*
X143708646Y-120457419D02*
X143613408Y-120409800D01*
X143613408Y-120409800D02*
X143565789Y-120362180D01*
X145089598Y-120457419D02*
X144518170Y-120457419D01*
X144803884Y-120457419D02*
X144803884Y-119457419D01*
X144803884Y-119457419D02*
X144708646Y-119600276D01*
X144708646Y-119600276D02*
X144613408Y-119695514D01*
X144613408Y-119695514D02*
X144518170Y-119743133D01*
X145470551Y-119552657D02*
X145518170Y-119505038D01*
X145518170Y-119505038D02*
X145613408Y-119457419D01*
X145613408Y-119457419D02*
X145851503Y-119457419D01*
X145851503Y-119457419D02*
X145946741Y-119505038D01*
X145946741Y-119505038D02*
X145994360Y-119552657D01*
X145994360Y-119552657D02*
X146041979Y-119647895D01*
X146041979Y-119647895D02*
X146041979Y-119743133D01*
X146041979Y-119743133D02*
X145994360Y-119885990D01*
X145994360Y-119885990D02*
X145422932Y-120457419D01*
X145422932Y-120457419D02*
X146041979Y-120457419D01*
X146470551Y-120457419D02*
X146470551Y-119457419D01*
X146470551Y-119457419D02*
X146803884Y-120171704D01*
X146803884Y-120171704D02*
X147137217Y-119457419D01*
X147137217Y-119457419D02*
X147137217Y-120457419D01*
X147565789Y-120409800D02*
X147708646Y-120457419D01*
X147708646Y-120457419D02*
X147946741Y-120457419D01*
X147946741Y-120457419D02*
X148041979Y-120409800D01*
X148041979Y-120409800D02*
X148089598Y-120362180D01*
X148089598Y-120362180D02*
X148137217Y-120266942D01*
X148137217Y-120266942D02*
X148137217Y-120171704D01*
X148137217Y-120171704D02*
X148089598Y-120076466D01*
X148089598Y-120076466D02*
X148041979Y-120028847D01*
X148041979Y-120028847D02*
X147946741Y-119981228D01*
X147946741Y-119981228D02*
X147756265Y-119933609D01*
X147756265Y-119933609D02*
X147661027Y-119885990D01*
X147661027Y-119885990D02*
X147613408Y-119838371D01*
X147613408Y-119838371D02*
X147565789Y-119743133D01*
X147565789Y-119743133D02*
X147565789Y-119647895D01*
X147565789Y-119647895D02*
X147613408Y-119552657D01*
X147613408Y-119552657D02*
X147661027Y-119505038D01*
X147661027Y-119505038D02*
X147756265Y-119457419D01*
X147756265Y-119457419D02*
X147994360Y-119457419D01*
X147994360Y-119457419D02*
X148137217Y-119505038D01*
X148899122Y-119933609D02*
X149041979Y-119981228D01*
X149041979Y-119981228D02*
X149089598Y-120028847D01*
X149089598Y-120028847D02*
X149137217Y-120124085D01*
X149137217Y-120124085D02*
X149137217Y-120266942D01*
X149137217Y-120266942D02*
X149089598Y-120362180D01*
X149089598Y-120362180D02*
X149041979Y-120409800D01*
X149041979Y-120409800D02*
X148946741Y-120457419D01*
X148946741Y-120457419D02*
X148565789Y-120457419D01*
X148565789Y-120457419D02*
X148565789Y-119457419D01*
X148565789Y-119457419D02*
X148899122Y-119457419D01*
X148899122Y-119457419D02*
X148994360Y-119505038D01*
X148994360Y-119505038D02*
X149041979Y-119552657D01*
X149041979Y-119552657D02*
X149089598Y-119647895D01*
X149089598Y-119647895D02*
X149089598Y-119743133D01*
X149089598Y-119743133D02*
X149041979Y-119838371D01*
X149041979Y-119838371D02*
X148994360Y-119885990D01*
X148994360Y-119885990D02*
X148899122Y-119933609D01*
X148899122Y-119933609D02*
X148565789Y-119933609D01*
X149994360Y-119790752D02*
X149994360Y-120457419D01*
X149756265Y-119409800D02*
X149518170Y-120124085D01*
X149518170Y-120124085D02*
X150137217Y-120124085D01*
X150470551Y-120409800D02*
X150613408Y-120457419D01*
X150613408Y-120457419D02*
X150851503Y-120457419D01*
X150851503Y-120457419D02*
X150946741Y-120409800D01*
X150946741Y-120409800D02*
X150994360Y-120362180D01*
X150994360Y-120362180D02*
X151041979Y-120266942D01*
X151041979Y-120266942D02*
X151041979Y-120171704D01*
X151041979Y-120171704D02*
X150994360Y-120076466D01*
X150994360Y-120076466D02*
X150946741Y-120028847D01*
X150946741Y-120028847D02*
X150851503Y-119981228D01*
X150851503Y-119981228D02*
X150661027Y-119933609D01*
X150661027Y-119933609D02*
X150565789Y-119885990D01*
X150565789Y-119885990D02*
X150518170Y-119838371D01*
X150518170Y-119838371D02*
X150470551Y-119743133D01*
X150470551Y-119743133D02*
X150470551Y-119647895D01*
X150470551Y-119647895D02*
X150518170Y-119552657D01*
X150518170Y-119552657D02*
X150565789Y-119505038D01*
X150565789Y-119505038D02*
X150661027Y-119457419D01*
X150661027Y-119457419D02*
X150899122Y-119457419D01*
X150899122Y-119457419D02*
X151041979Y-119505038D01*
X151470551Y-120457419D02*
X151470551Y-119457419D01*
X117411209Y-113053883D02*
X116911209Y-113053883D01*
X117149304Y-113053883D02*
X117149304Y-112768169D01*
X117411209Y-112768169D02*
X116911209Y-112768169D01*
X117411209Y-112530073D02*
X116911209Y-112530073D01*
X116911209Y-112530073D02*
X116911209Y-112411025D01*
X116911209Y-112411025D02*
X116935019Y-112339597D01*
X116935019Y-112339597D02*
X116982638Y-112291978D01*
X116982638Y-112291978D02*
X117030257Y-112268168D01*
X117030257Y-112268168D02*
X117125495Y-112244359D01*
X117125495Y-112244359D02*
X117196923Y-112244359D01*
X117196923Y-112244359D02*
X117292161Y-112268168D01*
X117292161Y-112268168D02*
X117339780Y-112291978D01*
X117339780Y-112291978D02*
X117387400Y-112339597D01*
X117387400Y-112339597D02*
X117411209Y-112411025D01*
X117411209Y-112411025D02*
X117411209Y-112530073D01*
X117411209Y-112030073D02*
X116911209Y-112030073D01*
X116911209Y-112030073D02*
X117268352Y-111863406D01*
X117268352Y-111863406D02*
X116911209Y-111696740D01*
X116911209Y-111696740D02*
X117411209Y-111696740D01*
X117411209Y-111458644D02*
X116911209Y-111458644D01*
X117220733Y-111220549D02*
X117220733Y-110839597D01*
X116911209Y-110506263D02*
X116911209Y-110458644D01*
X116911209Y-110458644D02*
X116935019Y-110411025D01*
X116935019Y-110411025D02*
X116958828Y-110387215D01*
X116958828Y-110387215D02*
X117006447Y-110363406D01*
X117006447Y-110363406D02*
X117101685Y-110339596D01*
X117101685Y-110339596D02*
X117220733Y-110339596D01*
X117220733Y-110339596D02*
X117315971Y-110363406D01*
X117315971Y-110363406D02*
X117363590Y-110387215D01*
X117363590Y-110387215D02*
X117387400Y-110411025D01*
X117387400Y-110411025D02*
X117411209Y-110458644D01*
X117411209Y-110458644D02*
X117411209Y-110506263D01*
X117411209Y-110506263D02*
X117387400Y-110553882D01*
X117387400Y-110553882D02*
X117363590Y-110577691D01*
X117363590Y-110577691D02*
X117315971Y-110601501D01*
X117315971Y-110601501D02*
X117220733Y-110625310D01*
X117220733Y-110625310D02*
X117101685Y-110625310D01*
X117101685Y-110625310D02*
X117006447Y-110601501D01*
X117006447Y-110601501D02*
X116958828Y-110577691D01*
X116958828Y-110577691D02*
X116935019Y-110553882D01*
X116935019Y-110553882D02*
X116911209Y-110506263D01*
X116911209Y-110030073D02*
X116911209Y-109982454D01*
X116911209Y-109982454D02*
X116935019Y-109934835D01*
X116935019Y-109934835D02*
X116958828Y-109911025D01*
X116958828Y-109911025D02*
X117006447Y-109887216D01*
X117006447Y-109887216D02*
X117101685Y-109863406D01*
X117101685Y-109863406D02*
X117220733Y-109863406D01*
X117220733Y-109863406D02*
X117315971Y-109887216D01*
X117315971Y-109887216D02*
X117363590Y-109911025D01*
X117363590Y-109911025D02*
X117387400Y-109934835D01*
X117387400Y-109934835D02*
X117411209Y-109982454D01*
X117411209Y-109982454D02*
X117411209Y-110030073D01*
X117411209Y-110030073D02*
X117387400Y-110077692D01*
X117387400Y-110077692D02*
X117363590Y-110101501D01*
X117363590Y-110101501D02*
X117315971Y-110125311D01*
X117315971Y-110125311D02*
X117220733Y-110149120D01*
X117220733Y-110149120D02*
X117101685Y-110149120D01*
X117101685Y-110149120D02*
X117006447Y-110125311D01*
X117006447Y-110125311D02*
X116958828Y-110101501D01*
X116958828Y-110101501D02*
X116935019Y-110077692D01*
X116935019Y-110077692D02*
X116911209Y-110030073D01*
X117411209Y-109387216D02*
X117411209Y-109672930D01*
X117411209Y-109530073D02*
X116911209Y-109530073D01*
X116911209Y-109530073D02*
X116982638Y-109577692D01*
X116982638Y-109577692D02*
X117030257Y-109625311D01*
X117030257Y-109625311D02*
X117054066Y-109672930D01*
X117387400Y-109196740D02*
X117411209Y-109125312D01*
X117411209Y-109125312D02*
X117411209Y-109006264D01*
X117411209Y-109006264D02*
X117387400Y-108958645D01*
X117387400Y-108958645D02*
X117363590Y-108934836D01*
X117363590Y-108934836D02*
X117315971Y-108911026D01*
X117315971Y-108911026D02*
X117268352Y-108911026D01*
X117268352Y-108911026D02*
X117220733Y-108934836D01*
X117220733Y-108934836D02*
X117196923Y-108958645D01*
X117196923Y-108958645D02*
X117173114Y-109006264D01*
X117173114Y-109006264D02*
X117149304Y-109101502D01*
X117149304Y-109101502D02*
X117125495Y-109149121D01*
X117125495Y-109149121D02*
X117101685Y-109172931D01*
X117101685Y-109172931D02*
X117054066Y-109196740D01*
X117054066Y-109196740D02*
X117006447Y-109196740D01*
X117006447Y-109196740D02*
X116958828Y-109172931D01*
X116958828Y-109172931D02*
X116935019Y-109149121D01*
X116935019Y-109149121D02*
X116911209Y-109101502D01*
X116911209Y-109101502D02*
X116911209Y-108982455D01*
X116911209Y-108982455D02*
X116935019Y-108911026D01*
X135863408Y-126343009D02*
X136149122Y-126343009D01*
X136006265Y-126843009D02*
X136006265Y-126343009D01*
X136291979Y-126819200D02*
X136363407Y-126843009D01*
X136363407Y-126843009D02*
X136482455Y-126843009D01*
X136482455Y-126843009D02*
X136530074Y-126819200D01*
X136530074Y-126819200D02*
X136553883Y-126795390D01*
X136553883Y-126795390D02*
X136577693Y-126747771D01*
X136577693Y-126747771D02*
X136577693Y-126700152D01*
X136577693Y-126700152D02*
X136553883Y-126652533D01*
X136553883Y-126652533D02*
X136530074Y-126628723D01*
X136530074Y-126628723D02*
X136482455Y-126604914D01*
X136482455Y-126604914D02*
X136387217Y-126581104D01*
X136387217Y-126581104D02*
X136339598Y-126557295D01*
X136339598Y-126557295D02*
X136315788Y-126533485D01*
X136315788Y-126533485D02*
X136291979Y-126485866D01*
X136291979Y-126485866D02*
X136291979Y-126438247D01*
X136291979Y-126438247D02*
X136315788Y-126390628D01*
X136315788Y-126390628D02*
X136339598Y-126366819D01*
X136339598Y-126366819D02*
X136387217Y-126343009D01*
X136387217Y-126343009D02*
X136506264Y-126343009D01*
X136506264Y-126343009D02*
X136577693Y-126366819D01*
X136791978Y-126652533D02*
X137172931Y-126652533D01*
X137672931Y-126843009D02*
X137387217Y-126843009D01*
X137530074Y-126843009D02*
X137530074Y-126343009D01*
X137530074Y-126343009D02*
X137482455Y-126414438D01*
X137482455Y-126414438D02*
X137434836Y-126462057D01*
X137434836Y-126462057D02*
X137387217Y-126485866D01*
X138149121Y-126843009D02*
X137863407Y-126843009D01*
X138006264Y-126843009D02*
X138006264Y-126343009D01*
X138006264Y-126343009D02*
X137958645Y-126414438D01*
X137958645Y-126414438D02*
X137911026Y-126462057D01*
X137911026Y-126462057D02*
X137863407Y-126485866D01*
X138434835Y-126557295D02*
X138387216Y-126533485D01*
X138387216Y-126533485D02*
X138363406Y-126509676D01*
X138363406Y-126509676D02*
X138339597Y-126462057D01*
X138339597Y-126462057D02*
X138339597Y-126438247D01*
X138339597Y-126438247D02*
X138363406Y-126390628D01*
X138363406Y-126390628D02*
X138387216Y-126366819D01*
X138387216Y-126366819D02*
X138434835Y-126343009D01*
X138434835Y-126343009D02*
X138530073Y-126343009D01*
X138530073Y-126343009D02*
X138577692Y-126366819D01*
X138577692Y-126366819D02*
X138601501Y-126390628D01*
X138601501Y-126390628D02*
X138625311Y-126438247D01*
X138625311Y-126438247D02*
X138625311Y-126462057D01*
X138625311Y-126462057D02*
X138601501Y-126509676D01*
X138601501Y-126509676D02*
X138577692Y-126533485D01*
X138577692Y-126533485D02*
X138530073Y-126557295D01*
X138530073Y-126557295D02*
X138434835Y-126557295D01*
X138434835Y-126557295D02*
X138387216Y-126581104D01*
X138387216Y-126581104D02*
X138363406Y-126604914D01*
X138363406Y-126604914D02*
X138339597Y-126652533D01*
X138339597Y-126652533D02*
X138339597Y-126747771D01*
X138339597Y-126747771D02*
X138363406Y-126795390D01*
X138363406Y-126795390D02*
X138387216Y-126819200D01*
X138387216Y-126819200D02*
X138434835Y-126843009D01*
X138434835Y-126843009D02*
X138530073Y-126843009D01*
X138530073Y-126843009D02*
X138577692Y-126819200D01*
X138577692Y-126819200D02*
X138601501Y-126795390D01*
X138601501Y-126795390D02*
X138625311Y-126747771D01*
X138625311Y-126747771D02*
X138625311Y-126652533D01*
X138625311Y-126652533D02*
X138601501Y-126604914D01*
X138601501Y-126604914D02*
X138577692Y-126581104D01*
X138577692Y-126581104D02*
X138530073Y-126557295D01*
X138791977Y-126343009D02*
X139125310Y-126343009D01*
X139125310Y-126343009D02*
X138911025Y-126843009D01*
X139291977Y-126700152D02*
X139530072Y-126700152D01*
X139244358Y-126843009D02*
X139411024Y-126343009D01*
X139411024Y-126343009D02*
X139577691Y-126843009D01*
X139744357Y-126652533D02*
X140125310Y-126652533D01*
X140530072Y-126581104D02*
X140601500Y-126604914D01*
X140601500Y-126604914D02*
X140625310Y-126628723D01*
X140625310Y-126628723D02*
X140649119Y-126676342D01*
X140649119Y-126676342D02*
X140649119Y-126747771D01*
X140649119Y-126747771D02*
X140625310Y-126795390D01*
X140625310Y-126795390D02*
X140601500Y-126819200D01*
X140601500Y-126819200D02*
X140553881Y-126843009D01*
X140553881Y-126843009D02*
X140363405Y-126843009D01*
X140363405Y-126843009D02*
X140363405Y-126343009D01*
X140363405Y-126343009D02*
X140530072Y-126343009D01*
X140530072Y-126343009D02*
X140577691Y-126366819D01*
X140577691Y-126366819D02*
X140601500Y-126390628D01*
X140601500Y-126390628D02*
X140625310Y-126438247D01*
X140625310Y-126438247D02*
X140625310Y-126485866D01*
X140625310Y-126485866D02*
X140601500Y-126533485D01*
X140601500Y-126533485D02*
X140577691Y-126557295D01*
X140577691Y-126557295D02*
X140530072Y-126581104D01*
X140530072Y-126581104D02*
X140363405Y-126581104D01*
X140863405Y-126652533D02*
X141244358Y-126652533D01*
X141458644Y-126700152D02*
X141696739Y-126700152D01*
X141411025Y-126843009D02*
X141577691Y-126343009D01*
X141577691Y-126343009D02*
X141744358Y-126843009D01*
X141911024Y-126652533D02*
X142291977Y-126652533D01*
X142696739Y-126581104D02*
X142768167Y-126604914D01*
X142768167Y-126604914D02*
X142791977Y-126628723D01*
X142791977Y-126628723D02*
X142815786Y-126676342D01*
X142815786Y-126676342D02*
X142815786Y-126747771D01*
X142815786Y-126747771D02*
X142791977Y-126795390D01*
X142791977Y-126795390D02*
X142768167Y-126819200D01*
X142768167Y-126819200D02*
X142720548Y-126843009D01*
X142720548Y-126843009D02*
X142530072Y-126843009D01*
X142530072Y-126843009D02*
X142530072Y-126343009D01*
X142530072Y-126343009D02*
X142696739Y-126343009D01*
X142696739Y-126343009D02*
X142744358Y-126366819D01*
X142744358Y-126366819D02*
X142768167Y-126390628D01*
X142768167Y-126390628D02*
X142791977Y-126438247D01*
X142791977Y-126438247D02*
X142791977Y-126485866D01*
X142791977Y-126485866D02*
X142768167Y-126533485D01*
X142768167Y-126533485D02*
X142744358Y-126557295D01*
X142744358Y-126557295D02*
X142696739Y-126581104D01*
X142696739Y-126581104D02*
X142530072Y-126581104D01*
D11*
X130500000Y-111834885D02*
X130528571Y-111834885D01*
X130528571Y-111834885D02*
X130557143Y-111849171D01*
X130557143Y-111849171D02*
X130571429Y-111863457D01*
X130571429Y-111863457D02*
X130585714Y-111892028D01*
X130585714Y-111892028D02*
X130600000Y-111949171D01*
X130600000Y-111949171D02*
X130600000Y-112020600D01*
X130600000Y-112020600D02*
X130585714Y-112077742D01*
X130585714Y-112077742D02*
X130571429Y-112106314D01*
X130571429Y-112106314D02*
X130557143Y-112120600D01*
X130557143Y-112120600D02*
X130528571Y-112134885D01*
X130528571Y-112134885D02*
X130500000Y-112134885D01*
X130500000Y-112134885D02*
X130471429Y-112120600D01*
X130471429Y-112120600D02*
X130457143Y-112106314D01*
X130457143Y-112106314D02*
X130442857Y-112077742D01*
X130442857Y-112077742D02*
X130428571Y-112020600D01*
X130428571Y-112020600D02*
X130428571Y-111949171D01*
X130428571Y-111949171D02*
X130442857Y-111892028D01*
X130442857Y-111892028D02*
X130457143Y-111863457D01*
X130457143Y-111863457D02*
X130471429Y-111849171D01*
X130471429Y-111849171D02*
X130500000Y-111834885D01*
X130942856Y-112134885D02*
X131014285Y-112134885D01*
X131014285Y-112134885D02*
X131014285Y-112077742D01*
X131014285Y-112077742D02*
X130985714Y-112063457D01*
X130985714Y-112063457D02*
X130957142Y-112034885D01*
X130957142Y-112034885D02*
X130942856Y-111992028D01*
X130942856Y-111992028D02*
X130942856Y-111920600D01*
X130942856Y-111920600D02*
X130957142Y-111877742D01*
X130957142Y-111877742D02*
X130985714Y-111849171D01*
X130985714Y-111849171D02*
X131028571Y-111834885D01*
X131028571Y-111834885D02*
X131085714Y-111834885D01*
X131085714Y-111834885D02*
X131128571Y-111849171D01*
X131128571Y-111849171D02*
X131157142Y-111877742D01*
X131157142Y-111877742D02*
X131171428Y-111920600D01*
X131171428Y-111920600D02*
X131171428Y-111992028D01*
X131171428Y-111992028D02*
X131157142Y-112034885D01*
X131157142Y-112034885D02*
X131128571Y-112063457D01*
X131128571Y-112063457D02*
X131099999Y-112077742D01*
X131099999Y-112077742D02*
X131099999Y-112134885D01*
X131099999Y-112134885D02*
X131171428Y-112134885D01*
D10*
X164696741Y-123901319D02*
X164649122Y-123877509D01*
X164649122Y-123877509D02*
X164577693Y-123877509D01*
X164577693Y-123877509D02*
X164506265Y-123901319D01*
X164506265Y-123901319D02*
X164458646Y-123948938D01*
X164458646Y-123948938D02*
X164434836Y-123996557D01*
X164434836Y-123996557D02*
X164411027Y-124091795D01*
X164411027Y-124091795D02*
X164411027Y-124163223D01*
X164411027Y-124163223D02*
X164434836Y-124258461D01*
X164434836Y-124258461D02*
X164458646Y-124306080D01*
X164458646Y-124306080D02*
X164506265Y-124353700D01*
X164506265Y-124353700D02*
X164577693Y-124377509D01*
X164577693Y-124377509D02*
X164625312Y-124377509D01*
X164625312Y-124377509D02*
X164696741Y-124353700D01*
X164696741Y-124353700D02*
X164720550Y-124329890D01*
X164720550Y-124329890D02*
X164720550Y-124163223D01*
X164720550Y-124163223D02*
X164625312Y-124163223D01*
X164887217Y-123877509D02*
X165220550Y-123877509D01*
X165220550Y-123877509D02*
X164887217Y-124377509D01*
X164887217Y-124377509D02*
X165220550Y-124377509D01*
X165387217Y-123925128D02*
X165411026Y-123901319D01*
X165411026Y-123901319D02*
X165458645Y-123877509D01*
X165458645Y-123877509D02*
X165577693Y-123877509D01*
X165577693Y-123877509D02*
X165625312Y-123901319D01*
X165625312Y-123901319D02*
X165649121Y-123925128D01*
X165649121Y-123925128D02*
X165672931Y-123972747D01*
X165672931Y-123972747D02*
X165672931Y-124020366D01*
X165672931Y-124020366D02*
X165649121Y-124091795D01*
X165649121Y-124091795D02*
X165363407Y-124377509D01*
X165363407Y-124377509D02*
X165672931Y-124377509D01*
X165982454Y-123877509D02*
X166030073Y-123877509D01*
X166030073Y-123877509D02*
X166077692Y-123901319D01*
X166077692Y-123901319D02*
X166101502Y-123925128D01*
X166101502Y-123925128D02*
X166125311Y-123972747D01*
X166125311Y-123972747D02*
X166149121Y-124067985D01*
X166149121Y-124067985D02*
X166149121Y-124187033D01*
X166149121Y-124187033D02*
X166125311Y-124282271D01*
X166125311Y-124282271D02*
X166101502Y-124329890D01*
X166101502Y-124329890D02*
X166077692Y-124353700D01*
X166077692Y-124353700D02*
X166030073Y-124377509D01*
X166030073Y-124377509D02*
X165982454Y-124377509D01*
X165982454Y-124377509D02*
X165934835Y-124353700D01*
X165934835Y-124353700D02*
X165911026Y-124329890D01*
X165911026Y-124329890D02*
X165887216Y-124282271D01*
X165887216Y-124282271D02*
X165863407Y-124187033D01*
X165863407Y-124187033D02*
X165863407Y-124067985D01*
X165863407Y-124067985D02*
X165887216Y-123972747D01*
X165887216Y-123972747D02*
X165911026Y-123925128D01*
X165911026Y-123925128D02*
X165934835Y-123901319D01*
X165934835Y-123901319D02*
X165982454Y-123877509D01*
X166625311Y-124377509D02*
X166339597Y-124377509D01*
X166482454Y-124377509D02*
X166482454Y-123877509D01*
X166482454Y-123877509D02*
X166434835Y-123948938D01*
X166434835Y-123948938D02*
X166387216Y-123996557D01*
X166387216Y-123996557D02*
X166339597Y-124020366D01*
X166815787Y-123925128D02*
X166839596Y-123901319D01*
X166839596Y-123901319D02*
X166887215Y-123877509D01*
X166887215Y-123877509D02*
X167006263Y-123877509D01*
X167006263Y-123877509D02*
X167053882Y-123901319D01*
X167053882Y-123901319D02*
X167077691Y-123925128D01*
X167077691Y-123925128D02*
X167101501Y-123972747D01*
X167101501Y-123972747D02*
X167101501Y-124020366D01*
X167101501Y-124020366D02*
X167077691Y-124091795D01*
X167077691Y-124091795D02*
X166791977Y-124377509D01*
X166791977Y-124377509D02*
X167101501Y-124377509D01*
X167315786Y-124377509D02*
X167315786Y-123877509D01*
X167315786Y-123877509D02*
X167434834Y-123877509D01*
X167434834Y-123877509D02*
X167506262Y-123901319D01*
X167506262Y-123901319D02*
X167553881Y-123948938D01*
X167553881Y-123948938D02*
X167577691Y-123996557D01*
X167577691Y-123996557D02*
X167601500Y-124091795D01*
X167601500Y-124091795D02*
X167601500Y-124163223D01*
X167601500Y-124163223D02*
X167577691Y-124258461D01*
X167577691Y-124258461D02*
X167553881Y-124306080D01*
X167553881Y-124306080D02*
X167506262Y-124353700D01*
X167506262Y-124353700D02*
X167434834Y-124377509D01*
X167434834Y-124377509D02*
X167315786Y-124377509D01*
X168030072Y-123877509D02*
X167934834Y-123877509D01*
X167934834Y-123877509D02*
X167887215Y-123901319D01*
X167887215Y-123901319D02*
X167863405Y-123925128D01*
X167863405Y-123925128D02*
X167815786Y-123996557D01*
X167815786Y-123996557D02*
X167791977Y-124091795D01*
X167791977Y-124091795D02*
X167791977Y-124282271D01*
X167791977Y-124282271D02*
X167815786Y-124329890D01*
X167815786Y-124329890D02*
X167839596Y-124353700D01*
X167839596Y-124353700D02*
X167887215Y-124377509D01*
X167887215Y-124377509D02*
X167982453Y-124377509D01*
X167982453Y-124377509D02*
X168030072Y-124353700D01*
X168030072Y-124353700D02*
X168053881Y-124329890D01*
X168053881Y-124329890D02*
X168077691Y-124282271D01*
X168077691Y-124282271D02*
X168077691Y-124163223D01*
X168077691Y-124163223D02*
X168053881Y-124115604D01*
X168053881Y-124115604D02*
X168030072Y-124091795D01*
X168030072Y-124091795D02*
X167982453Y-124067985D01*
X167982453Y-124067985D02*
X167887215Y-124067985D01*
X167887215Y-124067985D02*
X167839596Y-124091795D01*
X167839596Y-124091795D02*
X167815786Y-124115604D01*
X167815786Y-124115604D02*
X167791977Y-124163223D01*
X168387214Y-123877509D02*
X168434833Y-123877509D01*
X168434833Y-123877509D02*
X168482452Y-123901319D01*
X168482452Y-123901319D02*
X168506262Y-123925128D01*
X168506262Y-123925128D02*
X168530071Y-123972747D01*
X168530071Y-123972747D02*
X168553881Y-124067985D01*
X168553881Y-124067985D02*
X168553881Y-124187033D01*
X168553881Y-124187033D02*
X168530071Y-124282271D01*
X168530071Y-124282271D02*
X168506262Y-124329890D01*
X168506262Y-124329890D02*
X168482452Y-124353700D01*
X168482452Y-124353700D02*
X168434833Y-124377509D01*
X168434833Y-124377509D02*
X168387214Y-124377509D01*
X168387214Y-124377509D02*
X168339595Y-124353700D01*
X168339595Y-124353700D02*
X168315786Y-124329890D01*
X168315786Y-124329890D02*
X168291976Y-124282271D01*
X168291976Y-124282271D02*
X168268167Y-124187033D01*
X168268167Y-124187033D02*
X168268167Y-124067985D01*
X168268167Y-124067985D02*
X168291976Y-123972747D01*
X168291976Y-123972747D02*
X168315786Y-123925128D01*
X168315786Y-123925128D02*
X168339595Y-123901319D01*
X168339595Y-123901319D02*
X168387214Y-123877509D01*
X169030071Y-124377509D02*
X168744357Y-124377509D01*
X168887214Y-124377509D02*
X168887214Y-123877509D01*
X168887214Y-123877509D02*
X168839595Y-123948938D01*
X168839595Y-123948938D02*
X168791976Y-123996557D01*
X168791976Y-123996557D02*
X168744357Y-124020366D01*
X169172928Y-123877509D02*
X169458642Y-123877509D01*
X169315785Y-124377509D02*
X169315785Y-123877509D01*
X169791975Y-124115604D02*
X169625308Y-124115604D01*
X169625308Y-124377509D02*
X169625308Y-123877509D01*
X169625308Y-123877509D02*
X169863403Y-123877509D01*
X146401319Y-105303258D02*
X146377509Y-105350877D01*
X146377509Y-105350877D02*
X146377509Y-105422306D01*
X146377509Y-105422306D02*
X146401319Y-105493734D01*
X146401319Y-105493734D02*
X146448938Y-105541353D01*
X146448938Y-105541353D02*
X146496557Y-105565163D01*
X146496557Y-105565163D02*
X146591795Y-105588972D01*
X146591795Y-105588972D02*
X146663223Y-105588972D01*
X146663223Y-105588972D02*
X146758461Y-105565163D01*
X146758461Y-105565163D02*
X146806080Y-105541353D01*
X146806080Y-105541353D02*
X146853700Y-105493734D01*
X146853700Y-105493734D02*
X146877509Y-105422306D01*
X146877509Y-105422306D02*
X146877509Y-105374687D01*
X146877509Y-105374687D02*
X146853700Y-105303258D01*
X146853700Y-105303258D02*
X146829890Y-105279449D01*
X146829890Y-105279449D02*
X146663223Y-105279449D01*
X146663223Y-105279449D02*
X146663223Y-105374687D01*
X146377509Y-105112782D02*
X146377509Y-104779449D01*
X146377509Y-104779449D02*
X146877509Y-105112782D01*
X146877509Y-105112782D02*
X146877509Y-104779449D01*
X146425128Y-104612782D02*
X146401319Y-104588973D01*
X146401319Y-104588973D02*
X146377509Y-104541354D01*
X146377509Y-104541354D02*
X146377509Y-104422306D01*
X146377509Y-104422306D02*
X146401319Y-104374687D01*
X146401319Y-104374687D02*
X146425128Y-104350878D01*
X146425128Y-104350878D02*
X146472747Y-104327068D01*
X146472747Y-104327068D02*
X146520366Y-104327068D01*
X146520366Y-104327068D02*
X146591795Y-104350878D01*
X146591795Y-104350878D02*
X146877509Y-104636592D01*
X146877509Y-104636592D02*
X146877509Y-104327068D01*
X146377509Y-104017545D02*
X146377509Y-103969926D01*
X146377509Y-103969926D02*
X146401319Y-103922307D01*
X146401319Y-103922307D02*
X146425128Y-103898497D01*
X146425128Y-103898497D02*
X146472747Y-103874688D01*
X146472747Y-103874688D02*
X146567985Y-103850878D01*
X146567985Y-103850878D02*
X146687033Y-103850878D01*
X146687033Y-103850878D02*
X146782271Y-103874688D01*
X146782271Y-103874688D02*
X146829890Y-103898497D01*
X146829890Y-103898497D02*
X146853700Y-103922307D01*
X146853700Y-103922307D02*
X146877509Y-103969926D01*
X146877509Y-103969926D02*
X146877509Y-104017545D01*
X146877509Y-104017545D02*
X146853700Y-104065164D01*
X146853700Y-104065164D02*
X146829890Y-104088973D01*
X146829890Y-104088973D02*
X146782271Y-104112783D01*
X146782271Y-104112783D02*
X146687033Y-104136592D01*
X146687033Y-104136592D02*
X146567985Y-104136592D01*
X146567985Y-104136592D02*
X146472747Y-104112783D01*
X146472747Y-104112783D02*
X146425128Y-104088973D01*
X146425128Y-104088973D02*
X146401319Y-104065164D01*
X146401319Y-104065164D02*
X146377509Y-104017545D01*
X146877509Y-103374688D02*
X146877509Y-103660402D01*
X146877509Y-103517545D02*
X146377509Y-103517545D01*
X146377509Y-103517545D02*
X146448938Y-103565164D01*
X146448938Y-103565164D02*
X146496557Y-103612783D01*
X146496557Y-103612783D02*
X146520366Y-103660402D01*
X146425128Y-103184212D02*
X146401319Y-103160403D01*
X146401319Y-103160403D02*
X146377509Y-103112784D01*
X146377509Y-103112784D02*
X146377509Y-102993736D01*
X146377509Y-102993736D02*
X146401319Y-102946117D01*
X146401319Y-102946117D02*
X146425128Y-102922308D01*
X146425128Y-102922308D02*
X146472747Y-102898498D01*
X146472747Y-102898498D02*
X146520366Y-102898498D01*
X146520366Y-102898498D02*
X146591795Y-102922308D01*
X146591795Y-102922308D02*
X146877509Y-103208022D01*
X146877509Y-103208022D02*
X146877509Y-102898498D01*
X146877509Y-102684213D02*
X146377509Y-102684213D01*
X146377509Y-102684213D02*
X146377509Y-102565165D01*
X146377509Y-102565165D02*
X146401319Y-102493737D01*
X146401319Y-102493737D02*
X146448938Y-102446118D01*
X146448938Y-102446118D02*
X146496557Y-102422308D01*
X146496557Y-102422308D02*
X146591795Y-102398499D01*
X146591795Y-102398499D02*
X146663223Y-102398499D01*
X146663223Y-102398499D02*
X146758461Y-102422308D01*
X146758461Y-102422308D02*
X146806080Y-102446118D01*
X146806080Y-102446118D02*
X146853700Y-102493737D01*
X146853700Y-102493737D02*
X146877509Y-102565165D01*
X146877509Y-102565165D02*
X146877509Y-102684213D01*
X146877509Y-101922308D02*
X146877509Y-102208022D01*
X146877509Y-102065165D02*
X146377509Y-102065165D01*
X146377509Y-102065165D02*
X146448938Y-102112784D01*
X146448938Y-102112784D02*
X146496557Y-102160403D01*
X146496557Y-102160403D02*
X146520366Y-102208022D01*
X146377509Y-101612785D02*
X146377509Y-101565166D01*
X146377509Y-101565166D02*
X146401319Y-101517547D01*
X146401319Y-101517547D02*
X146425128Y-101493737D01*
X146425128Y-101493737D02*
X146472747Y-101469928D01*
X146472747Y-101469928D02*
X146567985Y-101446118D01*
X146567985Y-101446118D02*
X146687033Y-101446118D01*
X146687033Y-101446118D02*
X146782271Y-101469928D01*
X146782271Y-101469928D02*
X146829890Y-101493737D01*
X146829890Y-101493737D02*
X146853700Y-101517547D01*
X146853700Y-101517547D02*
X146877509Y-101565166D01*
X146877509Y-101565166D02*
X146877509Y-101612785D01*
X146877509Y-101612785D02*
X146853700Y-101660404D01*
X146853700Y-101660404D02*
X146829890Y-101684213D01*
X146829890Y-101684213D02*
X146782271Y-101708023D01*
X146782271Y-101708023D02*
X146687033Y-101731832D01*
X146687033Y-101731832D02*
X146567985Y-101731832D01*
X146567985Y-101731832D02*
X146472747Y-101708023D01*
X146472747Y-101708023D02*
X146425128Y-101684213D01*
X146425128Y-101684213D02*
X146401319Y-101660404D01*
X146401319Y-101660404D02*
X146377509Y-101612785D01*
X146877509Y-100969928D02*
X146877509Y-101255642D01*
X146877509Y-101112785D02*
X146377509Y-101112785D01*
X146377509Y-101112785D02*
X146448938Y-101160404D01*
X146448938Y-101160404D02*
X146496557Y-101208023D01*
X146496557Y-101208023D02*
X146520366Y-101255642D01*
X146377509Y-100827071D02*
X146377509Y-100541357D01*
X146877509Y-100684214D02*
X146377509Y-100684214D01*
X146615604Y-100208024D02*
X146615604Y-100374691D01*
X146877509Y-100374691D02*
X146377509Y-100374691D01*
X146377509Y-100374691D02*
X146377509Y-100136596D01*
D11*
X142409214Y-95550857D02*
X142423500Y-95536571D01*
X142423500Y-95536571D02*
X142452072Y-95522285D01*
X142452072Y-95522285D02*
X142523500Y-95522285D01*
X142523500Y-95522285D02*
X142552072Y-95536571D01*
X142552072Y-95536571D02*
X142566357Y-95550857D01*
X142566357Y-95550857D02*
X142580643Y-95579428D01*
X142580643Y-95579428D02*
X142580643Y-95608000D01*
X142580643Y-95608000D02*
X142566357Y-95650857D01*
X142566357Y-95650857D02*
X142394929Y-95822285D01*
X142394929Y-95822285D02*
X142580643Y-95822285D01*
X142680643Y-95522285D02*
X142880643Y-95522285D01*
X142880643Y-95522285D02*
X142752071Y-95822285D01*
X143209213Y-95822285D02*
X143280642Y-95822285D01*
X143280642Y-95822285D02*
X143280642Y-95765142D01*
X143280642Y-95765142D02*
X143252071Y-95750857D01*
X143252071Y-95750857D02*
X143223499Y-95722285D01*
X143223499Y-95722285D02*
X143209213Y-95679428D01*
X143209213Y-95679428D02*
X143209213Y-95608000D01*
X143209213Y-95608000D02*
X143223499Y-95565142D01*
X143223499Y-95565142D02*
X143252071Y-95536571D01*
X143252071Y-95536571D02*
X143294928Y-95522285D01*
X143294928Y-95522285D02*
X143352071Y-95522285D01*
X143352071Y-95522285D02*
X143394928Y-95536571D01*
X143394928Y-95536571D02*
X143423499Y-95565142D01*
X143423499Y-95565142D02*
X143437785Y-95608000D01*
X143437785Y-95608000D02*
X143437785Y-95679428D01*
X143437785Y-95679428D02*
X143423499Y-95722285D01*
X143423499Y-95722285D02*
X143394928Y-95750857D01*
X143394928Y-95750857D02*
X143366356Y-95765142D01*
X143366356Y-95765142D02*
X143366356Y-95822285D01*
X143366356Y-95822285D02*
X143437785Y-95822285D01*
X134234885Y-120864285D02*
X134234885Y-121035714D01*
X134234885Y-120949999D02*
X133934885Y-120949999D01*
X133934885Y-120949999D02*
X133977742Y-120978571D01*
X133977742Y-120978571D02*
X134006314Y-121007142D01*
X134006314Y-121007142D02*
X134020600Y-121035714D01*
X134034885Y-120507143D02*
X134334885Y-120507143D01*
X134192028Y-120364286D02*
X134220600Y-120350000D01*
X134220600Y-120350000D02*
X134234885Y-120321429D01*
X134192028Y-120507143D02*
X134220600Y-120492857D01*
X134220600Y-120492857D02*
X134234885Y-120464286D01*
X134234885Y-120464286D02*
X134234885Y-120407143D01*
X134234885Y-120407143D02*
X134220600Y-120378572D01*
X134220600Y-120378572D02*
X134192028Y-120364286D01*
X134192028Y-120364286D02*
X134034885Y-120364286D01*
X134077742Y-120092857D02*
X134077742Y-120192857D01*
X134234885Y-120192857D02*
X133934885Y-120192857D01*
X133934885Y-120192857D02*
X133934885Y-120050000D01*
X146571429Y-98834885D02*
X146757143Y-98834885D01*
X146757143Y-98834885D02*
X146657143Y-98949171D01*
X146657143Y-98949171D02*
X146700000Y-98949171D01*
X146700000Y-98949171D02*
X146728572Y-98963457D01*
X146728572Y-98963457D02*
X146742857Y-98977742D01*
X146742857Y-98977742D02*
X146757143Y-99006314D01*
X146757143Y-99006314D02*
X146757143Y-99077742D01*
X146757143Y-99077742D02*
X146742857Y-99106314D01*
X146742857Y-99106314D02*
X146728572Y-99120600D01*
X146728572Y-99120600D02*
X146700000Y-99134885D01*
X146700000Y-99134885D02*
X146614286Y-99134885D01*
X146614286Y-99134885D02*
X146585714Y-99120600D01*
X146585714Y-99120600D02*
X146571429Y-99106314D01*
X146857143Y-98834885D02*
X147042857Y-98834885D01*
X147042857Y-98834885D02*
X146942857Y-98949171D01*
X146942857Y-98949171D02*
X146985714Y-98949171D01*
X146985714Y-98949171D02*
X147014286Y-98963457D01*
X147014286Y-98963457D02*
X147028571Y-98977742D01*
X147028571Y-98977742D02*
X147042857Y-99006314D01*
X147042857Y-99006314D02*
X147042857Y-99077742D01*
X147042857Y-99077742D02*
X147028571Y-99106314D01*
X147028571Y-99106314D02*
X147014286Y-99120600D01*
X147014286Y-99120600D02*
X146985714Y-99134885D01*
X146985714Y-99134885D02*
X146900000Y-99134885D01*
X146900000Y-99134885D02*
X146871428Y-99120600D01*
X146871428Y-99120600D02*
X146857143Y-99106314D01*
X147385713Y-99134885D02*
X147457142Y-99134885D01*
X147457142Y-99134885D02*
X147457142Y-99077742D01*
X147457142Y-99077742D02*
X147428571Y-99063457D01*
X147428571Y-99063457D02*
X147399999Y-99034885D01*
X147399999Y-99034885D02*
X147385713Y-98992028D01*
X147385713Y-98992028D02*
X147385713Y-98920600D01*
X147385713Y-98920600D02*
X147399999Y-98877742D01*
X147399999Y-98877742D02*
X147428571Y-98849171D01*
X147428571Y-98849171D02*
X147471428Y-98834885D01*
X147471428Y-98834885D02*
X147528571Y-98834885D01*
X147528571Y-98834885D02*
X147571428Y-98849171D01*
X147571428Y-98849171D02*
X147599999Y-98877742D01*
X147599999Y-98877742D02*
X147614285Y-98920600D01*
X147614285Y-98920600D02*
X147614285Y-98992028D01*
X147614285Y-98992028D02*
X147599999Y-99034885D01*
X147599999Y-99034885D02*
X147571428Y-99063457D01*
X147571428Y-99063457D02*
X147542856Y-99077742D01*
X147542856Y-99077742D02*
X147542856Y-99134885D01*
X147542856Y-99134885D02*
X147614285Y-99134885D01*
X165492857Y-85134885D02*
X165321428Y-85134885D01*
X165407143Y-85134885D02*
X165407143Y-84834885D01*
X165407143Y-84834885D02*
X165378571Y-84877742D01*
X165378571Y-84877742D02*
X165350000Y-84906314D01*
X165350000Y-84906314D02*
X165321428Y-84920600D01*
X165678571Y-84834885D02*
X165707142Y-84834885D01*
X165707142Y-84834885D02*
X165735714Y-84849171D01*
X165735714Y-84849171D02*
X165750000Y-84863457D01*
X165750000Y-84863457D02*
X165764285Y-84892028D01*
X165764285Y-84892028D02*
X165778571Y-84949171D01*
X165778571Y-84949171D02*
X165778571Y-85020600D01*
X165778571Y-85020600D02*
X165764285Y-85077742D01*
X165764285Y-85077742D02*
X165750000Y-85106314D01*
X165750000Y-85106314D02*
X165735714Y-85120600D01*
X165735714Y-85120600D02*
X165707142Y-85134885D01*
X165707142Y-85134885D02*
X165678571Y-85134885D01*
X165678571Y-85134885D02*
X165650000Y-85120600D01*
X165650000Y-85120600D02*
X165635714Y-85106314D01*
X165635714Y-85106314D02*
X165621428Y-85077742D01*
X165621428Y-85077742D02*
X165607142Y-85020600D01*
X165607142Y-85020600D02*
X165607142Y-84949171D01*
X165607142Y-84949171D02*
X165621428Y-84892028D01*
X165621428Y-84892028D02*
X165635714Y-84863457D01*
X165635714Y-84863457D02*
X165650000Y-84849171D01*
X165650000Y-84849171D02*
X165678571Y-84834885D01*
X166135713Y-84934885D02*
X166135713Y-85234885D01*
X166278570Y-85092028D02*
X166292856Y-85120600D01*
X166292856Y-85120600D02*
X166321427Y-85134885D01*
X166135713Y-85092028D02*
X166149999Y-85120600D01*
X166149999Y-85120600D02*
X166178570Y-85134885D01*
X166178570Y-85134885D02*
X166235713Y-85134885D01*
X166235713Y-85134885D02*
X166264285Y-85120600D01*
X166264285Y-85120600D02*
X166278570Y-85092028D01*
X166278570Y-85092028D02*
X166278570Y-84934885D01*
X166549999Y-84977742D02*
X166449999Y-84977742D01*
X166449999Y-85134885D02*
X166449999Y-84834885D01*
X166449999Y-84834885D02*
X166592856Y-84834885D01*
X132357972Y-102687785D02*
X132186543Y-102687785D01*
X132272258Y-102687785D02*
X132272258Y-102387785D01*
X132272258Y-102387785D02*
X132243686Y-102430642D01*
X132243686Y-102430642D02*
X132215115Y-102459214D01*
X132215115Y-102459214D02*
X132186543Y-102473500D01*
X132715114Y-102687785D02*
X132715114Y-102387785D01*
X132743686Y-102573500D02*
X132829400Y-102687785D01*
X132829400Y-102487785D02*
X132715114Y-102602071D01*
X132943685Y-102687785D02*
X133015114Y-102687785D01*
X133015114Y-102687785D02*
X133015114Y-102630642D01*
X133015114Y-102630642D02*
X132986543Y-102616357D01*
X132986543Y-102616357D02*
X132957971Y-102587785D01*
X132957971Y-102587785D02*
X132943685Y-102544928D01*
X132943685Y-102544928D02*
X132943685Y-102473500D01*
X132943685Y-102473500D02*
X132957971Y-102430642D01*
X132957971Y-102430642D02*
X132986543Y-102402071D01*
X132986543Y-102402071D02*
X133029400Y-102387785D01*
X133029400Y-102387785D02*
X133086543Y-102387785D01*
X133086543Y-102387785D02*
X133129400Y-102402071D01*
X133129400Y-102402071D02*
X133157971Y-102430642D01*
X133157971Y-102430642D02*
X133172257Y-102473500D01*
X133172257Y-102473500D02*
X133172257Y-102544928D01*
X133172257Y-102544928D02*
X133157971Y-102587785D01*
X133157971Y-102587785D02*
X133129400Y-102616357D01*
X133129400Y-102616357D02*
X133100828Y-102630642D01*
X133100828Y-102630642D02*
X133100828Y-102687785D01*
X133100828Y-102687785D02*
X133172257Y-102687785D01*
X146432072Y-116617185D02*
X146260643Y-116617185D01*
X146346358Y-116617185D02*
X146346358Y-116317185D01*
X146346358Y-116317185D02*
X146317786Y-116360042D01*
X146317786Y-116360042D02*
X146289215Y-116388614D01*
X146289215Y-116388614D02*
X146260643Y-116402900D01*
X146789214Y-116617185D02*
X146789214Y-116317185D01*
X146817786Y-116502900D02*
X146903500Y-116617185D01*
X146903500Y-116417185D02*
X146789214Y-116531471D01*
X147017785Y-116617185D02*
X147089214Y-116617185D01*
X147089214Y-116617185D02*
X147089214Y-116560042D01*
X147089214Y-116560042D02*
X147060643Y-116545757D01*
X147060643Y-116545757D02*
X147032071Y-116517185D01*
X147032071Y-116517185D02*
X147017785Y-116474328D01*
X147017785Y-116474328D02*
X147017785Y-116402900D01*
X147017785Y-116402900D02*
X147032071Y-116360042D01*
X147032071Y-116360042D02*
X147060643Y-116331471D01*
X147060643Y-116331471D02*
X147103500Y-116317185D01*
X147103500Y-116317185D02*
X147160643Y-116317185D01*
X147160643Y-116317185D02*
X147203500Y-116331471D01*
X147203500Y-116331471D02*
X147232071Y-116360042D01*
X147232071Y-116360042D02*
X147246357Y-116402900D01*
X147246357Y-116402900D02*
X147246357Y-116474328D01*
X147246357Y-116474328D02*
X147232071Y-116517185D01*
X147232071Y-116517185D02*
X147203500Y-116545757D01*
X147203500Y-116545757D02*
X147174928Y-116560042D01*
X147174928Y-116560042D02*
X147174928Y-116617185D01*
X147174928Y-116617185D02*
X147246357Y-116617185D01*
X125253572Y-119334885D02*
X125439286Y-119334885D01*
X125439286Y-119334885D02*
X125339286Y-119449171D01*
X125339286Y-119449171D02*
X125382143Y-119449171D01*
X125382143Y-119449171D02*
X125410715Y-119463457D01*
X125410715Y-119463457D02*
X125425000Y-119477742D01*
X125425000Y-119477742D02*
X125439286Y-119506314D01*
X125439286Y-119506314D02*
X125439286Y-119577742D01*
X125439286Y-119577742D02*
X125425000Y-119606314D01*
X125425000Y-119606314D02*
X125410715Y-119620600D01*
X125410715Y-119620600D02*
X125382143Y-119634885D01*
X125382143Y-119634885D02*
X125296429Y-119634885D01*
X125296429Y-119634885D02*
X125267857Y-119620600D01*
X125267857Y-119620600D02*
X125253572Y-119606314D01*
X125567857Y-119606314D02*
X125582143Y-119620600D01*
X125582143Y-119620600D02*
X125567857Y-119634885D01*
X125567857Y-119634885D02*
X125553571Y-119620600D01*
X125553571Y-119620600D02*
X125567857Y-119606314D01*
X125567857Y-119606314D02*
X125567857Y-119634885D01*
X125682143Y-119334885D02*
X125867857Y-119334885D01*
X125867857Y-119334885D02*
X125767857Y-119449171D01*
X125767857Y-119449171D02*
X125810714Y-119449171D01*
X125810714Y-119449171D02*
X125839286Y-119463457D01*
X125839286Y-119463457D02*
X125853571Y-119477742D01*
X125853571Y-119477742D02*
X125867857Y-119506314D01*
X125867857Y-119506314D02*
X125867857Y-119577742D01*
X125867857Y-119577742D02*
X125853571Y-119606314D01*
X125853571Y-119606314D02*
X125839286Y-119620600D01*
X125839286Y-119620600D02*
X125810714Y-119634885D01*
X125810714Y-119634885D02*
X125725000Y-119634885D01*
X125725000Y-119634885D02*
X125696428Y-119620600D01*
X125696428Y-119620600D02*
X125682143Y-119606314D01*
X126224999Y-119634885D02*
X126224999Y-119334885D01*
X126253571Y-119520600D02*
X126339285Y-119634885D01*
X126339285Y-119434885D02*
X126224999Y-119549171D01*
X126453570Y-119634885D02*
X126524999Y-119634885D01*
X126524999Y-119634885D02*
X126524999Y-119577742D01*
X126524999Y-119577742D02*
X126496428Y-119563457D01*
X126496428Y-119563457D02*
X126467856Y-119534885D01*
X126467856Y-119534885D02*
X126453570Y-119492028D01*
X126453570Y-119492028D02*
X126453570Y-119420600D01*
X126453570Y-119420600D02*
X126467856Y-119377742D01*
X126467856Y-119377742D02*
X126496428Y-119349171D01*
X126496428Y-119349171D02*
X126539285Y-119334885D01*
X126539285Y-119334885D02*
X126596428Y-119334885D01*
X126596428Y-119334885D02*
X126639285Y-119349171D01*
X126639285Y-119349171D02*
X126667856Y-119377742D01*
X126667856Y-119377742D02*
X126682142Y-119420600D01*
X126682142Y-119420600D02*
X126682142Y-119492028D01*
X126682142Y-119492028D02*
X126667856Y-119534885D01*
X126667856Y-119534885D02*
X126639285Y-119563457D01*
X126639285Y-119563457D02*
X126610713Y-119577742D01*
X126610713Y-119577742D02*
X126610713Y-119634885D01*
X126610713Y-119634885D02*
X126682142Y-119634885D01*
D10*
X119196741Y-99901319D02*
X119149122Y-99877509D01*
X119149122Y-99877509D02*
X119077693Y-99877509D01*
X119077693Y-99877509D02*
X119006265Y-99901319D01*
X119006265Y-99901319D02*
X118958646Y-99948938D01*
X118958646Y-99948938D02*
X118934836Y-99996557D01*
X118934836Y-99996557D02*
X118911027Y-100091795D01*
X118911027Y-100091795D02*
X118911027Y-100163223D01*
X118911027Y-100163223D02*
X118934836Y-100258461D01*
X118934836Y-100258461D02*
X118958646Y-100306080D01*
X118958646Y-100306080D02*
X119006265Y-100353700D01*
X119006265Y-100353700D02*
X119077693Y-100377509D01*
X119077693Y-100377509D02*
X119125312Y-100377509D01*
X119125312Y-100377509D02*
X119196741Y-100353700D01*
X119196741Y-100353700D02*
X119220550Y-100329890D01*
X119220550Y-100329890D02*
X119220550Y-100163223D01*
X119220550Y-100163223D02*
X119125312Y-100163223D01*
X119387217Y-99877509D02*
X119720550Y-99877509D01*
X119720550Y-99877509D02*
X119387217Y-100377509D01*
X119387217Y-100377509D02*
X119720550Y-100377509D01*
X119887217Y-99925128D02*
X119911026Y-99901319D01*
X119911026Y-99901319D02*
X119958645Y-99877509D01*
X119958645Y-99877509D02*
X120077693Y-99877509D01*
X120077693Y-99877509D02*
X120125312Y-99901319D01*
X120125312Y-99901319D02*
X120149121Y-99925128D01*
X120149121Y-99925128D02*
X120172931Y-99972747D01*
X120172931Y-99972747D02*
X120172931Y-100020366D01*
X120172931Y-100020366D02*
X120149121Y-100091795D01*
X120149121Y-100091795D02*
X119863407Y-100377509D01*
X119863407Y-100377509D02*
X120172931Y-100377509D01*
X120482454Y-99877509D02*
X120530073Y-99877509D01*
X120530073Y-99877509D02*
X120577692Y-99901319D01*
X120577692Y-99901319D02*
X120601502Y-99925128D01*
X120601502Y-99925128D02*
X120625311Y-99972747D01*
X120625311Y-99972747D02*
X120649121Y-100067985D01*
X120649121Y-100067985D02*
X120649121Y-100187033D01*
X120649121Y-100187033D02*
X120625311Y-100282271D01*
X120625311Y-100282271D02*
X120601502Y-100329890D01*
X120601502Y-100329890D02*
X120577692Y-100353700D01*
X120577692Y-100353700D02*
X120530073Y-100377509D01*
X120530073Y-100377509D02*
X120482454Y-100377509D01*
X120482454Y-100377509D02*
X120434835Y-100353700D01*
X120434835Y-100353700D02*
X120411026Y-100329890D01*
X120411026Y-100329890D02*
X120387216Y-100282271D01*
X120387216Y-100282271D02*
X120363407Y-100187033D01*
X120363407Y-100187033D02*
X120363407Y-100067985D01*
X120363407Y-100067985D02*
X120387216Y-99972747D01*
X120387216Y-99972747D02*
X120411026Y-99925128D01*
X120411026Y-99925128D02*
X120434835Y-99901319D01*
X120434835Y-99901319D02*
X120482454Y-99877509D01*
X121125311Y-100377509D02*
X120839597Y-100377509D01*
X120982454Y-100377509D02*
X120982454Y-99877509D01*
X120982454Y-99877509D02*
X120934835Y-99948938D01*
X120934835Y-99948938D02*
X120887216Y-99996557D01*
X120887216Y-99996557D02*
X120839597Y-100020366D01*
X121315787Y-99925128D02*
X121339596Y-99901319D01*
X121339596Y-99901319D02*
X121387215Y-99877509D01*
X121387215Y-99877509D02*
X121506263Y-99877509D01*
X121506263Y-99877509D02*
X121553882Y-99901319D01*
X121553882Y-99901319D02*
X121577691Y-99925128D01*
X121577691Y-99925128D02*
X121601501Y-99972747D01*
X121601501Y-99972747D02*
X121601501Y-100020366D01*
X121601501Y-100020366D02*
X121577691Y-100091795D01*
X121577691Y-100091795D02*
X121291977Y-100377509D01*
X121291977Y-100377509D02*
X121601501Y-100377509D01*
X121815786Y-100377509D02*
X121815786Y-99877509D01*
X121815786Y-99877509D02*
X121934834Y-99877509D01*
X121934834Y-99877509D02*
X122006262Y-99901319D01*
X122006262Y-99901319D02*
X122053881Y-99948938D01*
X122053881Y-99948938D02*
X122077691Y-99996557D01*
X122077691Y-99996557D02*
X122101500Y-100091795D01*
X122101500Y-100091795D02*
X122101500Y-100163223D01*
X122101500Y-100163223D02*
X122077691Y-100258461D01*
X122077691Y-100258461D02*
X122053881Y-100306080D01*
X122053881Y-100306080D02*
X122006262Y-100353700D01*
X122006262Y-100353700D02*
X121934834Y-100377509D01*
X121934834Y-100377509D02*
X121815786Y-100377509D01*
X122530072Y-99877509D02*
X122434834Y-99877509D01*
X122434834Y-99877509D02*
X122387215Y-99901319D01*
X122387215Y-99901319D02*
X122363405Y-99925128D01*
X122363405Y-99925128D02*
X122315786Y-99996557D01*
X122315786Y-99996557D02*
X122291977Y-100091795D01*
X122291977Y-100091795D02*
X122291977Y-100282271D01*
X122291977Y-100282271D02*
X122315786Y-100329890D01*
X122315786Y-100329890D02*
X122339596Y-100353700D01*
X122339596Y-100353700D02*
X122387215Y-100377509D01*
X122387215Y-100377509D02*
X122482453Y-100377509D01*
X122482453Y-100377509D02*
X122530072Y-100353700D01*
X122530072Y-100353700D02*
X122553881Y-100329890D01*
X122553881Y-100329890D02*
X122577691Y-100282271D01*
X122577691Y-100282271D02*
X122577691Y-100163223D01*
X122577691Y-100163223D02*
X122553881Y-100115604D01*
X122553881Y-100115604D02*
X122530072Y-100091795D01*
X122530072Y-100091795D02*
X122482453Y-100067985D01*
X122482453Y-100067985D02*
X122387215Y-100067985D01*
X122387215Y-100067985D02*
X122339596Y-100091795D01*
X122339596Y-100091795D02*
X122315786Y-100115604D01*
X122315786Y-100115604D02*
X122291977Y-100163223D01*
X122887214Y-99877509D02*
X122934833Y-99877509D01*
X122934833Y-99877509D02*
X122982452Y-99901319D01*
X122982452Y-99901319D02*
X123006262Y-99925128D01*
X123006262Y-99925128D02*
X123030071Y-99972747D01*
X123030071Y-99972747D02*
X123053881Y-100067985D01*
X123053881Y-100067985D02*
X123053881Y-100187033D01*
X123053881Y-100187033D02*
X123030071Y-100282271D01*
X123030071Y-100282271D02*
X123006262Y-100329890D01*
X123006262Y-100329890D02*
X122982452Y-100353700D01*
X122982452Y-100353700D02*
X122934833Y-100377509D01*
X122934833Y-100377509D02*
X122887214Y-100377509D01*
X122887214Y-100377509D02*
X122839595Y-100353700D01*
X122839595Y-100353700D02*
X122815786Y-100329890D01*
X122815786Y-100329890D02*
X122791976Y-100282271D01*
X122791976Y-100282271D02*
X122768167Y-100187033D01*
X122768167Y-100187033D02*
X122768167Y-100067985D01*
X122768167Y-100067985D02*
X122791976Y-99972747D01*
X122791976Y-99972747D02*
X122815786Y-99925128D01*
X122815786Y-99925128D02*
X122839595Y-99901319D01*
X122839595Y-99901319D02*
X122887214Y-99877509D01*
X123530071Y-100377509D02*
X123244357Y-100377509D01*
X123387214Y-100377509D02*
X123387214Y-99877509D01*
X123387214Y-99877509D02*
X123339595Y-99948938D01*
X123339595Y-99948938D02*
X123291976Y-99996557D01*
X123291976Y-99996557D02*
X123244357Y-100020366D01*
X123672928Y-99877509D02*
X123958642Y-99877509D01*
X123815785Y-100377509D02*
X123815785Y-99877509D01*
X124291975Y-100115604D02*
X124125308Y-100115604D01*
X124125308Y-100377509D02*
X124125308Y-99877509D01*
X124125308Y-99877509D02*
X124363403Y-99877509D01*
X141500942Y-105314288D02*
X141500942Y-105028574D01*
X141672371Y-105371431D02*
X141072371Y-105171431D01*
X141072371Y-105171431D02*
X141672371Y-104971431D01*
X141072371Y-104657145D02*
X141072371Y-104542859D01*
X141072371Y-104542859D02*
X141100942Y-104485716D01*
X141100942Y-104485716D02*
X141158085Y-104428573D01*
X141158085Y-104428573D02*
X141272371Y-104400002D01*
X141272371Y-104400002D02*
X141472371Y-104400002D01*
X141472371Y-104400002D02*
X141586657Y-104428573D01*
X141586657Y-104428573D02*
X141643800Y-104485716D01*
X141643800Y-104485716D02*
X141672371Y-104542859D01*
X141672371Y-104542859D02*
X141672371Y-104657145D01*
X141672371Y-104657145D02*
X141643800Y-104714288D01*
X141643800Y-104714288D02*
X141586657Y-104771430D01*
X141586657Y-104771430D02*
X141472371Y-104800002D01*
X141472371Y-104800002D02*
X141272371Y-104800002D01*
X141272371Y-104800002D02*
X141158085Y-104771430D01*
X141158085Y-104771430D02*
X141100942Y-104714288D01*
X141100942Y-104714288D02*
X141072371Y-104657145D01*
X141072371Y-104228574D02*
X141072371Y-103885717D01*
X141672371Y-104057145D02*
X141072371Y-104057145D01*
X141500942Y-103714288D02*
X141500942Y-103428574D01*
X141672371Y-103771431D02*
X141072371Y-103571431D01*
X141072371Y-103571431D02*
X141672371Y-103371431D01*
X141443800Y-103171430D02*
X141443800Y-102714288D01*
X141358085Y-102228573D02*
X141386657Y-102142859D01*
X141386657Y-102142859D02*
X141415228Y-102114288D01*
X141415228Y-102114288D02*
X141472371Y-102085716D01*
X141472371Y-102085716D02*
X141558085Y-102085716D01*
X141558085Y-102085716D02*
X141615228Y-102114288D01*
X141615228Y-102114288D02*
X141643800Y-102142859D01*
X141643800Y-102142859D02*
X141672371Y-102200002D01*
X141672371Y-102200002D02*
X141672371Y-102428573D01*
X141672371Y-102428573D02*
X141072371Y-102428573D01*
X141072371Y-102428573D02*
X141072371Y-102228573D01*
X141072371Y-102228573D02*
X141100942Y-102171431D01*
X141100942Y-102171431D02*
X141129514Y-102142859D01*
X141129514Y-102142859D02*
X141186657Y-102114288D01*
X141186657Y-102114288D02*
X141243800Y-102114288D01*
X141243800Y-102114288D02*
X141300942Y-102142859D01*
X141300942Y-102142859D02*
X141329514Y-102171431D01*
X141329514Y-102171431D02*
X141358085Y-102228573D01*
X141358085Y-102228573D02*
X141358085Y-102428573D01*
X141129514Y-101857145D02*
X141100942Y-101828573D01*
X141100942Y-101828573D02*
X141072371Y-101771431D01*
X141072371Y-101771431D02*
X141072371Y-101628573D01*
X141072371Y-101628573D02*
X141100942Y-101571431D01*
X141100942Y-101571431D02*
X141129514Y-101542859D01*
X141129514Y-101542859D02*
X141186657Y-101514288D01*
X141186657Y-101514288D02*
X141243800Y-101514288D01*
X141243800Y-101514288D02*
X141329514Y-101542859D01*
X141329514Y-101542859D02*
X141672371Y-101885716D01*
X141672371Y-101885716D02*
X141672371Y-101514288D01*
X141072371Y-101142859D02*
X141072371Y-101085716D01*
X141072371Y-101085716D02*
X141100942Y-101028573D01*
X141100942Y-101028573D02*
X141129514Y-101000002D01*
X141129514Y-101000002D02*
X141186657Y-100971430D01*
X141186657Y-100971430D02*
X141300942Y-100942859D01*
X141300942Y-100942859D02*
X141443800Y-100942859D01*
X141443800Y-100942859D02*
X141558085Y-100971430D01*
X141558085Y-100971430D02*
X141615228Y-101000002D01*
X141615228Y-101000002D02*
X141643800Y-101028573D01*
X141643800Y-101028573D02*
X141672371Y-101085716D01*
X141672371Y-101085716D02*
X141672371Y-101142859D01*
X141672371Y-101142859D02*
X141643800Y-101200002D01*
X141643800Y-101200002D02*
X141615228Y-101228573D01*
X141615228Y-101228573D02*
X141558085Y-101257144D01*
X141558085Y-101257144D02*
X141443800Y-101285716D01*
X141443800Y-101285716D02*
X141300942Y-101285716D01*
X141300942Y-101285716D02*
X141186657Y-101257144D01*
X141186657Y-101257144D02*
X141129514Y-101228573D01*
X141129514Y-101228573D02*
X141100942Y-101200002D01*
X141100942Y-101200002D02*
X141072371Y-101142859D01*
X141672371Y-100371430D02*
X141672371Y-100714287D01*
X141672371Y-100542858D02*
X141072371Y-100542858D01*
X141072371Y-100542858D02*
X141158085Y-100600001D01*
X141158085Y-100600001D02*
X141215228Y-100657144D01*
X141215228Y-100657144D02*
X141243800Y-100714287D01*
X141072371Y-99857144D02*
X141072371Y-99971429D01*
X141072371Y-99971429D02*
X141100942Y-100028572D01*
X141100942Y-100028572D02*
X141129514Y-100057144D01*
X141129514Y-100057144D02*
X141215228Y-100114286D01*
X141215228Y-100114286D02*
X141329514Y-100142858D01*
X141329514Y-100142858D02*
X141558085Y-100142858D01*
X141558085Y-100142858D02*
X141615228Y-100114286D01*
X141615228Y-100114286D02*
X141643800Y-100085715D01*
X141643800Y-100085715D02*
X141672371Y-100028572D01*
X141672371Y-100028572D02*
X141672371Y-99914286D01*
X141672371Y-99914286D02*
X141643800Y-99857144D01*
X141643800Y-99857144D02*
X141615228Y-99828572D01*
X141615228Y-99828572D02*
X141558085Y-99800001D01*
X141558085Y-99800001D02*
X141415228Y-99800001D01*
X141415228Y-99800001D02*
X141358085Y-99828572D01*
X141358085Y-99828572D02*
X141329514Y-99857144D01*
X141329514Y-99857144D02*
X141300942Y-99914286D01*
X141300942Y-99914286D02*
X141300942Y-100028572D01*
X141300942Y-100028572D02*
X141329514Y-100085715D01*
X141329514Y-100085715D02*
X141358085Y-100114286D01*
X141358085Y-100114286D02*
X141415228Y-100142858D01*
X141672371Y-99228572D02*
X141672371Y-99571429D01*
X141672371Y-99400000D02*
X141072371Y-99400000D01*
X141072371Y-99400000D02*
X141158085Y-99457143D01*
X141158085Y-99457143D02*
X141215228Y-99514286D01*
X141215228Y-99514286D02*
X141243800Y-99571429D01*
X141072371Y-98857143D02*
X141072371Y-98800000D01*
X141072371Y-98800000D02*
X141100942Y-98742857D01*
X141100942Y-98742857D02*
X141129514Y-98714286D01*
X141129514Y-98714286D02*
X141186657Y-98685714D01*
X141186657Y-98685714D02*
X141300942Y-98657143D01*
X141300942Y-98657143D02*
X141443800Y-98657143D01*
X141443800Y-98657143D02*
X141558085Y-98685714D01*
X141558085Y-98685714D02*
X141615228Y-98714286D01*
X141615228Y-98714286D02*
X141643800Y-98742857D01*
X141643800Y-98742857D02*
X141672371Y-98800000D01*
X141672371Y-98800000D02*
X141672371Y-98857143D01*
X141672371Y-98857143D02*
X141643800Y-98914286D01*
X141643800Y-98914286D02*
X141615228Y-98942857D01*
X141615228Y-98942857D02*
X141558085Y-98971428D01*
X141558085Y-98971428D02*
X141443800Y-99000000D01*
X141443800Y-99000000D02*
X141300942Y-99000000D01*
X141300942Y-99000000D02*
X141186657Y-98971428D01*
X141186657Y-98971428D02*
X141129514Y-98942857D01*
X141129514Y-98942857D02*
X141100942Y-98914286D01*
X141100942Y-98914286D02*
X141072371Y-98857143D01*
X141643800Y-98428571D02*
X141672371Y-98342857D01*
X141672371Y-98342857D02*
X141672371Y-98199999D01*
X141672371Y-98199999D02*
X141643800Y-98142857D01*
X141643800Y-98142857D02*
X141615228Y-98114285D01*
X141615228Y-98114285D02*
X141558085Y-98085714D01*
X141558085Y-98085714D02*
X141500942Y-98085714D01*
X141500942Y-98085714D02*
X141443800Y-98114285D01*
X141443800Y-98114285D02*
X141415228Y-98142857D01*
X141415228Y-98142857D02*
X141386657Y-98199999D01*
X141386657Y-98199999D02*
X141358085Y-98314285D01*
X141358085Y-98314285D02*
X141329514Y-98371428D01*
X141329514Y-98371428D02*
X141300942Y-98399999D01*
X141300942Y-98399999D02*
X141243800Y-98428571D01*
X141243800Y-98428571D02*
X141186657Y-98428571D01*
X141186657Y-98428571D02*
X141129514Y-98399999D01*
X141129514Y-98399999D02*
X141100942Y-98371428D01*
X141100942Y-98371428D02*
X141072371Y-98314285D01*
X141072371Y-98314285D02*
X141072371Y-98171428D01*
X141072371Y-98171428D02*
X141100942Y-98085714D01*
X141072371Y-97885713D02*
X141072371Y-97514285D01*
X141072371Y-97514285D02*
X141300942Y-97714285D01*
X141300942Y-97714285D02*
X141300942Y-97628570D01*
X141300942Y-97628570D02*
X141329514Y-97571428D01*
X141329514Y-97571428D02*
X141358085Y-97542856D01*
X141358085Y-97542856D02*
X141415228Y-97514285D01*
X141415228Y-97514285D02*
X141558085Y-97514285D01*
X141558085Y-97514285D02*
X141615228Y-97542856D01*
X141615228Y-97542856D02*
X141643800Y-97571428D01*
X141643800Y-97571428D02*
X141672371Y-97628570D01*
X141672371Y-97628570D02*
X141672371Y-97799999D01*
X141672371Y-97799999D02*
X141643800Y-97857142D01*
X141643800Y-97857142D02*
X141615228Y-97885713D01*
X141672371Y-96914284D02*
X141386657Y-97114284D01*
X141672371Y-97257141D02*
X141072371Y-97257141D01*
X141072371Y-97257141D02*
X141072371Y-97028570D01*
X141072371Y-97028570D02*
X141100942Y-96971427D01*
X141100942Y-96971427D02*
X141129514Y-96942856D01*
X141129514Y-96942856D02*
X141186657Y-96914284D01*
X141186657Y-96914284D02*
X141272371Y-96914284D01*
X141272371Y-96914284D02*
X141329514Y-96942856D01*
X141329514Y-96942856D02*
X141358085Y-96971427D01*
X141358085Y-96971427D02*
X141386657Y-97028570D01*
X141386657Y-97028570D02*
X141386657Y-97257141D01*
X141072371Y-96714284D02*
X141072371Y-96342856D01*
X141072371Y-96342856D02*
X141300942Y-96542856D01*
X141300942Y-96542856D02*
X141300942Y-96457141D01*
X141300942Y-96457141D02*
X141329514Y-96399999D01*
X141329514Y-96399999D02*
X141358085Y-96371427D01*
X141358085Y-96371427D02*
X141415228Y-96342856D01*
X141415228Y-96342856D02*
X141558085Y-96342856D01*
X141558085Y-96342856D02*
X141615228Y-96371427D01*
X141615228Y-96371427D02*
X141643800Y-96399999D01*
X141643800Y-96399999D02*
X141672371Y-96457141D01*
X141672371Y-96457141D02*
X141672371Y-96628570D01*
X141672371Y-96628570D02*
X141643800Y-96685713D01*
X141643800Y-96685713D02*
X141615228Y-96714284D01*
X141443800Y-96085712D02*
X141443800Y-95628570D01*
X141672371Y-95028570D02*
X141672371Y-95371427D01*
X141672371Y-95199998D02*
X141072371Y-95199998D01*
X141072371Y-95199998D02*
X141158085Y-95257141D01*
X141158085Y-95257141D02*
X141215228Y-95314284D01*
X141215228Y-95314284D02*
X141243800Y-95371427D01*
X141072371Y-94657141D02*
X141072371Y-94599998D01*
X141072371Y-94599998D02*
X141100942Y-94542855D01*
X141100942Y-94542855D02*
X141129514Y-94514284D01*
X141129514Y-94514284D02*
X141186657Y-94485712D01*
X141186657Y-94485712D02*
X141300942Y-94457141D01*
X141300942Y-94457141D02*
X141443800Y-94457141D01*
X141443800Y-94457141D02*
X141558085Y-94485712D01*
X141558085Y-94485712D02*
X141615228Y-94514284D01*
X141615228Y-94514284D02*
X141643800Y-94542855D01*
X141643800Y-94542855D02*
X141672371Y-94599998D01*
X141672371Y-94599998D02*
X141672371Y-94657141D01*
X141672371Y-94657141D02*
X141643800Y-94714284D01*
X141643800Y-94714284D02*
X141615228Y-94742855D01*
X141615228Y-94742855D02*
X141558085Y-94771426D01*
X141558085Y-94771426D02*
X141443800Y-94799998D01*
X141443800Y-94799998D02*
X141300942Y-94799998D01*
X141300942Y-94799998D02*
X141186657Y-94771426D01*
X141186657Y-94771426D02*
X141129514Y-94742855D01*
X141129514Y-94742855D02*
X141100942Y-94714284D01*
X141100942Y-94714284D02*
X141072371Y-94657141D01*
X141672371Y-93885712D02*
X141672371Y-94228569D01*
X141672371Y-94057140D02*
X141072371Y-94057140D01*
X141072371Y-94057140D02*
X141158085Y-94114283D01*
X141158085Y-94114283D02*
X141215228Y-94171426D01*
X141215228Y-94171426D02*
X141243800Y-94228569D01*
X141443800Y-93628568D02*
X141443800Y-93171426D01*
X141072371Y-92971426D02*
X141072371Y-92628569D01*
X141672371Y-92799997D02*
X141072371Y-92799997D01*
D11*
X153696429Y-131634885D02*
X153525000Y-131634885D01*
X153610715Y-131634885D02*
X153610715Y-131334885D01*
X153610715Y-131334885D02*
X153582143Y-131377742D01*
X153582143Y-131377742D02*
X153553572Y-131406314D01*
X153553572Y-131406314D02*
X153525000Y-131420600D01*
X153882143Y-131334885D02*
X153910714Y-131334885D01*
X153910714Y-131334885D02*
X153939286Y-131349171D01*
X153939286Y-131349171D02*
X153953572Y-131363457D01*
X153953572Y-131363457D02*
X153967857Y-131392028D01*
X153967857Y-131392028D02*
X153982143Y-131449171D01*
X153982143Y-131449171D02*
X153982143Y-131520600D01*
X153982143Y-131520600D02*
X153967857Y-131577742D01*
X153967857Y-131577742D02*
X153953572Y-131606314D01*
X153953572Y-131606314D02*
X153939286Y-131620600D01*
X153939286Y-131620600D02*
X153910714Y-131634885D01*
X153910714Y-131634885D02*
X153882143Y-131634885D01*
X153882143Y-131634885D02*
X153853572Y-131620600D01*
X153853572Y-131620600D02*
X153839286Y-131606314D01*
X153839286Y-131606314D02*
X153825000Y-131577742D01*
X153825000Y-131577742D02*
X153810714Y-131520600D01*
X153810714Y-131520600D02*
X153810714Y-131449171D01*
X153810714Y-131449171D02*
X153825000Y-131392028D01*
X153825000Y-131392028D02*
X153839286Y-131363457D01*
X153839286Y-131363457D02*
X153853572Y-131349171D01*
X153853572Y-131349171D02*
X153882143Y-131334885D01*
X154167857Y-131334885D02*
X154196428Y-131334885D01*
X154196428Y-131334885D02*
X154225000Y-131349171D01*
X154225000Y-131349171D02*
X154239286Y-131363457D01*
X154239286Y-131363457D02*
X154253571Y-131392028D01*
X154253571Y-131392028D02*
X154267857Y-131449171D01*
X154267857Y-131449171D02*
X154267857Y-131520600D01*
X154267857Y-131520600D02*
X154253571Y-131577742D01*
X154253571Y-131577742D02*
X154239286Y-131606314D01*
X154239286Y-131606314D02*
X154225000Y-131620600D01*
X154225000Y-131620600D02*
X154196428Y-131634885D01*
X154196428Y-131634885D02*
X154167857Y-131634885D01*
X154167857Y-131634885D02*
X154139286Y-131620600D01*
X154139286Y-131620600D02*
X154125000Y-131606314D01*
X154125000Y-131606314D02*
X154110714Y-131577742D01*
X154110714Y-131577742D02*
X154096428Y-131520600D01*
X154096428Y-131520600D02*
X154096428Y-131449171D01*
X154096428Y-131449171D02*
X154110714Y-131392028D01*
X154110714Y-131392028D02*
X154125000Y-131363457D01*
X154125000Y-131363457D02*
X154139286Y-131349171D01*
X154139286Y-131349171D02*
X154167857Y-131334885D01*
X154624999Y-131434885D02*
X154624999Y-131634885D01*
X154624999Y-131463457D02*
X154639285Y-131449171D01*
X154639285Y-131449171D02*
X154667856Y-131434885D01*
X154667856Y-131434885D02*
X154710713Y-131434885D01*
X154710713Y-131434885D02*
X154739285Y-131449171D01*
X154739285Y-131449171D02*
X154753571Y-131477742D01*
X154753571Y-131477742D02*
X154753571Y-131634885D01*
X154996428Y-131477742D02*
X154896428Y-131477742D01*
X154896428Y-131634885D02*
X154896428Y-131334885D01*
X154896428Y-131334885D02*
X155039285Y-131334885D01*
X161321428Y-88863457D02*
X161335714Y-88849171D01*
X161335714Y-88849171D02*
X161364286Y-88834885D01*
X161364286Y-88834885D02*
X161435714Y-88834885D01*
X161435714Y-88834885D02*
X161464286Y-88849171D01*
X161464286Y-88849171D02*
X161478571Y-88863457D01*
X161478571Y-88863457D02*
X161492857Y-88892028D01*
X161492857Y-88892028D02*
X161492857Y-88920600D01*
X161492857Y-88920600D02*
X161478571Y-88963457D01*
X161478571Y-88963457D02*
X161307143Y-89134885D01*
X161307143Y-89134885D02*
X161492857Y-89134885D01*
X161607142Y-88863457D02*
X161621428Y-88849171D01*
X161621428Y-88849171D02*
X161650000Y-88834885D01*
X161650000Y-88834885D02*
X161721428Y-88834885D01*
X161721428Y-88834885D02*
X161750000Y-88849171D01*
X161750000Y-88849171D02*
X161764285Y-88863457D01*
X161764285Y-88863457D02*
X161778571Y-88892028D01*
X161778571Y-88892028D02*
X161778571Y-88920600D01*
X161778571Y-88920600D02*
X161764285Y-88963457D01*
X161764285Y-88963457D02*
X161592857Y-89134885D01*
X161592857Y-89134885D02*
X161778571Y-89134885D01*
X162135713Y-88934885D02*
X162135713Y-89234885D01*
X162278570Y-89092028D02*
X162292856Y-89120600D01*
X162292856Y-89120600D02*
X162321427Y-89134885D01*
X162135713Y-89092028D02*
X162149999Y-89120600D01*
X162149999Y-89120600D02*
X162178570Y-89134885D01*
X162178570Y-89134885D02*
X162235713Y-89134885D01*
X162235713Y-89134885D02*
X162264285Y-89120600D01*
X162264285Y-89120600D02*
X162278570Y-89092028D01*
X162278570Y-89092028D02*
X162278570Y-88934885D01*
X162549999Y-88977742D02*
X162449999Y-88977742D01*
X162449999Y-89134885D02*
X162449999Y-88834885D01*
X162449999Y-88834885D02*
X162592856Y-88834885D01*
D10*
X145863408Y-126343009D02*
X146149122Y-126343009D01*
X146006265Y-126843009D02*
X146006265Y-126343009D01*
X146291979Y-126819200D02*
X146363407Y-126843009D01*
X146363407Y-126843009D02*
X146482455Y-126843009D01*
X146482455Y-126843009D02*
X146530074Y-126819200D01*
X146530074Y-126819200D02*
X146553883Y-126795390D01*
X146553883Y-126795390D02*
X146577693Y-126747771D01*
X146577693Y-126747771D02*
X146577693Y-126700152D01*
X146577693Y-126700152D02*
X146553883Y-126652533D01*
X146553883Y-126652533D02*
X146530074Y-126628723D01*
X146530074Y-126628723D02*
X146482455Y-126604914D01*
X146482455Y-126604914D02*
X146387217Y-126581104D01*
X146387217Y-126581104D02*
X146339598Y-126557295D01*
X146339598Y-126557295D02*
X146315788Y-126533485D01*
X146315788Y-126533485D02*
X146291979Y-126485866D01*
X146291979Y-126485866D02*
X146291979Y-126438247D01*
X146291979Y-126438247D02*
X146315788Y-126390628D01*
X146315788Y-126390628D02*
X146339598Y-126366819D01*
X146339598Y-126366819D02*
X146387217Y-126343009D01*
X146387217Y-126343009D02*
X146506264Y-126343009D01*
X146506264Y-126343009D02*
X146577693Y-126366819D01*
X146791978Y-126652533D02*
X147172931Y-126652533D01*
X147672931Y-126843009D02*
X147387217Y-126843009D01*
X147530074Y-126843009D02*
X147530074Y-126343009D01*
X147530074Y-126343009D02*
X147482455Y-126414438D01*
X147482455Y-126414438D02*
X147434836Y-126462057D01*
X147434836Y-126462057D02*
X147387217Y-126485866D01*
X148149121Y-126843009D02*
X147863407Y-126843009D01*
X148006264Y-126843009D02*
X148006264Y-126343009D01*
X148006264Y-126343009D02*
X147958645Y-126414438D01*
X147958645Y-126414438D02*
X147911026Y-126462057D01*
X147911026Y-126462057D02*
X147863407Y-126485866D01*
X148434835Y-126557295D02*
X148387216Y-126533485D01*
X148387216Y-126533485D02*
X148363406Y-126509676D01*
X148363406Y-126509676D02*
X148339597Y-126462057D01*
X148339597Y-126462057D02*
X148339597Y-126438247D01*
X148339597Y-126438247D02*
X148363406Y-126390628D01*
X148363406Y-126390628D02*
X148387216Y-126366819D01*
X148387216Y-126366819D02*
X148434835Y-126343009D01*
X148434835Y-126343009D02*
X148530073Y-126343009D01*
X148530073Y-126343009D02*
X148577692Y-126366819D01*
X148577692Y-126366819D02*
X148601501Y-126390628D01*
X148601501Y-126390628D02*
X148625311Y-126438247D01*
X148625311Y-126438247D02*
X148625311Y-126462057D01*
X148625311Y-126462057D02*
X148601501Y-126509676D01*
X148601501Y-126509676D02*
X148577692Y-126533485D01*
X148577692Y-126533485D02*
X148530073Y-126557295D01*
X148530073Y-126557295D02*
X148434835Y-126557295D01*
X148434835Y-126557295D02*
X148387216Y-126581104D01*
X148387216Y-126581104D02*
X148363406Y-126604914D01*
X148363406Y-126604914D02*
X148339597Y-126652533D01*
X148339597Y-126652533D02*
X148339597Y-126747771D01*
X148339597Y-126747771D02*
X148363406Y-126795390D01*
X148363406Y-126795390D02*
X148387216Y-126819200D01*
X148387216Y-126819200D02*
X148434835Y-126843009D01*
X148434835Y-126843009D02*
X148530073Y-126843009D01*
X148530073Y-126843009D02*
X148577692Y-126819200D01*
X148577692Y-126819200D02*
X148601501Y-126795390D01*
X148601501Y-126795390D02*
X148625311Y-126747771D01*
X148625311Y-126747771D02*
X148625311Y-126652533D01*
X148625311Y-126652533D02*
X148601501Y-126604914D01*
X148601501Y-126604914D02*
X148577692Y-126581104D01*
X148577692Y-126581104D02*
X148530073Y-126557295D01*
X148791977Y-126343009D02*
X149125310Y-126343009D01*
X149125310Y-126343009D02*
X148911025Y-126843009D01*
X149291977Y-126700152D02*
X149530072Y-126700152D01*
X149244358Y-126843009D02*
X149411024Y-126343009D01*
X149411024Y-126343009D02*
X149577691Y-126843009D01*
X149744357Y-126652533D02*
X150125310Y-126652533D01*
X150530072Y-126581104D02*
X150601500Y-126604914D01*
X150601500Y-126604914D02*
X150625310Y-126628723D01*
X150625310Y-126628723D02*
X150649119Y-126676342D01*
X150649119Y-126676342D02*
X150649119Y-126747771D01*
X150649119Y-126747771D02*
X150625310Y-126795390D01*
X150625310Y-126795390D02*
X150601500Y-126819200D01*
X150601500Y-126819200D02*
X150553881Y-126843009D01*
X150553881Y-126843009D02*
X150363405Y-126843009D01*
X150363405Y-126843009D02*
X150363405Y-126343009D01*
X150363405Y-126343009D02*
X150530072Y-126343009D01*
X150530072Y-126343009D02*
X150577691Y-126366819D01*
X150577691Y-126366819D02*
X150601500Y-126390628D01*
X150601500Y-126390628D02*
X150625310Y-126438247D01*
X150625310Y-126438247D02*
X150625310Y-126485866D01*
X150625310Y-126485866D02*
X150601500Y-126533485D01*
X150601500Y-126533485D02*
X150577691Y-126557295D01*
X150577691Y-126557295D02*
X150530072Y-126581104D01*
X150530072Y-126581104D02*
X150363405Y-126581104D01*
X150863405Y-126652533D02*
X151244358Y-126652533D01*
X151458644Y-126700152D02*
X151696739Y-126700152D01*
X151411025Y-126843009D02*
X151577691Y-126343009D01*
X151577691Y-126343009D02*
X151744358Y-126843009D01*
X151911024Y-126652533D02*
X152291977Y-126652533D01*
X152696739Y-126581104D02*
X152768167Y-126604914D01*
X152768167Y-126604914D02*
X152791977Y-126628723D01*
X152791977Y-126628723D02*
X152815786Y-126676342D01*
X152815786Y-126676342D02*
X152815786Y-126747771D01*
X152815786Y-126747771D02*
X152791977Y-126795390D01*
X152791977Y-126795390D02*
X152768167Y-126819200D01*
X152768167Y-126819200D02*
X152720548Y-126843009D01*
X152720548Y-126843009D02*
X152530072Y-126843009D01*
X152530072Y-126843009D02*
X152530072Y-126343009D01*
X152530072Y-126343009D02*
X152696739Y-126343009D01*
X152696739Y-126343009D02*
X152744358Y-126366819D01*
X152744358Y-126366819D02*
X152768167Y-126390628D01*
X152768167Y-126390628D02*
X152791977Y-126438247D01*
X152791977Y-126438247D02*
X152791977Y-126485866D01*
X152791977Y-126485866D02*
X152768167Y-126533485D01*
X152768167Y-126533485D02*
X152744358Y-126557295D01*
X152744358Y-126557295D02*
X152696739Y-126581104D01*
X152696739Y-126581104D02*
X152530072Y-126581104D01*
D11*
X132500000Y-107834885D02*
X132528571Y-107834885D01*
X132528571Y-107834885D02*
X132557143Y-107849171D01*
X132557143Y-107849171D02*
X132571429Y-107863457D01*
X132571429Y-107863457D02*
X132585714Y-107892028D01*
X132585714Y-107892028D02*
X132600000Y-107949171D01*
X132600000Y-107949171D02*
X132600000Y-108020600D01*
X132600000Y-108020600D02*
X132585714Y-108077742D01*
X132585714Y-108077742D02*
X132571429Y-108106314D01*
X132571429Y-108106314D02*
X132557143Y-108120600D01*
X132557143Y-108120600D02*
X132528571Y-108134885D01*
X132528571Y-108134885D02*
X132500000Y-108134885D01*
X132500000Y-108134885D02*
X132471429Y-108120600D01*
X132471429Y-108120600D02*
X132457143Y-108106314D01*
X132457143Y-108106314D02*
X132442857Y-108077742D01*
X132442857Y-108077742D02*
X132428571Y-108020600D01*
X132428571Y-108020600D02*
X132428571Y-107949171D01*
X132428571Y-107949171D02*
X132442857Y-107892028D01*
X132442857Y-107892028D02*
X132457143Y-107863457D01*
X132457143Y-107863457D02*
X132471429Y-107849171D01*
X132471429Y-107849171D02*
X132500000Y-107834885D01*
X132942856Y-108134885D02*
X133014285Y-108134885D01*
X133014285Y-108134885D02*
X133014285Y-108077742D01*
X133014285Y-108077742D02*
X132985714Y-108063457D01*
X132985714Y-108063457D02*
X132957142Y-108034885D01*
X132957142Y-108034885D02*
X132942856Y-107992028D01*
X132942856Y-107992028D02*
X132942856Y-107920600D01*
X132942856Y-107920600D02*
X132957142Y-107877742D01*
X132957142Y-107877742D02*
X132985714Y-107849171D01*
X132985714Y-107849171D02*
X133028571Y-107834885D01*
X133028571Y-107834885D02*
X133085714Y-107834885D01*
X133085714Y-107834885D02*
X133128571Y-107849171D01*
X133128571Y-107849171D02*
X133157142Y-107877742D01*
X133157142Y-107877742D02*
X133171428Y-107920600D01*
X133171428Y-107920600D02*
X133171428Y-107992028D01*
X133171428Y-107992028D02*
X133157142Y-108034885D01*
X133157142Y-108034885D02*
X133128571Y-108063457D01*
X133128571Y-108063457D02*
X133099999Y-108077742D01*
X133099999Y-108077742D02*
X133099999Y-108134885D01*
X133099999Y-108134885D02*
X133171428Y-108134885D01*
X155925000Y-78134885D02*
X155782143Y-78134885D01*
X155782143Y-78134885D02*
X155767857Y-78277742D01*
X155767857Y-78277742D02*
X155782143Y-78263457D01*
X155782143Y-78263457D02*
X155810715Y-78249171D01*
X155810715Y-78249171D02*
X155882143Y-78249171D01*
X155882143Y-78249171D02*
X155910715Y-78263457D01*
X155910715Y-78263457D02*
X155925000Y-78277742D01*
X155925000Y-78277742D02*
X155939286Y-78306314D01*
X155939286Y-78306314D02*
X155939286Y-78377742D01*
X155939286Y-78377742D02*
X155925000Y-78406314D01*
X155925000Y-78406314D02*
X155910715Y-78420600D01*
X155910715Y-78420600D02*
X155882143Y-78434885D01*
X155882143Y-78434885D02*
X155810715Y-78434885D01*
X155810715Y-78434885D02*
X155782143Y-78420600D01*
X155782143Y-78420600D02*
X155767857Y-78406314D01*
X156067857Y-78406314D02*
X156082143Y-78420600D01*
X156082143Y-78420600D02*
X156067857Y-78434885D01*
X156067857Y-78434885D02*
X156053571Y-78420600D01*
X156053571Y-78420600D02*
X156067857Y-78406314D01*
X156067857Y-78406314D02*
X156067857Y-78434885D01*
X156367857Y-78434885D02*
X156196428Y-78434885D01*
X156282143Y-78434885D02*
X156282143Y-78134885D01*
X156282143Y-78134885D02*
X156253571Y-78177742D01*
X156253571Y-78177742D02*
X156225000Y-78206314D01*
X156225000Y-78206314D02*
X156196428Y-78220600D01*
X156724999Y-78434885D02*
X156724999Y-78134885D01*
X156753571Y-78320600D02*
X156839285Y-78434885D01*
X156839285Y-78234885D02*
X156724999Y-78349171D01*
X156953570Y-78434885D02*
X157024999Y-78434885D01*
X157024999Y-78434885D02*
X157024999Y-78377742D01*
X157024999Y-78377742D02*
X156996428Y-78363457D01*
X156996428Y-78363457D02*
X156967856Y-78334885D01*
X156967856Y-78334885D02*
X156953570Y-78292028D01*
X156953570Y-78292028D02*
X156953570Y-78220600D01*
X156953570Y-78220600D02*
X156967856Y-78177742D01*
X156967856Y-78177742D02*
X156996428Y-78149171D01*
X156996428Y-78149171D02*
X157039285Y-78134885D01*
X157039285Y-78134885D02*
X157096428Y-78134885D01*
X157096428Y-78134885D02*
X157139285Y-78149171D01*
X157139285Y-78149171D02*
X157167856Y-78177742D01*
X157167856Y-78177742D02*
X157182142Y-78220600D01*
X157182142Y-78220600D02*
X157182142Y-78292028D01*
X157182142Y-78292028D02*
X157167856Y-78334885D01*
X157167856Y-78334885D02*
X157139285Y-78363457D01*
X157139285Y-78363457D02*
X157110713Y-78377742D01*
X157110713Y-78377742D02*
X157110713Y-78434885D01*
X157110713Y-78434885D02*
X157182142Y-78434885D01*
X165492857Y-131134885D02*
X165321428Y-131134885D01*
X165407143Y-131134885D02*
X165407143Y-130834885D01*
X165407143Y-130834885D02*
X165378571Y-130877742D01*
X165378571Y-130877742D02*
X165350000Y-130906314D01*
X165350000Y-130906314D02*
X165321428Y-130920600D01*
X165678571Y-130834885D02*
X165707142Y-130834885D01*
X165707142Y-130834885D02*
X165735714Y-130849171D01*
X165735714Y-130849171D02*
X165750000Y-130863457D01*
X165750000Y-130863457D02*
X165764285Y-130892028D01*
X165764285Y-130892028D02*
X165778571Y-130949171D01*
X165778571Y-130949171D02*
X165778571Y-131020600D01*
X165778571Y-131020600D02*
X165764285Y-131077742D01*
X165764285Y-131077742D02*
X165750000Y-131106314D01*
X165750000Y-131106314D02*
X165735714Y-131120600D01*
X165735714Y-131120600D02*
X165707142Y-131134885D01*
X165707142Y-131134885D02*
X165678571Y-131134885D01*
X165678571Y-131134885D02*
X165650000Y-131120600D01*
X165650000Y-131120600D02*
X165635714Y-131106314D01*
X165635714Y-131106314D02*
X165621428Y-131077742D01*
X165621428Y-131077742D02*
X165607142Y-131020600D01*
X165607142Y-131020600D02*
X165607142Y-130949171D01*
X165607142Y-130949171D02*
X165621428Y-130892028D01*
X165621428Y-130892028D02*
X165635714Y-130863457D01*
X165635714Y-130863457D02*
X165650000Y-130849171D01*
X165650000Y-130849171D02*
X165678571Y-130834885D01*
X166135713Y-130934885D02*
X166135713Y-131234885D01*
X166278570Y-131092028D02*
X166292856Y-131120600D01*
X166292856Y-131120600D02*
X166321427Y-131134885D01*
X166135713Y-131092028D02*
X166149999Y-131120600D01*
X166149999Y-131120600D02*
X166178570Y-131134885D01*
X166178570Y-131134885D02*
X166235713Y-131134885D01*
X166235713Y-131134885D02*
X166264285Y-131120600D01*
X166264285Y-131120600D02*
X166278570Y-131092028D01*
X166278570Y-131092028D02*
X166278570Y-130934885D01*
X166549999Y-130977742D02*
X166449999Y-130977742D01*
X166449999Y-131134885D02*
X166449999Y-130834885D01*
X166449999Y-130834885D02*
X166592856Y-130834885D01*
X123710715Y-98934885D02*
X123710715Y-99134885D01*
X123639286Y-98820600D02*
X123567857Y-99034885D01*
X123567857Y-99034885D02*
X123753572Y-99034885D01*
X123867857Y-99106314D02*
X123882143Y-99120600D01*
X123882143Y-99120600D02*
X123867857Y-99134885D01*
X123867857Y-99134885D02*
X123853571Y-99120600D01*
X123853571Y-99120600D02*
X123867857Y-99106314D01*
X123867857Y-99106314D02*
X123867857Y-99134885D01*
X123982143Y-98834885D02*
X124182143Y-98834885D01*
X124182143Y-98834885D02*
X124053571Y-99134885D01*
X124524999Y-99134885D02*
X124524999Y-98834885D01*
X124553571Y-99020600D02*
X124639285Y-99134885D01*
X124639285Y-98934885D02*
X124524999Y-99049171D01*
X124753570Y-99134885D02*
X124824999Y-99134885D01*
X124824999Y-99134885D02*
X124824999Y-99077742D01*
X124824999Y-99077742D02*
X124796428Y-99063457D01*
X124796428Y-99063457D02*
X124767856Y-99034885D01*
X124767856Y-99034885D02*
X124753570Y-98992028D01*
X124753570Y-98992028D02*
X124753570Y-98920600D01*
X124753570Y-98920600D02*
X124767856Y-98877742D01*
X124767856Y-98877742D02*
X124796428Y-98849171D01*
X124796428Y-98849171D02*
X124839285Y-98834885D01*
X124839285Y-98834885D02*
X124896428Y-98834885D01*
X124896428Y-98834885D02*
X124939285Y-98849171D01*
X124939285Y-98849171D02*
X124967856Y-98877742D01*
X124967856Y-98877742D02*
X124982142Y-98920600D01*
X124982142Y-98920600D02*
X124982142Y-98992028D01*
X124982142Y-98992028D02*
X124967856Y-99034885D01*
X124967856Y-99034885D02*
X124939285Y-99063457D01*
X124939285Y-99063457D02*
X124910713Y-99077742D01*
X124910713Y-99077742D02*
X124910713Y-99134885D01*
X124910713Y-99134885D02*
X124982142Y-99134885D01*
X125367858Y-116634885D02*
X125196429Y-116634885D01*
X125282144Y-116634885D02*
X125282144Y-116334885D01*
X125282144Y-116334885D02*
X125253572Y-116377742D01*
X125253572Y-116377742D02*
X125225001Y-116406314D01*
X125225001Y-116406314D02*
X125196429Y-116420600D01*
X125553572Y-116334885D02*
X125582143Y-116334885D01*
X125582143Y-116334885D02*
X125610715Y-116349171D01*
X125610715Y-116349171D02*
X125625001Y-116363457D01*
X125625001Y-116363457D02*
X125639286Y-116392028D01*
X125639286Y-116392028D02*
X125653572Y-116449171D01*
X125653572Y-116449171D02*
X125653572Y-116520600D01*
X125653572Y-116520600D02*
X125639286Y-116577742D01*
X125639286Y-116577742D02*
X125625001Y-116606314D01*
X125625001Y-116606314D02*
X125610715Y-116620600D01*
X125610715Y-116620600D02*
X125582143Y-116634885D01*
X125582143Y-116634885D02*
X125553572Y-116634885D01*
X125553572Y-116634885D02*
X125525001Y-116620600D01*
X125525001Y-116620600D02*
X125510715Y-116606314D01*
X125510715Y-116606314D02*
X125496429Y-116577742D01*
X125496429Y-116577742D02*
X125482143Y-116520600D01*
X125482143Y-116520600D02*
X125482143Y-116449171D01*
X125482143Y-116449171D02*
X125496429Y-116392028D01*
X125496429Y-116392028D02*
X125510715Y-116363457D01*
X125510715Y-116363457D02*
X125525001Y-116349171D01*
X125525001Y-116349171D02*
X125553572Y-116334885D01*
X125839286Y-116334885D02*
X125867857Y-116334885D01*
X125867857Y-116334885D02*
X125896429Y-116349171D01*
X125896429Y-116349171D02*
X125910715Y-116363457D01*
X125910715Y-116363457D02*
X125925000Y-116392028D01*
X125925000Y-116392028D02*
X125939286Y-116449171D01*
X125939286Y-116449171D02*
X125939286Y-116520600D01*
X125939286Y-116520600D02*
X125925000Y-116577742D01*
X125925000Y-116577742D02*
X125910715Y-116606314D01*
X125910715Y-116606314D02*
X125896429Y-116620600D01*
X125896429Y-116620600D02*
X125867857Y-116634885D01*
X125867857Y-116634885D02*
X125839286Y-116634885D01*
X125839286Y-116634885D02*
X125810715Y-116620600D01*
X125810715Y-116620600D02*
X125796429Y-116606314D01*
X125796429Y-116606314D02*
X125782143Y-116577742D01*
X125782143Y-116577742D02*
X125767857Y-116520600D01*
X125767857Y-116520600D02*
X125767857Y-116449171D01*
X125767857Y-116449171D02*
X125782143Y-116392028D01*
X125782143Y-116392028D02*
X125796429Y-116363457D01*
X125796429Y-116363457D02*
X125810715Y-116349171D01*
X125810715Y-116349171D02*
X125839286Y-116334885D01*
X126296428Y-116634885D02*
X126296428Y-116334885D01*
X126325000Y-116520600D02*
X126410714Y-116634885D01*
X126410714Y-116434885D02*
X126296428Y-116549171D01*
X126524999Y-116634885D02*
X126596428Y-116634885D01*
X126596428Y-116634885D02*
X126596428Y-116577742D01*
X126596428Y-116577742D02*
X126567857Y-116563457D01*
X126567857Y-116563457D02*
X126539285Y-116534885D01*
X126539285Y-116534885D02*
X126524999Y-116492028D01*
X126524999Y-116492028D02*
X126524999Y-116420600D01*
X126524999Y-116420600D02*
X126539285Y-116377742D01*
X126539285Y-116377742D02*
X126567857Y-116349171D01*
X126567857Y-116349171D02*
X126610714Y-116334885D01*
X126610714Y-116334885D02*
X126667857Y-116334885D01*
X126667857Y-116334885D02*
X126710714Y-116349171D01*
X126710714Y-116349171D02*
X126739285Y-116377742D01*
X126739285Y-116377742D02*
X126753571Y-116420600D01*
X126753571Y-116420600D02*
X126753571Y-116492028D01*
X126753571Y-116492028D02*
X126739285Y-116534885D01*
X126739285Y-116534885D02*
X126710714Y-116563457D01*
X126710714Y-116563457D02*
X126682142Y-116577742D01*
X126682142Y-116577742D02*
X126682142Y-116634885D01*
X126682142Y-116634885D02*
X126753571Y-116634885D01*
X130500000Y-107834885D02*
X130528571Y-107834885D01*
X130528571Y-107834885D02*
X130557143Y-107849171D01*
X130557143Y-107849171D02*
X130571429Y-107863457D01*
X130571429Y-107863457D02*
X130585714Y-107892028D01*
X130585714Y-107892028D02*
X130600000Y-107949171D01*
X130600000Y-107949171D02*
X130600000Y-108020600D01*
X130600000Y-108020600D02*
X130585714Y-108077742D01*
X130585714Y-108077742D02*
X130571429Y-108106314D01*
X130571429Y-108106314D02*
X130557143Y-108120600D01*
X130557143Y-108120600D02*
X130528571Y-108134885D01*
X130528571Y-108134885D02*
X130500000Y-108134885D01*
X130500000Y-108134885D02*
X130471429Y-108120600D01*
X130471429Y-108120600D02*
X130457143Y-108106314D01*
X130457143Y-108106314D02*
X130442857Y-108077742D01*
X130442857Y-108077742D02*
X130428571Y-108020600D01*
X130428571Y-108020600D02*
X130428571Y-107949171D01*
X130428571Y-107949171D02*
X130442857Y-107892028D01*
X130442857Y-107892028D02*
X130457143Y-107863457D01*
X130457143Y-107863457D02*
X130471429Y-107849171D01*
X130471429Y-107849171D02*
X130500000Y-107834885D01*
X130942856Y-108134885D02*
X131014285Y-108134885D01*
X131014285Y-108134885D02*
X131014285Y-108077742D01*
X131014285Y-108077742D02*
X130985714Y-108063457D01*
X130985714Y-108063457D02*
X130957142Y-108034885D01*
X130957142Y-108034885D02*
X130942856Y-107992028D01*
X130942856Y-107992028D02*
X130942856Y-107920600D01*
X130942856Y-107920600D02*
X130957142Y-107877742D01*
X130957142Y-107877742D02*
X130985714Y-107849171D01*
X130985714Y-107849171D02*
X131028571Y-107834885D01*
X131028571Y-107834885D02*
X131085714Y-107834885D01*
X131085714Y-107834885D02*
X131128571Y-107849171D01*
X131128571Y-107849171D02*
X131157142Y-107877742D01*
X131157142Y-107877742D02*
X131171428Y-107920600D01*
X131171428Y-107920600D02*
X131171428Y-107992028D01*
X131171428Y-107992028D02*
X131157142Y-108034885D01*
X131157142Y-108034885D02*
X131128571Y-108063457D01*
X131128571Y-108063457D02*
X131099999Y-108077742D01*
X131099999Y-108077742D02*
X131099999Y-108134885D01*
X131099999Y-108134885D02*
X131171428Y-108134885D01*
D10*
X164696741Y-87901319D02*
X164649122Y-87877509D01*
X164649122Y-87877509D02*
X164577693Y-87877509D01*
X164577693Y-87877509D02*
X164506265Y-87901319D01*
X164506265Y-87901319D02*
X164458646Y-87948938D01*
X164458646Y-87948938D02*
X164434836Y-87996557D01*
X164434836Y-87996557D02*
X164411027Y-88091795D01*
X164411027Y-88091795D02*
X164411027Y-88163223D01*
X164411027Y-88163223D02*
X164434836Y-88258461D01*
X164434836Y-88258461D02*
X164458646Y-88306080D01*
X164458646Y-88306080D02*
X164506265Y-88353700D01*
X164506265Y-88353700D02*
X164577693Y-88377509D01*
X164577693Y-88377509D02*
X164625312Y-88377509D01*
X164625312Y-88377509D02*
X164696741Y-88353700D01*
X164696741Y-88353700D02*
X164720550Y-88329890D01*
X164720550Y-88329890D02*
X164720550Y-88163223D01*
X164720550Y-88163223D02*
X164625312Y-88163223D01*
X164887217Y-87877509D02*
X165220550Y-87877509D01*
X165220550Y-87877509D02*
X164887217Y-88377509D01*
X164887217Y-88377509D02*
X165220550Y-88377509D01*
X165387217Y-87925128D02*
X165411026Y-87901319D01*
X165411026Y-87901319D02*
X165458645Y-87877509D01*
X165458645Y-87877509D02*
X165577693Y-87877509D01*
X165577693Y-87877509D02*
X165625312Y-87901319D01*
X165625312Y-87901319D02*
X165649121Y-87925128D01*
X165649121Y-87925128D02*
X165672931Y-87972747D01*
X165672931Y-87972747D02*
X165672931Y-88020366D01*
X165672931Y-88020366D02*
X165649121Y-88091795D01*
X165649121Y-88091795D02*
X165363407Y-88377509D01*
X165363407Y-88377509D02*
X165672931Y-88377509D01*
X165982454Y-87877509D02*
X166030073Y-87877509D01*
X166030073Y-87877509D02*
X166077692Y-87901319D01*
X166077692Y-87901319D02*
X166101502Y-87925128D01*
X166101502Y-87925128D02*
X166125311Y-87972747D01*
X166125311Y-87972747D02*
X166149121Y-88067985D01*
X166149121Y-88067985D02*
X166149121Y-88187033D01*
X166149121Y-88187033D02*
X166125311Y-88282271D01*
X166125311Y-88282271D02*
X166101502Y-88329890D01*
X166101502Y-88329890D02*
X166077692Y-88353700D01*
X166077692Y-88353700D02*
X166030073Y-88377509D01*
X166030073Y-88377509D02*
X165982454Y-88377509D01*
X165982454Y-88377509D02*
X165934835Y-88353700D01*
X165934835Y-88353700D02*
X165911026Y-88329890D01*
X165911026Y-88329890D02*
X165887216Y-88282271D01*
X165887216Y-88282271D02*
X165863407Y-88187033D01*
X165863407Y-88187033D02*
X165863407Y-88067985D01*
X165863407Y-88067985D02*
X165887216Y-87972747D01*
X165887216Y-87972747D02*
X165911026Y-87925128D01*
X165911026Y-87925128D02*
X165934835Y-87901319D01*
X165934835Y-87901319D02*
X165982454Y-87877509D01*
X166625311Y-88377509D02*
X166339597Y-88377509D01*
X166482454Y-88377509D02*
X166482454Y-87877509D01*
X166482454Y-87877509D02*
X166434835Y-87948938D01*
X166434835Y-87948938D02*
X166387216Y-87996557D01*
X166387216Y-87996557D02*
X166339597Y-88020366D01*
X166815787Y-87925128D02*
X166839596Y-87901319D01*
X166839596Y-87901319D02*
X166887215Y-87877509D01*
X166887215Y-87877509D02*
X167006263Y-87877509D01*
X167006263Y-87877509D02*
X167053882Y-87901319D01*
X167053882Y-87901319D02*
X167077691Y-87925128D01*
X167077691Y-87925128D02*
X167101501Y-87972747D01*
X167101501Y-87972747D02*
X167101501Y-88020366D01*
X167101501Y-88020366D02*
X167077691Y-88091795D01*
X167077691Y-88091795D02*
X166791977Y-88377509D01*
X166791977Y-88377509D02*
X167101501Y-88377509D01*
X167315786Y-88377509D02*
X167315786Y-87877509D01*
X167315786Y-87877509D02*
X167434834Y-87877509D01*
X167434834Y-87877509D02*
X167506262Y-87901319D01*
X167506262Y-87901319D02*
X167553881Y-87948938D01*
X167553881Y-87948938D02*
X167577691Y-87996557D01*
X167577691Y-87996557D02*
X167601500Y-88091795D01*
X167601500Y-88091795D02*
X167601500Y-88163223D01*
X167601500Y-88163223D02*
X167577691Y-88258461D01*
X167577691Y-88258461D02*
X167553881Y-88306080D01*
X167553881Y-88306080D02*
X167506262Y-88353700D01*
X167506262Y-88353700D02*
X167434834Y-88377509D01*
X167434834Y-88377509D02*
X167315786Y-88377509D01*
X168030072Y-87877509D02*
X167934834Y-87877509D01*
X167934834Y-87877509D02*
X167887215Y-87901319D01*
X167887215Y-87901319D02*
X167863405Y-87925128D01*
X167863405Y-87925128D02*
X167815786Y-87996557D01*
X167815786Y-87996557D02*
X167791977Y-88091795D01*
X167791977Y-88091795D02*
X167791977Y-88282271D01*
X167791977Y-88282271D02*
X167815786Y-88329890D01*
X167815786Y-88329890D02*
X167839596Y-88353700D01*
X167839596Y-88353700D02*
X167887215Y-88377509D01*
X167887215Y-88377509D02*
X167982453Y-88377509D01*
X167982453Y-88377509D02*
X168030072Y-88353700D01*
X168030072Y-88353700D02*
X168053881Y-88329890D01*
X168053881Y-88329890D02*
X168077691Y-88282271D01*
X168077691Y-88282271D02*
X168077691Y-88163223D01*
X168077691Y-88163223D02*
X168053881Y-88115604D01*
X168053881Y-88115604D02*
X168030072Y-88091795D01*
X168030072Y-88091795D02*
X167982453Y-88067985D01*
X167982453Y-88067985D02*
X167887215Y-88067985D01*
X167887215Y-88067985D02*
X167839596Y-88091795D01*
X167839596Y-88091795D02*
X167815786Y-88115604D01*
X167815786Y-88115604D02*
X167791977Y-88163223D01*
X168387214Y-87877509D02*
X168434833Y-87877509D01*
X168434833Y-87877509D02*
X168482452Y-87901319D01*
X168482452Y-87901319D02*
X168506262Y-87925128D01*
X168506262Y-87925128D02*
X168530071Y-87972747D01*
X168530071Y-87972747D02*
X168553881Y-88067985D01*
X168553881Y-88067985D02*
X168553881Y-88187033D01*
X168553881Y-88187033D02*
X168530071Y-88282271D01*
X168530071Y-88282271D02*
X168506262Y-88329890D01*
X168506262Y-88329890D02*
X168482452Y-88353700D01*
X168482452Y-88353700D02*
X168434833Y-88377509D01*
X168434833Y-88377509D02*
X168387214Y-88377509D01*
X168387214Y-88377509D02*
X168339595Y-88353700D01*
X168339595Y-88353700D02*
X168315786Y-88329890D01*
X168315786Y-88329890D02*
X168291976Y-88282271D01*
X168291976Y-88282271D02*
X168268167Y-88187033D01*
X168268167Y-88187033D02*
X168268167Y-88067985D01*
X168268167Y-88067985D02*
X168291976Y-87972747D01*
X168291976Y-87972747D02*
X168315786Y-87925128D01*
X168315786Y-87925128D02*
X168339595Y-87901319D01*
X168339595Y-87901319D02*
X168387214Y-87877509D01*
X169030071Y-88377509D02*
X168744357Y-88377509D01*
X168887214Y-88377509D02*
X168887214Y-87877509D01*
X168887214Y-87877509D02*
X168839595Y-87948938D01*
X168839595Y-87948938D02*
X168791976Y-87996557D01*
X168791976Y-87996557D02*
X168744357Y-88020366D01*
X169172928Y-87877509D02*
X169458642Y-87877509D01*
X169315785Y-88377509D02*
X169315785Y-87877509D01*
X169791975Y-88115604D02*
X169625308Y-88115604D01*
X169625308Y-88377509D02*
X169625308Y-87877509D01*
X169625308Y-87877509D02*
X169863403Y-87877509D01*
D11*
X118492858Y-115634885D02*
X118321429Y-115634885D01*
X118407144Y-115634885D02*
X118407144Y-115334885D01*
X118407144Y-115334885D02*
X118378572Y-115377742D01*
X118378572Y-115377742D02*
X118350001Y-115406314D01*
X118350001Y-115406314D02*
X118321429Y-115420600D01*
X118750001Y-115334885D02*
X118692858Y-115334885D01*
X118692858Y-115334885D02*
X118664286Y-115349171D01*
X118664286Y-115349171D02*
X118650001Y-115363457D01*
X118650001Y-115363457D02*
X118621429Y-115406314D01*
X118621429Y-115406314D02*
X118607143Y-115463457D01*
X118607143Y-115463457D02*
X118607143Y-115577742D01*
X118607143Y-115577742D02*
X118621429Y-115606314D01*
X118621429Y-115606314D02*
X118635715Y-115620600D01*
X118635715Y-115620600D02*
X118664286Y-115634885D01*
X118664286Y-115634885D02*
X118721429Y-115634885D01*
X118721429Y-115634885D02*
X118750001Y-115620600D01*
X118750001Y-115620600D02*
X118764286Y-115606314D01*
X118764286Y-115606314D02*
X118778572Y-115577742D01*
X118778572Y-115577742D02*
X118778572Y-115506314D01*
X118778572Y-115506314D02*
X118764286Y-115477742D01*
X118764286Y-115477742D02*
X118750001Y-115463457D01*
X118750001Y-115463457D02*
X118721429Y-115449171D01*
X118721429Y-115449171D02*
X118664286Y-115449171D01*
X118664286Y-115449171D02*
X118635715Y-115463457D01*
X118635715Y-115463457D02*
X118621429Y-115477742D01*
X118621429Y-115477742D02*
X118607143Y-115506314D01*
X119050000Y-115334885D02*
X118907143Y-115334885D01*
X118907143Y-115334885D02*
X118892857Y-115477742D01*
X118892857Y-115477742D02*
X118907143Y-115463457D01*
X118907143Y-115463457D02*
X118935715Y-115449171D01*
X118935715Y-115449171D02*
X119007143Y-115449171D01*
X119007143Y-115449171D02*
X119035715Y-115463457D01*
X119035715Y-115463457D02*
X119050000Y-115477742D01*
X119050000Y-115477742D02*
X119064286Y-115506314D01*
X119064286Y-115506314D02*
X119064286Y-115577742D01*
X119064286Y-115577742D02*
X119050000Y-115606314D01*
X119050000Y-115606314D02*
X119035715Y-115620600D01*
X119035715Y-115620600D02*
X119007143Y-115634885D01*
X119007143Y-115634885D02*
X118935715Y-115634885D01*
X118935715Y-115634885D02*
X118907143Y-115620600D01*
X118907143Y-115620600D02*
X118892857Y-115606314D01*
X119421428Y-115634885D02*
X119421428Y-115334885D01*
X119450000Y-115520600D02*
X119535714Y-115634885D01*
X119535714Y-115434885D02*
X119421428Y-115549171D01*
X119649999Y-115634885D02*
X119721428Y-115634885D01*
X119721428Y-115634885D02*
X119721428Y-115577742D01*
X119721428Y-115577742D02*
X119692857Y-115563457D01*
X119692857Y-115563457D02*
X119664285Y-115534885D01*
X119664285Y-115534885D02*
X119649999Y-115492028D01*
X119649999Y-115492028D02*
X119649999Y-115420600D01*
X119649999Y-115420600D02*
X119664285Y-115377742D01*
X119664285Y-115377742D02*
X119692857Y-115349171D01*
X119692857Y-115349171D02*
X119735714Y-115334885D01*
X119735714Y-115334885D02*
X119792857Y-115334885D01*
X119792857Y-115334885D02*
X119835714Y-115349171D01*
X119835714Y-115349171D02*
X119864285Y-115377742D01*
X119864285Y-115377742D02*
X119878571Y-115420600D01*
X119878571Y-115420600D02*
X119878571Y-115492028D01*
X119878571Y-115492028D02*
X119864285Y-115534885D01*
X119864285Y-115534885D02*
X119835714Y-115563457D01*
X119835714Y-115563457D02*
X119807142Y-115577742D01*
X119807142Y-115577742D02*
X119807142Y-115634885D01*
X119807142Y-115634885D02*
X119878571Y-115634885D01*
X157721428Y-89363457D02*
X157735714Y-89349171D01*
X157735714Y-89349171D02*
X157764286Y-89334885D01*
X157764286Y-89334885D02*
X157835714Y-89334885D01*
X157835714Y-89334885D02*
X157864286Y-89349171D01*
X157864286Y-89349171D02*
X157878571Y-89363457D01*
X157878571Y-89363457D02*
X157892857Y-89392028D01*
X157892857Y-89392028D02*
X157892857Y-89420600D01*
X157892857Y-89420600D02*
X157878571Y-89463457D01*
X157878571Y-89463457D02*
X157707143Y-89634885D01*
X157707143Y-89634885D02*
X157892857Y-89634885D01*
X158021428Y-89606314D02*
X158035714Y-89620600D01*
X158035714Y-89620600D02*
X158021428Y-89634885D01*
X158021428Y-89634885D02*
X158007142Y-89620600D01*
X158007142Y-89620600D02*
X158021428Y-89606314D01*
X158021428Y-89606314D02*
X158021428Y-89634885D01*
X158149999Y-89363457D02*
X158164285Y-89349171D01*
X158164285Y-89349171D02*
X158192857Y-89334885D01*
X158192857Y-89334885D02*
X158264285Y-89334885D01*
X158264285Y-89334885D02*
X158292857Y-89349171D01*
X158292857Y-89349171D02*
X158307142Y-89363457D01*
X158307142Y-89363457D02*
X158321428Y-89392028D01*
X158321428Y-89392028D02*
X158321428Y-89420600D01*
X158321428Y-89420600D02*
X158307142Y-89463457D01*
X158307142Y-89463457D02*
X158135714Y-89634885D01*
X158135714Y-89634885D02*
X158321428Y-89634885D01*
X158678570Y-89434885D02*
X158678570Y-89734885D01*
X158821427Y-89592028D02*
X158835713Y-89620600D01*
X158835713Y-89620600D02*
X158864284Y-89634885D01*
X158678570Y-89592028D02*
X158692856Y-89620600D01*
X158692856Y-89620600D02*
X158721427Y-89634885D01*
X158721427Y-89634885D02*
X158778570Y-89634885D01*
X158778570Y-89634885D02*
X158807142Y-89620600D01*
X158807142Y-89620600D02*
X158821427Y-89592028D01*
X158821427Y-89592028D02*
X158821427Y-89434885D01*
X158992856Y-89634885D02*
X158992856Y-89334885D01*
X158992856Y-89477742D02*
X159164285Y-89477742D01*
X159164285Y-89634885D02*
X159164285Y-89334885D01*
X130500000Y-109834885D02*
X130528571Y-109834885D01*
X130528571Y-109834885D02*
X130557143Y-109849171D01*
X130557143Y-109849171D02*
X130571429Y-109863457D01*
X130571429Y-109863457D02*
X130585714Y-109892028D01*
X130585714Y-109892028D02*
X130600000Y-109949171D01*
X130600000Y-109949171D02*
X130600000Y-110020600D01*
X130600000Y-110020600D02*
X130585714Y-110077742D01*
X130585714Y-110077742D02*
X130571429Y-110106314D01*
X130571429Y-110106314D02*
X130557143Y-110120600D01*
X130557143Y-110120600D02*
X130528571Y-110134885D01*
X130528571Y-110134885D02*
X130500000Y-110134885D01*
X130500000Y-110134885D02*
X130471429Y-110120600D01*
X130471429Y-110120600D02*
X130457143Y-110106314D01*
X130457143Y-110106314D02*
X130442857Y-110077742D01*
X130442857Y-110077742D02*
X130428571Y-110020600D01*
X130428571Y-110020600D02*
X130428571Y-109949171D01*
X130428571Y-109949171D02*
X130442857Y-109892028D01*
X130442857Y-109892028D02*
X130457143Y-109863457D01*
X130457143Y-109863457D02*
X130471429Y-109849171D01*
X130471429Y-109849171D02*
X130500000Y-109834885D01*
X130942856Y-110134885D02*
X131014285Y-110134885D01*
X131014285Y-110134885D02*
X131014285Y-110077742D01*
X131014285Y-110077742D02*
X130985714Y-110063457D01*
X130985714Y-110063457D02*
X130957142Y-110034885D01*
X130957142Y-110034885D02*
X130942856Y-109992028D01*
X130942856Y-109992028D02*
X130942856Y-109920600D01*
X130942856Y-109920600D02*
X130957142Y-109877742D01*
X130957142Y-109877742D02*
X130985714Y-109849171D01*
X130985714Y-109849171D02*
X131028571Y-109834885D01*
X131028571Y-109834885D02*
X131085714Y-109834885D01*
X131085714Y-109834885D02*
X131128571Y-109849171D01*
X131128571Y-109849171D02*
X131157142Y-109877742D01*
X131157142Y-109877742D02*
X131171428Y-109920600D01*
X131171428Y-109920600D02*
X131171428Y-109992028D01*
X131171428Y-109992028D02*
X131157142Y-110034885D01*
X131157142Y-110034885D02*
X131128571Y-110063457D01*
X131128571Y-110063457D02*
X131099999Y-110077742D01*
X131099999Y-110077742D02*
X131099999Y-110134885D01*
X131099999Y-110134885D02*
X131171428Y-110134885D01*
X155925000Y-81134885D02*
X155782143Y-81134885D01*
X155782143Y-81134885D02*
X155767857Y-81277742D01*
X155767857Y-81277742D02*
X155782143Y-81263457D01*
X155782143Y-81263457D02*
X155810715Y-81249171D01*
X155810715Y-81249171D02*
X155882143Y-81249171D01*
X155882143Y-81249171D02*
X155910715Y-81263457D01*
X155910715Y-81263457D02*
X155925000Y-81277742D01*
X155925000Y-81277742D02*
X155939286Y-81306314D01*
X155939286Y-81306314D02*
X155939286Y-81377742D01*
X155939286Y-81377742D02*
X155925000Y-81406314D01*
X155925000Y-81406314D02*
X155910715Y-81420600D01*
X155910715Y-81420600D02*
X155882143Y-81434885D01*
X155882143Y-81434885D02*
X155810715Y-81434885D01*
X155810715Y-81434885D02*
X155782143Y-81420600D01*
X155782143Y-81420600D02*
X155767857Y-81406314D01*
X156067857Y-81406314D02*
X156082143Y-81420600D01*
X156082143Y-81420600D02*
X156067857Y-81434885D01*
X156067857Y-81434885D02*
X156053571Y-81420600D01*
X156053571Y-81420600D02*
X156067857Y-81406314D01*
X156067857Y-81406314D02*
X156067857Y-81434885D01*
X156367857Y-81434885D02*
X156196428Y-81434885D01*
X156282143Y-81434885D02*
X156282143Y-81134885D01*
X156282143Y-81134885D02*
X156253571Y-81177742D01*
X156253571Y-81177742D02*
X156225000Y-81206314D01*
X156225000Y-81206314D02*
X156196428Y-81220600D01*
X156724999Y-81434885D02*
X156724999Y-81134885D01*
X156753571Y-81320600D02*
X156839285Y-81434885D01*
X156839285Y-81234885D02*
X156724999Y-81349171D01*
X156953570Y-81434885D02*
X157024999Y-81434885D01*
X157024999Y-81434885D02*
X157024999Y-81377742D01*
X157024999Y-81377742D02*
X156996428Y-81363457D01*
X156996428Y-81363457D02*
X156967856Y-81334885D01*
X156967856Y-81334885D02*
X156953570Y-81292028D01*
X156953570Y-81292028D02*
X156953570Y-81220600D01*
X156953570Y-81220600D02*
X156967856Y-81177742D01*
X156967856Y-81177742D02*
X156996428Y-81149171D01*
X156996428Y-81149171D02*
X157039285Y-81134885D01*
X157039285Y-81134885D02*
X157096428Y-81134885D01*
X157096428Y-81134885D02*
X157139285Y-81149171D01*
X157139285Y-81149171D02*
X157167856Y-81177742D01*
X157167856Y-81177742D02*
X157182142Y-81220600D01*
X157182142Y-81220600D02*
X157182142Y-81292028D01*
X157182142Y-81292028D02*
X157167856Y-81334885D01*
X157167856Y-81334885D02*
X157139285Y-81363457D01*
X157139285Y-81363457D02*
X157110713Y-81377742D01*
X157110713Y-81377742D02*
X157110713Y-81434885D01*
X157110713Y-81434885D02*
X157182142Y-81434885D01*
X120992858Y-115634885D02*
X120821429Y-115634885D01*
X120907144Y-115634885D02*
X120907144Y-115334885D01*
X120907144Y-115334885D02*
X120878572Y-115377742D01*
X120878572Y-115377742D02*
X120850001Y-115406314D01*
X120850001Y-115406314D02*
X120821429Y-115420600D01*
X121278572Y-115634885D02*
X121107143Y-115634885D01*
X121192858Y-115634885D02*
X121192858Y-115334885D01*
X121192858Y-115334885D02*
X121164286Y-115377742D01*
X121164286Y-115377742D02*
X121135715Y-115406314D01*
X121135715Y-115406314D02*
X121107143Y-115420600D01*
X121464286Y-115334885D02*
X121492857Y-115334885D01*
X121492857Y-115334885D02*
X121521429Y-115349171D01*
X121521429Y-115349171D02*
X121535715Y-115363457D01*
X121535715Y-115363457D02*
X121550000Y-115392028D01*
X121550000Y-115392028D02*
X121564286Y-115449171D01*
X121564286Y-115449171D02*
X121564286Y-115520600D01*
X121564286Y-115520600D02*
X121550000Y-115577742D01*
X121550000Y-115577742D02*
X121535715Y-115606314D01*
X121535715Y-115606314D02*
X121521429Y-115620600D01*
X121521429Y-115620600D02*
X121492857Y-115634885D01*
X121492857Y-115634885D02*
X121464286Y-115634885D01*
X121464286Y-115634885D02*
X121435715Y-115620600D01*
X121435715Y-115620600D02*
X121421429Y-115606314D01*
X121421429Y-115606314D02*
X121407143Y-115577742D01*
X121407143Y-115577742D02*
X121392857Y-115520600D01*
X121392857Y-115520600D02*
X121392857Y-115449171D01*
X121392857Y-115449171D02*
X121407143Y-115392028D01*
X121407143Y-115392028D02*
X121421429Y-115363457D01*
X121421429Y-115363457D02*
X121435715Y-115349171D01*
X121435715Y-115349171D02*
X121464286Y-115334885D01*
X121921428Y-115634885D02*
X121921428Y-115334885D01*
X121950000Y-115520600D02*
X122035714Y-115634885D01*
X122035714Y-115434885D02*
X121921428Y-115549171D01*
X122149999Y-115634885D02*
X122221428Y-115634885D01*
X122221428Y-115634885D02*
X122221428Y-115577742D01*
X122221428Y-115577742D02*
X122192857Y-115563457D01*
X122192857Y-115563457D02*
X122164285Y-115534885D01*
X122164285Y-115534885D02*
X122149999Y-115492028D01*
X122149999Y-115492028D02*
X122149999Y-115420600D01*
X122149999Y-115420600D02*
X122164285Y-115377742D01*
X122164285Y-115377742D02*
X122192857Y-115349171D01*
X122192857Y-115349171D02*
X122235714Y-115334885D01*
X122235714Y-115334885D02*
X122292857Y-115334885D01*
X122292857Y-115334885D02*
X122335714Y-115349171D01*
X122335714Y-115349171D02*
X122364285Y-115377742D01*
X122364285Y-115377742D02*
X122378571Y-115420600D01*
X122378571Y-115420600D02*
X122378571Y-115492028D01*
X122378571Y-115492028D02*
X122364285Y-115534885D01*
X122364285Y-115534885D02*
X122335714Y-115563457D01*
X122335714Y-115563457D02*
X122307142Y-115577742D01*
X122307142Y-115577742D02*
X122307142Y-115634885D01*
X122307142Y-115634885D02*
X122378571Y-115634885D01*
X135453572Y-117834885D02*
X135639286Y-117834885D01*
X135639286Y-117834885D02*
X135539286Y-117949171D01*
X135539286Y-117949171D02*
X135582143Y-117949171D01*
X135582143Y-117949171D02*
X135610715Y-117963457D01*
X135610715Y-117963457D02*
X135625000Y-117977742D01*
X135625000Y-117977742D02*
X135639286Y-118006314D01*
X135639286Y-118006314D02*
X135639286Y-118077742D01*
X135639286Y-118077742D02*
X135625000Y-118106314D01*
X135625000Y-118106314D02*
X135610715Y-118120600D01*
X135610715Y-118120600D02*
X135582143Y-118134885D01*
X135582143Y-118134885D02*
X135496429Y-118134885D01*
X135496429Y-118134885D02*
X135467857Y-118120600D01*
X135467857Y-118120600D02*
X135453572Y-118106314D01*
X135825000Y-117834885D02*
X135853571Y-117834885D01*
X135853571Y-117834885D02*
X135882143Y-117849171D01*
X135882143Y-117849171D02*
X135896429Y-117863457D01*
X135896429Y-117863457D02*
X135910714Y-117892028D01*
X135910714Y-117892028D02*
X135925000Y-117949171D01*
X135925000Y-117949171D02*
X135925000Y-118020600D01*
X135925000Y-118020600D02*
X135910714Y-118077742D01*
X135910714Y-118077742D02*
X135896429Y-118106314D01*
X135896429Y-118106314D02*
X135882143Y-118120600D01*
X135882143Y-118120600D02*
X135853571Y-118134885D01*
X135853571Y-118134885D02*
X135825000Y-118134885D01*
X135825000Y-118134885D02*
X135796429Y-118120600D01*
X135796429Y-118120600D02*
X135782143Y-118106314D01*
X135782143Y-118106314D02*
X135767857Y-118077742D01*
X135767857Y-118077742D02*
X135753571Y-118020600D01*
X135753571Y-118020600D02*
X135753571Y-117949171D01*
X135753571Y-117949171D02*
X135767857Y-117892028D01*
X135767857Y-117892028D02*
X135782143Y-117863457D01*
X135782143Y-117863457D02*
X135796429Y-117849171D01*
X135796429Y-117849171D02*
X135825000Y-117834885D01*
X136282142Y-117934885D02*
X136282142Y-118234885D01*
X136282142Y-117949171D02*
X136310714Y-117934885D01*
X136310714Y-117934885D02*
X136367856Y-117934885D01*
X136367856Y-117934885D02*
X136396428Y-117949171D01*
X136396428Y-117949171D02*
X136410714Y-117963457D01*
X136410714Y-117963457D02*
X136424999Y-117992028D01*
X136424999Y-117992028D02*
X136424999Y-118077742D01*
X136424999Y-118077742D02*
X136410714Y-118106314D01*
X136410714Y-118106314D02*
X136396428Y-118120600D01*
X136396428Y-118120600D02*
X136367856Y-118134885D01*
X136367856Y-118134885D02*
X136310714Y-118134885D01*
X136310714Y-118134885D02*
X136282142Y-118120600D01*
X136653571Y-117977742D02*
X136553571Y-117977742D01*
X136553571Y-118134885D02*
X136553571Y-117834885D01*
X136553571Y-117834885D02*
X136696428Y-117834885D01*
D12*
%TO.C,D1*%
X159090000Y-121379000D02*
G75*
G02*
X159030000Y-121379000I-30000J0D01*
G01*
X159030000Y-121379000D02*
G75*
G02*
X159090000Y-121379000I30000J0D01*
G01*
D13*
G36*
X159460000Y-122005000D02*
G01*
X158460000Y-122005000D01*
X158460000Y-121855000D01*
X159460000Y-121855000D01*
X159460000Y-122005000D01*
G37*
G36*
X161695000Y-122099000D02*
G01*
X160695000Y-122099000D01*
X160695000Y-121949000D01*
X161695000Y-121949000D01*
X161695000Y-122099000D01*
G37*
G36*
X161260000Y-122705000D02*
G01*
X161060000Y-122705000D01*
X161060000Y-121305000D01*
X161260000Y-121305000D01*
X161260000Y-122705000D01*
G37*
D12*
%TO.C,U1*%
X142594000Y-86899500D02*
G75*
G02*
X142534000Y-86899500I-30000J0D01*
G01*
X142534000Y-86899500D02*
G75*
G02*
X142594000Y-86899500I30000J0D01*
G01*
D13*
G36*
X143363000Y-86065500D02*
G01*
X142595000Y-86065500D01*
X142595000Y-85873500D01*
X143363000Y-85873500D01*
X143363000Y-86065500D01*
G37*
G36*
X146151000Y-86645500D02*
G01*
X145959000Y-86645500D01*
X145959000Y-85365500D01*
X146151000Y-85365500D01*
X146151000Y-86645500D01*
G37*
G36*
X146405000Y-86065500D02*
G01*
X145637000Y-86065500D01*
X145637000Y-85873500D01*
X146405000Y-85873500D01*
X146405000Y-86065500D01*
G37*
D12*
%TO.C,J2*%
X116048500Y-117000000D02*
G75*
G02*
X115988500Y-117000000I-30000J0D01*
G01*
X115988500Y-117000000D02*
G75*
G02*
X116048500Y-117000000I30000J0D01*
G01*
D14*
X117079500Y-114350000D02*
G75*
G02*
X116679500Y-114350000I-200000J0D01*
G01*
X116679500Y-114350000D02*
G75*
G02*
X117079500Y-114350000I200000J0D01*
G01*
D12*
%TO.C,S1*%
X133280000Y-127450500D02*
G75*
G02*
X133220000Y-127450500I-30000J0D01*
G01*
X133220000Y-127450500D02*
G75*
G02*
X133280000Y-127450500I30000J0D01*
G01*
%TO.C,L6*%
X164071000Y-126637000D02*
G75*
G02*
X164011000Y-126637000I-30000J0D01*
G01*
X164011000Y-126637000D02*
G75*
G02*
X164071000Y-126637000I30000J0D01*
G01*
%TO.C,L3*%
X149167000Y-105959000D02*
G75*
G02*
X149107000Y-105959000I-30000J0D01*
G01*
X149107000Y-105959000D02*
G75*
G02*
X149167000Y-105959000I30000J0D01*
G01*
%TO.C,L4*%
X118571000Y-102637000D02*
G75*
G02*
X118511000Y-102637000I-30000J0D01*
G01*
X118511000Y-102637000D02*
G75*
G02*
X118571000Y-102637000I30000J0D01*
G01*
%TO.C,S2*%
X143280000Y-127450500D02*
G75*
G02*
X143220000Y-127450500I-30000J0D01*
G01*
X143220000Y-127450500D02*
G75*
G02*
X143280000Y-127450500I30000J0D01*
G01*
%TO.C,L5*%
X164071000Y-90637000D02*
G75*
G02*
X164011000Y-90637000I-30000J0D01*
G01*
X164011000Y-90637000D02*
G75*
G02*
X164071000Y-90637000I30000J0D01*
G01*
%TD*%
M02*
