%TF.GenerationSoftware,KiCad,Pcbnew,9.0.9.1-1.fc43*%
%TF.CreationDate,2026-06-28T21:25:27-06:00*%
%TF.ProjectId,rp2350-console-v2-stitched,72703233-3530-42d6-936f-6e736f6c652d,rev?*%
%TF.SameCoordinates,Original*%
%TF.FileFunction,Other,User*%
%FSLAX46Y46*%
G04 Gerber Fmt 4.6, Leading zero omitted, Abs format (unit mm)*
G04 Created by KiCad (PCBNEW 9.0.9.1-1.fc43) date 2026-06-28 21:25:27*
%MOMM*%
%LPD*%
G01*
G04 APERTURE LIST*
%ADD10C,0.050000*%
G04 APERTURE END LIST*
D10*
%TO.C,D1*%
X157833000Y-120918000D02*
X157833000Y-123082000D01*
X157833000Y-123082000D02*
X162167000Y-123082000D01*
X162167000Y-120918000D02*
X157833000Y-120918000D01*
X162167000Y-123082000D02*
X162167000Y-120918000D01*
%TO.C,C21*%
X143075000Y-116975000D02*
X143075000Y-119025000D01*
X143075000Y-119025000D02*
X144325000Y-119025000D01*
X144325000Y-116975000D02*
X143075000Y-116975000D01*
X144325000Y-119025000D02*
X144325000Y-116975000D01*
%TO.C,R21*%
X121875000Y-118475000D02*
X121875000Y-120525000D01*
X121875000Y-120525000D02*
X123125000Y-120525000D01*
X123125000Y-118475000D02*
X121875000Y-118475000D01*
X123125000Y-120525000D02*
X123125000Y-118475000D01*
%TO.C,R12*%
X131750000Y-109300000D02*
X131750000Y-110700000D01*
X131750000Y-110700000D02*
X132650000Y-110700000D01*
X132650000Y-109300000D02*
X131750000Y-109300000D01*
X132650000Y-110700000D02*
X132650000Y-109300000D01*
%TO.C,R17*%
X119875000Y-97975000D02*
X119875000Y-100025000D01*
X119875000Y-100025000D02*
X121125000Y-100025000D01*
X121125000Y-97975000D02*
X119875000Y-97975000D01*
X121125000Y-100025000D02*
X121125000Y-97975000D01*
%TO.C,D5*%
X163150000Y-113550000D02*
X166850000Y-113550000D01*
X163150000Y-116450000D02*
X163150000Y-113550000D01*
X166850000Y-113550000D02*
X166850000Y-116450000D01*
X166850000Y-116450000D02*
X163150000Y-116450000D01*
%TO.C,C25*%
X124575000Y-121475000D02*
X124575000Y-123525000D01*
X124575000Y-123525000D02*
X125825000Y-123525000D01*
X125825000Y-121475000D02*
X124575000Y-121475000D01*
X125825000Y-123525000D02*
X125825000Y-121475000D01*
%TO.C,D2*%
X124600000Y-105950000D02*
X124600000Y-113050000D01*
X124600000Y-113050000D02*
X128400000Y-113050000D01*
X128400000Y-105950000D02*
X124600000Y-105950000D01*
X128400000Y-113050000D02*
X128400000Y-105950000D01*
%TO.C,U1*%
X142384000Y-85047500D02*
X142384000Y-86952500D01*
X142384000Y-86952500D02*
X146616000Y-86952500D01*
X146616000Y-85047500D02*
X142384000Y-85047500D01*
X146616000Y-86952500D02*
X146616000Y-85047500D01*
%TO.C,R8*%
X131750000Y-105300000D02*
X131750000Y-106700000D01*
X131750000Y-106700000D02*
X132650000Y-106700000D01*
X132650000Y-105300000D02*
X131750000Y-105300000D01*
X132650000Y-106700000D02*
X132650000Y-105300000D01*
%TO.C,R6*%
X152875000Y-127475000D02*
X152875000Y-129525000D01*
X152875000Y-129525000D02*
X154125000Y-129525000D01*
X154125000Y-127475000D02*
X152875000Y-127475000D01*
X154125000Y-129525000D02*
X154125000Y-127475000D01*
%TO.C,R7*%
X155375000Y-120975000D02*
X155375000Y-123025000D01*
X155375000Y-123025000D02*
X156625000Y-123025000D01*
X156625000Y-120975000D02*
X155375000Y-120975000D01*
X156625000Y-123025000D02*
X156625000Y-120975000D01*
%TO.C,R24*%
X143600000Y-95036900D02*
X143600000Y-96436900D01*
X143600000Y-96436900D02*
X144500000Y-96436900D01*
X144500000Y-95036900D02*
X143600000Y-95036900D01*
X144500000Y-96436900D02*
X144500000Y-95036900D01*
%TO.C,R9*%
X129750000Y-105300000D02*
X129750000Y-106700000D01*
X129750000Y-106700000D02*
X130650000Y-106700000D01*
X130650000Y-105300000D02*
X129750000Y-105300000D01*
X130650000Y-106700000D02*
X130650000Y-105300000D01*
%TO.C,R3*%
X152550000Y-86300000D02*
X152550000Y-87700000D01*
X152550000Y-87700000D02*
X153450000Y-87700000D01*
X153450000Y-86300000D02*
X152550000Y-86300000D01*
X153450000Y-87700000D02*
X153450000Y-86300000D01*
%TO.C,D3*%
X163150000Y-99550000D02*
X166850000Y-99550000D01*
X163150000Y-102450000D02*
X163150000Y-99550000D01*
X166850000Y-99550000D02*
X166850000Y-102450000D01*
X166850000Y-102450000D02*
X163150000Y-102450000D01*
%TO.C,C1*%
X160200000Y-83600000D02*
X160200000Y-86400000D01*
X160200000Y-86400000D02*
X161800000Y-86400000D01*
X161800000Y-83600000D02*
X160200000Y-83600000D01*
X161800000Y-86400000D02*
X161800000Y-83600000D01*
%TO.C,R4*%
X152550000Y-88300000D02*
X152550000Y-89700000D01*
X152550000Y-89700000D02*
X153450000Y-89700000D01*
X153450000Y-88300000D02*
X152550000Y-88300000D01*
X153450000Y-89700000D02*
X153450000Y-88300000D01*
%TO.C,J1*%
X145030000Y-76825000D02*
X145030000Y-84175000D01*
X145030000Y-84175000D02*
X153970000Y-84175000D01*
X153970000Y-76825000D02*
X145030000Y-76825000D01*
X153970000Y-84175000D02*
X153970000Y-76825000D01*
%TO.C,U2*%
X155650000Y-83525000D02*
X159350000Y-83525000D01*
X155650000Y-86475000D02*
X155650000Y-83525000D01*
X159350000Y-83525000D02*
X159350000Y-86475000D01*
X159350000Y-86475000D02*
X155650000Y-86475000D01*
%TO.C,C26*%
X121875000Y-121475000D02*
X121875000Y-123525000D01*
X121875000Y-123525000D02*
X123125000Y-123525000D01*
X123125000Y-121475000D02*
X121875000Y-121475000D01*
X123125000Y-123525000D02*
X123125000Y-121475000D01*
%TO.C,R14*%
X131750000Y-111300000D02*
X131750000Y-112700000D01*
X131750000Y-112700000D02*
X132650000Y-112700000D01*
X132650000Y-111300000D02*
X131750000Y-111300000D01*
X132650000Y-112700000D02*
X132650000Y-111300000D01*
%TO.C,C28*%
X127700000Y-123400000D02*
X127700000Y-126200000D01*
X127700000Y-126200000D02*
X129300000Y-126200000D01*
X129300000Y-123400000D02*
X127700000Y-123400000D01*
X129300000Y-126200000D02*
X129300000Y-123400000D01*
%TO.C,Y1*%
X137200000Y-116400000D02*
X137200000Y-119600000D01*
X137200000Y-119600000D02*
X141800000Y-119600000D01*
X141800000Y-116400000D02*
X137200000Y-116400000D01*
X141800000Y-119600000D02*
X141800000Y-116400000D01*
%TO.C,J4*%
X169162100Y-109417100D02*
X171837900Y-109417100D01*
X169162100Y-134587900D02*
X169162100Y-109417100D01*
X171837900Y-109417100D02*
X171837900Y-134587900D01*
X171837900Y-134587900D02*
X169162100Y-134587900D01*
%TO.C,U5*%
X126600000Y-119450000D02*
X132400000Y-119450000D01*
X126600000Y-122550000D02*
X126600000Y-119450000D01*
X132400000Y-119450000D02*
X132400000Y-122550000D01*
X132400000Y-122550000D02*
X126600000Y-122550000D01*
%TO.C,J2*%
X103520500Y-101449000D02*
X103520500Y-117551000D01*
X103520500Y-117551000D02*
X116479500Y-117551000D01*
X116479500Y-101449000D02*
X103520500Y-101449000D01*
X116479500Y-117551000D02*
X116479500Y-101449000D01*
%TO.C,J5*%
X127356153Y-135347794D02*
X131650000Y-135347794D01*
X127356153Y-137652206D02*
X127356153Y-135347794D01*
X131650000Y-135347794D02*
X131650000Y-137652206D01*
X131650000Y-137652206D02*
X127356153Y-137652206D01*
%TO.C,S1*%
X132299000Y-127322500D02*
X132299000Y-132677500D01*
X132299000Y-132677500D02*
X140701000Y-132677500D01*
X140701000Y-127322500D02*
X132299000Y-127322500D01*
X140701000Y-132677500D02*
X140701000Y-127322500D01*
%TO.C,U4*%
X131600000Y-95310000D02*
X140400000Y-95310000D01*
X131600000Y-100690000D02*
X131600000Y-95310000D01*
X140400000Y-95310000D02*
X140400000Y-100690000D01*
X140400000Y-100690000D02*
X131600000Y-100690000D01*
%TO.C,R15*%
X129750000Y-111300000D02*
X129750000Y-112700000D01*
X129750000Y-112700000D02*
X130650000Y-112700000D01*
X130650000Y-111300000D02*
X129750000Y-111300000D01*
X130650000Y-112700000D02*
X130650000Y-111300000D01*
%TO.C,L6*%
X162968000Y-124857000D02*
X162968000Y-127143000D01*
X162968000Y-127143000D02*
X167032000Y-127143000D01*
X167032000Y-124857000D02*
X162968000Y-124857000D01*
X167032000Y-127143000D02*
X167032000Y-124857000D01*
%TO.C,L3*%
X147357000Y-102968000D02*
X147357000Y-107032000D01*
X147357000Y-107032000D02*
X149643000Y-107032000D01*
X149643000Y-102968000D02*
X147357000Y-102968000D01*
X149643000Y-107032000D02*
X149643000Y-102968000D01*
%TO.C,R23*%
X141873500Y-94987400D02*
X141873500Y-96387400D01*
X141873500Y-96387400D02*
X142773500Y-96387400D01*
X142773500Y-94987400D02*
X141873500Y-94987400D01*
X142773500Y-96387400D02*
X142773500Y-94987400D01*
%TO.C,C27*%
X133075000Y-120700000D02*
X133075000Y-121950000D01*
X133075000Y-121950000D02*
X135125000Y-121950000D01*
X135125000Y-120700000D02*
X133075000Y-120700000D01*
X135125000Y-121950000D02*
X135125000Y-120700000D01*
%TO.C,R5*%
X146050000Y-98300000D02*
X146050000Y-99700000D01*
X146050000Y-99700000D02*
X146950000Y-99700000D01*
X146950000Y-98300000D02*
X146050000Y-98300000D01*
X146950000Y-99700000D02*
X146950000Y-98300000D01*
%TO.C,C23*%
X164200000Y-83600000D02*
X164200000Y-86400000D01*
X164200000Y-86400000D02*
X165800000Y-86400000D01*
X165800000Y-83600000D02*
X164200000Y-83600000D01*
X165800000Y-86400000D02*
X165800000Y-83600000D01*
%TO.C,J3*%
X169162100Y-81417100D02*
X171837900Y-81417100D01*
X169162100Y-106587900D02*
X169162100Y-81417100D01*
X171837900Y-81417100D02*
X171837900Y-106587900D01*
X171837900Y-106587900D02*
X169162100Y-106587900D01*
%TO.C,R26*%
X131279400Y-101527900D02*
X131279400Y-103577900D01*
X131279400Y-103577900D02*
X132529400Y-103577900D01*
X132529400Y-101527900D02*
X131279400Y-101527900D01*
X132529400Y-103577900D02*
X132529400Y-101527900D01*
%TO.C,R25*%
X145353500Y-115457300D02*
X145353500Y-117507300D01*
X145353500Y-117507300D02*
X146603500Y-117507300D01*
X146603500Y-115457300D02*
X145353500Y-115457300D01*
X146603500Y-117507300D02*
X146603500Y-115457300D01*
%TO.C,R20*%
X124575000Y-118475000D02*
X124575000Y-120525000D01*
X124575000Y-120525000D02*
X125825000Y-120525000D01*
X125825000Y-118475000D02*
X124575000Y-118475000D01*
X125825000Y-120525000D02*
X125825000Y-118475000D01*
%TO.C,L4*%
X117468000Y-100857000D02*
X117468000Y-103143000D01*
X117468000Y-103143000D02*
X121532000Y-103143000D01*
X121532000Y-100857000D02*
X117468000Y-100857000D01*
X121532000Y-103143000D02*
X121532000Y-100857000D01*
%TO.C,L2*%
X142350000Y-97250000D02*
X142350000Y-100750000D01*
X142350000Y-100750000D02*
X144650000Y-100750000D01*
X144650000Y-97250000D02*
X142350000Y-97250000D01*
X144650000Y-100750000D02*
X144650000Y-97250000D01*
%TO.C,C22*%
X152875000Y-130475000D02*
X152875000Y-132525000D01*
X152875000Y-132525000D02*
X154125000Y-132525000D01*
X154125000Y-130475000D02*
X152875000Y-130475000D01*
X154125000Y-132525000D02*
X154125000Y-130475000D01*
%TO.C,C2*%
X160200000Y-87600000D02*
X160200000Y-90400000D01*
X160200000Y-90400000D02*
X161800000Y-90400000D01*
X161800000Y-87600000D02*
X160200000Y-87600000D01*
X161800000Y-90400000D02*
X161800000Y-87600000D01*
%TO.C,S2*%
X142299000Y-127322500D02*
X142299000Y-132677500D01*
X142299000Y-132677500D02*
X150701000Y-132677500D01*
X150701000Y-127322500D02*
X142299000Y-127322500D01*
X150701000Y-132677500D02*
X150701000Y-127322500D01*
%TO.C,R10*%
X131750000Y-107300000D02*
X131750000Y-108700000D01*
X131750000Y-108700000D02*
X132650000Y-108700000D01*
X132650000Y-107300000D02*
X131750000Y-107300000D01*
X132650000Y-108700000D02*
X132650000Y-107300000D01*
%TO.C,R2*%
X155075000Y-77275000D02*
X155075000Y-79325000D01*
X155075000Y-79325000D02*
X156325000Y-79325000D01*
X156325000Y-77275000D02*
X155075000Y-77275000D01*
X156325000Y-79325000D02*
X156325000Y-77275000D01*
%TO.C,C24*%
X164200000Y-129600000D02*
X164200000Y-132400000D01*
X164200000Y-132400000D02*
X165800000Y-132400000D01*
X165800000Y-129600000D02*
X164200000Y-129600000D01*
X165800000Y-132400000D02*
X165800000Y-129600000D01*
%TO.C,R16*%
X122875000Y-97975000D02*
X122875000Y-100025000D01*
X122875000Y-100025000D02*
X124125000Y-100025000D01*
X124125000Y-97975000D02*
X122875000Y-97975000D01*
X124125000Y-100025000D02*
X124125000Y-97975000D01*
%TO.C,R22*%
X124575000Y-115475000D02*
X124575000Y-117525000D01*
X124575000Y-117525000D02*
X125825000Y-117525000D01*
X125825000Y-115475000D02*
X124575000Y-115475000D01*
X125825000Y-117525000D02*
X125825000Y-115475000D01*
%TO.C,U3*%
X134100000Y-102600000D02*
X144900000Y-102600000D01*
X134100000Y-113400000D02*
X134100000Y-102600000D01*
X144900000Y-102600000D02*
X144900000Y-113400000D01*
X144900000Y-113400000D02*
X134100000Y-113400000D01*
%TO.C,R11*%
X129750000Y-107300000D02*
X129750000Y-108700000D01*
X129750000Y-108700000D02*
X130650000Y-108700000D01*
X130650000Y-107300000D02*
X129750000Y-107300000D01*
X130650000Y-108700000D02*
X130650000Y-107300000D01*
%TO.C,L5*%
X162968000Y-88857000D02*
X162968000Y-91143000D01*
X162968000Y-91143000D02*
X167032000Y-91143000D01*
X167032000Y-88857000D02*
X162968000Y-88857000D01*
X167032000Y-91143000D02*
X167032000Y-88857000D01*
%TO.C,R19*%
X118050000Y-114800000D02*
X118050000Y-116200000D01*
X118050000Y-116200000D02*
X118950000Y-116200000D01*
X118950000Y-114800000D02*
X118050000Y-114800000D01*
X118950000Y-116200000D02*
X118950000Y-114800000D01*
%TO.C,L1*%
X156700000Y-88100000D02*
X156700000Y-90900000D01*
X156700000Y-90900000D02*
X158300000Y-90900000D01*
X158300000Y-88100000D02*
X156700000Y-88100000D01*
X158300000Y-90900000D02*
X158300000Y-88100000D01*
%TO.C,D6*%
X163150000Y-119050000D02*
X166850000Y-119050000D01*
X163150000Y-121950000D02*
X163150000Y-119050000D01*
X166850000Y-119050000D02*
X166850000Y-121950000D01*
X166850000Y-121950000D02*
X163150000Y-121950000D01*
%TO.C,R13*%
X129750000Y-109300000D02*
X129750000Y-110700000D01*
X129750000Y-110700000D02*
X130650000Y-110700000D01*
X130650000Y-109300000D02*
X129750000Y-109300000D01*
X130650000Y-110700000D02*
X130650000Y-109300000D01*
%TO.C,R1*%
X155075000Y-80275000D02*
X155075000Y-82325000D01*
X155075000Y-82325000D02*
X156325000Y-82325000D01*
X156325000Y-80275000D02*
X155075000Y-80275000D01*
X156325000Y-82325000D02*
X156325000Y-80275000D01*
%TO.C,D4*%
X163150000Y-94050000D02*
X166850000Y-94050000D01*
X163150000Y-96950000D02*
X163150000Y-94050000D01*
X166850000Y-94050000D02*
X166850000Y-96950000D01*
X166850000Y-96950000D02*
X163150000Y-96950000D01*
%TO.C,R18*%
X120550000Y-114800000D02*
X120550000Y-116200000D01*
X120550000Y-116200000D02*
X121450000Y-116200000D01*
X121450000Y-114800000D02*
X120550000Y-114800000D01*
X121450000Y-116200000D02*
X121450000Y-114800000D01*
%TO.C,C20*%
X134675000Y-116975000D02*
X134675000Y-119025000D01*
X134675000Y-119025000D02*
X135925000Y-119025000D01*
X135925000Y-116975000D02*
X134675000Y-116975000D01*
X135925000Y-119025000D02*
X135925000Y-116975000D01*
%TD*%
M02*
