%TF.GenerationSoftware,KiCad,Pcbnew,9.0.9.1-1.fc43*%
%TF.CreationDate,2026-06-28T21:25:27-06:00*%
%TF.ProjectId,rp2350-console-v2-stitched,72703233-3530-42d6-936f-6e736f6c652d,rev?*%
%TF.SameCoordinates,Original*%
%TF.FileFunction,Paste,Bot*%
%TF.FilePolarity,Positive*%
%FSLAX46Y46*%
G04 Gerber Fmt 4.6, Leading zero omitted, Abs format (unit mm)*
G04 Created by KiCad (PCBNEW 9.0.9.1-1.fc43) date 2026-06-28 21:25:27*
%MOMM*%
%LPD*%
G01*
G04 APERTURE LIST*
%ADD10C,0.000000*%
G04 APERTURE END LIST*
D10*
%TO.C,C19*%
G36*
X139925000Y-96330279D02*
G01*
X139325000Y-96330279D01*
X139325000Y-96049999D01*
X139925000Y-96049999D01*
X139925000Y-96330279D01*
G37*
G36*
X139925000Y-97150001D02*
G01*
X139325000Y-97150001D01*
X139325000Y-96869721D01*
X139925000Y-96869721D01*
X139925000Y-97150001D01*
G37*
%TO.C,C30*%
G36*
X145001000Y-108280279D02*
G01*
X144401000Y-108280279D01*
X144401000Y-107999999D01*
X145001000Y-107999999D01*
X145001000Y-108280279D01*
G37*
G36*
X145001000Y-109100001D02*
G01*
X144401000Y-109100001D01*
X144401000Y-108819721D01*
X145001000Y-108819721D01*
X145001000Y-109100001D01*
G37*
%TO.C,C14*%
G36*
X139500000Y-101730279D02*
G01*
X138900000Y-101730279D01*
X138900000Y-101449999D01*
X139500000Y-101449999D01*
X139500000Y-101730279D01*
G37*
G36*
X139500000Y-102550001D02*
G01*
X138900000Y-102550001D01*
X138900000Y-102269721D01*
X139500000Y-102269721D01*
X139500000Y-102550001D01*
G37*
%TO.C,C18*%
G36*
X143750000Y-116360558D02*
G01*
X142450000Y-116360558D01*
X142450000Y-115649998D01*
X143750000Y-115649998D01*
X143750000Y-116360558D01*
G37*
G36*
X143750000Y-118150002D02*
G01*
X142450000Y-118150002D01*
X142450000Y-117439442D01*
X143750000Y-117439442D01*
X143750000Y-118150002D01*
G37*
%TO.C,C6*%
G36*
X132832335Y-104624119D02*
G01*
X132578764Y-105167903D01*
X132324744Y-105049452D01*
X132578315Y-104505667D01*
X132832335Y-104624119D01*
G37*
G36*
X133575256Y-104970548D02*
G01*
X133321685Y-105514333D01*
X133067665Y-105395881D01*
X133321236Y-104852097D01*
X133575256Y-104970548D01*
G37*
%TO.C,C15*%
G36*
X142300000Y-101730279D02*
G01*
X141700000Y-101730279D01*
X141700000Y-101449999D01*
X142300000Y-101449999D01*
X142300000Y-101730279D01*
G37*
G36*
X142300000Y-102550001D02*
G01*
X141700000Y-102550001D01*
X141700000Y-102269721D01*
X142300000Y-102269721D01*
X142300000Y-102550001D01*
G37*
%TO.C,C16*%
G36*
X147651130Y-104400451D02*
G01*
X147421538Y-104561213D01*
X147077393Y-104069722D01*
X147306985Y-103908960D01*
X147651130Y-104400451D01*
G37*
G36*
X148322607Y-103930278D02*
G01*
X148093015Y-104091040D01*
X147748870Y-103599549D01*
X147978462Y-103438787D01*
X148322607Y-103930278D01*
G37*
%TO.C,C3*%
G36*
X142800000Y-98330279D02*
G01*
X142200000Y-98330279D01*
X142200000Y-98049999D01*
X142800000Y-98049999D01*
X142800000Y-98330279D01*
G37*
G36*
X142800000Y-99150001D02*
G01*
X142200000Y-99150001D01*
X142200000Y-98869721D01*
X142800000Y-98869721D01*
X142800000Y-99150001D01*
G37*
%TO.C,C29*%
G36*
X140900000Y-114230279D02*
G01*
X140300000Y-114230279D01*
X140300000Y-113949999D01*
X140900000Y-113949999D01*
X140900000Y-114230279D01*
G37*
G36*
X140900000Y-115050001D02*
G01*
X140300000Y-115050001D01*
X140300000Y-114769721D01*
X140900000Y-114769721D01*
X140900000Y-115050001D01*
G37*
%TO.C,C5*%
G36*
X146870346Y-99797241D02*
G01*
X146697789Y-100018105D01*
X146224982Y-99648708D01*
X146397540Y-99427845D01*
X146870346Y-99797241D01*
G37*
G36*
X147375018Y-99151292D02*
G01*
X147202460Y-99372155D01*
X146729654Y-99002759D01*
X146902211Y-98781895D01*
X147375018Y-99151292D01*
G37*
%TO.C,C17*%
G36*
X134650000Y-116960558D02*
G01*
X133350000Y-116960558D01*
X133350000Y-116249998D01*
X134650000Y-116249998D01*
X134650000Y-116960558D01*
G37*
G36*
X134650000Y-118750002D02*
G01*
X133350000Y-118750002D01*
X133350000Y-118039442D01*
X134650000Y-118039442D01*
X134650000Y-118750002D01*
G37*
%TO.C,C12*%
G36*
X145122155Y-103932460D02*
G01*
X144901292Y-104105018D01*
X144531895Y-103632211D01*
X144752759Y-103459654D01*
X145122155Y-103932460D01*
G37*
G36*
X145768105Y-103427789D02*
G01*
X145547241Y-103600346D01*
X145177845Y-103127540D01*
X145398708Y-102954982D01*
X145768105Y-103427789D01*
G37*
%TO.C,C10*%
G36*
X146715180Y-112070404D02*
G01*
X146345784Y-112543210D01*
X146124920Y-112370653D01*
X146494317Y-111897846D01*
X146715180Y-112070404D01*
G37*
G36*
X147361130Y-112575075D02*
G01*
X146991733Y-113047882D01*
X146770870Y-112875324D01*
X147140266Y-112402518D01*
X147361130Y-112575075D01*
G37*
%TO.C,C7*%
G36*
X132615704Y-110906733D02*
G01*
X132354040Y-111007177D01*
X132139019Y-110447029D01*
X132400683Y-110346585D01*
X132615704Y-110906733D01*
G37*
G36*
X133380981Y-110612971D02*
G01*
X133119317Y-110713415D01*
X132904296Y-110153267D01*
X133165960Y-110052823D01*
X133380981Y-110612971D01*
G37*
%TO.C,C8*%
G36*
X136208258Y-114708991D02*
G01*
X136076674Y-114956464D01*
X135546906Y-114674781D01*
X135678489Y-114427308D01*
X136208258Y-114708991D01*
G37*
G36*
X136593094Y-113985219D02*
G01*
X136461511Y-114232692D01*
X135931742Y-113951009D01*
X136063326Y-113703536D01*
X136593094Y-113985219D01*
G37*
%TO.C,C11*%
G36*
X146430913Y-107990770D02*
G01*
X146409973Y-108590404D01*
X146129864Y-108580622D01*
X146150804Y-107980988D01*
X146430913Y-107990770D01*
G37*
G36*
X147250136Y-108019378D02*
G01*
X147229196Y-108619012D01*
X146949087Y-108609230D01*
X146970027Y-108009596D01*
X147250136Y-108019378D01*
G37*
%TO.C,C13*%
G36*
X136667903Y-101078764D02*
G01*
X136124119Y-101332335D01*
X136005667Y-101078315D01*
X136549452Y-100824744D01*
X136667903Y-101078764D01*
G37*
G36*
X137014333Y-101821685D02*
G01*
X136470548Y-102075256D01*
X136352097Y-101821236D01*
X136895881Y-101567665D01*
X137014333Y-101821685D01*
G37*
%TO.C,C4*%
G36*
X130640913Y-107390770D02*
G01*
X130619973Y-107990404D01*
X130339864Y-107980622D01*
X130360804Y-107380988D01*
X130640913Y-107390770D01*
G37*
G36*
X131460136Y-107419378D02*
G01*
X131439196Y-108019012D01*
X131159087Y-108009230D01*
X131180027Y-107409596D01*
X131460136Y-107419378D01*
G37*
%TO.C,C9*%
G36*
X138874893Y-115444271D02*
G01*
X138840736Y-115722462D01*
X138245208Y-115649341D01*
X138279365Y-115371150D01*
X138874893Y-115444271D01*
G37*
G36*
X138974792Y-114630659D02*
G01*
X138940635Y-114908850D01*
X138345107Y-114835729D01*
X138379264Y-114557538D01*
X138974792Y-114630659D01*
G37*
%TD*%
M02*
