M48
; DRILL file {KiCad 9.0.9.1-1.fc43} date 2026-06-28T21:25:28-0600
; FORMAT={-:-/ absolute / metric / decimal}
; #@! TF.CreationDate,2026-06-28T21:25:28-06:00
; #@! TF.GenerationSoftware,Kicad,Pcbnew,9.0.9.1-1.fc43
; #@! TF.FileFunction,MixedPlating,1,4
FMAT,2
METRIC
; #@! TA.AperFunction,Plated,PTH,ViaDrill
T1C0.300
; #@! TA.AperFunction,Plated,PTH,ComponentDrill
T2C0.700
; #@! TA.AperFunction,Plated,PTH,ComponentDrill
T3C0.750
; #@! TA.AperFunction,Plated,PTH,ComponentDrill
T4C0.800
; #@! TA.AperFunction,Plated,PTH,ComponentDrill
T5C1.000
; #@! TA.AperFunction,Plated,PTH,ComponentDrill
T6C1.015
%
G90
G05
T1
X105.475Y-80.975
X105.475Y-84.975
X105.475Y-88.975
X105.475Y-92.975
X105.475Y-96.975
X105.475Y-100.975
X105.475Y-104.975
X105.475Y-108.975
X105.475Y-112.975
X105.475Y-116.975
X105.475Y-120.975
X105.475Y-124.975
X105.475Y-128.975
X105.475Y-132.975
X109.475Y-76.975
X109.475Y-80.975
X109.475Y-84.975
X109.475Y-88.975
X109.475Y-92.975
X109.475Y-96.975
X109.475Y-100.975
X109.475Y-104.975
X109.475Y-108.975
X109.475Y-112.975
X109.475Y-120.975
X109.475Y-124.975
X109.475Y-128.975
X109.475Y-132.975
X109.475Y-136.975
X112.114Y-110.451
X112.42Y-112.014
X112.497Y-108.687
X112.578Y-106.344
X113.475Y-76.975
X113.475Y-80.975
X113.475Y-84.975
X113.475Y-88.975
X113.475Y-92.975
X113.475Y-96.975
X113.475Y-120.975
X113.475Y-124.975
X113.475Y-128.975
X113.475Y-132.975
X113.475Y-136.975
X116.928Y-100.543
X117.19Y-103.159
X117.383Y-111.361
X117.475Y-76.975
X117.475Y-80.975
X117.475Y-84.975
X117.475Y-88.975
X117.475Y-92.975
X117.475Y-96.975
X117.475Y-116.975
X117.475Y-120.975
X117.475Y-124.975
X117.475Y-128.975
X117.475Y-132.975
X117.475Y-136.975
X117.692Y-105.695
X117.877Y-113.006
X118.2Y-115.97
X118.999Y-110.668
X119.182Y-100.365
X119.75Y-114.809
X120.925Y-99.563
X121.047Y-106.715
X121.475Y-76.975
X121.475Y-80.975
X121.475Y-84.975
X121.475Y-88.975
X121.475Y-92.975
X121.475Y-96.975
X121.475Y-116.975
X121.475Y-124.975
X121.475Y-128.975
X121.475Y-132.975
X121.475Y-136.975
X121.935Y-107.9
X122.549Y-110.775
X122.779Y-108.461
X123.925Y-99.563
X124.021Y-116.978
X124.028Y-112.09
X124.084Y-108.76
X124.246Y-110.861
X124.308Y-123.977
X124.562Y-100.872
X124.825Y-117.063
X125.266Y-118.0
X125.437Y-112.885
X125.475Y-76.975
X125.475Y-80.975
X125.475Y-84.975
X125.475Y-88.975
X125.475Y-92.975
X125.475Y-96.975
X125.475Y-100.975
X125.475Y-104.975
X125.475Y-124.975
X125.475Y-128.975
X125.475Y-132.975
X125.475Y-136.975
X126.304Y-121.805
X126.746Y-104.699
X127.076Y-108.671
X127.469Y-113.632
X127.559Y-110.312
X127.8Y-122.125
X127.991Y-126.898
X128.837Y-105.488
X128.992Y-111.339
X129.1Y-110.451
X129.101Y-107.999
X129.226Y-104.704
X129.286Y-102.794
X129.475Y-76.975
X129.475Y-80.975
X129.475Y-84.975
X129.475Y-88.975
X129.475Y-92.975
X129.475Y-96.975
X129.475Y-100.975
X129.475Y-112.975
X129.475Y-116.975
X129.475Y-128.975
X129.475Y-132.975
X129.542Y-120.259
X129.975Y-125.07
X131.159Y-120.66
X131.22Y-109.166
X131.343Y-111.828
X131.356Y-110.224
X131.408Y-104.887
X131.434Y-106.058
X132.032Y-125.163
X132.1Y-99.755
X132.826Y-103.669
X133.011Y-112.362
X133.144Y-108.843
X133.35Y-118.739
X133.427Y-106.144
X133.475Y-76.975
X133.475Y-80.975
X133.475Y-84.975
X133.475Y-88.975
X133.475Y-92.975
X133.475Y-124.975
X133.475Y-132.975
X133.475Y-136.975
X133.545Y-111.302
X133.715Y-107.188
X133.75Y-116.45
X133.787Y-113.935
X133.796Y-104.485
X133.828Y-102.238
X133.838Y-109.897
X133.95Y-131.451
X134.218Y-99.571
X134.413Y-115.194
X134.714Y-112.678
X134.825Y-118.863
X134.868Y-103.19
X134.963Y-120.95
X134.999Y-114.643
X135.308Y-105.915
X135.309Y-107.896
X135.325Y-108.719
X135.464Y-113.69
X135.673Y-102.335
X135.761Y-97.783
X135.934Y-104.12
X136.108Y-115.891
X136.214Y-104.868
X136.438Y-112.146
X136.763Y-107.489
X137.016Y-105.1
X137.166Y-100.769
X137.175Y-114.621
X137.475Y-76.975
X137.475Y-80.975
X137.475Y-84.975
X137.475Y-88.975
X137.475Y-92.975
X137.475Y-96.975
X137.475Y-120.975
X137.475Y-124.975
X137.475Y-128.975
X137.475Y-132.975
X137.475Y-136.975
X137.507Y-98.607
X137.58Y-111.887
X137.62Y-103.836
X137.68Y-102.3
X137.7Y-117.45
X137.787Y-101.4
X137.895Y-104.882
X138.036Y-111.347
X138.125Y-96.174
X138.145Y-113.663
X138.667Y-110.97
X138.764Y-95.586
X138.798Y-103.836
X138.848Y-112.104
X138.95Y-132.35
X139.279Y-114.038
X139.395Y-116.764
X139.457Y-115.337
X139.5Y-107.6
X139.501Y-95.179
X139.502Y-100.799
X139.527Y-104.763
X139.862Y-110.562
X140.213Y-103.837
X140.916Y-110.211
X141.125Y-97.027
X141.201Y-111.962
X141.475Y-76.975
X141.475Y-80.975
X141.475Y-84.975
X141.475Y-88.975
X141.475Y-92.975
X141.475Y-108.975
X141.475Y-128.975
X141.475Y-132.975
X141.475Y-136.975
X141.493Y-97.897
X141.527Y-113.785
X141.548Y-127.614
X141.595Y-118.749
X141.689Y-115.404
X141.723Y-100.434
X142.001Y-103.85
X142.218Y-107.438
X142.672Y-104.725
X143.65Y-118.139
X143.817Y-96.963
X143.95Y-132.35
X143.958Y-103.516
X144.125Y-118.863
X144.281Y-102.669
X144.374Y-113.106
X144.48Y-90.834
X144.732Y-103.86
X145.047Y-98.489
X145.224Y-107.288
X145.475Y-88.975
X145.475Y-96.975
X145.475Y-124.975
X145.475Y-128.975
X145.475Y-132.975
X145.475Y-136.975
X145.578Y-103.255
X145.875Y-113.338
X146.135Y-85.501
X146.2Y-83.32
X146.259Y-108.785
X146.301Y-100.644
X146.349Y-107.376
X146.758Y-102.891
X146.768Y-106.367
X146.97Y-97.708
X147.108Y-100.824
X147.332Y-108.757
X147.375Y-98.695
X147.828Y-112.116
X148.95Y-132.35
X149.112Y-106.459
X149.475Y-76.975
X149.475Y-92.975
X149.475Y-96.975
X149.475Y-108.975
X149.475Y-112.975
X149.475Y-124.975
X149.475Y-132.975
X149.475Y-136.975
X149.648Y-102.965
X151.597Y-84.163
X151.702Y-85.855
X152.7Y-83.12
X152.7Y-86.55
X152.7Y-89.37
X153.025Y-132.363
X153.475Y-84.975
X153.475Y-92.975
X153.475Y-96.975
X153.475Y-108.975
X153.475Y-112.975
X153.475Y-124.975
X153.475Y-136.975
X153.925Y-129.063
X154.829Y-129.733
X156.125Y-78.863
X156.125Y-81.863
X156.267Y-90.177
X156.75Y-84.89
X156.85Y-90.739
X157.475Y-76.975
X157.475Y-80.975
X157.475Y-92.975
X157.475Y-96.975
X157.475Y-112.975
X157.475Y-124.975
X157.475Y-128.975
X157.475Y-132.975
X157.475Y-136.975
X158.46Y-122.079
X160.35Y-90.239
X160.45Y-85.639
X161.475Y-76.975
X161.475Y-80.975
X161.475Y-84.975
X161.475Y-92.975
X161.475Y-96.975
X161.475Y-108.975
X161.475Y-124.975
X161.475Y-128.975
X161.475Y-132.975
X161.475Y-136.975
X161.55Y-88.35
X161.907Y-94.372
X161.908Y-112.903
X162.401Y-88.349
X162.553Y-115.059
X163.35Y-95.69
X163.508Y-125.511
X164.05Y-115.09
X164.297Y-91.375
X164.297Y-127.764
X164.398Y-103.241
X164.565Y-118.008
X164.608Y-90.611
X164.964Y-95.417
X164.965Y-101.182
X165.11Y-116.035
X165.125Y-98.757
X165.45Y-85.739
X165.475Y-76.975
X165.475Y-80.975
X165.475Y-92.975
X165.475Y-108.975
X165.475Y-112.975
X165.475Y-136.975
X165.55Y-132.239
X166.314Y-95.39
X166.614Y-100.89
X167.353Y-125.163
X167.454Y-116.18
X167.517Y-120.0
X167.777Y-113.772
X169.475Y-76.975
X169.475Y-80.975
X169.475Y-108.975
X169.475Y-136.975
X173.475Y-80.975
X173.475Y-84.975
X173.475Y-88.975
X173.475Y-92.975
X173.475Y-96.975
X173.475Y-100.975
X173.475Y-104.975
X173.475Y-108.975
X173.475Y-112.975
X173.475Y-116.975
X173.475Y-120.975
X173.475Y-124.975
X173.475Y-128.975
X173.475Y-132.975
T2
X128.5Y-136.5
X130.5Y-136.5
T3
X146.6Y-81.71
X152.4Y-81.71
T6
X170.5Y-82.75
X170.5Y-85.25
X170.5Y-87.75
X170.5Y-90.25
X170.5Y-92.75
X170.5Y-95.25
X170.5Y-97.75
X170.5Y-100.25
X170.5Y-102.75
X170.5Y-105.25
X170.5Y-110.75
X170.5Y-113.25
X170.5Y-115.75
X170.5Y-118.25
X170.5Y-120.75
X170.5Y-123.25
X170.5Y-125.75
X170.5Y-128.25
X170.5Y-130.75
X170.5Y-133.25
T4
X145.17Y-77.73G85X145.17Y-78.33
G05
X145.17Y-81.81G85X145.17Y-82.61
G05
X153.83Y-77.73G85X153.83Y-78.33
G05
X153.83Y-81.81G85X153.83Y-82.61
G05
T5
X108.058Y-102.25G85X108.758Y-102.25
G05
X108.058Y-116.75G85X108.758Y-116.75
G05
X113.469Y-102.25G85X115.269Y-102.25
G05
X113.469Y-116.75G85X115.269Y-116.75
G05
M30
