%TF.GenerationSoftware,KiCad,Pcbnew,9.0.9.1-1.fc43*%
%TF.CreationDate,2026-06-28T21:25:27-06:00*%
%TF.ProjectId,rp2350-console-v2-stitched,72703233-3530-42d6-936f-6e736f6c652d,rev?*%
%TF.SameCoordinates,Original*%
%TF.FileFunction,Legend,Top*%
%TF.FilePolarity,Positive*%
%FSLAX46Y46*%
G04 Gerber Fmt 4.6, Leading zero omitted, Abs format (unit mm)*
G04 Created by KiCad (PCBNEW 9.0.9.1-1.fc43) date 2026-06-28 21:25:27*
%MOMM*%
%LPD*%
G01*
G04 APERTURE LIST*
%ADD10C,0.100000*%
%ADD11C,0.254000*%
%ADD12C,0.000000*%
%ADD13C,0.060000*%
G04 APERTURE END LIST*
D10*
X159434836Y-119438509D02*
X159434836Y-118938509D01*
X159434836Y-118938509D02*
X159553884Y-118938509D01*
X159553884Y-118938509D02*
X159625312Y-118962319D01*
X159625312Y-118962319D02*
X159672931Y-119009938D01*
X159672931Y-119009938D02*
X159696741Y-119057557D01*
X159696741Y-119057557D02*
X159720550Y-119152795D01*
X159720550Y-119152795D02*
X159720550Y-119224223D01*
X159720550Y-119224223D02*
X159696741Y-119319461D01*
X159696741Y-119319461D02*
X159672931Y-119367080D01*
X159672931Y-119367080D02*
X159625312Y-119414700D01*
X159625312Y-119414700D02*
X159553884Y-119438509D01*
X159553884Y-119438509D02*
X159434836Y-119438509D01*
X160196741Y-119438509D02*
X159911027Y-119438509D01*
X160053884Y-119438509D02*
X160053884Y-118938509D01*
X160053884Y-118938509D02*
X160006265Y-119009938D01*
X160006265Y-119009938D02*
X159958646Y-119057557D01*
X159958646Y-119057557D02*
X159911027Y-119081366D01*
X144239285Y-118215228D02*
X144210713Y-118243800D01*
X144210713Y-118243800D02*
X144124999Y-118272371D01*
X144124999Y-118272371D02*
X144067856Y-118272371D01*
X144067856Y-118272371D02*
X143982142Y-118243800D01*
X143982142Y-118243800D02*
X143924999Y-118186657D01*
X143924999Y-118186657D02*
X143896428Y-118129514D01*
X143896428Y-118129514D02*
X143867856Y-118015228D01*
X143867856Y-118015228D02*
X143867856Y-117929514D01*
X143867856Y-117929514D02*
X143896428Y-117815228D01*
X143896428Y-117815228D02*
X143924999Y-117758085D01*
X143924999Y-117758085D02*
X143982142Y-117700942D01*
X143982142Y-117700942D02*
X144067856Y-117672371D01*
X144067856Y-117672371D02*
X144124999Y-117672371D01*
X144124999Y-117672371D02*
X144210713Y-117700942D01*
X144210713Y-117700942D02*
X144239285Y-117729514D01*
X144467856Y-117729514D02*
X144496428Y-117700942D01*
X144496428Y-117700942D02*
X144553571Y-117672371D01*
X144553571Y-117672371D02*
X144696428Y-117672371D01*
X144696428Y-117672371D02*
X144753571Y-117700942D01*
X144753571Y-117700942D02*
X144782142Y-117729514D01*
X144782142Y-117729514D02*
X144810713Y-117786657D01*
X144810713Y-117786657D02*
X144810713Y-117843800D01*
X144810713Y-117843800D02*
X144782142Y-117929514D01*
X144782142Y-117929514D02*
X144439285Y-118272371D01*
X144439285Y-118272371D02*
X144810713Y-118272371D01*
X145382142Y-118272371D02*
X145039285Y-118272371D01*
X145210714Y-118272371D02*
X145210714Y-117672371D01*
X145210714Y-117672371D02*
X145153571Y-117758085D01*
X145153571Y-117758085D02*
X145096428Y-117815228D01*
X145096428Y-117815228D02*
X145039285Y-117843800D01*
X123039285Y-119772371D02*
X122839285Y-119486657D01*
X122696428Y-119772371D02*
X122696428Y-119172371D01*
X122696428Y-119172371D02*
X122924999Y-119172371D01*
X122924999Y-119172371D02*
X122982142Y-119200942D01*
X122982142Y-119200942D02*
X123010713Y-119229514D01*
X123010713Y-119229514D02*
X123039285Y-119286657D01*
X123039285Y-119286657D02*
X123039285Y-119372371D01*
X123039285Y-119372371D02*
X123010713Y-119429514D01*
X123010713Y-119429514D02*
X122982142Y-119458085D01*
X122982142Y-119458085D02*
X122924999Y-119486657D01*
X122924999Y-119486657D02*
X122696428Y-119486657D01*
X123267856Y-119229514D02*
X123296428Y-119200942D01*
X123296428Y-119200942D02*
X123353571Y-119172371D01*
X123353571Y-119172371D02*
X123496428Y-119172371D01*
X123496428Y-119172371D02*
X123553571Y-119200942D01*
X123553571Y-119200942D02*
X123582142Y-119229514D01*
X123582142Y-119229514D02*
X123610713Y-119286657D01*
X123610713Y-119286657D02*
X123610713Y-119343800D01*
X123610713Y-119343800D02*
X123582142Y-119429514D01*
X123582142Y-119429514D02*
X123239285Y-119772371D01*
X123239285Y-119772371D02*
X123610713Y-119772371D01*
X124182142Y-119772371D02*
X123839285Y-119772371D01*
X124010714Y-119772371D02*
X124010714Y-119172371D01*
X124010714Y-119172371D02*
X123953571Y-119258085D01*
X123953571Y-119258085D02*
X123896428Y-119315228D01*
X123896428Y-119315228D02*
X123839285Y-119343800D01*
X132564285Y-110272371D02*
X132364285Y-109986657D01*
X132221428Y-110272371D02*
X132221428Y-109672371D01*
X132221428Y-109672371D02*
X132449999Y-109672371D01*
X132449999Y-109672371D02*
X132507142Y-109700942D01*
X132507142Y-109700942D02*
X132535713Y-109729514D01*
X132535713Y-109729514D02*
X132564285Y-109786657D01*
X132564285Y-109786657D02*
X132564285Y-109872371D01*
X132564285Y-109872371D02*
X132535713Y-109929514D01*
X132535713Y-109929514D02*
X132507142Y-109958085D01*
X132507142Y-109958085D02*
X132449999Y-109986657D01*
X132449999Y-109986657D02*
X132221428Y-109986657D01*
X133135713Y-110272371D02*
X132792856Y-110272371D01*
X132964285Y-110272371D02*
X132964285Y-109672371D01*
X132964285Y-109672371D02*
X132907142Y-109758085D01*
X132907142Y-109758085D02*
X132849999Y-109815228D01*
X132849999Y-109815228D02*
X132792856Y-109843800D01*
X133364285Y-109729514D02*
X133392857Y-109700942D01*
X133392857Y-109700942D02*
X133450000Y-109672371D01*
X133450000Y-109672371D02*
X133592857Y-109672371D01*
X133592857Y-109672371D02*
X133650000Y-109700942D01*
X133650000Y-109700942D02*
X133678571Y-109729514D01*
X133678571Y-109729514D02*
X133707142Y-109786657D01*
X133707142Y-109786657D02*
X133707142Y-109843800D01*
X133707142Y-109843800D02*
X133678571Y-109929514D01*
X133678571Y-109929514D02*
X133335714Y-110272371D01*
X133335714Y-110272371D02*
X133707142Y-110272371D01*
X121039285Y-99272371D02*
X120839285Y-98986657D01*
X120696428Y-99272371D02*
X120696428Y-98672371D01*
X120696428Y-98672371D02*
X120924999Y-98672371D01*
X120924999Y-98672371D02*
X120982142Y-98700942D01*
X120982142Y-98700942D02*
X121010713Y-98729514D01*
X121010713Y-98729514D02*
X121039285Y-98786657D01*
X121039285Y-98786657D02*
X121039285Y-98872371D01*
X121039285Y-98872371D02*
X121010713Y-98929514D01*
X121010713Y-98929514D02*
X120982142Y-98958085D01*
X120982142Y-98958085D02*
X120924999Y-98986657D01*
X120924999Y-98986657D02*
X120696428Y-98986657D01*
X121610713Y-99272371D02*
X121267856Y-99272371D01*
X121439285Y-99272371D02*
X121439285Y-98672371D01*
X121439285Y-98672371D02*
X121382142Y-98758085D01*
X121382142Y-98758085D02*
X121324999Y-98815228D01*
X121324999Y-98815228D02*
X121267856Y-98843800D01*
X121810714Y-98672371D02*
X122210714Y-98672371D01*
X122210714Y-98672371D02*
X121953571Y-99272371D01*
X163453884Y-117798419D02*
X163453884Y-116798419D01*
X163453884Y-116798419D02*
X163691979Y-116798419D01*
X163691979Y-116798419D02*
X163834836Y-116846038D01*
X163834836Y-116846038D02*
X163930074Y-116941276D01*
X163930074Y-116941276D02*
X163977693Y-117036514D01*
X163977693Y-117036514D02*
X164025312Y-117226990D01*
X164025312Y-117226990D02*
X164025312Y-117369847D01*
X164025312Y-117369847D02*
X163977693Y-117560323D01*
X163977693Y-117560323D02*
X163930074Y-117655561D01*
X163930074Y-117655561D02*
X163834836Y-117750800D01*
X163834836Y-117750800D02*
X163691979Y-117798419D01*
X163691979Y-117798419D02*
X163453884Y-117798419D01*
X164930074Y-116798419D02*
X164453884Y-116798419D01*
X164453884Y-116798419D02*
X164406265Y-117274609D01*
X164406265Y-117274609D02*
X164453884Y-117226990D01*
X164453884Y-117226990D02*
X164549122Y-117179371D01*
X164549122Y-117179371D02*
X164787217Y-117179371D01*
X164787217Y-117179371D02*
X164882455Y-117226990D01*
X164882455Y-117226990D02*
X164930074Y-117274609D01*
X164930074Y-117274609D02*
X164977693Y-117369847D01*
X164977693Y-117369847D02*
X164977693Y-117607942D01*
X164977693Y-117607942D02*
X164930074Y-117703180D01*
X164930074Y-117703180D02*
X164882455Y-117750800D01*
X164882455Y-117750800D02*
X164787217Y-117798419D01*
X164787217Y-117798419D02*
X164549122Y-117798419D01*
X164549122Y-117798419D02*
X164453884Y-117750800D01*
X164453884Y-117750800D02*
X164406265Y-117703180D01*
X125739285Y-122715228D02*
X125710713Y-122743800D01*
X125710713Y-122743800D02*
X125624999Y-122772371D01*
X125624999Y-122772371D02*
X125567856Y-122772371D01*
X125567856Y-122772371D02*
X125482142Y-122743800D01*
X125482142Y-122743800D02*
X125424999Y-122686657D01*
X125424999Y-122686657D02*
X125396428Y-122629514D01*
X125396428Y-122629514D02*
X125367856Y-122515228D01*
X125367856Y-122515228D02*
X125367856Y-122429514D01*
X125367856Y-122429514D02*
X125396428Y-122315228D01*
X125396428Y-122315228D02*
X125424999Y-122258085D01*
X125424999Y-122258085D02*
X125482142Y-122200942D01*
X125482142Y-122200942D02*
X125567856Y-122172371D01*
X125567856Y-122172371D02*
X125624999Y-122172371D01*
X125624999Y-122172371D02*
X125710713Y-122200942D01*
X125710713Y-122200942D02*
X125739285Y-122229514D01*
X125967856Y-122229514D02*
X125996428Y-122200942D01*
X125996428Y-122200942D02*
X126053571Y-122172371D01*
X126053571Y-122172371D02*
X126196428Y-122172371D01*
X126196428Y-122172371D02*
X126253571Y-122200942D01*
X126253571Y-122200942D02*
X126282142Y-122229514D01*
X126282142Y-122229514D02*
X126310713Y-122286657D01*
X126310713Y-122286657D02*
X126310713Y-122343800D01*
X126310713Y-122343800D02*
X126282142Y-122429514D01*
X126282142Y-122429514D02*
X125939285Y-122772371D01*
X125939285Y-122772371D02*
X126310713Y-122772371D01*
X126853571Y-122172371D02*
X126567857Y-122172371D01*
X126567857Y-122172371D02*
X126539285Y-122458085D01*
X126539285Y-122458085D02*
X126567857Y-122429514D01*
X126567857Y-122429514D02*
X126625000Y-122400942D01*
X126625000Y-122400942D02*
X126767857Y-122400942D01*
X126767857Y-122400942D02*
X126825000Y-122429514D01*
X126825000Y-122429514D02*
X126853571Y-122458085D01*
X126853571Y-122458085D02*
X126882142Y-122515228D01*
X126882142Y-122515228D02*
X126882142Y-122658085D01*
X126882142Y-122658085D02*
X126853571Y-122715228D01*
X126853571Y-122715228D02*
X126825000Y-122743800D01*
X126825000Y-122743800D02*
X126767857Y-122772371D01*
X126767857Y-122772371D02*
X126625000Y-122772371D01*
X126625000Y-122772371D02*
X126567857Y-122743800D01*
X126567857Y-122743800D02*
X126539285Y-122715228D01*
X124514895Y-110090475D02*
X123714895Y-110090475D01*
X123714895Y-110090475D02*
X123714895Y-109899999D01*
X123714895Y-109899999D02*
X123752990Y-109785713D01*
X123752990Y-109785713D02*
X123829180Y-109709523D01*
X123829180Y-109709523D02*
X123905371Y-109671428D01*
X123905371Y-109671428D02*
X124057752Y-109633332D01*
X124057752Y-109633332D02*
X124172038Y-109633332D01*
X124172038Y-109633332D02*
X124324419Y-109671428D01*
X124324419Y-109671428D02*
X124400609Y-109709523D01*
X124400609Y-109709523D02*
X124476800Y-109785713D01*
X124476800Y-109785713D02*
X124514895Y-109899999D01*
X124514895Y-109899999D02*
X124514895Y-110090475D01*
X123791085Y-109328571D02*
X123752990Y-109290475D01*
X123752990Y-109290475D02*
X123714895Y-109214285D01*
X123714895Y-109214285D02*
X123714895Y-109023809D01*
X123714895Y-109023809D02*
X123752990Y-108947618D01*
X123752990Y-108947618D02*
X123791085Y-108909523D01*
X123791085Y-108909523D02*
X123867276Y-108871428D01*
X123867276Y-108871428D02*
X123943466Y-108871428D01*
X123943466Y-108871428D02*
X124057752Y-108909523D01*
X124057752Y-108909523D02*
X124514895Y-109366666D01*
X124514895Y-109366666D02*
X124514895Y-108871428D01*
X143934836Y-83068009D02*
X143934836Y-83472771D01*
X143934836Y-83472771D02*
X143958646Y-83520390D01*
X143958646Y-83520390D02*
X143982455Y-83544200D01*
X143982455Y-83544200D02*
X144030074Y-83568009D01*
X144030074Y-83568009D02*
X144125312Y-83568009D01*
X144125312Y-83568009D02*
X144172931Y-83544200D01*
X144172931Y-83544200D02*
X144196741Y-83520390D01*
X144196741Y-83520390D02*
X144220550Y-83472771D01*
X144220550Y-83472771D02*
X144220550Y-83068009D01*
X144720551Y-83568009D02*
X144434837Y-83568009D01*
X144577694Y-83568009D02*
X144577694Y-83068009D01*
X144577694Y-83068009D02*
X144530075Y-83139438D01*
X144530075Y-83139438D02*
X144482456Y-83187057D01*
X144482456Y-83187057D02*
X144434837Y-83210866D01*
X132850000Y-106272371D02*
X132650000Y-105986657D01*
X132507143Y-106272371D02*
X132507143Y-105672371D01*
X132507143Y-105672371D02*
X132735714Y-105672371D01*
X132735714Y-105672371D02*
X132792857Y-105700942D01*
X132792857Y-105700942D02*
X132821428Y-105729514D01*
X132821428Y-105729514D02*
X132850000Y-105786657D01*
X132850000Y-105786657D02*
X132850000Y-105872371D01*
X132850000Y-105872371D02*
X132821428Y-105929514D01*
X132821428Y-105929514D02*
X132792857Y-105958085D01*
X132792857Y-105958085D02*
X132735714Y-105986657D01*
X132735714Y-105986657D02*
X132507143Y-105986657D01*
X133192857Y-105929514D02*
X133135714Y-105900942D01*
X133135714Y-105900942D02*
X133107143Y-105872371D01*
X133107143Y-105872371D02*
X133078571Y-105815228D01*
X133078571Y-105815228D02*
X133078571Y-105786657D01*
X133078571Y-105786657D02*
X133107143Y-105729514D01*
X133107143Y-105729514D02*
X133135714Y-105700942D01*
X133135714Y-105700942D02*
X133192857Y-105672371D01*
X133192857Y-105672371D02*
X133307143Y-105672371D01*
X133307143Y-105672371D02*
X133364286Y-105700942D01*
X133364286Y-105700942D02*
X133392857Y-105729514D01*
X133392857Y-105729514D02*
X133421428Y-105786657D01*
X133421428Y-105786657D02*
X133421428Y-105815228D01*
X133421428Y-105815228D02*
X133392857Y-105872371D01*
X133392857Y-105872371D02*
X133364286Y-105900942D01*
X133364286Y-105900942D02*
X133307143Y-105929514D01*
X133307143Y-105929514D02*
X133192857Y-105929514D01*
X133192857Y-105929514D02*
X133135714Y-105958085D01*
X133135714Y-105958085D02*
X133107143Y-105986657D01*
X133107143Y-105986657D02*
X133078571Y-106043800D01*
X133078571Y-106043800D02*
X133078571Y-106158085D01*
X133078571Y-106158085D02*
X133107143Y-106215228D01*
X133107143Y-106215228D02*
X133135714Y-106243800D01*
X133135714Y-106243800D02*
X133192857Y-106272371D01*
X133192857Y-106272371D02*
X133307143Y-106272371D01*
X133307143Y-106272371D02*
X133364286Y-106243800D01*
X133364286Y-106243800D02*
X133392857Y-106215228D01*
X133392857Y-106215228D02*
X133421428Y-106158085D01*
X133421428Y-106158085D02*
X133421428Y-106043800D01*
X133421428Y-106043800D02*
X133392857Y-105986657D01*
X133392857Y-105986657D02*
X133364286Y-105958085D01*
X133364286Y-105958085D02*
X133307143Y-105929514D01*
X154325000Y-128772371D02*
X154125000Y-128486657D01*
X153982143Y-128772371D02*
X153982143Y-128172371D01*
X153982143Y-128172371D02*
X154210714Y-128172371D01*
X154210714Y-128172371D02*
X154267857Y-128200942D01*
X154267857Y-128200942D02*
X154296428Y-128229514D01*
X154296428Y-128229514D02*
X154325000Y-128286657D01*
X154325000Y-128286657D02*
X154325000Y-128372371D01*
X154325000Y-128372371D02*
X154296428Y-128429514D01*
X154296428Y-128429514D02*
X154267857Y-128458085D01*
X154267857Y-128458085D02*
X154210714Y-128486657D01*
X154210714Y-128486657D02*
X153982143Y-128486657D01*
X154839286Y-128172371D02*
X154725000Y-128172371D01*
X154725000Y-128172371D02*
X154667857Y-128200942D01*
X154667857Y-128200942D02*
X154639286Y-128229514D01*
X154639286Y-128229514D02*
X154582143Y-128315228D01*
X154582143Y-128315228D02*
X154553571Y-128429514D01*
X154553571Y-128429514D02*
X154553571Y-128658085D01*
X154553571Y-128658085D02*
X154582143Y-128715228D01*
X154582143Y-128715228D02*
X154610714Y-128743800D01*
X154610714Y-128743800D02*
X154667857Y-128772371D01*
X154667857Y-128772371D02*
X154782143Y-128772371D01*
X154782143Y-128772371D02*
X154839286Y-128743800D01*
X154839286Y-128743800D02*
X154867857Y-128715228D01*
X154867857Y-128715228D02*
X154896428Y-128658085D01*
X154896428Y-128658085D02*
X154896428Y-128515228D01*
X154896428Y-128515228D02*
X154867857Y-128458085D01*
X154867857Y-128458085D02*
X154839286Y-128429514D01*
X154839286Y-128429514D02*
X154782143Y-128400942D01*
X154782143Y-128400942D02*
X154667857Y-128400942D01*
X154667857Y-128400942D02*
X154610714Y-128429514D01*
X154610714Y-128429514D02*
X154582143Y-128458085D01*
X154582143Y-128458085D02*
X154553571Y-128515228D01*
X156825000Y-122272371D02*
X156625000Y-121986657D01*
X156482143Y-122272371D02*
X156482143Y-121672371D01*
X156482143Y-121672371D02*
X156710714Y-121672371D01*
X156710714Y-121672371D02*
X156767857Y-121700942D01*
X156767857Y-121700942D02*
X156796428Y-121729514D01*
X156796428Y-121729514D02*
X156825000Y-121786657D01*
X156825000Y-121786657D02*
X156825000Y-121872371D01*
X156825000Y-121872371D02*
X156796428Y-121929514D01*
X156796428Y-121929514D02*
X156767857Y-121958085D01*
X156767857Y-121958085D02*
X156710714Y-121986657D01*
X156710714Y-121986657D02*
X156482143Y-121986657D01*
X157025000Y-121672371D02*
X157425000Y-121672371D01*
X157425000Y-121672371D02*
X157167857Y-122272371D01*
X144414285Y-96009271D02*
X144214285Y-95723557D01*
X144071428Y-96009271D02*
X144071428Y-95409271D01*
X144071428Y-95409271D02*
X144299999Y-95409271D01*
X144299999Y-95409271D02*
X144357142Y-95437842D01*
X144357142Y-95437842D02*
X144385713Y-95466414D01*
X144385713Y-95466414D02*
X144414285Y-95523557D01*
X144414285Y-95523557D02*
X144414285Y-95609271D01*
X144414285Y-95609271D02*
X144385713Y-95666414D01*
X144385713Y-95666414D02*
X144357142Y-95694985D01*
X144357142Y-95694985D02*
X144299999Y-95723557D01*
X144299999Y-95723557D02*
X144071428Y-95723557D01*
X144642856Y-95466414D02*
X144671428Y-95437842D01*
X144671428Y-95437842D02*
X144728571Y-95409271D01*
X144728571Y-95409271D02*
X144871428Y-95409271D01*
X144871428Y-95409271D02*
X144928571Y-95437842D01*
X144928571Y-95437842D02*
X144957142Y-95466414D01*
X144957142Y-95466414D02*
X144985713Y-95523557D01*
X144985713Y-95523557D02*
X144985713Y-95580700D01*
X144985713Y-95580700D02*
X144957142Y-95666414D01*
X144957142Y-95666414D02*
X144614285Y-96009271D01*
X144614285Y-96009271D02*
X144985713Y-96009271D01*
X145500000Y-95609271D02*
X145500000Y-96009271D01*
X145357142Y-95380700D02*
X145214285Y-95809271D01*
X145214285Y-95809271D02*
X145585714Y-95809271D01*
X130850000Y-106272371D02*
X130650000Y-105986657D01*
X130507143Y-106272371D02*
X130507143Y-105672371D01*
X130507143Y-105672371D02*
X130735714Y-105672371D01*
X130735714Y-105672371D02*
X130792857Y-105700942D01*
X130792857Y-105700942D02*
X130821428Y-105729514D01*
X130821428Y-105729514D02*
X130850000Y-105786657D01*
X130850000Y-105786657D02*
X130850000Y-105872371D01*
X130850000Y-105872371D02*
X130821428Y-105929514D01*
X130821428Y-105929514D02*
X130792857Y-105958085D01*
X130792857Y-105958085D02*
X130735714Y-105986657D01*
X130735714Y-105986657D02*
X130507143Y-105986657D01*
X131135714Y-106272371D02*
X131250000Y-106272371D01*
X131250000Y-106272371D02*
X131307143Y-106243800D01*
X131307143Y-106243800D02*
X131335714Y-106215228D01*
X131335714Y-106215228D02*
X131392857Y-106129514D01*
X131392857Y-106129514D02*
X131421428Y-106015228D01*
X131421428Y-106015228D02*
X131421428Y-105786657D01*
X131421428Y-105786657D02*
X131392857Y-105729514D01*
X131392857Y-105729514D02*
X131364286Y-105700942D01*
X131364286Y-105700942D02*
X131307143Y-105672371D01*
X131307143Y-105672371D02*
X131192857Y-105672371D01*
X131192857Y-105672371D02*
X131135714Y-105700942D01*
X131135714Y-105700942D02*
X131107143Y-105729514D01*
X131107143Y-105729514D02*
X131078571Y-105786657D01*
X131078571Y-105786657D02*
X131078571Y-105929514D01*
X131078571Y-105929514D02*
X131107143Y-105986657D01*
X131107143Y-105986657D02*
X131135714Y-106015228D01*
X131135714Y-106015228D02*
X131192857Y-106043800D01*
X131192857Y-106043800D02*
X131307143Y-106043800D01*
X131307143Y-106043800D02*
X131364286Y-106015228D01*
X131364286Y-106015228D02*
X131392857Y-105986657D01*
X131392857Y-105986657D02*
X131421428Y-105929514D01*
X153650000Y-87272371D02*
X153450000Y-86986657D01*
X153307143Y-87272371D02*
X153307143Y-86672371D01*
X153307143Y-86672371D02*
X153535714Y-86672371D01*
X153535714Y-86672371D02*
X153592857Y-86700942D01*
X153592857Y-86700942D02*
X153621428Y-86729514D01*
X153621428Y-86729514D02*
X153650000Y-86786657D01*
X153650000Y-86786657D02*
X153650000Y-86872371D01*
X153650000Y-86872371D02*
X153621428Y-86929514D01*
X153621428Y-86929514D02*
X153592857Y-86958085D01*
X153592857Y-86958085D02*
X153535714Y-86986657D01*
X153535714Y-86986657D02*
X153307143Y-86986657D01*
X153850000Y-86672371D02*
X154221428Y-86672371D01*
X154221428Y-86672371D02*
X154021428Y-86900942D01*
X154021428Y-86900942D02*
X154107143Y-86900942D01*
X154107143Y-86900942D02*
X154164286Y-86929514D01*
X154164286Y-86929514D02*
X154192857Y-86958085D01*
X154192857Y-86958085D02*
X154221428Y-87015228D01*
X154221428Y-87015228D02*
X154221428Y-87158085D01*
X154221428Y-87158085D02*
X154192857Y-87215228D01*
X154192857Y-87215228D02*
X154164286Y-87243800D01*
X154164286Y-87243800D02*
X154107143Y-87272371D01*
X154107143Y-87272371D02*
X153935714Y-87272371D01*
X153935714Y-87272371D02*
X153878571Y-87243800D01*
X153878571Y-87243800D02*
X153850000Y-87215228D01*
X163453884Y-103798419D02*
X163453884Y-102798419D01*
X163453884Y-102798419D02*
X163691979Y-102798419D01*
X163691979Y-102798419D02*
X163834836Y-102846038D01*
X163834836Y-102846038D02*
X163930074Y-102941276D01*
X163930074Y-102941276D02*
X163977693Y-103036514D01*
X163977693Y-103036514D02*
X164025312Y-103226990D01*
X164025312Y-103226990D02*
X164025312Y-103369847D01*
X164025312Y-103369847D02*
X163977693Y-103560323D01*
X163977693Y-103560323D02*
X163930074Y-103655561D01*
X163930074Y-103655561D02*
X163834836Y-103750800D01*
X163834836Y-103750800D02*
X163691979Y-103798419D01*
X163691979Y-103798419D02*
X163453884Y-103798419D01*
X164358646Y-102798419D02*
X164977693Y-102798419D01*
X164977693Y-102798419D02*
X164644360Y-103179371D01*
X164644360Y-103179371D02*
X164787217Y-103179371D01*
X164787217Y-103179371D02*
X164882455Y-103226990D01*
X164882455Y-103226990D02*
X164930074Y-103274609D01*
X164930074Y-103274609D02*
X164977693Y-103369847D01*
X164977693Y-103369847D02*
X164977693Y-103607942D01*
X164977693Y-103607942D02*
X164930074Y-103703180D01*
X164930074Y-103703180D02*
X164882455Y-103750800D01*
X164882455Y-103750800D02*
X164787217Y-103798419D01*
X164787217Y-103798419D02*
X164501503Y-103798419D01*
X164501503Y-103798419D02*
X164406265Y-103750800D01*
X164406265Y-103750800D02*
X164358646Y-103703180D01*
X162000000Y-85215228D02*
X161971428Y-85243800D01*
X161971428Y-85243800D02*
X161885714Y-85272371D01*
X161885714Y-85272371D02*
X161828571Y-85272371D01*
X161828571Y-85272371D02*
X161742857Y-85243800D01*
X161742857Y-85243800D02*
X161685714Y-85186657D01*
X161685714Y-85186657D02*
X161657143Y-85129514D01*
X161657143Y-85129514D02*
X161628571Y-85015228D01*
X161628571Y-85015228D02*
X161628571Y-84929514D01*
X161628571Y-84929514D02*
X161657143Y-84815228D01*
X161657143Y-84815228D02*
X161685714Y-84758085D01*
X161685714Y-84758085D02*
X161742857Y-84700942D01*
X161742857Y-84700942D02*
X161828571Y-84672371D01*
X161828571Y-84672371D02*
X161885714Y-84672371D01*
X161885714Y-84672371D02*
X161971428Y-84700942D01*
X161971428Y-84700942D02*
X162000000Y-84729514D01*
X162571428Y-85272371D02*
X162228571Y-85272371D01*
X162400000Y-85272371D02*
X162400000Y-84672371D01*
X162400000Y-84672371D02*
X162342857Y-84758085D01*
X162342857Y-84758085D02*
X162285714Y-84815228D01*
X162285714Y-84815228D02*
X162228571Y-84843800D01*
X153650000Y-89272371D02*
X153450000Y-88986657D01*
X153307143Y-89272371D02*
X153307143Y-88672371D01*
X153307143Y-88672371D02*
X153535714Y-88672371D01*
X153535714Y-88672371D02*
X153592857Y-88700942D01*
X153592857Y-88700942D02*
X153621428Y-88729514D01*
X153621428Y-88729514D02*
X153650000Y-88786657D01*
X153650000Y-88786657D02*
X153650000Y-88872371D01*
X153650000Y-88872371D02*
X153621428Y-88929514D01*
X153621428Y-88929514D02*
X153592857Y-88958085D01*
X153592857Y-88958085D02*
X153535714Y-88986657D01*
X153535714Y-88986657D02*
X153307143Y-88986657D01*
X154164286Y-88872371D02*
X154164286Y-89272371D01*
X154021428Y-88643800D02*
X153878571Y-89072371D01*
X153878571Y-89072371D02*
X154250000Y-89072371D01*
X148243734Y-86431419D02*
X148243734Y-87145704D01*
X148243734Y-87145704D02*
X148196115Y-87288561D01*
X148196115Y-87288561D02*
X148100877Y-87383800D01*
X148100877Y-87383800D02*
X147958020Y-87431419D01*
X147958020Y-87431419D02*
X147862782Y-87431419D01*
X149243734Y-87431419D02*
X148672306Y-87431419D01*
X148958020Y-87431419D02*
X148958020Y-86431419D01*
X148958020Y-86431419D02*
X148862782Y-86574276D01*
X148862782Y-86574276D02*
X148767544Y-86669514D01*
X148767544Y-86669514D02*
X148672306Y-86717133D01*
X155953884Y-86823419D02*
X155953884Y-87632942D01*
X155953884Y-87632942D02*
X156001503Y-87728180D01*
X156001503Y-87728180D02*
X156049122Y-87775800D01*
X156049122Y-87775800D02*
X156144360Y-87823419D01*
X156144360Y-87823419D02*
X156334836Y-87823419D01*
X156334836Y-87823419D02*
X156430074Y-87775800D01*
X156430074Y-87775800D02*
X156477693Y-87728180D01*
X156477693Y-87728180D02*
X156525312Y-87632942D01*
X156525312Y-87632942D02*
X156525312Y-86823419D01*
X156953884Y-86918657D02*
X157001503Y-86871038D01*
X157001503Y-86871038D02*
X157096741Y-86823419D01*
X157096741Y-86823419D02*
X157334836Y-86823419D01*
X157334836Y-86823419D02*
X157430074Y-86871038D01*
X157430074Y-86871038D02*
X157477693Y-86918657D01*
X157477693Y-86918657D02*
X157525312Y-87013895D01*
X157525312Y-87013895D02*
X157525312Y-87109133D01*
X157525312Y-87109133D02*
X157477693Y-87251990D01*
X157477693Y-87251990D02*
X156906265Y-87823419D01*
X156906265Y-87823419D02*
X157525312Y-87823419D01*
X123039285Y-122715228D02*
X123010713Y-122743800D01*
X123010713Y-122743800D02*
X122924999Y-122772371D01*
X122924999Y-122772371D02*
X122867856Y-122772371D01*
X122867856Y-122772371D02*
X122782142Y-122743800D01*
X122782142Y-122743800D02*
X122724999Y-122686657D01*
X122724999Y-122686657D02*
X122696428Y-122629514D01*
X122696428Y-122629514D02*
X122667856Y-122515228D01*
X122667856Y-122515228D02*
X122667856Y-122429514D01*
X122667856Y-122429514D02*
X122696428Y-122315228D01*
X122696428Y-122315228D02*
X122724999Y-122258085D01*
X122724999Y-122258085D02*
X122782142Y-122200942D01*
X122782142Y-122200942D02*
X122867856Y-122172371D01*
X122867856Y-122172371D02*
X122924999Y-122172371D01*
X122924999Y-122172371D02*
X123010713Y-122200942D01*
X123010713Y-122200942D02*
X123039285Y-122229514D01*
X123267856Y-122229514D02*
X123296428Y-122200942D01*
X123296428Y-122200942D02*
X123353571Y-122172371D01*
X123353571Y-122172371D02*
X123496428Y-122172371D01*
X123496428Y-122172371D02*
X123553571Y-122200942D01*
X123553571Y-122200942D02*
X123582142Y-122229514D01*
X123582142Y-122229514D02*
X123610713Y-122286657D01*
X123610713Y-122286657D02*
X123610713Y-122343800D01*
X123610713Y-122343800D02*
X123582142Y-122429514D01*
X123582142Y-122429514D02*
X123239285Y-122772371D01*
X123239285Y-122772371D02*
X123610713Y-122772371D01*
X124125000Y-122172371D02*
X124010714Y-122172371D01*
X124010714Y-122172371D02*
X123953571Y-122200942D01*
X123953571Y-122200942D02*
X123925000Y-122229514D01*
X123925000Y-122229514D02*
X123867857Y-122315228D01*
X123867857Y-122315228D02*
X123839285Y-122429514D01*
X123839285Y-122429514D02*
X123839285Y-122658085D01*
X123839285Y-122658085D02*
X123867857Y-122715228D01*
X123867857Y-122715228D02*
X123896428Y-122743800D01*
X123896428Y-122743800D02*
X123953571Y-122772371D01*
X123953571Y-122772371D02*
X124067857Y-122772371D01*
X124067857Y-122772371D02*
X124125000Y-122743800D01*
X124125000Y-122743800D02*
X124153571Y-122715228D01*
X124153571Y-122715228D02*
X124182142Y-122658085D01*
X124182142Y-122658085D02*
X124182142Y-122515228D01*
X124182142Y-122515228D02*
X124153571Y-122458085D01*
X124153571Y-122458085D02*
X124125000Y-122429514D01*
X124125000Y-122429514D02*
X124067857Y-122400942D01*
X124067857Y-122400942D02*
X123953571Y-122400942D01*
X123953571Y-122400942D02*
X123896428Y-122429514D01*
X123896428Y-122429514D02*
X123867857Y-122458085D01*
X123867857Y-122458085D02*
X123839285Y-122515228D01*
X132564285Y-112272371D02*
X132364285Y-111986657D01*
X132221428Y-112272371D02*
X132221428Y-111672371D01*
X132221428Y-111672371D02*
X132449999Y-111672371D01*
X132449999Y-111672371D02*
X132507142Y-111700942D01*
X132507142Y-111700942D02*
X132535713Y-111729514D01*
X132535713Y-111729514D02*
X132564285Y-111786657D01*
X132564285Y-111786657D02*
X132564285Y-111872371D01*
X132564285Y-111872371D02*
X132535713Y-111929514D01*
X132535713Y-111929514D02*
X132507142Y-111958085D01*
X132507142Y-111958085D02*
X132449999Y-111986657D01*
X132449999Y-111986657D02*
X132221428Y-111986657D01*
X133135713Y-112272371D02*
X132792856Y-112272371D01*
X132964285Y-112272371D02*
X132964285Y-111672371D01*
X132964285Y-111672371D02*
X132907142Y-111758085D01*
X132907142Y-111758085D02*
X132849999Y-111815228D01*
X132849999Y-111815228D02*
X132792856Y-111843800D01*
X133650000Y-111872371D02*
X133650000Y-112272371D01*
X133507142Y-111643800D02*
X133364285Y-112072371D01*
X133364285Y-112072371D02*
X133735714Y-112072371D01*
X129214285Y-125015228D02*
X129185713Y-125043800D01*
X129185713Y-125043800D02*
X129099999Y-125072371D01*
X129099999Y-125072371D02*
X129042856Y-125072371D01*
X129042856Y-125072371D02*
X128957142Y-125043800D01*
X128957142Y-125043800D02*
X128899999Y-124986657D01*
X128899999Y-124986657D02*
X128871428Y-124929514D01*
X128871428Y-124929514D02*
X128842856Y-124815228D01*
X128842856Y-124815228D02*
X128842856Y-124729514D01*
X128842856Y-124729514D02*
X128871428Y-124615228D01*
X128871428Y-124615228D02*
X128899999Y-124558085D01*
X128899999Y-124558085D02*
X128957142Y-124500942D01*
X128957142Y-124500942D02*
X129042856Y-124472371D01*
X129042856Y-124472371D02*
X129099999Y-124472371D01*
X129099999Y-124472371D02*
X129185713Y-124500942D01*
X129185713Y-124500942D02*
X129214285Y-124529514D01*
X129442856Y-124529514D02*
X129471428Y-124500942D01*
X129471428Y-124500942D02*
X129528571Y-124472371D01*
X129528571Y-124472371D02*
X129671428Y-124472371D01*
X129671428Y-124472371D02*
X129728571Y-124500942D01*
X129728571Y-124500942D02*
X129757142Y-124529514D01*
X129757142Y-124529514D02*
X129785713Y-124586657D01*
X129785713Y-124586657D02*
X129785713Y-124643800D01*
X129785713Y-124643800D02*
X129757142Y-124729514D01*
X129757142Y-124729514D02*
X129414285Y-125072371D01*
X129414285Y-125072371D02*
X129785713Y-125072371D01*
X130128571Y-124729514D02*
X130071428Y-124700942D01*
X130071428Y-124700942D02*
X130042857Y-124672371D01*
X130042857Y-124672371D02*
X130014285Y-124615228D01*
X130014285Y-124615228D02*
X130014285Y-124586657D01*
X130014285Y-124586657D02*
X130042857Y-124529514D01*
X130042857Y-124529514D02*
X130071428Y-124500942D01*
X130071428Y-124500942D02*
X130128571Y-124472371D01*
X130128571Y-124472371D02*
X130242857Y-124472371D01*
X130242857Y-124472371D02*
X130300000Y-124500942D01*
X130300000Y-124500942D02*
X130328571Y-124529514D01*
X130328571Y-124529514D02*
X130357142Y-124586657D01*
X130357142Y-124586657D02*
X130357142Y-124615228D01*
X130357142Y-124615228D02*
X130328571Y-124672371D01*
X130328571Y-124672371D02*
X130300000Y-124700942D01*
X130300000Y-124700942D02*
X130242857Y-124729514D01*
X130242857Y-124729514D02*
X130128571Y-124729514D01*
X130128571Y-124729514D02*
X130071428Y-124758085D01*
X130071428Y-124758085D02*
X130042857Y-124786657D01*
X130042857Y-124786657D02*
X130014285Y-124843800D01*
X130014285Y-124843800D02*
X130014285Y-124958085D01*
X130014285Y-124958085D02*
X130042857Y-125015228D01*
X130042857Y-125015228D02*
X130071428Y-125043800D01*
X130071428Y-125043800D02*
X130128571Y-125072371D01*
X130128571Y-125072371D02*
X130242857Y-125072371D01*
X130242857Y-125072371D02*
X130300000Y-125043800D01*
X130300000Y-125043800D02*
X130328571Y-125015228D01*
X130328571Y-125015228D02*
X130357142Y-124958085D01*
X130357142Y-124958085D02*
X130357142Y-124843800D01*
X130357142Y-124843800D02*
X130328571Y-124786657D01*
X130328571Y-124786657D02*
X130300000Y-124758085D01*
X130300000Y-124758085D02*
X130242857Y-124729514D01*
X139994360Y-115981228D02*
X139994360Y-116457419D01*
X139661027Y-115457419D02*
X139994360Y-115981228D01*
X139994360Y-115981228D02*
X140327693Y-115457419D01*
X141184836Y-116457419D02*
X140613408Y-116457419D01*
X140899122Y-116457419D02*
X140899122Y-115457419D01*
X140899122Y-115457419D02*
X140803884Y-115600276D01*
X140803884Y-115600276D02*
X140708646Y-115695514D01*
X140708646Y-115695514D02*
X140613408Y-115743133D01*
X126903884Y-122898419D02*
X126903884Y-123707942D01*
X126903884Y-123707942D02*
X126951503Y-123803180D01*
X126951503Y-123803180D02*
X126999122Y-123850800D01*
X126999122Y-123850800D02*
X127094360Y-123898419D01*
X127094360Y-123898419D02*
X127284836Y-123898419D01*
X127284836Y-123898419D02*
X127380074Y-123850800D01*
X127380074Y-123850800D02*
X127427693Y-123803180D01*
X127427693Y-123803180D02*
X127475312Y-123707942D01*
X127475312Y-123707942D02*
X127475312Y-122898419D01*
X128427693Y-122898419D02*
X127951503Y-122898419D01*
X127951503Y-122898419D02*
X127903884Y-123374609D01*
X127903884Y-123374609D02*
X127951503Y-123326990D01*
X127951503Y-123326990D02*
X128046741Y-123279371D01*
X128046741Y-123279371D02*
X128284836Y-123279371D01*
X128284836Y-123279371D02*
X128380074Y-123326990D01*
X128380074Y-123326990D02*
X128427693Y-123374609D01*
X128427693Y-123374609D02*
X128475312Y-123469847D01*
X128475312Y-123469847D02*
X128475312Y-123707942D01*
X128475312Y-123707942D02*
X128427693Y-123803180D01*
X128427693Y-123803180D02*
X128380074Y-123850800D01*
X128380074Y-123850800D02*
X128284836Y-123898419D01*
X128284836Y-123898419D02*
X128046741Y-123898419D01*
X128046741Y-123898419D02*
X127951503Y-123850800D01*
X127951503Y-123850800D02*
X127903884Y-123803180D01*
X117911209Y-109411026D02*
X118268352Y-109411026D01*
X118268352Y-109411026D02*
X118339780Y-109434835D01*
X118339780Y-109434835D02*
X118387400Y-109482454D01*
X118387400Y-109482454D02*
X118411209Y-109553883D01*
X118411209Y-109553883D02*
X118411209Y-109601502D01*
X117958828Y-109196740D02*
X117935019Y-109172931D01*
X117935019Y-109172931D02*
X117911209Y-109125312D01*
X117911209Y-109125312D02*
X117911209Y-109006264D01*
X117911209Y-109006264D02*
X117935019Y-108958645D01*
X117935019Y-108958645D02*
X117958828Y-108934836D01*
X117958828Y-108934836D02*
X118006447Y-108911026D01*
X118006447Y-108911026D02*
X118054066Y-108911026D01*
X118054066Y-108911026D02*
X118125495Y-108934836D01*
X118125495Y-108934836D02*
X118411209Y-109220550D01*
X118411209Y-109220550D02*
X118411209Y-108911026D01*
X135911027Y-125819200D02*
X135982455Y-125843009D01*
X135982455Y-125843009D02*
X136101503Y-125843009D01*
X136101503Y-125843009D02*
X136149122Y-125819200D01*
X136149122Y-125819200D02*
X136172931Y-125795390D01*
X136172931Y-125795390D02*
X136196741Y-125747771D01*
X136196741Y-125747771D02*
X136196741Y-125700152D01*
X136196741Y-125700152D02*
X136172931Y-125652533D01*
X136172931Y-125652533D02*
X136149122Y-125628723D01*
X136149122Y-125628723D02*
X136101503Y-125604914D01*
X136101503Y-125604914D02*
X136006265Y-125581104D01*
X136006265Y-125581104D02*
X135958646Y-125557295D01*
X135958646Y-125557295D02*
X135934836Y-125533485D01*
X135934836Y-125533485D02*
X135911027Y-125485866D01*
X135911027Y-125485866D02*
X135911027Y-125438247D01*
X135911027Y-125438247D02*
X135934836Y-125390628D01*
X135934836Y-125390628D02*
X135958646Y-125366819D01*
X135958646Y-125366819D02*
X136006265Y-125343009D01*
X136006265Y-125343009D02*
X136125312Y-125343009D01*
X136125312Y-125343009D02*
X136196741Y-125366819D01*
X136672931Y-125843009D02*
X136387217Y-125843009D01*
X136530074Y-125843009D02*
X136530074Y-125343009D01*
X136530074Y-125343009D02*
X136482455Y-125414438D01*
X136482455Y-125414438D02*
X136434836Y-125462057D01*
X136434836Y-125462057D02*
X136387217Y-125485866D01*
X131903884Y-101038419D02*
X131903884Y-101847942D01*
X131903884Y-101847942D02*
X131951503Y-101943180D01*
X131951503Y-101943180D02*
X131999122Y-101990800D01*
X131999122Y-101990800D02*
X132094360Y-102038419D01*
X132094360Y-102038419D02*
X132284836Y-102038419D01*
X132284836Y-102038419D02*
X132380074Y-101990800D01*
X132380074Y-101990800D02*
X132427693Y-101943180D01*
X132427693Y-101943180D02*
X132475312Y-101847942D01*
X132475312Y-101847942D02*
X132475312Y-101038419D01*
X133380074Y-101371752D02*
X133380074Y-102038419D01*
X133141979Y-100990800D02*
X132903884Y-101705085D01*
X132903884Y-101705085D02*
X133522931Y-101705085D01*
X130564285Y-112272371D02*
X130364285Y-111986657D01*
X130221428Y-112272371D02*
X130221428Y-111672371D01*
X130221428Y-111672371D02*
X130449999Y-111672371D01*
X130449999Y-111672371D02*
X130507142Y-111700942D01*
X130507142Y-111700942D02*
X130535713Y-111729514D01*
X130535713Y-111729514D02*
X130564285Y-111786657D01*
X130564285Y-111786657D02*
X130564285Y-111872371D01*
X130564285Y-111872371D02*
X130535713Y-111929514D01*
X130535713Y-111929514D02*
X130507142Y-111958085D01*
X130507142Y-111958085D02*
X130449999Y-111986657D01*
X130449999Y-111986657D02*
X130221428Y-111986657D01*
X131135713Y-112272371D02*
X130792856Y-112272371D01*
X130964285Y-112272371D02*
X130964285Y-111672371D01*
X130964285Y-111672371D02*
X130907142Y-111758085D01*
X130907142Y-111758085D02*
X130849999Y-111815228D01*
X130849999Y-111815228D02*
X130792856Y-111843800D01*
X131678571Y-111672371D02*
X131392857Y-111672371D01*
X131392857Y-111672371D02*
X131364285Y-111958085D01*
X131364285Y-111958085D02*
X131392857Y-111929514D01*
X131392857Y-111929514D02*
X131450000Y-111900942D01*
X131450000Y-111900942D02*
X131592857Y-111900942D01*
X131592857Y-111900942D02*
X131650000Y-111929514D01*
X131650000Y-111929514D02*
X131678571Y-111958085D01*
X131678571Y-111958085D02*
X131707142Y-112015228D01*
X131707142Y-112015228D02*
X131707142Y-112158085D01*
X131707142Y-112158085D02*
X131678571Y-112215228D01*
X131678571Y-112215228D02*
X131650000Y-112243800D01*
X131650000Y-112243800D02*
X131592857Y-112272371D01*
X131592857Y-112272371D02*
X131450000Y-112272371D01*
X131450000Y-112272371D02*
X131392857Y-112243800D01*
X131392857Y-112243800D02*
X131364285Y-112215228D01*
X164672931Y-123377509D02*
X164434836Y-123377509D01*
X164434836Y-123377509D02*
X164434836Y-122877509D01*
X165053884Y-122877509D02*
X164958646Y-122877509D01*
X164958646Y-122877509D02*
X164911027Y-122901319D01*
X164911027Y-122901319D02*
X164887217Y-122925128D01*
X164887217Y-122925128D02*
X164839598Y-122996557D01*
X164839598Y-122996557D02*
X164815789Y-123091795D01*
X164815789Y-123091795D02*
X164815789Y-123282271D01*
X164815789Y-123282271D02*
X164839598Y-123329890D01*
X164839598Y-123329890D02*
X164863408Y-123353700D01*
X164863408Y-123353700D02*
X164911027Y-123377509D01*
X164911027Y-123377509D02*
X165006265Y-123377509D01*
X165006265Y-123377509D02*
X165053884Y-123353700D01*
X165053884Y-123353700D02*
X165077693Y-123329890D01*
X165077693Y-123329890D02*
X165101503Y-123282271D01*
X165101503Y-123282271D02*
X165101503Y-123163223D01*
X165101503Y-123163223D02*
X165077693Y-123115604D01*
X165077693Y-123115604D02*
X165053884Y-123091795D01*
X165053884Y-123091795D02*
X165006265Y-123067985D01*
X165006265Y-123067985D02*
X164911027Y-123067985D01*
X164911027Y-123067985D02*
X164863408Y-123091795D01*
X164863408Y-123091795D02*
X164839598Y-123115604D01*
X164839598Y-123115604D02*
X164815789Y-123163223D01*
X145877509Y-105327068D02*
X145877509Y-105565163D01*
X145877509Y-105565163D02*
X145377509Y-105565163D01*
X145377509Y-105208020D02*
X145377509Y-104898496D01*
X145377509Y-104898496D02*
X145567985Y-105065163D01*
X145567985Y-105065163D02*
X145567985Y-104993734D01*
X145567985Y-104993734D02*
X145591795Y-104946115D01*
X145591795Y-104946115D02*
X145615604Y-104922306D01*
X145615604Y-104922306D02*
X145663223Y-104898496D01*
X145663223Y-104898496D02*
X145782271Y-104898496D01*
X145782271Y-104898496D02*
X145829890Y-104922306D01*
X145829890Y-104922306D02*
X145853700Y-104946115D01*
X145853700Y-104946115D02*
X145877509Y-104993734D01*
X145877509Y-104993734D02*
X145877509Y-105136591D01*
X145877509Y-105136591D02*
X145853700Y-105184210D01*
X145853700Y-105184210D02*
X145829890Y-105208020D01*
X142687785Y-95959771D02*
X142487785Y-95674057D01*
X142344928Y-95959771D02*
X142344928Y-95359771D01*
X142344928Y-95359771D02*
X142573499Y-95359771D01*
X142573499Y-95359771D02*
X142630642Y-95388342D01*
X142630642Y-95388342D02*
X142659213Y-95416914D01*
X142659213Y-95416914D02*
X142687785Y-95474057D01*
X142687785Y-95474057D02*
X142687785Y-95559771D01*
X142687785Y-95559771D02*
X142659213Y-95616914D01*
X142659213Y-95616914D02*
X142630642Y-95645485D01*
X142630642Y-95645485D02*
X142573499Y-95674057D01*
X142573499Y-95674057D02*
X142344928Y-95674057D01*
X142916356Y-95416914D02*
X142944928Y-95388342D01*
X142944928Y-95388342D02*
X143002071Y-95359771D01*
X143002071Y-95359771D02*
X143144928Y-95359771D01*
X143144928Y-95359771D02*
X143202071Y-95388342D01*
X143202071Y-95388342D02*
X143230642Y-95416914D01*
X143230642Y-95416914D02*
X143259213Y-95474057D01*
X143259213Y-95474057D02*
X143259213Y-95531200D01*
X143259213Y-95531200D02*
X143230642Y-95616914D01*
X143230642Y-95616914D02*
X142887785Y-95959771D01*
X142887785Y-95959771D02*
X143259213Y-95959771D01*
X143459214Y-95359771D02*
X143830642Y-95359771D01*
X143830642Y-95359771D02*
X143630642Y-95588342D01*
X143630642Y-95588342D02*
X143716357Y-95588342D01*
X143716357Y-95588342D02*
X143773500Y-95616914D01*
X143773500Y-95616914D02*
X143802071Y-95645485D01*
X143802071Y-95645485D02*
X143830642Y-95702628D01*
X143830642Y-95702628D02*
X143830642Y-95845485D01*
X143830642Y-95845485D02*
X143802071Y-95902628D01*
X143802071Y-95902628D02*
X143773500Y-95931200D01*
X143773500Y-95931200D02*
X143716357Y-95959771D01*
X143716357Y-95959771D02*
X143544928Y-95959771D01*
X143544928Y-95959771D02*
X143487785Y-95931200D01*
X143487785Y-95931200D02*
X143459214Y-95902628D01*
X134315228Y-120785714D02*
X134343800Y-120814286D01*
X134343800Y-120814286D02*
X134372371Y-120900000D01*
X134372371Y-120900000D02*
X134372371Y-120957143D01*
X134372371Y-120957143D02*
X134343800Y-121042857D01*
X134343800Y-121042857D02*
X134286657Y-121100000D01*
X134286657Y-121100000D02*
X134229514Y-121128571D01*
X134229514Y-121128571D02*
X134115228Y-121157143D01*
X134115228Y-121157143D02*
X134029514Y-121157143D01*
X134029514Y-121157143D02*
X133915228Y-121128571D01*
X133915228Y-121128571D02*
X133858085Y-121100000D01*
X133858085Y-121100000D02*
X133800942Y-121042857D01*
X133800942Y-121042857D02*
X133772371Y-120957143D01*
X133772371Y-120957143D02*
X133772371Y-120900000D01*
X133772371Y-120900000D02*
X133800942Y-120814286D01*
X133800942Y-120814286D02*
X133829514Y-120785714D01*
X133829514Y-120557143D02*
X133800942Y-120528571D01*
X133800942Y-120528571D02*
X133772371Y-120471429D01*
X133772371Y-120471429D02*
X133772371Y-120328571D01*
X133772371Y-120328571D02*
X133800942Y-120271429D01*
X133800942Y-120271429D02*
X133829514Y-120242857D01*
X133829514Y-120242857D02*
X133886657Y-120214286D01*
X133886657Y-120214286D02*
X133943800Y-120214286D01*
X133943800Y-120214286D02*
X134029514Y-120242857D01*
X134029514Y-120242857D02*
X134372371Y-120585714D01*
X134372371Y-120585714D02*
X134372371Y-120214286D01*
X133772371Y-120014285D02*
X133772371Y-119614285D01*
X133772371Y-119614285D02*
X134372371Y-119871428D01*
X147150000Y-99272371D02*
X146950000Y-98986657D01*
X146807143Y-99272371D02*
X146807143Y-98672371D01*
X146807143Y-98672371D02*
X147035714Y-98672371D01*
X147035714Y-98672371D02*
X147092857Y-98700942D01*
X147092857Y-98700942D02*
X147121428Y-98729514D01*
X147121428Y-98729514D02*
X147150000Y-98786657D01*
X147150000Y-98786657D02*
X147150000Y-98872371D01*
X147150000Y-98872371D02*
X147121428Y-98929514D01*
X147121428Y-98929514D02*
X147092857Y-98958085D01*
X147092857Y-98958085D02*
X147035714Y-98986657D01*
X147035714Y-98986657D02*
X146807143Y-98986657D01*
X147692857Y-98672371D02*
X147407143Y-98672371D01*
X147407143Y-98672371D02*
X147378571Y-98958085D01*
X147378571Y-98958085D02*
X147407143Y-98929514D01*
X147407143Y-98929514D02*
X147464286Y-98900942D01*
X147464286Y-98900942D02*
X147607143Y-98900942D01*
X147607143Y-98900942D02*
X147664286Y-98929514D01*
X147664286Y-98929514D02*
X147692857Y-98958085D01*
X147692857Y-98958085D02*
X147721428Y-99015228D01*
X147721428Y-99015228D02*
X147721428Y-99158085D01*
X147721428Y-99158085D02*
X147692857Y-99215228D01*
X147692857Y-99215228D02*
X147664286Y-99243800D01*
X147664286Y-99243800D02*
X147607143Y-99272371D01*
X147607143Y-99272371D02*
X147464286Y-99272371D01*
X147464286Y-99272371D02*
X147407143Y-99243800D01*
X147407143Y-99243800D02*
X147378571Y-99215228D01*
X165714285Y-85215228D02*
X165685713Y-85243800D01*
X165685713Y-85243800D02*
X165599999Y-85272371D01*
X165599999Y-85272371D02*
X165542856Y-85272371D01*
X165542856Y-85272371D02*
X165457142Y-85243800D01*
X165457142Y-85243800D02*
X165399999Y-85186657D01*
X165399999Y-85186657D02*
X165371428Y-85129514D01*
X165371428Y-85129514D02*
X165342856Y-85015228D01*
X165342856Y-85015228D02*
X165342856Y-84929514D01*
X165342856Y-84929514D02*
X165371428Y-84815228D01*
X165371428Y-84815228D02*
X165399999Y-84758085D01*
X165399999Y-84758085D02*
X165457142Y-84700942D01*
X165457142Y-84700942D02*
X165542856Y-84672371D01*
X165542856Y-84672371D02*
X165599999Y-84672371D01*
X165599999Y-84672371D02*
X165685713Y-84700942D01*
X165685713Y-84700942D02*
X165714285Y-84729514D01*
X165942856Y-84729514D02*
X165971428Y-84700942D01*
X165971428Y-84700942D02*
X166028571Y-84672371D01*
X166028571Y-84672371D02*
X166171428Y-84672371D01*
X166171428Y-84672371D02*
X166228571Y-84700942D01*
X166228571Y-84700942D02*
X166257142Y-84729514D01*
X166257142Y-84729514D02*
X166285713Y-84786657D01*
X166285713Y-84786657D02*
X166285713Y-84843800D01*
X166285713Y-84843800D02*
X166257142Y-84929514D01*
X166257142Y-84929514D02*
X165914285Y-85272371D01*
X165914285Y-85272371D02*
X166285713Y-85272371D01*
X166485714Y-84672371D02*
X166857142Y-84672371D01*
X166857142Y-84672371D02*
X166657142Y-84900942D01*
X166657142Y-84900942D02*
X166742857Y-84900942D01*
X166742857Y-84900942D02*
X166800000Y-84929514D01*
X166800000Y-84929514D02*
X166828571Y-84958085D01*
X166828571Y-84958085D02*
X166857142Y-85015228D01*
X166857142Y-85015228D02*
X166857142Y-85158085D01*
X166857142Y-85158085D02*
X166828571Y-85215228D01*
X166828571Y-85215228D02*
X166800000Y-85243800D01*
X166800000Y-85243800D02*
X166742857Y-85272371D01*
X166742857Y-85272371D02*
X166571428Y-85272371D01*
X166571428Y-85272371D02*
X166514285Y-85243800D01*
X166514285Y-85243800D02*
X166485714Y-85215228D01*
X132443685Y-102825271D02*
X132243685Y-102539557D01*
X132100828Y-102825271D02*
X132100828Y-102225271D01*
X132100828Y-102225271D02*
X132329399Y-102225271D01*
X132329399Y-102225271D02*
X132386542Y-102253842D01*
X132386542Y-102253842D02*
X132415113Y-102282414D01*
X132415113Y-102282414D02*
X132443685Y-102339557D01*
X132443685Y-102339557D02*
X132443685Y-102425271D01*
X132443685Y-102425271D02*
X132415113Y-102482414D01*
X132415113Y-102482414D02*
X132386542Y-102510985D01*
X132386542Y-102510985D02*
X132329399Y-102539557D01*
X132329399Y-102539557D02*
X132100828Y-102539557D01*
X132672256Y-102282414D02*
X132700828Y-102253842D01*
X132700828Y-102253842D02*
X132757971Y-102225271D01*
X132757971Y-102225271D02*
X132900828Y-102225271D01*
X132900828Y-102225271D02*
X132957971Y-102253842D01*
X132957971Y-102253842D02*
X132986542Y-102282414D01*
X132986542Y-102282414D02*
X133015113Y-102339557D01*
X133015113Y-102339557D02*
X133015113Y-102396700D01*
X133015113Y-102396700D02*
X132986542Y-102482414D01*
X132986542Y-102482414D02*
X132643685Y-102825271D01*
X132643685Y-102825271D02*
X133015113Y-102825271D01*
X133529400Y-102225271D02*
X133415114Y-102225271D01*
X133415114Y-102225271D02*
X133357971Y-102253842D01*
X133357971Y-102253842D02*
X133329400Y-102282414D01*
X133329400Y-102282414D02*
X133272257Y-102368128D01*
X133272257Y-102368128D02*
X133243685Y-102482414D01*
X133243685Y-102482414D02*
X133243685Y-102710985D01*
X133243685Y-102710985D02*
X133272257Y-102768128D01*
X133272257Y-102768128D02*
X133300828Y-102796700D01*
X133300828Y-102796700D02*
X133357971Y-102825271D01*
X133357971Y-102825271D02*
X133472257Y-102825271D01*
X133472257Y-102825271D02*
X133529400Y-102796700D01*
X133529400Y-102796700D02*
X133557971Y-102768128D01*
X133557971Y-102768128D02*
X133586542Y-102710985D01*
X133586542Y-102710985D02*
X133586542Y-102568128D01*
X133586542Y-102568128D02*
X133557971Y-102510985D01*
X133557971Y-102510985D02*
X133529400Y-102482414D01*
X133529400Y-102482414D02*
X133472257Y-102453842D01*
X133472257Y-102453842D02*
X133357971Y-102453842D01*
X133357971Y-102453842D02*
X133300828Y-102482414D01*
X133300828Y-102482414D02*
X133272257Y-102510985D01*
X133272257Y-102510985D02*
X133243685Y-102568128D01*
X146517785Y-116754671D02*
X146317785Y-116468957D01*
X146174928Y-116754671D02*
X146174928Y-116154671D01*
X146174928Y-116154671D02*
X146403499Y-116154671D01*
X146403499Y-116154671D02*
X146460642Y-116183242D01*
X146460642Y-116183242D02*
X146489213Y-116211814D01*
X146489213Y-116211814D02*
X146517785Y-116268957D01*
X146517785Y-116268957D02*
X146517785Y-116354671D01*
X146517785Y-116354671D02*
X146489213Y-116411814D01*
X146489213Y-116411814D02*
X146460642Y-116440385D01*
X146460642Y-116440385D02*
X146403499Y-116468957D01*
X146403499Y-116468957D02*
X146174928Y-116468957D01*
X146746356Y-116211814D02*
X146774928Y-116183242D01*
X146774928Y-116183242D02*
X146832071Y-116154671D01*
X146832071Y-116154671D02*
X146974928Y-116154671D01*
X146974928Y-116154671D02*
X147032071Y-116183242D01*
X147032071Y-116183242D02*
X147060642Y-116211814D01*
X147060642Y-116211814D02*
X147089213Y-116268957D01*
X147089213Y-116268957D02*
X147089213Y-116326100D01*
X147089213Y-116326100D02*
X147060642Y-116411814D01*
X147060642Y-116411814D02*
X146717785Y-116754671D01*
X146717785Y-116754671D02*
X147089213Y-116754671D01*
X147632071Y-116154671D02*
X147346357Y-116154671D01*
X147346357Y-116154671D02*
X147317785Y-116440385D01*
X147317785Y-116440385D02*
X147346357Y-116411814D01*
X147346357Y-116411814D02*
X147403500Y-116383242D01*
X147403500Y-116383242D02*
X147546357Y-116383242D01*
X147546357Y-116383242D02*
X147603500Y-116411814D01*
X147603500Y-116411814D02*
X147632071Y-116440385D01*
X147632071Y-116440385D02*
X147660642Y-116497528D01*
X147660642Y-116497528D02*
X147660642Y-116640385D01*
X147660642Y-116640385D02*
X147632071Y-116697528D01*
X147632071Y-116697528D02*
X147603500Y-116726100D01*
X147603500Y-116726100D02*
X147546357Y-116754671D01*
X147546357Y-116754671D02*
X147403500Y-116754671D01*
X147403500Y-116754671D02*
X147346357Y-116726100D01*
X147346357Y-116726100D02*
X147317785Y-116697528D01*
X125739285Y-119772371D02*
X125539285Y-119486657D01*
X125396428Y-119772371D02*
X125396428Y-119172371D01*
X125396428Y-119172371D02*
X125624999Y-119172371D01*
X125624999Y-119172371D02*
X125682142Y-119200942D01*
X125682142Y-119200942D02*
X125710713Y-119229514D01*
X125710713Y-119229514D02*
X125739285Y-119286657D01*
X125739285Y-119286657D02*
X125739285Y-119372371D01*
X125739285Y-119372371D02*
X125710713Y-119429514D01*
X125710713Y-119429514D02*
X125682142Y-119458085D01*
X125682142Y-119458085D02*
X125624999Y-119486657D01*
X125624999Y-119486657D02*
X125396428Y-119486657D01*
X125967856Y-119229514D02*
X125996428Y-119200942D01*
X125996428Y-119200942D02*
X126053571Y-119172371D01*
X126053571Y-119172371D02*
X126196428Y-119172371D01*
X126196428Y-119172371D02*
X126253571Y-119200942D01*
X126253571Y-119200942D02*
X126282142Y-119229514D01*
X126282142Y-119229514D02*
X126310713Y-119286657D01*
X126310713Y-119286657D02*
X126310713Y-119343800D01*
X126310713Y-119343800D02*
X126282142Y-119429514D01*
X126282142Y-119429514D02*
X125939285Y-119772371D01*
X125939285Y-119772371D02*
X126310713Y-119772371D01*
X126682142Y-119172371D02*
X126739285Y-119172371D01*
X126739285Y-119172371D02*
X126796428Y-119200942D01*
X126796428Y-119200942D02*
X126825000Y-119229514D01*
X126825000Y-119229514D02*
X126853571Y-119286657D01*
X126853571Y-119286657D02*
X126882142Y-119400942D01*
X126882142Y-119400942D02*
X126882142Y-119543800D01*
X126882142Y-119543800D02*
X126853571Y-119658085D01*
X126853571Y-119658085D02*
X126825000Y-119715228D01*
X126825000Y-119715228D02*
X126796428Y-119743800D01*
X126796428Y-119743800D02*
X126739285Y-119772371D01*
X126739285Y-119772371D02*
X126682142Y-119772371D01*
X126682142Y-119772371D02*
X126625000Y-119743800D01*
X126625000Y-119743800D02*
X126596428Y-119715228D01*
X126596428Y-119715228D02*
X126567857Y-119658085D01*
X126567857Y-119658085D02*
X126539285Y-119543800D01*
X126539285Y-119543800D02*
X126539285Y-119400942D01*
X126539285Y-119400942D02*
X126567857Y-119286657D01*
X126567857Y-119286657D02*
X126596428Y-119229514D01*
X126596428Y-119229514D02*
X126625000Y-119200942D01*
X126625000Y-119200942D02*
X126682142Y-119172371D01*
X119172931Y-99377509D02*
X118934836Y-99377509D01*
X118934836Y-99377509D02*
X118934836Y-98877509D01*
X119553884Y-99044176D02*
X119553884Y-99377509D01*
X119434836Y-98853700D02*
X119315789Y-99210842D01*
X119315789Y-99210842D02*
X119625312Y-99210842D01*
X145872371Y-99099999D02*
X145872371Y-99385713D01*
X145872371Y-99385713D02*
X145272371Y-99385713D01*
X145329514Y-98928571D02*
X145300942Y-98899999D01*
X145300942Y-98899999D02*
X145272371Y-98842857D01*
X145272371Y-98842857D02*
X145272371Y-98699999D01*
X145272371Y-98699999D02*
X145300942Y-98642857D01*
X145300942Y-98642857D02*
X145329514Y-98614285D01*
X145329514Y-98614285D02*
X145386657Y-98585714D01*
X145386657Y-98585714D02*
X145443800Y-98585714D01*
X145443800Y-98585714D02*
X145529514Y-98614285D01*
X145529514Y-98614285D02*
X145872371Y-98957142D01*
X145872371Y-98957142D02*
X145872371Y-98585714D01*
X154039285Y-131715228D02*
X154010713Y-131743800D01*
X154010713Y-131743800D02*
X153924999Y-131772371D01*
X153924999Y-131772371D02*
X153867856Y-131772371D01*
X153867856Y-131772371D02*
X153782142Y-131743800D01*
X153782142Y-131743800D02*
X153724999Y-131686657D01*
X153724999Y-131686657D02*
X153696428Y-131629514D01*
X153696428Y-131629514D02*
X153667856Y-131515228D01*
X153667856Y-131515228D02*
X153667856Y-131429514D01*
X153667856Y-131429514D02*
X153696428Y-131315228D01*
X153696428Y-131315228D02*
X153724999Y-131258085D01*
X153724999Y-131258085D02*
X153782142Y-131200942D01*
X153782142Y-131200942D02*
X153867856Y-131172371D01*
X153867856Y-131172371D02*
X153924999Y-131172371D01*
X153924999Y-131172371D02*
X154010713Y-131200942D01*
X154010713Y-131200942D02*
X154039285Y-131229514D01*
X154267856Y-131229514D02*
X154296428Y-131200942D01*
X154296428Y-131200942D02*
X154353571Y-131172371D01*
X154353571Y-131172371D02*
X154496428Y-131172371D01*
X154496428Y-131172371D02*
X154553571Y-131200942D01*
X154553571Y-131200942D02*
X154582142Y-131229514D01*
X154582142Y-131229514D02*
X154610713Y-131286657D01*
X154610713Y-131286657D02*
X154610713Y-131343800D01*
X154610713Y-131343800D02*
X154582142Y-131429514D01*
X154582142Y-131429514D02*
X154239285Y-131772371D01*
X154239285Y-131772371D02*
X154610713Y-131772371D01*
X154839285Y-131229514D02*
X154867857Y-131200942D01*
X154867857Y-131200942D02*
X154925000Y-131172371D01*
X154925000Y-131172371D02*
X155067857Y-131172371D01*
X155067857Y-131172371D02*
X155125000Y-131200942D01*
X155125000Y-131200942D02*
X155153571Y-131229514D01*
X155153571Y-131229514D02*
X155182142Y-131286657D01*
X155182142Y-131286657D02*
X155182142Y-131343800D01*
X155182142Y-131343800D02*
X155153571Y-131429514D01*
X155153571Y-131429514D02*
X154810714Y-131772371D01*
X154810714Y-131772371D02*
X155182142Y-131772371D01*
X162000000Y-89215228D02*
X161971428Y-89243800D01*
X161971428Y-89243800D02*
X161885714Y-89272371D01*
X161885714Y-89272371D02*
X161828571Y-89272371D01*
X161828571Y-89272371D02*
X161742857Y-89243800D01*
X161742857Y-89243800D02*
X161685714Y-89186657D01*
X161685714Y-89186657D02*
X161657143Y-89129514D01*
X161657143Y-89129514D02*
X161628571Y-89015228D01*
X161628571Y-89015228D02*
X161628571Y-88929514D01*
X161628571Y-88929514D02*
X161657143Y-88815228D01*
X161657143Y-88815228D02*
X161685714Y-88758085D01*
X161685714Y-88758085D02*
X161742857Y-88700942D01*
X161742857Y-88700942D02*
X161828571Y-88672371D01*
X161828571Y-88672371D02*
X161885714Y-88672371D01*
X161885714Y-88672371D02*
X161971428Y-88700942D01*
X161971428Y-88700942D02*
X162000000Y-88729514D01*
X162228571Y-88729514D02*
X162257143Y-88700942D01*
X162257143Y-88700942D02*
X162314286Y-88672371D01*
X162314286Y-88672371D02*
X162457143Y-88672371D01*
X162457143Y-88672371D02*
X162514286Y-88700942D01*
X162514286Y-88700942D02*
X162542857Y-88729514D01*
X162542857Y-88729514D02*
X162571428Y-88786657D01*
X162571428Y-88786657D02*
X162571428Y-88843800D01*
X162571428Y-88843800D02*
X162542857Y-88929514D01*
X162542857Y-88929514D02*
X162200000Y-89272371D01*
X162200000Y-89272371D02*
X162571428Y-89272371D01*
X145911027Y-125819200D02*
X145982455Y-125843009D01*
X145982455Y-125843009D02*
X146101503Y-125843009D01*
X146101503Y-125843009D02*
X146149122Y-125819200D01*
X146149122Y-125819200D02*
X146172931Y-125795390D01*
X146172931Y-125795390D02*
X146196741Y-125747771D01*
X146196741Y-125747771D02*
X146196741Y-125700152D01*
X146196741Y-125700152D02*
X146172931Y-125652533D01*
X146172931Y-125652533D02*
X146149122Y-125628723D01*
X146149122Y-125628723D02*
X146101503Y-125604914D01*
X146101503Y-125604914D02*
X146006265Y-125581104D01*
X146006265Y-125581104D02*
X145958646Y-125557295D01*
X145958646Y-125557295D02*
X145934836Y-125533485D01*
X145934836Y-125533485D02*
X145911027Y-125485866D01*
X145911027Y-125485866D02*
X145911027Y-125438247D01*
X145911027Y-125438247D02*
X145934836Y-125390628D01*
X145934836Y-125390628D02*
X145958646Y-125366819D01*
X145958646Y-125366819D02*
X146006265Y-125343009D01*
X146006265Y-125343009D02*
X146125312Y-125343009D01*
X146125312Y-125343009D02*
X146196741Y-125366819D01*
X146387217Y-125390628D02*
X146411026Y-125366819D01*
X146411026Y-125366819D02*
X146458645Y-125343009D01*
X146458645Y-125343009D02*
X146577693Y-125343009D01*
X146577693Y-125343009D02*
X146625312Y-125366819D01*
X146625312Y-125366819D02*
X146649121Y-125390628D01*
X146649121Y-125390628D02*
X146672931Y-125438247D01*
X146672931Y-125438247D02*
X146672931Y-125485866D01*
X146672931Y-125485866D02*
X146649121Y-125557295D01*
X146649121Y-125557295D02*
X146363407Y-125843009D01*
X146363407Y-125843009D02*
X146672931Y-125843009D01*
X132564285Y-108272371D02*
X132364285Y-107986657D01*
X132221428Y-108272371D02*
X132221428Y-107672371D01*
X132221428Y-107672371D02*
X132449999Y-107672371D01*
X132449999Y-107672371D02*
X132507142Y-107700942D01*
X132507142Y-107700942D02*
X132535713Y-107729514D01*
X132535713Y-107729514D02*
X132564285Y-107786657D01*
X132564285Y-107786657D02*
X132564285Y-107872371D01*
X132564285Y-107872371D02*
X132535713Y-107929514D01*
X132535713Y-107929514D02*
X132507142Y-107958085D01*
X132507142Y-107958085D02*
X132449999Y-107986657D01*
X132449999Y-107986657D02*
X132221428Y-107986657D01*
X133135713Y-108272371D02*
X132792856Y-108272371D01*
X132964285Y-108272371D02*
X132964285Y-107672371D01*
X132964285Y-107672371D02*
X132907142Y-107758085D01*
X132907142Y-107758085D02*
X132849999Y-107815228D01*
X132849999Y-107815228D02*
X132792856Y-107843800D01*
X133507142Y-107672371D02*
X133564285Y-107672371D01*
X133564285Y-107672371D02*
X133621428Y-107700942D01*
X133621428Y-107700942D02*
X133650000Y-107729514D01*
X133650000Y-107729514D02*
X133678571Y-107786657D01*
X133678571Y-107786657D02*
X133707142Y-107900942D01*
X133707142Y-107900942D02*
X133707142Y-108043800D01*
X133707142Y-108043800D02*
X133678571Y-108158085D01*
X133678571Y-108158085D02*
X133650000Y-108215228D01*
X133650000Y-108215228D02*
X133621428Y-108243800D01*
X133621428Y-108243800D02*
X133564285Y-108272371D01*
X133564285Y-108272371D02*
X133507142Y-108272371D01*
X133507142Y-108272371D02*
X133450000Y-108243800D01*
X133450000Y-108243800D02*
X133421428Y-108215228D01*
X133421428Y-108215228D02*
X133392857Y-108158085D01*
X133392857Y-108158085D02*
X133364285Y-108043800D01*
X133364285Y-108043800D02*
X133364285Y-107900942D01*
X133364285Y-107900942D02*
X133392857Y-107786657D01*
X133392857Y-107786657D02*
X133421428Y-107729514D01*
X133421428Y-107729514D02*
X133450000Y-107700942D01*
X133450000Y-107700942D02*
X133507142Y-107672371D01*
X156525000Y-78572371D02*
X156325000Y-78286657D01*
X156182143Y-78572371D02*
X156182143Y-77972371D01*
X156182143Y-77972371D02*
X156410714Y-77972371D01*
X156410714Y-77972371D02*
X156467857Y-78000942D01*
X156467857Y-78000942D02*
X156496428Y-78029514D01*
X156496428Y-78029514D02*
X156525000Y-78086657D01*
X156525000Y-78086657D02*
X156525000Y-78172371D01*
X156525000Y-78172371D02*
X156496428Y-78229514D01*
X156496428Y-78229514D02*
X156467857Y-78258085D01*
X156467857Y-78258085D02*
X156410714Y-78286657D01*
X156410714Y-78286657D02*
X156182143Y-78286657D01*
X156753571Y-78029514D02*
X156782143Y-78000942D01*
X156782143Y-78000942D02*
X156839286Y-77972371D01*
X156839286Y-77972371D02*
X156982143Y-77972371D01*
X156982143Y-77972371D02*
X157039286Y-78000942D01*
X157039286Y-78000942D02*
X157067857Y-78029514D01*
X157067857Y-78029514D02*
X157096428Y-78086657D01*
X157096428Y-78086657D02*
X157096428Y-78143800D01*
X157096428Y-78143800D02*
X157067857Y-78229514D01*
X157067857Y-78229514D02*
X156725000Y-78572371D01*
X156725000Y-78572371D02*
X157096428Y-78572371D01*
X165714285Y-131215228D02*
X165685713Y-131243800D01*
X165685713Y-131243800D02*
X165599999Y-131272371D01*
X165599999Y-131272371D02*
X165542856Y-131272371D01*
X165542856Y-131272371D02*
X165457142Y-131243800D01*
X165457142Y-131243800D02*
X165399999Y-131186657D01*
X165399999Y-131186657D02*
X165371428Y-131129514D01*
X165371428Y-131129514D02*
X165342856Y-131015228D01*
X165342856Y-131015228D02*
X165342856Y-130929514D01*
X165342856Y-130929514D02*
X165371428Y-130815228D01*
X165371428Y-130815228D02*
X165399999Y-130758085D01*
X165399999Y-130758085D02*
X165457142Y-130700942D01*
X165457142Y-130700942D02*
X165542856Y-130672371D01*
X165542856Y-130672371D02*
X165599999Y-130672371D01*
X165599999Y-130672371D02*
X165685713Y-130700942D01*
X165685713Y-130700942D02*
X165714285Y-130729514D01*
X165942856Y-130729514D02*
X165971428Y-130700942D01*
X165971428Y-130700942D02*
X166028571Y-130672371D01*
X166028571Y-130672371D02*
X166171428Y-130672371D01*
X166171428Y-130672371D02*
X166228571Y-130700942D01*
X166228571Y-130700942D02*
X166257142Y-130729514D01*
X166257142Y-130729514D02*
X166285713Y-130786657D01*
X166285713Y-130786657D02*
X166285713Y-130843800D01*
X166285713Y-130843800D02*
X166257142Y-130929514D01*
X166257142Y-130929514D02*
X165914285Y-131272371D01*
X165914285Y-131272371D02*
X166285713Y-131272371D01*
X166800000Y-130872371D02*
X166800000Y-131272371D01*
X166657142Y-130643800D02*
X166514285Y-131072371D01*
X166514285Y-131072371D02*
X166885714Y-131072371D01*
X124039285Y-99272371D02*
X123839285Y-98986657D01*
X123696428Y-99272371D02*
X123696428Y-98672371D01*
X123696428Y-98672371D02*
X123924999Y-98672371D01*
X123924999Y-98672371D02*
X123982142Y-98700942D01*
X123982142Y-98700942D02*
X124010713Y-98729514D01*
X124010713Y-98729514D02*
X124039285Y-98786657D01*
X124039285Y-98786657D02*
X124039285Y-98872371D01*
X124039285Y-98872371D02*
X124010713Y-98929514D01*
X124010713Y-98929514D02*
X123982142Y-98958085D01*
X123982142Y-98958085D02*
X123924999Y-98986657D01*
X123924999Y-98986657D02*
X123696428Y-98986657D01*
X124610713Y-99272371D02*
X124267856Y-99272371D01*
X124439285Y-99272371D02*
X124439285Y-98672371D01*
X124439285Y-98672371D02*
X124382142Y-98758085D01*
X124382142Y-98758085D02*
X124324999Y-98815228D01*
X124324999Y-98815228D02*
X124267856Y-98843800D01*
X125125000Y-98672371D02*
X125010714Y-98672371D01*
X125010714Y-98672371D02*
X124953571Y-98700942D01*
X124953571Y-98700942D02*
X124925000Y-98729514D01*
X124925000Y-98729514D02*
X124867857Y-98815228D01*
X124867857Y-98815228D02*
X124839285Y-98929514D01*
X124839285Y-98929514D02*
X124839285Y-99158085D01*
X124839285Y-99158085D02*
X124867857Y-99215228D01*
X124867857Y-99215228D02*
X124896428Y-99243800D01*
X124896428Y-99243800D02*
X124953571Y-99272371D01*
X124953571Y-99272371D02*
X125067857Y-99272371D01*
X125067857Y-99272371D02*
X125125000Y-99243800D01*
X125125000Y-99243800D02*
X125153571Y-99215228D01*
X125153571Y-99215228D02*
X125182142Y-99158085D01*
X125182142Y-99158085D02*
X125182142Y-99015228D01*
X125182142Y-99015228D02*
X125153571Y-98958085D01*
X125153571Y-98958085D02*
X125125000Y-98929514D01*
X125125000Y-98929514D02*
X125067857Y-98900942D01*
X125067857Y-98900942D02*
X124953571Y-98900942D01*
X124953571Y-98900942D02*
X124896428Y-98929514D01*
X124896428Y-98929514D02*
X124867857Y-98958085D01*
X124867857Y-98958085D02*
X124839285Y-99015228D01*
X125739285Y-116772371D02*
X125539285Y-116486657D01*
X125396428Y-116772371D02*
X125396428Y-116172371D01*
X125396428Y-116172371D02*
X125624999Y-116172371D01*
X125624999Y-116172371D02*
X125682142Y-116200942D01*
X125682142Y-116200942D02*
X125710713Y-116229514D01*
X125710713Y-116229514D02*
X125739285Y-116286657D01*
X125739285Y-116286657D02*
X125739285Y-116372371D01*
X125739285Y-116372371D02*
X125710713Y-116429514D01*
X125710713Y-116429514D02*
X125682142Y-116458085D01*
X125682142Y-116458085D02*
X125624999Y-116486657D01*
X125624999Y-116486657D02*
X125396428Y-116486657D01*
X125967856Y-116229514D02*
X125996428Y-116200942D01*
X125996428Y-116200942D02*
X126053571Y-116172371D01*
X126053571Y-116172371D02*
X126196428Y-116172371D01*
X126196428Y-116172371D02*
X126253571Y-116200942D01*
X126253571Y-116200942D02*
X126282142Y-116229514D01*
X126282142Y-116229514D02*
X126310713Y-116286657D01*
X126310713Y-116286657D02*
X126310713Y-116343800D01*
X126310713Y-116343800D02*
X126282142Y-116429514D01*
X126282142Y-116429514D02*
X125939285Y-116772371D01*
X125939285Y-116772371D02*
X126310713Y-116772371D01*
X126539285Y-116229514D02*
X126567857Y-116200942D01*
X126567857Y-116200942D02*
X126625000Y-116172371D01*
X126625000Y-116172371D02*
X126767857Y-116172371D01*
X126767857Y-116172371D02*
X126825000Y-116200942D01*
X126825000Y-116200942D02*
X126853571Y-116229514D01*
X126853571Y-116229514D02*
X126882142Y-116286657D01*
X126882142Y-116286657D02*
X126882142Y-116343800D01*
X126882142Y-116343800D02*
X126853571Y-116429514D01*
X126853571Y-116429514D02*
X126510714Y-116772371D01*
X126510714Y-116772371D02*
X126882142Y-116772371D01*
X134403884Y-113748419D02*
X134403884Y-114557942D01*
X134403884Y-114557942D02*
X134451503Y-114653180D01*
X134451503Y-114653180D02*
X134499122Y-114700800D01*
X134499122Y-114700800D02*
X134594360Y-114748419D01*
X134594360Y-114748419D02*
X134784836Y-114748419D01*
X134784836Y-114748419D02*
X134880074Y-114700800D01*
X134880074Y-114700800D02*
X134927693Y-114653180D01*
X134927693Y-114653180D02*
X134975312Y-114557942D01*
X134975312Y-114557942D02*
X134975312Y-113748419D01*
X135356265Y-113748419D02*
X135975312Y-113748419D01*
X135975312Y-113748419D02*
X135641979Y-114129371D01*
X135641979Y-114129371D02*
X135784836Y-114129371D01*
X135784836Y-114129371D02*
X135880074Y-114176990D01*
X135880074Y-114176990D02*
X135927693Y-114224609D01*
X135927693Y-114224609D02*
X135975312Y-114319847D01*
X135975312Y-114319847D02*
X135975312Y-114557942D01*
X135975312Y-114557942D02*
X135927693Y-114653180D01*
X135927693Y-114653180D02*
X135880074Y-114700800D01*
X135880074Y-114700800D02*
X135784836Y-114748419D01*
X135784836Y-114748419D02*
X135499122Y-114748419D01*
X135499122Y-114748419D02*
X135403884Y-114700800D01*
X135403884Y-114700800D02*
X135356265Y-114653180D01*
X130564285Y-108272371D02*
X130364285Y-107986657D01*
X130221428Y-108272371D02*
X130221428Y-107672371D01*
X130221428Y-107672371D02*
X130449999Y-107672371D01*
X130449999Y-107672371D02*
X130507142Y-107700942D01*
X130507142Y-107700942D02*
X130535713Y-107729514D01*
X130535713Y-107729514D02*
X130564285Y-107786657D01*
X130564285Y-107786657D02*
X130564285Y-107872371D01*
X130564285Y-107872371D02*
X130535713Y-107929514D01*
X130535713Y-107929514D02*
X130507142Y-107958085D01*
X130507142Y-107958085D02*
X130449999Y-107986657D01*
X130449999Y-107986657D02*
X130221428Y-107986657D01*
X131135713Y-108272371D02*
X130792856Y-108272371D01*
X130964285Y-108272371D02*
X130964285Y-107672371D01*
X130964285Y-107672371D02*
X130907142Y-107758085D01*
X130907142Y-107758085D02*
X130849999Y-107815228D01*
X130849999Y-107815228D02*
X130792856Y-107843800D01*
X131707142Y-108272371D02*
X131364285Y-108272371D01*
X131535714Y-108272371D02*
X131535714Y-107672371D01*
X131535714Y-107672371D02*
X131478571Y-107758085D01*
X131478571Y-107758085D02*
X131421428Y-107815228D01*
X131421428Y-107815228D02*
X131364285Y-107843800D01*
X164672931Y-87377509D02*
X164434836Y-87377509D01*
X164434836Y-87377509D02*
X164434836Y-86877509D01*
X165077693Y-86877509D02*
X164839598Y-86877509D01*
X164839598Y-86877509D02*
X164815789Y-87115604D01*
X164815789Y-87115604D02*
X164839598Y-87091795D01*
X164839598Y-87091795D02*
X164887217Y-87067985D01*
X164887217Y-87067985D02*
X165006265Y-87067985D01*
X165006265Y-87067985D02*
X165053884Y-87091795D01*
X165053884Y-87091795D02*
X165077693Y-87115604D01*
X165077693Y-87115604D02*
X165101503Y-87163223D01*
X165101503Y-87163223D02*
X165101503Y-87282271D01*
X165101503Y-87282271D02*
X165077693Y-87329890D01*
X165077693Y-87329890D02*
X165053884Y-87353700D01*
X165053884Y-87353700D02*
X165006265Y-87377509D01*
X165006265Y-87377509D02*
X164887217Y-87377509D01*
X164887217Y-87377509D02*
X164839598Y-87353700D01*
X164839598Y-87353700D02*
X164815789Y-87329890D01*
X118864285Y-115772371D02*
X118664285Y-115486657D01*
X118521428Y-115772371D02*
X118521428Y-115172371D01*
X118521428Y-115172371D02*
X118749999Y-115172371D01*
X118749999Y-115172371D02*
X118807142Y-115200942D01*
X118807142Y-115200942D02*
X118835713Y-115229514D01*
X118835713Y-115229514D02*
X118864285Y-115286657D01*
X118864285Y-115286657D02*
X118864285Y-115372371D01*
X118864285Y-115372371D02*
X118835713Y-115429514D01*
X118835713Y-115429514D02*
X118807142Y-115458085D01*
X118807142Y-115458085D02*
X118749999Y-115486657D01*
X118749999Y-115486657D02*
X118521428Y-115486657D01*
X119435713Y-115772371D02*
X119092856Y-115772371D01*
X119264285Y-115772371D02*
X119264285Y-115172371D01*
X119264285Y-115172371D02*
X119207142Y-115258085D01*
X119207142Y-115258085D02*
X119149999Y-115315228D01*
X119149999Y-115315228D02*
X119092856Y-115343800D01*
X119721428Y-115772371D02*
X119835714Y-115772371D01*
X119835714Y-115772371D02*
X119892857Y-115743800D01*
X119892857Y-115743800D02*
X119921428Y-115715228D01*
X119921428Y-115715228D02*
X119978571Y-115629514D01*
X119978571Y-115629514D02*
X120007142Y-115515228D01*
X120007142Y-115515228D02*
X120007142Y-115286657D01*
X120007142Y-115286657D02*
X119978571Y-115229514D01*
X119978571Y-115229514D02*
X119950000Y-115200942D01*
X119950000Y-115200942D02*
X119892857Y-115172371D01*
X119892857Y-115172371D02*
X119778571Y-115172371D01*
X119778571Y-115172371D02*
X119721428Y-115200942D01*
X119721428Y-115200942D02*
X119692857Y-115229514D01*
X119692857Y-115229514D02*
X119664285Y-115286657D01*
X119664285Y-115286657D02*
X119664285Y-115429514D01*
X119664285Y-115429514D02*
X119692857Y-115486657D01*
X119692857Y-115486657D02*
X119721428Y-115515228D01*
X119721428Y-115515228D02*
X119778571Y-115543800D01*
X119778571Y-115543800D02*
X119892857Y-115543800D01*
X119892857Y-115543800D02*
X119950000Y-115515228D01*
X119950000Y-115515228D02*
X119978571Y-115486657D01*
X119978571Y-115486657D02*
X120007142Y-115429514D01*
X158500000Y-89772371D02*
X158214286Y-89772371D01*
X158214286Y-89772371D02*
X158214286Y-89172371D01*
X159014285Y-89772371D02*
X158671428Y-89772371D01*
X158842857Y-89772371D02*
X158842857Y-89172371D01*
X158842857Y-89172371D02*
X158785714Y-89258085D01*
X158785714Y-89258085D02*
X158728571Y-89315228D01*
X158728571Y-89315228D02*
X158671428Y-89343800D01*
X163453884Y-123298419D02*
X163453884Y-122298419D01*
X163453884Y-122298419D02*
X163691979Y-122298419D01*
X163691979Y-122298419D02*
X163834836Y-122346038D01*
X163834836Y-122346038D02*
X163930074Y-122441276D01*
X163930074Y-122441276D02*
X163977693Y-122536514D01*
X163977693Y-122536514D02*
X164025312Y-122726990D01*
X164025312Y-122726990D02*
X164025312Y-122869847D01*
X164025312Y-122869847D02*
X163977693Y-123060323D01*
X163977693Y-123060323D02*
X163930074Y-123155561D01*
X163930074Y-123155561D02*
X163834836Y-123250800D01*
X163834836Y-123250800D02*
X163691979Y-123298419D01*
X163691979Y-123298419D02*
X163453884Y-123298419D01*
X164882455Y-122298419D02*
X164691979Y-122298419D01*
X164691979Y-122298419D02*
X164596741Y-122346038D01*
X164596741Y-122346038D02*
X164549122Y-122393657D01*
X164549122Y-122393657D02*
X164453884Y-122536514D01*
X164453884Y-122536514D02*
X164406265Y-122726990D01*
X164406265Y-122726990D02*
X164406265Y-123107942D01*
X164406265Y-123107942D02*
X164453884Y-123203180D01*
X164453884Y-123203180D02*
X164501503Y-123250800D01*
X164501503Y-123250800D02*
X164596741Y-123298419D01*
X164596741Y-123298419D02*
X164787217Y-123298419D01*
X164787217Y-123298419D02*
X164882455Y-123250800D01*
X164882455Y-123250800D02*
X164930074Y-123203180D01*
X164930074Y-123203180D02*
X164977693Y-123107942D01*
X164977693Y-123107942D02*
X164977693Y-122869847D01*
X164977693Y-122869847D02*
X164930074Y-122774609D01*
X164930074Y-122774609D02*
X164882455Y-122726990D01*
X164882455Y-122726990D02*
X164787217Y-122679371D01*
X164787217Y-122679371D02*
X164596741Y-122679371D01*
X164596741Y-122679371D02*
X164501503Y-122726990D01*
X164501503Y-122726990D02*
X164453884Y-122774609D01*
X164453884Y-122774609D02*
X164406265Y-122869847D01*
X130564285Y-110272371D02*
X130364285Y-109986657D01*
X130221428Y-110272371D02*
X130221428Y-109672371D01*
X130221428Y-109672371D02*
X130449999Y-109672371D01*
X130449999Y-109672371D02*
X130507142Y-109700942D01*
X130507142Y-109700942D02*
X130535713Y-109729514D01*
X130535713Y-109729514D02*
X130564285Y-109786657D01*
X130564285Y-109786657D02*
X130564285Y-109872371D01*
X130564285Y-109872371D02*
X130535713Y-109929514D01*
X130535713Y-109929514D02*
X130507142Y-109958085D01*
X130507142Y-109958085D02*
X130449999Y-109986657D01*
X130449999Y-109986657D02*
X130221428Y-109986657D01*
X131135713Y-110272371D02*
X130792856Y-110272371D01*
X130964285Y-110272371D02*
X130964285Y-109672371D01*
X130964285Y-109672371D02*
X130907142Y-109758085D01*
X130907142Y-109758085D02*
X130849999Y-109815228D01*
X130849999Y-109815228D02*
X130792856Y-109843800D01*
X131335714Y-109672371D02*
X131707142Y-109672371D01*
X131707142Y-109672371D02*
X131507142Y-109900942D01*
X131507142Y-109900942D02*
X131592857Y-109900942D01*
X131592857Y-109900942D02*
X131650000Y-109929514D01*
X131650000Y-109929514D02*
X131678571Y-109958085D01*
X131678571Y-109958085D02*
X131707142Y-110015228D01*
X131707142Y-110015228D02*
X131707142Y-110158085D01*
X131707142Y-110158085D02*
X131678571Y-110215228D01*
X131678571Y-110215228D02*
X131650000Y-110243800D01*
X131650000Y-110243800D02*
X131592857Y-110272371D01*
X131592857Y-110272371D02*
X131421428Y-110272371D01*
X131421428Y-110272371D02*
X131364285Y-110243800D01*
X131364285Y-110243800D02*
X131335714Y-110215228D01*
X156525000Y-81572371D02*
X156325000Y-81286657D01*
X156182143Y-81572371D02*
X156182143Y-80972371D01*
X156182143Y-80972371D02*
X156410714Y-80972371D01*
X156410714Y-80972371D02*
X156467857Y-81000942D01*
X156467857Y-81000942D02*
X156496428Y-81029514D01*
X156496428Y-81029514D02*
X156525000Y-81086657D01*
X156525000Y-81086657D02*
X156525000Y-81172371D01*
X156525000Y-81172371D02*
X156496428Y-81229514D01*
X156496428Y-81229514D02*
X156467857Y-81258085D01*
X156467857Y-81258085D02*
X156410714Y-81286657D01*
X156410714Y-81286657D02*
X156182143Y-81286657D01*
X157096428Y-81572371D02*
X156753571Y-81572371D01*
X156925000Y-81572371D02*
X156925000Y-80972371D01*
X156925000Y-80972371D02*
X156867857Y-81058085D01*
X156867857Y-81058085D02*
X156810714Y-81115228D01*
X156810714Y-81115228D02*
X156753571Y-81143800D01*
X163453884Y-98298419D02*
X163453884Y-97298419D01*
X163453884Y-97298419D02*
X163691979Y-97298419D01*
X163691979Y-97298419D02*
X163834836Y-97346038D01*
X163834836Y-97346038D02*
X163930074Y-97441276D01*
X163930074Y-97441276D02*
X163977693Y-97536514D01*
X163977693Y-97536514D02*
X164025312Y-97726990D01*
X164025312Y-97726990D02*
X164025312Y-97869847D01*
X164025312Y-97869847D02*
X163977693Y-98060323D01*
X163977693Y-98060323D02*
X163930074Y-98155561D01*
X163930074Y-98155561D02*
X163834836Y-98250800D01*
X163834836Y-98250800D02*
X163691979Y-98298419D01*
X163691979Y-98298419D02*
X163453884Y-98298419D01*
X164882455Y-97631752D02*
X164882455Y-98298419D01*
X164644360Y-97250800D02*
X164406265Y-97965085D01*
X164406265Y-97965085D02*
X165025312Y-97965085D01*
X121364285Y-115772371D02*
X121164285Y-115486657D01*
X121021428Y-115772371D02*
X121021428Y-115172371D01*
X121021428Y-115172371D02*
X121249999Y-115172371D01*
X121249999Y-115172371D02*
X121307142Y-115200942D01*
X121307142Y-115200942D02*
X121335713Y-115229514D01*
X121335713Y-115229514D02*
X121364285Y-115286657D01*
X121364285Y-115286657D02*
X121364285Y-115372371D01*
X121364285Y-115372371D02*
X121335713Y-115429514D01*
X121335713Y-115429514D02*
X121307142Y-115458085D01*
X121307142Y-115458085D02*
X121249999Y-115486657D01*
X121249999Y-115486657D02*
X121021428Y-115486657D01*
X121935713Y-115772371D02*
X121592856Y-115772371D01*
X121764285Y-115772371D02*
X121764285Y-115172371D01*
X121764285Y-115172371D02*
X121707142Y-115258085D01*
X121707142Y-115258085D02*
X121649999Y-115315228D01*
X121649999Y-115315228D02*
X121592856Y-115343800D01*
X122278571Y-115429514D02*
X122221428Y-115400942D01*
X122221428Y-115400942D02*
X122192857Y-115372371D01*
X122192857Y-115372371D02*
X122164285Y-115315228D01*
X122164285Y-115315228D02*
X122164285Y-115286657D01*
X122164285Y-115286657D02*
X122192857Y-115229514D01*
X122192857Y-115229514D02*
X122221428Y-115200942D01*
X122221428Y-115200942D02*
X122278571Y-115172371D01*
X122278571Y-115172371D02*
X122392857Y-115172371D01*
X122392857Y-115172371D02*
X122450000Y-115200942D01*
X122450000Y-115200942D02*
X122478571Y-115229514D01*
X122478571Y-115229514D02*
X122507142Y-115286657D01*
X122507142Y-115286657D02*
X122507142Y-115315228D01*
X122507142Y-115315228D02*
X122478571Y-115372371D01*
X122478571Y-115372371D02*
X122450000Y-115400942D01*
X122450000Y-115400942D02*
X122392857Y-115429514D01*
X122392857Y-115429514D02*
X122278571Y-115429514D01*
X122278571Y-115429514D02*
X122221428Y-115458085D01*
X122221428Y-115458085D02*
X122192857Y-115486657D01*
X122192857Y-115486657D02*
X122164285Y-115543800D01*
X122164285Y-115543800D02*
X122164285Y-115658085D01*
X122164285Y-115658085D02*
X122192857Y-115715228D01*
X122192857Y-115715228D02*
X122221428Y-115743800D01*
X122221428Y-115743800D02*
X122278571Y-115772371D01*
X122278571Y-115772371D02*
X122392857Y-115772371D01*
X122392857Y-115772371D02*
X122450000Y-115743800D01*
X122450000Y-115743800D02*
X122478571Y-115715228D01*
X122478571Y-115715228D02*
X122507142Y-115658085D01*
X122507142Y-115658085D02*
X122507142Y-115543800D01*
X122507142Y-115543800D02*
X122478571Y-115486657D01*
X122478571Y-115486657D02*
X122450000Y-115458085D01*
X122450000Y-115458085D02*
X122392857Y-115429514D01*
X135839285Y-118215228D02*
X135810713Y-118243800D01*
X135810713Y-118243800D02*
X135724999Y-118272371D01*
X135724999Y-118272371D02*
X135667856Y-118272371D01*
X135667856Y-118272371D02*
X135582142Y-118243800D01*
X135582142Y-118243800D02*
X135524999Y-118186657D01*
X135524999Y-118186657D02*
X135496428Y-118129514D01*
X135496428Y-118129514D02*
X135467856Y-118015228D01*
X135467856Y-118015228D02*
X135467856Y-117929514D01*
X135467856Y-117929514D02*
X135496428Y-117815228D01*
X135496428Y-117815228D02*
X135524999Y-117758085D01*
X135524999Y-117758085D02*
X135582142Y-117700942D01*
X135582142Y-117700942D02*
X135667856Y-117672371D01*
X135667856Y-117672371D02*
X135724999Y-117672371D01*
X135724999Y-117672371D02*
X135810713Y-117700942D01*
X135810713Y-117700942D02*
X135839285Y-117729514D01*
X136067856Y-117729514D02*
X136096428Y-117700942D01*
X136096428Y-117700942D02*
X136153571Y-117672371D01*
X136153571Y-117672371D02*
X136296428Y-117672371D01*
X136296428Y-117672371D02*
X136353571Y-117700942D01*
X136353571Y-117700942D02*
X136382142Y-117729514D01*
X136382142Y-117729514D02*
X136410713Y-117786657D01*
X136410713Y-117786657D02*
X136410713Y-117843800D01*
X136410713Y-117843800D02*
X136382142Y-117929514D01*
X136382142Y-117929514D02*
X136039285Y-118272371D01*
X136039285Y-118272371D02*
X136410713Y-118272371D01*
X136782142Y-117672371D02*
X136839285Y-117672371D01*
X136839285Y-117672371D02*
X136896428Y-117700942D01*
X136896428Y-117700942D02*
X136925000Y-117729514D01*
X136925000Y-117729514D02*
X136953571Y-117786657D01*
X136953571Y-117786657D02*
X136982142Y-117900942D01*
X136982142Y-117900942D02*
X136982142Y-118043800D01*
X136982142Y-118043800D02*
X136953571Y-118158085D01*
X136953571Y-118158085D02*
X136925000Y-118215228D01*
X136925000Y-118215228D02*
X136896428Y-118243800D01*
X136896428Y-118243800D02*
X136839285Y-118272371D01*
X136839285Y-118272371D02*
X136782142Y-118272371D01*
X136782142Y-118272371D02*
X136725000Y-118243800D01*
X136725000Y-118243800D02*
X136696428Y-118215228D01*
X136696428Y-118215228D02*
X136667857Y-118158085D01*
X136667857Y-118158085D02*
X136639285Y-118043800D01*
X136639285Y-118043800D02*
X136639285Y-117900942D01*
X136639285Y-117900942D02*
X136667857Y-117786657D01*
X136667857Y-117786657D02*
X136696428Y-117729514D01*
X136696428Y-117729514D02*
X136725000Y-117700942D01*
X136725000Y-117700942D02*
X136782142Y-117672371D01*
D11*
%TO.C,D1*%
X158310000Y-121055000D02*
X157960000Y-121404000D01*
X158310000Y-121055000D02*
X158310000Y-121055000D01*
X158310000Y-122954000D02*
X157960000Y-122605000D01*
X158310000Y-122955000D02*
X158310000Y-122954000D01*
D12*
G36*
X157984776Y-121279440D02*
G01*
X158008601Y-121286667D01*
X158030557Y-121298403D01*
X158049803Y-121314197D01*
X158065597Y-121333443D01*
X158077333Y-121355399D01*
X158084560Y-121379224D01*
X158087000Y-121404000D01*
X158087000Y-122605000D01*
X158084560Y-122629776D01*
X158077333Y-122653601D01*
X158065597Y-122675557D01*
X158049803Y-122694803D01*
X158030557Y-122710597D01*
X158008601Y-122722333D01*
X157984776Y-122729560D01*
X157960000Y-122732000D01*
X157935224Y-122729560D01*
X157911399Y-122722333D01*
X157889443Y-122710597D01*
X157870197Y-122694803D01*
X157854403Y-122675557D01*
X157842667Y-122653601D01*
X157835440Y-122629776D01*
X157833000Y-122605000D01*
X157833000Y-121404000D01*
X157835440Y-121379224D01*
X157842667Y-121355399D01*
X157854403Y-121333443D01*
X157870197Y-121314197D01*
X157889443Y-121298403D01*
X157911399Y-121286667D01*
X157935224Y-121279440D01*
X157960000Y-121277000D01*
X157984776Y-121279440D01*
G37*
G36*
X159584776Y-120930440D02*
G01*
X159608601Y-120937667D01*
X159630557Y-120949403D01*
X159649803Y-120965197D01*
X159665597Y-120984443D01*
X159677333Y-121006399D01*
X159684560Y-121030224D01*
X159687000Y-121055000D01*
X159684560Y-121079776D01*
X159677333Y-121103601D01*
X159665597Y-121125557D01*
X159649803Y-121144803D01*
X159630557Y-121160597D01*
X159608601Y-121172333D01*
X159584776Y-121179560D01*
X159560000Y-121182000D01*
X158310000Y-121182000D01*
X158285224Y-121179560D01*
X158261399Y-121172333D01*
X158239443Y-121160597D01*
X158220197Y-121144803D01*
X158204403Y-121125557D01*
X158192667Y-121103601D01*
X158185440Y-121079776D01*
X158183000Y-121055000D01*
X158185440Y-121030224D01*
X158192667Y-121006399D01*
X158204403Y-120984443D01*
X158220197Y-120965197D01*
X158239443Y-120949403D01*
X158261399Y-120937667D01*
X158285224Y-120930440D01*
X158310000Y-120928000D01*
X159560000Y-120928000D01*
X159584776Y-120930440D01*
G37*
G36*
X159584776Y-122830440D02*
G01*
X159608601Y-122837667D01*
X159630557Y-122849403D01*
X159649803Y-122865197D01*
X159665597Y-122884443D01*
X159677333Y-122906399D01*
X159684560Y-122930224D01*
X159687000Y-122955000D01*
X159684560Y-122979776D01*
X159677333Y-123003601D01*
X159665597Y-123025557D01*
X159649803Y-123044803D01*
X159630557Y-123060597D01*
X159608601Y-123072333D01*
X159584776Y-123079560D01*
X159560000Y-123082000D01*
X158310000Y-123082000D01*
X158285224Y-123079560D01*
X158261399Y-123072333D01*
X158239443Y-123060597D01*
X158220197Y-123044803D01*
X158204403Y-123025557D01*
X158192667Y-123003601D01*
X158185440Y-122979776D01*
X158183000Y-122955000D01*
X158185440Y-122930224D01*
X158192667Y-122906399D01*
X158204403Y-122884443D01*
X158220197Y-122865197D01*
X158239443Y-122849403D01*
X158261399Y-122837667D01*
X158285224Y-122830440D01*
X158310000Y-122828000D01*
X159560000Y-122828000D01*
X159584776Y-122830440D01*
G37*
G36*
X160384776Y-121885440D02*
G01*
X160408601Y-121892667D01*
X160430557Y-121904403D01*
X160449803Y-121920197D01*
X160465597Y-121939443D01*
X160477333Y-121961399D01*
X160484560Y-121985224D01*
X160487000Y-122010000D01*
X160484560Y-122034776D01*
X160477333Y-122058601D01*
X160465597Y-122080557D01*
X160449803Y-122099803D01*
X160430557Y-122115597D01*
X160408601Y-122127333D01*
X160384776Y-122134560D01*
X160360000Y-122137000D01*
X159860000Y-122137000D01*
X159835224Y-122134560D01*
X159811399Y-122127333D01*
X159789443Y-122115597D01*
X159770197Y-122099803D01*
X159754403Y-122080557D01*
X159742667Y-122058601D01*
X159735440Y-122034776D01*
X159733000Y-122010000D01*
X159735440Y-121985224D01*
X159742667Y-121961399D01*
X159754403Y-121939443D01*
X159770197Y-121920197D01*
X159789443Y-121904403D01*
X159811399Y-121892667D01*
X159835224Y-121885440D01*
X159860000Y-121883000D01*
X160360000Y-121883000D01*
X160384776Y-121885440D01*
G37*
G36*
X160384776Y-121380440D02*
G01*
X160408601Y-121387667D01*
X160430557Y-121399403D01*
X160449803Y-121415197D01*
X160465597Y-121434443D01*
X160477333Y-121456399D01*
X160484560Y-121480224D01*
X160487000Y-121505000D01*
X160487000Y-122505000D01*
X160484560Y-122529776D01*
X160477333Y-122553601D01*
X160465597Y-122575557D01*
X160449803Y-122594803D01*
X160430557Y-122610597D01*
X160408601Y-122622333D01*
X160384776Y-122629560D01*
X160360000Y-122632000D01*
X160335224Y-122629560D01*
X160311399Y-122622333D01*
X160289443Y-122610597D01*
X160270197Y-122594803D01*
X160254403Y-122575557D01*
X160242667Y-122553601D01*
X160235440Y-122529776D01*
X160233000Y-122505000D01*
X160233000Y-121505000D01*
X160235440Y-121480224D01*
X160242667Y-121456399D01*
X160254403Y-121434443D01*
X160270197Y-121415197D01*
X160289443Y-121399403D01*
X160311399Y-121387667D01*
X160335224Y-121380440D01*
X160360000Y-121378000D01*
X160384776Y-121380440D01*
G37*
G36*
X162064776Y-120920440D02*
G01*
X162088601Y-120927667D01*
X162110557Y-120939403D01*
X162129803Y-120955197D01*
X162145597Y-120974443D01*
X162157333Y-120996399D01*
X162164560Y-121020224D01*
X162167000Y-121045000D01*
X162167000Y-122945000D01*
X162164560Y-122969776D01*
X162157333Y-122993601D01*
X162145597Y-123015557D01*
X162129803Y-123034803D01*
X162110557Y-123050597D01*
X162088601Y-123062333D01*
X162064776Y-123069560D01*
X162040000Y-123072000D01*
X162015224Y-123069560D01*
X161991399Y-123062333D01*
X161969443Y-123050597D01*
X161950197Y-123034803D01*
X161934403Y-123015557D01*
X161922667Y-122993601D01*
X161915440Y-122969776D01*
X161913000Y-122945000D01*
X161913000Y-121045000D01*
X161915440Y-121020224D01*
X161922667Y-120996399D01*
X161934403Y-120974443D01*
X161950197Y-120955197D01*
X161969443Y-120939403D01*
X161991399Y-120927667D01*
X162015224Y-120920440D01*
X162040000Y-120918000D01*
X162064776Y-120920440D01*
G37*
G36*
X162064776Y-122820440D02*
G01*
X162088601Y-122827667D01*
X162110557Y-122839403D01*
X162129803Y-122855197D01*
X162145597Y-122874443D01*
X162157333Y-122896399D01*
X162164560Y-122920224D01*
X162167000Y-122945000D01*
X162164560Y-122969776D01*
X162157333Y-122993601D01*
X162145597Y-123015557D01*
X162129803Y-123034803D01*
X162110557Y-123050597D01*
X162088601Y-123062333D01*
X162064776Y-123069560D01*
X162040000Y-123072000D01*
X160700000Y-123072000D01*
X160675224Y-123069560D01*
X160651399Y-123062333D01*
X160629443Y-123050597D01*
X160610197Y-123034803D01*
X160594403Y-123015557D01*
X160582667Y-122993601D01*
X160575440Y-122969776D01*
X160573000Y-122945000D01*
X160575440Y-122920224D01*
X160582667Y-122896399D01*
X160594403Y-122874443D01*
X160610197Y-122855197D01*
X160629443Y-122839403D01*
X160651399Y-122827667D01*
X160675224Y-122820440D01*
X160700000Y-122818000D01*
X162040000Y-122818000D01*
X162064776Y-122820440D01*
G37*
G36*
X162063934Y-120920276D02*
G01*
X162087807Y-120927342D01*
X162109842Y-120938929D01*
X162129194Y-120954593D01*
X162145118Y-120973731D01*
X162157002Y-120995608D01*
X162164389Y-121019382D01*
X162166997Y-121044142D01*
X162164724Y-121068934D01*
X162157658Y-121092807D01*
X162146071Y-121114842D01*
X162130407Y-121134194D01*
X162111269Y-121150118D01*
X162089392Y-121162002D01*
X162065618Y-121169389D01*
X162040858Y-121171997D01*
X160560858Y-121181997D01*
X160536066Y-121179724D01*
X160512193Y-121172658D01*
X160490158Y-121161071D01*
X160470806Y-121145407D01*
X160454882Y-121126269D01*
X160442998Y-121104392D01*
X160435611Y-121080618D01*
X160433003Y-121055858D01*
X160435276Y-121031066D01*
X160442342Y-121007193D01*
X160453929Y-120985158D01*
X160469593Y-120965806D01*
X160488731Y-120949882D01*
X160510608Y-120937998D01*
X160534382Y-120930611D01*
X160559142Y-120928003D01*
X162039142Y-120918003D01*
X162063934Y-120920276D01*
G37*
%TO.C,D5*%
G36*
X162670849Y-113899940D02*
G01*
X162699551Y-113908646D01*
X162726002Y-113922785D01*
X162749187Y-113941813D01*
X162768215Y-113964998D01*
X162782354Y-113991449D01*
X162791060Y-114020151D01*
X162794000Y-114050000D01*
X162791060Y-114079849D01*
X162782354Y-114108551D01*
X162768215Y-114135002D01*
X162749187Y-114158187D01*
X162726002Y-114177215D01*
X162699551Y-114191354D01*
X162670849Y-114200060D01*
X162641000Y-114203000D01*
X162611151Y-114200060D01*
X162582449Y-114191354D01*
X162555998Y-114177215D01*
X162532813Y-114158187D01*
X162513785Y-114135002D01*
X162499646Y-114108551D01*
X162490940Y-114079849D01*
X162488000Y-114050000D01*
X162490940Y-114020151D01*
X162499646Y-113991449D01*
X162513785Y-113964998D01*
X162532813Y-113941813D01*
X162555998Y-113922785D01*
X162582449Y-113908646D01*
X162611151Y-113899940D01*
X162641000Y-113897000D01*
X162670849Y-113899940D01*
G37*
G36*
X166983998Y-113437368D02*
G01*
X166991424Y-113438470D01*
X166998707Y-113440294D01*
X167005775Y-113442823D01*
X167012562Y-113446033D01*
X167019001Y-113449893D01*
X167025031Y-113454365D01*
X167030594Y-113459406D01*
X167035635Y-113464969D01*
X167040107Y-113470999D01*
X167043967Y-113477438D01*
X167047177Y-113484225D01*
X167049706Y-113491293D01*
X167051530Y-113498576D01*
X167052632Y-113506002D01*
X167053000Y-113513500D01*
X167053000Y-116486500D01*
X167052632Y-116493998D01*
X167051530Y-116501424D01*
X167049706Y-116508707D01*
X167047177Y-116515775D01*
X167043967Y-116522562D01*
X167040107Y-116529001D01*
X167035635Y-116535031D01*
X167030594Y-116540594D01*
X167025031Y-116545635D01*
X167019001Y-116550107D01*
X167012562Y-116553967D01*
X167005775Y-116557177D01*
X166998707Y-116559706D01*
X166991424Y-116561530D01*
X166983998Y-116562632D01*
X166976500Y-116563000D01*
X163023500Y-116563000D01*
X163016002Y-116562632D01*
X163008576Y-116561530D01*
X163001293Y-116559706D01*
X162994225Y-116557177D01*
X162987438Y-116553967D01*
X162980999Y-116550107D01*
X162974969Y-116545635D01*
X162969406Y-116540594D01*
X162964365Y-116535031D01*
X162959893Y-116529001D01*
X162956033Y-116522562D01*
X162952823Y-116515775D01*
X162950294Y-116508707D01*
X162948470Y-116501424D01*
X162947368Y-116493998D01*
X162947000Y-116486500D01*
X162947000Y-113590000D01*
X163100000Y-113590000D01*
X163100000Y-113740000D01*
X163100000Y-114360000D01*
X163100000Y-114690000D01*
X163100000Y-115310000D01*
X163100000Y-115640000D01*
X163100000Y-116260000D01*
X163100000Y-116410000D01*
X163250000Y-116410000D01*
X164385850Y-116410000D01*
X166750000Y-116410000D01*
X166900000Y-116410000D01*
X166900000Y-116260000D01*
X166900000Y-115640000D01*
X166900000Y-115310000D01*
X166900000Y-114690000D01*
X166900000Y-114360000D01*
X166900000Y-113740000D01*
X166900000Y-113590000D01*
X165614150Y-113590000D01*
X164385850Y-113590000D01*
X163250000Y-113590000D01*
X163100000Y-113590000D01*
X162947000Y-113590000D01*
X162947000Y-113513500D01*
X162947368Y-113506002D01*
X162948470Y-113498576D01*
X162950294Y-113491293D01*
X162952823Y-113484225D01*
X162956033Y-113477438D01*
X162959893Y-113470999D01*
X162964365Y-113464969D01*
X162969406Y-113459406D01*
X162974969Y-113454365D01*
X162980999Y-113449893D01*
X162987438Y-113446033D01*
X162994225Y-113442823D01*
X163001293Y-113440294D01*
X163008576Y-113438470D01*
X163016002Y-113437368D01*
X163023500Y-113437000D01*
X166976500Y-113437000D01*
X166983998Y-113437368D01*
G37*
%TO.C,D2*%
G36*
X124729264Y-106152882D02*
G01*
X124757403Y-106161418D01*
X124783336Y-106175280D01*
X124806066Y-106193934D01*
X124824720Y-106216664D01*
X124838582Y-106242597D01*
X124847118Y-106270736D01*
X124850000Y-106300000D01*
X124847118Y-106329264D01*
X124838582Y-106357403D01*
X124824720Y-106383336D01*
X124806066Y-106406066D01*
X124783336Y-106424720D01*
X124757403Y-106438582D01*
X124729264Y-106447118D01*
X124700000Y-106450000D01*
X124670736Y-106447118D01*
X124642597Y-106438582D01*
X124616664Y-106424720D01*
X124593934Y-106406066D01*
X124575280Y-106383336D01*
X124561418Y-106357403D01*
X124552882Y-106329264D01*
X124550000Y-106300000D01*
X124552882Y-106270736D01*
X124561418Y-106242597D01*
X124575280Y-106216664D01*
X124593934Y-106193934D01*
X124616664Y-106175280D01*
X124642597Y-106161418D01*
X124670736Y-106152882D01*
X124700000Y-106150000D01*
X124729264Y-106152882D01*
G37*
G36*
X127811705Y-106141153D02*
G01*
X127822961Y-106144567D01*
X127833334Y-106150112D01*
X127842426Y-106157574D01*
X127849888Y-106166666D01*
X127855433Y-106177039D01*
X127858847Y-106188295D01*
X127860000Y-106200000D01*
X127858847Y-106211705D01*
X127855433Y-106222961D01*
X127849888Y-106233334D01*
X127842426Y-106242426D01*
X127833334Y-106249888D01*
X127822961Y-106255433D01*
X127811705Y-106258847D01*
X127800000Y-106260000D01*
X125200000Y-106260000D01*
X125188295Y-106258847D01*
X125177039Y-106255433D01*
X125166666Y-106249888D01*
X125157574Y-106242426D01*
X125150112Y-106233334D01*
X125144567Y-106222961D01*
X125141153Y-106211705D01*
X125140000Y-106200000D01*
X125141153Y-106188295D01*
X125144567Y-106177039D01*
X125150112Y-106166666D01*
X125157574Y-106157574D01*
X125166666Y-106150112D01*
X125177039Y-106144567D01*
X125188295Y-106141153D01*
X125200000Y-106140000D01*
X127800000Y-106140000D01*
X127811705Y-106141153D01*
G37*
G36*
X127811705Y-112741153D02*
G01*
X127822961Y-112744567D01*
X127833334Y-112750112D01*
X127842426Y-112757574D01*
X127849888Y-112766666D01*
X127855433Y-112777039D01*
X127858847Y-112788295D01*
X127860000Y-112800000D01*
X127858847Y-112811705D01*
X127855433Y-112822961D01*
X127849888Y-112833334D01*
X127842426Y-112842426D01*
X127833334Y-112849888D01*
X127822961Y-112855433D01*
X127811705Y-112858847D01*
X127800000Y-112860000D01*
X125200000Y-112860000D01*
X125188295Y-112858847D01*
X125177039Y-112855433D01*
X125166666Y-112849888D01*
X125157574Y-112842426D01*
X125150112Y-112833334D01*
X125144567Y-112822961D01*
X125141153Y-112811705D01*
X125140000Y-112800000D01*
X125141153Y-112788295D01*
X125144567Y-112777039D01*
X125150112Y-112766666D01*
X125157574Y-112757574D01*
X125166666Y-112750112D01*
X125177039Y-112744567D01*
X125188295Y-112741153D01*
X125200000Y-112740000D01*
X127800000Y-112740000D01*
X127811705Y-112741153D01*
G37*
%TO.C,U1*%
G36*
X143200000Y-85367500D02*
G01*
X142895000Y-85367500D01*
X142895000Y-85047500D01*
X143200000Y-85047500D01*
X143200000Y-85367500D01*
G37*
G36*
X143200000Y-86952500D02*
G01*
X142895000Y-86952500D01*
X142895000Y-86632500D01*
X143200000Y-86632500D01*
X143200000Y-86952500D01*
G37*
G36*
X143597827Y-85048960D02*
G01*
X143612084Y-85053285D01*
X143625223Y-85060308D01*
X143636740Y-85069760D01*
X143646192Y-85081277D01*
X143653215Y-85094416D01*
X143657540Y-85108673D01*
X143659000Y-85123500D01*
X143659000Y-86876500D01*
X143657540Y-86891327D01*
X143653215Y-86905584D01*
X143646192Y-86918723D01*
X143636740Y-86930240D01*
X143625223Y-86939692D01*
X143612084Y-86946715D01*
X143597827Y-86951040D01*
X143583000Y-86952500D01*
X143568173Y-86951040D01*
X143553916Y-86946715D01*
X143540777Y-86939692D01*
X143529260Y-86930240D01*
X143519808Y-86918723D01*
X143512785Y-86905584D01*
X143508460Y-86891327D01*
X143507000Y-86876500D01*
X143507000Y-85123500D01*
X143508460Y-85108673D01*
X143512785Y-85094416D01*
X143519808Y-85081277D01*
X143529260Y-85069760D01*
X143540777Y-85060308D01*
X143553916Y-85053285D01*
X143568173Y-85048960D01*
X143583000Y-85047500D01*
X143597827Y-85048960D01*
G37*
G36*
X144390632Y-85418941D02*
G01*
X144404701Y-85423209D01*
X144417668Y-85430140D01*
X144429033Y-85439467D01*
X144438360Y-85450832D01*
X144445291Y-85463799D01*
X144449559Y-85477868D01*
X144451000Y-85492500D01*
X144451000Y-86508500D01*
X144449559Y-86523132D01*
X144445291Y-86537201D01*
X144438360Y-86550168D01*
X144429033Y-86561533D01*
X144417668Y-86570860D01*
X144404701Y-86577791D01*
X144390632Y-86582059D01*
X144376000Y-86583500D01*
X144361368Y-86582059D01*
X144347299Y-86577791D01*
X144334332Y-86570860D01*
X144322967Y-86561533D01*
X144313640Y-86550168D01*
X144306709Y-86537201D01*
X144302441Y-86523132D01*
X144301000Y-86508500D01*
X144301000Y-85492500D01*
X144302441Y-85477868D01*
X144306709Y-85463799D01*
X144313640Y-85450832D01*
X144322967Y-85439467D01*
X144334332Y-85430140D01*
X144347299Y-85423209D01*
X144361368Y-85418941D01*
X144376000Y-85417500D01*
X144390632Y-85418941D01*
G37*
G36*
X144390632Y-85672941D02*
G01*
X144404701Y-85677209D01*
X144417668Y-85684140D01*
X144429033Y-85693467D01*
X144438360Y-85704832D01*
X144445291Y-85717799D01*
X144449559Y-85731868D01*
X144451000Y-85746500D01*
X144451000Y-86254500D01*
X144449559Y-86269132D01*
X144445291Y-86283201D01*
X144438360Y-86296168D01*
X144429033Y-86307533D01*
X144417668Y-86316860D01*
X144404701Y-86323791D01*
X144390632Y-86328059D01*
X144376000Y-86329500D01*
X144361368Y-86328059D01*
X144347299Y-86323791D01*
X144334332Y-86316860D01*
X144322967Y-86307533D01*
X144313640Y-86296168D01*
X144306709Y-86283201D01*
X144302441Y-86269132D01*
X144301000Y-86254500D01*
X144301000Y-85746500D01*
X144302441Y-85731868D01*
X144306709Y-85717799D01*
X144313640Y-85704832D01*
X144322967Y-85693467D01*
X144334332Y-85684140D01*
X144347299Y-85677209D01*
X144361368Y-85672941D01*
X144376000Y-85671500D01*
X144390632Y-85672941D01*
G37*
G36*
X144390632Y-85926941D02*
G01*
X144404701Y-85931209D01*
X144417668Y-85938140D01*
X144429033Y-85947467D01*
X144937033Y-86455467D01*
X144946360Y-86466832D01*
X144953291Y-86479799D01*
X144957559Y-86493868D01*
X144959000Y-86508500D01*
X144957559Y-86523132D01*
X144953291Y-86537201D01*
X144946360Y-86550168D01*
X144937033Y-86561533D01*
X144925668Y-86570860D01*
X144912701Y-86577791D01*
X144898632Y-86582059D01*
X144884000Y-86583500D01*
X144869368Y-86582059D01*
X144855299Y-86577791D01*
X144842332Y-86570860D01*
X144830967Y-86561533D01*
X144322967Y-86053533D01*
X144313640Y-86042168D01*
X144306709Y-86029201D01*
X144302441Y-86015132D01*
X144301000Y-86000500D01*
X144302441Y-85985868D01*
X144306709Y-85971799D01*
X144313640Y-85958832D01*
X144322967Y-85947467D01*
X144334332Y-85938140D01*
X144347299Y-85931209D01*
X144361368Y-85926941D01*
X144376000Y-85925500D01*
X144390632Y-85926941D01*
G37*
G36*
X144898632Y-85418941D02*
G01*
X144912701Y-85423209D01*
X144925668Y-85430140D01*
X144937033Y-85439467D01*
X144946360Y-85450832D01*
X144953291Y-85463799D01*
X144957559Y-85477868D01*
X144959000Y-85492500D01*
X144957559Y-85507132D01*
X144953291Y-85521201D01*
X144946360Y-85534168D01*
X144937033Y-85545533D01*
X144429033Y-86053533D01*
X144417668Y-86062860D01*
X144404701Y-86069791D01*
X144390632Y-86074059D01*
X144376000Y-86075500D01*
X144361368Y-86074059D01*
X144347299Y-86069791D01*
X144334332Y-86062860D01*
X144322967Y-86053533D01*
X144313640Y-86042168D01*
X144306709Y-86029201D01*
X144302441Y-86015132D01*
X144301000Y-86000500D01*
X144302441Y-85985868D01*
X144306709Y-85971799D01*
X144313640Y-85958832D01*
X144322967Y-85947467D01*
X144830967Y-85439467D01*
X144842332Y-85430140D01*
X144855299Y-85423209D01*
X144869368Y-85418941D01*
X144884000Y-85417500D01*
X144898632Y-85418941D01*
G37*
G36*
X144898632Y-85418941D02*
G01*
X144912701Y-85423209D01*
X144925668Y-85430140D01*
X144937033Y-85439467D01*
X144946360Y-85450832D01*
X144953291Y-85463799D01*
X144957559Y-85477868D01*
X144959000Y-85492500D01*
X144959000Y-86508500D01*
X144957559Y-86523132D01*
X144953291Y-86537201D01*
X144946360Y-86550168D01*
X144937033Y-86561533D01*
X144925668Y-86570860D01*
X144912701Y-86577791D01*
X144898632Y-86582059D01*
X144884000Y-86583500D01*
X144869368Y-86582059D01*
X144855299Y-86577791D01*
X144842332Y-86570860D01*
X144830967Y-86561533D01*
X144821640Y-86550168D01*
X144814709Y-86537201D01*
X144810441Y-86523132D01*
X144809000Y-86508500D01*
X144809000Y-85492500D01*
X144810441Y-85477868D01*
X144814709Y-85463799D01*
X144821640Y-85450832D01*
X144830967Y-85439467D01*
X144842332Y-85430140D01*
X144855299Y-85423209D01*
X144869368Y-85418941D01*
X144884000Y-85417500D01*
X144898632Y-85418941D01*
G37*
G36*
X145406632Y-85926941D02*
G01*
X145420701Y-85931209D01*
X145433668Y-85938140D01*
X145445033Y-85947467D01*
X145454360Y-85958832D01*
X145461291Y-85971799D01*
X145465559Y-85985868D01*
X145467000Y-86000500D01*
X145465559Y-86015132D01*
X145461291Y-86029201D01*
X145454360Y-86042168D01*
X145445033Y-86053533D01*
X145433668Y-86062860D01*
X145420701Y-86069791D01*
X145406632Y-86074059D01*
X145392000Y-86075500D01*
X143868000Y-86075500D01*
X143853368Y-86074059D01*
X143839299Y-86069791D01*
X143826332Y-86062860D01*
X143814967Y-86053533D01*
X143805640Y-86042168D01*
X143798709Y-86029201D01*
X143794441Y-86015132D01*
X143793000Y-86000500D01*
X143794441Y-85985868D01*
X143798709Y-85971799D01*
X143805640Y-85958832D01*
X143814967Y-85947467D01*
X143826332Y-85938140D01*
X143839299Y-85931209D01*
X143853368Y-85926941D01*
X143868000Y-85925500D01*
X145392000Y-85925500D01*
X145406632Y-85926941D01*
G37*
G36*
X145891351Y-85049067D02*
G01*
X145905578Y-85053492D01*
X145918667Y-85060607D01*
X145930117Y-85070140D01*
X145939487Y-85081723D01*
X145946418Y-85094911D01*
X145950642Y-85109198D01*
X145951998Y-85124035D01*
X145950998Y-85266035D01*
X145949433Y-85280851D01*
X145945008Y-85295078D01*
X145937893Y-85308167D01*
X145928360Y-85319617D01*
X145916777Y-85328987D01*
X145903589Y-85335918D01*
X145889302Y-85340142D01*
X145874465Y-85341498D01*
X145859649Y-85339933D01*
X145845422Y-85335508D01*
X145832333Y-85328393D01*
X145820883Y-85318860D01*
X145811513Y-85307277D01*
X145804582Y-85294089D01*
X145800358Y-85279802D01*
X145799002Y-85264965D01*
X145800002Y-85122965D01*
X145801567Y-85108149D01*
X145805992Y-85093922D01*
X145813107Y-85080833D01*
X145822640Y-85069383D01*
X145834223Y-85060013D01*
X145847411Y-85053082D01*
X145861698Y-85048858D01*
X145876535Y-85047502D01*
X145891351Y-85049067D01*
G37*
G36*
X145890827Y-85048960D02*
G01*
X145905084Y-85053285D01*
X145918223Y-85060308D01*
X145929740Y-85069760D01*
X145939192Y-85081277D01*
X145946215Y-85094416D01*
X145950540Y-85108673D01*
X145952000Y-85123500D01*
X145950540Y-85138327D01*
X145946215Y-85152584D01*
X145939192Y-85165723D01*
X145929740Y-85177240D01*
X145918223Y-85186692D01*
X145905084Y-85193715D01*
X145890827Y-85198040D01*
X145876000Y-85199500D01*
X143124000Y-85199500D01*
X143109173Y-85198040D01*
X143094916Y-85193715D01*
X143081777Y-85186692D01*
X143070260Y-85177240D01*
X143060808Y-85165723D01*
X143053785Y-85152584D01*
X143049460Y-85138327D01*
X143048000Y-85123500D01*
X143049460Y-85108673D01*
X143053785Y-85094416D01*
X143060808Y-85081277D01*
X143070260Y-85069760D01*
X143081777Y-85060308D01*
X143094916Y-85053285D01*
X143109173Y-85048960D01*
X143124000Y-85047500D01*
X145876000Y-85047500D01*
X145890827Y-85048960D01*
G37*
G36*
X145890827Y-86801960D02*
G01*
X145905084Y-86806285D01*
X145918223Y-86813308D01*
X145929740Y-86822760D01*
X145939192Y-86834277D01*
X145946215Y-86847416D01*
X145950540Y-86861673D01*
X145952000Y-86876500D01*
X145950540Y-86891327D01*
X145946215Y-86905584D01*
X145939192Y-86918723D01*
X145929740Y-86930240D01*
X145918223Y-86939692D01*
X145905084Y-86946715D01*
X145890827Y-86951040D01*
X145876000Y-86952500D01*
X143124000Y-86952500D01*
X143109173Y-86951040D01*
X143094916Y-86946715D01*
X143081777Y-86939692D01*
X143070260Y-86930240D01*
X143060808Y-86918723D01*
X143053785Y-86905584D01*
X143049460Y-86891327D01*
X143048000Y-86876500D01*
X143049460Y-86861673D01*
X143053785Y-86847416D01*
X143060808Y-86834277D01*
X143070260Y-86822760D01*
X143081777Y-86813308D01*
X143094916Y-86806285D01*
X143109173Y-86801960D01*
X143124000Y-86800500D01*
X145876000Y-86800500D01*
X145890827Y-86801960D01*
G37*
G36*
X145889298Y-86660857D02*
G01*
X145903585Y-86665081D01*
X145916774Y-86672010D01*
X145928358Y-86681380D01*
X145937891Y-86692830D01*
X145945007Y-86705919D01*
X145949433Y-86720145D01*
X145950998Y-86734961D01*
X145951998Y-86875961D01*
X145950643Y-86890798D01*
X145946419Y-86905085D01*
X145939490Y-86918274D01*
X145930120Y-86929858D01*
X145918670Y-86939391D01*
X145905581Y-86946507D01*
X145891355Y-86950933D01*
X145876539Y-86952498D01*
X145861702Y-86951143D01*
X145847415Y-86946919D01*
X145834226Y-86939990D01*
X145822642Y-86930620D01*
X145813109Y-86919170D01*
X145805993Y-86906081D01*
X145801567Y-86891855D01*
X145800002Y-86877039D01*
X145799002Y-86736039D01*
X145800357Y-86721202D01*
X145804581Y-86706915D01*
X145811510Y-86693726D01*
X145820880Y-86682142D01*
X145832330Y-86672609D01*
X145845419Y-86665493D01*
X145859645Y-86661067D01*
X145874461Y-86659502D01*
X145889298Y-86660857D01*
G37*
%TO.C,D3*%
G36*
X162670849Y-99899940D02*
G01*
X162699551Y-99908646D01*
X162726002Y-99922785D01*
X162749187Y-99941813D01*
X162768215Y-99964998D01*
X162782354Y-99991449D01*
X162791060Y-100020151D01*
X162794000Y-100050000D01*
X162791060Y-100079849D01*
X162782354Y-100108551D01*
X162768215Y-100135002D01*
X162749187Y-100158187D01*
X162726002Y-100177215D01*
X162699551Y-100191354D01*
X162670849Y-100200060D01*
X162641000Y-100203000D01*
X162611151Y-100200060D01*
X162582449Y-100191354D01*
X162555998Y-100177215D01*
X162532813Y-100158187D01*
X162513785Y-100135002D01*
X162499646Y-100108551D01*
X162490940Y-100079849D01*
X162488000Y-100050000D01*
X162490940Y-100020151D01*
X162499646Y-99991449D01*
X162513785Y-99964998D01*
X162532813Y-99941813D01*
X162555998Y-99922785D01*
X162582449Y-99908646D01*
X162611151Y-99899940D01*
X162641000Y-99897000D01*
X162670849Y-99899940D01*
G37*
G36*
X166983998Y-99437368D02*
G01*
X166991424Y-99438470D01*
X166998707Y-99440294D01*
X167005775Y-99442823D01*
X167012562Y-99446033D01*
X167019001Y-99449893D01*
X167025031Y-99454365D01*
X167030594Y-99459406D01*
X167035635Y-99464969D01*
X167040107Y-99470999D01*
X167043967Y-99477438D01*
X167047177Y-99484225D01*
X167049706Y-99491293D01*
X167051530Y-99498576D01*
X167052632Y-99506002D01*
X167053000Y-99513500D01*
X167053000Y-102486500D01*
X167052632Y-102493998D01*
X167051530Y-102501424D01*
X167049706Y-102508707D01*
X167047177Y-102515775D01*
X167043967Y-102522562D01*
X167040107Y-102529001D01*
X167035635Y-102535031D01*
X167030594Y-102540594D01*
X167025031Y-102545635D01*
X167019001Y-102550107D01*
X167012562Y-102553967D01*
X167005775Y-102557177D01*
X166998707Y-102559706D01*
X166991424Y-102561530D01*
X166983998Y-102562632D01*
X166976500Y-102563000D01*
X163023500Y-102563000D01*
X163016002Y-102562632D01*
X163008576Y-102561530D01*
X163001293Y-102559706D01*
X162994225Y-102557177D01*
X162987438Y-102553967D01*
X162980999Y-102550107D01*
X162974969Y-102545635D01*
X162969406Y-102540594D01*
X162964365Y-102535031D01*
X162959893Y-102529001D01*
X162956033Y-102522562D01*
X162952823Y-102515775D01*
X162950294Y-102508707D01*
X162948470Y-102501424D01*
X162947368Y-102493998D01*
X162947000Y-102486500D01*
X162947000Y-99590000D01*
X163100000Y-99590000D01*
X163100000Y-99740000D01*
X163100000Y-100360000D01*
X163100000Y-100690000D01*
X163100000Y-101310000D01*
X163100000Y-101640000D01*
X163100000Y-102260000D01*
X163100000Y-102410000D01*
X163250000Y-102410000D01*
X164385850Y-102410000D01*
X166750000Y-102410000D01*
X166900000Y-102410000D01*
X166900000Y-102260000D01*
X166900000Y-101640000D01*
X166900000Y-101310000D01*
X166900000Y-100690000D01*
X166900000Y-100360000D01*
X166900000Y-99740000D01*
X166900000Y-99590000D01*
X165614150Y-99590000D01*
X164385850Y-99590000D01*
X163250000Y-99590000D01*
X163100000Y-99590000D01*
X162947000Y-99590000D01*
X162947000Y-99513500D01*
X162947368Y-99506002D01*
X162948470Y-99498576D01*
X162950294Y-99491293D01*
X162952823Y-99484225D01*
X162956033Y-99477438D01*
X162959893Y-99470999D01*
X162964365Y-99464969D01*
X162969406Y-99459406D01*
X162974969Y-99454365D01*
X162980999Y-99449893D01*
X162987438Y-99446033D01*
X162994225Y-99442823D01*
X163001293Y-99440294D01*
X163008576Y-99438470D01*
X163016002Y-99437368D01*
X163023500Y-99437000D01*
X166976500Y-99437000D01*
X166983998Y-99437368D01*
G37*
D13*
%TO.C,J1*%
X145050000Y-83260000D02*
G75*
G02*
X144990000Y-83260000I-30000J0D01*
G01*
X144990000Y-83260000D02*
G75*
G02*
X145050000Y-83260000I30000J0D01*
G01*
D12*
G36*
X145054386Y-75287402D02*
G01*
X145077835Y-75294515D01*
X145099446Y-75306066D01*
X145118388Y-75321612D01*
X145133934Y-75340554D01*
X145145485Y-75362165D01*
X145152598Y-75385614D01*
X145155000Y-75410000D01*
X145155000Y-76890000D01*
X145152598Y-76914386D01*
X145145485Y-76937835D01*
X145133934Y-76959446D01*
X145118388Y-76978388D01*
X145099446Y-76993934D01*
X145077835Y-77005485D01*
X145054386Y-77012598D01*
X145030000Y-77015000D01*
X145005614Y-77012598D01*
X144982165Y-77005485D01*
X144960554Y-76993934D01*
X144941612Y-76978388D01*
X144926066Y-76959446D01*
X144914515Y-76937835D01*
X144907402Y-76914386D01*
X144905000Y-76890000D01*
X144905000Y-75410000D01*
X144907402Y-75385614D01*
X144914515Y-75362165D01*
X144926066Y-75340554D01*
X144941612Y-75321612D01*
X144960554Y-75306066D01*
X144982165Y-75294515D01*
X145005614Y-75287402D01*
X145030000Y-75285000D01*
X145054386Y-75287402D01*
G37*
G36*
X145054386Y-78997402D02*
G01*
X145077835Y-79004515D01*
X145099446Y-79016066D01*
X145118388Y-79031612D01*
X145133934Y-79050554D01*
X145145485Y-79072165D01*
X145152598Y-79095614D01*
X145155000Y-79120000D01*
X145155000Y-80990000D01*
X145152598Y-81014386D01*
X145145485Y-81037835D01*
X145133934Y-81059446D01*
X145118388Y-81078388D01*
X145099446Y-81093934D01*
X145077835Y-81105485D01*
X145054386Y-81112598D01*
X145030000Y-81115000D01*
X145005614Y-81112598D01*
X144982165Y-81105485D01*
X144960554Y-81093934D01*
X144941612Y-81078388D01*
X144926066Y-81059446D01*
X144914515Y-81037835D01*
X144907402Y-81014386D01*
X144905000Y-80990000D01*
X144905000Y-79120000D01*
X144907402Y-79095614D01*
X144914515Y-79072165D01*
X144926066Y-79050554D01*
X144941612Y-79031612D01*
X144960554Y-79016066D01*
X144982165Y-79004515D01*
X145005614Y-78997402D01*
X145030000Y-78995000D01*
X145054386Y-78997402D01*
G37*
G36*
X153994386Y-75287402D02*
G01*
X154017835Y-75294515D01*
X154039446Y-75306066D01*
X154058388Y-75321612D01*
X154073934Y-75340554D01*
X154085485Y-75362165D01*
X154092598Y-75385614D01*
X154095000Y-75410000D01*
X154095000Y-76890000D01*
X154092598Y-76914386D01*
X154085485Y-76937835D01*
X154073934Y-76959446D01*
X154058388Y-76978388D01*
X154039446Y-76993934D01*
X154017835Y-77005485D01*
X153994386Y-77012598D01*
X153970000Y-77015000D01*
X153945614Y-77012598D01*
X153922165Y-77005485D01*
X153900554Y-76993934D01*
X153881612Y-76978388D01*
X153866066Y-76959446D01*
X153854515Y-76937835D01*
X153847402Y-76914386D01*
X153845000Y-76890000D01*
X153845000Y-75410000D01*
X153847402Y-75385614D01*
X153854515Y-75362165D01*
X153866066Y-75340554D01*
X153881612Y-75321612D01*
X153900554Y-75306066D01*
X153922165Y-75294515D01*
X153945614Y-75287402D01*
X153970000Y-75285000D01*
X153994386Y-75287402D01*
G37*
G36*
X153994386Y-78997402D02*
G01*
X154017835Y-79004515D01*
X154039446Y-79016066D01*
X154058388Y-79031612D01*
X154073934Y-79050554D01*
X154085485Y-79072165D01*
X154092598Y-79095614D01*
X154095000Y-79120000D01*
X154095000Y-80990000D01*
X154092598Y-81014386D01*
X154085485Y-81037835D01*
X154073934Y-81059446D01*
X154058388Y-81078388D01*
X154039446Y-81093934D01*
X154017835Y-81105485D01*
X153994386Y-81112598D01*
X153970000Y-81115000D01*
X153945614Y-81112598D01*
X153922165Y-81105485D01*
X153900554Y-81093934D01*
X153881612Y-81078388D01*
X153866066Y-81059446D01*
X153854515Y-81037835D01*
X153847402Y-81014386D01*
X153845000Y-80990000D01*
X153845000Y-79120000D01*
X153847402Y-79095614D01*
X153854515Y-79072165D01*
X153866066Y-79050554D01*
X153881612Y-79031612D01*
X153900554Y-79016066D01*
X153922165Y-79004515D01*
X153945614Y-78997402D01*
X153970000Y-78995000D01*
X153994386Y-78997402D01*
G37*
G36*
X153994386Y-75287402D02*
G01*
X154017835Y-75294515D01*
X154039446Y-75306066D01*
X154058388Y-75321612D01*
X154073934Y-75340554D01*
X154085485Y-75362165D01*
X154092598Y-75385614D01*
X154095000Y-75410000D01*
X154092598Y-75434386D01*
X154085485Y-75457835D01*
X154073934Y-75479446D01*
X154058388Y-75498388D01*
X154039446Y-75513934D01*
X154017835Y-75525485D01*
X153994386Y-75532598D01*
X153970000Y-75535000D01*
X145030000Y-75535000D01*
X145005614Y-75532598D01*
X144982165Y-75525485D01*
X144960554Y-75513934D01*
X144941612Y-75498388D01*
X144926066Y-75479446D01*
X144914515Y-75457835D01*
X144907402Y-75434386D01*
X144905000Y-75410000D01*
X144907402Y-75385614D01*
X144914515Y-75362165D01*
X144926066Y-75340554D01*
X144941612Y-75321612D01*
X144960554Y-75306066D01*
X144982165Y-75294515D01*
X145005614Y-75287402D01*
X145030000Y-75285000D01*
X153970000Y-75285000D01*
X153994386Y-75287402D01*
G37*
%TO.C,U2*%
G36*
X155170849Y-83899940D02*
G01*
X155199551Y-83908646D01*
X155226002Y-83922785D01*
X155249187Y-83941813D01*
X155268215Y-83964998D01*
X155282354Y-83991449D01*
X155291060Y-84020151D01*
X155294000Y-84050000D01*
X155291060Y-84079849D01*
X155282354Y-84108551D01*
X155268215Y-84135002D01*
X155249187Y-84158187D01*
X155226002Y-84177215D01*
X155199551Y-84191354D01*
X155170849Y-84200060D01*
X155141000Y-84203000D01*
X155111151Y-84200060D01*
X155082449Y-84191354D01*
X155055998Y-84177215D01*
X155032813Y-84158187D01*
X155013785Y-84135002D01*
X154999646Y-84108551D01*
X154990940Y-84079849D01*
X154988000Y-84050000D01*
X154990940Y-84020151D01*
X154999646Y-83991449D01*
X155013785Y-83964998D01*
X155032813Y-83941813D01*
X155055998Y-83922785D01*
X155082449Y-83908646D01*
X155111151Y-83899940D01*
X155141000Y-83897000D01*
X155170849Y-83899940D01*
G37*
G36*
X159483998Y-83437368D02*
G01*
X159491424Y-83438470D01*
X159498707Y-83440294D01*
X159505775Y-83442823D01*
X159512562Y-83446033D01*
X159519001Y-83449893D01*
X159525031Y-83454365D01*
X159530594Y-83459406D01*
X159535635Y-83464969D01*
X159540107Y-83470999D01*
X159543967Y-83477438D01*
X159547177Y-83484225D01*
X159549706Y-83491293D01*
X159551530Y-83498576D01*
X159552632Y-83506002D01*
X159553000Y-83513500D01*
X159553000Y-86486500D01*
X159552632Y-86493998D01*
X159551530Y-86501424D01*
X159549706Y-86508707D01*
X159547177Y-86515775D01*
X159543967Y-86522562D01*
X159540107Y-86529001D01*
X159535635Y-86535031D01*
X159530594Y-86540594D01*
X159525031Y-86545635D01*
X159519001Y-86550107D01*
X159512562Y-86553967D01*
X159505775Y-86557177D01*
X159498707Y-86559706D01*
X159491424Y-86561530D01*
X159483998Y-86562632D01*
X159476500Y-86563000D01*
X155523500Y-86563000D01*
X155516002Y-86562632D01*
X155508576Y-86561530D01*
X155501293Y-86559706D01*
X155494225Y-86557177D01*
X155487438Y-86553967D01*
X155480999Y-86550107D01*
X155474969Y-86545635D01*
X155469406Y-86540594D01*
X155464365Y-86535031D01*
X155459893Y-86529001D01*
X155456033Y-86522562D01*
X155452823Y-86515775D01*
X155450294Y-86508707D01*
X155448470Y-86501424D01*
X155447368Y-86493998D01*
X155447000Y-86486500D01*
X155447000Y-83590000D01*
X155600000Y-83590000D01*
X155600000Y-83740000D01*
X155600000Y-84360000D01*
X155600000Y-84690000D01*
X155600000Y-85310000D01*
X155600000Y-85640000D01*
X155600000Y-86260000D01*
X155600000Y-86410000D01*
X155750000Y-86410000D01*
X156900000Y-86410000D01*
X159250000Y-86410000D01*
X159400000Y-86410000D01*
X159400000Y-86260000D01*
X159400000Y-85640000D01*
X159400000Y-84360000D01*
X159400000Y-83740000D01*
X159400000Y-83590000D01*
X158100000Y-83590000D01*
X156900000Y-83590000D01*
X155750000Y-83590000D01*
X155600000Y-83590000D01*
X155447000Y-83590000D01*
X155447000Y-83513500D01*
X155447368Y-83506002D01*
X155448470Y-83498576D01*
X155450294Y-83491293D01*
X155452823Y-83484225D01*
X155456033Y-83477438D01*
X155459893Y-83470999D01*
X155464365Y-83464969D01*
X155469406Y-83459406D01*
X155474969Y-83454365D01*
X155480999Y-83449893D01*
X155487438Y-83446033D01*
X155494225Y-83442823D01*
X155501293Y-83440294D01*
X155508576Y-83438470D01*
X155516002Y-83437368D01*
X155523500Y-83437000D01*
X159476500Y-83437000D01*
X159483998Y-83437368D01*
G37*
%TO.C,Y1*%
G36*
X137429264Y-118702882D02*
G01*
X137457403Y-118711418D01*
X137483336Y-118725280D01*
X137506066Y-118743934D01*
X137524720Y-118766664D01*
X137538582Y-118792597D01*
X137547118Y-118820736D01*
X137550000Y-118850000D01*
X137547118Y-118879264D01*
X137538582Y-118907403D01*
X137524720Y-118933336D01*
X137506066Y-118956066D01*
X137483336Y-118974720D01*
X137457403Y-118988582D01*
X137429264Y-118997118D01*
X137400000Y-119000000D01*
X137370736Y-118997118D01*
X137342597Y-118988582D01*
X137316664Y-118974720D01*
X137293934Y-118956066D01*
X137275280Y-118933336D01*
X137261418Y-118907403D01*
X137252882Y-118879264D01*
X137250000Y-118850000D01*
X137252882Y-118820736D01*
X137261418Y-118792597D01*
X137275280Y-118766664D01*
X137293934Y-118743934D01*
X137316664Y-118725280D01*
X137342597Y-118711418D01*
X137370736Y-118702882D01*
X137400000Y-118700000D01*
X137429264Y-118702882D01*
G37*
%TO.C,J4*%
G36*
X171571898Y-109614468D02*
G01*
X171579324Y-109615570D01*
X171586607Y-109617394D01*
X171593675Y-109619923D01*
X171600462Y-109623133D01*
X171606901Y-109626993D01*
X171612931Y-109631465D01*
X171618494Y-109636506D01*
X171623535Y-109642069D01*
X171628007Y-109648099D01*
X171631867Y-109654538D01*
X171635077Y-109661325D01*
X171637606Y-109668393D01*
X171639430Y-109675676D01*
X171640532Y-109683102D01*
X171640900Y-109690600D01*
X171640900Y-134314400D01*
X171640532Y-134321898D01*
X171639430Y-134329324D01*
X171637606Y-134336607D01*
X171635077Y-134343675D01*
X171631867Y-134350462D01*
X171628007Y-134356901D01*
X171623535Y-134362931D01*
X171618494Y-134368494D01*
X171612931Y-134373535D01*
X171606901Y-134378007D01*
X171600462Y-134381867D01*
X171593675Y-134385077D01*
X171586607Y-134387606D01*
X171579324Y-134389430D01*
X171571898Y-134390532D01*
X171564400Y-134390900D01*
X169435600Y-134390900D01*
X169428102Y-134390532D01*
X169420676Y-134389430D01*
X169413393Y-134387606D01*
X169406325Y-134385077D01*
X169399538Y-134381867D01*
X169393099Y-134378007D01*
X169387069Y-134373535D01*
X169381506Y-134368494D01*
X169376465Y-134362931D01*
X169371993Y-134356901D01*
X169368133Y-134350462D01*
X169364923Y-134343675D01*
X169362394Y-134336607D01*
X169360570Y-134329324D01*
X169359468Y-134321898D01*
X169359100Y-134314400D01*
X169359100Y-134237900D01*
X169512100Y-134237900D01*
X171487900Y-134237900D01*
X171487900Y-109767100D01*
X169512100Y-109767100D01*
X169512100Y-134237900D01*
X169359100Y-134237900D01*
X169359100Y-109690600D01*
X169359468Y-109683102D01*
X169360570Y-109675676D01*
X169362394Y-109668393D01*
X169364923Y-109661325D01*
X169368133Y-109654538D01*
X169371993Y-109648099D01*
X169376465Y-109642069D01*
X169381506Y-109636506D01*
X169387069Y-109631465D01*
X169393099Y-109626993D01*
X169399538Y-109623133D01*
X169406325Y-109619923D01*
X169413393Y-109617394D01*
X169420676Y-109615570D01*
X169428102Y-109614468D01*
X169435600Y-109614100D01*
X171564400Y-109614100D01*
X171571898Y-109614468D01*
G37*
%TO.C,U5*%
G36*
X126120849Y-119874940D02*
G01*
X126149551Y-119883646D01*
X126176002Y-119897785D01*
X126199187Y-119916813D01*
X126218215Y-119939998D01*
X126232354Y-119966449D01*
X126241060Y-119995151D01*
X126244000Y-120025000D01*
X126241060Y-120054849D01*
X126232354Y-120083551D01*
X126218215Y-120110002D01*
X126199187Y-120133187D01*
X126176002Y-120152215D01*
X126149551Y-120166354D01*
X126120849Y-120175060D01*
X126091000Y-120178000D01*
X126061151Y-120175060D01*
X126032449Y-120166354D01*
X126005998Y-120152215D01*
X125982813Y-120133187D01*
X125963785Y-120110002D01*
X125949646Y-120083551D01*
X125940940Y-120054849D01*
X125938000Y-120025000D01*
X125940940Y-119995151D01*
X125949646Y-119966449D01*
X125963785Y-119939998D01*
X125982813Y-119916813D01*
X126005998Y-119897785D01*
X126032449Y-119883646D01*
X126061151Y-119874940D01*
X126091000Y-119872000D01*
X126120849Y-119874940D01*
G37*
G36*
X132526500Y-119472000D02*
G01*
X132533998Y-119472368D01*
X132541424Y-119473470D01*
X132548707Y-119475294D01*
X132555775Y-119477823D01*
X132562562Y-119481033D01*
X132569001Y-119484893D01*
X132575031Y-119489365D01*
X132580594Y-119494406D01*
X132585635Y-119499969D01*
X132590107Y-119505999D01*
X132593967Y-119512438D01*
X132597177Y-119519225D01*
X132599706Y-119526293D01*
X132601530Y-119533576D01*
X132602632Y-119541002D01*
X132603000Y-119548500D01*
X132603000Y-122451500D01*
X132602632Y-122458998D01*
X132601530Y-122466424D01*
X132599706Y-122473707D01*
X132597177Y-122480775D01*
X132593967Y-122487562D01*
X132590107Y-122494001D01*
X132585635Y-122500031D01*
X132580594Y-122505594D01*
X132575031Y-122510635D01*
X132569001Y-122515107D01*
X132562562Y-122518967D01*
X132555775Y-122522177D01*
X132548707Y-122524706D01*
X132541424Y-122526530D01*
X132533998Y-122527632D01*
X132526500Y-122528000D01*
X126473500Y-122528000D01*
X126466002Y-122527632D01*
X126458576Y-122526530D01*
X126451293Y-122524706D01*
X126444225Y-122522177D01*
X126437438Y-122518967D01*
X126430999Y-122515107D01*
X126424969Y-122510635D01*
X126419406Y-122505594D01*
X126414365Y-122500031D01*
X126409893Y-122494001D01*
X126406033Y-122487562D01*
X126402823Y-122480775D01*
X126400294Y-122473707D01*
X126398470Y-122466424D01*
X126397368Y-122458998D01*
X126397000Y-122451500D01*
X126397000Y-119625000D01*
X126550000Y-119625000D01*
X126550000Y-122375000D01*
X126700000Y-122375000D01*
X127982843Y-122375000D01*
X131017157Y-122375000D01*
X132300000Y-122375000D01*
X132450000Y-122375000D01*
X132450000Y-119625000D01*
X132300000Y-119625000D01*
X131017157Y-119625000D01*
X127982843Y-119625000D01*
X126700000Y-119625000D01*
X126550000Y-119625000D01*
X126397000Y-119625000D01*
X126397000Y-119548500D01*
X126397368Y-119541002D01*
X126398470Y-119533576D01*
X126400294Y-119526293D01*
X126402823Y-119519225D01*
X126406033Y-119512438D01*
X126409893Y-119505999D01*
X126414365Y-119499969D01*
X126419406Y-119494406D01*
X126424969Y-119489365D01*
X126430999Y-119484893D01*
X126437438Y-119481033D01*
X126444225Y-119477823D01*
X126451293Y-119475294D01*
X126458576Y-119473470D01*
X126466002Y-119472368D01*
X126473500Y-119472000D01*
X132526500Y-119472000D01*
G37*
D11*
%TO.C,J2*%
X103647500Y-102000000D02*
X103647500Y-117000000D01*
X103647500Y-117000000D02*
X106438500Y-117000000D01*
X106438500Y-102000000D02*
X103647500Y-102000000D01*
X117159500Y-114350000D02*
G75*
G02*
X116599500Y-114350000I-280000J0D01*
G01*
X116599500Y-114350000D02*
G75*
G02*
X117159500Y-114350000I280000J0D01*
G01*
D12*
G36*
X112445276Y-101875440D02*
G01*
X112469101Y-101882667D01*
X112491057Y-101894403D01*
X112510303Y-101910197D01*
X112526097Y-101929443D01*
X112537833Y-101951399D01*
X112545060Y-101975224D01*
X112547500Y-102000000D01*
X112545060Y-102024776D01*
X112537833Y-102048601D01*
X112526097Y-102070557D01*
X112510303Y-102089803D01*
X112491057Y-102105597D01*
X112469101Y-102117333D01*
X112445276Y-102124560D01*
X112420500Y-102127000D01*
X109757500Y-102127000D01*
X109732724Y-102124560D01*
X109708899Y-102117333D01*
X109686943Y-102105597D01*
X109667697Y-102089803D01*
X109651903Y-102070557D01*
X109640167Y-102048601D01*
X109632940Y-102024776D01*
X109630500Y-102000000D01*
X109632940Y-101975224D01*
X109640167Y-101951399D01*
X109651903Y-101929443D01*
X109667697Y-101910197D01*
X109686943Y-101894403D01*
X109708899Y-101882667D01*
X109732724Y-101875440D01*
X109757500Y-101873000D01*
X112420500Y-101873000D01*
X112445276Y-101875440D01*
G37*
G36*
X112445276Y-116875440D02*
G01*
X112469101Y-116882667D01*
X112491057Y-116894403D01*
X112510303Y-116910197D01*
X112526097Y-116929443D01*
X112537833Y-116951399D01*
X112545060Y-116975224D01*
X112547500Y-117000000D01*
X112545060Y-117024776D01*
X112537833Y-117048601D01*
X112526097Y-117070557D01*
X112510303Y-117089803D01*
X112491057Y-117105597D01*
X112469101Y-117117333D01*
X112445276Y-117124560D01*
X112420500Y-117127000D01*
X109757500Y-117127000D01*
X109732724Y-117124560D01*
X109708899Y-117117333D01*
X109686943Y-117105597D01*
X109667697Y-117089803D01*
X109651903Y-117070557D01*
X109640167Y-117048601D01*
X109632940Y-117024776D01*
X109630500Y-117000000D01*
X109632940Y-116975224D01*
X109640167Y-116951399D01*
X109651903Y-116929443D01*
X109667697Y-116910197D01*
X109686943Y-116894403D01*
X109708899Y-116882667D01*
X109732724Y-116875440D01*
X109757500Y-116873000D01*
X112420500Y-116873000D01*
X112445276Y-116875440D01*
G37*
G36*
X116293276Y-102512440D02*
G01*
X116317101Y-102519667D01*
X116339057Y-102531403D01*
X116358303Y-102547197D01*
X116374097Y-102566443D01*
X116385833Y-102588399D01*
X116393060Y-102612224D01*
X116395500Y-102637000D01*
X116395500Y-104500000D01*
X116393060Y-104524776D01*
X116385833Y-104548601D01*
X116374097Y-104570557D01*
X116358303Y-104589803D01*
X116339057Y-104605597D01*
X116317101Y-104617333D01*
X116293276Y-104624560D01*
X116268500Y-104627000D01*
X116243724Y-104624560D01*
X116219899Y-104617333D01*
X116197943Y-104605597D01*
X116178697Y-104589803D01*
X116162903Y-104570557D01*
X116151167Y-104548601D01*
X116143940Y-104524776D01*
X116141500Y-104500000D01*
X116141500Y-102637000D01*
X116143940Y-102612224D01*
X116151167Y-102588399D01*
X116162903Y-102566443D01*
X116178697Y-102547197D01*
X116197943Y-102531403D01*
X116219899Y-102519667D01*
X116243724Y-102512440D01*
X116268500Y-102510000D01*
X116293276Y-102512440D01*
G37*
G36*
X116293276Y-114256440D02*
G01*
X116317101Y-114263667D01*
X116339057Y-114275403D01*
X116358303Y-114291197D01*
X116374097Y-114310443D01*
X116385833Y-114332399D01*
X116393060Y-114356224D01*
X116395500Y-114381000D01*
X116395500Y-116363000D01*
X116393060Y-116387776D01*
X116385833Y-116411601D01*
X116374097Y-116433557D01*
X116358303Y-116452803D01*
X116339057Y-116468597D01*
X116317101Y-116480333D01*
X116293276Y-116487560D01*
X116268500Y-116490000D01*
X116243724Y-116487560D01*
X116219899Y-116480333D01*
X116197943Y-116468597D01*
X116178697Y-116452803D01*
X116162903Y-116433557D01*
X116151167Y-116411601D01*
X116143940Y-116387776D01*
X116141500Y-116363000D01*
X116141500Y-114381000D01*
X116143940Y-114356224D01*
X116151167Y-114332399D01*
X116162903Y-114310443D01*
X116178697Y-114291197D01*
X116197943Y-114275403D01*
X116219899Y-114263667D01*
X116243724Y-114256440D01*
X116268500Y-114254000D01*
X116293276Y-114256440D01*
G37*
%TO.C,J5*%
G36*
X131383998Y-135545162D02*
G01*
X131391424Y-135546264D01*
X131398707Y-135548088D01*
X131405775Y-135550617D01*
X131412562Y-135553827D01*
X131419001Y-135557687D01*
X131425031Y-135562159D01*
X131430594Y-135567200D01*
X131435635Y-135572763D01*
X131440107Y-135578793D01*
X131443967Y-135585232D01*
X131447177Y-135592019D01*
X131449706Y-135599087D01*
X131451530Y-135606370D01*
X131452632Y-135613796D01*
X131453000Y-135621294D01*
X131453000Y-137378706D01*
X131452632Y-137386204D01*
X131451530Y-137393630D01*
X131449706Y-137400913D01*
X131447177Y-137407981D01*
X131443967Y-137414768D01*
X131440107Y-137421207D01*
X131435635Y-137427237D01*
X131430594Y-137432800D01*
X131425031Y-137437841D01*
X131419001Y-137442313D01*
X131412562Y-137446173D01*
X131405775Y-137449383D01*
X131398707Y-137451912D01*
X131391424Y-137453736D01*
X131383998Y-137454838D01*
X131376500Y-137455206D01*
X127629653Y-137455206D01*
X127622154Y-137454838D01*
X127614728Y-137453736D01*
X127607446Y-137451912D01*
X127600377Y-137449383D01*
X127593591Y-137446173D01*
X127587151Y-137442313D01*
X127581122Y-137437841D01*
X127575559Y-137432800D01*
X127570517Y-137427237D01*
X127566045Y-137421207D01*
X127562186Y-137414768D01*
X127558976Y-137407981D01*
X127556447Y-137400913D01*
X127554623Y-137393630D01*
X127553521Y-137386204D01*
X127553153Y-137378706D01*
X127553153Y-135697794D01*
X127706153Y-135697794D01*
X127706153Y-136379644D01*
X127706153Y-136620356D01*
X127706153Y-137302206D01*
X128560436Y-137302206D01*
X130560436Y-137302206D01*
X131300000Y-137302206D01*
X131300000Y-135697794D01*
X130560436Y-135697794D01*
X128560436Y-135697794D01*
X127706153Y-135697794D01*
X127553153Y-135697794D01*
X127553153Y-135621294D01*
X127553521Y-135613796D01*
X127554623Y-135606370D01*
X127556447Y-135599087D01*
X127558976Y-135592019D01*
X127562186Y-135585232D01*
X127566045Y-135578793D01*
X127570517Y-135572763D01*
X127575559Y-135567200D01*
X127581122Y-135562159D01*
X127587151Y-135557687D01*
X127593591Y-135553827D01*
X127600377Y-135550617D01*
X127607446Y-135548088D01*
X127614728Y-135546264D01*
X127622154Y-135545162D01*
X127629653Y-135544794D01*
X131376500Y-135544794D01*
X131383998Y-135545162D01*
G37*
D11*
%TO.C,S1*%
X134699000Y-128999500D02*
X135499000Y-128199500D01*
X134699000Y-130998500D02*
X134699000Y-128999500D01*
X135499000Y-128199500D02*
X137399000Y-128199500D01*
X135601000Y-131899500D02*
X134699000Y-130998500D01*
X137300000Y-131899500D02*
X135601000Y-131899500D01*
X137399000Y-128199500D02*
X138301000Y-129100500D01*
X138301000Y-129100500D02*
X138301000Y-130899500D01*
X138301000Y-130899500D02*
X137300000Y-131899500D01*
X137775000Y-130000500D02*
G75*
G02*
X135225000Y-130000500I-1275000J0D01*
G01*
X135225000Y-130000500D02*
G75*
G02*
X137775000Y-130000500I1275000J0D01*
G01*
D12*
G36*
X133974776Y-128706940D02*
G01*
X133998601Y-128714167D01*
X134020557Y-128725903D01*
X134039803Y-128741697D01*
X134055597Y-128760943D01*
X134067333Y-128782899D01*
X134074560Y-128806724D01*
X134077000Y-128831500D01*
X134077000Y-131168500D01*
X134074560Y-131193276D01*
X134067333Y-131217101D01*
X134055597Y-131239057D01*
X134039803Y-131258303D01*
X134020557Y-131274097D01*
X133998601Y-131285833D01*
X133974776Y-131293060D01*
X133950000Y-131295500D01*
X133925224Y-131293060D01*
X133901399Y-131285833D01*
X133879443Y-131274097D01*
X133860197Y-131258303D01*
X133844403Y-131239057D01*
X133832667Y-131217101D01*
X133825440Y-131193276D01*
X133823000Y-131168500D01*
X133823000Y-128831500D01*
X133825440Y-128806724D01*
X133832667Y-128782899D01*
X133844403Y-128760943D01*
X133860197Y-128741697D01*
X133879443Y-128725903D01*
X133901399Y-128714167D01*
X133925224Y-128706940D01*
X133950000Y-128704500D01*
X133974776Y-128706940D01*
G37*
G36*
X135249776Y-127324940D02*
G01*
X135273601Y-127332167D01*
X135295557Y-127343903D01*
X135314803Y-127359697D01*
X135330597Y-127378943D01*
X135342333Y-127400899D01*
X135349560Y-127424724D01*
X135352000Y-127449500D01*
X135349560Y-127474276D01*
X135342333Y-127498101D01*
X135330597Y-127520057D01*
X135314803Y-127539303D01*
X134419803Y-128434303D01*
X134400557Y-128450097D01*
X134378601Y-128461833D01*
X134354776Y-128469060D01*
X134330000Y-128471500D01*
X134305224Y-128469060D01*
X134281399Y-128461833D01*
X134259443Y-128450097D01*
X134240197Y-128434303D01*
X134224403Y-128415057D01*
X134212667Y-128393101D01*
X134205440Y-128369276D01*
X134203000Y-128344500D01*
X134205440Y-128319724D01*
X134212667Y-128295899D01*
X134224403Y-128273943D01*
X134240197Y-128254697D01*
X135135197Y-127359697D01*
X135154443Y-127343903D01*
X135176399Y-127332167D01*
X135200224Y-127324940D01*
X135225000Y-127322500D01*
X135249776Y-127324940D01*
G37*
G36*
X134354776Y-131530940D02*
G01*
X134378601Y-131538167D01*
X134400557Y-131549903D01*
X134419803Y-131565697D01*
X135314803Y-132460697D01*
X135330597Y-132479943D01*
X135342333Y-132501899D01*
X135349560Y-132525724D01*
X135352000Y-132550500D01*
X135349560Y-132575276D01*
X135342333Y-132599101D01*
X135330597Y-132621057D01*
X135314803Y-132640303D01*
X135295557Y-132656097D01*
X135273601Y-132667833D01*
X135249776Y-132675060D01*
X135225000Y-132677500D01*
X135200224Y-132675060D01*
X135176399Y-132667833D01*
X135154443Y-132656097D01*
X135135197Y-132640303D01*
X134240197Y-131745303D01*
X134224403Y-131726057D01*
X134212667Y-131704101D01*
X134205440Y-131680276D01*
X134203000Y-131655500D01*
X134205440Y-131630724D01*
X134212667Y-131606899D01*
X134224403Y-131584943D01*
X134240197Y-131565697D01*
X134259443Y-131549903D01*
X134281399Y-131538167D01*
X134305224Y-131530940D01*
X134330000Y-131528500D01*
X134354776Y-131530940D01*
G37*
G36*
X138694776Y-131530940D02*
G01*
X138718601Y-131538167D01*
X138740557Y-131549903D01*
X138759803Y-131565697D01*
X138775597Y-131584943D01*
X138787333Y-131606899D01*
X138794560Y-131630724D01*
X138797000Y-131655500D01*
X138794560Y-131680276D01*
X138787333Y-131704101D01*
X138775597Y-131726057D01*
X138759803Y-131745303D01*
X137864803Y-132640303D01*
X137845557Y-132656097D01*
X137823601Y-132667833D01*
X137799776Y-132675060D01*
X137775000Y-132677500D01*
X137750224Y-132675060D01*
X137726399Y-132667833D01*
X137704443Y-132656097D01*
X137685197Y-132640303D01*
X137669403Y-132621057D01*
X137657667Y-132599101D01*
X137650440Y-132575276D01*
X137648000Y-132550500D01*
X137650440Y-132525724D01*
X137657667Y-132501899D01*
X137669403Y-132479943D01*
X137685197Y-132460697D01*
X138580197Y-131565697D01*
X138599443Y-131549903D01*
X138621399Y-131538167D01*
X138645224Y-131530940D01*
X138670000Y-131528500D01*
X138694776Y-131530940D01*
G37*
G36*
X137799776Y-127324940D02*
G01*
X137823601Y-127332167D01*
X137845557Y-127343903D01*
X137864803Y-127359697D01*
X137880597Y-127378943D01*
X137892333Y-127400899D01*
X137899560Y-127424724D01*
X137902000Y-127449500D01*
X137899560Y-127474276D01*
X137892333Y-127498101D01*
X137880597Y-127520057D01*
X137864803Y-127539303D01*
X137845557Y-127555097D01*
X137823601Y-127566833D01*
X137799776Y-127574060D01*
X137775000Y-127576500D01*
X135225000Y-127576500D01*
X135200224Y-127574060D01*
X135176399Y-127566833D01*
X135154443Y-127555097D01*
X135135197Y-127539303D01*
X135119403Y-127520057D01*
X135107667Y-127498101D01*
X135100440Y-127474276D01*
X135098000Y-127449500D01*
X135100440Y-127424724D01*
X135107667Y-127400899D01*
X135119403Y-127378943D01*
X135135197Y-127359697D01*
X135154443Y-127343903D01*
X135176399Y-127332167D01*
X135200224Y-127324940D01*
X135225000Y-127322500D01*
X137775000Y-127322500D01*
X137799776Y-127324940D01*
G37*
G36*
X137799776Y-132425940D02*
G01*
X137823601Y-132433167D01*
X137845557Y-132444903D01*
X137864803Y-132460697D01*
X137880597Y-132479943D01*
X137892333Y-132501899D01*
X137899560Y-132525724D01*
X137902000Y-132550500D01*
X137899560Y-132575276D01*
X137892333Y-132599101D01*
X137880597Y-132621057D01*
X137864803Y-132640303D01*
X137845557Y-132656097D01*
X137823601Y-132667833D01*
X137799776Y-132675060D01*
X137775000Y-132677500D01*
X135225000Y-132677500D01*
X135200224Y-132675060D01*
X135176399Y-132667833D01*
X135154443Y-132656097D01*
X135135197Y-132640303D01*
X135119403Y-132621057D01*
X135107667Y-132599101D01*
X135100440Y-132575276D01*
X135098000Y-132550500D01*
X135100440Y-132525724D01*
X135107667Y-132501899D01*
X135119403Y-132479943D01*
X135135197Y-132460697D01*
X135154443Y-132444903D01*
X135176399Y-132433167D01*
X135200224Y-132425940D01*
X135225000Y-132423500D01*
X137775000Y-132423500D01*
X137799776Y-132425940D01*
G37*
G36*
X137799776Y-127324940D02*
G01*
X137823601Y-127332167D01*
X137845557Y-127343903D01*
X137864803Y-127359697D01*
X138759803Y-128254697D01*
X138775597Y-128273943D01*
X138787333Y-128295899D01*
X138794560Y-128319724D01*
X138797000Y-128344500D01*
X138794560Y-128369276D01*
X138787333Y-128393101D01*
X138775597Y-128415057D01*
X138759803Y-128434303D01*
X138740557Y-128450097D01*
X138718601Y-128461833D01*
X138694776Y-128469060D01*
X138670000Y-128471500D01*
X138645224Y-128469060D01*
X138621399Y-128461833D01*
X138599443Y-128450097D01*
X138580197Y-128434303D01*
X137685197Y-127539303D01*
X137669403Y-127520057D01*
X137657667Y-127498101D01*
X137650440Y-127474276D01*
X137648000Y-127449500D01*
X137650440Y-127424724D01*
X137657667Y-127400899D01*
X137669403Y-127378943D01*
X137685197Y-127359697D01*
X137704443Y-127343903D01*
X137726399Y-127332167D01*
X137750224Y-127324940D01*
X137775000Y-127322500D01*
X137799776Y-127324940D01*
G37*
G36*
X139074776Y-128706940D02*
G01*
X139098601Y-128714167D01*
X139120557Y-128725903D01*
X139139803Y-128741697D01*
X139155597Y-128760943D01*
X139167333Y-128782899D01*
X139174560Y-128806724D01*
X139177000Y-128831500D01*
X139177000Y-131168500D01*
X139174560Y-131193276D01*
X139167333Y-131217101D01*
X139155597Y-131239057D01*
X139139803Y-131258303D01*
X139120557Y-131274097D01*
X139098601Y-131285833D01*
X139074776Y-131293060D01*
X139050000Y-131295500D01*
X139025224Y-131293060D01*
X139001399Y-131285833D01*
X138979443Y-131274097D01*
X138960197Y-131258303D01*
X138944403Y-131239057D01*
X138932667Y-131217101D01*
X138925440Y-131193276D01*
X138923000Y-131168500D01*
X138923000Y-128831500D01*
X138925440Y-128806724D01*
X138932667Y-128782899D01*
X138944403Y-128760943D01*
X138960197Y-128741697D01*
X138979443Y-128725903D01*
X139001399Y-128714167D01*
X139025224Y-128706940D01*
X139050000Y-128704500D01*
X139074776Y-128706940D01*
G37*
%TO.C,U4*%
G36*
X131120849Y-95944940D02*
G01*
X131149551Y-95953646D01*
X131176002Y-95967785D01*
X131199187Y-95986813D01*
X131218215Y-96009998D01*
X131232354Y-96036449D01*
X131241060Y-96065151D01*
X131244000Y-96095000D01*
X131241060Y-96124849D01*
X131232354Y-96153551D01*
X131218215Y-96180002D01*
X131199187Y-96203187D01*
X131176002Y-96222215D01*
X131149551Y-96236354D01*
X131120849Y-96245060D01*
X131091000Y-96248000D01*
X131061151Y-96245060D01*
X131032449Y-96236354D01*
X131005998Y-96222215D01*
X130982813Y-96203187D01*
X130963785Y-96180002D01*
X130949646Y-96153551D01*
X130940940Y-96124849D01*
X130938000Y-96095000D01*
X130940940Y-96065151D01*
X130949646Y-96036449D01*
X130963785Y-96009998D01*
X130982813Y-95986813D01*
X131005998Y-95967785D01*
X131032449Y-95953646D01*
X131061151Y-95944940D01*
X131091000Y-95942000D01*
X131120849Y-95944940D01*
G37*
G36*
X140526500Y-95442000D02*
G01*
X140533998Y-95442368D01*
X140541424Y-95443470D01*
X140548707Y-95445294D01*
X140555775Y-95447823D01*
X140562562Y-95451033D01*
X140569001Y-95454893D01*
X140575031Y-95459365D01*
X140580594Y-95464406D01*
X140585635Y-95469969D01*
X140590107Y-95475999D01*
X140593967Y-95482438D01*
X140597177Y-95489225D01*
X140599706Y-95496293D01*
X140601530Y-95503576D01*
X140602632Y-95511002D01*
X140603000Y-95518500D01*
X140603000Y-100481500D01*
X140602632Y-100488998D01*
X140601530Y-100496424D01*
X140599706Y-100503707D01*
X140597177Y-100510775D01*
X140593967Y-100517562D01*
X140590107Y-100524001D01*
X140585635Y-100530031D01*
X140580594Y-100535594D01*
X140575031Y-100540635D01*
X140569001Y-100545107D01*
X140562562Y-100548967D01*
X140555775Y-100552177D01*
X140548707Y-100554706D01*
X140541424Y-100556530D01*
X140533998Y-100557632D01*
X140526500Y-100558000D01*
X131473500Y-100558000D01*
X131466002Y-100557632D01*
X131458576Y-100556530D01*
X131451293Y-100554706D01*
X131444225Y-100552177D01*
X131437438Y-100548967D01*
X131430999Y-100545107D01*
X131424969Y-100540635D01*
X131419406Y-100535594D01*
X131414365Y-100530031D01*
X131409893Y-100524001D01*
X131406033Y-100517562D01*
X131402823Y-100510775D01*
X131400294Y-100503707D01*
X131398470Y-100496424D01*
X131397368Y-100488998D01*
X131397000Y-100481500D01*
X131397000Y-95595000D01*
X131550000Y-95595000D01*
X131550000Y-95745000D01*
X131550000Y-96445000D01*
X131550000Y-97015000D01*
X131550000Y-97715000D01*
X131550000Y-98285000D01*
X131550000Y-98985000D01*
X131550000Y-99555000D01*
X131550000Y-100255000D01*
X131550000Y-100405000D01*
X140450000Y-100405000D01*
X140450000Y-100255000D01*
X140450000Y-99555000D01*
X140450000Y-98985000D01*
X140450000Y-98285000D01*
X140450000Y-97715000D01*
X140450000Y-97015000D01*
X140450000Y-96445000D01*
X140450000Y-95745000D01*
X140450000Y-95595000D01*
X131550000Y-95595000D01*
X131397000Y-95595000D01*
X131397000Y-95518500D01*
X131397368Y-95511002D01*
X131398470Y-95503576D01*
X131400294Y-95496293D01*
X131402823Y-95489225D01*
X131406033Y-95482438D01*
X131409893Y-95475999D01*
X131414365Y-95469969D01*
X131419406Y-95464406D01*
X131424969Y-95459365D01*
X131430999Y-95454893D01*
X131437438Y-95451033D01*
X131444225Y-95447823D01*
X131451293Y-95445294D01*
X131458576Y-95443470D01*
X131466002Y-95442368D01*
X131473500Y-95442000D01*
X140526500Y-95442000D01*
G37*
D11*
%TO.C,L6*%
X163095000Y-125238000D02*
X163095000Y-126635000D01*
X163095000Y-126635000D02*
X163095000Y-126762000D01*
X163095000Y-126762000D02*
X163349000Y-127016000D01*
X163349000Y-124984000D02*
X163095000Y-125238000D01*
X163349000Y-127016000D02*
X164619000Y-127016000D01*
X163476000Y-124984000D02*
X163349000Y-124984000D01*
X164619000Y-124984000D02*
X163476000Y-124984000D01*
X165381000Y-127016000D02*
X166524000Y-127016000D01*
X166524000Y-127016000D02*
X166651000Y-127016000D01*
X166651000Y-124984000D02*
X165381000Y-124984000D01*
X166651000Y-127016000D02*
X166905000Y-126762000D01*
X166905000Y-125238000D02*
X166651000Y-124984000D01*
X166905000Y-125365000D02*
X166905000Y-125238000D01*
X166905000Y-126762000D02*
X166905000Y-125365000D01*
%TO.C,L3*%
X147484000Y-103349000D02*
X147484000Y-104619000D01*
X147484000Y-105381000D02*
X147484000Y-106524000D01*
X147484000Y-106524000D02*
X147484000Y-106651000D01*
X147484000Y-106651000D02*
X147738000Y-106905000D01*
X147738000Y-103095000D02*
X147484000Y-103349000D01*
X147738000Y-106905000D02*
X149135000Y-106905000D01*
X147865000Y-103095000D02*
X147738000Y-103095000D01*
X149135000Y-106905000D02*
X149262000Y-106905000D01*
X149262000Y-103095000D02*
X147865000Y-103095000D01*
X149262000Y-106905000D02*
X149516000Y-106651000D01*
X149516000Y-103349000D02*
X149262000Y-103095000D01*
X149516000Y-103476000D02*
X149516000Y-103349000D01*
X149516000Y-104619000D02*
X149516000Y-103476000D01*
X149516000Y-106651000D02*
X149516000Y-105381000D01*
D12*
%TO.C,J3*%
G36*
X171571898Y-81614468D02*
G01*
X171579324Y-81615570D01*
X171586607Y-81617394D01*
X171593675Y-81619923D01*
X171600462Y-81623133D01*
X171606901Y-81626993D01*
X171612931Y-81631465D01*
X171618494Y-81636506D01*
X171623535Y-81642069D01*
X171628007Y-81648099D01*
X171631867Y-81654538D01*
X171635077Y-81661325D01*
X171637606Y-81668393D01*
X171639430Y-81675676D01*
X171640532Y-81683102D01*
X171640900Y-81690600D01*
X171640900Y-106314400D01*
X171640532Y-106321898D01*
X171639430Y-106329324D01*
X171637606Y-106336607D01*
X171635077Y-106343675D01*
X171631867Y-106350462D01*
X171628007Y-106356901D01*
X171623535Y-106362931D01*
X171618494Y-106368494D01*
X171612931Y-106373535D01*
X171606901Y-106378007D01*
X171600462Y-106381867D01*
X171593675Y-106385077D01*
X171586607Y-106387606D01*
X171579324Y-106389430D01*
X171571898Y-106390532D01*
X171564400Y-106390900D01*
X169435600Y-106390900D01*
X169428102Y-106390532D01*
X169420676Y-106389430D01*
X169413393Y-106387606D01*
X169406325Y-106385077D01*
X169399538Y-106381867D01*
X169393099Y-106378007D01*
X169387069Y-106373535D01*
X169381506Y-106368494D01*
X169376465Y-106362931D01*
X169371993Y-106356901D01*
X169368133Y-106350462D01*
X169364923Y-106343675D01*
X169362394Y-106336607D01*
X169360570Y-106329324D01*
X169359468Y-106321898D01*
X169359100Y-106314400D01*
X169359100Y-106237900D01*
X169512100Y-106237900D01*
X171487900Y-106237900D01*
X171487900Y-81767100D01*
X169512100Y-81767100D01*
X169512100Y-106237900D01*
X169359100Y-106237900D01*
X169359100Y-81690600D01*
X169359468Y-81683102D01*
X169360570Y-81675676D01*
X169362394Y-81668393D01*
X169364923Y-81661325D01*
X169368133Y-81654538D01*
X169371993Y-81648099D01*
X169376465Y-81642069D01*
X169381506Y-81636506D01*
X169387069Y-81631465D01*
X169393099Y-81626993D01*
X169399538Y-81623133D01*
X169406325Y-81619923D01*
X169413393Y-81617394D01*
X169420676Y-81615570D01*
X169428102Y-81614468D01*
X169435600Y-81614100D01*
X171564400Y-81614100D01*
X171571898Y-81614468D01*
G37*
D11*
%TO.C,L4*%
X117595000Y-101238000D02*
X117595000Y-102635000D01*
X117595000Y-102635000D02*
X117595000Y-102762000D01*
X117595000Y-102762000D02*
X117849000Y-103016000D01*
X117849000Y-100984000D02*
X117595000Y-101238000D01*
X117849000Y-103016000D02*
X119119000Y-103016000D01*
X117976000Y-100984000D02*
X117849000Y-100984000D01*
X119119000Y-100984000D02*
X117976000Y-100984000D01*
X119881000Y-103016000D02*
X121024000Y-103016000D01*
X121024000Y-103016000D02*
X121151000Y-103016000D01*
X121151000Y-100984000D02*
X119881000Y-100984000D01*
X121151000Y-103016000D02*
X121405000Y-102762000D01*
X121405000Y-101238000D02*
X121151000Y-100984000D01*
X121405000Y-101365000D02*
X121405000Y-101238000D01*
X121405000Y-102762000D02*
X121405000Y-101365000D01*
D12*
%TO.C,L2*%
G36*
X144885116Y-99823459D02*
G01*
X144918883Y-99833702D01*
X144950003Y-99850335D01*
X144977279Y-99872721D01*
X144999665Y-99899997D01*
X145016298Y-99931117D01*
X145026541Y-99964884D01*
X145030000Y-100000000D01*
X145026541Y-100035116D01*
X145016298Y-100068883D01*
X144999665Y-100100003D01*
X144977279Y-100127279D01*
X144950003Y-100149665D01*
X144918883Y-100166298D01*
X144885116Y-100176541D01*
X144850000Y-100180000D01*
X144814884Y-100176541D01*
X144781117Y-100166298D01*
X144749997Y-100149665D01*
X144722721Y-100127279D01*
X144700335Y-100100003D01*
X144683702Y-100068883D01*
X144673459Y-100035116D01*
X144670000Y-100000000D01*
X144673459Y-99964884D01*
X144683702Y-99931117D01*
X144700335Y-99899997D01*
X144722721Y-99872721D01*
X144749997Y-99850335D01*
X144781117Y-99833702D01*
X144814884Y-99823459D01*
X144850000Y-99820000D01*
X144885116Y-99823459D01*
G37*
G36*
X142511705Y-97941153D02*
G01*
X142522961Y-97944567D01*
X142533334Y-97950112D01*
X142542426Y-97957574D01*
X142549888Y-97966666D01*
X142555433Y-97977039D01*
X142558847Y-97988295D01*
X142560000Y-98000000D01*
X142560000Y-100000000D01*
X142558847Y-100011705D01*
X142555433Y-100022961D01*
X142549888Y-100033334D01*
X142542426Y-100042426D01*
X142533334Y-100049888D01*
X142522961Y-100055433D01*
X142511705Y-100058847D01*
X142500000Y-100060000D01*
X142488295Y-100058847D01*
X142477039Y-100055433D01*
X142466666Y-100049888D01*
X142457574Y-100042426D01*
X142450112Y-100033334D01*
X142444567Y-100022961D01*
X142441153Y-100011705D01*
X142440000Y-100000000D01*
X142440000Y-98000000D01*
X142441153Y-97988295D01*
X142444567Y-97977039D01*
X142450112Y-97966666D01*
X142457574Y-97957574D01*
X142466666Y-97950112D01*
X142477039Y-97944567D01*
X142488295Y-97941153D01*
X142500000Y-97940000D01*
X142511705Y-97941153D01*
G37*
G36*
X144511705Y-97941153D02*
G01*
X144522961Y-97944567D01*
X144533334Y-97950112D01*
X144542426Y-97957574D01*
X144549888Y-97966666D01*
X144555433Y-97977039D01*
X144558847Y-97988295D01*
X144560000Y-98000000D01*
X144560000Y-100000000D01*
X144558847Y-100011705D01*
X144555433Y-100022961D01*
X144549888Y-100033334D01*
X144542426Y-100042426D01*
X144533334Y-100049888D01*
X144522961Y-100055433D01*
X144511705Y-100058847D01*
X144500000Y-100060000D01*
X144488295Y-100058847D01*
X144477039Y-100055433D01*
X144466666Y-100049888D01*
X144457574Y-100042426D01*
X144450112Y-100033334D01*
X144444567Y-100022961D01*
X144441153Y-100011705D01*
X144440000Y-100000000D01*
X144440000Y-98000000D01*
X144441153Y-97988295D01*
X144444567Y-97977039D01*
X144450112Y-97966666D01*
X144457574Y-97957574D01*
X144466666Y-97950112D01*
X144477039Y-97944567D01*
X144488295Y-97941153D01*
X144500000Y-97940000D01*
X144511705Y-97941153D01*
G37*
D11*
%TO.C,S2*%
X144699000Y-128999500D02*
X145499000Y-128199500D01*
X144699000Y-130998500D02*
X144699000Y-128999500D01*
X145499000Y-128199500D02*
X147399000Y-128199500D01*
X145601000Y-131899500D02*
X144699000Y-130998500D01*
X147300000Y-131899500D02*
X145601000Y-131899500D01*
X147399000Y-128199500D02*
X148301000Y-129100500D01*
X148301000Y-129100500D02*
X148301000Y-130899500D01*
X148301000Y-130899500D02*
X147300000Y-131899500D01*
X147775000Y-130000500D02*
G75*
G02*
X145225000Y-130000500I-1275000J0D01*
G01*
X145225000Y-130000500D02*
G75*
G02*
X147775000Y-130000500I1275000J0D01*
G01*
D12*
G36*
X143974776Y-128706940D02*
G01*
X143998601Y-128714167D01*
X144020557Y-128725903D01*
X144039803Y-128741697D01*
X144055597Y-128760943D01*
X144067333Y-128782899D01*
X144074560Y-128806724D01*
X144077000Y-128831500D01*
X144077000Y-131168500D01*
X144074560Y-131193276D01*
X144067333Y-131217101D01*
X144055597Y-131239057D01*
X144039803Y-131258303D01*
X144020557Y-131274097D01*
X143998601Y-131285833D01*
X143974776Y-131293060D01*
X143950000Y-131295500D01*
X143925224Y-131293060D01*
X143901399Y-131285833D01*
X143879443Y-131274097D01*
X143860197Y-131258303D01*
X143844403Y-131239057D01*
X143832667Y-131217101D01*
X143825440Y-131193276D01*
X143823000Y-131168500D01*
X143823000Y-128831500D01*
X143825440Y-128806724D01*
X143832667Y-128782899D01*
X143844403Y-128760943D01*
X143860197Y-128741697D01*
X143879443Y-128725903D01*
X143901399Y-128714167D01*
X143925224Y-128706940D01*
X143950000Y-128704500D01*
X143974776Y-128706940D01*
G37*
G36*
X145249776Y-127324940D02*
G01*
X145273601Y-127332167D01*
X145295557Y-127343903D01*
X145314803Y-127359697D01*
X145330597Y-127378943D01*
X145342333Y-127400899D01*
X145349560Y-127424724D01*
X145352000Y-127449500D01*
X145349560Y-127474276D01*
X145342333Y-127498101D01*
X145330597Y-127520057D01*
X145314803Y-127539303D01*
X144419803Y-128434303D01*
X144400557Y-128450097D01*
X144378601Y-128461833D01*
X144354776Y-128469060D01*
X144330000Y-128471500D01*
X144305224Y-128469060D01*
X144281399Y-128461833D01*
X144259443Y-128450097D01*
X144240197Y-128434303D01*
X144224403Y-128415057D01*
X144212667Y-128393101D01*
X144205440Y-128369276D01*
X144203000Y-128344500D01*
X144205440Y-128319724D01*
X144212667Y-128295899D01*
X144224403Y-128273943D01*
X144240197Y-128254697D01*
X145135197Y-127359697D01*
X145154443Y-127343903D01*
X145176399Y-127332167D01*
X145200224Y-127324940D01*
X145225000Y-127322500D01*
X145249776Y-127324940D01*
G37*
G36*
X144354776Y-131530940D02*
G01*
X144378601Y-131538167D01*
X144400557Y-131549903D01*
X144419803Y-131565697D01*
X145314803Y-132460697D01*
X145330597Y-132479943D01*
X145342333Y-132501899D01*
X145349560Y-132525724D01*
X145352000Y-132550500D01*
X145349560Y-132575276D01*
X145342333Y-132599101D01*
X145330597Y-132621057D01*
X145314803Y-132640303D01*
X145295557Y-132656097D01*
X145273601Y-132667833D01*
X145249776Y-132675060D01*
X145225000Y-132677500D01*
X145200224Y-132675060D01*
X145176399Y-132667833D01*
X145154443Y-132656097D01*
X145135197Y-132640303D01*
X144240197Y-131745303D01*
X144224403Y-131726057D01*
X144212667Y-131704101D01*
X144205440Y-131680276D01*
X144203000Y-131655500D01*
X144205440Y-131630724D01*
X144212667Y-131606899D01*
X144224403Y-131584943D01*
X144240197Y-131565697D01*
X144259443Y-131549903D01*
X144281399Y-131538167D01*
X144305224Y-131530940D01*
X144330000Y-131528500D01*
X144354776Y-131530940D01*
G37*
G36*
X148694776Y-131530940D02*
G01*
X148718601Y-131538167D01*
X148740557Y-131549903D01*
X148759803Y-131565697D01*
X148775597Y-131584943D01*
X148787333Y-131606899D01*
X148794560Y-131630724D01*
X148797000Y-131655500D01*
X148794560Y-131680276D01*
X148787333Y-131704101D01*
X148775597Y-131726057D01*
X148759803Y-131745303D01*
X147864803Y-132640303D01*
X147845557Y-132656097D01*
X147823601Y-132667833D01*
X147799776Y-132675060D01*
X147775000Y-132677500D01*
X147750224Y-132675060D01*
X147726399Y-132667833D01*
X147704443Y-132656097D01*
X147685197Y-132640303D01*
X147669403Y-132621057D01*
X147657667Y-132599101D01*
X147650440Y-132575276D01*
X147648000Y-132550500D01*
X147650440Y-132525724D01*
X147657667Y-132501899D01*
X147669403Y-132479943D01*
X147685197Y-132460697D01*
X148580197Y-131565697D01*
X148599443Y-131549903D01*
X148621399Y-131538167D01*
X148645224Y-131530940D01*
X148670000Y-131528500D01*
X148694776Y-131530940D01*
G37*
G36*
X147799776Y-127324940D02*
G01*
X147823601Y-127332167D01*
X147845557Y-127343903D01*
X147864803Y-127359697D01*
X147880597Y-127378943D01*
X147892333Y-127400899D01*
X147899560Y-127424724D01*
X147902000Y-127449500D01*
X147899560Y-127474276D01*
X147892333Y-127498101D01*
X147880597Y-127520057D01*
X147864803Y-127539303D01*
X147845557Y-127555097D01*
X147823601Y-127566833D01*
X147799776Y-127574060D01*
X147775000Y-127576500D01*
X145225000Y-127576500D01*
X145200224Y-127574060D01*
X145176399Y-127566833D01*
X145154443Y-127555097D01*
X145135197Y-127539303D01*
X145119403Y-127520057D01*
X145107667Y-127498101D01*
X145100440Y-127474276D01*
X145098000Y-127449500D01*
X145100440Y-127424724D01*
X145107667Y-127400899D01*
X145119403Y-127378943D01*
X145135197Y-127359697D01*
X145154443Y-127343903D01*
X145176399Y-127332167D01*
X145200224Y-127324940D01*
X145225000Y-127322500D01*
X147775000Y-127322500D01*
X147799776Y-127324940D01*
G37*
G36*
X147799776Y-132425940D02*
G01*
X147823601Y-132433167D01*
X147845557Y-132444903D01*
X147864803Y-132460697D01*
X147880597Y-132479943D01*
X147892333Y-132501899D01*
X147899560Y-132525724D01*
X147902000Y-132550500D01*
X147899560Y-132575276D01*
X147892333Y-132599101D01*
X147880597Y-132621057D01*
X147864803Y-132640303D01*
X147845557Y-132656097D01*
X147823601Y-132667833D01*
X147799776Y-132675060D01*
X147775000Y-132677500D01*
X145225000Y-132677500D01*
X145200224Y-132675060D01*
X145176399Y-132667833D01*
X145154443Y-132656097D01*
X145135197Y-132640303D01*
X145119403Y-132621057D01*
X145107667Y-132599101D01*
X145100440Y-132575276D01*
X145098000Y-132550500D01*
X145100440Y-132525724D01*
X145107667Y-132501899D01*
X145119403Y-132479943D01*
X145135197Y-132460697D01*
X145154443Y-132444903D01*
X145176399Y-132433167D01*
X145200224Y-132425940D01*
X145225000Y-132423500D01*
X147775000Y-132423500D01*
X147799776Y-132425940D01*
G37*
G36*
X147799776Y-127324940D02*
G01*
X147823601Y-127332167D01*
X147845557Y-127343903D01*
X147864803Y-127359697D01*
X148759803Y-128254697D01*
X148775597Y-128273943D01*
X148787333Y-128295899D01*
X148794560Y-128319724D01*
X148797000Y-128344500D01*
X148794560Y-128369276D01*
X148787333Y-128393101D01*
X148775597Y-128415057D01*
X148759803Y-128434303D01*
X148740557Y-128450097D01*
X148718601Y-128461833D01*
X148694776Y-128469060D01*
X148670000Y-128471500D01*
X148645224Y-128469060D01*
X148621399Y-128461833D01*
X148599443Y-128450097D01*
X148580197Y-128434303D01*
X147685197Y-127539303D01*
X147669403Y-127520057D01*
X147657667Y-127498101D01*
X147650440Y-127474276D01*
X147648000Y-127449500D01*
X147650440Y-127424724D01*
X147657667Y-127400899D01*
X147669403Y-127378943D01*
X147685197Y-127359697D01*
X147704443Y-127343903D01*
X147726399Y-127332167D01*
X147750224Y-127324940D01*
X147775000Y-127322500D01*
X147799776Y-127324940D01*
G37*
G36*
X149074776Y-128706940D02*
G01*
X149098601Y-128714167D01*
X149120557Y-128725903D01*
X149139803Y-128741697D01*
X149155597Y-128760943D01*
X149167333Y-128782899D01*
X149174560Y-128806724D01*
X149177000Y-128831500D01*
X149177000Y-131168500D01*
X149174560Y-131193276D01*
X149167333Y-131217101D01*
X149155597Y-131239057D01*
X149139803Y-131258303D01*
X149120557Y-131274097D01*
X149098601Y-131285833D01*
X149074776Y-131293060D01*
X149050000Y-131295500D01*
X149025224Y-131293060D01*
X149001399Y-131285833D01*
X148979443Y-131274097D01*
X148960197Y-131258303D01*
X148944403Y-131239057D01*
X148932667Y-131217101D01*
X148925440Y-131193276D01*
X148923000Y-131168500D01*
X148923000Y-128831500D01*
X148925440Y-128806724D01*
X148932667Y-128782899D01*
X148944403Y-128760943D01*
X148960197Y-128741697D01*
X148979443Y-128725903D01*
X149001399Y-128714167D01*
X149025224Y-128706940D01*
X149050000Y-128704500D01*
X149074776Y-128706940D01*
G37*
%TO.C,U3*%
G36*
X133620849Y-104049940D02*
G01*
X133649551Y-104058646D01*
X133676002Y-104072785D01*
X133699187Y-104091813D01*
X133718215Y-104114998D01*
X133732354Y-104141449D01*
X133741060Y-104170151D01*
X133744000Y-104200000D01*
X133741060Y-104229849D01*
X133732354Y-104258551D01*
X133718215Y-104285002D01*
X133699187Y-104308187D01*
X133676002Y-104327215D01*
X133649551Y-104341354D01*
X133620849Y-104350060D01*
X133591000Y-104353000D01*
X133561151Y-104350060D01*
X133532449Y-104341354D01*
X133505998Y-104327215D01*
X133482813Y-104308187D01*
X133463785Y-104285002D01*
X133449646Y-104258551D01*
X133440940Y-104229849D01*
X133438000Y-104200000D01*
X133440940Y-104170151D01*
X133449646Y-104141449D01*
X133463785Y-104114998D01*
X133482813Y-104091813D01*
X133505998Y-104072785D01*
X133532449Y-104058646D01*
X133561151Y-104049940D01*
X133591000Y-104047000D01*
X133620849Y-104049940D01*
G37*
G36*
X145033998Y-102397368D02*
G01*
X145041424Y-102398470D01*
X145048707Y-102400294D01*
X145055775Y-102402823D01*
X145062562Y-102406033D01*
X145069001Y-102409893D01*
X145075031Y-102414365D01*
X145080594Y-102419406D01*
X145085635Y-102424969D01*
X145090107Y-102430999D01*
X145093967Y-102437438D01*
X145097177Y-102444225D01*
X145099706Y-102451293D01*
X145101530Y-102458576D01*
X145102632Y-102466002D01*
X145103000Y-102473500D01*
X145103000Y-113526500D01*
X145102632Y-113533998D01*
X145101530Y-113541424D01*
X145099706Y-113548707D01*
X145097177Y-113555775D01*
X145093967Y-113562562D01*
X145090107Y-113569001D01*
X145085635Y-113575031D01*
X145080594Y-113580594D01*
X145075031Y-113585635D01*
X145069001Y-113590107D01*
X145062562Y-113593967D01*
X145055775Y-113597177D01*
X145048707Y-113599706D01*
X145041424Y-113601530D01*
X145033998Y-113602632D01*
X145026500Y-113603000D01*
X133973500Y-113603000D01*
X133966002Y-113602632D01*
X133958576Y-113601530D01*
X133951293Y-113599706D01*
X133944225Y-113597177D01*
X133937438Y-113593967D01*
X133930999Y-113590107D01*
X133924969Y-113585635D01*
X133919406Y-113580594D01*
X133914365Y-113575031D01*
X133909893Y-113569001D01*
X133906033Y-113562562D01*
X133902823Y-113555775D01*
X133900294Y-113548707D01*
X133898470Y-113541424D01*
X133897368Y-113533998D01*
X133897000Y-113526500D01*
X133897000Y-102550000D01*
X134050000Y-102550000D01*
X134050000Y-104015000D01*
X134050000Y-104385000D01*
X134050000Y-104415000D01*
X134050000Y-104785000D01*
X134050000Y-104815000D01*
X134050000Y-105185000D01*
X134050000Y-105215000D01*
X134050000Y-105585000D01*
X134050000Y-105615000D01*
X134050000Y-105985000D01*
X134050000Y-106015000D01*
X134050000Y-106385000D01*
X134050000Y-106415000D01*
X134050000Y-106785000D01*
X134050000Y-106815000D01*
X134050000Y-107185000D01*
X134050000Y-107215000D01*
X134050000Y-107585000D01*
X134050000Y-107615000D01*
X134050000Y-107985000D01*
X134050000Y-108015000D01*
X134050000Y-108385000D01*
X134050000Y-108415000D01*
X134050000Y-108785000D01*
X134050000Y-108815000D01*
X134050000Y-109185000D01*
X134050000Y-109215000D01*
X134050000Y-109585000D01*
X134050000Y-109615000D01*
X134050000Y-109985000D01*
X134050000Y-110015000D01*
X134050000Y-110385000D01*
X134050000Y-110415000D01*
X134050000Y-110785000D01*
X134050000Y-110815000D01*
X134050000Y-111185000D01*
X134050000Y-111215000D01*
X134050000Y-111585000D01*
X134050000Y-111615000D01*
X134050000Y-111985000D01*
X134050000Y-113450000D01*
X135515000Y-113450000D01*
X135885000Y-113450000D01*
X135915000Y-113450000D01*
X136285000Y-113450000D01*
X136315000Y-113450000D01*
X136685000Y-113450000D01*
X136715000Y-113450000D01*
X137085000Y-113450000D01*
X137115000Y-113450000D01*
X137485000Y-113450000D01*
X137515000Y-113450000D01*
X137885000Y-113450000D01*
X137915000Y-113450000D01*
X138285000Y-113450000D01*
X138315000Y-113450000D01*
X138685000Y-113450000D01*
X138715000Y-113450000D01*
X139085000Y-113450000D01*
X139115000Y-113450000D01*
X139485000Y-113450000D01*
X139515000Y-113450000D01*
X139885000Y-113450000D01*
X139915000Y-113450000D01*
X140285000Y-113450000D01*
X140315000Y-113450000D01*
X140685000Y-113450000D01*
X140715000Y-113450000D01*
X141085000Y-113450000D01*
X141115000Y-113450000D01*
X141485000Y-113450000D01*
X141515000Y-113450000D01*
X141885000Y-113450000D01*
X141915000Y-113450000D01*
X142285000Y-113450000D01*
X142315000Y-113450000D01*
X142685000Y-113450000D01*
X142715000Y-113450000D01*
X143085000Y-113450000D01*
X143115000Y-113450000D01*
X143485000Y-113450000D01*
X144950000Y-113450000D01*
X144950000Y-111985000D01*
X144950000Y-111615000D01*
X144950000Y-111585000D01*
X144950000Y-111215000D01*
X144950000Y-111185000D01*
X144950000Y-110815000D01*
X144950000Y-110785000D01*
X144950000Y-110415000D01*
X144950000Y-110385000D01*
X144950000Y-110015000D01*
X144950000Y-109985000D01*
X144950000Y-109615000D01*
X144950000Y-109585000D01*
X144950000Y-109215000D01*
X144950000Y-109185000D01*
X144950000Y-108815000D01*
X144950000Y-108785000D01*
X144950000Y-108415000D01*
X144950000Y-108385000D01*
X144950000Y-108015000D01*
X144950000Y-107985000D01*
X144950000Y-107615000D01*
X144950000Y-107585000D01*
X144950000Y-107215000D01*
X144950000Y-107185000D01*
X144950000Y-106815000D01*
X144950000Y-106785000D01*
X144950000Y-106415000D01*
X144950000Y-106385000D01*
X144950000Y-106015000D01*
X144950000Y-105985000D01*
X144950000Y-105615000D01*
X144950000Y-105585000D01*
X144950000Y-105215000D01*
X144950000Y-105185000D01*
X144950000Y-104815000D01*
X144950000Y-104785000D01*
X144950000Y-104415000D01*
X144950000Y-104385000D01*
X144950000Y-104015000D01*
X144950000Y-102550000D01*
X143485000Y-102550000D01*
X143115000Y-102550000D01*
X143085000Y-102550000D01*
X142715000Y-102550000D01*
X142685000Y-102550000D01*
X142315000Y-102550000D01*
X142285000Y-102550000D01*
X141915000Y-102550000D01*
X141885000Y-102550000D01*
X141515000Y-102550000D01*
X141485000Y-102550000D01*
X141115000Y-102550000D01*
X141085000Y-102550000D01*
X140715000Y-102550000D01*
X140685000Y-102550000D01*
X140315000Y-102550000D01*
X140285000Y-102550000D01*
X139915000Y-102550000D01*
X139885000Y-102550000D01*
X139515000Y-102550000D01*
X139485000Y-102550000D01*
X139115000Y-102550000D01*
X139085000Y-102550000D01*
X138715000Y-102550000D01*
X138685000Y-102550000D01*
X138315000Y-102550000D01*
X138285000Y-102550000D01*
X137915000Y-102550000D01*
X137885000Y-102550000D01*
X137515000Y-102550000D01*
X137485000Y-102550000D01*
X137115000Y-102550000D01*
X137085000Y-102550000D01*
X136715000Y-102550000D01*
X136685000Y-102550000D01*
X136315000Y-102550000D01*
X136285000Y-102550000D01*
X135915000Y-102550000D01*
X135885000Y-102550000D01*
X135515000Y-102550000D01*
X134050000Y-102550000D01*
X133897000Y-102550000D01*
X133897000Y-102473500D01*
X133897368Y-102466002D01*
X133898470Y-102458576D01*
X133900294Y-102451293D01*
X133902823Y-102444225D01*
X133906033Y-102437438D01*
X133909893Y-102430999D01*
X133914365Y-102424969D01*
X133919406Y-102419406D01*
X133924969Y-102414365D01*
X133930999Y-102409893D01*
X133937438Y-102406033D01*
X133944225Y-102402823D01*
X133951293Y-102400294D01*
X133958576Y-102398470D01*
X133966002Y-102397368D01*
X133973500Y-102397000D01*
X145026500Y-102397000D01*
X145033998Y-102397368D01*
G37*
D11*
%TO.C,L5*%
X163095000Y-89238000D02*
X163095000Y-90635000D01*
X163095000Y-90635000D02*
X163095000Y-90762000D01*
X163095000Y-90762000D02*
X163349000Y-91016000D01*
X163349000Y-88984000D02*
X163095000Y-89238000D01*
X163349000Y-91016000D02*
X164619000Y-91016000D01*
X163476000Y-88984000D02*
X163349000Y-88984000D01*
X164619000Y-88984000D02*
X163476000Y-88984000D01*
X165381000Y-91016000D02*
X166524000Y-91016000D01*
X166524000Y-91016000D02*
X166651000Y-91016000D01*
X166651000Y-88984000D02*
X165381000Y-88984000D01*
X166651000Y-91016000D02*
X166905000Y-90762000D01*
X166905000Y-89238000D02*
X166651000Y-88984000D01*
X166905000Y-89365000D02*
X166905000Y-89238000D01*
X166905000Y-90762000D02*
X166905000Y-89365000D01*
D12*
%TO.C,D6*%
G36*
X162670849Y-119399940D02*
G01*
X162699551Y-119408646D01*
X162726002Y-119422785D01*
X162749187Y-119441813D01*
X162768215Y-119464998D01*
X162782354Y-119491449D01*
X162791060Y-119520151D01*
X162794000Y-119550000D01*
X162791060Y-119579849D01*
X162782354Y-119608551D01*
X162768215Y-119635002D01*
X162749187Y-119658187D01*
X162726002Y-119677215D01*
X162699551Y-119691354D01*
X162670849Y-119700060D01*
X162641000Y-119703000D01*
X162611151Y-119700060D01*
X162582449Y-119691354D01*
X162555998Y-119677215D01*
X162532813Y-119658187D01*
X162513785Y-119635002D01*
X162499646Y-119608551D01*
X162490940Y-119579849D01*
X162488000Y-119550000D01*
X162490940Y-119520151D01*
X162499646Y-119491449D01*
X162513785Y-119464998D01*
X162532813Y-119441813D01*
X162555998Y-119422785D01*
X162582449Y-119408646D01*
X162611151Y-119399940D01*
X162641000Y-119397000D01*
X162670849Y-119399940D01*
G37*
G36*
X166983998Y-118937368D02*
G01*
X166991424Y-118938470D01*
X166998707Y-118940294D01*
X167005775Y-118942823D01*
X167012562Y-118946033D01*
X167019001Y-118949893D01*
X167025031Y-118954365D01*
X167030594Y-118959406D01*
X167035635Y-118964969D01*
X167040107Y-118970999D01*
X167043967Y-118977438D01*
X167047177Y-118984225D01*
X167049706Y-118991293D01*
X167051530Y-118998576D01*
X167052632Y-119006002D01*
X167053000Y-119013500D01*
X167053000Y-121986500D01*
X167052632Y-121993998D01*
X167051530Y-122001424D01*
X167049706Y-122008707D01*
X167047177Y-122015775D01*
X167043967Y-122022562D01*
X167040107Y-122029001D01*
X167035635Y-122035031D01*
X167030594Y-122040594D01*
X167025031Y-122045635D01*
X167019001Y-122050107D01*
X167012562Y-122053967D01*
X167005775Y-122057177D01*
X166998707Y-122059706D01*
X166991424Y-122061530D01*
X166983998Y-122062632D01*
X166976500Y-122063000D01*
X163023500Y-122063000D01*
X163016002Y-122062632D01*
X163008576Y-122061530D01*
X163001293Y-122059706D01*
X162994225Y-122057177D01*
X162987438Y-122053967D01*
X162980999Y-122050107D01*
X162974969Y-122045635D01*
X162969406Y-122040594D01*
X162964365Y-122035031D01*
X162959893Y-122029001D01*
X162956033Y-122022562D01*
X162952823Y-122015775D01*
X162950294Y-122008707D01*
X162948470Y-122001424D01*
X162947368Y-121993998D01*
X162947000Y-121986500D01*
X162947000Y-119090000D01*
X163100000Y-119090000D01*
X163100000Y-119240000D01*
X163100000Y-119860000D01*
X163100000Y-120190000D01*
X163100000Y-120810000D01*
X163100000Y-121140000D01*
X163100000Y-121760000D01*
X163100000Y-121910000D01*
X163250000Y-121910000D01*
X164385850Y-121910000D01*
X166750000Y-121910000D01*
X166900000Y-121910000D01*
X166900000Y-121760000D01*
X166900000Y-121140000D01*
X166900000Y-120810000D01*
X166900000Y-120190000D01*
X166900000Y-119860000D01*
X166900000Y-119240000D01*
X166900000Y-119090000D01*
X165614150Y-119090000D01*
X164385850Y-119090000D01*
X163250000Y-119090000D01*
X163100000Y-119090000D01*
X162947000Y-119090000D01*
X162947000Y-119013500D01*
X162947368Y-119006002D01*
X162948470Y-118998576D01*
X162950294Y-118991293D01*
X162952823Y-118984225D01*
X162956033Y-118977438D01*
X162959893Y-118970999D01*
X162964365Y-118964969D01*
X162969406Y-118959406D01*
X162974969Y-118954365D01*
X162980999Y-118949893D01*
X162987438Y-118946033D01*
X162994225Y-118942823D01*
X163001293Y-118940294D01*
X163008576Y-118938470D01*
X163016002Y-118937368D01*
X163023500Y-118937000D01*
X166976500Y-118937000D01*
X166983998Y-118937368D01*
G37*
%TO.C,D4*%
G36*
X162670849Y-94399940D02*
G01*
X162699551Y-94408646D01*
X162726002Y-94422785D01*
X162749187Y-94441813D01*
X162768215Y-94464998D01*
X162782354Y-94491449D01*
X162791060Y-94520151D01*
X162794000Y-94550000D01*
X162791060Y-94579849D01*
X162782354Y-94608551D01*
X162768215Y-94635002D01*
X162749187Y-94658187D01*
X162726002Y-94677215D01*
X162699551Y-94691354D01*
X162670849Y-94700060D01*
X162641000Y-94703000D01*
X162611151Y-94700060D01*
X162582449Y-94691354D01*
X162555998Y-94677215D01*
X162532813Y-94658187D01*
X162513785Y-94635002D01*
X162499646Y-94608551D01*
X162490940Y-94579849D01*
X162488000Y-94550000D01*
X162490940Y-94520151D01*
X162499646Y-94491449D01*
X162513785Y-94464998D01*
X162532813Y-94441813D01*
X162555998Y-94422785D01*
X162582449Y-94408646D01*
X162611151Y-94399940D01*
X162641000Y-94397000D01*
X162670849Y-94399940D01*
G37*
G36*
X166983998Y-93937368D02*
G01*
X166991424Y-93938470D01*
X166998707Y-93940294D01*
X167005775Y-93942823D01*
X167012562Y-93946033D01*
X167019001Y-93949893D01*
X167025031Y-93954365D01*
X167030594Y-93959406D01*
X167035635Y-93964969D01*
X167040107Y-93970999D01*
X167043967Y-93977438D01*
X167047177Y-93984225D01*
X167049706Y-93991293D01*
X167051530Y-93998576D01*
X167052632Y-94006002D01*
X167053000Y-94013500D01*
X167053000Y-96986500D01*
X167052632Y-96993998D01*
X167051530Y-97001424D01*
X167049706Y-97008707D01*
X167047177Y-97015775D01*
X167043967Y-97022562D01*
X167040107Y-97029001D01*
X167035635Y-97035031D01*
X167030594Y-97040594D01*
X167025031Y-97045635D01*
X167019001Y-97050107D01*
X167012562Y-97053967D01*
X167005775Y-97057177D01*
X166998707Y-97059706D01*
X166991424Y-97061530D01*
X166983998Y-97062632D01*
X166976500Y-97063000D01*
X163023500Y-97063000D01*
X163016002Y-97062632D01*
X163008576Y-97061530D01*
X163001293Y-97059706D01*
X162994225Y-97057177D01*
X162987438Y-97053967D01*
X162980999Y-97050107D01*
X162974969Y-97045635D01*
X162969406Y-97040594D01*
X162964365Y-97035031D01*
X162959893Y-97029001D01*
X162956033Y-97022562D01*
X162952823Y-97015775D01*
X162950294Y-97008707D01*
X162948470Y-97001424D01*
X162947368Y-96993998D01*
X162947000Y-96986500D01*
X162947000Y-94090000D01*
X163100000Y-94090000D01*
X163100000Y-94240000D01*
X163100000Y-94860000D01*
X163100000Y-95190000D01*
X163100000Y-95810000D01*
X163100000Y-96140000D01*
X163100000Y-96760000D01*
X163100000Y-96910000D01*
X163250000Y-96910000D01*
X164385850Y-96910000D01*
X166750000Y-96910000D01*
X166900000Y-96910000D01*
X166900000Y-96760000D01*
X166900000Y-96140000D01*
X166900000Y-95810000D01*
X166900000Y-95190000D01*
X166900000Y-94860000D01*
X166900000Y-94240000D01*
X166900000Y-94090000D01*
X165614150Y-94090000D01*
X164385850Y-94090000D01*
X163250000Y-94090000D01*
X163100000Y-94090000D01*
X162947000Y-94090000D01*
X162947000Y-94013500D01*
X162947368Y-94006002D01*
X162948470Y-93998576D01*
X162950294Y-93991293D01*
X162952823Y-93984225D01*
X162956033Y-93977438D01*
X162959893Y-93970999D01*
X162964365Y-93964969D01*
X162969406Y-93959406D01*
X162974969Y-93954365D01*
X162980999Y-93949893D01*
X162987438Y-93946033D01*
X162994225Y-93942823D01*
X163001293Y-93940294D01*
X163008576Y-93938470D01*
X163016002Y-93937368D01*
X163023500Y-93937000D01*
X166976500Y-93937000D01*
X166983998Y-93937368D01*
G37*
%TD*%
M02*
