%TF.GenerationSoftware,KiCad,Pcbnew,9.0.9.1-1.fc43*%
%TF.CreationDate,2026-06-28T21:25:27-06:00*%
%TF.ProjectId,rp2350-console-v2-stitched,72703233-3530-42d6-936f-6e736f6c652d,rev?*%
%TF.SameCoordinates,Original*%
%TF.FileFunction,Profile,NP*%
%FSLAX46Y46*%
G04 Gerber Fmt 4.6, Leading zero omitted, Abs format (unit mm)*
G04 Created by KiCad (PCBNEW 9.0.9.1-1.fc43) date 2026-06-28 21:25:27*
%MOMM*%
%LPD*%
G01*
G04 APERTURE LIST*
%TA.AperFunction,Profile*%
%ADD10C,0.050000*%
%TD*%
G04 APERTURE END LIST*
D10*
X103500000Y-77000000D02*
X103509631Y-76803966D01*
X103500000Y-139000000D02*
X103500000Y-77000000D01*
X103509631Y-76803966D02*
X103538429Y-76609819D01*
X103509631Y-139196034D02*
X103500000Y-139000000D01*
X103538429Y-76609819D02*
X103586119Y-76419431D01*
X103538429Y-139390181D02*
X103509631Y-139196034D01*
X103586119Y-76419431D02*
X103652241Y-76234633D01*
X103586119Y-139580569D02*
X103538429Y-139390181D01*
X103652241Y-76234633D02*
X103736157Y-76057207D01*
X103652241Y-139765367D02*
X103586119Y-139580569D01*
X103736157Y-76057207D02*
X103837061Y-75888860D01*
X103736157Y-139942793D02*
X103652241Y-139765367D01*
X103837061Y-75888860D02*
X103953979Y-75731213D01*
X103837061Y-140111140D02*
X103736157Y-139942793D01*
X103953979Y-75731213D02*
X104085786Y-75585786D01*
X103953979Y-140268787D02*
X103837061Y-140111140D01*
X104085786Y-75585786D02*
X104231213Y-75453979D01*
X104085786Y-140414214D02*
X103953979Y-140268787D01*
X104231213Y-75453979D02*
X104388860Y-75337061D01*
X104231213Y-140546021D02*
X104085786Y-140414214D01*
X104388860Y-75337061D02*
X104557207Y-75236157D01*
X104388860Y-140662939D02*
X104231213Y-140546021D01*
X104557207Y-75236157D02*
X104734633Y-75152241D01*
X104557207Y-140763843D02*
X104388860Y-140662939D01*
X104734633Y-75152241D02*
X104919431Y-75086119D01*
X104734633Y-140847759D02*
X104557207Y-140763843D01*
X104900000Y-78000000D02*
X104903426Y-77895355D01*
X104900000Y-138000000D02*
X104903426Y-137895355D01*
X104903426Y-77895355D02*
X104913688Y-77791158D01*
X104903426Y-78104645D02*
X104900000Y-78000000D01*
X104903426Y-137895355D02*
X104913688Y-137791158D01*
X104903426Y-138104645D02*
X104900000Y-138000000D01*
X104913688Y-77791158D02*
X104930744Y-77687855D01*
X104913688Y-78208842D02*
X104903426Y-78104645D01*
X104913688Y-137791158D02*
X104930744Y-137687855D01*
X104913688Y-138208842D02*
X104903426Y-138104645D01*
X104919431Y-75086119D02*
X105109819Y-75038429D01*
X104919431Y-140913881D02*
X104734633Y-140847759D01*
X104930744Y-77687855D02*
X104954519Y-77585890D01*
X104930744Y-78312145D02*
X104913688Y-78208842D01*
X104930744Y-137687855D02*
X104954519Y-137585890D01*
X104930744Y-138312145D02*
X104913688Y-138208842D01*
X104954519Y-77585890D02*
X104984912Y-77485697D01*
X104954519Y-78414110D02*
X104930744Y-78312145D01*
X104954519Y-137585890D02*
X104984912Y-137485697D01*
X104954519Y-138414110D02*
X104930744Y-138312145D01*
X104984912Y-77485697D02*
X105021793Y-77387707D01*
X104984912Y-78514303D02*
X104954519Y-78414110D01*
X104984912Y-137485697D02*
X105021793Y-137387707D01*
X104984912Y-138514303D02*
X104954519Y-138414110D01*
X105021793Y-77387707D02*
X105065004Y-77292338D01*
X105021793Y-78612293D02*
X104984912Y-78514303D01*
X105021793Y-137387707D02*
X105065004Y-137292338D01*
X105021793Y-138612293D02*
X104984912Y-138514303D01*
X105065004Y-77292338D02*
X105114359Y-77200000D01*
X105065004Y-78707662D02*
X105021793Y-78612293D01*
X105065004Y-137292338D02*
X105114359Y-137200000D01*
X105065004Y-138707662D02*
X105021793Y-138612293D01*
X105109819Y-75038429D02*
X105303966Y-75009631D01*
X105109819Y-140961571D02*
X104919431Y-140913881D01*
X105114359Y-77200000D02*
X105169649Y-77111088D01*
X105114359Y-78800000D02*
X105065004Y-78707662D01*
X105114359Y-137200000D02*
X105169649Y-137111088D01*
X105114359Y-138800000D02*
X105065004Y-138707662D01*
X105169649Y-77111088D02*
X105230635Y-77025982D01*
X105169649Y-78888912D02*
X105114359Y-78800000D01*
X105169649Y-137111088D02*
X105230635Y-137025982D01*
X105169649Y-138888912D02*
X105114359Y-138800000D01*
X105230635Y-77025982D02*
X105297056Y-76945047D01*
X105230635Y-78974018D02*
X105169649Y-78888912D01*
X105230635Y-137025982D02*
X105297056Y-136945047D01*
X105230635Y-138974018D02*
X105169649Y-138888912D01*
X105297056Y-76945047D02*
X105368629Y-76868629D01*
X105297056Y-79054953D02*
X105230635Y-78974018D01*
X105297056Y-136945047D02*
X105368629Y-136868629D01*
X105297056Y-139054953D02*
X105230635Y-138974018D01*
X105303966Y-75009631D02*
X105500000Y-75000000D01*
X105303966Y-140990369D02*
X105109819Y-140961571D01*
X105368629Y-76868629D02*
X105445047Y-76797056D01*
X105368629Y-79131371D02*
X105297056Y-79054953D01*
X105368629Y-136868629D02*
X105445047Y-136797056D01*
X105368629Y-139131371D02*
X105297056Y-139054953D01*
X105445047Y-76797056D02*
X105525982Y-76730635D01*
X105445047Y-79202944D02*
X105368629Y-79131371D01*
X105445047Y-136797056D02*
X105525982Y-136730635D01*
X105445047Y-139202944D02*
X105368629Y-139131371D01*
X105500000Y-75000000D02*
X173500000Y-75000000D01*
X105500000Y-141000000D02*
X105303966Y-140990369D01*
X105525982Y-76730635D02*
X105611088Y-76669649D01*
X105525982Y-79269365D02*
X105445047Y-79202944D01*
X105525982Y-136730635D02*
X105611088Y-136669649D01*
X105525982Y-139269365D02*
X105445047Y-139202944D01*
X105611088Y-76669649D02*
X105700000Y-76614359D01*
X105611088Y-79330351D02*
X105525982Y-79269365D01*
X105611088Y-136669649D02*
X105700000Y-136614359D01*
X105611088Y-139330351D02*
X105525982Y-139269365D01*
X105700000Y-76614359D02*
X105792338Y-76565004D01*
X105700000Y-79385641D02*
X105611088Y-79330351D01*
X105700000Y-136614359D02*
X105792338Y-136565004D01*
X105700000Y-139385641D02*
X105611088Y-139330351D01*
X105792338Y-76565004D02*
X105887707Y-76521793D01*
X105792338Y-79434996D02*
X105700000Y-79385641D01*
X105792338Y-136565004D02*
X105887707Y-136521793D01*
X105792338Y-139434996D02*
X105700000Y-139385641D01*
X105887707Y-76521793D02*
X105985697Y-76484912D01*
X105887707Y-79478207D02*
X105792338Y-79434996D01*
X105887707Y-136521793D02*
X105985697Y-136484912D01*
X105887707Y-139478207D02*
X105792338Y-139434996D01*
X105985697Y-76484912D02*
X106085890Y-76454519D01*
X105985697Y-79515088D02*
X105887707Y-79478207D01*
X105985697Y-136484912D02*
X106085890Y-136454519D01*
X105985697Y-139515088D02*
X105887707Y-139478207D01*
X106085890Y-76454519D02*
X106187855Y-76430744D01*
X106085890Y-79545481D02*
X105985697Y-79515088D01*
X106085890Y-136454519D02*
X106187855Y-136430744D01*
X106085890Y-139545481D02*
X105985697Y-139515088D01*
X106187855Y-76430744D02*
X106291158Y-76413688D01*
X106187855Y-79569256D02*
X106085890Y-79545481D01*
X106187855Y-136430744D02*
X106291158Y-136413688D01*
X106187855Y-139569256D02*
X106085890Y-139545481D01*
X106291158Y-76413688D02*
X106395355Y-76403426D01*
X106291158Y-79586312D02*
X106187855Y-79569256D01*
X106291158Y-136413688D02*
X106395355Y-136403426D01*
X106291158Y-139586312D02*
X106187855Y-139569256D01*
X106395355Y-76403426D02*
X106500000Y-76400000D01*
X106395355Y-79596574D02*
X106291158Y-79586312D01*
X106395355Y-136403426D02*
X106500000Y-136400000D01*
X106395355Y-139596574D02*
X106291158Y-139586312D01*
X106500000Y-76400000D02*
X106604645Y-76403426D01*
X106500000Y-79600000D02*
X106395355Y-79596574D01*
X106500000Y-136400000D02*
X106604645Y-136403426D01*
X106500000Y-139600000D02*
X106395355Y-139596574D01*
X106604645Y-76403426D02*
X106708842Y-76413688D01*
X106604645Y-79596574D02*
X106500000Y-79600000D01*
X106604645Y-136403426D02*
X106708842Y-136413688D01*
X106604645Y-139596574D02*
X106500000Y-139600000D01*
X106708842Y-76413688D02*
X106812145Y-76430744D01*
X106708842Y-79586312D02*
X106604645Y-79596574D01*
X106708842Y-136413688D02*
X106812145Y-136430744D01*
X106708842Y-139586312D02*
X106604645Y-139596574D01*
X106812145Y-76430744D02*
X106914110Y-76454519D01*
X106812145Y-79569256D02*
X106708842Y-79586312D01*
X106812145Y-136430744D02*
X106914110Y-136454519D01*
X106812145Y-139569256D02*
X106708842Y-139586312D01*
X106914110Y-76454519D02*
X107014303Y-76484912D01*
X106914110Y-79545481D02*
X106812145Y-79569256D01*
X106914110Y-136454519D02*
X107014303Y-136484912D01*
X106914110Y-139545481D02*
X106812145Y-139569256D01*
X107014303Y-76484912D02*
X107112293Y-76521793D01*
X107014303Y-79515088D02*
X106914110Y-79545481D01*
X107014303Y-136484912D02*
X107112293Y-136521793D01*
X107014303Y-139515088D02*
X106914110Y-139545481D01*
X107112293Y-76521793D02*
X107207662Y-76565004D01*
X107112293Y-79478207D02*
X107014303Y-79515088D01*
X107112293Y-136521793D02*
X107207662Y-136565004D01*
X107112293Y-139478207D02*
X107014303Y-139515088D01*
X107207662Y-76565004D02*
X107300000Y-76614359D01*
X107207662Y-79434996D02*
X107112293Y-79478207D01*
X107207662Y-136565004D02*
X107300000Y-136614359D01*
X107207662Y-139434996D02*
X107112293Y-139478207D01*
X107300000Y-76614359D02*
X107388912Y-76669649D01*
X107300000Y-79385641D02*
X107207662Y-79434996D01*
X107300000Y-136614359D02*
X107388912Y-136669649D01*
X107300000Y-139385641D02*
X107207662Y-139434996D01*
X107388912Y-76669649D02*
X107474018Y-76730635D01*
X107388912Y-79330351D02*
X107300000Y-79385641D01*
X107388912Y-136669649D02*
X107474018Y-136730635D01*
X107388912Y-139330351D02*
X107300000Y-139385641D01*
X107474018Y-76730635D02*
X107554953Y-76797056D01*
X107474018Y-79269365D02*
X107388912Y-79330351D01*
X107474018Y-136730635D02*
X107554953Y-136797056D01*
X107474018Y-139269365D02*
X107388912Y-139330351D01*
X107554953Y-76797056D02*
X107631371Y-76868629D01*
X107554953Y-79202944D02*
X107474018Y-79269365D01*
X107554953Y-136797056D02*
X107631371Y-136868629D01*
X107554953Y-139202944D02*
X107474018Y-139269365D01*
X107631371Y-76868629D02*
X107702944Y-76945047D01*
X107631371Y-79131371D02*
X107554953Y-79202944D01*
X107631371Y-136868629D02*
X107702944Y-136945047D01*
X107631371Y-139131371D02*
X107554953Y-139202944D01*
X107702944Y-76945047D02*
X107769365Y-77025982D01*
X107702944Y-79054953D02*
X107631371Y-79131371D01*
X107702944Y-136945047D02*
X107769365Y-137025982D01*
X107702944Y-139054953D02*
X107631371Y-139131371D01*
X107769365Y-77025982D02*
X107830351Y-77111088D01*
X107769365Y-78974018D02*
X107702944Y-79054953D01*
X107769365Y-137025982D02*
X107830351Y-137111088D01*
X107769365Y-138974018D02*
X107702944Y-139054953D01*
X107830351Y-77111088D02*
X107885641Y-77200000D01*
X107830351Y-78888912D02*
X107769365Y-78974018D01*
X107830351Y-137111088D02*
X107885641Y-137200000D01*
X107830351Y-138888912D02*
X107769365Y-138974018D01*
X107885641Y-77200000D02*
X107934996Y-77292338D01*
X107885641Y-78800000D02*
X107830351Y-78888912D01*
X107885641Y-137200000D02*
X107934996Y-137292338D01*
X107885641Y-138800000D02*
X107830351Y-138888912D01*
X107934996Y-77292338D02*
X107978207Y-77387707D01*
X107934996Y-78707662D02*
X107885641Y-78800000D01*
X107934996Y-137292338D02*
X107978207Y-137387707D01*
X107934996Y-138707662D02*
X107885641Y-138800000D01*
X107978207Y-77387707D02*
X108015088Y-77485697D01*
X107978207Y-78612293D02*
X107934996Y-78707662D01*
X107978207Y-137387707D02*
X108015088Y-137485697D01*
X107978207Y-138612293D02*
X107934996Y-138707662D01*
X108015088Y-77485697D02*
X108045481Y-77585890D01*
X108015088Y-78514303D02*
X107978207Y-78612293D01*
X108015088Y-137485697D02*
X108045481Y-137585890D01*
X108015088Y-138514303D02*
X107978207Y-138612293D01*
X108045481Y-77585890D02*
X108069256Y-77687855D01*
X108045481Y-78414110D02*
X108015088Y-78514303D01*
X108045481Y-137585890D02*
X108069256Y-137687855D01*
X108045481Y-138414110D02*
X108015088Y-138514303D01*
X108069256Y-77687855D02*
X108086312Y-77791158D01*
X108069256Y-78312145D02*
X108045481Y-78414110D01*
X108069256Y-137687855D02*
X108086312Y-137791158D01*
X108069256Y-138312145D02*
X108045481Y-138414110D01*
X108086312Y-77791158D02*
X108096574Y-77895355D01*
X108086312Y-78208842D02*
X108069256Y-78312145D01*
X108086312Y-137791158D02*
X108096574Y-137895355D01*
X108086312Y-138208842D02*
X108069256Y-138312145D01*
X108096574Y-77895355D02*
X108100000Y-78000000D01*
X108096574Y-78104645D02*
X108086312Y-78208842D01*
X108096574Y-137895355D02*
X108100000Y-138000000D01*
X108096574Y-138104645D02*
X108086312Y-138208842D01*
X108100000Y-78000000D02*
X108096574Y-78104645D01*
X108100000Y-138000000D02*
X108096574Y-138104645D01*
X170900000Y-78000000D02*
X170903426Y-77895355D01*
X170900000Y-138000000D02*
X170903426Y-137895355D01*
X170903426Y-77895355D02*
X170913688Y-77791158D01*
X170903426Y-78104645D02*
X170900000Y-78000000D01*
X170903426Y-137895355D02*
X170913688Y-137791158D01*
X170903426Y-138104645D02*
X170900000Y-138000000D01*
X170913688Y-77791158D02*
X170930744Y-77687855D01*
X170913688Y-78208842D02*
X170903426Y-78104645D01*
X170913688Y-137791158D02*
X170930744Y-137687855D01*
X170913688Y-138208842D02*
X170903426Y-138104645D01*
X170930744Y-77687855D02*
X170954519Y-77585890D01*
X170930744Y-78312145D02*
X170913688Y-78208842D01*
X170930744Y-137687855D02*
X170954519Y-137585890D01*
X170930744Y-138312145D02*
X170913688Y-138208842D01*
X170954519Y-77585890D02*
X170984912Y-77485697D01*
X170954519Y-78414110D02*
X170930744Y-78312145D01*
X170954519Y-137585890D02*
X170984912Y-137485697D01*
X170954519Y-138414110D02*
X170930744Y-138312145D01*
X170984912Y-77485697D02*
X171021793Y-77387707D01*
X170984912Y-78514303D02*
X170954519Y-78414110D01*
X170984912Y-137485697D02*
X171021793Y-137387707D01*
X170984912Y-138514303D02*
X170954519Y-138414110D01*
X171021793Y-77387707D02*
X171065004Y-77292338D01*
X171021793Y-78612293D02*
X170984912Y-78514303D01*
X171021793Y-137387707D02*
X171065004Y-137292338D01*
X171021793Y-138612293D02*
X170984912Y-138514303D01*
X171065004Y-77292338D02*
X171114359Y-77200000D01*
X171065004Y-78707662D02*
X171021793Y-78612293D01*
X171065004Y-137292338D02*
X171114359Y-137200000D01*
X171065004Y-138707662D02*
X171021793Y-138612293D01*
X171114359Y-77200000D02*
X171169649Y-77111088D01*
X171114359Y-78800000D02*
X171065004Y-78707662D01*
X171114359Y-137200000D02*
X171169649Y-137111088D01*
X171114359Y-138800000D02*
X171065004Y-138707662D01*
X171169649Y-77111088D02*
X171230635Y-77025982D01*
X171169649Y-78888912D02*
X171114359Y-78800000D01*
X171169649Y-137111088D02*
X171230635Y-137025982D01*
X171169649Y-138888912D02*
X171114359Y-138800000D01*
X171230635Y-77025982D02*
X171297056Y-76945047D01*
X171230635Y-78974018D02*
X171169649Y-78888912D01*
X171230635Y-137025982D02*
X171297056Y-136945047D01*
X171230635Y-138974018D02*
X171169649Y-138888912D01*
X171297056Y-76945047D02*
X171368629Y-76868629D01*
X171297056Y-79054953D02*
X171230635Y-78974018D01*
X171297056Y-136945047D02*
X171368629Y-136868629D01*
X171297056Y-139054953D02*
X171230635Y-138974018D01*
X171368629Y-76868629D02*
X171445047Y-76797056D01*
X171368629Y-79131371D02*
X171297056Y-79054953D01*
X171368629Y-136868629D02*
X171445047Y-136797056D01*
X171368629Y-139131371D02*
X171297056Y-139054953D01*
X171445047Y-76797056D02*
X171525982Y-76730635D01*
X171445047Y-79202944D02*
X171368629Y-79131371D01*
X171445047Y-136797056D02*
X171525982Y-136730635D01*
X171445047Y-139202944D02*
X171368629Y-139131371D01*
X171525982Y-76730635D02*
X171611088Y-76669649D01*
X171525982Y-79269365D02*
X171445047Y-79202944D01*
X171525982Y-136730635D02*
X171611088Y-136669649D01*
X171525982Y-139269365D02*
X171445047Y-139202944D01*
X171611088Y-76669649D02*
X171700000Y-76614359D01*
X171611088Y-79330351D02*
X171525982Y-79269365D01*
X171611088Y-136669649D02*
X171700000Y-136614359D01*
X171611088Y-139330351D02*
X171525982Y-139269365D01*
X171700000Y-76614359D02*
X171792338Y-76565004D01*
X171700000Y-79385641D02*
X171611088Y-79330351D01*
X171700000Y-136614359D02*
X171792338Y-136565004D01*
X171700000Y-139385641D02*
X171611088Y-139330351D01*
X171792338Y-76565004D02*
X171887707Y-76521793D01*
X171792338Y-79434996D02*
X171700000Y-79385641D01*
X171792338Y-136565004D02*
X171887707Y-136521793D01*
X171792338Y-139434996D02*
X171700000Y-139385641D01*
X171887707Y-76521793D02*
X171985697Y-76484912D01*
X171887707Y-79478207D02*
X171792338Y-79434996D01*
X171887707Y-136521793D02*
X171985697Y-136484912D01*
X171887707Y-139478207D02*
X171792338Y-139434996D01*
X171985697Y-76484912D02*
X172085890Y-76454519D01*
X171985697Y-79515088D02*
X171887707Y-79478207D01*
X171985697Y-136484912D02*
X172085890Y-136454519D01*
X171985697Y-139515088D02*
X171887707Y-139478207D01*
X172085890Y-76454519D02*
X172187855Y-76430744D01*
X172085890Y-79545481D02*
X171985697Y-79515088D01*
X172085890Y-136454519D02*
X172187855Y-136430744D01*
X172085890Y-139545481D02*
X171985697Y-139515088D01*
X172187855Y-76430744D02*
X172291158Y-76413688D01*
X172187855Y-79569256D02*
X172085890Y-79545481D01*
X172187855Y-136430744D02*
X172291158Y-136413688D01*
X172187855Y-139569256D02*
X172085890Y-139545481D01*
X172291158Y-76413688D02*
X172395355Y-76403426D01*
X172291158Y-79586312D02*
X172187855Y-79569256D01*
X172291158Y-136413688D02*
X172395355Y-136403426D01*
X172291158Y-139586312D02*
X172187855Y-139569256D01*
X172395355Y-76403426D02*
X172500000Y-76400000D01*
X172395355Y-79596574D02*
X172291158Y-79586312D01*
X172395355Y-136403426D02*
X172500000Y-136400000D01*
X172395355Y-139596574D02*
X172291158Y-139586312D01*
X172500000Y-76400000D02*
X172604645Y-76403426D01*
X172500000Y-79600000D02*
X172395355Y-79596574D01*
X172500000Y-136400000D02*
X172604645Y-136403426D01*
X172500000Y-139600000D02*
X172395355Y-139596574D01*
X172604645Y-76403426D02*
X172708842Y-76413688D01*
X172604645Y-79596574D02*
X172500000Y-79600000D01*
X172604645Y-136403426D02*
X172708842Y-136413688D01*
X172604645Y-139596574D02*
X172500000Y-139600000D01*
X172708842Y-76413688D02*
X172812145Y-76430744D01*
X172708842Y-79586312D02*
X172604645Y-79596574D01*
X172708842Y-136413688D02*
X172812145Y-136430744D01*
X172708842Y-139586312D02*
X172604645Y-139596574D01*
X172812145Y-76430744D02*
X172914110Y-76454519D01*
X172812145Y-79569256D02*
X172708842Y-79586312D01*
X172812145Y-136430744D02*
X172914110Y-136454519D01*
X172812145Y-139569256D02*
X172708842Y-139586312D01*
X172914110Y-76454519D02*
X173014303Y-76484912D01*
X172914110Y-79545481D02*
X172812145Y-79569256D01*
X172914110Y-136454519D02*
X173014303Y-136484912D01*
X172914110Y-139545481D02*
X172812145Y-139569256D01*
X173014303Y-76484912D02*
X173112293Y-76521793D01*
X173014303Y-79515088D02*
X172914110Y-79545481D01*
X173014303Y-136484912D02*
X173112293Y-136521793D01*
X173014303Y-139515088D02*
X172914110Y-139545481D01*
X173112293Y-76521793D02*
X173207662Y-76565004D01*
X173112293Y-79478207D02*
X173014303Y-79515088D01*
X173112293Y-136521793D02*
X173207662Y-136565004D01*
X173112293Y-139478207D02*
X173014303Y-139515088D01*
X173207662Y-76565004D02*
X173300000Y-76614359D01*
X173207662Y-79434996D02*
X173112293Y-79478207D01*
X173207662Y-136565004D02*
X173300000Y-136614359D01*
X173207662Y-139434996D02*
X173112293Y-139478207D01*
X173300000Y-76614359D02*
X173388912Y-76669649D01*
X173300000Y-79385641D02*
X173207662Y-79434996D01*
X173300000Y-136614359D02*
X173388912Y-136669649D01*
X173300000Y-139385641D02*
X173207662Y-139434996D01*
X173388912Y-76669649D02*
X173474018Y-76730635D01*
X173388912Y-79330351D02*
X173300000Y-79385641D01*
X173388912Y-136669649D02*
X173474018Y-136730635D01*
X173388912Y-139330351D02*
X173300000Y-139385641D01*
X173474018Y-76730635D02*
X173554953Y-76797056D01*
X173474018Y-79269365D02*
X173388912Y-79330351D01*
X173474018Y-136730635D02*
X173554953Y-136797056D01*
X173474018Y-139269365D02*
X173388912Y-139330351D01*
X173500000Y-75000000D02*
X173696034Y-75009631D01*
X173500000Y-141000000D02*
X105500000Y-141000000D01*
X173554953Y-76797056D02*
X173631371Y-76868629D01*
X173554953Y-79202944D02*
X173474018Y-79269365D01*
X173554953Y-136797056D02*
X173631371Y-136868629D01*
X173554953Y-139202944D02*
X173474018Y-139269365D01*
X173631371Y-76868629D02*
X173702944Y-76945047D01*
X173631371Y-79131371D02*
X173554953Y-79202944D01*
X173631371Y-136868629D02*
X173702944Y-136945047D01*
X173631371Y-139131371D02*
X173554953Y-139202944D01*
X173696034Y-75009631D02*
X173890181Y-75038429D01*
X173696034Y-140990369D02*
X173500000Y-141000000D01*
X173702944Y-76945047D02*
X173769365Y-77025982D01*
X173702944Y-79054953D02*
X173631371Y-79131371D01*
X173702944Y-136945047D02*
X173769365Y-137025982D01*
X173702944Y-139054953D02*
X173631371Y-139131371D01*
X173769365Y-77025982D02*
X173830351Y-77111088D01*
X173769365Y-78974018D02*
X173702944Y-79054953D01*
X173769365Y-137025982D02*
X173830351Y-137111088D01*
X173769365Y-138974018D02*
X173702944Y-139054953D01*
X173830351Y-77111088D02*
X173885641Y-77200000D01*
X173830351Y-78888912D02*
X173769365Y-78974018D01*
X173830351Y-137111088D02*
X173885641Y-137200000D01*
X173830351Y-138888912D02*
X173769365Y-138974018D01*
X173885641Y-77200000D02*
X173934996Y-77292338D01*
X173885641Y-78800000D02*
X173830351Y-78888912D01*
X173885641Y-137200000D02*
X173934996Y-137292338D01*
X173885641Y-138800000D02*
X173830351Y-138888912D01*
X173890181Y-75038429D02*
X174080569Y-75086119D01*
X173890181Y-140961571D02*
X173696034Y-140990369D01*
X173934996Y-77292338D02*
X173978207Y-77387707D01*
X173934996Y-78707662D02*
X173885641Y-78800000D01*
X173934996Y-137292338D02*
X173978207Y-137387707D01*
X173934996Y-138707662D02*
X173885641Y-138800000D01*
X173978207Y-77387707D02*
X174015088Y-77485697D01*
X173978207Y-78612293D02*
X173934996Y-78707662D01*
X173978207Y-137387707D02*
X174015088Y-137485697D01*
X173978207Y-138612293D02*
X173934996Y-138707662D01*
X174015088Y-77485697D02*
X174045481Y-77585890D01*
X174015088Y-78514303D02*
X173978207Y-78612293D01*
X174015088Y-137485697D02*
X174045481Y-137585890D01*
X174015088Y-138514303D02*
X173978207Y-138612293D01*
X174045481Y-77585890D02*
X174069256Y-77687855D01*
X174045481Y-78414110D02*
X174015088Y-78514303D01*
X174045481Y-137585890D02*
X174069256Y-137687855D01*
X174045481Y-138414110D02*
X174015088Y-138514303D01*
X174069256Y-77687855D02*
X174086312Y-77791158D01*
X174069256Y-78312145D02*
X174045481Y-78414110D01*
X174069256Y-137687855D02*
X174086312Y-137791158D01*
X174069256Y-138312145D02*
X174045481Y-138414110D01*
X174080569Y-75086119D02*
X174265367Y-75152241D01*
X174080569Y-140913881D02*
X173890181Y-140961571D01*
X174086312Y-77791158D02*
X174096574Y-77895355D01*
X174086312Y-78208842D02*
X174069256Y-78312145D01*
X174086312Y-137791158D02*
X174096574Y-137895355D01*
X174086312Y-138208842D02*
X174069256Y-138312145D01*
X174096574Y-77895355D02*
X174100000Y-78000000D01*
X174096574Y-78104645D02*
X174086312Y-78208842D01*
X174096574Y-137895355D02*
X174100000Y-138000000D01*
X174096574Y-138104645D02*
X174086312Y-138208842D01*
X174100000Y-78000000D02*
X174096574Y-78104645D01*
X174100000Y-138000000D02*
X174096574Y-138104645D01*
X174265367Y-75152241D02*
X174442793Y-75236157D01*
X174265367Y-140847759D02*
X174080569Y-140913881D01*
X174442793Y-75236157D02*
X174611140Y-75337061D01*
X174442793Y-140763843D02*
X174265367Y-140847759D01*
X174611140Y-75337061D02*
X174768787Y-75453979D01*
X174611140Y-140662939D02*
X174442793Y-140763843D01*
X174768787Y-75453979D02*
X174914214Y-75585786D01*
X174768787Y-140546021D02*
X174611140Y-140662939D01*
X174914214Y-75585786D02*
X175046021Y-75731213D01*
X174914214Y-140414214D02*
X174768787Y-140546021D01*
X175046021Y-75731213D02*
X175162939Y-75888860D01*
X175046021Y-140268787D02*
X174914214Y-140414214D01*
X175162939Y-75888860D02*
X175263843Y-76057207D01*
X175162939Y-140111140D02*
X175046021Y-140268787D01*
X175263843Y-76057207D02*
X175347759Y-76234633D01*
X175263843Y-139942793D02*
X175162939Y-140111140D01*
X175347759Y-76234633D02*
X175413881Y-76419431D01*
X175347759Y-139765367D02*
X175263843Y-139942793D01*
X175413881Y-76419431D02*
X175461571Y-76609819D01*
X175413881Y-139580569D02*
X175347759Y-139765367D01*
X175461571Y-76609819D02*
X175490369Y-76803966D01*
X175461571Y-139390181D02*
X175413881Y-139580569D01*
X175490369Y-76803966D02*
X175500000Y-77000000D01*
X175490369Y-139196034D02*
X175461571Y-139390181D01*
X175500000Y-77000000D02*
X175500000Y-139000000D01*
X175500000Y-139000000D02*
X175490369Y-139196034D01*
M02*
