%TF.GenerationSoftware,KiCad,Pcbnew,9.0.9.1-1.fc43*%
%TF.CreationDate,2026-06-28T21:25:27-06:00*%
%TF.ProjectId,rp2350-console-v2-stitched,72703233-3530-42d6-936f-6e736f6c652d,rev?*%
%TF.SameCoordinates,Original*%
%TF.FileFunction,Legend,Bot*%
%TF.FilePolarity,Positive*%
%FSLAX46Y46*%
G04 Gerber Fmt 4.6, Leading zero omitted, Abs format (unit mm)*
G04 Created by KiCad (PCBNEW 9.0.9.1-1.fc43) date 2026-06-28 21:25:27*
%MOMM*%
%LPD*%
G01*
G04 APERTURE LIST*
%ADD10C,0.100000*%
G04 APERTURE END LIST*
D10*
X139260714Y-96815228D02*
X139289286Y-96843800D01*
X139289286Y-96843800D02*
X139375000Y-96872371D01*
X139375000Y-96872371D02*
X139432143Y-96872371D01*
X139432143Y-96872371D02*
X139517857Y-96843800D01*
X139517857Y-96843800D02*
X139575000Y-96786657D01*
X139575000Y-96786657D02*
X139603571Y-96729514D01*
X139603571Y-96729514D02*
X139632143Y-96615228D01*
X139632143Y-96615228D02*
X139632143Y-96529514D01*
X139632143Y-96529514D02*
X139603571Y-96415228D01*
X139603571Y-96415228D02*
X139575000Y-96358085D01*
X139575000Y-96358085D02*
X139517857Y-96300942D01*
X139517857Y-96300942D02*
X139432143Y-96272371D01*
X139432143Y-96272371D02*
X139375000Y-96272371D01*
X139375000Y-96272371D02*
X139289286Y-96300942D01*
X139289286Y-96300942D02*
X139260714Y-96329514D01*
X138689286Y-96872371D02*
X139032143Y-96872371D01*
X138860714Y-96872371D02*
X138860714Y-96272371D01*
X138860714Y-96272371D02*
X138917857Y-96358085D01*
X138917857Y-96358085D02*
X138975000Y-96415228D01*
X138975000Y-96415228D02*
X139032143Y-96443800D01*
X138403571Y-96872371D02*
X138289285Y-96872371D01*
X138289285Y-96872371D02*
X138232142Y-96843800D01*
X138232142Y-96843800D02*
X138203571Y-96815228D01*
X138203571Y-96815228D02*
X138146428Y-96729514D01*
X138146428Y-96729514D02*
X138117857Y-96615228D01*
X138117857Y-96615228D02*
X138117857Y-96386657D01*
X138117857Y-96386657D02*
X138146428Y-96329514D01*
X138146428Y-96329514D02*
X138175000Y-96300942D01*
X138175000Y-96300942D02*
X138232142Y-96272371D01*
X138232142Y-96272371D02*
X138346428Y-96272371D01*
X138346428Y-96272371D02*
X138403571Y-96300942D01*
X138403571Y-96300942D02*
X138432142Y-96329514D01*
X138432142Y-96329514D02*
X138460714Y-96386657D01*
X138460714Y-96386657D02*
X138460714Y-96529514D01*
X138460714Y-96529514D02*
X138432142Y-96586657D01*
X138432142Y-96586657D02*
X138403571Y-96615228D01*
X138403571Y-96615228D02*
X138346428Y-96643800D01*
X138346428Y-96643800D02*
X138232142Y-96643800D01*
X138232142Y-96643800D02*
X138175000Y-96615228D01*
X138175000Y-96615228D02*
X138146428Y-96586657D01*
X138146428Y-96586657D02*
X138117857Y-96529514D01*
X145836714Y-108765228D02*
X145865286Y-108793800D01*
X145865286Y-108793800D02*
X145951000Y-108822371D01*
X145951000Y-108822371D02*
X146008143Y-108822371D01*
X146008143Y-108822371D02*
X146093857Y-108793800D01*
X146093857Y-108793800D02*
X146151000Y-108736657D01*
X146151000Y-108736657D02*
X146179571Y-108679514D01*
X146179571Y-108679514D02*
X146208143Y-108565228D01*
X146208143Y-108565228D02*
X146208143Y-108479514D01*
X146208143Y-108479514D02*
X146179571Y-108365228D01*
X146179571Y-108365228D02*
X146151000Y-108308085D01*
X146151000Y-108308085D02*
X146093857Y-108250942D01*
X146093857Y-108250942D02*
X146008143Y-108222371D01*
X146008143Y-108222371D02*
X145951000Y-108222371D01*
X145951000Y-108222371D02*
X145865286Y-108250942D01*
X145865286Y-108250942D02*
X145836714Y-108279514D01*
X145636714Y-108222371D02*
X145265286Y-108222371D01*
X145265286Y-108222371D02*
X145465286Y-108450942D01*
X145465286Y-108450942D02*
X145379571Y-108450942D01*
X145379571Y-108450942D02*
X145322429Y-108479514D01*
X145322429Y-108479514D02*
X145293857Y-108508085D01*
X145293857Y-108508085D02*
X145265286Y-108565228D01*
X145265286Y-108565228D02*
X145265286Y-108708085D01*
X145265286Y-108708085D02*
X145293857Y-108765228D01*
X145293857Y-108765228D02*
X145322429Y-108793800D01*
X145322429Y-108793800D02*
X145379571Y-108822371D01*
X145379571Y-108822371D02*
X145551000Y-108822371D01*
X145551000Y-108822371D02*
X145608143Y-108793800D01*
X145608143Y-108793800D02*
X145636714Y-108765228D01*
X144893857Y-108222371D02*
X144836714Y-108222371D01*
X144836714Y-108222371D02*
X144779571Y-108250942D01*
X144779571Y-108250942D02*
X144751000Y-108279514D01*
X144751000Y-108279514D02*
X144722428Y-108336657D01*
X144722428Y-108336657D02*
X144693857Y-108450942D01*
X144693857Y-108450942D02*
X144693857Y-108593800D01*
X144693857Y-108593800D02*
X144722428Y-108708085D01*
X144722428Y-108708085D02*
X144751000Y-108765228D01*
X144751000Y-108765228D02*
X144779571Y-108793800D01*
X144779571Y-108793800D02*
X144836714Y-108822371D01*
X144836714Y-108822371D02*
X144893857Y-108822371D01*
X144893857Y-108822371D02*
X144951000Y-108793800D01*
X144951000Y-108793800D02*
X144979571Y-108765228D01*
X144979571Y-108765228D02*
X145008142Y-108708085D01*
X145008142Y-108708085D02*
X145036714Y-108593800D01*
X145036714Y-108593800D02*
X145036714Y-108450942D01*
X145036714Y-108450942D02*
X145008142Y-108336657D01*
X145008142Y-108336657D02*
X144979571Y-108279514D01*
X144979571Y-108279514D02*
X144951000Y-108250942D01*
X144951000Y-108250942D02*
X144893857Y-108222371D01*
X138835714Y-102215228D02*
X138864286Y-102243800D01*
X138864286Y-102243800D02*
X138950000Y-102272371D01*
X138950000Y-102272371D02*
X139007143Y-102272371D01*
X139007143Y-102272371D02*
X139092857Y-102243800D01*
X139092857Y-102243800D02*
X139150000Y-102186657D01*
X139150000Y-102186657D02*
X139178571Y-102129514D01*
X139178571Y-102129514D02*
X139207143Y-102015228D01*
X139207143Y-102015228D02*
X139207143Y-101929514D01*
X139207143Y-101929514D02*
X139178571Y-101815228D01*
X139178571Y-101815228D02*
X139150000Y-101758085D01*
X139150000Y-101758085D02*
X139092857Y-101700942D01*
X139092857Y-101700942D02*
X139007143Y-101672371D01*
X139007143Y-101672371D02*
X138950000Y-101672371D01*
X138950000Y-101672371D02*
X138864286Y-101700942D01*
X138864286Y-101700942D02*
X138835714Y-101729514D01*
X138264286Y-102272371D02*
X138607143Y-102272371D01*
X138435714Y-102272371D02*
X138435714Y-101672371D01*
X138435714Y-101672371D02*
X138492857Y-101758085D01*
X138492857Y-101758085D02*
X138550000Y-101815228D01*
X138550000Y-101815228D02*
X138607143Y-101843800D01*
X137750000Y-101872371D02*
X137750000Y-102272371D01*
X137892857Y-101643800D02*
X138035714Y-102072371D01*
X138035714Y-102072371D02*
X137664285Y-102072371D01*
X142385714Y-117115228D02*
X142414286Y-117143800D01*
X142414286Y-117143800D02*
X142500000Y-117172371D01*
X142500000Y-117172371D02*
X142557143Y-117172371D01*
X142557143Y-117172371D02*
X142642857Y-117143800D01*
X142642857Y-117143800D02*
X142700000Y-117086657D01*
X142700000Y-117086657D02*
X142728571Y-117029514D01*
X142728571Y-117029514D02*
X142757143Y-116915228D01*
X142757143Y-116915228D02*
X142757143Y-116829514D01*
X142757143Y-116829514D02*
X142728571Y-116715228D01*
X142728571Y-116715228D02*
X142700000Y-116658085D01*
X142700000Y-116658085D02*
X142642857Y-116600942D01*
X142642857Y-116600942D02*
X142557143Y-116572371D01*
X142557143Y-116572371D02*
X142500000Y-116572371D01*
X142500000Y-116572371D02*
X142414286Y-116600942D01*
X142414286Y-116600942D02*
X142385714Y-116629514D01*
X141814286Y-117172371D02*
X142157143Y-117172371D01*
X141985714Y-117172371D02*
X141985714Y-116572371D01*
X141985714Y-116572371D02*
X142042857Y-116658085D01*
X142042857Y-116658085D02*
X142100000Y-116715228D01*
X142100000Y-116715228D02*
X142157143Y-116743800D01*
X141471428Y-116829514D02*
X141528571Y-116800942D01*
X141528571Y-116800942D02*
X141557142Y-116772371D01*
X141557142Y-116772371D02*
X141585714Y-116715228D01*
X141585714Y-116715228D02*
X141585714Y-116686657D01*
X141585714Y-116686657D02*
X141557142Y-116629514D01*
X141557142Y-116629514D02*
X141528571Y-116600942D01*
X141528571Y-116600942D02*
X141471428Y-116572371D01*
X141471428Y-116572371D02*
X141357142Y-116572371D01*
X141357142Y-116572371D02*
X141300000Y-116600942D01*
X141300000Y-116600942D02*
X141271428Y-116629514D01*
X141271428Y-116629514D02*
X141242857Y-116686657D01*
X141242857Y-116686657D02*
X141242857Y-116715228D01*
X141242857Y-116715228D02*
X141271428Y-116772371D01*
X141271428Y-116772371D02*
X141300000Y-116800942D01*
X141300000Y-116800942D02*
X141357142Y-116829514D01*
X141357142Y-116829514D02*
X141471428Y-116829514D01*
X141471428Y-116829514D02*
X141528571Y-116858085D01*
X141528571Y-116858085D02*
X141557142Y-116886657D01*
X141557142Y-116886657D02*
X141585714Y-116943800D01*
X141585714Y-116943800D02*
X141585714Y-117058085D01*
X141585714Y-117058085D02*
X141557142Y-117115228D01*
X141557142Y-117115228D02*
X141528571Y-117143800D01*
X141528571Y-117143800D02*
X141471428Y-117172371D01*
X141471428Y-117172371D02*
X141357142Y-117172371D01*
X141357142Y-117172371D02*
X141300000Y-117143800D01*
X141300000Y-117143800D02*
X141271428Y-117115228D01*
X141271428Y-117115228D02*
X141242857Y-117058085D01*
X141242857Y-117058085D02*
X141242857Y-116943800D01*
X141242857Y-116943800D02*
X141271428Y-116886657D01*
X141271428Y-116886657D02*
X141300000Y-116858085D01*
X141300000Y-116858085D02*
X141357142Y-116829514D01*
X133504289Y-104330598D02*
X133542258Y-104316778D01*
X133542258Y-104316778D02*
X133604377Y-104251169D01*
X133604377Y-104251169D02*
X133628526Y-104199380D01*
X133628526Y-104199380D02*
X133638856Y-104109622D01*
X133638856Y-104109622D02*
X133611217Y-104033683D01*
X133611217Y-104033683D02*
X133571503Y-103983639D01*
X133571503Y-103983639D02*
X133479999Y-103909445D01*
X133479999Y-103909445D02*
X133402316Y-103873221D01*
X133402316Y-103873221D02*
X133286663Y-103850816D01*
X133286663Y-103850816D02*
X133222799Y-103852561D01*
X133222799Y-103852561D02*
X133146861Y-103880200D01*
X133146861Y-103880200D02*
X133084742Y-103945809D01*
X133084742Y-103945809D02*
X133060592Y-103997598D01*
X133060592Y-103997598D02*
X133050262Y-104087356D01*
X133050262Y-104087356D02*
X133064082Y-104125326D01*
X132794946Y-104567277D02*
X132843246Y-104463699D01*
X132843246Y-104463699D02*
X132893290Y-104423985D01*
X132893290Y-104423985D02*
X132931259Y-104410165D01*
X132931259Y-104410165D02*
X133033092Y-104394601D01*
X133033092Y-104394601D02*
X133148745Y-104417005D01*
X133148745Y-104417005D02*
X133355901Y-104513604D01*
X133355901Y-104513604D02*
X133395615Y-104563648D01*
X133395615Y-104563648D02*
X133409435Y-104601617D01*
X133409435Y-104601617D02*
X133411180Y-104665481D01*
X133411180Y-104665481D02*
X133362881Y-104769059D01*
X133362881Y-104769059D02*
X133312837Y-104808773D01*
X133312837Y-104808773D02*
X133274867Y-104822593D01*
X133274867Y-104822593D02*
X133211003Y-104824338D01*
X133211003Y-104824338D02*
X133081531Y-104763964D01*
X133081531Y-104763964D02*
X133041817Y-104713920D01*
X133041817Y-104713920D02*
X133027997Y-104675951D01*
X133027997Y-104675951D02*
X133026252Y-104612087D01*
X133026252Y-104612087D02*
X133074551Y-104508509D01*
X133074551Y-104508509D02*
X133124595Y-104468795D01*
X133124595Y-104468795D02*
X133162565Y-104454975D01*
X133162565Y-104454975D02*
X133226429Y-104453230D01*
X141635714Y-102215228D02*
X141664286Y-102243800D01*
X141664286Y-102243800D02*
X141750000Y-102272371D01*
X141750000Y-102272371D02*
X141807143Y-102272371D01*
X141807143Y-102272371D02*
X141892857Y-102243800D01*
X141892857Y-102243800D02*
X141950000Y-102186657D01*
X141950000Y-102186657D02*
X141978571Y-102129514D01*
X141978571Y-102129514D02*
X142007143Y-102015228D01*
X142007143Y-102015228D02*
X142007143Y-101929514D01*
X142007143Y-101929514D02*
X141978571Y-101815228D01*
X141978571Y-101815228D02*
X141950000Y-101758085D01*
X141950000Y-101758085D02*
X141892857Y-101700942D01*
X141892857Y-101700942D02*
X141807143Y-101672371D01*
X141807143Y-101672371D02*
X141750000Y-101672371D01*
X141750000Y-101672371D02*
X141664286Y-101700942D01*
X141664286Y-101700942D02*
X141635714Y-101729514D01*
X141064286Y-102272371D02*
X141407143Y-102272371D01*
X141235714Y-102272371D02*
X141235714Y-101672371D01*
X141235714Y-101672371D02*
X141292857Y-101758085D01*
X141292857Y-101758085D02*
X141350000Y-101815228D01*
X141350000Y-101815228D02*
X141407143Y-101843800D01*
X140521428Y-101672371D02*
X140807142Y-101672371D01*
X140807142Y-101672371D02*
X140835714Y-101958085D01*
X140835714Y-101958085D02*
X140807142Y-101929514D01*
X140807142Y-101929514D02*
X140750000Y-101900942D01*
X140750000Y-101900942D02*
X140607142Y-101900942D01*
X140607142Y-101900942D02*
X140550000Y-101929514D01*
X140550000Y-101929514D02*
X140521428Y-101958085D01*
X140521428Y-101958085D02*
X140492857Y-102015228D01*
X140492857Y-102015228D02*
X140492857Y-102158085D01*
X140492857Y-102158085D02*
X140521428Y-102215228D01*
X140521428Y-102215228D02*
X140550000Y-102243800D01*
X140550000Y-102243800D02*
X140607142Y-102272371D01*
X140607142Y-102272371D02*
X140750000Y-102272371D01*
X140750000Y-102272371D02*
X140807142Y-102243800D01*
X140807142Y-102243800D02*
X140835714Y-102215228D01*
X148175113Y-105053773D02*
X148168097Y-105093565D01*
X148168097Y-105093565D02*
X148193856Y-105180166D01*
X148193856Y-105180166D02*
X148226632Y-105226974D01*
X148226632Y-105226974D02*
X148299200Y-105280800D01*
X148299200Y-105280800D02*
X148378785Y-105294832D01*
X148378785Y-105294832D02*
X148441981Y-105285461D01*
X148441981Y-105285461D02*
X148551987Y-105243314D01*
X148551987Y-105243314D02*
X148622200Y-105194150D01*
X148622200Y-105194150D02*
X148699429Y-105105194D01*
X148699429Y-105105194D02*
X148729850Y-105049014D01*
X148729850Y-105049014D02*
X148743883Y-104969429D01*
X148743883Y-104969429D02*
X148718123Y-104882829D01*
X148718123Y-104882829D02*
X148685348Y-104836020D01*
X148685348Y-104836020D02*
X148612780Y-104782195D01*
X148612780Y-104782195D02*
X148572987Y-104775178D01*
X147800547Y-104618461D02*
X147997202Y-104899314D01*
X147898874Y-104758888D02*
X148390365Y-104414742D01*
X148390365Y-104414742D02*
X148352928Y-104510714D01*
X148352928Y-104510714D02*
X148338895Y-104590299D01*
X148338895Y-104590299D02*
X148348267Y-104653495D01*
X147997056Y-103853037D02*
X148062607Y-103946654D01*
X148062607Y-103946654D02*
X148071979Y-104009851D01*
X148071979Y-104009851D02*
X148064962Y-104049643D01*
X148064962Y-104049643D02*
X148027525Y-104145616D01*
X148027525Y-104145616D02*
X147950295Y-104234572D01*
X147950295Y-104234572D02*
X147763061Y-104365675D01*
X147763061Y-104365675D02*
X147699864Y-104375046D01*
X147699864Y-104375046D02*
X147660072Y-104368030D01*
X147660072Y-104368030D02*
X147603892Y-104337609D01*
X147603892Y-104337609D02*
X147538340Y-104243992D01*
X147538340Y-104243992D02*
X147528969Y-104180795D01*
X147528969Y-104180795D02*
X147535985Y-104141003D01*
X147535985Y-104141003D02*
X147566406Y-104084823D01*
X147566406Y-104084823D02*
X147683428Y-104002883D01*
X147683428Y-104002883D02*
X147746624Y-103993512D01*
X147746624Y-103993512D02*
X147786417Y-104000528D01*
X147786417Y-104000528D02*
X147842597Y-104030949D01*
X147842597Y-104030949D02*
X147908148Y-104124566D01*
X147908148Y-104124566D02*
X147917520Y-104187763D01*
X147917520Y-104187763D02*
X147910503Y-104227555D01*
X147910503Y-104227555D02*
X147880082Y-104283735D01*
X141849999Y-98815228D02*
X141878571Y-98843800D01*
X141878571Y-98843800D02*
X141964285Y-98872371D01*
X141964285Y-98872371D02*
X142021428Y-98872371D01*
X142021428Y-98872371D02*
X142107142Y-98843800D01*
X142107142Y-98843800D02*
X142164285Y-98786657D01*
X142164285Y-98786657D02*
X142192856Y-98729514D01*
X142192856Y-98729514D02*
X142221428Y-98615228D01*
X142221428Y-98615228D02*
X142221428Y-98529514D01*
X142221428Y-98529514D02*
X142192856Y-98415228D01*
X142192856Y-98415228D02*
X142164285Y-98358085D01*
X142164285Y-98358085D02*
X142107142Y-98300942D01*
X142107142Y-98300942D02*
X142021428Y-98272371D01*
X142021428Y-98272371D02*
X141964285Y-98272371D01*
X141964285Y-98272371D02*
X141878571Y-98300942D01*
X141878571Y-98300942D02*
X141849999Y-98329514D01*
X141649999Y-98272371D02*
X141278571Y-98272371D01*
X141278571Y-98272371D02*
X141478571Y-98500942D01*
X141478571Y-98500942D02*
X141392856Y-98500942D01*
X141392856Y-98500942D02*
X141335714Y-98529514D01*
X141335714Y-98529514D02*
X141307142Y-98558085D01*
X141307142Y-98558085D02*
X141278571Y-98615228D01*
X141278571Y-98615228D02*
X141278571Y-98758085D01*
X141278571Y-98758085D02*
X141307142Y-98815228D01*
X141307142Y-98815228D02*
X141335714Y-98843800D01*
X141335714Y-98843800D02*
X141392856Y-98872371D01*
X141392856Y-98872371D02*
X141564285Y-98872371D01*
X141564285Y-98872371D02*
X141621428Y-98843800D01*
X141621428Y-98843800D02*
X141649999Y-98815228D01*
X141735714Y-114715228D02*
X141764286Y-114743800D01*
X141764286Y-114743800D02*
X141850000Y-114772371D01*
X141850000Y-114772371D02*
X141907143Y-114772371D01*
X141907143Y-114772371D02*
X141992857Y-114743800D01*
X141992857Y-114743800D02*
X142050000Y-114686657D01*
X142050000Y-114686657D02*
X142078571Y-114629514D01*
X142078571Y-114629514D02*
X142107143Y-114515228D01*
X142107143Y-114515228D02*
X142107143Y-114429514D01*
X142107143Y-114429514D02*
X142078571Y-114315228D01*
X142078571Y-114315228D02*
X142050000Y-114258085D01*
X142050000Y-114258085D02*
X141992857Y-114200942D01*
X141992857Y-114200942D02*
X141907143Y-114172371D01*
X141907143Y-114172371D02*
X141850000Y-114172371D01*
X141850000Y-114172371D02*
X141764286Y-114200942D01*
X141764286Y-114200942D02*
X141735714Y-114229514D01*
X141507143Y-114229514D02*
X141478571Y-114200942D01*
X141478571Y-114200942D02*
X141421429Y-114172371D01*
X141421429Y-114172371D02*
X141278571Y-114172371D01*
X141278571Y-114172371D02*
X141221429Y-114200942D01*
X141221429Y-114200942D02*
X141192857Y-114229514D01*
X141192857Y-114229514D02*
X141164286Y-114286657D01*
X141164286Y-114286657D02*
X141164286Y-114343800D01*
X141164286Y-114343800D02*
X141192857Y-114429514D01*
X141192857Y-114429514D02*
X141535714Y-114772371D01*
X141535714Y-114772371D02*
X141164286Y-114772371D01*
X140878571Y-114772371D02*
X140764285Y-114772371D01*
X140764285Y-114772371D02*
X140707142Y-114743800D01*
X140707142Y-114743800D02*
X140678571Y-114715228D01*
X140678571Y-114715228D02*
X140621428Y-114629514D01*
X140621428Y-114629514D02*
X140592857Y-114515228D01*
X140592857Y-114515228D02*
X140592857Y-114286657D01*
X140592857Y-114286657D02*
X140621428Y-114229514D01*
X140621428Y-114229514D02*
X140650000Y-114200942D01*
X140650000Y-114200942D02*
X140707142Y-114172371D01*
X140707142Y-114172371D02*
X140821428Y-114172371D01*
X140821428Y-114172371D02*
X140878571Y-114200942D01*
X140878571Y-114200942D02*
X140907142Y-114229514D01*
X140907142Y-114229514D02*
X140935714Y-114286657D01*
X140935714Y-114286657D02*
X140935714Y-114429514D01*
X140935714Y-114429514D02*
X140907142Y-114486657D01*
X140907142Y-114486657D02*
X140878571Y-114515228D01*
X140878571Y-114515228D02*
X140821428Y-114543800D01*
X140821428Y-114543800D02*
X140707142Y-114543800D01*
X140707142Y-114543800D02*
X140650000Y-114515228D01*
X140650000Y-114515228D02*
X140621428Y-114486657D01*
X140621428Y-114486657D02*
X140592857Y-114429514D01*
X147337300Y-100092914D02*
X147342225Y-100133019D01*
X147342225Y-100133019D02*
X147392178Y-100208304D01*
X147392178Y-100208304D02*
X147437207Y-100243485D01*
X147437207Y-100243485D02*
X147522341Y-100273741D01*
X147522341Y-100273741D02*
X147602551Y-100263893D01*
X147602551Y-100263893D02*
X147660247Y-100236454D01*
X147660247Y-100236454D02*
X147753122Y-100163986D01*
X147753122Y-100163986D02*
X147805893Y-100096442D01*
X147805893Y-100096442D02*
X147853740Y-99988794D01*
X147853740Y-99988794D02*
X147866406Y-99926174D01*
X147866406Y-99926174D02*
X147856558Y-99845964D01*
X147856558Y-99845964D02*
X147806604Y-99770679D01*
X147806604Y-99770679D02*
X147761575Y-99735498D01*
X147761575Y-99735498D02*
X147676441Y-99705242D01*
X147676441Y-99705242D02*
X147636336Y-99710166D01*
X147243739Y-99330920D02*
X147468885Y-99506824D01*
X147468885Y-99506824D02*
X147315497Y-99749560D01*
X147315497Y-99749560D02*
X147310572Y-99709455D01*
X147310572Y-99709455D02*
X147283133Y-99651760D01*
X147283133Y-99651760D02*
X147170561Y-99563808D01*
X147170561Y-99563808D02*
X147107941Y-99551142D01*
X147107941Y-99551142D02*
X147067836Y-99556066D01*
X147067836Y-99556066D02*
X147010141Y-99583505D01*
X147010141Y-99583505D02*
X146922189Y-99696078D01*
X146922189Y-99696078D02*
X146909523Y-99758698D01*
X146909523Y-99758698D02*
X146914447Y-99798803D01*
X146914447Y-99798803D02*
X146941886Y-99856498D01*
X146941886Y-99856498D02*
X147054459Y-99944449D01*
X147054459Y-99944449D02*
X147117079Y-99957116D01*
X147117079Y-99957116D02*
X147157184Y-99952191D01*
X133285714Y-117715228D02*
X133314286Y-117743800D01*
X133314286Y-117743800D02*
X133400000Y-117772371D01*
X133400000Y-117772371D02*
X133457143Y-117772371D01*
X133457143Y-117772371D02*
X133542857Y-117743800D01*
X133542857Y-117743800D02*
X133600000Y-117686657D01*
X133600000Y-117686657D02*
X133628571Y-117629514D01*
X133628571Y-117629514D02*
X133657143Y-117515228D01*
X133657143Y-117515228D02*
X133657143Y-117429514D01*
X133657143Y-117429514D02*
X133628571Y-117315228D01*
X133628571Y-117315228D02*
X133600000Y-117258085D01*
X133600000Y-117258085D02*
X133542857Y-117200942D01*
X133542857Y-117200942D02*
X133457143Y-117172371D01*
X133457143Y-117172371D02*
X133400000Y-117172371D01*
X133400000Y-117172371D02*
X133314286Y-117200942D01*
X133314286Y-117200942D02*
X133285714Y-117229514D01*
X132714286Y-117772371D02*
X133057143Y-117772371D01*
X132885714Y-117772371D02*
X132885714Y-117172371D01*
X132885714Y-117172371D02*
X132942857Y-117258085D01*
X132942857Y-117258085D02*
X133000000Y-117315228D01*
X133000000Y-117315228D02*
X133057143Y-117343800D01*
X132514285Y-117172371D02*
X132114285Y-117172371D01*
X132114285Y-117172371D02*
X132371428Y-117772371D01*
X145679613Y-104557463D02*
X145674688Y-104597568D01*
X145674688Y-104597568D02*
X145704945Y-104682702D01*
X145704945Y-104682702D02*
X145740126Y-104727731D01*
X145740126Y-104727731D02*
X145815411Y-104777684D01*
X145815411Y-104777684D02*
X145895621Y-104787533D01*
X145895621Y-104787533D02*
X145958240Y-104774867D01*
X145958240Y-104774867D02*
X146065889Y-104727020D01*
X146065889Y-104727020D02*
X146133433Y-104674249D01*
X146133433Y-104674249D02*
X146205901Y-104581373D01*
X146205901Y-104581373D02*
X146233340Y-104523678D01*
X146233340Y-104523678D02*
X146243188Y-104443468D01*
X146243188Y-104443468D02*
X146212932Y-104358334D01*
X146212932Y-104358334D02*
X146177751Y-104313305D01*
X146177751Y-104313305D02*
X146102466Y-104263351D01*
X146102466Y-104263351D02*
X146062361Y-104258427D01*
X145282777Y-104142352D02*
X145493861Y-104412527D01*
X145388319Y-104277439D02*
X145861125Y-103908042D01*
X145861125Y-103908042D02*
X145828762Y-104005842D01*
X145828762Y-104005842D02*
X145818914Y-104086052D01*
X145818914Y-104086052D02*
X145831580Y-104148672D01*
X145569831Y-103628018D02*
X145574756Y-103587913D01*
X145574756Y-103587913D02*
X145562090Y-103525294D01*
X145562090Y-103525294D02*
X145474138Y-103412721D01*
X145474138Y-103412721D02*
X145416443Y-103385282D01*
X145416443Y-103385282D02*
X145376338Y-103380358D01*
X145376338Y-103380358D02*
X145313718Y-103393024D01*
X145313718Y-103393024D02*
X145268689Y-103428204D01*
X145268689Y-103428204D02*
X145218736Y-103503490D01*
X145218736Y-103503490D02*
X145159644Y-103984749D01*
X145159644Y-103984749D02*
X144930970Y-103692059D01*
X146688351Y-112892432D02*
X146728456Y-112887508D01*
X146728456Y-112887508D02*
X146803741Y-112837554D01*
X146803741Y-112837554D02*
X146838922Y-112792525D01*
X146838922Y-112792525D02*
X146869178Y-112707391D01*
X146869178Y-112707391D02*
X146859330Y-112627181D01*
X146859330Y-112627181D02*
X146831891Y-112569486D01*
X146831891Y-112569486D02*
X146759423Y-112476610D01*
X146759423Y-112476610D02*
X146691879Y-112423839D01*
X146691879Y-112423839D02*
X146584230Y-112375992D01*
X146584230Y-112375992D02*
X146521611Y-112363326D01*
X146521611Y-112363326D02*
X146441401Y-112373175D01*
X146441401Y-112373175D02*
X146366115Y-112423128D01*
X146366115Y-112423128D02*
X146330935Y-112468157D01*
X146330935Y-112468157D02*
X146300678Y-112553292D01*
X146300678Y-112553292D02*
X146305603Y-112593397D01*
X146381573Y-113377905D02*
X146592657Y-113107729D01*
X146487115Y-113242817D02*
X146014309Y-112873420D01*
X146014309Y-112873420D02*
X146117033Y-112881162D01*
X146117033Y-112881162D02*
X146197243Y-112871313D01*
X146197243Y-112871313D02*
X146254938Y-112843875D01*
X145680092Y-113301198D02*
X145644912Y-113346227D01*
X145644912Y-113346227D02*
X145632246Y-113408846D01*
X145632246Y-113408846D02*
X145637170Y-113448951D01*
X145637170Y-113448951D02*
X145664609Y-113506647D01*
X145664609Y-113506647D02*
X145737077Y-113599523D01*
X145737077Y-113599523D02*
X145849650Y-113687474D01*
X145849650Y-113687474D02*
X145957298Y-113735321D01*
X145957298Y-113735321D02*
X146019918Y-113747987D01*
X146019918Y-113747987D02*
X146060023Y-113743063D01*
X146060023Y-113743063D02*
X146117718Y-113715624D01*
X146117718Y-113715624D02*
X146152899Y-113670595D01*
X146152899Y-113670595D02*
X146165565Y-113607975D01*
X146165565Y-113607975D02*
X146160641Y-113567870D01*
X146160641Y-113567870D02*
X146133202Y-113510175D01*
X146133202Y-113510175D02*
X146060734Y-113417299D01*
X146060734Y-113417299D02*
X145948161Y-113329347D01*
X145948161Y-113329347D02*
X145840512Y-113281501D01*
X145840512Y-113281501D02*
X145777892Y-113268835D01*
X145777892Y-113268835D02*
X145737788Y-113273759D01*
X145737788Y-113273759D02*
X145680092Y-113301198D01*
X132326127Y-110000303D02*
X132309692Y-110037216D01*
X132309692Y-110037216D02*
X132313736Y-110127476D01*
X132313736Y-110127476D02*
X132334214Y-110180824D01*
X132334214Y-110180824D02*
X132391605Y-110250606D01*
X132391605Y-110250606D02*
X132465431Y-110283475D01*
X132465431Y-110283475D02*
X132529017Y-110289671D01*
X132529017Y-110289671D02*
X132645951Y-110275388D01*
X132645951Y-110275388D02*
X132725972Y-110244671D01*
X132725972Y-110244671D02*
X132822428Y-110177041D01*
X132822428Y-110177041D02*
X132865537Y-110129889D01*
X132865537Y-110129889D02*
X132898406Y-110056063D01*
X132898406Y-110056063D02*
X132894362Y-109965803D01*
X132894362Y-109965803D02*
X132873884Y-109912456D01*
X132873884Y-109912456D02*
X132816493Y-109842674D01*
X132816493Y-109842674D02*
X132779580Y-109826239D01*
X132761254Y-109619045D02*
X132617907Y-109245612D01*
X132617907Y-109245612D02*
X132149911Y-109700697D01*
X135395039Y-114214878D02*
X135406853Y-114253519D01*
X135406853Y-114253519D02*
X135469121Y-114318986D01*
X135469121Y-114318986D02*
X135519575Y-114345813D01*
X135519575Y-114345813D02*
X135608670Y-114360826D01*
X135608670Y-114360826D02*
X135685951Y-114337199D01*
X135685951Y-114337199D02*
X135738005Y-114300159D01*
X135738005Y-114300159D02*
X135816886Y-114212664D01*
X135816886Y-114212664D02*
X135857126Y-114136982D01*
X135857126Y-114136982D02*
X135885553Y-114022661D01*
X135885553Y-114022661D02*
X135887153Y-113958793D01*
X135887153Y-113958793D02*
X135863525Y-113881512D01*
X135863525Y-113881512D02*
X135801258Y-113816045D01*
X135801258Y-113816045D02*
X135750804Y-113789218D01*
X135750804Y-113789218D02*
X135661709Y-113774204D01*
X135661709Y-113774204D02*
X135623068Y-113786018D01*
X135226449Y-113801646D02*
X135290317Y-113803246D01*
X135290317Y-113803246D02*
X135328957Y-113791432D01*
X135328957Y-113791432D02*
X135381011Y-113754391D01*
X135381011Y-113754391D02*
X135394425Y-113729164D01*
X135394425Y-113729164D02*
X135396025Y-113665297D01*
X135396025Y-113665297D02*
X135384211Y-113626656D01*
X135384211Y-113626656D02*
X135347170Y-113574602D01*
X135347170Y-113574602D02*
X135246262Y-113520948D01*
X135246262Y-113520948D02*
X135182394Y-113519348D01*
X135182394Y-113519348D02*
X135143754Y-113531162D01*
X135143754Y-113531162D02*
X135091700Y-113568202D01*
X135091700Y-113568202D02*
X135078286Y-113593430D01*
X135078286Y-113593430D02*
X135076687Y-113657297D01*
X135076687Y-113657297D02*
X135088500Y-113695938D01*
X135088500Y-113695938D02*
X135125541Y-113747992D01*
X135125541Y-113747992D02*
X135226449Y-113801646D01*
X135226449Y-113801646D02*
X135263490Y-113853700D01*
X135263490Y-113853700D02*
X135275303Y-113892340D01*
X135275303Y-113892340D02*
X135273704Y-113956208D01*
X135273704Y-113956208D02*
X135220050Y-114057116D01*
X135220050Y-114057116D02*
X135167996Y-114094157D01*
X135167996Y-114094157D02*
X135129355Y-114105970D01*
X135129355Y-114105970D02*
X135065487Y-114104371D01*
X135065487Y-114104371D02*
X134964579Y-114050717D01*
X134964579Y-114050717D02*
X134927539Y-113998663D01*
X134927539Y-113998663D02*
X134915725Y-113960022D01*
X134915725Y-113960022D02*
X134917325Y-113896154D01*
X134917325Y-113896154D02*
X134970979Y-113795246D01*
X134970979Y-113795246D02*
X135023033Y-113758205D01*
X135023033Y-113758205D02*
X135061673Y-113746392D01*
X135061673Y-113746392D02*
X135125541Y-113747992D01*
X146892383Y-108671574D02*
X146921934Y-108644017D01*
X146921934Y-108644017D02*
X146953480Y-108559352D01*
X146953480Y-108559352D02*
X146955474Y-108502244D01*
X146955474Y-108502244D02*
X146929911Y-108415585D01*
X146929911Y-108415585D02*
X146874798Y-108356483D01*
X146874798Y-108356483D02*
X146818687Y-108325934D01*
X146818687Y-108325934D02*
X146705468Y-108293392D01*
X146705468Y-108293392D02*
X146619806Y-108290401D01*
X146619806Y-108290401D02*
X146504592Y-108314966D01*
X146504592Y-108314966D02*
X146446487Y-108341526D01*
X146446487Y-108341526D02*
X146387385Y-108396640D01*
X146387385Y-108396640D02*
X146355840Y-108481305D01*
X146355840Y-108481305D02*
X146353845Y-108538413D01*
X146353845Y-108538413D02*
X146379408Y-108625072D01*
X146379408Y-108625072D02*
X146406965Y-108654623D01*
X146929549Y-109244649D02*
X146941514Y-108902001D01*
X146935531Y-109073325D02*
X146335897Y-109052385D01*
X146335897Y-109052385D02*
X146423553Y-108998268D01*
X146423553Y-108998268D02*
X146482656Y-108943155D01*
X146482656Y-108943155D02*
X146513204Y-108887044D01*
X146909606Y-109815730D02*
X146921572Y-109473081D01*
X146915589Y-109644406D02*
X146315954Y-109623466D01*
X146315954Y-109623466D02*
X146403611Y-109569349D01*
X146403611Y-109569349D02*
X146462713Y-109514235D01*
X146462713Y-109514235D02*
X146493261Y-109458125D01*
X137630266Y-101165089D02*
X137668236Y-101178908D01*
X137668236Y-101178908D02*
X137757994Y-101168579D01*
X137757994Y-101168579D02*
X137809783Y-101144429D01*
X137809783Y-101144429D02*
X137875392Y-101082310D01*
X137875392Y-101082310D02*
X137903031Y-101006371D01*
X137903031Y-101006371D02*
X137904776Y-100942508D01*
X137904776Y-100942508D02*
X137882371Y-100826855D01*
X137882371Y-100826855D02*
X137846147Y-100749171D01*
X137846147Y-100749171D02*
X137771953Y-100657668D01*
X137771953Y-100657668D02*
X137721909Y-100617954D01*
X137721909Y-100617954D02*
X137645970Y-100590314D01*
X137645970Y-100590314D02*
X137556212Y-100600644D01*
X137556212Y-100600644D02*
X137504423Y-100624794D01*
X137504423Y-100624794D02*
X137438814Y-100686913D01*
X137438814Y-100686913D02*
X137424995Y-100724882D01*
X137136526Y-101458374D02*
X137447260Y-101313476D01*
X137291893Y-101385925D02*
X137038322Y-100842140D01*
X137038322Y-100842140D02*
X137126335Y-100895674D01*
X137126335Y-100895674D02*
X137202274Y-100923314D01*
X137202274Y-100923314D02*
X137266138Y-100925059D01*
X136701693Y-100999113D02*
X136365064Y-101156086D01*
X136365064Y-101156086D02*
X136642924Y-101278718D01*
X136642924Y-101278718D02*
X136565241Y-101314942D01*
X136565241Y-101314942D02*
X136525526Y-101364987D01*
X136525526Y-101364987D02*
X136511707Y-101402956D01*
X136511707Y-101402956D02*
X136509962Y-101466820D01*
X136509962Y-101466820D02*
X136570336Y-101596292D01*
X136570336Y-101596292D02*
X136620380Y-101636006D01*
X136620380Y-101636006D02*
X136658349Y-101649826D01*
X136658349Y-101649826D02*
X136722213Y-101651571D01*
X136722213Y-101651571D02*
X136877580Y-101579122D01*
X136877580Y-101579122D02*
X136917294Y-101529078D01*
X136917294Y-101529078D02*
X136931114Y-101491109D01*
X131144762Y-106858029D02*
X131174313Y-106830472D01*
X131174313Y-106830472D02*
X131205858Y-106745807D01*
X131205858Y-106745807D02*
X131207853Y-106688699D01*
X131207853Y-106688699D02*
X131182290Y-106602040D01*
X131182290Y-106602040D02*
X131127176Y-106542938D01*
X131127176Y-106542938D02*
X131071065Y-106512389D01*
X131071065Y-106512389D02*
X130957846Y-106479847D01*
X130957846Y-106479847D02*
X130872184Y-106476855D01*
X130872184Y-106476855D02*
X130756971Y-106501421D01*
X130756971Y-106501421D02*
X130698866Y-106527981D01*
X130698866Y-106527981D02*
X130639764Y-106583095D01*
X130639764Y-106583095D02*
X130608218Y-106667759D01*
X130608218Y-106667759D02*
X130606224Y-106724868D01*
X130606224Y-106724868D02*
X130631787Y-106811527D01*
X130631787Y-106811527D02*
X130659343Y-106841078D01*
X130784165Y-107360036D02*
X131183922Y-107373996D01*
X130560719Y-107209289D02*
X130994015Y-107081476D01*
X130994015Y-107081476D02*
X130981052Y-107452678D01*
X137938614Y-115274409D02*
X137963491Y-115306249D01*
X137963491Y-115306249D02*
X138045084Y-115345054D01*
X138045084Y-115345054D02*
X138101801Y-115352018D01*
X138101801Y-115352018D02*
X138190358Y-115334105D01*
X138190358Y-115334105D02*
X138254039Y-115284352D01*
X138254039Y-115284352D02*
X138289362Y-115231117D01*
X138289362Y-115231117D02*
X138331648Y-115121165D01*
X138331648Y-115121165D02*
X138342094Y-115036090D01*
X138342094Y-115036090D02*
X138327663Y-114919174D01*
X138327663Y-114919174D02*
X138306269Y-114858975D01*
X138306269Y-114858975D02*
X138256516Y-114795294D01*
X138256516Y-114795294D02*
X138174922Y-114756490D01*
X138174922Y-114756490D02*
X138118206Y-114749526D01*
X138118206Y-114749526D02*
X138029648Y-114767438D01*
X138029648Y-114767438D02*
X137997808Y-114792315D01*
X137648065Y-115296306D02*
X137534632Y-115282378D01*
X137534632Y-115282378D02*
X137481397Y-115247055D01*
X137481397Y-115247055D02*
X137456520Y-115215215D01*
X137456520Y-115215215D02*
X137410249Y-115123176D01*
X137410249Y-115123176D02*
X137395819Y-115006260D01*
X137395819Y-115006260D02*
X137423675Y-114779392D01*
X137423675Y-114779392D02*
X137458997Y-114726157D01*
X137458997Y-114726157D02*
X137490837Y-114701281D01*
X137490837Y-114701281D02*
X137551036Y-114679886D01*
X137551036Y-114679886D02*
X137664470Y-114693814D01*
X137664470Y-114693814D02*
X137717705Y-114729137D01*
X137717705Y-114729137D02*
X137742582Y-114760977D01*
X137742582Y-114760977D02*
X137763976Y-114821176D01*
X137763976Y-114821176D02*
X137746566Y-114962968D01*
X137746566Y-114962968D02*
X137711244Y-115016203D01*
X137711244Y-115016203D02*
X137679403Y-115041080D01*
X137679403Y-115041080D02*
X137619204Y-115062474D01*
X137619204Y-115062474D02*
X137505771Y-115048546D01*
X137505771Y-115048546D02*
X137452536Y-115013224D01*
X137452536Y-115013224D02*
X137427659Y-114981383D01*
X137427659Y-114981383D02*
X137406265Y-114921184D01*
M02*
