%TF.GenerationSoftware,KiCad,Pcbnew,9.0.9.1-1.fc43*%
%TF.CreationDate,2026-06-28T21:25:27-06:00*%
%TF.ProjectId,rp2350-console-v2-stitched,72703233-3530-42d6-936f-6e736f6c652d,rev?*%
%TF.SameCoordinates,Original*%
%TF.FileFunction,AssemblyDrawing,Bot*%
%FSLAX46Y46*%
G04 Gerber Fmt 4.6, Leading zero omitted, Abs format (unit mm)*
G04 Created by KiCad (PCBNEW 9.0.9.1-1.fc43) date 2026-06-28 21:25:27*
%MOMM*%
%LPD*%
G01*
G04 APERTURE LIST*
%ADD10C,0.075000*%
G04 APERTURE END LIST*
D10*
X139603570Y-96734885D02*
X139774999Y-96734885D01*
X139689284Y-96734885D02*
X139689284Y-96434885D01*
X139689284Y-96434885D02*
X139717856Y-96477742D01*
X139717856Y-96477742D02*
X139746427Y-96506314D01*
X139746427Y-96506314D02*
X139774999Y-96520600D01*
X139417856Y-96434885D02*
X139389285Y-96434885D01*
X139389285Y-96434885D02*
X139360713Y-96449171D01*
X139360713Y-96449171D02*
X139346428Y-96463457D01*
X139346428Y-96463457D02*
X139332142Y-96492028D01*
X139332142Y-96492028D02*
X139317856Y-96549171D01*
X139317856Y-96549171D02*
X139317856Y-96620600D01*
X139317856Y-96620600D02*
X139332142Y-96677742D01*
X139332142Y-96677742D02*
X139346428Y-96706314D01*
X139346428Y-96706314D02*
X139360713Y-96720600D01*
X139360713Y-96720600D02*
X139389285Y-96734885D01*
X139389285Y-96734885D02*
X139417856Y-96734885D01*
X139417856Y-96734885D02*
X139446428Y-96720600D01*
X139446428Y-96720600D02*
X139460713Y-96706314D01*
X139460713Y-96706314D02*
X139474999Y-96677742D01*
X139474999Y-96677742D02*
X139489285Y-96620600D01*
X139489285Y-96620600D02*
X139489285Y-96549171D01*
X139489285Y-96549171D02*
X139474999Y-96492028D01*
X139474999Y-96492028D02*
X139460713Y-96463457D01*
X139460713Y-96463457D02*
X139446428Y-96449171D01*
X139446428Y-96449171D02*
X139417856Y-96434885D01*
X139132142Y-96434885D02*
X139103571Y-96434885D01*
X139103571Y-96434885D02*
X139074999Y-96449171D01*
X139074999Y-96449171D02*
X139060714Y-96463457D01*
X139060714Y-96463457D02*
X139046428Y-96492028D01*
X139046428Y-96492028D02*
X139032142Y-96549171D01*
X139032142Y-96549171D02*
X139032142Y-96620600D01*
X139032142Y-96620600D02*
X139046428Y-96677742D01*
X139046428Y-96677742D02*
X139060714Y-96706314D01*
X139060714Y-96706314D02*
X139074999Y-96720600D01*
X139074999Y-96720600D02*
X139103571Y-96734885D01*
X139103571Y-96734885D02*
X139132142Y-96734885D01*
X139132142Y-96734885D02*
X139160714Y-96720600D01*
X139160714Y-96720600D02*
X139174999Y-96706314D01*
X139174999Y-96706314D02*
X139189285Y-96677742D01*
X139189285Y-96677742D02*
X139203571Y-96620600D01*
X139203571Y-96620600D02*
X139203571Y-96549171D01*
X139203571Y-96549171D02*
X139189285Y-96492028D01*
X139189285Y-96492028D02*
X139174999Y-96463457D01*
X139174999Y-96463457D02*
X139160714Y-96449171D01*
X139160714Y-96449171D02*
X139132142Y-96434885D01*
X138675000Y-96534885D02*
X138675000Y-96734885D01*
X138675000Y-96563457D02*
X138660714Y-96549171D01*
X138660714Y-96549171D02*
X138632143Y-96534885D01*
X138632143Y-96534885D02*
X138589286Y-96534885D01*
X138589286Y-96534885D02*
X138560714Y-96549171D01*
X138560714Y-96549171D02*
X138546429Y-96577742D01*
X138546429Y-96577742D02*
X138546429Y-96734885D01*
X138303571Y-96577742D02*
X138403571Y-96577742D01*
X138403571Y-96734885D02*
X138403571Y-96434885D01*
X138403571Y-96434885D02*
X138260714Y-96434885D01*
X145879570Y-108684885D02*
X146050999Y-108684885D01*
X145965284Y-108684885D02*
X145965284Y-108384885D01*
X145965284Y-108384885D02*
X145993856Y-108427742D01*
X145993856Y-108427742D02*
X146022427Y-108456314D01*
X146022427Y-108456314D02*
X146050999Y-108470600D01*
X145693856Y-108384885D02*
X145665285Y-108384885D01*
X145665285Y-108384885D02*
X145636713Y-108399171D01*
X145636713Y-108399171D02*
X145622428Y-108413457D01*
X145622428Y-108413457D02*
X145608142Y-108442028D01*
X145608142Y-108442028D02*
X145593856Y-108499171D01*
X145593856Y-108499171D02*
X145593856Y-108570600D01*
X145593856Y-108570600D02*
X145608142Y-108627742D01*
X145608142Y-108627742D02*
X145622428Y-108656314D01*
X145622428Y-108656314D02*
X145636713Y-108670600D01*
X145636713Y-108670600D02*
X145665285Y-108684885D01*
X145665285Y-108684885D02*
X145693856Y-108684885D01*
X145693856Y-108684885D02*
X145722428Y-108670600D01*
X145722428Y-108670600D02*
X145736713Y-108656314D01*
X145736713Y-108656314D02*
X145750999Y-108627742D01*
X145750999Y-108627742D02*
X145765285Y-108570600D01*
X145765285Y-108570600D02*
X145765285Y-108499171D01*
X145765285Y-108499171D02*
X145750999Y-108442028D01*
X145750999Y-108442028D02*
X145736713Y-108413457D01*
X145736713Y-108413457D02*
X145722428Y-108399171D01*
X145722428Y-108399171D02*
X145693856Y-108384885D01*
X145408142Y-108384885D02*
X145379571Y-108384885D01*
X145379571Y-108384885D02*
X145350999Y-108399171D01*
X145350999Y-108399171D02*
X145336714Y-108413457D01*
X145336714Y-108413457D02*
X145322428Y-108442028D01*
X145322428Y-108442028D02*
X145308142Y-108499171D01*
X145308142Y-108499171D02*
X145308142Y-108570600D01*
X145308142Y-108570600D02*
X145322428Y-108627742D01*
X145322428Y-108627742D02*
X145336714Y-108656314D01*
X145336714Y-108656314D02*
X145350999Y-108670600D01*
X145350999Y-108670600D02*
X145379571Y-108684885D01*
X145379571Y-108684885D02*
X145408142Y-108684885D01*
X145408142Y-108684885D02*
X145436714Y-108670600D01*
X145436714Y-108670600D02*
X145450999Y-108656314D01*
X145450999Y-108656314D02*
X145465285Y-108627742D01*
X145465285Y-108627742D02*
X145479571Y-108570600D01*
X145479571Y-108570600D02*
X145479571Y-108499171D01*
X145479571Y-108499171D02*
X145465285Y-108442028D01*
X145465285Y-108442028D02*
X145450999Y-108413457D01*
X145450999Y-108413457D02*
X145436714Y-108399171D01*
X145436714Y-108399171D02*
X145408142Y-108384885D01*
X144951000Y-108484885D02*
X144951000Y-108684885D01*
X144951000Y-108513457D02*
X144936714Y-108499171D01*
X144936714Y-108499171D02*
X144908143Y-108484885D01*
X144908143Y-108484885D02*
X144865286Y-108484885D01*
X144865286Y-108484885D02*
X144836714Y-108499171D01*
X144836714Y-108499171D02*
X144822429Y-108527742D01*
X144822429Y-108527742D02*
X144822429Y-108684885D01*
X144579571Y-108527742D02*
X144679571Y-108527742D01*
X144679571Y-108684885D02*
X144679571Y-108384885D01*
X144679571Y-108384885D02*
X144536714Y-108384885D01*
X139178570Y-102134885D02*
X139349999Y-102134885D01*
X139264284Y-102134885D02*
X139264284Y-101834885D01*
X139264284Y-101834885D02*
X139292856Y-101877742D01*
X139292856Y-101877742D02*
X139321427Y-101906314D01*
X139321427Y-101906314D02*
X139349999Y-101920600D01*
X138992856Y-101834885D02*
X138964285Y-101834885D01*
X138964285Y-101834885D02*
X138935713Y-101849171D01*
X138935713Y-101849171D02*
X138921428Y-101863457D01*
X138921428Y-101863457D02*
X138907142Y-101892028D01*
X138907142Y-101892028D02*
X138892856Y-101949171D01*
X138892856Y-101949171D02*
X138892856Y-102020600D01*
X138892856Y-102020600D02*
X138907142Y-102077742D01*
X138907142Y-102077742D02*
X138921428Y-102106314D01*
X138921428Y-102106314D02*
X138935713Y-102120600D01*
X138935713Y-102120600D02*
X138964285Y-102134885D01*
X138964285Y-102134885D02*
X138992856Y-102134885D01*
X138992856Y-102134885D02*
X139021428Y-102120600D01*
X139021428Y-102120600D02*
X139035713Y-102106314D01*
X139035713Y-102106314D02*
X139049999Y-102077742D01*
X139049999Y-102077742D02*
X139064285Y-102020600D01*
X139064285Y-102020600D02*
X139064285Y-101949171D01*
X139064285Y-101949171D02*
X139049999Y-101892028D01*
X139049999Y-101892028D02*
X139035713Y-101863457D01*
X139035713Y-101863457D02*
X139021428Y-101849171D01*
X139021428Y-101849171D02*
X138992856Y-101834885D01*
X138707142Y-101834885D02*
X138678571Y-101834885D01*
X138678571Y-101834885D02*
X138649999Y-101849171D01*
X138649999Y-101849171D02*
X138635714Y-101863457D01*
X138635714Y-101863457D02*
X138621428Y-101892028D01*
X138621428Y-101892028D02*
X138607142Y-101949171D01*
X138607142Y-101949171D02*
X138607142Y-102020600D01*
X138607142Y-102020600D02*
X138621428Y-102077742D01*
X138621428Y-102077742D02*
X138635714Y-102106314D01*
X138635714Y-102106314D02*
X138649999Y-102120600D01*
X138649999Y-102120600D02*
X138678571Y-102134885D01*
X138678571Y-102134885D02*
X138707142Y-102134885D01*
X138707142Y-102134885D02*
X138735714Y-102120600D01*
X138735714Y-102120600D02*
X138749999Y-102106314D01*
X138749999Y-102106314D02*
X138764285Y-102077742D01*
X138764285Y-102077742D02*
X138778571Y-102020600D01*
X138778571Y-102020600D02*
X138778571Y-101949171D01*
X138778571Y-101949171D02*
X138764285Y-101892028D01*
X138764285Y-101892028D02*
X138749999Y-101863457D01*
X138749999Y-101863457D02*
X138735714Y-101849171D01*
X138735714Y-101849171D02*
X138707142Y-101834885D01*
X138250000Y-101934885D02*
X138250000Y-102134885D01*
X138250000Y-101963457D02*
X138235714Y-101949171D01*
X138235714Y-101949171D02*
X138207143Y-101934885D01*
X138207143Y-101934885D02*
X138164286Y-101934885D01*
X138164286Y-101934885D02*
X138135714Y-101949171D01*
X138135714Y-101949171D02*
X138121429Y-101977742D01*
X138121429Y-101977742D02*
X138121429Y-102134885D01*
X137878571Y-101977742D02*
X137978571Y-101977742D01*
X137978571Y-102134885D02*
X137978571Y-101834885D01*
X137978571Y-101834885D02*
X137835714Y-101834885D01*
X142607142Y-117034885D02*
X142778571Y-117034885D01*
X142692856Y-117034885D02*
X142692856Y-116734885D01*
X142692856Y-116734885D02*
X142721428Y-116777742D01*
X142721428Y-116777742D02*
X142749999Y-116806314D01*
X142749999Y-116806314D02*
X142778571Y-116820600D01*
X142421428Y-116734885D02*
X142392857Y-116734885D01*
X142392857Y-116734885D02*
X142364285Y-116749171D01*
X142364285Y-116749171D02*
X142350000Y-116763457D01*
X142350000Y-116763457D02*
X142335714Y-116792028D01*
X142335714Y-116792028D02*
X142321428Y-116849171D01*
X142321428Y-116849171D02*
X142321428Y-116920600D01*
X142321428Y-116920600D02*
X142335714Y-116977742D01*
X142335714Y-116977742D02*
X142350000Y-117006314D01*
X142350000Y-117006314D02*
X142364285Y-117020600D01*
X142364285Y-117020600D02*
X142392857Y-117034885D01*
X142392857Y-117034885D02*
X142421428Y-117034885D01*
X142421428Y-117034885D02*
X142450000Y-117020600D01*
X142450000Y-117020600D02*
X142464285Y-117006314D01*
X142464285Y-117006314D02*
X142478571Y-116977742D01*
X142478571Y-116977742D02*
X142492857Y-116920600D01*
X142492857Y-116920600D02*
X142492857Y-116849171D01*
X142492857Y-116849171D02*
X142478571Y-116792028D01*
X142478571Y-116792028D02*
X142464285Y-116763457D01*
X142464285Y-116763457D02*
X142450000Y-116749171D01*
X142450000Y-116749171D02*
X142421428Y-116734885D01*
X141964286Y-116834885D02*
X141964286Y-117134885D01*
X141821429Y-116992028D02*
X141807143Y-117020600D01*
X141807143Y-117020600D02*
X141778572Y-117034885D01*
X141964286Y-116992028D02*
X141950000Y-117020600D01*
X141950000Y-117020600D02*
X141921429Y-117034885D01*
X141921429Y-117034885D02*
X141864286Y-117034885D01*
X141864286Y-117034885D02*
X141835715Y-117020600D01*
X141835715Y-117020600D02*
X141821429Y-116992028D01*
X141821429Y-116992028D02*
X141821429Y-116834885D01*
X141550000Y-116877742D02*
X141650000Y-116877742D01*
X141650000Y-117034885D02*
X141650000Y-116734885D01*
X141650000Y-116734885D02*
X141507143Y-116734885D01*
X133570333Y-103998857D02*
X133642782Y-103843490D01*
X133606557Y-103921173D02*
X133334665Y-103794388D01*
X133334665Y-103794388D02*
X133385582Y-103786605D01*
X133385582Y-103786605D02*
X133423551Y-103772786D01*
X133423551Y-103772786D02*
X133448573Y-103752929D01*
X133219954Y-104040385D02*
X133207880Y-104066280D01*
X133207880Y-104066280D02*
X133208752Y-104098212D01*
X133208752Y-104098212D02*
X133215662Y-104117196D01*
X133215662Y-104117196D02*
X133235519Y-104142218D01*
X133235519Y-104142218D02*
X133281271Y-104179315D01*
X133281271Y-104179315D02*
X133346007Y-104209502D01*
X133346007Y-104209502D02*
X133403833Y-104220705D01*
X133403833Y-104220705D02*
X133435765Y-104219832D01*
X133435765Y-104219832D02*
X133454750Y-104212922D01*
X133454750Y-104212922D02*
X133479772Y-104193065D01*
X133479772Y-104193065D02*
X133491847Y-104167171D01*
X133491847Y-104167171D02*
X133490974Y-104135239D01*
X133490974Y-104135239D02*
X133484065Y-104116254D01*
X133484065Y-104116254D02*
X133464207Y-104091232D01*
X133464207Y-104091232D02*
X133418456Y-104054135D01*
X133418456Y-104054135D02*
X133353720Y-104023948D01*
X133353720Y-104023948D02*
X133295893Y-104012746D01*
X133295893Y-104012746D02*
X133263961Y-104013618D01*
X133263961Y-104013618D02*
X133244977Y-104020528D01*
X133244977Y-104020528D02*
X133219954Y-104040385D01*
X133099207Y-104299330D02*
X133087132Y-104325225D01*
X133087132Y-104325225D02*
X133088004Y-104357156D01*
X133088004Y-104357156D02*
X133094914Y-104376141D01*
X133094914Y-104376141D02*
X133114771Y-104401163D01*
X133114771Y-104401163D02*
X133160523Y-104438260D01*
X133160523Y-104438260D02*
X133225259Y-104468447D01*
X133225259Y-104468447D02*
X133283085Y-104479649D01*
X133283085Y-104479649D02*
X133315017Y-104478777D01*
X133315017Y-104478777D02*
X133334002Y-104471867D01*
X133334002Y-104471867D02*
X133359024Y-104452010D01*
X133359024Y-104452010D02*
X133371099Y-104426116D01*
X133371099Y-104426116D02*
X133370226Y-104394184D01*
X133370226Y-104394184D02*
X133363317Y-104375199D01*
X133363317Y-104375199D02*
X133343459Y-104350177D01*
X133343459Y-104350177D02*
X133297708Y-104313080D01*
X133297708Y-104313080D02*
X133232972Y-104282893D01*
X133232972Y-104282893D02*
X133175145Y-104271691D01*
X133175145Y-104271691D02*
X133143213Y-104272563D01*
X133143213Y-104272563D02*
X133124229Y-104279473D01*
X133124229Y-104279473D02*
X133099207Y-104299330D01*
X132996641Y-104755903D02*
X133177902Y-104840427D01*
X133022535Y-104767978D02*
X133003551Y-104774888D01*
X133003551Y-104774888D02*
X132978528Y-104794745D01*
X132978528Y-104794745D02*
X132960416Y-104833587D01*
X132960416Y-104833587D02*
X132961289Y-104865519D01*
X132961289Y-104865519D02*
X132981146Y-104890541D01*
X132981146Y-104890541D02*
X133123566Y-104956952D01*
X132878510Y-105110645D02*
X132920772Y-105020014D01*
X133063191Y-105086425D02*
X132791299Y-104959640D01*
X132791299Y-104959640D02*
X132730925Y-105089112D01*
X141978570Y-102134885D02*
X142149999Y-102134885D01*
X142064284Y-102134885D02*
X142064284Y-101834885D01*
X142064284Y-101834885D02*
X142092856Y-101877742D01*
X142092856Y-101877742D02*
X142121427Y-101906314D01*
X142121427Y-101906314D02*
X142149999Y-101920600D01*
X141792856Y-101834885D02*
X141764285Y-101834885D01*
X141764285Y-101834885D02*
X141735713Y-101849171D01*
X141735713Y-101849171D02*
X141721428Y-101863457D01*
X141721428Y-101863457D02*
X141707142Y-101892028D01*
X141707142Y-101892028D02*
X141692856Y-101949171D01*
X141692856Y-101949171D02*
X141692856Y-102020600D01*
X141692856Y-102020600D02*
X141707142Y-102077742D01*
X141707142Y-102077742D02*
X141721428Y-102106314D01*
X141721428Y-102106314D02*
X141735713Y-102120600D01*
X141735713Y-102120600D02*
X141764285Y-102134885D01*
X141764285Y-102134885D02*
X141792856Y-102134885D01*
X141792856Y-102134885D02*
X141821428Y-102120600D01*
X141821428Y-102120600D02*
X141835713Y-102106314D01*
X141835713Y-102106314D02*
X141849999Y-102077742D01*
X141849999Y-102077742D02*
X141864285Y-102020600D01*
X141864285Y-102020600D02*
X141864285Y-101949171D01*
X141864285Y-101949171D02*
X141849999Y-101892028D01*
X141849999Y-101892028D02*
X141835713Y-101863457D01*
X141835713Y-101863457D02*
X141821428Y-101849171D01*
X141821428Y-101849171D02*
X141792856Y-101834885D01*
X141507142Y-101834885D02*
X141478571Y-101834885D01*
X141478571Y-101834885D02*
X141449999Y-101849171D01*
X141449999Y-101849171D02*
X141435714Y-101863457D01*
X141435714Y-101863457D02*
X141421428Y-101892028D01*
X141421428Y-101892028D02*
X141407142Y-101949171D01*
X141407142Y-101949171D02*
X141407142Y-102020600D01*
X141407142Y-102020600D02*
X141421428Y-102077742D01*
X141421428Y-102077742D02*
X141435714Y-102106314D01*
X141435714Y-102106314D02*
X141449999Y-102120600D01*
X141449999Y-102120600D02*
X141478571Y-102134885D01*
X141478571Y-102134885D02*
X141507142Y-102134885D01*
X141507142Y-102134885D02*
X141535714Y-102120600D01*
X141535714Y-102120600D02*
X141549999Y-102106314D01*
X141549999Y-102106314D02*
X141564285Y-102077742D01*
X141564285Y-102077742D02*
X141578571Y-102020600D01*
X141578571Y-102020600D02*
X141578571Y-101949171D01*
X141578571Y-101949171D02*
X141564285Y-101892028D01*
X141564285Y-101892028D02*
X141549999Y-101863457D01*
X141549999Y-101863457D02*
X141535714Y-101849171D01*
X141535714Y-101849171D02*
X141507142Y-101834885D01*
X141050000Y-101934885D02*
X141050000Y-102134885D01*
X141050000Y-101963457D02*
X141035714Y-101949171D01*
X141035714Y-101949171D02*
X141007143Y-101934885D01*
X141007143Y-101934885D02*
X140964286Y-101934885D01*
X140964286Y-101934885D02*
X140935714Y-101949171D01*
X140935714Y-101949171D02*
X140921429Y-101977742D01*
X140921429Y-101977742D02*
X140921429Y-102134885D01*
X140678571Y-101977742D02*
X140778571Y-101977742D01*
X140778571Y-102134885D02*
X140778571Y-101834885D01*
X140778571Y-101834885D02*
X140635714Y-101834885D01*
X148265508Y-105042795D02*
X148363835Y-105183221D01*
X148314672Y-105113008D02*
X148560417Y-104940935D01*
X148560417Y-104940935D02*
X148541699Y-104988921D01*
X148541699Y-104988921D02*
X148534682Y-105028714D01*
X148534682Y-105028714D02*
X148539368Y-105060312D01*
X148404732Y-104718594D02*
X148388345Y-104695190D01*
X148388345Y-104695190D02*
X148360255Y-104679979D01*
X148360255Y-104679979D02*
X148340358Y-104676471D01*
X148340358Y-104676471D02*
X148308760Y-104681157D01*
X148308760Y-104681157D02*
X148253757Y-104702230D01*
X148253757Y-104702230D02*
X148195247Y-104743200D01*
X148195247Y-104743200D02*
X148156632Y-104787678D01*
X148156632Y-104787678D02*
X148141421Y-104815768D01*
X148141421Y-104815768D02*
X148137913Y-104835664D01*
X148137913Y-104835664D02*
X148142599Y-104867263D01*
X148142599Y-104867263D02*
X148158987Y-104890667D01*
X148158987Y-104890667D02*
X148187077Y-104905877D01*
X148187077Y-104905877D02*
X148206973Y-104909386D01*
X148206973Y-104909386D02*
X148238571Y-104904700D01*
X148238571Y-104904700D02*
X148293574Y-104883626D01*
X148293574Y-104883626D02*
X148352085Y-104842657D01*
X148352085Y-104842657D02*
X148390700Y-104798179D01*
X148390700Y-104798179D02*
X148405910Y-104770089D01*
X148405910Y-104770089D02*
X148409418Y-104750192D01*
X148409418Y-104750192D02*
X148404732Y-104718594D01*
X148240854Y-104484551D02*
X148224466Y-104461147D01*
X148224466Y-104461147D02*
X148196376Y-104445936D01*
X148196376Y-104445936D02*
X148176480Y-104442428D01*
X148176480Y-104442428D02*
X148144881Y-104447114D01*
X148144881Y-104447114D02*
X148089879Y-104468187D01*
X148089879Y-104468187D02*
X148031368Y-104509157D01*
X148031368Y-104509157D02*
X147992753Y-104553635D01*
X147992753Y-104553635D02*
X147977543Y-104581725D01*
X147977543Y-104581725D02*
X147974034Y-104601621D01*
X147974034Y-104601621D02*
X147978720Y-104633219D01*
X147978720Y-104633219D02*
X147995108Y-104656624D01*
X147995108Y-104656624D02*
X148023198Y-104671834D01*
X148023198Y-104671834D02*
X148043094Y-104675342D01*
X148043094Y-104675342D02*
X148074693Y-104670657D01*
X148074693Y-104670657D02*
X148129695Y-104649583D01*
X148129695Y-104649583D02*
X148188206Y-104608613D01*
X148188206Y-104608613D02*
X148226821Y-104564135D01*
X148226821Y-104564135D02*
X148242031Y-104536045D01*
X148242031Y-104536045D02*
X148245539Y-104516149D01*
X148245539Y-104516149D02*
X148240854Y-104484551D01*
X147896732Y-104167440D02*
X147732902Y-104282155D01*
X147873328Y-104183828D02*
X147876836Y-104163931D01*
X147876836Y-104163931D02*
X147872151Y-104132333D01*
X147872151Y-104132333D02*
X147847569Y-104097227D01*
X147847569Y-104097227D02*
X147819479Y-104082016D01*
X147819479Y-104082016D02*
X147787880Y-104086702D01*
X147787880Y-104086702D02*
X147659157Y-104176835D01*
X147648583Y-103887765D02*
X147705941Y-103969680D01*
X147577217Y-104059813D02*
X147822962Y-103887740D01*
X147822962Y-103887740D02*
X147741023Y-103770719D01*
X142457142Y-98534885D02*
X142457142Y-98734885D01*
X142528570Y-98420600D02*
X142599999Y-98634885D01*
X142599999Y-98634885D02*
X142414284Y-98634885D01*
X142299999Y-98706314D02*
X142285713Y-98720600D01*
X142285713Y-98720600D02*
X142299999Y-98734885D01*
X142299999Y-98734885D02*
X142314285Y-98720600D01*
X142314285Y-98720600D02*
X142299999Y-98706314D01*
X142299999Y-98706314D02*
X142299999Y-98734885D01*
X142185713Y-98434885D02*
X141985713Y-98434885D01*
X141985713Y-98434885D02*
X142114285Y-98734885D01*
X141642857Y-98534885D02*
X141642857Y-98834885D01*
X141500000Y-98692028D02*
X141485714Y-98720600D01*
X141485714Y-98720600D02*
X141457143Y-98734885D01*
X141642857Y-98692028D02*
X141628571Y-98720600D01*
X141628571Y-98720600D02*
X141600000Y-98734885D01*
X141600000Y-98734885D02*
X141542857Y-98734885D01*
X141542857Y-98734885D02*
X141514286Y-98720600D01*
X141514286Y-98720600D02*
X141500000Y-98692028D01*
X141500000Y-98692028D02*
X141500000Y-98534885D01*
X141228571Y-98577742D02*
X141328571Y-98577742D01*
X141328571Y-98734885D02*
X141328571Y-98434885D01*
X141328571Y-98434885D02*
X141185714Y-98434885D01*
X141778570Y-114634885D02*
X141949999Y-114634885D01*
X141864284Y-114634885D02*
X141864284Y-114334885D01*
X141864284Y-114334885D02*
X141892856Y-114377742D01*
X141892856Y-114377742D02*
X141921427Y-114406314D01*
X141921427Y-114406314D02*
X141949999Y-114420600D01*
X141592856Y-114334885D02*
X141564285Y-114334885D01*
X141564285Y-114334885D02*
X141535713Y-114349171D01*
X141535713Y-114349171D02*
X141521428Y-114363457D01*
X141521428Y-114363457D02*
X141507142Y-114392028D01*
X141507142Y-114392028D02*
X141492856Y-114449171D01*
X141492856Y-114449171D02*
X141492856Y-114520600D01*
X141492856Y-114520600D02*
X141507142Y-114577742D01*
X141507142Y-114577742D02*
X141521428Y-114606314D01*
X141521428Y-114606314D02*
X141535713Y-114620600D01*
X141535713Y-114620600D02*
X141564285Y-114634885D01*
X141564285Y-114634885D02*
X141592856Y-114634885D01*
X141592856Y-114634885D02*
X141621428Y-114620600D01*
X141621428Y-114620600D02*
X141635713Y-114606314D01*
X141635713Y-114606314D02*
X141649999Y-114577742D01*
X141649999Y-114577742D02*
X141664285Y-114520600D01*
X141664285Y-114520600D02*
X141664285Y-114449171D01*
X141664285Y-114449171D02*
X141649999Y-114392028D01*
X141649999Y-114392028D02*
X141635713Y-114363457D01*
X141635713Y-114363457D02*
X141621428Y-114349171D01*
X141621428Y-114349171D02*
X141592856Y-114334885D01*
X141307142Y-114334885D02*
X141278571Y-114334885D01*
X141278571Y-114334885D02*
X141249999Y-114349171D01*
X141249999Y-114349171D02*
X141235714Y-114363457D01*
X141235714Y-114363457D02*
X141221428Y-114392028D01*
X141221428Y-114392028D02*
X141207142Y-114449171D01*
X141207142Y-114449171D02*
X141207142Y-114520600D01*
X141207142Y-114520600D02*
X141221428Y-114577742D01*
X141221428Y-114577742D02*
X141235714Y-114606314D01*
X141235714Y-114606314D02*
X141249999Y-114620600D01*
X141249999Y-114620600D02*
X141278571Y-114634885D01*
X141278571Y-114634885D02*
X141307142Y-114634885D01*
X141307142Y-114634885D02*
X141335714Y-114620600D01*
X141335714Y-114620600D02*
X141349999Y-114606314D01*
X141349999Y-114606314D02*
X141364285Y-114577742D01*
X141364285Y-114577742D02*
X141378571Y-114520600D01*
X141378571Y-114520600D02*
X141378571Y-114449171D01*
X141378571Y-114449171D02*
X141364285Y-114392028D01*
X141364285Y-114392028D02*
X141349999Y-114363457D01*
X141349999Y-114363457D02*
X141335714Y-114349171D01*
X141335714Y-114349171D02*
X141307142Y-114334885D01*
X140850000Y-114434885D02*
X140850000Y-114634885D01*
X140850000Y-114463457D02*
X140835714Y-114449171D01*
X140835714Y-114449171D02*
X140807143Y-114434885D01*
X140807143Y-114434885D02*
X140764286Y-114434885D01*
X140764286Y-114434885D02*
X140735714Y-114449171D01*
X140735714Y-114449171D02*
X140721429Y-114477742D01*
X140721429Y-114477742D02*
X140721429Y-114634885D01*
X140478571Y-114477742D02*
X140578571Y-114477742D01*
X140578571Y-114634885D02*
X140578571Y-114334885D01*
X140578571Y-114334885D02*
X140435714Y-114334885D01*
X147751928Y-100061097D02*
X147628795Y-100218699D01*
X147878576Y-100015014D02*
X147802935Y-100227849D01*
X147802935Y-100227849D02*
X147656590Y-100113512D01*
X147522556Y-100099438D02*
X147502503Y-100101900D01*
X147502503Y-100101900D02*
X147504965Y-100121952D01*
X147504965Y-100121952D02*
X147525018Y-100119490D01*
X147525018Y-100119490D02*
X147522556Y-100099438D01*
X147522556Y-100099438D02*
X147504965Y-100121952D01*
X147599606Y-99815188D02*
X147442003Y-99692055D01*
X147442003Y-99692055D02*
X147358621Y-100007615D01*
X147110263Y-99559773D02*
X146925564Y-99796176D01*
X146900943Y-99595652D02*
X146872095Y-99609371D01*
X146872095Y-99609371D02*
X146840786Y-99603038D01*
X147013516Y-99683603D02*
X146984668Y-99697323D01*
X146984668Y-99697323D02*
X146953359Y-99690990D01*
X146953359Y-99690990D02*
X146908329Y-99655809D01*
X146908329Y-99655809D02*
X146894610Y-99626961D01*
X146894610Y-99626961D02*
X146900943Y-99595652D01*
X146900943Y-99595652D02*
X146997690Y-99471821D01*
X146757415Y-99338485D02*
X146836217Y-99400051D01*
X146739470Y-99523881D02*
X146924168Y-99287478D01*
X146924168Y-99287478D02*
X146811595Y-99199526D01*
X133507142Y-117634885D02*
X133678571Y-117634885D01*
X133592856Y-117634885D02*
X133592856Y-117334885D01*
X133592856Y-117334885D02*
X133621428Y-117377742D01*
X133621428Y-117377742D02*
X133649999Y-117406314D01*
X133649999Y-117406314D02*
X133678571Y-117420600D01*
X133321428Y-117334885D02*
X133292857Y-117334885D01*
X133292857Y-117334885D02*
X133264285Y-117349171D01*
X133264285Y-117349171D02*
X133250000Y-117363457D01*
X133250000Y-117363457D02*
X133235714Y-117392028D01*
X133235714Y-117392028D02*
X133221428Y-117449171D01*
X133221428Y-117449171D02*
X133221428Y-117520600D01*
X133221428Y-117520600D02*
X133235714Y-117577742D01*
X133235714Y-117577742D02*
X133250000Y-117606314D01*
X133250000Y-117606314D02*
X133264285Y-117620600D01*
X133264285Y-117620600D02*
X133292857Y-117634885D01*
X133292857Y-117634885D02*
X133321428Y-117634885D01*
X133321428Y-117634885D02*
X133350000Y-117620600D01*
X133350000Y-117620600D02*
X133364285Y-117606314D01*
X133364285Y-117606314D02*
X133378571Y-117577742D01*
X133378571Y-117577742D02*
X133392857Y-117520600D01*
X133392857Y-117520600D02*
X133392857Y-117449171D01*
X133392857Y-117449171D02*
X133378571Y-117392028D01*
X133378571Y-117392028D02*
X133364285Y-117363457D01*
X133364285Y-117363457D02*
X133350000Y-117349171D01*
X133350000Y-117349171D02*
X133321428Y-117334885D01*
X132864286Y-117434885D02*
X132864286Y-117734885D01*
X132721429Y-117592028D02*
X132707143Y-117620600D01*
X132707143Y-117620600D02*
X132678572Y-117634885D01*
X132864286Y-117592028D02*
X132850000Y-117620600D01*
X132850000Y-117620600D02*
X132821429Y-117634885D01*
X132821429Y-117634885D02*
X132764286Y-117634885D01*
X132764286Y-117634885D02*
X132735715Y-117620600D01*
X132735715Y-117620600D02*
X132721429Y-117592028D01*
X132721429Y-117592028D02*
X132721429Y-117434885D01*
X132450000Y-117477742D02*
X132550000Y-117477742D01*
X132550000Y-117634885D02*
X132550000Y-117334885D01*
X132550000Y-117334885D02*
X132407143Y-117334885D01*
X145769309Y-104541769D02*
X145874851Y-104676857D01*
X145822080Y-104609313D02*
X146058483Y-104424615D01*
X146058483Y-104424615D02*
X146042301Y-104473515D01*
X146042301Y-104473515D02*
X146037377Y-104513620D01*
X146037377Y-104513620D02*
X146043710Y-104544929D01*
X145891375Y-104210726D02*
X145873785Y-104188212D01*
X145873785Y-104188212D02*
X145844937Y-104174492D01*
X145844937Y-104174492D02*
X145824885Y-104172030D01*
X145824885Y-104172030D02*
X145793575Y-104178363D01*
X145793575Y-104178363D02*
X145739750Y-104202286D01*
X145739750Y-104202286D02*
X145683464Y-104246262D01*
X145683464Y-104246262D02*
X145647230Y-104292700D01*
X145647230Y-104292700D02*
X145633511Y-104321548D01*
X145633511Y-104321548D02*
X145631048Y-104341600D01*
X145631048Y-104341600D02*
X145637381Y-104372910D01*
X145637381Y-104372910D02*
X145654972Y-104395425D01*
X145654972Y-104395425D02*
X145683819Y-104409144D01*
X145683819Y-104409144D02*
X145703872Y-104411606D01*
X145703872Y-104411606D02*
X145735182Y-104405273D01*
X145735182Y-104405273D02*
X145789006Y-104381350D01*
X145789006Y-104381350D02*
X145845292Y-104337374D01*
X145845292Y-104337374D02*
X145881526Y-104290936D01*
X145881526Y-104290936D02*
X145895246Y-104262088D01*
X145895246Y-104262088D02*
X145897708Y-104242036D01*
X145897708Y-104242036D02*
X145891375Y-104210726D01*
X145715472Y-103985580D02*
X145697882Y-103963066D01*
X145697882Y-103963066D02*
X145669034Y-103949346D01*
X145669034Y-103949346D02*
X145648981Y-103946884D01*
X145648981Y-103946884D02*
X145617672Y-103953217D01*
X145617672Y-103953217D02*
X145563847Y-103977141D01*
X145563847Y-103977141D02*
X145507561Y-104021117D01*
X145507561Y-104021117D02*
X145471327Y-104067555D01*
X145471327Y-104067555D02*
X145457607Y-104096402D01*
X145457607Y-104096402D02*
X145455145Y-104116455D01*
X145455145Y-104116455D02*
X145461478Y-104147764D01*
X145461478Y-104147764D02*
X145479069Y-104170279D01*
X145479069Y-104170279D02*
X145507916Y-104183998D01*
X145507916Y-104183998D02*
X145527969Y-104186460D01*
X145527969Y-104186460D02*
X145559279Y-104180127D01*
X145559279Y-104180127D02*
X145613103Y-104156204D01*
X145613103Y-104156204D02*
X145669389Y-104112228D01*
X145669389Y-104112228D02*
X145705623Y-104065790D01*
X145705623Y-104065790D02*
X145719343Y-104036943D01*
X145719343Y-104036943D02*
X145721805Y-104016890D01*
X145721805Y-104016890D02*
X145715472Y-103985580D01*
X145355226Y-103686914D02*
X145197624Y-103810046D01*
X145332711Y-103704504D02*
X145335174Y-103684452D01*
X145335174Y-103684452D02*
X145328841Y-103653142D01*
X145328841Y-103653142D02*
X145302455Y-103619370D01*
X145302455Y-103619370D02*
X145273607Y-103605651D01*
X145273607Y-103605651D02*
X145242298Y-103611984D01*
X145242298Y-103611984D02*
X145118467Y-103708730D01*
X145092780Y-103420609D02*
X145154346Y-103499410D01*
X145030515Y-103596157D02*
X145266919Y-103411459D01*
X145266919Y-103411459D02*
X145178967Y-103298886D01*
X146836123Y-112572794D02*
X146941664Y-112437706D01*
X146888893Y-112505250D02*
X146652490Y-112320551D01*
X146652490Y-112320551D02*
X146703852Y-112324422D01*
X146703852Y-112324422D02*
X146743957Y-112319498D01*
X146743957Y-112319498D02*
X146772805Y-112305779D01*
X146485382Y-112534440D02*
X146467792Y-112556954D01*
X146467792Y-112556954D02*
X146461459Y-112588264D01*
X146461459Y-112588264D02*
X146463921Y-112608317D01*
X146463921Y-112608317D02*
X146477641Y-112637164D01*
X146477641Y-112637164D02*
X146513875Y-112683602D01*
X146513875Y-112683602D02*
X146570161Y-112727578D01*
X146570161Y-112727578D02*
X146623985Y-112751501D01*
X146623985Y-112751501D02*
X146655295Y-112757834D01*
X146655295Y-112757834D02*
X146675348Y-112755372D01*
X146675348Y-112755372D02*
X146704195Y-112741653D01*
X146704195Y-112741653D02*
X146721786Y-112719138D01*
X146721786Y-112719138D02*
X146728119Y-112687828D01*
X146728119Y-112687828D02*
X146725656Y-112667776D01*
X146725656Y-112667776D02*
X146711937Y-112638928D01*
X146711937Y-112638928D02*
X146675703Y-112592490D01*
X146675703Y-112592490D02*
X146619417Y-112548515D01*
X146619417Y-112548515D02*
X146565592Y-112524591D01*
X146565592Y-112524591D02*
X146534282Y-112518258D01*
X146534282Y-112518258D02*
X146514230Y-112520720D01*
X146514230Y-112520720D02*
X146485382Y-112534440D01*
X146309479Y-112759585D02*
X146291889Y-112782100D01*
X146291889Y-112782100D02*
X146285556Y-112813410D01*
X146285556Y-112813410D02*
X146288018Y-112833462D01*
X146288018Y-112833462D02*
X146301737Y-112862310D01*
X146301737Y-112862310D02*
X146337971Y-112908748D01*
X146337971Y-112908748D02*
X146394258Y-112952724D01*
X146394258Y-112952724D02*
X146448082Y-112976647D01*
X146448082Y-112976647D02*
X146479392Y-112982980D01*
X146479392Y-112982980D02*
X146499444Y-112980518D01*
X146499444Y-112980518D02*
X146528292Y-112966799D01*
X146528292Y-112966799D02*
X146545882Y-112944284D01*
X146545882Y-112944284D02*
X146552215Y-112912974D01*
X146552215Y-112912974D02*
X146549753Y-112892922D01*
X146549753Y-112892922D02*
X146536034Y-112864074D01*
X146536034Y-112864074D02*
X146499800Y-112817636D01*
X146499800Y-112817636D02*
X146443513Y-112773660D01*
X146443513Y-112773660D02*
X146389689Y-112749737D01*
X146389689Y-112749737D02*
X146358379Y-112743404D01*
X146358379Y-112743404D02*
X146338327Y-112745866D01*
X146338327Y-112745866D02*
X146309479Y-112759585D01*
X146106835Y-113181385D02*
X146264438Y-113304517D01*
X146129350Y-113198975D02*
X146109298Y-113201437D01*
X146109298Y-113201437D02*
X146080450Y-113215156D01*
X146080450Y-113215156D02*
X146054065Y-113248928D01*
X146054065Y-113248928D02*
X146047731Y-113280238D01*
X146047731Y-113280238D02*
X146061451Y-113309086D01*
X146061451Y-113309086D02*
X146185281Y-113405833D01*
X145911933Y-113500460D02*
X145973499Y-113421659D01*
X146097329Y-113518406D02*
X145860926Y-113333707D01*
X145860926Y-113333707D02*
X145772974Y-113446280D01*
X132626393Y-110558332D02*
X132687827Y-110718375D01*
X132657110Y-110638354D02*
X132937184Y-110530843D01*
X132937184Y-110530843D02*
X132907413Y-110572876D01*
X132907413Y-110572876D02*
X132890978Y-110609788D01*
X132890978Y-110609788D02*
X132887880Y-110641582D01*
X132839913Y-110277443D02*
X132829674Y-110250769D01*
X132829674Y-110250769D02*
X132806098Y-110229215D01*
X132806098Y-110229215D02*
X132787642Y-110220998D01*
X132787642Y-110220998D02*
X132755848Y-110217900D01*
X132755848Y-110217900D02*
X132697381Y-110225041D01*
X132697381Y-110225041D02*
X132630697Y-110250639D01*
X132630697Y-110250639D02*
X132582469Y-110284454D01*
X132582469Y-110284454D02*
X132560915Y-110308030D01*
X132560915Y-110308030D02*
X132552698Y-110326486D01*
X132552698Y-110326486D02*
X132549600Y-110358280D01*
X132549600Y-110358280D02*
X132559839Y-110384953D01*
X132559839Y-110384953D02*
X132583415Y-110406508D01*
X132583415Y-110406508D02*
X132601871Y-110414725D01*
X132601871Y-110414725D02*
X132633665Y-110417823D01*
X132633665Y-110417823D02*
X132692132Y-110410681D01*
X132692132Y-110410681D02*
X132758816Y-110385084D01*
X132758816Y-110385084D02*
X132807044Y-110351269D01*
X132807044Y-110351269D02*
X132828598Y-110327693D01*
X132828598Y-110327693D02*
X132836815Y-110309236D01*
X132836815Y-110309236D02*
X132839913Y-110277443D01*
X132737522Y-110010706D02*
X132727283Y-109984032D01*
X132727283Y-109984032D02*
X132703707Y-109962478D01*
X132703707Y-109962478D02*
X132685251Y-109954261D01*
X132685251Y-109954261D02*
X132653458Y-109951163D01*
X132653458Y-109951163D02*
X132594991Y-109958304D01*
X132594991Y-109958304D02*
X132528306Y-109983902D01*
X132528306Y-109983902D02*
X132480079Y-110017717D01*
X132480079Y-110017717D02*
X132458524Y-110041293D01*
X132458524Y-110041293D02*
X132450307Y-110059749D01*
X132450307Y-110059749D02*
X132447209Y-110091543D01*
X132447209Y-110091543D02*
X132457448Y-110118216D01*
X132457448Y-110118216D02*
X132481024Y-110139771D01*
X132481024Y-110139771D02*
X132499481Y-110147988D01*
X132499481Y-110147988D02*
X132531274Y-110151086D01*
X132531274Y-110151086D02*
X132589741Y-110143944D01*
X132589741Y-110143944D02*
X132656425Y-110118347D01*
X132656425Y-110118347D02*
X132704653Y-110084532D01*
X132704653Y-110084532D02*
X132726207Y-110060956D01*
X132726207Y-110060956D02*
X132734425Y-110042499D01*
X132734425Y-110042499D02*
X132737522Y-110010706D01*
X132480339Y-109619764D02*
X132293623Y-109691437D01*
X132453666Y-109630003D02*
X132461883Y-109611547D01*
X132461883Y-109611547D02*
X132464981Y-109579753D01*
X132464981Y-109579753D02*
X132449622Y-109539743D01*
X132449622Y-109539743D02*
X132426046Y-109518189D01*
X132426046Y-109518189D02*
X132394253Y-109515091D01*
X132394253Y-109515091D02*
X132247547Y-109571406D01*
X132307220Y-109288364D02*
X132343057Y-109381722D01*
X132196352Y-109438037D02*
X132476426Y-109330526D01*
X132476426Y-109330526D02*
X132425230Y-109197158D01*
X135987753Y-114439036D02*
X136139115Y-114519517D01*
X136063434Y-114479276D02*
X136204276Y-114214392D01*
X136204276Y-114214392D02*
X136209383Y-114265646D01*
X136209383Y-114265646D02*
X136221196Y-114304287D01*
X136221196Y-114304287D02*
X136239716Y-114330314D01*
X135964619Y-114086964D02*
X135939392Y-114073551D01*
X135939392Y-114073551D02*
X135907458Y-114072751D01*
X135907458Y-114072751D02*
X135888138Y-114078658D01*
X135888138Y-114078658D02*
X135862111Y-114097178D01*
X135862111Y-114097178D02*
X135822670Y-114140925D01*
X135822670Y-114140925D02*
X135789136Y-114203993D01*
X135789136Y-114203993D02*
X135774923Y-114261154D01*
X135774923Y-114261154D02*
X135774123Y-114293088D01*
X135774123Y-114293088D02*
X135780030Y-114312408D01*
X135780030Y-114312408D02*
X135798550Y-114338435D01*
X135798550Y-114338435D02*
X135823777Y-114351849D01*
X135823777Y-114351849D02*
X135855711Y-114352648D01*
X135855711Y-114352648D02*
X135875031Y-114346742D01*
X135875031Y-114346742D02*
X135901058Y-114328221D01*
X135901058Y-114328221D02*
X135940499Y-114284474D01*
X135940499Y-114284474D02*
X135974033Y-114221406D01*
X135974033Y-114221406D02*
X135988246Y-114164245D01*
X135988246Y-114164245D02*
X135989046Y-114132312D01*
X135989046Y-114132312D02*
X135983139Y-114112991D01*
X135983139Y-114112991D02*
X135964619Y-114086964D01*
X135712348Y-113952830D02*
X135687121Y-113939416D01*
X135687121Y-113939416D02*
X135655187Y-113938616D01*
X135655187Y-113938616D02*
X135635867Y-113944523D01*
X135635867Y-113944523D02*
X135609840Y-113963043D01*
X135609840Y-113963043D02*
X135570400Y-114006791D01*
X135570400Y-114006791D02*
X135536866Y-114069858D01*
X135536866Y-114069858D02*
X135522652Y-114127019D01*
X135522652Y-114127019D02*
X135521853Y-114158953D01*
X135521853Y-114158953D02*
X135527759Y-114178273D01*
X135527759Y-114178273D02*
X135546280Y-114204300D01*
X135546280Y-114204300D02*
X135571507Y-114217714D01*
X135571507Y-114217714D02*
X135603441Y-114218514D01*
X135603441Y-114218514D02*
X135622761Y-114212607D01*
X135622761Y-114212607D02*
X135648788Y-114194087D01*
X135648788Y-114194087D02*
X135688228Y-114150339D01*
X135688228Y-114150339D02*
X135721762Y-114087272D01*
X135721762Y-114087272D02*
X135735975Y-114030111D01*
X135735975Y-114030111D02*
X135736775Y-113998177D01*
X135736775Y-113998177D02*
X135730869Y-113978857D01*
X135730869Y-113978857D02*
X135712348Y-113952830D01*
X135261769Y-113826509D02*
X135167874Y-114003099D01*
X135248355Y-113851736D02*
X135242448Y-113832416D01*
X135242448Y-113832416D02*
X135223928Y-113806389D01*
X135223928Y-113806389D02*
X135186087Y-113786269D01*
X135186087Y-113786269D02*
X135154153Y-113785469D01*
X135154153Y-113785469D02*
X135128126Y-113803989D01*
X135128126Y-113803989D02*
X135054352Y-113942738D01*
X134913696Y-113689974D02*
X135001991Y-113736922D01*
X134928217Y-113875670D02*
X135069058Y-113610786D01*
X135069058Y-113610786D02*
X134942923Y-113543719D01*
X146824055Y-108326123D02*
X146830038Y-108154799D01*
X146827046Y-108240461D02*
X146527229Y-108229991D01*
X146527229Y-108229991D02*
X146571057Y-108202933D01*
X146571057Y-108202933D02*
X146600608Y-108175376D01*
X146600608Y-108175376D02*
X146615882Y-108147320D01*
X146517756Y-108501254D02*
X146516759Y-108529808D01*
X146516759Y-108529808D02*
X146530039Y-108558860D01*
X146530039Y-108558860D02*
X146543817Y-108573636D01*
X146543817Y-108573636D02*
X146571873Y-108588910D01*
X146571873Y-108588910D02*
X146628482Y-108605181D01*
X146628482Y-108605181D02*
X146699867Y-108607674D01*
X146699867Y-108607674D02*
X146757474Y-108595392D01*
X146757474Y-108595392D02*
X146786527Y-108582112D01*
X146786527Y-108582112D02*
X146801302Y-108568333D01*
X146801302Y-108568333D02*
X146816576Y-108540278D01*
X146816576Y-108540278D02*
X146817574Y-108511724D01*
X146817574Y-108511724D02*
X146804294Y-108482671D01*
X146804294Y-108482671D02*
X146790515Y-108467896D01*
X146790515Y-108467896D02*
X146762460Y-108452621D01*
X146762460Y-108452621D02*
X146705850Y-108436350D01*
X146705850Y-108436350D02*
X146634465Y-108433857D01*
X146634465Y-108433857D02*
X146576859Y-108446140D01*
X146576859Y-108446140D02*
X146547806Y-108459420D01*
X146547806Y-108459420D02*
X146533030Y-108473198D01*
X146533030Y-108473198D02*
X146517756Y-108501254D01*
X146507785Y-108786794D02*
X146506788Y-108815348D01*
X146506788Y-108815348D02*
X146520068Y-108844400D01*
X146520068Y-108844400D02*
X146533846Y-108859176D01*
X146533846Y-108859176D02*
X146561902Y-108874450D01*
X146561902Y-108874450D02*
X146618511Y-108890721D01*
X146618511Y-108890721D02*
X146689896Y-108893214D01*
X146689896Y-108893214D02*
X146747503Y-108880931D01*
X146747503Y-108880931D02*
X146776555Y-108867652D01*
X146776555Y-108867652D02*
X146791331Y-108853873D01*
X146791331Y-108853873D02*
X146806605Y-108825818D01*
X146806605Y-108825818D02*
X146807602Y-108797264D01*
X146807602Y-108797264D02*
X146794322Y-108768211D01*
X146794322Y-108768211D02*
X146780544Y-108753435D01*
X146780544Y-108753435D02*
X146752488Y-108738161D01*
X146752488Y-108738161D02*
X146695879Y-108721890D01*
X146695879Y-108721890D02*
X146624494Y-108719397D01*
X146624494Y-108719397D02*
X146566887Y-108731680D01*
X146566887Y-108731680D02*
X146537835Y-108744960D01*
X146537835Y-108744960D02*
X146523059Y-108758738D01*
X146523059Y-108758738D02*
X146507785Y-108786794D01*
X146591770Y-109247147D02*
X146791648Y-109254127D01*
X146620324Y-109248145D02*
X146605549Y-109261923D01*
X146605549Y-109261923D02*
X146590274Y-109289978D01*
X146590274Y-109289978D02*
X146588779Y-109332809D01*
X146588779Y-109332809D02*
X146602059Y-109361862D01*
X146602059Y-109361862D02*
X146630114Y-109377136D01*
X146630114Y-109377136D02*
X146787161Y-109382620D01*
X146621638Y-109619846D02*
X146625128Y-109519907D01*
X146782176Y-109525391D02*
X146482358Y-109514921D01*
X146482358Y-109514921D02*
X146477373Y-109657691D01*
X137635153Y-101074162D02*
X137790520Y-101001713D01*
X137712836Y-101037938D02*
X137586051Y-100766045D01*
X137586051Y-100766045D02*
X137630057Y-100792812D01*
X137630057Y-100792812D02*
X137668027Y-100806632D01*
X137668027Y-100806632D02*
X137699959Y-100807504D01*
X137340053Y-100880756D02*
X137314159Y-100892831D01*
X137314159Y-100892831D02*
X137294302Y-100917853D01*
X137294302Y-100917853D02*
X137287392Y-100936837D01*
X137287392Y-100936837D02*
X137286519Y-100968769D01*
X137286519Y-100968769D02*
X137297722Y-101026596D01*
X137297722Y-101026596D02*
X137327909Y-101091332D01*
X137327909Y-101091332D02*
X137365005Y-101137084D01*
X137365005Y-101137084D02*
X137390028Y-101156941D01*
X137390028Y-101156941D02*
X137409012Y-101163850D01*
X137409012Y-101163850D02*
X137440944Y-101164723D01*
X137440944Y-101164723D02*
X137466839Y-101152648D01*
X137466839Y-101152648D02*
X137486696Y-101127626D01*
X137486696Y-101127626D02*
X137493606Y-101108641D01*
X137493606Y-101108641D02*
X137494478Y-101076709D01*
X137494478Y-101076709D02*
X137483276Y-101018883D01*
X137483276Y-101018883D02*
X137453089Y-100954147D01*
X137453089Y-100954147D02*
X137415992Y-100908395D01*
X137415992Y-100908395D02*
X137390970Y-100888538D01*
X137390970Y-100888538D02*
X137371985Y-100881628D01*
X137371985Y-100881628D02*
X137340053Y-100880756D01*
X137081108Y-101001504D02*
X137055214Y-101013579D01*
X137055214Y-101013579D02*
X137035357Y-101038601D01*
X137035357Y-101038601D02*
X137028447Y-101057585D01*
X137028447Y-101057585D02*
X137027574Y-101089517D01*
X137027574Y-101089517D02*
X137038777Y-101147344D01*
X137038777Y-101147344D02*
X137068964Y-101212080D01*
X137068964Y-101212080D02*
X137106061Y-101257831D01*
X137106061Y-101257831D02*
X137131083Y-101277689D01*
X137131083Y-101277689D02*
X137150067Y-101284598D01*
X137150067Y-101284598D02*
X137181999Y-101285471D01*
X137181999Y-101285471D02*
X137207894Y-101273396D01*
X137207894Y-101273396D02*
X137227751Y-101248374D01*
X137227751Y-101248374D02*
X137234661Y-101229389D01*
X137234661Y-101229389D02*
X137235533Y-101197457D01*
X137235533Y-101197457D02*
X137224331Y-101139631D01*
X137224331Y-101139631D02*
X137194144Y-101074895D01*
X137194144Y-101074895D02*
X137157047Y-101029143D01*
X137157047Y-101029143D02*
X137132025Y-101009286D01*
X137132025Y-101009286D02*
X137113040Y-101002376D01*
X137113040Y-101002376D02*
X137081108Y-101001504D01*
X136709059Y-101285331D02*
X136793582Y-101466593D01*
X136721133Y-101311226D02*
X136702149Y-101304316D01*
X136702149Y-101304316D02*
X136670217Y-101303443D01*
X136670217Y-101303443D02*
X136631375Y-101321556D01*
X136631375Y-101321556D02*
X136611518Y-101346578D01*
X136611518Y-101346578D02*
X136610646Y-101378510D01*
X136610646Y-101378510D02*
X136677057Y-101520929D01*
X136390542Y-101481146D02*
X136481173Y-101438884D01*
X136547584Y-101581304D02*
X136420799Y-101309411D01*
X136420799Y-101309411D02*
X136291326Y-101369785D01*
X130875309Y-106541290D02*
X131075187Y-106548270D01*
X130763586Y-106465917D02*
X130980234Y-106402010D01*
X130980234Y-106402010D02*
X130973752Y-106587611D01*
X131041149Y-106704320D02*
X131054927Y-106719096D01*
X131054927Y-106719096D02*
X131069703Y-106705317D01*
X131069703Y-106705317D02*
X131055924Y-106690542D01*
X131055924Y-106690542D02*
X131041149Y-106704320D01*
X131041149Y-106704320D02*
X131069703Y-106705317D01*
X130765897Y-106809063D02*
X130758917Y-107008941D01*
X130758917Y-107008941D02*
X131063221Y-106890918D01*
X130846891Y-107355079D02*
X131146708Y-107365549D01*
X130998952Y-107503333D02*
X131027008Y-107518607D01*
X131027008Y-107518607D02*
X131040288Y-107547660D01*
X131003938Y-107360563D02*
X131031993Y-107375837D01*
X131031993Y-107375837D02*
X131045273Y-107404890D01*
X131045273Y-107404890D02*
X131043279Y-107461998D01*
X131043279Y-107461998D02*
X131028005Y-107490053D01*
X131028005Y-107490053D02*
X130998952Y-107503333D01*
X130998952Y-107503333D02*
X130841905Y-107497849D01*
X130875263Y-107770608D02*
X130878753Y-107670669D01*
X131035800Y-107676153D02*
X130735983Y-107665684D01*
X130735983Y-107665684D02*
X130730998Y-107808454D01*
X138572291Y-115271268D02*
X138742442Y-115292160D01*
X138657366Y-115281714D02*
X138693927Y-114983950D01*
X138693927Y-114983950D02*
X138717063Y-115029970D01*
X138717063Y-115029970D02*
X138741939Y-115061810D01*
X138741939Y-115061810D02*
X138768557Y-115079471D01*
X138424522Y-114950871D02*
X138396164Y-114947389D01*
X138396164Y-114947389D02*
X138366064Y-114958086D01*
X138366064Y-114958086D02*
X138350144Y-114970525D01*
X138350144Y-114970525D02*
X138332483Y-114997142D01*
X138332483Y-114997142D02*
X138311340Y-115052118D01*
X138311340Y-115052118D02*
X138302635Y-115123014D01*
X138302635Y-115123014D02*
X138309850Y-115181472D01*
X138309850Y-115181472D02*
X138320547Y-115211572D01*
X138320547Y-115211572D02*
X138332985Y-115227492D01*
X138332985Y-115227492D02*
X138359603Y-115245153D01*
X138359603Y-115245153D02*
X138387961Y-115248635D01*
X138387961Y-115248635D02*
X138418061Y-115237938D01*
X138418061Y-115237938D02*
X138433981Y-115225499D01*
X138433981Y-115225499D02*
X138451642Y-115198882D01*
X138451642Y-115198882D02*
X138472785Y-115143906D01*
X138472785Y-115143906D02*
X138481490Y-115073010D01*
X138481490Y-115073010D02*
X138474275Y-115014552D01*
X138474275Y-115014552D02*
X138463578Y-114984453D01*
X138463578Y-114984453D02*
X138451140Y-114968532D01*
X138451140Y-114968532D02*
X138424522Y-114950871D01*
X138140938Y-114916051D02*
X138112579Y-114912569D01*
X138112579Y-114912569D02*
X138082480Y-114923267D01*
X138082480Y-114923267D02*
X138066560Y-114935705D01*
X138066560Y-114935705D02*
X138048898Y-114962322D01*
X138048898Y-114962322D02*
X138027755Y-115017298D01*
X138027755Y-115017298D02*
X138019050Y-115088194D01*
X138019050Y-115088194D02*
X138026266Y-115146652D01*
X138026266Y-115146652D02*
X138036963Y-115176752D01*
X138036963Y-115176752D02*
X138049401Y-115192672D01*
X138049401Y-115192672D02*
X138076019Y-115210333D01*
X138076019Y-115210333D02*
X138104377Y-115213815D01*
X138104377Y-115213815D02*
X138134476Y-115203118D01*
X138134476Y-115203118D02*
X138150397Y-115190680D01*
X138150397Y-115190680D02*
X138168058Y-115164062D01*
X138168058Y-115164062D02*
X138189201Y-115109086D01*
X138189201Y-115109086D02*
X138197906Y-115038190D01*
X138197906Y-115038190D02*
X138190691Y-114979732D01*
X138190691Y-114979732D02*
X138179994Y-114949633D01*
X138179994Y-114949633D02*
X138167555Y-114933713D01*
X138167555Y-114933713D02*
X138140938Y-114916051D01*
X137675016Y-114959594D02*
X137650642Y-115158104D01*
X137671534Y-114987953D02*
X137659096Y-114972033D01*
X137659096Y-114972033D02*
X137632479Y-114954371D01*
X137632479Y-114954371D02*
X137589941Y-114949148D01*
X137589941Y-114949148D02*
X137559841Y-114959846D01*
X137559841Y-114959846D02*
X137542180Y-114986463D01*
X137542180Y-114986463D02*
X137523029Y-115142435D01*
X137301133Y-114956866D02*
X137400387Y-114969053D01*
X137381237Y-115125025D02*
X137417797Y-114827261D01*
X137417797Y-114827261D02*
X137276005Y-114809851D01*
M02*
