%TF.GenerationSoftware,KiCad,Pcbnew,9.0.9.1-1.fc43*%
%TF.CreationDate,2026-06-26T00:54:02-06:00*%
%TF.ProjectId,arcade-controller-routed,61726361-6465-42d6-936f-6e74726f6c6c,rev?*%
%TF.SameCoordinates,Original*%
%TF.FileFunction,Copper,L1,Top*%
%TF.FilePolarity,Positive*%
%FSLAX46Y46*%
G04 Gerber Fmt 4.6, Leading zero omitted, Abs format (unit mm)*
G04 Created by KiCad (PCBNEW 9.0.9.1-1.fc43) date 2026-06-26 00:54:02*
%MOMM*%
%LPD*%
G01*
G04 APERTURE LIST*
%TA.AperFunction,ComponentPad*%
%ADD10C,1.900000*%
%TD*%
%TA.AperFunction,ComponentPad*%
%ADD11C,1.565800*%
%TD*%
%TA.AperFunction,ViaPad*%
%ADD12C,0.600000*%
%TD*%
%TA.AperFunction,Conductor*%
%ADD13C,0.250000*%
%TD*%
G04 APERTURE END LIST*
D10*
%TO.P,SW8,1*%
%TO.N,BTN7_INT*%
X163250000Y-87500000D03*
%TO.P,SW8,2*%
X163250000Y-92500000D03*
%TO.P,SW8,3*%
%TO.N,GND*%
X175750000Y-87500000D03*
%TO.P,SW8,4*%
X175750000Y-92500000D03*
%TD*%
%TO.P,SW6,1*%
%TO.N,BTN5_INT*%
X181250000Y-105500000D03*
%TO.P,SW6,2*%
X181250000Y-110500000D03*
%TO.P,SW6,3*%
%TO.N,GND*%
X193750000Y-105500000D03*
%TO.P,SW6,4*%
X193750000Y-110500000D03*
%TD*%
%TO.P,SW7,1*%
%TO.N,BTN6_INT*%
X145250000Y-105500000D03*
%TO.P,SW7,2*%
X145250000Y-110500000D03*
%TO.P,SW7,3*%
%TO.N,GND*%
X157750000Y-105500000D03*
%TO.P,SW7,4*%
X157750000Y-110500000D03*
%TD*%
%TO.P,SW2,1*%
%TO.N,BTN1_INT*%
X103250000Y-123500000D03*
%TO.P,SW2,2*%
X103250000Y-128500000D03*
%TO.P,SW2,3*%
%TO.N,GND*%
X115750000Y-123500000D03*
%TO.P,SW2,4*%
X115750000Y-128500000D03*
%TD*%
%TO.P,SW4,1*%
%TO.N,BTN3_INT*%
X121250000Y-105500000D03*
%TO.P,SW4,2*%
X121250000Y-110500000D03*
%TO.P,SW4,3*%
%TO.N,GND*%
X133750000Y-105500000D03*
%TO.P,SW4,4*%
X133750000Y-110500000D03*
%TD*%
%TO.P,SW3,1*%
%TO.N,BTN2_INT*%
X85250000Y-105500000D03*
%TO.P,SW3,2*%
X85250000Y-110500000D03*
%TO.P,SW3,3*%
%TO.N,GND*%
X97750000Y-105500000D03*
%TO.P,SW3,4*%
X97750000Y-110500000D03*
%TD*%
%TO.P,SW1,1*%
%TO.N,BTN0_INT*%
X103250000Y-87500000D03*
%TO.P,SW1,2*%
X103250000Y-92500000D03*
%TO.P,SW1,3*%
%TO.N,GND*%
X115750000Y-87500000D03*
%TO.P,SW1,4*%
X115750000Y-92500000D03*
%TD*%
%TO.P,SW5,1*%
%TO.N,BTN4_INT*%
X163250000Y-123500000D03*
%TO.P,SW5,2*%
X163250000Y-128500000D03*
%TO.P,SW5,3*%
%TO.N,GND*%
X175750000Y-123500000D03*
%TO.P,SW5,4*%
X175750000Y-128500000D03*
%TD*%
D11*
%TO.P,J1,landpattern_p1*%
%TO.N,BTN0_OUT*%
X150750000Y-139000000D03*
%TO.P,J1,landpattern_p2*%
%TO.N,BTN1_OUT*%
X148250000Y-139000000D03*
%TO.P,J1,landpattern_p3*%
%TO.N,BTN2_OUT*%
X145750000Y-139000000D03*
%TO.P,J1,landpattern_p4*%
%TO.N,BTN3_OUT*%
X143250000Y-139000000D03*
%TO.P,J1,landpattern_p5*%
%TO.N,BTN4_OUT*%
X140750000Y-139000000D03*
%TO.P,J1,landpattern_p6*%
%TO.N,BTN5_OUT*%
X138250000Y-139000000D03*
%TO.P,J1,landpattern_p7*%
%TO.N,BTN6_OUT*%
X135750000Y-139000000D03*
%TO.P,J1,landpattern_p8*%
%TO.N,BTN7_OUT*%
X133250000Y-139000000D03*
%TO.P,J1,landpattern_p9*%
%TO.N,GND*%
X130750000Y-139000000D03*
%TO.P,J1,landpattern_p10*%
%TO.N,V3V3*%
X128250000Y-139000000D03*
%TD*%
D12*
%TO.N,BTN3_OUT*%
X127330900Y-131050000D03*
%TO.N,BTN6_OUT*%
X146215500Y-131637500D03*
X147340700Y-132685000D03*
%TO.N,V3V3*%
X129977400Y-129657500D03*
X143950900Y-129700000D03*
%TO.N,BTN1_OUT*%
X115756100Y-130425000D03*
X129686300Y-133879300D03*
%TO.N,GND*%
X130680000Y-132000000D03*
X150680000Y-132000000D03*
%TO.N,BTN4_OUT*%
X149543300Y-137469900D03*
%TO.N,BTN7_OUT*%
X147340800Y-130990000D03*
%TD*%
D13*
%TO.N,BTN3_OUT*%
X132767900Y-140112100D02*
X132000000Y-139344200D01*
X143250000Y-139000000D02*
X142137900Y-140112100D01*
X142137900Y-140112100D02*
X132767900Y-140112100D01*
X132000000Y-135306700D02*
X127743300Y-131050000D01*
X132000000Y-139344200D02*
X132000000Y-135306700D01*
X127743300Y-131050000D02*
X127330900Y-131050000D01*
%TO.N,BTN6_OUT*%
X135750000Y-139000000D02*
X142065000Y-132685000D01*
X146215500Y-132685000D02*
X147340700Y-132685000D01*
X142065000Y-132685000D02*
X146215500Y-132685000D01*
X146215500Y-132685000D02*
X146215500Y-131637500D01*
%TO.N,BTN3_INT*%
X121250000Y-110500000D02*
X121250000Y-105500000D01*
%TO.N,V3V3*%
X129977400Y-129657500D02*
X130019900Y-129700000D01*
X130019900Y-129700000D02*
X143950900Y-129700000D01*
%TO.N,BTN6_INT*%
X145250000Y-110500000D02*
X145250000Y-105500000D01*
%TO.N,BTN5_INT*%
X181250000Y-105500000D02*
X181250000Y-110500000D01*
%TO.N,BTN1_OUT*%
X119210400Y-133879300D02*
X115756100Y-130425000D01*
X129686300Y-133879300D02*
X119210400Y-133879300D01*
%TO.N,BTN4_OUT*%
X149543300Y-137469900D02*
X142280100Y-137469900D01*
X142280100Y-137469900D02*
X140750000Y-139000000D01*
%TO.N,BTN7_OUT*%
X133250000Y-139000000D02*
X141260000Y-130990000D01*
X141260000Y-130990000D02*
X147340800Y-130990000D01*
%TD*%
%TA.AperFunction,Conductor*%
%TO.N,GND*%
G36*
X196500781Y-74500088D02*
G01*
X196832217Y-74537431D01*
X196835267Y-74538128D01*
X197130138Y-74641308D01*
X197149337Y-74648026D01*
X197152161Y-74649386D01*
X197433900Y-74826414D01*
X197436351Y-74828369D01*
X197671630Y-75063648D01*
X197673585Y-75066099D01*
X197850613Y-75347838D01*
X197851973Y-75350662D01*
X197961870Y-75664728D01*
X197962568Y-75667784D01*
X197999912Y-75999217D01*
X198000000Y-76000785D01*
X198000000Y-139999214D01*
X197999912Y-140000782D01*
X197962568Y-140332215D01*
X197961870Y-140335271D01*
X197851973Y-140649337D01*
X197850613Y-140652161D01*
X197673585Y-140933900D01*
X197671630Y-140936351D01*
X197436351Y-141171630D01*
X197433900Y-141173585D01*
X197152161Y-141350613D01*
X197149337Y-141351973D01*
X196835271Y-141461870D01*
X196832215Y-141462568D01*
X196566439Y-141492514D01*
X196500780Y-141499912D01*
X196499214Y-141500000D01*
X82500786Y-141500000D01*
X82499219Y-141499912D01*
X82416852Y-141490631D01*
X82167784Y-141462568D01*
X82164728Y-141461870D01*
X81850662Y-141351973D01*
X81847838Y-141350613D01*
X81566099Y-141173585D01*
X81563648Y-141171630D01*
X81328369Y-140936351D01*
X81326414Y-140933900D01*
X81149386Y-140652161D01*
X81148026Y-140649337D01*
X81073936Y-140437600D01*
X81038128Y-140335267D01*
X81037431Y-140332217D01*
X81000088Y-140000781D01*
X81000000Y-139999214D01*
X81000000Y-137999999D01*
X81500000Y-137999999D01*
X81557644Y-138585272D01*
X81557645Y-138585276D01*
X81728359Y-139148045D01*
X81728361Y-139148050D01*
X81802549Y-139286845D01*
X82005590Y-139666709D01*
X82005592Y-139666712D01*
X82378678Y-140121320D01*
X82833286Y-140494406D01*
X82833289Y-140494408D01*
X83351949Y-140771638D01*
X83628089Y-140855404D01*
X83886856Y-140933900D01*
X83914729Y-140942355D01*
X84500000Y-141000000D01*
X85085270Y-140942355D01*
X85648050Y-140771638D01*
X86166710Y-140494408D01*
X86621320Y-140121320D01*
X86641086Y-140097235D01*
X86677377Y-140053015D01*
X86899383Y-139782499D01*
X86994408Y-139666710D01*
X87271638Y-139148050D01*
X87345929Y-138903144D01*
X127266600Y-138903144D01*
X127266600Y-139096856D01*
X127275983Y-139144030D01*
X127304391Y-139286845D01*
X127304393Y-139286851D01*
X127378521Y-139465813D01*
X127396330Y-139492465D01*
X127486144Y-139626881D01*
X127486145Y-139626882D01*
X127486148Y-139626886D01*
X127623113Y-139763851D01*
X127623116Y-139763853D01*
X127623119Y-139763856D01*
X127784186Y-139871478D01*
X127963153Y-139945608D01*
X128153144Y-139983400D01*
X128346856Y-139983400D01*
X128536847Y-139945608D01*
X128715814Y-139871478D01*
X128876881Y-139763856D01*
X129013856Y-139626881D01*
X129121478Y-139465814D01*
X129195608Y-139286847D01*
X129233400Y-139096856D01*
X129233400Y-138903144D01*
X129195608Y-138713153D01*
X129121478Y-138534186D01*
X129013856Y-138373119D01*
X129013853Y-138373116D01*
X129013851Y-138373113D01*
X128876886Y-138236148D01*
X128876882Y-138236145D01*
X128876881Y-138236144D01*
X128715814Y-138128522D01*
X128715815Y-138128522D01*
X128715813Y-138128521D01*
X128536851Y-138054393D01*
X128536845Y-138054391D01*
X128346856Y-138016600D01*
X128153144Y-138016600D01*
X127963154Y-138054391D01*
X127963148Y-138054393D01*
X127784186Y-138128521D01*
X127623113Y-138236148D01*
X127486148Y-138373113D01*
X127378521Y-138534186D01*
X127304393Y-138713148D01*
X127304391Y-138713154D01*
X127266600Y-138903144D01*
X87345929Y-138903144D01*
X87346514Y-138901216D01*
X87347371Y-138898392D01*
X87419021Y-138662193D01*
X87442355Y-138585270D01*
X87500000Y-138000000D01*
X87442355Y-137414729D01*
X87271638Y-136851949D01*
X86994408Y-136333289D01*
X86994406Y-136333286D01*
X86621320Y-135878678D01*
X86166712Y-135505592D01*
X86166709Y-135505590D01*
X85954563Y-135392196D01*
X85648050Y-135228361D01*
X85648047Y-135228360D01*
X85648045Y-135228359D01*
X85085276Y-135057645D01*
X85085272Y-135057644D01*
X84695090Y-135019214D01*
X84500000Y-135000000D01*
X84499999Y-135000000D01*
X83914726Y-135057644D01*
X83914722Y-135057645D01*
X83351953Y-135228359D01*
X82833289Y-135505590D01*
X82833286Y-135505592D01*
X82378678Y-135878678D01*
X82005592Y-136333286D01*
X82005590Y-136333289D01*
X81728359Y-136851953D01*
X81557645Y-137414722D01*
X81557644Y-137414726D01*
X81500000Y-137999999D01*
X81000000Y-137999999D01*
X81000000Y-128409454D01*
X102099500Y-128409454D01*
X102099500Y-128590545D01*
X102127829Y-128769409D01*
X102183789Y-128941641D01*
X102266002Y-129102990D01*
X102266012Y-129103006D01*
X102372445Y-129249499D01*
X102372452Y-129249507D01*
X102500492Y-129377547D01*
X102500500Y-129377554D01*
X102646993Y-129483987D01*
X102646997Y-129483989D01*
X102647006Y-129483996D01*
X102727683Y-129525103D01*
X102808358Y-129566210D01*
X102808360Y-129566210D01*
X102808361Y-129566211D01*
X102980591Y-129622171D01*
X103159454Y-129650500D01*
X103340546Y-129650500D01*
X103519409Y-129622171D01*
X103691639Y-129566211D01*
X103852994Y-129483996D01*
X103999501Y-129377553D01*
X104127553Y-129249501D01*
X104233996Y-129102994D01*
X104316211Y-128941639D01*
X104372171Y-128769409D01*
X104400500Y-128590546D01*
X104400500Y-128409454D01*
X104396767Y-128385883D01*
X114300000Y-128385883D01*
X114300000Y-128614116D01*
X114335704Y-128839543D01*
X114406232Y-129056609D01*
X114509847Y-129259962D01*
X114509857Y-129259978D01*
X114563135Y-129333308D01*
X114563136Y-129333308D01*
X115148957Y-128747486D01*
X115173978Y-128807890D01*
X115245112Y-128914351D01*
X115335649Y-129004888D01*
X115442110Y-129076022D01*
X115502511Y-129101041D01*
X114916690Y-129686862D01*
X114916690Y-129686863D01*
X114990021Y-129740142D01*
X114990037Y-129740152D01*
X115193390Y-129843767D01*
X115410456Y-129914295D01*
X115551274Y-129936599D01*
X115560410Y-129942198D01*
X115562912Y-129952617D01*
X115557313Y-129961753D01*
X115556084Y-129962551D01*
X115448787Y-130024498D01*
X115448784Y-130024500D01*
X115355600Y-130117684D01*
X115355598Y-130117687D01*
X115289710Y-130231809D01*
X115289708Y-130231813D01*
X115289708Y-130231814D01*
X115255600Y-130359108D01*
X115255600Y-130490892D01*
X115280443Y-130583610D01*
X115289707Y-130618182D01*
X115289710Y-130618190D01*
X115355598Y-130732312D01*
X115355600Y-130732315D01*
X115448784Y-130825499D01*
X115448787Y-130825501D01*
X115503023Y-130856814D01*
X115562914Y-130891392D01*
X115690208Y-130925500D01*
X115790475Y-130925500D01*
X115800374Y-130929601D01*
X119010536Y-134139764D01*
X119010539Y-134139766D01*
X119069074Y-134173561D01*
X119084761Y-134182618D01*
X119167547Y-134204800D01*
X129298188Y-134204800D01*
X129308087Y-134208901D01*
X129378985Y-134279799D01*
X129378988Y-134279802D01*
X129479626Y-134337905D01*
X129493114Y-134345692D01*
X129620408Y-134379800D01*
X129620411Y-134379800D01*
X129752189Y-134379800D01*
X129752192Y-134379800D01*
X129879486Y-134345692D01*
X129993614Y-134279800D01*
X130086800Y-134186614D01*
X130152692Y-134072486D01*
X130178699Y-133975423D01*
X130185222Y-133966923D01*
X130195845Y-133965524D01*
X130202121Y-133969148D01*
X131670399Y-135437426D01*
X131674500Y-135447325D01*
X131674500Y-138423254D01*
X131670399Y-138433153D01*
X131239086Y-138864465D01*
X131222915Y-138804112D01*
X131156101Y-138688388D01*
X131061612Y-138593899D01*
X130945888Y-138527085D01*
X130885533Y-138510913D01*
X131463678Y-137932768D01*
X131463678Y-137932766D01*
X131422398Y-137902774D01*
X131422382Y-137902764D01*
X131242465Y-137811090D01*
X131050413Y-137748689D01*
X130850966Y-137717100D01*
X130649034Y-137717100D01*
X130449586Y-137748689D01*
X130257534Y-137811090D01*
X130077617Y-137902764D01*
X130077601Y-137902774D01*
X130036320Y-137932766D01*
X130036320Y-137932767D01*
X130614466Y-138510913D01*
X130554112Y-138527085D01*
X130438388Y-138593899D01*
X130343899Y-138688388D01*
X130277085Y-138804112D01*
X130260913Y-138864466D01*
X129682767Y-138286320D01*
X129682766Y-138286320D01*
X129652774Y-138327601D01*
X129652764Y-138327617D01*
X129561090Y-138507534D01*
X129498689Y-138699586D01*
X129467100Y-138899034D01*
X129467100Y-139100965D01*
X129498689Y-139300413D01*
X129561090Y-139492465D01*
X129652764Y-139672382D01*
X129652774Y-139672398D01*
X129682766Y-139713678D01*
X129682768Y-139713678D01*
X130260913Y-139135533D01*
X130277085Y-139195888D01*
X130343899Y-139311612D01*
X130438388Y-139406101D01*
X130554112Y-139472915D01*
X130614465Y-139489086D01*
X130036320Y-140067231D01*
X130036320Y-140067232D01*
X130077601Y-140097225D01*
X130077617Y-140097235D01*
X130257534Y-140188909D01*
X130449586Y-140251310D01*
X130649034Y-140282900D01*
X130850966Y-140282900D01*
X131050413Y-140251310D01*
X131242465Y-140188909D01*
X131422382Y-140097235D01*
X131422389Y-140097231D01*
X131463678Y-140067232D01*
X131463679Y-140067231D01*
X130885534Y-139489086D01*
X130945888Y-139472915D01*
X131061612Y-139406101D01*
X131156101Y-139311612D01*
X131222915Y-139195888D01*
X131239086Y-139135534D01*
X131817231Y-139713679D01*
X131817232Y-139713678D01*
X131846278Y-139673701D01*
X131855414Y-139668102D01*
X131865833Y-139670604D01*
X131867503Y-139672030D01*
X132506941Y-140311467D01*
X132506962Y-140311490D01*
X132568036Y-140372564D01*
X132568039Y-140372566D01*
X132568041Y-140372567D01*
X132642262Y-140415418D01*
X132725047Y-140437601D01*
X132725050Y-140437601D01*
X132811603Y-140437601D01*
X132811619Y-140437600D01*
X142180750Y-140437600D01*
X142180753Y-140437600D01*
X142263539Y-140415418D01*
X142337762Y-140372565D01*
X142816223Y-139894102D01*
X142826122Y-139890002D01*
X142831480Y-139891068D01*
X142963148Y-139945606D01*
X142963153Y-139945608D01*
X143153144Y-139983400D01*
X143346856Y-139983400D01*
X143536847Y-139945608D01*
X143715814Y-139871478D01*
X143876881Y-139763856D01*
X144013856Y-139626881D01*
X144121478Y-139465814D01*
X144195608Y-139286847D01*
X144233400Y-139096856D01*
X144233400Y-138903144D01*
X144766600Y-138903144D01*
X144766600Y-139096856D01*
X144775983Y-139144030D01*
X144804391Y-139286845D01*
X144804393Y-139286851D01*
X144878521Y-139465813D01*
X144896330Y-139492465D01*
X144986144Y-139626881D01*
X144986145Y-139626882D01*
X144986148Y-139626886D01*
X145123113Y-139763851D01*
X145123116Y-139763853D01*
X145123119Y-139763856D01*
X145284186Y-139871478D01*
X145463153Y-139945608D01*
X145653144Y-139983400D01*
X145846856Y-139983400D01*
X146036847Y-139945608D01*
X146215814Y-139871478D01*
X146376881Y-139763856D01*
X146513856Y-139626881D01*
X146621478Y-139465814D01*
X146695608Y-139286847D01*
X146733400Y-139096856D01*
X146733400Y-138903144D01*
X147266600Y-138903144D01*
X147266600Y-139096856D01*
X147275983Y-139144030D01*
X147304391Y-139286845D01*
X147304393Y-139286851D01*
X147378521Y-139465813D01*
X147396330Y-139492465D01*
X147486144Y-139626881D01*
X147486145Y-139626882D01*
X147486148Y-139626886D01*
X147623113Y-139763851D01*
X147623116Y-139763853D01*
X147623119Y-139763856D01*
X147784186Y-139871478D01*
X147963153Y-139945608D01*
X148153144Y-139983400D01*
X148346856Y-139983400D01*
X148536847Y-139945608D01*
X148715814Y-139871478D01*
X148876881Y-139763856D01*
X149013856Y-139626881D01*
X149121478Y-139465814D01*
X149195608Y-139286847D01*
X149233400Y-139096856D01*
X149233400Y-138903144D01*
X149766600Y-138903144D01*
X149766600Y-139096856D01*
X149775983Y-139144030D01*
X149804391Y-139286845D01*
X149804393Y-139286851D01*
X149878521Y-139465813D01*
X149896330Y-139492465D01*
X149986144Y-139626881D01*
X149986145Y-139626882D01*
X149986148Y-139626886D01*
X150123113Y-139763851D01*
X150123116Y-139763853D01*
X150123119Y-139763856D01*
X150284186Y-139871478D01*
X150463153Y-139945608D01*
X150653144Y-139983400D01*
X150846856Y-139983400D01*
X151036847Y-139945608D01*
X151215814Y-139871478D01*
X151376881Y-139763856D01*
X151513856Y-139626881D01*
X151621478Y-139465814D01*
X151695608Y-139286847D01*
X151733400Y-139096856D01*
X151733400Y-138903144D01*
X151695608Y-138713153D01*
X151621478Y-138534186D01*
X151513856Y-138373119D01*
X151513853Y-138373116D01*
X151513851Y-138373113D01*
X151376886Y-138236148D01*
X151376882Y-138236145D01*
X151376881Y-138236144D01*
X151215814Y-138128522D01*
X151215815Y-138128522D01*
X151215813Y-138128521D01*
X151036851Y-138054393D01*
X151036845Y-138054391D01*
X150846856Y-138016600D01*
X150653144Y-138016600D01*
X150463154Y-138054391D01*
X150463148Y-138054393D01*
X150284186Y-138128521D01*
X150123113Y-138236148D01*
X149986148Y-138373113D01*
X149878521Y-138534186D01*
X149804393Y-138713148D01*
X149804391Y-138713154D01*
X149766600Y-138903144D01*
X149233400Y-138903144D01*
X149195608Y-138713153D01*
X149121478Y-138534186D01*
X149013856Y-138373119D01*
X149013853Y-138373116D01*
X149013851Y-138373113D01*
X148876886Y-138236148D01*
X148876882Y-138236145D01*
X148876881Y-138236144D01*
X148715814Y-138128522D01*
X148715815Y-138128522D01*
X148715813Y-138128521D01*
X148536851Y-138054393D01*
X148536845Y-138054391D01*
X148346856Y-138016600D01*
X148153144Y-138016600D01*
X147963154Y-138054391D01*
X147963148Y-138054393D01*
X147784186Y-138128521D01*
X147623113Y-138236148D01*
X147486148Y-138373113D01*
X147378521Y-138534186D01*
X147304393Y-138713148D01*
X147304391Y-138713154D01*
X147266600Y-138903144D01*
X146733400Y-138903144D01*
X146695608Y-138713153D01*
X146621478Y-138534186D01*
X146513856Y-138373119D01*
X146513853Y-138373116D01*
X146513851Y-138373113D01*
X146376886Y-138236148D01*
X146376882Y-138236145D01*
X146376881Y-138236144D01*
X146215814Y-138128522D01*
X146215815Y-138128522D01*
X146215813Y-138128521D01*
X146036851Y-138054393D01*
X146036845Y-138054391D01*
X145846856Y-138016600D01*
X145653144Y-138016600D01*
X145463154Y-138054391D01*
X145463148Y-138054393D01*
X145284186Y-138128521D01*
X145123113Y-138236148D01*
X144986148Y-138373113D01*
X144878521Y-138534186D01*
X144804393Y-138713148D01*
X144804391Y-138713154D01*
X144766600Y-138903144D01*
X144233400Y-138903144D01*
X144195608Y-138713153D01*
X144121478Y-138534186D01*
X144013856Y-138373119D01*
X144013853Y-138373116D01*
X144013851Y-138373113D01*
X143876886Y-138236148D01*
X143876882Y-138236145D01*
X143876881Y-138236144D01*
X143715814Y-138128522D01*
X143715815Y-138128522D01*
X143715813Y-138128521D01*
X143536851Y-138054393D01*
X143536845Y-138054391D01*
X143346856Y-138016600D01*
X143153144Y-138016600D01*
X142963154Y-138054391D01*
X142963148Y-138054393D01*
X142784186Y-138128521D01*
X142623113Y-138236148D01*
X142486148Y-138373113D01*
X142378521Y-138534186D01*
X142304393Y-138713148D01*
X142304391Y-138713154D01*
X142266600Y-138903144D01*
X142266600Y-139096856D01*
X142275983Y-139144030D01*
X142304391Y-139286845D01*
X142304393Y-139286851D01*
X142358931Y-139418517D01*
X142358931Y-139429233D01*
X142355897Y-139433774D01*
X142007174Y-139782499D01*
X141997274Y-139786600D01*
X141387936Y-139786600D01*
X141378037Y-139782499D01*
X141373936Y-139772600D01*
X141378037Y-139762701D01*
X141513851Y-139626886D01*
X141513856Y-139626881D01*
X141621478Y-139465814D01*
X141695608Y-139286847D01*
X141733400Y-139096856D01*
X141733400Y-138903144D01*
X141695608Y-138713153D01*
X141695606Y-138713148D01*
X141641068Y-138581480D01*
X141641068Y-138570764D01*
X141644100Y-138566225D01*
X142210327Y-138000000D01*
X191500000Y-138000000D01*
X191557644Y-138585272D01*
X191557645Y-138585276D01*
X191728359Y-139148045D01*
X191728361Y-139148050D01*
X191802549Y-139286845D01*
X192005590Y-139666709D01*
X192005592Y-139666712D01*
X192378678Y-140121320D01*
X192833286Y-140494406D01*
X192833289Y-140494408D01*
X193351949Y-140771638D01*
X193628089Y-140855404D01*
X193886856Y-140933900D01*
X193914729Y-140942355D01*
X194500000Y-141000000D01*
X195085270Y-140942355D01*
X195648050Y-140771638D01*
X196166710Y-140494408D01*
X196621320Y-140121320D01*
X196994408Y-139666710D01*
X197271638Y-139148050D01*
X197442355Y-138585270D01*
X197500000Y-138000000D01*
X197442355Y-137414729D01*
X197271638Y-136851949D01*
X196994408Y-136333289D01*
X196994406Y-136333286D01*
X196621320Y-135878678D01*
X196166712Y-135505592D01*
X196166709Y-135505590D01*
X195954563Y-135392196D01*
X195648050Y-135228361D01*
X195648047Y-135228360D01*
X195648045Y-135228359D01*
X195085276Y-135057645D01*
X195085272Y-135057644D01*
X194695090Y-135019214D01*
X194500000Y-135000000D01*
X194499999Y-135000000D01*
X193914726Y-135057644D01*
X193914722Y-135057645D01*
X193351953Y-135228359D01*
X192833289Y-135505590D01*
X192833286Y-135505592D01*
X192378678Y-135878678D01*
X192005592Y-136333286D01*
X192005590Y-136333289D01*
X191728359Y-136851953D01*
X191557645Y-137414722D01*
X191557644Y-137414726D01*
X191500000Y-138000000D01*
X142210327Y-138000000D01*
X142307563Y-137902764D01*
X142410827Y-137799501D01*
X142420726Y-137795400D01*
X149155188Y-137795400D01*
X149165087Y-137799501D01*
X149235985Y-137870399D01*
X149235988Y-137870402D01*
X149292059Y-137902774D01*
X149350114Y-137936292D01*
X149477408Y-137970400D01*
X149477411Y-137970400D01*
X149609189Y-137970400D01*
X149609192Y-137970400D01*
X149736486Y-137936292D01*
X149850614Y-137870400D01*
X149943800Y-137777214D01*
X150009692Y-137663086D01*
X150043800Y-137535792D01*
X150043800Y-137404008D01*
X150009692Y-137276714D01*
X149995765Y-137252593D01*
X149943801Y-137162587D01*
X149943799Y-137162584D01*
X149850615Y-137069400D01*
X149850612Y-137069398D01*
X149736490Y-137003510D01*
X149736488Y-137003509D01*
X149736486Y-137003508D01*
X149609192Y-136969400D01*
X149477408Y-136969400D01*
X149477407Y-136969400D01*
X149350117Y-137003507D01*
X149350109Y-137003510D01*
X149235988Y-137069397D01*
X149200538Y-137104848D01*
X149165086Y-137140299D01*
X149155188Y-137144400D01*
X142237246Y-137144400D01*
X142154464Y-137166581D01*
X142154456Y-137166584D01*
X142080240Y-137209432D01*
X141183774Y-138105897D01*
X141173875Y-138109997D01*
X141168518Y-138108931D01*
X141118467Y-138088199D01*
X141036851Y-138054393D01*
X141036845Y-138054391D01*
X140846856Y-138016600D01*
X140653144Y-138016600D01*
X140463154Y-138054391D01*
X140463148Y-138054393D01*
X140284186Y-138128521D01*
X140123113Y-138236148D01*
X139986148Y-138373113D01*
X139878521Y-138534186D01*
X139804393Y-138713148D01*
X139804391Y-138713154D01*
X139766600Y-138903144D01*
X139766600Y-139096856D01*
X139775983Y-139144030D01*
X139804391Y-139286845D01*
X139804393Y-139286851D01*
X139878521Y-139465813D01*
X139896330Y-139492465D01*
X139986144Y-139626881D01*
X139986145Y-139626882D01*
X139986148Y-139626886D01*
X140121963Y-139762701D01*
X140126064Y-139772600D01*
X140121963Y-139782499D01*
X140112064Y-139786600D01*
X138887936Y-139786600D01*
X138878037Y-139782499D01*
X138873936Y-139772600D01*
X138878037Y-139762701D01*
X139013851Y-139626886D01*
X139013856Y-139626881D01*
X139121478Y-139465814D01*
X139195608Y-139286847D01*
X139233400Y-139096856D01*
X139233400Y-138903144D01*
X139195608Y-138713153D01*
X139121478Y-138534186D01*
X139013856Y-138373119D01*
X139013853Y-138373116D01*
X139013851Y-138373113D01*
X138876886Y-138236148D01*
X138876882Y-138236145D01*
X138876881Y-138236144D01*
X138715814Y-138128522D01*
X138715815Y-138128522D01*
X138715813Y-138128521D01*
X138536851Y-138054393D01*
X138536845Y-138054391D01*
X138346856Y-138016600D01*
X138153144Y-138016600D01*
X137963154Y-138054391D01*
X137963148Y-138054393D01*
X137784186Y-138128521D01*
X137623113Y-138236148D01*
X137486148Y-138373113D01*
X137378521Y-138534186D01*
X137304393Y-138713148D01*
X137304391Y-138713154D01*
X137266600Y-138903144D01*
X137266600Y-139096856D01*
X137275983Y-139144030D01*
X137304391Y-139286845D01*
X137304393Y-139286851D01*
X137378521Y-139465813D01*
X137396330Y-139492465D01*
X137486144Y-139626881D01*
X137486145Y-139626882D01*
X137486148Y-139626886D01*
X137621963Y-139762701D01*
X137626064Y-139772600D01*
X137621963Y-139782499D01*
X137612064Y-139786600D01*
X136387936Y-139786600D01*
X136378037Y-139782499D01*
X136373936Y-139772600D01*
X136378037Y-139762701D01*
X136513851Y-139626886D01*
X136513856Y-139626881D01*
X136621478Y-139465814D01*
X136695608Y-139286847D01*
X136733400Y-139096856D01*
X136733400Y-138903144D01*
X136695608Y-138713153D01*
X136641067Y-138581478D01*
X136641067Y-138570765D01*
X136644099Y-138566226D01*
X142195725Y-133014601D01*
X142205624Y-133010500D01*
X146172647Y-133010500D01*
X146258353Y-133010500D01*
X146952588Y-133010500D01*
X146962487Y-133014601D01*
X147033385Y-133085499D01*
X147033388Y-133085502D01*
X147134026Y-133143605D01*
X147147514Y-133151392D01*
X147274808Y-133185500D01*
X147274811Y-133185500D01*
X147406589Y-133185500D01*
X147406592Y-133185500D01*
X147533886Y-133151392D01*
X147648014Y-133085500D01*
X147741200Y-132992314D01*
X147807092Y-132878186D01*
X147841200Y-132750892D01*
X147841200Y-132619108D01*
X147807092Y-132491814D01*
X147800386Y-132480200D01*
X147741201Y-132377686D01*
X147648015Y-132284500D01*
X147648012Y-132284498D01*
X147533890Y-132218610D01*
X147533888Y-132218609D01*
X147533886Y-132218608D01*
X147406592Y-132184500D01*
X147274808Y-132184500D01*
X147274807Y-132184500D01*
X147147517Y-132218607D01*
X147147509Y-132218610D01*
X147033388Y-132284497D01*
X146997938Y-132319948D01*
X146962486Y-132355399D01*
X146952588Y-132359500D01*
X146555000Y-132359500D01*
X146545101Y-132355399D01*
X146541000Y-132345500D01*
X146541000Y-132025612D01*
X146545101Y-132015713D01*
X146616000Y-131944814D01*
X146681892Y-131830686D01*
X146716000Y-131703392D01*
X146716000Y-131571608D01*
X146681892Y-131444314D01*
X146650823Y-131390501D01*
X146619646Y-131336500D01*
X146618247Y-131325876D01*
X146624770Y-131317376D01*
X146631770Y-131315500D01*
X146952688Y-131315500D01*
X146962587Y-131319601D01*
X147000298Y-131357312D01*
X147033488Y-131390502D01*
X147134126Y-131448605D01*
X147147614Y-131456392D01*
X147274908Y-131490500D01*
X147274911Y-131490500D01*
X147406689Y-131490500D01*
X147406692Y-131490500D01*
X147533986Y-131456392D01*
X147648114Y-131390500D01*
X147741300Y-131297314D01*
X147807192Y-131183186D01*
X147841300Y-131055892D01*
X147841300Y-130924108D01*
X147807192Y-130796814D01*
X147800486Y-130785200D01*
X147741301Y-130682686D01*
X147648115Y-130589500D01*
X147648112Y-130589498D01*
X147533990Y-130523610D01*
X147533988Y-130523609D01*
X147533986Y-130523608D01*
X147406692Y-130489500D01*
X147274908Y-130489500D01*
X147274907Y-130489500D01*
X147147617Y-130523607D01*
X147147609Y-130523610D01*
X147033488Y-130589497D01*
X147004804Y-130618182D01*
X146962586Y-130660399D01*
X146952688Y-130664500D01*
X141303719Y-130664500D01*
X141303703Y-130664499D01*
X141302853Y-130664499D01*
X141217147Y-130664499D01*
X141217146Y-130664499D01*
X141149274Y-130682685D01*
X141149275Y-130682686D01*
X141134362Y-130686682D01*
X141134360Y-130686682D01*
X141134357Y-130686684D01*
X141060140Y-130729532D01*
X141042992Y-130746681D01*
X140999535Y-130790138D01*
X140999533Y-130790140D01*
X133683775Y-138105896D01*
X133673876Y-138109997D01*
X133668518Y-138108931D01*
X133536851Y-138054393D01*
X133536845Y-138054391D01*
X133346856Y-138016600D01*
X133153144Y-138016600D01*
X132963154Y-138054391D01*
X132963148Y-138054393D01*
X132784186Y-138128521D01*
X132623113Y-138236148D01*
X132486148Y-138373113D01*
X132378521Y-138534186D01*
X132352434Y-138597168D01*
X132344858Y-138604744D01*
X132334142Y-138604744D01*
X132326566Y-138597168D01*
X132325500Y-138591810D01*
X132325500Y-135263850D01*
X132325500Y-135263847D01*
X132303318Y-135181062D01*
X132303318Y-135181061D01*
X132260465Y-135106838D01*
X132260464Y-135106836D01*
X127943163Y-130789535D01*
X127943160Y-130789533D01*
X127868943Y-130746684D01*
X127868941Y-130746683D01*
X127868939Y-130746682D01*
X127786153Y-130724500D01*
X127719012Y-130724500D01*
X127709113Y-130720399D01*
X127638214Y-130649500D01*
X127638213Y-130649499D01*
X127638211Y-130649497D01*
X127524090Y-130583610D01*
X127524088Y-130583609D01*
X127524086Y-130583608D01*
X127396792Y-130549500D01*
X127265008Y-130549500D01*
X127265007Y-130549500D01*
X127137717Y-130583607D01*
X127137709Y-130583610D01*
X127023587Y-130649498D01*
X127023584Y-130649500D01*
X126930400Y-130742684D01*
X126930398Y-130742687D01*
X126864510Y-130856809D01*
X126864507Y-130856817D01*
X126830400Y-130984107D01*
X126830400Y-131115892D01*
X126864507Y-131243182D01*
X126864510Y-131243190D01*
X126930398Y-131357312D01*
X126930400Y-131357315D01*
X127023584Y-131450499D01*
X127023587Y-131450501D01*
X127033791Y-131456392D01*
X127137714Y-131516392D01*
X127265008Y-131550500D01*
X127265011Y-131550500D01*
X127396789Y-131550500D01*
X127396792Y-131550500D01*
X127524086Y-131516392D01*
X127638214Y-131450500D01*
X127650945Y-131437767D01*
X127660842Y-131433668D01*
X127670740Y-131437767D01*
X127670742Y-131437769D01*
X129596450Y-133363477D01*
X129600551Y-133373376D01*
X129596450Y-133383275D01*
X129590175Y-133386899D01*
X129513034Y-133407570D01*
X129493114Y-133412908D01*
X129493112Y-133412908D01*
X129493109Y-133412910D01*
X129378988Y-133478797D01*
X129343538Y-133514248D01*
X129308086Y-133549699D01*
X129298188Y-133553800D01*
X119351025Y-133553800D01*
X119341126Y-133549699D01*
X116260701Y-130469274D01*
X116256600Y-130459375D01*
X116256600Y-130359111D01*
X116256600Y-130359108D01*
X116222492Y-130231814D01*
X116204412Y-130200499D01*
X116156601Y-130117687D01*
X116156599Y-130117684D01*
X116063415Y-130024500D01*
X116063412Y-130024498D01*
X115953488Y-129961034D01*
X115946965Y-129952534D01*
X115948364Y-129941910D01*
X115956864Y-129935387D01*
X115958298Y-129935082D01*
X116089543Y-129914295D01*
X116306609Y-129843767D01*
X116509962Y-129740152D01*
X116509969Y-129740148D01*
X116583308Y-129686864D01*
X116583309Y-129686862D01*
X116488054Y-129591607D01*
X129476900Y-129591607D01*
X129476900Y-129723392D01*
X129511007Y-129850682D01*
X129511010Y-129850690D01*
X129576898Y-129964812D01*
X129576900Y-129964815D01*
X129670084Y-130057999D01*
X129670087Y-130058001D01*
X129670089Y-130058002D01*
X129784214Y-130123892D01*
X129911508Y-130158000D01*
X129911511Y-130158000D01*
X130043289Y-130158000D01*
X130043292Y-130158000D01*
X130170586Y-130123892D01*
X130284714Y-130058000D01*
X130313113Y-130029600D01*
X130323012Y-130025500D01*
X143562788Y-130025500D01*
X143572687Y-130029601D01*
X143643585Y-130100499D01*
X143643588Y-130100502D01*
X143743177Y-130157999D01*
X143757714Y-130166392D01*
X143885008Y-130200500D01*
X143885011Y-130200500D01*
X144016789Y-130200500D01*
X144016792Y-130200500D01*
X144144086Y-130166392D01*
X144258214Y-130100500D01*
X144351400Y-130007314D01*
X144417292Y-129893186D01*
X144451400Y-129765892D01*
X144451400Y-129634108D01*
X144417292Y-129506814D01*
X144351400Y-129392686D01*
X144351399Y-129392684D01*
X144258215Y-129299500D01*
X144258212Y-129299498D01*
X144144090Y-129233610D01*
X144144088Y-129233609D01*
X144144086Y-129233608D01*
X144016792Y-129199500D01*
X143885008Y-129199500D01*
X143885007Y-129199500D01*
X143757717Y-129233607D01*
X143757709Y-129233610D01*
X143643588Y-129299497D01*
X143609778Y-129333308D01*
X143572686Y-129370399D01*
X143562788Y-129374500D01*
X130400020Y-129374500D01*
X130390121Y-129370399D01*
X130387896Y-129367500D01*
X130377902Y-129350189D01*
X130377901Y-129350187D01*
X130377900Y-129350186D01*
X130377897Y-129350183D01*
X130377893Y-129350178D01*
X130284715Y-129257000D01*
X130284712Y-129256998D01*
X130170590Y-129191110D01*
X130170588Y-129191109D01*
X130170586Y-129191108D01*
X130043292Y-129157000D01*
X129911508Y-129157000D01*
X129911507Y-129157000D01*
X129784217Y-129191107D01*
X129784209Y-129191110D01*
X129670087Y-129256998D01*
X129670084Y-129257000D01*
X129576900Y-129350184D01*
X129576898Y-129350187D01*
X129511010Y-129464309D01*
X129511007Y-129464317D01*
X129476900Y-129591607D01*
X116488054Y-129591607D01*
X115997488Y-129101041D01*
X116057890Y-129076022D01*
X116164351Y-129004888D01*
X116254888Y-128914351D01*
X116326022Y-128807890D01*
X116351041Y-128747488D01*
X116936862Y-129333309D01*
X116936864Y-129333308D01*
X116990148Y-129259969D01*
X116990152Y-129259962D01*
X117093767Y-129056609D01*
X117164295Y-128839543D01*
X117200000Y-128614116D01*
X117200000Y-128409454D01*
X162099500Y-128409454D01*
X162099500Y-128590545D01*
X162127829Y-128769409D01*
X162183789Y-128941641D01*
X162266002Y-129102990D01*
X162266012Y-129103006D01*
X162372445Y-129249499D01*
X162372452Y-129249507D01*
X162500492Y-129377547D01*
X162500500Y-129377554D01*
X162646993Y-129483987D01*
X162646997Y-129483989D01*
X162647006Y-129483996D01*
X162727683Y-129525103D01*
X162808358Y-129566210D01*
X162808360Y-129566210D01*
X162808361Y-129566211D01*
X162980591Y-129622171D01*
X163159454Y-129650500D01*
X163340546Y-129650500D01*
X163519409Y-129622171D01*
X163691639Y-129566211D01*
X163852994Y-129483996D01*
X163999501Y-129377553D01*
X164127553Y-129249501D01*
X164233996Y-129102994D01*
X164316211Y-128941639D01*
X164372171Y-128769409D01*
X164400500Y-128590546D01*
X164400500Y-128409454D01*
X164396767Y-128385883D01*
X174300000Y-128385883D01*
X174300000Y-128614116D01*
X174335704Y-128839543D01*
X174406232Y-129056609D01*
X174509847Y-129259962D01*
X174509857Y-129259978D01*
X174563135Y-129333308D01*
X174563136Y-129333308D01*
X175148957Y-128747486D01*
X175173978Y-128807890D01*
X175245112Y-128914351D01*
X175335649Y-129004888D01*
X175442110Y-129076022D01*
X175502511Y-129101041D01*
X174916690Y-129686862D01*
X174916690Y-129686863D01*
X174990021Y-129740142D01*
X174990037Y-129740152D01*
X175193390Y-129843767D01*
X175410456Y-129914295D01*
X175635883Y-129950000D01*
X175864117Y-129950000D01*
X176089543Y-129914295D01*
X176306609Y-129843767D01*
X176509962Y-129740152D01*
X176509969Y-129740148D01*
X176583308Y-129686864D01*
X176583309Y-129686862D01*
X175997488Y-129101041D01*
X176057890Y-129076022D01*
X176164351Y-129004888D01*
X176254888Y-128914351D01*
X176326022Y-128807890D01*
X176351041Y-128747488D01*
X176936862Y-129333309D01*
X176936864Y-129333308D01*
X176990148Y-129259969D01*
X176990152Y-129259962D01*
X177093767Y-129056609D01*
X177164295Y-128839543D01*
X177200000Y-128614116D01*
X177200000Y-128385883D01*
X177164295Y-128160456D01*
X177093767Y-127943390D01*
X176990152Y-127740037D01*
X176990142Y-127740021D01*
X176936863Y-127666690D01*
X176936862Y-127666690D01*
X176351041Y-128252511D01*
X176326022Y-128192110D01*
X176254888Y-128085649D01*
X176164351Y-127995112D01*
X176057890Y-127923978D01*
X175997487Y-127898957D01*
X176583308Y-127313136D01*
X176583308Y-127313135D01*
X176509978Y-127259857D01*
X176509962Y-127259847D01*
X176306609Y-127156232D01*
X176089543Y-127085704D01*
X175864117Y-127050000D01*
X175635883Y-127050000D01*
X175410456Y-127085704D01*
X175193390Y-127156232D01*
X174990037Y-127259847D01*
X174990021Y-127259857D01*
X174916690Y-127313135D01*
X174916690Y-127313137D01*
X175502511Y-127898958D01*
X175442110Y-127923978D01*
X175335649Y-127995112D01*
X175245112Y-128085649D01*
X175173978Y-128192110D01*
X175148958Y-128252511D01*
X174563137Y-127666690D01*
X174563135Y-127666690D01*
X174509857Y-127740021D01*
X174509847Y-127740037D01*
X174406232Y-127943390D01*
X174335704Y-128160456D01*
X174300000Y-128385883D01*
X164396767Y-128385883D01*
X164372171Y-128230591D01*
X164316211Y-128058361D01*
X164316210Y-128058360D01*
X164316210Y-128058358D01*
X164247739Y-127923978D01*
X164233996Y-127897006D01*
X164199844Y-127850000D01*
X164127554Y-127750500D01*
X164127547Y-127750492D01*
X163999507Y-127622452D01*
X163999499Y-127622445D01*
X163853006Y-127516012D01*
X163852998Y-127516007D01*
X163852994Y-127516004D01*
X163847172Y-127513037D01*
X163691641Y-127433789D01*
X163519409Y-127377829D01*
X163340546Y-127349500D01*
X163159454Y-127349500D01*
X162980590Y-127377829D01*
X162808358Y-127433789D01*
X162647009Y-127516002D01*
X162646993Y-127516012D01*
X162500500Y-127622445D01*
X162500492Y-127622452D01*
X162372452Y-127750492D01*
X162372445Y-127750500D01*
X162266012Y-127896993D01*
X162266002Y-127897009D01*
X162183789Y-128058358D01*
X162127829Y-128230590D01*
X162099500Y-128409454D01*
X117200000Y-128409454D01*
X117200000Y-128385883D01*
X117164295Y-128160456D01*
X117093767Y-127943390D01*
X116990152Y-127740037D01*
X116990142Y-127740021D01*
X116936863Y-127666690D01*
X116936862Y-127666690D01*
X116351041Y-128252511D01*
X116326022Y-128192110D01*
X116254888Y-128085649D01*
X116164351Y-127995112D01*
X116057890Y-127923978D01*
X115997487Y-127898957D01*
X116583308Y-127313136D01*
X116583308Y-127313135D01*
X116509978Y-127259857D01*
X116509962Y-127259847D01*
X116306609Y-127156232D01*
X116089543Y-127085704D01*
X115864117Y-127050000D01*
X115635883Y-127050000D01*
X115410456Y-127085704D01*
X115193390Y-127156232D01*
X114990037Y-127259847D01*
X114990021Y-127259857D01*
X114916690Y-127313135D01*
X114916690Y-127313137D01*
X115502511Y-127898958D01*
X115442110Y-127923978D01*
X115335649Y-127995112D01*
X115245112Y-128085649D01*
X115173978Y-128192110D01*
X115148958Y-128252511D01*
X114563137Y-127666690D01*
X114563135Y-127666690D01*
X114509857Y-127740021D01*
X114509847Y-127740037D01*
X114406232Y-127943390D01*
X114335704Y-128160456D01*
X114300000Y-128385883D01*
X104396767Y-128385883D01*
X104372171Y-128230591D01*
X104316211Y-128058361D01*
X104316210Y-128058360D01*
X104316210Y-128058358D01*
X104247739Y-127923978D01*
X104233996Y-127897006D01*
X104199844Y-127850000D01*
X104127554Y-127750500D01*
X104127547Y-127750492D01*
X103999507Y-127622452D01*
X103999499Y-127622445D01*
X103853006Y-127516012D01*
X103852998Y-127516007D01*
X103852994Y-127516004D01*
X103847172Y-127513037D01*
X103691641Y-127433789D01*
X103519409Y-127377829D01*
X103340546Y-127349500D01*
X103159454Y-127349500D01*
X102980590Y-127377829D01*
X102808358Y-127433789D01*
X102647009Y-127516002D01*
X102646993Y-127516012D01*
X102500500Y-127622445D01*
X102500492Y-127622452D01*
X102372452Y-127750492D01*
X102372445Y-127750500D01*
X102266012Y-127896993D01*
X102266002Y-127897009D01*
X102183789Y-128058358D01*
X102127829Y-128230590D01*
X102099500Y-128409454D01*
X81000000Y-128409454D01*
X81000000Y-123409454D01*
X102099500Y-123409454D01*
X102099500Y-123590545D01*
X102127829Y-123769409D01*
X102183789Y-123941641D01*
X102266002Y-124102990D01*
X102266012Y-124103006D01*
X102372445Y-124249499D01*
X102372452Y-124249507D01*
X102500492Y-124377547D01*
X102500500Y-124377554D01*
X102646993Y-124483987D01*
X102646997Y-124483989D01*
X102647006Y-124483996D01*
X102727683Y-124525103D01*
X102808358Y-124566210D01*
X102808360Y-124566210D01*
X102808361Y-124566211D01*
X102980591Y-124622171D01*
X103159454Y-124650500D01*
X103340546Y-124650500D01*
X103519409Y-124622171D01*
X103691639Y-124566211D01*
X103852994Y-124483996D01*
X103999501Y-124377553D01*
X104127553Y-124249501D01*
X104233996Y-124102994D01*
X104316211Y-123941639D01*
X104372171Y-123769409D01*
X104400500Y-123590546D01*
X104400500Y-123409454D01*
X104396767Y-123385883D01*
X114300000Y-123385883D01*
X114300000Y-123614116D01*
X114335704Y-123839543D01*
X114406232Y-124056609D01*
X114509847Y-124259962D01*
X114509857Y-124259978D01*
X114563135Y-124333308D01*
X114563136Y-124333308D01*
X115148957Y-123747486D01*
X115173978Y-123807890D01*
X115245112Y-123914351D01*
X115335649Y-124004888D01*
X115442110Y-124076022D01*
X115502511Y-124101041D01*
X114916690Y-124686862D01*
X114916690Y-124686863D01*
X114990021Y-124740142D01*
X114990037Y-124740152D01*
X115193390Y-124843767D01*
X115410456Y-124914295D01*
X115635883Y-124950000D01*
X115864117Y-124950000D01*
X116089543Y-124914295D01*
X116306609Y-124843767D01*
X116509962Y-124740152D01*
X116509969Y-124740148D01*
X116583308Y-124686864D01*
X116583309Y-124686862D01*
X115997488Y-124101041D01*
X116057890Y-124076022D01*
X116164351Y-124004888D01*
X116254888Y-123914351D01*
X116326022Y-123807890D01*
X116351041Y-123747488D01*
X116936862Y-124333309D01*
X116936864Y-124333308D01*
X116990148Y-124259969D01*
X116990152Y-124259962D01*
X117093767Y-124056609D01*
X117164295Y-123839543D01*
X117200000Y-123614116D01*
X117200000Y-123409454D01*
X162099500Y-123409454D01*
X162099500Y-123590545D01*
X162127829Y-123769409D01*
X162183789Y-123941641D01*
X162266002Y-124102990D01*
X162266012Y-124103006D01*
X162372445Y-124249499D01*
X162372452Y-124249507D01*
X162500492Y-124377547D01*
X162500500Y-124377554D01*
X162646993Y-124483987D01*
X162646997Y-124483989D01*
X162647006Y-124483996D01*
X162727683Y-124525103D01*
X162808358Y-124566210D01*
X162808360Y-124566210D01*
X162808361Y-124566211D01*
X162980591Y-124622171D01*
X163159454Y-124650500D01*
X163340546Y-124650500D01*
X163519409Y-124622171D01*
X163691639Y-124566211D01*
X163852994Y-124483996D01*
X163999501Y-124377553D01*
X164127553Y-124249501D01*
X164233996Y-124102994D01*
X164316211Y-123941639D01*
X164372171Y-123769409D01*
X164400500Y-123590546D01*
X164400500Y-123409454D01*
X164396767Y-123385883D01*
X174300000Y-123385883D01*
X174300000Y-123614116D01*
X174335704Y-123839543D01*
X174406232Y-124056609D01*
X174509847Y-124259962D01*
X174509857Y-124259978D01*
X174563135Y-124333308D01*
X174563136Y-124333308D01*
X175148957Y-123747486D01*
X175173978Y-123807890D01*
X175245112Y-123914351D01*
X175335649Y-124004888D01*
X175442110Y-124076022D01*
X175502511Y-124101041D01*
X174916690Y-124686862D01*
X174916690Y-124686863D01*
X174990021Y-124740142D01*
X174990037Y-124740152D01*
X175193390Y-124843767D01*
X175410456Y-124914295D01*
X175635883Y-124950000D01*
X175864117Y-124950000D01*
X176089543Y-124914295D01*
X176306609Y-124843767D01*
X176509962Y-124740152D01*
X176509969Y-124740148D01*
X176583308Y-124686864D01*
X176583309Y-124686862D01*
X175997488Y-124101041D01*
X176057890Y-124076022D01*
X176164351Y-124004888D01*
X176254888Y-123914351D01*
X176326022Y-123807890D01*
X176351041Y-123747488D01*
X176936862Y-124333309D01*
X176936864Y-124333308D01*
X176990148Y-124259969D01*
X176990152Y-124259962D01*
X177093767Y-124056609D01*
X177164295Y-123839543D01*
X177200000Y-123614116D01*
X177200000Y-123385883D01*
X177164295Y-123160456D01*
X177093767Y-122943390D01*
X176990152Y-122740037D01*
X176990142Y-122740021D01*
X176936863Y-122666690D01*
X176936862Y-122666690D01*
X176351041Y-123252511D01*
X176326022Y-123192110D01*
X176254888Y-123085649D01*
X176164351Y-122995112D01*
X176057890Y-122923978D01*
X175997487Y-122898957D01*
X176583308Y-122313136D01*
X176583308Y-122313135D01*
X176509978Y-122259857D01*
X176509962Y-122259847D01*
X176306609Y-122156232D01*
X176089543Y-122085704D01*
X175864117Y-122050000D01*
X175635883Y-122050000D01*
X175410456Y-122085704D01*
X175193390Y-122156232D01*
X174990037Y-122259847D01*
X174990021Y-122259857D01*
X174916690Y-122313135D01*
X174916690Y-122313137D01*
X175502511Y-122898958D01*
X175442110Y-122923978D01*
X175335649Y-122995112D01*
X175245112Y-123085649D01*
X175173978Y-123192110D01*
X175148958Y-123252511D01*
X174563137Y-122666690D01*
X174563135Y-122666690D01*
X174509857Y-122740021D01*
X174509847Y-122740037D01*
X174406232Y-122943390D01*
X174335704Y-123160456D01*
X174300000Y-123385883D01*
X164396767Y-123385883D01*
X164372171Y-123230591D01*
X164316211Y-123058361D01*
X164316210Y-123058360D01*
X164316210Y-123058358D01*
X164247739Y-122923978D01*
X164233996Y-122897006D01*
X164199844Y-122850000D01*
X164127554Y-122750500D01*
X164127547Y-122750492D01*
X163999507Y-122622452D01*
X163999499Y-122622445D01*
X163853006Y-122516012D01*
X163852998Y-122516007D01*
X163852994Y-122516004D01*
X163847172Y-122513037D01*
X163691641Y-122433789D01*
X163519409Y-122377829D01*
X163340546Y-122349500D01*
X163159454Y-122349500D01*
X162980590Y-122377829D01*
X162808358Y-122433789D01*
X162647009Y-122516002D01*
X162646993Y-122516012D01*
X162500500Y-122622445D01*
X162500492Y-122622452D01*
X162372452Y-122750492D01*
X162372445Y-122750500D01*
X162266012Y-122896993D01*
X162266002Y-122897009D01*
X162183789Y-123058358D01*
X162127829Y-123230590D01*
X162099500Y-123409454D01*
X117200000Y-123409454D01*
X117200000Y-123385883D01*
X117164295Y-123160456D01*
X117093767Y-122943390D01*
X116990152Y-122740037D01*
X116990142Y-122740021D01*
X116936863Y-122666690D01*
X116936862Y-122666690D01*
X116351041Y-123252511D01*
X116326022Y-123192110D01*
X116254888Y-123085649D01*
X116164351Y-122995112D01*
X116057890Y-122923978D01*
X115997487Y-122898957D01*
X116583308Y-122313136D01*
X116583308Y-122313135D01*
X116509978Y-122259857D01*
X116509962Y-122259847D01*
X116306609Y-122156232D01*
X116089543Y-122085704D01*
X115864117Y-122050000D01*
X115635883Y-122050000D01*
X115410456Y-122085704D01*
X115193390Y-122156232D01*
X114990037Y-122259847D01*
X114990021Y-122259857D01*
X114916690Y-122313135D01*
X114916690Y-122313137D01*
X115502511Y-122898958D01*
X115442110Y-122923978D01*
X115335649Y-122995112D01*
X115245112Y-123085649D01*
X115173978Y-123192110D01*
X115148958Y-123252511D01*
X114563137Y-122666690D01*
X114563135Y-122666690D01*
X114509857Y-122740021D01*
X114509847Y-122740037D01*
X114406232Y-122943390D01*
X114335704Y-123160456D01*
X114300000Y-123385883D01*
X104396767Y-123385883D01*
X104372171Y-123230591D01*
X104316211Y-123058361D01*
X104316210Y-123058360D01*
X104316210Y-123058358D01*
X104247739Y-122923978D01*
X104233996Y-122897006D01*
X104199844Y-122850000D01*
X104127554Y-122750500D01*
X104127547Y-122750492D01*
X103999507Y-122622452D01*
X103999499Y-122622445D01*
X103853006Y-122516012D01*
X103852998Y-122516007D01*
X103852994Y-122516004D01*
X103847172Y-122513037D01*
X103691641Y-122433789D01*
X103519409Y-122377829D01*
X103340546Y-122349500D01*
X103159454Y-122349500D01*
X102980590Y-122377829D01*
X102808358Y-122433789D01*
X102647009Y-122516002D01*
X102646993Y-122516012D01*
X102500500Y-122622445D01*
X102500492Y-122622452D01*
X102372452Y-122750492D01*
X102372445Y-122750500D01*
X102266012Y-122896993D01*
X102266002Y-122897009D01*
X102183789Y-123058358D01*
X102127829Y-123230590D01*
X102099500Y-123409454D01*
X81000000Y-123409454D01*
X81000000Y-110409454D01*
X84099500Y-110409454D01*
X84099500Y-110590545D01*
X84127829Y-110769409D01*
X84183789Y-110941641D01*
X84266002Y-111102990D01*
X84266012Y-111103006D01*
X84372445Y-111249499D01*
X84372452Y-111249507D01*
X84500492Y-111377547D01*
X84500500Y-111377554D01*
X84646993Y-111483987D01*
X84646997Y-111483989D01*
X84647006Y-111483996D01*
X84727683Y-111525103D01*
X84808358Y-111566210D01*
X84808360Y-111566210D01*
X84808361Y-111566211D01*
X84980591Y-111622171D01*
X85159454Y-111650500D01*
X85340546Y-111650500D01*
X85519409Y-111622171D01*
X85691639Y-111566211D01*
X85852994Y-111483996D01*
X85999501Y-111377553D01*
X86127553Y-111249501D01*
X86233996Y-111102994D01*
X86316211Y-110941639D01*
X86372171Y-110769409D01*
X86400500Y-110590546D01*
X86400500Y-110409454D01*
X86396767Y-110385883D01*
X96300000Y-110385883D01*
X96300000Y-110614116D01*
X96335704Y-110839543D01*
X96406232Y-111056609D01*
X96509847Y-111259962D01*
X96509857Y-111259978D01*
X96563135Y-111333308D01*
X96563136Y-111333308D01*
X97148957Y-110747486D01*
X97173978Y-110807890D01*
X97245112Y-110914351D01*
X97335649Y-111004888D01*
X97442110Y-111076022D01*
X97502511Y-111101041D01*
X96916690Y-111686862D01*
X96916690Y-111686863D01*
X96990021Y-111740142D01*
X96990037Y-111740152D01*
X97193390Y-111843767D01*
X97410456Y-111914295D01*
X97635883Y-111950000D01*
X97864117Y-111950000D01*
X98089543Y-111914295D01*
X98306609Y-111843767D01*
X98509962Y-111740152D01*
X98509969Y-111740148D01*
X98583308Y-111686864D01*
X98583309Y-111686862D01*
X97997488Y-111101041D01*
X98057890Y-111076022D01*
X98164351Y-111004888D01*
X98254888Y-110914351D01*
X98326022Y-110807890D01*
X98351041Y-110747488D01*
X98936862Y-111333309D01*
X98936864Y-111333308D01*
X98990148Y-111259969D01*
X98990152Y-111259962D01*
X99093767Y-111056609D01*
X99164295Y-110839543D01*
X99200000Y-110614116D01*
X99200000Y-110385883D01*
X99164295Y-110160456D01*
X99093767Y-109943390D01*
X98990152Y-109740037D01*
X98990142Y-109740021D01*
X98936863Y-109666690D01*
X98936862Y-109666690D01*
X98351041Y-110252511D01*
X98326022Y-110192110D01*
X98254888Y-110085649D01*
X98164351Y-109995112D01*
X98057890Y-109923978D01*
X97997487Y-109898957D01*
X98583308Y-109313136D01*
X98583308Y-109313135D01*
X98509978Y-109259857D01*
X98509962Y-109259847D01*
X98306609Y-109156232D01*
X98089543Y-109085704D01*
X97864117Y-109050000D01*
X97635883Y-109050000D01*
X97410456Y-109085704D01*
X97193390Y-109156232D01*
X96990037Y-109259847D01*
X96990021Y-109259857D01*
X96916690Y-109313135D01*
X96916690Y-109313137D01*
X97502511Y-109898958D01*
X97442110Y-109923978D01*
X97335649Y-109995112D01*
X97245112Y-110085649D01*
X97173978Y-110192110D01*
X97148958Y-110252511D01*
X96563137Y-109666690D01*
X96563135Y-109666690D01*
X96509857Y-109740021D01*
X96509847Y-109740037D01*
X96406232Y-109943390D01*
X96335704Y-110160456D01*
X96300000Y-110385883D01*
X86396767Y-110385883D01*
X86372171Y-110230591D01*
X86316211Y-110058361D01*
X86316210Y-110058360D01*
X86316210Y-110058358D01*
X86247739Y-109923978D01*
X86233996Y-109897006D01*
X86199844Y-109850000D01*
X86127554Y-109750500D01*
X86127547Y-109750492D01*
X85999507Y-109622452D01*
X85999499Y-109622445D01*
X85853006Y-109516012D01*
X85852998Y-109516007D01*
X85852994Y-109516004D01*
X85847172Y-109513037D01*
X85691641Y-109433789D01*
X85519409Y-109377829D01*
X85340546Y-109349500D01*
X85159454Y-109349500D01*
X84980590Y-109377829D01*
X84808358Y-109433789D01*
X84647009Y-109516002D01*
X84646993Y-109516012D01*
X84500500Y-109622445D01*
X84500492Y-109622452D01*
X84372452Y-109750492D01*
X84372445Y-109750500D01*
X84266012Y-109896993D01*
X84266002Y-109897009D01*
X84183789Y-110058358D01*
X84127829Y-110230590D01*
X84099500Y-110409454D01*
X81000000Y-110409454D01*
X81000000Y-105409454D01*
X84099500Y-105409454D01*
X84099500Y-105590545D01*
X84127829Y-105769409D01*
X84183789Y-105941641D01*
X84266002Y-106102990D01*
X84266012Y-106103006D01*
X84372445Y-106249499D01*
X84372452Y-106249507D01*
X84500492Y-106377547D01*
X84500500Y-106377554D01*
X84646993Y-106483987D01*
X84646997Y-106483989D01*
X84647006Y-106483996D01*
X84727683Y-106525103D01*
X84808358Y-106566210D01*
X84808360Y-106566210D01*
X84808361Y-106566211D01*
X84980591Y-106622171D01*
X85159454Y-106650500D01*
X85340546Y-106650500D01*
X85519409Y-106622171D01*
X85691639Y-106566211D01*
X85852994Y-106483996D01*
X85999501Y-106377553D01*
X86127553Y-106249501D01*
X86233996Y-106102994D01*
X86316211Y-105941639D01*
X86372171Y-105769409D01*
X86400500Y-105590546D01*
X86400500Y-105409454D01*
X86396767Y-105385883D01*
X96300000Y-105385883D01*
X96300000Y-105614116D01*
X96335704Y-105839543D01*
X96406232Y-106056609D01*
X96509847Y-106259962D01*
X96509857Y-106259978D01*
X96563135Y-106333308D01*
X96563136Y-106333308D01*
X97148957Y-105747486D01*
X97173978Y-105807890D01*
X97245112Y-105914351D01*
X97335649Y-106004888D01*
X97442110Y-106076022D01*
X97502511Y-106101041D01*
X96916690Y-106686862D01*
X96916690Y-106686863D01*
X96990021Y-106740142D01*
X96990037Y-106740152D01*
X97193390Y-106843767D01*
X97410456Y-106914295D01*
X97635883Y-106950000D01*
X97864117Y-106950000D01*
X98089543Y-106914295D01*
X98306609Y-106843767D01*
X98509962Y-106740152D01*
X98509969Y-106740148D01*
X98583308Y-106686864D01*
X98583309Y-106686862D01*
X97997488Y-106101041D01*
X98057890Y-106076022D01*
X98164351Y-106004888D01*
X98254888Y-105914351D01*
X98326022Y-105807890D01*
X98351041Y-105747488D01*
X98936862Y-106333309D01*
X98936864Y-106333308D01*
X98990148Y-106259969D01*
X98990152Y-106259962D01*
X99093767Y-106056609D01*
X99164295Y-105839543D01*
X99200000Y-105614116D01*
X99200000Y-105409454D01*
X120099500Y-105409454D01*
X120099500Y-105590545D01*
X120127829Y-105769409D01*
X120183789Y-105941641D01*
X120266002Y-106102990D01*
X120266012Y-106103006D01*
X120372445Y-106249499D01*
X120372452Y-106249507D01*
X120500492Y-106377547D01*
X120500500Y-106377554D01*
X120646993Y-106483987D01*
X120646997Y-106483989D01*
X120647006Y-106483996D01*
X120727683Y-106525103D01*
X120808358Y-106566210D01*
X120808360Y-106566210D01*
X120808361Y-106566211D01*
X120914827Y-106600803D01*
X120922974Y-106607761D01*
X120924500Y-106614117D01*
X120924500Y-109385881D01*
X120920399Y-109395780D01*
X120914826Y-109399196D01*
X120808358Y-109433789D01*
X120647009Y-109516002D01*
X120646993Y-109516012D01*
X120500500Y-109622445D01*
X120500492Y-109622452D01*
X120372452Y-109750492D01*
X120372445Y-109750500D01*
X120266012Y-109896993D01*
X120266002Y-109897009D01*
X120183789Y-110058358D01*
X120127829Y-110230590D01*
X120099500Y-110409454D01*
X120099500Y-110590545D01*
X120127829Y-110769409D01*
X120183789Y-110941641D01*
X120266002Y-111102990D01*
X120266012Y-111103006D01*
X120372445Y-111249499D01*
X120372452Y-111249507D01*
X120500492Y-111377547D01*
X120500500Y-111377554D01*
X120646993Y-111483987D01*
X120646997Y-111483989D01*
X120647006Y-111483996D01*
X120727683Y-111525103D01*
X120808358Y-111566210D01*
X120808360Y-111566210D01*
X120808361Y-111566211D01*
X120980591Y-111622171D01*
X121159454Y-111650500D01*
X121340546Y-111650500D01*
X121519409Y-111622171D01*
X121691639Y-111566211D01*
X121852994Y-111483996D01*
X121999501Y-111377553D01*
X122127553Y-111249501D01*
X122233996Y-111102994D01*
X122316211Y-110941639D01*
X122372171Y-110769409D01*
X122400500Y-110590546D01*
X122400500Y-110409454D01*
X122396767Y-110385883D01*
X132300000Y-110385883D01*
X132300000Y-110614116D01*
X132335704Y-110839543D01*
X132406232Y-111056609D01*
X132509847Y-111259962D01*
X132509857Y-111259978D01*
X132563135Y-111333308D01*
X132563136Y-111333308D01*
X133148957Y-110747486D01*
X133173978Y-110807890D01*
X133245112Y-110914351D01*
X133335649Y-111004888D01*
X133442110Y-111076022D01*
X133502511Y-111101041D01*
X132916690Y-111686862D01*
X132916690Y-111686863D01*
X132990021Y-111740142D01*
X132990037Y-111740152D01*
X133193390Y-111843767D01*
X133410456Y-111914295D01*
X133635883Y-111950000D01*
X133864117Y-111950000D01*
X134089543Y-111914295D01*
X134306609Y-111843767D01*
X134509962Y-111740152D01*
X134509969Y-111740148D01*
X134583308Y-111686864D01*
X134583309Y-111686862D01*
X133997488Y-111101041D01*
X134057890Y-111076022D01*
X134164351Y-111004888D01*
X134254888Y-110914351D01*
X134326022Y-110807890D01*
X134351041Y-110747488D01*
X134936862Y-111333309D01*
X134936864Y-111333308D01*
X134990148Y-111259969D01*
X134990152Y-111259962D01*
X135093767Y-111056609D01*
X135164295Y-110839543D01*
X135200000Y-110614116D01*
X135200000Y-110385883D01*
X135164295Y-110160456D01*
X135093767Y-109943390D01*
X134990152Y-109740037D01*
X134990142Y-109740021D01*
X134936863Y-109666690D01*
X134936862Y-109666690D01*
X134351041Y-110252511D01*
X134326022Y-110192110D01*
X134254888Y-110085649D01*
X134164351Y-109995112D01*
X134057890Y-109923978D01*
X133997487Y-109898957D01*
X134583308Y-109313136D01*
X134583308Y-109313135D01*
X134509978Y-109259857D01*
X134509962Y-109259847D01*
X134306609Y-109156232D01*
X134089543Y-109085704D01*
X133864117Y-109050000D01*
X133635883Y-109050000D01*
X133410456Y-109085704D01*
X133193390Y-109156232D01*
X132990037Y-109259847D01*
X132990021Y-109259857D01*
X132916690Y-109313135D01*
X132916690Y-109313137D01*
X133502511Y-109898958D01*
X133442110Y-109923978D01*
X133335649Y-109995112D01*
X133245112Y-110085649D01*
X133173978Y-110192110D01*
X133148958Y-110252511D01*
X132563137Y-109666690D01*
X132563135Y-109666690D01*
X132509857Y-109740021D01*
X132509847Y-109740037D01*
X132406232Y-109943390D01*
X132335704Y-110160456D01*
X132300000Y-110385883D01*
X122396767Y-110385883D01*
X122372171Y-110230591D01*
X122316211Y-110058361D01*
X122316210Y-110058360D01*
X122316210Y-110058358D01*
X122247739Y-109923978D01*
X122233996Y-109897006D01*
X122199844Y-109850000D01*
X122127554Y-109750500D01*
X122127547Y-109750492D01*
X121999507Y-109622452D01*
X121999499Y-109622445D01*
X121853006Y-109516012D01*
X121852998Y-109516007D01*
X121852994Y-109516004D01*
X121847172Y-109513037D01*
X121691641Y-109433789D01*
X121585174Y-109399196D01*
X121577026Y-109392237D01*
X121575500Y-109385881D01*
X121575500Y-106614117D01*
X121579601Y-106604218D01*
X121585171Y-106600803D01*
X121691639Y-106566211D01*
X121852994Y-106483996D01*
X121999501Y-106377553D01*
X122127553Y-106249501D01*
X122233996Y-106102994D01*
X122316211Y-105941639D01*
X122372171Y-105769409D01*
X122400500Y-105590546D01*
X122400500Y-105409454D01*
X122396767Y-105385883D01*
X132300000Y-105385883D01*
X132300000Y-105614116D01*
X132335704Y-105839543D01*
X132406232Y-106056609D01*
X132509847Y-106259962D01*
X132509857Y-106259978D01*
X132563135Y-106333308D01*
X132563136Y-106333308D01*
X133148957Y-105747486D01*
X133173978Y-105807890D01*
X133245112Y-105914351D01*
X133335649Y-106004888D01*
X133442110Y-106076022D01*
X133502511Y-106101041D01*
X132916690Y-106686862D01*
X132916690Y-106686863D01*
X132990021Y-106740142D01*
X132990037Y-106740152D01*
X133193390Y-106843767D01*
X133410456Y-106914295D01*
X133635883Y-106950000D01*
X133864117Y-106950000D01*
X134089543Y-106914295D01*
X134306609Y-106843767D01*
X134509962Y-106740152D01*
X134509969Y-106740148D01*
X134583308Y-106686864D01*
X134583309Y-106686862D01*
X133997488Y-106101041D01*
X134057890Y-106076022D01*
X134164351Y-106004888D01*
X134254888Y-105914351D01*
X134326022Y-105807890D01*
X134351041Y-105747488D01*
X134936862Y-106333309D01*
X134936864Y-106333308D01*
X134990148Y-106259969D01*
X134990152Y-106259962D01*
X135093767Y-106056609D01*
X135164295Y-105839543D01*
X135200000Y-105614116D01*
X135200000Y-105409454D01*
X144099500Y-105409454D01*
X144099500Y-105590545D01*
X144127829Y-105769409D01*
X144183789Y-105941641D01*
X144266002Y-106102990D01*
X144266012Y-106103006D01*
X144372445Y-106249499D01*
X144372452Y-106249507D01*
X144500492Y-106377547D01*
X144500500Y-106377554D01*
X144646993Y-106483987D01*
X144646997Y-106483989D01*
X144647006Y-106483996D01*
X144727683Y-106525103D01*
X144808358Y-106566210D01*
X144808360Y-106566210D01*
X144808361Y-106566211D01*
X144914827Y-106600803D01*
X144922974Y-106607761D01*
X144924500Y-106614117D01*
X144924500Y-109385881D01*
X144920399Y-109395780D01*
X144914826Y-109399196D01*
X144808358Y-109433789D01*
X144647009Y-109516002D01*
X144646993Y-109516012D01*
X144500500Y-109622445D01*
X144500492Y-109622452D01*
X144372452Y-109750492D01*
X144372445Y-109750500D01*
X144266012Y-109896993D01*
X144266002Y-109897009D01*
X144183789Y-110058358D01*
X144127829Y-110230590D01*
X144099500Y-110409454D01*
X144099500Y-110590545D01*
X144127829Y-110769409D01*
X144183789Y-110941641D01*
X144266002Y-111102990D01*
X144266012Y-111103006D01*
X144372445Y-111249499D01*
X144372452Y-111249507D01*
X144500492Y-111377547D01*
X144500500Y-111377554D01*
X144646993Y-111483987D01*
X144646997Y-111483989D01*
X144647006Y-111483996D01*
X144727683Y-111525103D01*
X144808358Y-111566210D01*
X144808360Y-111566210D01*
X144808361Y-111566211D01*
X144980591Y-111622171D01*
X145159454Y-111650500D01*
X145340546Y-111650500D01*
X145519409Y-111622171D01*
X145691639Y-111566211D01*
X145852994Y-111483996D01*
X145999501Y-111377553D01*
X146127553Y-111249501D01*
X146233996Y-111102994D01*
X146316211Y-110941639D01*
X146372171Y-110769409D01*
X146400500Y-110590546D01*
X146400500Y-110409454D01*
X146396767Y-110385883D01*
X156300000Y-110385883D01*
X156300000Y-110614116D01*
X156335704Y-110839543D01*
X156406232Y-111056609D01*
X156509847Y-111259962D01*
X156509857Y-111259978D01*
X156563135Y-111333308D01*
X156563136Y-111333308D01*
X157148957Y-110747486D01*
X157173978Y-110807890D01*
X157245112Y-110914351D01*
X157335649Y-111004888D01*
X157442110Y-111076022D01*
X157502511Y-111101041D01*
X156916690Y-111686862D01*
X156916690Y-111686863D01*
X156990021Y-111740142D01*
X156990037Y-111740152D01*
X157193390Y-111843767D01*
X157410456Y-111914295D01*
X157635883Y-111950000D01*
X157864117Y-111950000D01*
X158089543Y-111914295D01*
X158306609Y-111843767D01*
X158509962Y-111740152D01*
X158509969Y-111740148D01*
X158583308Y-111686864D01*
X158583309Y-111686862D01*
X157997488Y-111101041D01*
X158057890Y-111076022D01*
X158164351Y-111004888D01*
X158254888Y-110914351D01*
X158326022Y-110807890D01*
X158351041Y-110747488D01*
X158936862Y-111333309D01*
X158936864Y-111333308D01*
X158990148Y-111259969D01*
X158990152Y-111259962D01*
X159093767Y-111056609D01*
X159164295Y-110839543D01*
X159200000Y-110614116D01*
X159200000Y-110385883D01*
X159164295Y-110160456D01*
X159093767Y-109943390D01*
X158990152Y-109740037D01*
X158990142Y-109740021D01*
X158936863Y-109666690D01*
X158936862Y-109666690D01*
X158351041Y-110252511D01*
X158326022Y-110192110D01*
X158254888Y-110085649D01*
X158164351Y-109995112D01*
X158057890Y-109923978D01*
X157997487Y-109898957D01*
X158583308Y-109313136D01*
X158583308Y-109313135D01*
X158509978Y-109259857D01*
X158509962Y-109259847D01*
X158306609Y-109156232D01*
X158089543Y-109085704D01*
X157864117Y-109050000D01*
X157635883Y-109050000D01*
X157410456Y-109085704D01*
X157193390Y-109156232D01*
X156990037Y-109259847D01*
X156990021Y-109259857D01*
X156916690Y-109313135D01*
X156916690Y-109313137D01*
X157502511Y-109898958D01*
X157442110Y-109923978D01*
X157335649Y-109995112D01*
X157245112Y-110085649D01*
X157173978Y-110192110D01*
X157148958Y-110252511D01*
X156563137Y-109666690D01*
X156563135Y-109666690D01*
X156509857Y-109740021D01*
X156509847Y-109740037D01*
X156406232Y-109943390D01*
X156335704Y-110160456D01*
X156300000Y-110385883D01*
X146396767Y-110385883D01*
X146372171Y-110230591D01*
X146316211Y-110058361D01*
X146316210Y-110058360D01*
X146316210Y-110058358D01*
X146247739Y-109923978D01*
X146233996Y-109897006D01*
X146199844Y-109850000D01*
X146127554Y-109750500D01*
X146127547Y-109750492D01*
X145999507Y-109622452D01*
X145999499Y-109622445D01*
X145853006Y-109516012D01*
X145852998Y-109516007D01*
X145852994Y-109516004D01*
X145847172Y-109513037D01*
X145691641Y-109433789D01*
X145585174Y-109399196D01*
X145577026Y-109392237D01*
X145575500Y-109385881D01*
X145575500Y-106614117D01*
X145579601Y-106604218D01*
X145585171Y-106600803D01*
X145691639Y-106566211D01*
X145852994Y-106483996D01*
X145999501Y-106377553D01*
X146127553Y-106249501D01*
X146233996Y-106102994D01*
X146316211Y-105941639D01*
X146372171Y-105769409D01*
X146400500Y-105590546D01*
X146400500Y-105409454D01*
X146396767Y-105385883D01*
X156300000Y-105385883D01*
X156300000Y-105614116D01*
X156335704Y-105839543D01*
X156406232Y-106056609D01*
X156509847Y-106259962D01*
X156509857Y-106259978D01*
X156563135Y-106333308D01*
X156563136Y-106333308D01*
X157148957Y-105747486D01*
X157173978Y-105807890D01*
X157245112Y-105914351D01*
X157335649Y-106004888D01*
X157442110Y-106076022D01*
X157502511Y-106101041D01*
X156916690Y-106686862D01*
X156916690Y-106686863D01*
X156990021Y-106740142D01*
X156990037Y-106740152D01*
X157193390Y-106843767D01*
X157410456Y-106914295D01*
X157635883Y-106950000D01*
X157864117Y-106950000D01*
X158089543Y-106914295D01*
X158306609Y-106843767D01*
X158509962Y-106740152D01*
X158509969Y-106740148D01*
X158583308Y-106686864D01*
X158583309Y-106686862D01*
X157997488Y-106101041D01*
X158057890Y-106076022D01*
X158164351Y-106004888D01*
X158254888Y-105914351D01*
X158326022Y-105807890D01*
X158351041Y-105747488D01*
X158936862Y-106333309D01*
X158936864Y-106333308D01*
X158990148Y-106259969D01*
X158990152Y-106259962D01*
X159093767Y-106056609D01*
X159164295Y-105839543D01*
X159200000Y-105614116D01*
X159200000Y-105409454D01*
X180099500Y-105409454D01*
X180099500Y-105590545D01*
X180127829Y-105769409D01*
X180183789Y-105941641D01*
X180266002Y-106102990D01*
X180266012Y-106103006D01*
X180372445Y-106249499D01*
X180372452Y-106249507D01*
X180500492Y-106377547D01*
X180500500Y-106377554D01*
X180646993Y-106483987D01*
X180646997Y-106483989D01*
X180647006Y-106483996D01*
X180727683Y-106525103D01*
X180808358Y-106566210D01*
X180808360Y-106566210D01*
X180808361Y-106566211D01*
X180914827Y-106600803D01*
X180922974Y-106607761D01*
X180924500Y-106614117D01*
X180924500Y-109385881D01*
X180920399Y-109395780D01*
X180914826Y-109399196D01*
X180808358Y-109433789D01*
X180647009Y-109516002D01*
X180646993Y-109516012D01*
X180500500Y-109622445D01*
X180500492Y-109622452D01*
X180372452Y-109750492D01*
X180372445Y-109750500D01*
X180266012Y-109896993D01*
X180266002Y-109897009D01*
X180183789Y-110058358D01*
X180127829Y-110230590D01*
X180099500Y-110409454D01*
X180099500Y-110590545D01*
X180127829Y-110769409D01*
X180183789Y-110941641D01*
X180266002Y-111102990D01*
X180266012Y-111103006D01*
X180372445Y-111249499D01*
X180372452Y-111249507D01*
X180500492Y-111377547D01*
X180500500Y-111377554D01*
X180646993Y-111483987D01*
X180646997Y-111483989D01*
X180647006Y-111483996D01*
X180727683Y-111525103D01*
X180808358Y-111566210D01*
X180808360Y-111566210D01*
X180808361Y-111566211D01*
X180980591Y-111622171D01*
X181159454Y-111650500D01*
X181340546Y-111650500D01*
X181519409Y-111622171D01*
X181691639Y-111566211D01*
X181852994Y-111483996D01*
X181999501Y-111377553D01*
X182127553Y-111249501D01*
X182233996Y-111102994D01*
X182316211Y-110941639D01*
X182372171Y-110769409D01*
X182400500Y-110590546D01*
X182400500Y-110409454D01*
X182396767Y-110385883D01*
X192300000Y-110385883D01*
X192300000Y-110614116D01*
X192335704Y-110839543D01*
X192406232Y-111056609D01*
X192509847Y-111259962D01*
X192509857Y-111259978D01*
X192563135Y-111333308D01*
X192563136Y-111333308D01*
X193148957Y-110747486D01*
X193173978Y-110807890D01*
X193245112Y-110914351D01*
X193335649Y-111004888D01*
X193442110Y-111076022D01*
X193502511Y-111101041D01*
X192916690Y-111686862D01*
X192916690Y-111686863D01*
X192990021Y-111740142D01*
X192990037Y-111740152D01*
X193193390Y-111843767D01*
X193410456Y-111914295D01*
X193635883Y-111950000D01*
X193864117Y-111950000D01*
X194089543Y-111914295D01*
X194306609Y-111843767D01*
X194509962Y-111740152D01*
X194509969Y-111740148D01*
X194583308Y-111686864D01*
X194583309Y-111686862D01*
X193997488Y-111101041D01*
X194057890Y-111076022D01*
X194164351Y-111004888D01*
X194254888Y-110914351D01*
X194326022Y-110807890D01*
X194351041Y-110747488D01*
X194936862Y-111333309D01*
X194936864Y-111333308D01*
X194990148Y-111259969D01*
X194990152Y-111259962D01*
X195093767Y-111056609D01*
X195164295Y-110839543D01*
X195200000Y-110614116D01*
X195200000Y-110385883D01*
X195164295Y-110160456D01*
X195093767Y-109943390D01*
X194990152Y-109740037D01*
X194990142Y-109740021D01*
X194936863Y-109666690D01*
X194936862Y-109666690D01*
X194351041Y-110252511D01*
X194326022Y-110192110D01*
X194254888Y-110085649D01*
X194164351Y-109995112D01*
X194057890Y-109923978D01*
X193997487Y-109898957D01*
X194583308Y-109313136D01*
X194583308Y-109313135D01*
X194509978Y-109259857D01*
X194509962Y-109259847D01*
X194306609Y-109156232D01*
X194089543Y-109085704D01*
X193864117Y-109050000D01*
X193635883Y-109050000D01*
X193410456Y-109085704D01*
X193193390Y-109156232D01*
X192990037Y-109259847D01*
X192990021Y-109259857D01*
X192916690Y-109313135D01*
X192916690Y-109313137D01*
X193502511Y-109898958D01*
X193442110Y-109923978D01*
X193335649Y-109995112D01*
X193245112Y-110085649D01*
X193173978Y-110192110D01*
X193148958Y-110252511D01*
X192563137Y-109666690D01*
X192563135Y-109666690D01*
X192509857Y-109740021D01*
X192509847Y-109740037D01*
X192406232Y-109943390D01*
X192335704Y-110160456D01*
X192300000Y-110385883D01*
X182396767Y-110385883D01*
X182372171Y-110230591D01*
X182316211Y-110058361D01*
X182316210Y-110058360D01*
X182316210Y-110058358D01*
X182247739Y-109923978D01*
X182233996Y-109897006D01*
X182199844Y-109850000D01*
X182127554Y-109750500D01*
X182127547Y-109750492D01*
X181999507Y-109622452D01*
X181999499Y-109622445D01*
X181853006Y-109516012D01*
X181852998Y-109516007D01*
X181852994Y-109516004D01*
X181847172Y-109513037D01*
X181691641Y-109433789D01*
X181585174Y-109399196D01*
X181577026Y-109392237D01*
X181575500Y-109385881D01*
X181575500Y-106614117D01*
X181579601Y-106604218D01*
X181585171Y-106600803D01*
X181691639Y-106566211D01*
X181852994Y-106483996D01*
X181999501Y-106377553D01*
X182127553Y-106249501D01*
X182233996Y-106102994D01*
X182316211Y-105941639D01*
X182372171Y-105769409D01*
X182400500Y-105590546D01*
X182400500Y-105409454D01*
X182396767Y-105385883D01*
X192300000Y-105385883D01*
X192300000Y-105614116D01*
X192335704Y-105839543D01*
X192406232Y-106056609D01*
X192509847Y-106259962D01*
X192509857Y-106259978D01*
X192563135Y-106333308D01*
X192563136Y-106333308D01*
X193148957Y-105747486D01*
X193173978Y-105807890D01*
X193245112Y-105914351D01*
X193335649Y-106004888D01*
X193442110Y-106076022D01*
X193502511Y-106101041D01*
X192916690Y-106686862D01*
X192916690Y-106686863D01*
X192990021Y-106740142D01*
X192990037Y-106740152D01*
X193193390Y-106843767D01*
X193410456Y-106914295D01*
X193635883Y-106950000D01*
X193864117Y-106950000D01*
X194089543Y-106914295D01*
X194306609Y-106843767D01*
X194509962Y-106740152D01*
X194509969Y-106740148D01*
X194583308Y-106686864D01*
X194583309Y-106686862D01*
X193997488Y-106101041D01*
X194057890Y-106076022D01*
X194164351Y-106004888D01*
X194254888Y-105914351D01*
X194326022Y-105807890D01*
X194351041Y-105747488D01*
X194936862Y-106333309D01*
X194936864Y-106333308D01*
X194990148Y-106259969D01*
X194990152Y-106259962D01*
X195093767Y-106056609D01*
X195164295Y-105839543D01*
X195200000Y-105614116D01*
X195200000Y-105385883D01*
X195164295Y-105160456D01*
X195093767Y-104943390D01*
X194990152Y-104740037D01*
X194990142Y-104740021D01*
X194936863Y-104666690D01*
X194936862Y-104666690D01*
X194351041Y-105252511D01*
X194326022Y-105192110D01*
X194254888Y-105085649D01*
X194164351Y-104995112D01*
X194057890Y-104923978D01*
X193997487Y-104898957D01*
X194583308Y-104313136D01*
X194583308Y-104313135D01*
X194509978Y-104259857D01*
X194509962Y-104259847D01*
X194306609Y-104156232D01*
X194089543Y-104085704D01*
X193864117Y-104050000D01*
X193635883Y-104050000D01*
X193410456Y-104085704D01*
X193193390Y-104156232D01*
X192990037Y-104259847D01*
X192990021Y-104259857D01*
X192916690Y-104313135D01*
X192916690Y-104313137D01*
X193502511Y-104898958D01*
X193442110Y-104923978D01*
X193335649Y-104995112D01*
X193245112Y-105085649D01*
X193173978Y-105192110D01*
X193148958Y-105252511D01*
X192563137Y-104666690D01*
X192563135Y-104666690D01*
X192509857Y-104740021D01*
X192509847Y-104740037D01*
X192406232Y-104943390D01*
X192335704Y-105160456D01*
X192300000Y-105385883D01*
X182396767Y-105385883D01*
X182372171Y-105230591D01*
X182316211Y-105058361D01*
X182316210Y-105058360D01*
X182316210Y-105058358D01*
X182247739Y-104923978D01*
X182233996Y-104897006D01*
X182199844Y-104850000D01*
X182127554Y-104750500D01*
X182127547Y-104750492D01*
X181999507Y-104622452D01*
X181999499Y-104622445D01*
X181853006Y-104516012D01*
X181852998Y-104516007D01*
X181852994Y-104516004D01*
X181847172Y-104513037D01*
X181691641Y-104433789D01*
X181519409Y-104377829D01*
X181340546Y-104349500D01*
X181159454Y-104349500D01*
X180980590Y-104377829D01*
X180808358Y-104433789D01*
X180647009Y-104516002D01*
X180646993Y-104516012D01*
X180500500Y-104622445D01*
X180500492Y-104622452D01*
X180372452Y-104750492D01*
X180372445Y-104750500D01*
X180266012Y-104896993D01*
X180266002Y-104897009D01*
X180183789Y-105058358D01*
X180127829Y-105230590D01*
X180099500Y-105409454D01*
X159200000Y-105409454D01*
X159200000Y-105385883D01*
X159164295Y-105160456D01*
X159093767Y-104943390D01*
X158990152Y-104740037D01*
X158990142Y-104740021D01*
X158936863Y-104666690D01*
X158936862Y-104666690D01*
X158351041Y-105252511D01*
X158326022Y-105192110D01*
X158254888Y-105085649D01*
X158164351Y-104995112D01*
X158057890Y-104923978D01*
X157997487Y-104898957D01*
X158583308Y-104313136D01*
X158583308Y-104313135D01*
X158509978Y-104259857D01*
X158509962Y-104259847D01*
X158306609Y-104156232D01*
X158089543Y-104085704D01*
X157864117Y-104050000D01*
X157635883Y-104050000D01*
X157410456Y-104085704D01*
X157193390Y-104156232D01*
X156990037Y-104259847D01*
X156990021Y-104259857D01*
X156916690Y-104313135D01*
X156916690Y-104313137D01*
X157502511Y-104898958D01*
X157442110Y-104923978D01*
X157335649Y-104995112D01*
X157245112Y-105085649D01*
X157173978Y-105192110D01*
X157148958Y-105252511D01*
X156563137Y-104666690D01*
X156563135Y-104666690D01*
X156509857Y-104740021D01*
X156509847Y-104740037D01*
X156406232Y-104943390D01*
X156335704Y-105160456D01*
X156300000Y-105385883D01*
X146396767Y-105385883D01*
X146372171Y-105230591D01*
X146316211Y-105058361D01*
X146316210Y-105058360D01*
X146316210Y-105058358D01*
X146247739Y-104923978D01*
X146233996Y-104897006D01*
X146199844Y-104850000D01*
X146127554Y-104750500D01*
X146127547Y-104750492D01*
X145999507Y-104622452D01*
X145999499Y-104622445D01*
X145853006Y-104516012D01*
X145852998Y-104516007D01*
X145852994Y-104516004D01*
X145847172Y-104513037D01*
X145691641Y-104433789D01*
X145519409Y-104377829D01*
X145340546Y-104349500D01*
X145159454Y-104349500D01*
X144980590Y-104377829D01*
X144808358Y-104433789D01*
X144647009Y-104516002D01*
X144646993Y-104516012D01*
X144500500Y-104622445D01*
X144500492Y-104622452D01*
X144372452Y-104750492D01*
X144372445Y-104750500D01*
X144266012Y-104896993D01*
X144266002Y-104897009D01*
X144183789Y-105058358D01*
X144127829Y-105230590D01*
X144099500Y-105409454D01*
X135200000Y-105409454D01*
X135200000Y-105385883D01*
X135164295Y-105160456D01*
X135093767Y-104943390D01*
X134990152Y-104740037D01*
X134990142Y-104740021D01*
X134936863Y-104666690D01*
X134936862Y-104666690D01*
X134351041Y-105252511D01*
X134326022Y-105192110D01*
X134254888Y-105085649D01*
X134164351Y-104995112D01*
X134057890Y-104923978D01*
X133997487Y-104898957D01*
X134583308Y-104313136D01*
X134583308Y-104313135D01*
X134509978Y-104259857D01*
X134509962Y-104259847D01*
X134306609Y-104156232D01*
X134089543Y-104085704D01*
X133864117Y-104050000D01*
X133635883Y-104050000D01*
X133410456Y-104085704D01*
X133193390Y-104156232D01*
X132990037Y-104259847D01*
X132990021Y-104259857D01*
X132916690Y-104313135D01*
X132916690Y-104313137D01*
X133502511Y-104898958D01*
X133442110Y-104923978D01*
X133335649Y-104995112D01*
X133245112Y-105085649D01*
X133173978Y-105192110D01*
X133148958Y-105252511D01*
X132563137Y-104666690D01*
X132563135Y-104666690D01*
X132509857Y-104740021D01*
X132509847Y-104740037D01*
X132406232Y-104943390D01*
X132335704Y-105160456D01*
X132300000Y-105385883D01*
X122396767Y-105385883D01*
X122372171Y-105230591D01*
X122316211Y-105058361D01*
X122316210Y-105058360D01*
X122316210Y-105058358D01*
X122247739Y-104923978D01*
X122233996Y-104897006D01*
X122199844Y-104850000D01*
X122127554Y-104750500D01*
X122127547Y-104750492D01*
X121999507Y-104622452D01*
X121999499Y-104622445D01*
X121853006Y-104516012D01*
X121852998Y-104516007D01*
X121852994Y-104516004D01*
X121847172Y-104513037D01*
X121691641Y-104433789D01*
X121519409Y-104377829D01*
X121340546Y-104349500D01*
X121159454Y-104349500D01*
X120980590Y-104377829D01*
X120808358Y-104433789D01*
X120647009Y-104516002D01*
X120646993Y-104516012D01*
X120500500Y-104622445D01*
X120500492Y-104622452D01*
X120372452Y-104750492D01*
X120372445Y-104750500D01*
X120266012Y-104896993D01*
X120266002Y-104897009D01*
X120183789Y-105058358D01*
X120127829Y-105230590D01*
X120099500Y-105409454D01*
X99200000Y-105409454D01*
X99200000Y-105385883D01*
X99164295Y-105160456D01*
X99093767Y-104943390D01*
X98990152Y-104740037D01*
X98990142Y-104740021D01*
X98936863Y-104666690D01*
X98936862Y-104666690D01*
X98351041Y-105252511D01*
X98326022Y-105192110D01*
X98254888Y-105085649D01*
X98164351Y-104995112D01*
X98057890Y-104923978D01*
X97997487Y-104898957D01*
X98583308Y-104313136D01*
X98583308Y-104313135D01*
X98509978Y-104259857D01*
X98509962Y-104259847D01*
X98306609Y-104156232D01*
X98089543Y-104085704D01*
X97864117Y-104050000D01*
X97635883Y-104050000D01*
X97410456Y-104085704D01*
X97193390Y-104156232D01*
X96990037Y-104259847D01*
X96990021Y-104259857D01*
X96916690Y-104313135D01*
X96916690Y-104313137D01*
X97502511Y-104898958D01*
X97442110Y-104923978D01*
X97335649Y-104995112D01*
X97245112Y-105085649D01*
X97173978Y-105192110D01*
X97148958Y-105252511D01*
X96563137Y-104666690D01*
X96563135Y-104666690D01*
X96509857Y-104740021D01*
X96509847Y-104740037D01*
X96406232Y-104943390D01*
X96335704Y-105160456D01*
X96300000Y-105385883D01*
X86396767Y-105385883D01*
X86372171Y-105230591D01*
X86316211Y-105058361D01*
X86316210Y-105058360D01*
X86316210Y-105058358D01*
X86247739Y-104923978D01*
X86233996Y-104897006D01*
X86199844Y-104850000D01*
X86127554Y-104750500D01*
X86127547Y-104750492D01*
X85999507Y-104622452D01*
X85999499Y-104622445D01*
X85853006Y-104516012D01*
X85852998Y-104516007D01*
X85852994Y-104516004D01*
X85847172Y-104513037D01*
X85691641Y-104433789D01*
X85519409Y-104377829D01*
X85340546Y-104349500D01*
X85159454Y-104349500D01*
X84980590Y-104377829D01*
X84808358Y-104433789D01*
X84647009Y-104516002D01*
X84646993Y-104516012D01*
X84500500Y-104622445D01*
X84500492Y-104622452D01*
X84372452Y-104750492D01*
X84372445Y-104750500D01*
X84266012Y-104896993D01*
X84266002Y-104897009D01*
X84183789Y-105058358D01*
X84127829Y-105230590D01*
X84099500Y-105409454D01*
X81000000Y-105409454D01*
X81000000Y-92409454D01*
X102099500Y-92409454D01*
X102099500Y-92590545D01*
X102127829Y-92769409D01*
X102183789Y-92941641D01*
X102266002Y-93102990D01*
X102266012Y-93103006D01*
X102372445Y-93249499D01*
X102372452Y-93249507D01*
X102500492Y-93377547D01*
X102500500Y-93377554D01*
X102646993Y-93483987D01*
X102646997Y-93483989D01*
X102647006Y-93483996D01*
X102727683Y-93525103D01*
X102808358Y-93566210D01*
X102808360Y-93566210D01*
X102808361Y-93566211D01*
X102980591Y-93622171D01*
X103159454Y-93650500D01*
X103340546Y-93650500D01*
X103519409Y-93622171D01*
X103691639Y-93566211D01*
X103852994Y-93483996D01*
X103999501Y-93377553D01*
X104127553Y-93249501D01*
X104233996Y-93102994D01*
X104316211Y-92941639D01*
X104372171Y-92769409D01*
X104400500Y-92590546D01*
X104400500Y-92409454D01*
X104396767Y-92385883D01*
X114300000Y-92385883D01*
X114300000Y-92614116D01*
X114335704Y-92839543D01*
X114406232Y-93056609D01*
X114509847Y-93259962D01*
X114509857Y-93259978D01*
X114563135Y-93333308D01*
X114563136Y-93333308D01*
X115148957Y-92747486D01*
X115173978Y-92807890D01*
X115245112Y-92914351D01*
X115335649Y-93004888D01*
X115442110Y-93076022D01*
X115502511Y-93101041D01*
X114916690Y-93686862D01*
X114916690Y-93686863D01*
X114990021Y-93740142D01*
X114990037Y-93740152D01*
X115193390Y-93843767D01*
X115410456Y-93914295D01*
X115635883Y-93950000D01*
X115864117Y-93950000D01*
X116089543Y-93914295D01*
X116306609Y-93843767D01*
X116509962Y-93740152D01*
X116509969Y-93740148D01*
X116583308Y-93686864D01*
X116583309Y-93686862D01*
X115997488Y-93101041D01*
X116057890Y-93076022D01*
X116164351Y-93004888D01*
X116254888Y-92914351D01*
X116326022Y-92807890D01*
X116351041Y-92747488D01*
X116936862Y-93333309D01*
X116936864Y-93333308D01*
X116990148Y-93259969D01*
X116990152Y-93259962D01*
X117093767Y-93056609D01*
X117164295Y-92839543D01*
X117200000Y-92614116D01*
X117200000Y-92409454D01*
X162099500Y-92409454D01*
X162099500Y-92590545D01*
X162127829Y-92769409D01*
X162183789Y-92941641D01*
X162266002Y-93102990D01*
X162266012Y-93103006D01*
X162372445Y-93249499D01*
X162372452Y-93249507D01*
X162500492Y-93377547D01*
X162500500Y-93377554D01*
X162646993Y-93483987D01*
X162646997Y-93483989D01*
X162647006Y-93483996D01*
X162727683Y-93525103D01*
X162808358Y-93566210D01*
X162808360Y-93566210D01*
X162808361Y-93566211D01*
X162980591Y-93622171D01*
X163159454Y-93650500D01*
X163340546Y-93650500D01*
X163519409Y-93622171D01*
X163691639Y-93566211D01*
X163852994Y-93483996D01*
X163999501Y-93377553D01*
X164127553Y-93249501D01*
X164233996Y-93102994D01*
X164316211Y-92941639D01*
X164372171Y-92769409D01*
X164400500Y-92590546D01*
X164400500Y-92409454D01*
X164396767Y-92385883D01*
X174300000Y-92385883D01*
X174300000Y-92614116D01*
X174335704Y-92839543D01*
X174406232Y-93056609D01*
X174509847Y-93259962D01*
X174509857Y-93259978D01*
X174563135Y-93333308D01*
X174563136Y-93333308D01*
X175148957Y-92747486D01*
X175173978Y-92807890D01*
X175245112Y-92914351D01*
X175335649Y-93004888D01*
X175442110Y-93076022D01*
X175502511Y-93101041D01*
X174916690Y-93686862D01*
X174916690Y-93686863D01*
X174990021Y-93740142D01*
X174990037Y-93740152D01*
X175193390Y-93843767D01*
X175410456Y-93914295D01*
X175635883Y-93950000D01*
X175864117Y-93950000D01*
X176089543Y-93914295D01*
X176306609Y-93843767D01*
X176509962Y-93740152D01*
X176509969Y-93740148D01*
X176583308Y-93686864D01*
X176583309Y-93686862D01*
X175997488Y-93101041D01*
X176057890Y-93076022D01*
X176164351Y-93004888D01*
X176254888Y-92914351D01*
X176326022Y-92807890D01*
X176351041Y-92747488D01*
X176936862Y-93333309D01*
X176936864Y-93333308D01*
X176990148Y-93259969D01*
X176990152Y-93259962D01*
X177093767Y-93056609D01*
X177164295Y-92839543D01*
X177200000Y-92614116D01*
X177200000Y-92385883D01*
X177164295Y-92160456D01*
X177093767Y-91943390D01*
X176990152Y-91740037D01*
X176990142Y-91740021D01*
X176936863Y-91666690D01*
X176936862Y-91666690D01*
X176351041Y-92252511D01*
X176326022Y-92192110D01*
X176254888Y-92085649D01*
X176164351Y-91995112D01*
X176057890Y-91923978D01*
X175997487Y-91898957D01*
X176583308Y-91313136D01*
X176583308Y-91313135D01*
X176509978Y-91259857D01*
X176509962Y-91259847D01*
X176306609Y-91156232D01*
X176089543Y-91085704D01*
X175864117Y-91050000D01*
X175635883Y-91050000D01*
X175410456Y-91085704D01*
X175193390Y-91156232D01*
X174990037Y-91259847D01*
X174990021Y-91259857D01*
X174916690Y-91313135D01*
X174916690Y-91313137D01*
X175502511Y-91898958D01*
X175442110Y-91923978D01*
X175335649Y-91995112D01*
X175245112Y-92085649D01*
X175173978Y-92192110D01*
X175148958Y-92252511D01*
X174563137Y-91666690D01*
X174563135Y-91666690D01*
X174509857Y-91740021D01*
X174509847Y-91740037D01*
X174406232Y-91943390D01*
X174335704Y-92160456D01*
X174300000Y-92385883D01*
X164396767Y-92385883D01*
X164372171Y-92230591D01*
X164316211Y-92058361D01*
X164316210Y-92058360D01*
X164316210Y-92058358D01*
X164247739Y-91923978D01*
X164233996Y-91897006D01*
X164199844Y-91850000D01*
X164127554Y-91750500D01*
X164127547Y-91750492D01*
X163999507Y-91622452D01*
X163999499Y-91622445D01*
X163853006Y-91516012D01*
X163852998Y-91516007D01*
X163852994Y-91516004D01*
X163847172Y-91513037D01*
X163691641Y-91433789D01*
X163519409Y-91377829D01*
X163340546Y-91349500D01*
X163159454Y-91349500D01*
X162980590Y-91377829D01*
X162808358Y-91433789D01*
X162647009Y-91516002D01*
X162646993Y-91516012D01*
X162500500Y-91622445D01*
X162500492Y-91622452D01*
X162372452Y-91750492D01*
X162372445Y-91750500D01*
X162266012Y-91896993D01*
X162266002Y-91897009D01*
X162183789Y-92058358D01*
X162127829Y-92230590D01*
X162099500Y-92409454D01*
X117200000Y-92409454D01*
X117200000Y-92385883D01*
X117164295Y-92160456D01*
X117093767Y-91943390D01*
X116990152Y-91740037D01*
X116990142Y-91740021D01*
X116936863Y-91666690D01*
X116936862Y-91666690D01*
X116351041Y-92252511D01*
X116326022Y-92192110D01*
X116254888Y-92085649D01*
X116164351Y-91995112D01*
X116057890Y-91923978D01*
X115997487Y-91898957D01*
X116583308Y-91313136D01*
X116583308Y-91313135D01*
X116509978Y-91259857D01*
X116509962Y-91259847D01*
X116306609Y-91156232D01*
X116089543Y-91085704D01*
X115864117Y-91050000D01*
X115635883Y-91050000D01*
X115410456Y-91085704D01*
X115193390Y-91156232D01*
X114990037Y-91259847D01*
X114990021Y-91259857D01*
X114916690Y-91313135D01*
X114916690Y-91313137D01*
X115502511Y-91898958D01*
X115442110Y-91923978D01*
X115335649Y-91995112D01*
X115245112Y-92085649D01*
X115173978Y-92192110D01*
X115148958Y-92252511D01*
X114563137Y-91666690D01*
X114563135Y-91666690D01*
X114509857Y-91740021D01*
X114509847Y-91740037D01*
X114406232Y-91943390D01*
X114335704Y-92160456D01*
X114300000Y-92385883D01*
X104396767Y-92385883D01*
X104372171Y-92230591D01*
X104316211Y-92058361D01*
X104316210Y-92058360D01*
X104316210Y-92058358D01*
X104247739Y-91923978D01*
X104233996Y-91897006D01*
X104199844Y-91850000D01*
X104127554Y-91750500D01*
X104127547Y-91750492D01*
X103999507Y-91622452D01*
X103999499Y-91622445D01*
X103853006Y-91516012D01*
X103852998Y-91516007D01*
X103852994Y-91516004D01*
X103847172Y-91513037D01*
X103691641Y-91433789D01*
X103519409Y-91377829D01*
X103340546Y-91349500D01*
X103159454Y-91349500D01*
X102980590Y-91377829D01*
X102808358Y-91433789D01*
X102647009Y-91516002D01*
X102646993Y-91516012D01*
X102500500Y-91622445D01*
X102500492Y-91622452D01*
X102372452Y-91750492D01*
X102372445Y-91750500D01*
X102266012Y-91896993D01*
X102266002Y-91897009D01*
X102183789Y-92058358D01*
X102127829Y-92230590D01*
X102099500Y-92409454D01*
X81000000Y-92409454D01*
X81000000Y-87409454D01*
X102099500Y-87409454D01*
X102099500Y-87590545D01*
X102127829Y-87769409D01*
X102183789Y-87941641D01*
X102266002Y-88102990D01*
X102266012Y-88103006D01*
X102372445Y-88249499D01*
X102372452Y-88249507D01*
X102500492Y-88377547D01*
X102500500Y-88377554D01*
X102646993Y-88483987D01*
X102646997Y-88483989D01*
X102647006Y-88483996D01*
X102727683Y-88525103D01*
X102808358Y-88566210D01*
X102808360Y-88566210D01*
X102808361Y-88566211D01*
X102980591Y-88622171D01*
X103159454Y-88650500D01*
X103340546Y-88650500D01*
X103519409Y-88622171D01*
X103691639Y-88566211D01*
X103852994Y-88483996D01*
X103999501Y-88377553D01*
X104127553Y-88249501D01*
X104233996Y-88102994D01*
X104316211Y-87941639D01*
X104372171Y-87769409D01*
X104400500Y-87590546D01*
X104400500Y-87409454D01*
X104396767Y-87385883D01*
X114300000Y-87385883D01*
X114300000Y-87614116D01*
X114335704Y-87839543D01*
X114406232Y-88056609D01*
X114509847Y-88259962D01*
X114509857Y-88259978D01*
X114563135Y-88333308D01*
X114563136Y-88333308D01*
X115148957Y-87747486D01*
X115173978Y-87807890D01*
X115245112Y-87914351D01*
X115335649Y-88004888D01*
X115442110Y-88076022D01*
X115502511Y-88101041D01*
X114916690Y-88686862D01*
X114916690Y-88686863D01*
X114990021Y-88740142D01*
X114990037Y-88740152D01*
X115193390Y-88843767D01*
X115410456Y-88914295D01*
X115635883Y-88950000D01*
X115864117Y-88950000D01*
X116089543Y-88914295D01*
X116306609Y-88843767D01*
X116509962Y-88740152D01*
X116509969Y-88740148D01*
X116583308Y-88686864D01*
X116583309Y-88686862D01*
X115997488Y-88101041D01*
X116057890Y-88076022D01*
X116164351Y-88004888D01*
X116254888Y-87914351D01*
X116326022Y-87807890D01*
X116351041Y-87747488D01*
X116936862Y-88333309D01*
X116936864Y-88333308D01*
X116990148Y-88259969D01*
X116990152Y-88259962D01*
X117093767Y-88056609D01*
X117164295Y-87839543D01*
X117200000Y-87614116D01*
X117200000Y-87409454D01*
X162099500Y-87409454D01*
X162099500Y-87590545D01*
X162127829Y-87769409D01*
X162183789Y-87941641D01*
X162266002Y-88102990D01*
X162266012Y-88103006D01*
X162372445Y-88249499D01*
X162372452Y-88249507D01*
X162500492Y-88377547D01*
X162500500Y-88377554D01*
X162646993Y-88483987D01*
X162646997Y-88483989D01*
X162647006Y-88483996D01*
X162727683Y-88525103D01*
X162808358Y-88566210D01*
X162808360Y-88566210D01*
X162808361Y-88566211D01*
X162980591Y-88622171D01*
X163159454Y-88650500D01*
X163340546Y-88650500D01*
X163519409Y-88622171D01*
X163691639Y-88566211D01*
X163852994Y-88483996D01*
X163999501Y-88377553D01*
X164127553Y-88249501D01*
X164233996Y-88102994D01*
X164316211Y-87941639D01*
X164372171Y-87769409D01*
X164400500Y-87590546D01*
X164400500Y-87409454D01*
X164396767Y-87385883D01*
X174300000Y-87385883D01*
X174300000Y-87614116D01*
X174335704Y-87839543D01*
X174406232Y-88056609D01*
X174509847Y-88259962D01*
X174509857Y-88259978D01*
X174563135Y-88333308D01*
X174563136Y-88333308D01*
X175148957Y-87747486D01*
X175173978Y-87807890D01*
X175245112Y-87914351D01*
X175335649Y-88004888D01*
X175442110Y-88076022D01*
X175502511Y-88101041D01*
X174916690Y-88686862D01*
X174916690Y-88686863D01*
X174990021Y-88740142D01*
X174990037Y-88740152D01*
X175193390Y-88843767D01*
X175410456Y-88914295D01*
X175635883Y-88950000D01*
X175864117Y-88950000D01*
X176089543Y-88914295D01*
X176306609Y-88843767D01*
X176509962Y-88740152D01*
X176509969Y-88740148D01*
X176583308Y-88686864D01*
X176583309Y-88686862D01*
X175997488Y-88101041D01*
X176057890Y-88076022D01*
X176164351Y-88004888D01*
X176254888Y-87914351D01*
X176326022Y-87807890D01*
X176351041Y-87747488D01*
X176936862Y-88333309D01*
X176936864Y-88333308D01*
X176990148Y-88259969D01*
X176990152Y-88259962D01*
X177093767Y-88056609D01*
X177164295Y-87839543D01*
X177200000Y-87614116D01*
X177200000Y-87385883D01*
X177164295Y-87160456D01*
X177093767Y-86943390D01*
X176990152Y-86740037D01*
X176990142Y-86740021D01*
X176936863Y-86666690D01*
X176936862Y-86666690D01*
X176351041Y-87252511D01*
X176326022Y-87192110D01*
X176254888Y-87085649D01*
X176164351Y-86995112D01*
X176057890Y-86923978D01*
X175997487Y-86898957D01*
X176583308Y-86313136D01*
X176583308Y-86313135D01*
X176509978Y-86259857D01*
X176509962Y-86259847D01*
X176306609Y-86156232D01*
X176089543Y-86085704D01*
X175864117Y-86050000D01*
X175635883Y-86050000D01*
X175410456Y-86085704D01*
X175193390Y-86156232D01*
X174990037Y-86259847D01*
X174990021Y-86259857D01*
X174916690Y-86313135D01*
X174916690Y-86313137D01*
X175502511Y-86898958D01*
X175442110Y-86923978D01*
X175335649Y-86995112D01*
X175245112Y-87085649D01*
X175173978Y-87192110D01*
X175148958Y-87252511D01*
X174563137Y-86666690D01*
X174563135Y-86666690D01*
X174509857Y-86740021D01*
X174509847Y-86740037D01*
X174406232Y-86943390D01*
X174335704Y-87160456D01*
X174300000Y-87385883D01*
X164396767Y-87385883D01*
X164372171Y-87230591D01*
X164316211Y-87058361D01*
X164316210Y-87058360D01*
X164316210Y-87058358D01*
X164247739Y-86923978D01*
X164233996Y-86897006D01*
X164199844Y-86850000D01*
X164127554Y-86750500D01*
X164127547Y-86750492D01*
X163999507Y-86622452D01*
X163999499Y-86622445D01*
X163853006Y-86516012D01*
X163852998Y-86516007D01*
X163852994Y-86516004D01*
X163847172Y-86513037D01*
X163691641Y-86433789D01*
X163519409Y-86377829D01*
X163340546Y-86349500D01*
X163159454Y-86349500D01*
X162980590Y-86377829D01*
X162808358Y-86433789D01*
X162647009Y-86516002D01*
X162646993Y-86516012D01*
X162500500Y-86622445D01*
X162500492Y-86622452D01*
X162372452Y-86750492D01*
X162372445Y-86750500D01*
X162266012Y-86896993D01*
X162266002Y-86897009D01*
X162183789Y-87058358D01*
X162127829Y-87230590D01*
X162099500Y-87409454D01*
X117200000Y-87409454D01*
X117200000Y-87385883D01*
X117164295Y-87160456D01*
X117093767Y-86943390D01*
X116990152Y-86740037D01*
X116990142Y-86740021D01*
X116936863Y-86666690D01*
X116936862Y-86666690D01*
X116351041Y-87252511D01*
X116326022Y-87192110D01*
X116254888Y-87085649D01*
X116164351Y-86995112D01*
X116057890Y-86923978D01*
X115997487Y-86898957D01*
X116583308Y-86313136D01*
X116583308Y-86313135D01*
X116509978Y-86259857D01*
X116509962Y-86259847D01*
X116306609Y-86156232D01*
X116089543Y-86085704D01*
X115864117Y-86050000D01*
X115635883Y-86050000D01*
X115410456Y-86085704D01*
X115193390Y-86156232D01*
X114990037Y-86259847D01*
X114990021Y-86259857D01*
X114916690Y-86313135D01*
X114916690Y-86313137D01*
X115502511Y-86898958D01*
X115442110Y-86923978D01*
X115335649Y-86995112D01*
X115245112Y-87085649D01*
X115173978Y-87192110D01*
X115148958Y-87252511D01*
X114563137Y-86666690D01*
X114563135Y-86666690D01*
X114509857Y-86740021D01*
X114509847Y-86740037D01*
X114406232Y-86943390D01*
X114335704Y-87160456D01*
X114300000Y-87385883D01*
X104396767Y-87385883D01*
X104372171Y-87230591D01*
X104316211Y-87058361D01*
X104316210Y-87058360D01*
X104316210Y-87058358D01*
X104247739Y-86923978D01*
X104233996Y-86897006D01*
X104199844Y-86850000D01*
X104127554Y-86750500D01*
X104127547Y-86750492D01*
X103999507Y-86622452D01*
X103999499Y-86622445D01*
X103853006Y-86516012D01*
X103852998Y-86516007D01*
X103852994Y-86516004D01*
X103847172Y-86513037D01*
X103691641Y-86433789D01*
X103519409Y-86377829D01*
X103340546Y-86349500D01*
X103159454Y-86349500D01*
X102980590Y-86377829D01*
X102808358Y-86433789D01*
X102647009Y-86516002D01*
X102646993Y-86516012D01*
X102500500Y-86622445D01*
X102500492Y-86622452D01*
X102372452Y-86750492D01*
X102372445Y-86750500D01*
X102266012Y-86896993D01*
X102266002Y-86897009D01*
X102183789Y-87058358D01*
X102127829Y-87230590D01*
X102099500Y-87409454D01*
X81000000Y-87409454D01*
X81000000Y-77999999D01*
X81500000Y-77999999D01*
X81557644Y-78585272D01*
X81557645Y-78585276D01*
X81728359Y-79148045D01*
X81728361Y-79148050D01*
X81892196Y-79454563D01*
X82005590Y-79666709D01*
X82005592Y-79666712D01*
X82378678Y-80121320D01*
X82833286Y-80494406D01*
X82833289Y-80494408D01*
X83351949Y-80771638D01*
X83914729Y-80942355D01*
X84500000Y-81000000D01*
X85085270Y-80942355D01*
X85648050Y-80771638D01*
X86166710Y-80494408D01*
X86621320Y-80121320D01*
X86994408Y-79666710D01*
X87271638Y-79148050D01*
X87442355Y-78585270D01*
X87500000Y-78000000D01*
X191500000Y-78000000D01*
X191557644Y-78585272D01*
X191557645Y-78585276D01*
X191728359Y-79148045D01*
X191728361Y-79148050D01*
X191892196Y-79454563D01*
X192005590Y-79666709D01*
X192005592Y-79666712D01*
X192378678Y-80121320D01*
X192833286Y-80494406D01*
X192833289Y-80494408D01*
X193351949Y-80771638D01*
X193914729Y-80942355D01*
X194500000Y-81000000D01*
X195085270Y-80942355D01*
X195648050Y-80771638D01*
X196166710Y-80494408D01*
X196621320Y-80121320D01*
X196994408Y-79666710D01*
X197271638Y-79148050D01*
X197442355Y-78585270D01*
X197500000Y-78000000D01*
X197442355Y-77414729D01*
X197271638Y-76851949D01*
X196994408Y-76333289D01*
X196897441Y-76215134D01*
X196621320Y-75878678D01*
X196166712Y-75505592D01*
X196166709Y-75505590D01*
X195954563Y-75392196D01*
X195648050Y-75228361D01*
X195648047Y-75228360D01*
X195648045Y-75228359D01*
X195085276Y-75057645D01*
X195085272Y-75057644D01*
X194695090Y-75019214D01*
X194500000Y-75000000D01*
X194499999Y-75000000D01*
X193914726Y-75057644D01*
X193914722Y-75057645D01*
X193351953Y-75228359D01*
X192833289Y-75505590D01*
X192833286Y-75505592D01*
X192378678Y-75878678D01*
X192005592Y-76333286D01*
X192005590Y-76333289D01*
X191728359Y-76851953D01*
X191557645Y-77414722D01*
X191557644Y-77414726D01*
X191500000Y-78000000D01*
X87500000Y-78000000D01*
X87442355Y-77414729D01*
X87271638Y-76851949D01*
X86994408Y-76333289D01*
X86897441Y-76215134D01*
X86621320Y-75878678D01*
X86166712Y-75505592D01*
X86166709Y-75505590D01*
X85954563Y-75392196D01*
X85648050Y-75228361D01*
X85648047Y-75228360D01*
X85648045Y-75228359D01*
X85085276Y-75057645D01*
X85085272Y-75057644D01*
X84695090Y-75019214D01*
X84500000Y-75000000D01*
X84499999Y-75000000D01*
X83914726Y-75057644D01*
X83914722Y-75057645D01*
X83351953Y-75228359D01*
X82833289Y-75505590D01*
X82833286Y-75505592D01*
X82378678Y-75878678D01*
X82005592Y-76333286D01*
X82005590Y-76333289D01*
X81728359Y-76851953D01*
X81557645Y-77414722D01*
X81557644Y-77414726D01*
X81500000Y-77999999D01*
X81000000Y-77999999D01*
X81000000Y-76000785D01*
X81000088Y-75999218D01*
X81000088Y-75999217D01*
X81037432Y-75667780D01*
X81038127Y-75664733D01*
X81148027Y-75350659D01*
X81149386Y-75347838D01*
X81326417Y-75066094D01*
X81328365Y-75063652D01*
X81563652Y-74828365D01*
X81566094Y-74826417D01*
X81847841Y-74649384D01*
X81850659Y-74648027D01*
X82164733Y-74538127D01*
X82167780Y-74537432D01*
X82499219Y-74500088D01*
X82500786Y-74500000D01*
X196499214Y-74500000D01*
X196500781Y-74500088D01*
G37*
%TD.AperFunction*%
%TD*%
M02*
