%TF.GenerationSoftware,KiCad,Pcbnew,9.0.9.1-1.fc43*%
%TF.CreationDate,2026-06-26T00:54:02-06:00*%
%TF.ProjectId,arcade-controller-routed,61726361-6465-42d6-936f-6e74726f6c6c,rev?*%
%TF.SameCoordinates,Original*%
%TF.FileFunction,Copper,L2,Bot*%
%TF.FilePolarity,Positive*%
%FSLAX46Y46*%
G04 Gerber Fmt 4.6, Leading zero omitted, Abs format (unit mm)*
G04 Created by KiCad (PCBNEW 9.0.9.1-1.fc43) date 2026-06-26 00:54:02*
%MOMM*%
%LPD*%
G01*
G04 APERTURE LIST*
G04 Aperture macros list*
%AMFreePoly0*
4,1,5,0.475000,-0.206065,-0.475000,-0.206065,-0.475000,0.206065,0.475000,0.206065,0.475000,-0.206065,0.475000,-0.206065,$1*%
%AMFreePoly1*
4,1,5,0.467925,-0.210000,-0.467925,-0.210000,-0.467925,0.210000,0.467925,0.210000,0.467925,-0.210000,0.467925,-0.210000,$1*%
G04 Aperture macros list end*
%TA.AperFunction,ComponentPad*%
%ADD10C,1.900000*%
%TD*%
%TA.AperFunction,SMDPad,CuDef*%
%ADD11FreePoly0,0.000000*%
%TD*%
%TA.AperFunction,ComponentPad*%
%ADD12C,1.565800*%
%TD*%
%TA.AperFunction,SMDPad,CuDef*%
%ADD13FreePoly1,0.000000*%
%TD*%
%TA.AperFunction,SMDPad,CuDef*%
%ADD14FreePoly1,180.000000*%
%TD*%
%TA.AperFunction,ViaPad*%
%ADD15C,0.600000*%
%TD*%
%TA.AperFunction,Conductor*%
%ADD16C,0.250000*%
%TD*%
G04 APERTURE END LIST*
D10*
%TO.P,SW8,1*%
%TO.N,BTN7_INT*%
X163250000Y-87500000D03*
%TO.P,SW8,2*%
X163250000Y-92500000D03*
%TO.P,SW8,3*%
%TO.N,GND*%
X175750000Y-87500000D03*
%TO.P,SW8,4*%
X175750000Y-92500000D03*
%TD*%
%TO.P,SW6,1*%
%TO.N,BTN5_INT*%
X181250000Y-105500000D03*
%TO.P,SW6,2*%
X181250000Y-110500000D03*
%TO.P,SW6,3*%
%TO.N,GND*%
X193750000Y-105500000D03*
%TO.P,SW6,4*%
X193750000Y-110500000D03*
%TD*%
%TO.P,SW7,1*%
%TO.N,BTN6_INT*%
X145250000Y-105500000D03*
%TO.P,SW7,2*%
X145250000Y-110500000D03*
%TO.P,SW7,3*%
%TO.N,GND*%
X157750000Y-105500000D03*
%TO.P,SW7,4*%
X157750000Y-110500000D03*
%TD*%
%TO.P,SW2,1*%
%TO.N,BTN1_INT*%
X103250000Y-123500000D03*
%TO.P,SW2,2*%
X103250000Y-128500000D03*
%TO.P,SW2,3*%
%TO.N,GND*%
X115750000Y-123500000D03*
%TO.P,SW2,4*%
X115750000Y-128500000D03*
%TD*%
%TO.P,SW4,1*%
%TO.N,BTN3_INT*%
X121250000Y-105500000D03*
%TO.P,SW4,2*%
X121250000Y-110500000D03*
%TO.P,SW4,3*%
%TO.N,GND*%
X133750000Y-105500000D03*
%TO.P,SW4,4*%
X133750000Y-110500000D03*
%TD*%
%TO.P,SW3,1*%
%TO.N,BTN2_INT*%
X85250000Y-105500000D03*
%TO.P,SW3,2*%
X85250000Y-110500000D03*
%TO.P,SW3,3*%
%TO.N,GND*%
X97750000Y-105500000D03*
%TO.P,SW3,4*%
X97750000Y-110500000D03*
%TD*%
%TO.P,SW1,1*%
%TO.N,BTN0_INT*%
X103250000Y-87500000D03*
%TO.P,SW1,2*%
X103250000Y-92500000D03*
%TO.P,SW1,3*%
%TO.N,GND*%
X115750000Y-87500000D03*
%TO.P,SW1,4*%
X115750000Y-92500000D03*
%TD*%
%TO.P,SW5,1*%
%TO.N,BTN4_INT*%
X163250000Y-123500000D03*
%TO.P,SW5,2*%
X163250000Y-128500000D03*
%TO.P,SW5,3*%
%TO.N,GND*%
X175750000Y-123500000D03*
%TO.P,SW5,4*%
X175750000Y-128500000D03*
%TD*%
D11*
%TO.P,R15,1*%
%TO.N,BTN6_INT*%
X154000000Y-107331066D03*
%TO.P,R15,2*%
%TO.N,BTN6_OUT*%
X154000000Y-108668934D03*
%TD*%
%TO.P,R10,1*%
%TO.N,BTN1_INT*%
X112000000Y-125331066D03*
%TO.P,R10,2*%
%TO.N,BTN1_OUT*%
X112000000Y-126668934D03*
%TD*%
%TO.P,R3,1*%
%TO.N,V3V3*%
X89000000Y-107331066D03*
%TO.P,R3,2*%
%TO.N,BTN2_INT*%
X89000000Y-108668934D03*
%TD*%
%TO.P,R1,1*%
%TO.N,V3V3*%
X107000000Y-89331066D03*
%TO.P,R1,2*%
%TO.N,BTN0_INT*%
X107000000Y-90668934D03*
%TD*%
%TO.P,R7,1*%
%TO.N,V3V3*%
X149000000Y-107331066D03*
%TO.P,R7,2*%
%TO.N,BTN6_INT*%
X149000000Y-108668934D03*
%TD*%
D12*
%TO.P,J1,landpattern_p1*%
%TO.N,BTN0_OUT*%
X150750000Y-139000000D03*
%TO.P,J1,landpattern_p2*%
%TO.N,BTN1_OUT*%
X148250000Y-139000000D03*
%TO.P,J1,landpattern_p3*%
%TO.N,BTN2_OUT*%
X145750000Y-139000000D03*
%TO.P,J1,landpattern_p4*%
%TO.N,BTN3_OUT*%
X143250000Y-139000000D03*
%TO.P,J1,landpattern_p5*%
%TO.N,BTN4_OUT*%
X140750000Y-139000000D03*
%TO.P,J1,landpattern_p6*%
%TO.N,BTN5_OUT*%
X138250000Y-139000000D03*
%TO.P,J1,landpattern_p7*%
%TO.N,BTN6_OUT*%
X135750000Y-139000000D03*
%TO.P,J1,landpattern_p8*%
%TO.N,BTN7_OUT*%
X133250000Y-139000000D03*
%TO.P,J1,landpattern_p9*%
%TO.N,GND*%
X130750000Y-139000000D03*
%TO.P,J1,landpattern_p10*%
%TO.N,V3V3*%
X128250000Y-139000000D03*
%TD*%
D11*
%TO.P,R4,1*%
%TO.N,V3V3*%
X125000000Y-107331066D03*
%TO.P,R4,2*%
%TO.N,BTN3_INT*%
X125000000Y-108668934D03*
%TD*%
%TO.P,R5,1*%
%TO.N,V3V3*%
X167000000Y-125331066D03*
%TO.P,R5,2*%
%TO.N,BTN4_INT*%
X167000000Y-126668934D03*
%TD*%
D13*
%TO.P,D2,landpattern_p1*%
%TO.N,BTN4_OUT*%
X150682075Y-131050000D03*
%TO.P,D2,landpattern_p2*%
%TO.N,GND*%
X150682075Y-132000000D03*
%TO.P,D2,landpattern_p3*%
%TO.N,BTN5_OUT*%
X150682075Y-132950000D03*
D14*
%TO.P,D2,landpattern_p4*%
%TO.N,BTN6_OUT*%
X148317925Y-132950000D03*
%TO.P,D2,landpattern_p5*%
%TO.N,V3V3*%
X148317925Y-132000000D03*
%TO.P,D2,landpattern_p6*%
%TO.N,BTN7_OUT*%
X148317925Y-131050000D03*
%TD*%
D11*
%TO.P,R2,1*%
%TO.N,V3V3*%
X107000000Y-125331066D03*
%TO.P,R2,2*%
%TO.N,BTN1_INT*%
X107000000Y-126668934D03*
%TD*%
%TO.P,R6,1*%
%TO.N,V3V3*%
X185000000Y-107331066D03*
%TO.P,R6,2*%
%TO.N,BTN5_INT*%
X185000000Y-108668934D03*
%TD*%
%TO.P,R8,1*%
%TO.N,V3V3*%
X167000000Y-89331066D03*
%TO.P,R8,2*%
%TO.N,BTN7_INT*%
X167000000Y-90668934D03*
%TD*%
D13*
%TO.P,D1,landpattern_p1*%
%TO.N,BTN0_OUT*%
X130682075Y-131050000D03*
%TO.P,D1,landpattern_p2*%
%TO.N,GND*%
X130682075Y-132000000D03*
%TO.P,D1,landpattern_p3*%
%TO.N,BTN1_OUT*%
X130682075Y-132950000D03*
D14*
%TO.P,D1,landpattern_p4*%
%TO.N,BTN2_OUT*%
X128317925Y-132950000D03*
%TO.P,D1,landpattern_p5*%
%TO.N,V3V3*%
X128317925Y-132000000D03*
%TO.P,D1,landpattern_p6*%
%TO.N,BTN3_OUT*%
X128317925Y-131050000D03*
%TD*%
D11*
%TO.P,R16,1*%
%TO.N,BTN7_INT*%
X172000000Y-89331066D03*
%TO.P,R16,2*%
%TO.N,BTN7_OUT*%
X172000000Y-90668934D03*
%TD*%
%TO.P,R11,1*%
%TO.N,BTN2_INT*%
X94000000Y-107331066D03*
%TO.P,R11,2*%
%TO.N,BTN2_OUT*%
X94000000Y-108668934D03*
%TD*%
%TO.P,R13,1*%
%TO.N,BTN4_INT*%
X172000000Y-125331066D03*
%TO.P,R13,2*%
%TO.N,BTN4_OUT*%
X172000000Y-126668934D03*
%TD*%
%TO.P,R12,1*%
%TO.N,BTN3_INT*%
X130000000Y-107331066D03*
%TO.P,R12,2*%
%TO.N,BTN3_OUT*%
X130000000Y-108668934D03*
%TD*%
%TO.P,R9,1*%
%TO.N,BTN0_INT*%
X112000000Y-89331066D03*
%TO.P,R9,2*%
%TO.N,BTN0_OUT*%
X112000000Y-90668934D03*
%TD*%
%TO.P,R14,1*%
%TO.N,BTN5_INT*%
X190000000Y-107331066D03*
%TO.P,R14,2*%
%TO.N,BTN5_OUT*%
X190000000Y-108668934D03*
%TD*%
D15*
%TO.N,BTN3_OUT*%
X127330900Y-131050000D03*
%TO.N,BTN6_OUT*%
X146215500Y-131637500D03*
X147340700Y-132685000D03*
%TO.N,V3V3*%
X129977400Y-129657500D03*
X143950900Y-129700000D03*
%TO.N,BTN1_OUT*%
X115756100Y-130425000D03*
X129686300Y-133879300D03*
%TO.N,GND*%
X130680000Y-132000000D03*
X150680000Y-132000000D03*
%TO.N,BTN4_OUT*%
X149543300Y-137469900D03*
%TO.N,BTN7_OUT*%
X147340800Y-130990000D03*
%TD*%
D16*
%TO.N,BTN3_OUT*%
X130000000Y-109201700D02*
X129112500Y-110089200D01*
X128317900Y-131050000D02*
X129112500Y-131050000D01*
X129112500Y-110089200D02*
X129112500Y-131050000D01*
X130000000Y-108668900D02*
X130000000Y-109201700D01*
X127330900Y-131050000D02*
X128317900Y-131050000D01*
%TO.N,BTN6_OUT*%
X154000000Y-109201700D02*
X146215500Y-116986200D01*
X154000000Y-108668900D02*
X154000000Y-109201700D01*
X146215500Y-116986200D02*
X146215500Y-131637500D01*
X147523300Y-132867600D02*
X147523300Y-132950000D01*
X147340700Y-132685000D02*
X147523300Y-132867600D01*
X148317900Y-132950000D02*
X147523300Y-132950000D01*
%TO.N,BTN0_INT*%
X107802900Y-89863900D02*
X107272200Y-89863900D01*
X112000000Y-89863900D02*
X107802900Y-89863900D01*
X103250000Y-92500000D02*
X105081100Y-90668900D01*
X107000000Y-90668900D02*
X107000000Y-90136100D01*
X107802900Y-89863900D02*
X107802900Y-88871600D01*
X107802900Y-88871600D02*
X106431300Y-87500000D01*
X107272200Y-89863900D02*
X107000000Y-90136100D01*
X105081100Y-90668900D02*
X107000000Y-90668900D01*
X112000000Y-89331100D02*
X112000000Y-89863900D01*
X106431300Y-87500000D02*
X103250000Y-87500000D01*
%TO.N,BTN3_INT*%
X123081100Y-108668900D02*
X121250000Y-110500000D01*
X125000000Y-108668900D02*
X123081100Y-108668900D01*
X130000000Y-107863900D02*
X125272200Y-107863900D01*
X130000000Y-107331100D02*
X130000000Y-107863900D01*
X125272200Y-107863900D02*
X125000000Y-108136100D01*
X125000000Y-108668900D02*
X125000000Y-108136100D01*
%TO.N,V3V3*%
X107000000Y-124798300D02*
X118276000Y-124798300D01*
X178524300Y-113274000D02*
X167000000Y-124798300D01*
X167000000Y-88798300D02*
X172653800Y-88798300D01*
X119201600Y-123872700D02*
X127328900Y-132000000D01*
X173519500Y-89664000D02*
X173519500Y-101793500D01*
X167000000Y-89064700D02*
X164077000Y-86141700D01*
X178524300Y-106798300D02*
X178524300Y-113274000D01*
X129640600Y-131585200D02*
X129112500Y-132113300D01*
X143950900Y-129700000D02*
X143950900Y-130306000D01*
X107000000Y-125331100D02*
X107000000Y-124798300D01*
X119201600Y-109936500D02*
X119201600Y-123872700D01*
X107000000Y-89331100D02*
X104585600Y-89331100D01*
X149000000Y-107331100D02*
X146607800Y-107331100D01*
X143950900Y-109988000D02*
X143950900Y-129700000D01*
X102636900Y-93694200D02*
X89532800Y-106798300D01*
X104585600Y-89331100D02*
X101957800Y-91958900D01*
X172653800Y-88798300D02*
X173519500Y-89664000D01*
X148957000Y-133526400D02*
X149112500Y-133370900D01*
X128317900Y-132000000D02*
X128999200Y-132000000D01*
X185000000Y-107331100D02*
X185000000Y-106798300D01*
X149000000Y-99903800D02*
X149000000Y-107331100D01*
X128250000Y-134429400D02*
X128250000Y-139000000D01*
X167000000Y-89331100D02*
X167000000Y-89064700D01*
X167000000Y-89064700D02*
X167000000Y-88798300D01*
X89000000Y-107331100D02*
X89000000Y-106798300D01*
X128317900Y-132000000D02*
X127523300Y-132000000D01*
X143950900Y-130306000D02*
X147171300Y-133526400D01*
X121807000Y-107331100D02*
X125000000Y-107331100D01*
X118276000Y-124798300D02*
X119201600Y-123872700D01*
X129112500Y-133566900D02*
X128250000Y-134429400D01*
X178524300Y-106798300D02*
X185000000Y-106798300D01*
X119201600Y-109936500D02*
X121807000Y-107331100D01*
X162762100Y-86141700D02*
X149000000Y-99903800D01*
X146607800Y-107331100D02*
X143950900Y-109988000D01*
X128999200Y-132000000D02*
X129112500Y-132113300D01*
X127328900Y-132000000D02*
X127523300Y-132000000D01*
X167000000Y-125331100D02*
X167000000Y-124798300D01*
X118879200Y-109936500D02*
X119201600Y-109936500D01*
X129640600Y-129994300D02*
X129640600Y-131585200D01*
X102636900Y-93694200D02*
X118879200Y-109936500D01*
X147171300Y-133526400D02*
X148957000Y-133526400D01*
X164077000Y-86141700D02*
X162762100Y-86141700D01*
X173519500Y-101793500D02*
X178524300Y-106798300D01*
X129977400Y-129657500D02*
X129640600Y-129994300D01*
X148317900Y-132000000D02*
X149112500Y-132000000D01*
X101957800Y-91958900D02*
X101957800Y-93015100D01*
X149112500Y-133370900D02*
X149112500Y-132000000D01*
X129112500Y-132113300D02*
X129112500Y-133566900D01*
X101957800Y-93015100D02*
X102636900Y-93694200D01*
X89532800Y-106798300D02*
X89000000Y-106798300D01*
%TO.N,BTN6_INT*%
X154000000Y-107331100D02*
X154000000Y-107863900D01*
X149000000Y-108668900D02*
X147081100Y-108668900D01*
X147081100Y-108668900D02*
X145250000Y-110500000D01*
X154000000Y-107863900D02*
X149272200Y-107863900D01*
X149000000Y-108668900D02*
X149000000Y-108136100D01*
X149272200Y-107863900D02*
X149000000Y-108136100D01*
%TO.N,BTN2_OUT*%
X94000000Y-121130000D02*
X94000000Y-108668900D01*
X106227000Y-133357000D02*
X94000000Y-121130000D01*
X144633500Y-140116500D02*
X145750000Y-139000000D01*
X128317900Y-132950000D02*
X127523300Y-132950000D01*
X127116300Y-133357000D02*
X106227000Y-133357000D01*
X127116300Y-139450500D02*
X127782300Y-140116500D01*
X127523300Y-132950000D02*
X127116300Y-133357000D01*
X127116300Y-133357000D02*
X127116300Y-139450500D01*
X127782300Y-140116500D02*
X144633500Y-140116500D01*
%TO.N,BTN5_OUT*%
X146859600Y-138496300D02*
X146201200Y-137837900D01*
X151764800Y-133238100D02*
X151948600Y-133238100D01*
X151295100Y-140116300D02*
X147766000Y-140116300D01*
X151948600Y-133238100D02*
X167878600Y-133238100D01*
X146201200Y-137837900D02*
X139412100Y-137837900D01*
X146859600Y-139209900D02*
X146859600Y-138496300D01*
X151476700Y-132950000D02*
X151764800Y-133238100D01*
X150682100Y-132950000D02*
X151476700Y-132950000D01*
X147766000Y-140116300D02*
X146859600Y-139209900D01*
X167878600Y-133238100D02*
X190000000Y-111116700D01*
X151948600Y-139462800D02*
X151295100Y-140116300D01*
X151948600Y-133238100D02*
X151948600Y-139462800D01*
X190000000Y-111116700D02*
X190000000Y-108668900D01*
X139412100Y-137837900D02*
X138250000Y-139000000D01*
%TO.N,BTN2_INT*%
X86902500Y-110500000D02*
X85250000Y-110500000D01*
X94000000Y-107863900D02*
X89272200Y-107863900D01*
X85250000Y-110500000D02*
X85250000Y-105500000D01*
X89000000Y-108402500D02*
X89000000Y-108136100D01*
X89000000Y-108402500D02*
X86902500Y-110500000D01*
X94000000Y-107331100D02*
X94000000Y-107863900D01*
X89272200Y-107863900D02*
X89000000Y-108136100D01*
X89000000Y-108668900D02*
X89000000Y-108402500D01*
%TO.N,BTN5_INT*%
X190000000Y-107331100D02*
X190000000Y-107863900D01*
X185000000Y-108668900D02*
X185000000Y-109201700D01*
X185000000Y-108668900D02*
X185000000Y-108136100D01*
X185000000Y-108136100D02*
X189727800Y-108136100D01*
X182548300Y-109201700D02*
X181250000Y-110500000D01*
X189727800Y-108136100D02*
X190000000Y-107863900D01*
X185000000Y-109201700D02*
X182548300Y-109201700D01*
%TO.N,BTN1_OUT*%
X112000000Y-126668900D02*
X112000000Y-127201700D01*
X130682100Y-132950000D02*
X129887500Y-132950000D01*
X112532800Y-127201700D02*
X112000000Y-127201700D01*
X129887500Y-133678100D02*
X129686300Y-133879300D01*
X142200000Y-132950000D02*
X148250000Y-139000000D01*
X115756100Y-130425000D02*
X112532800Y-127201700D01*
X130682100Y-132950000D02*
X142200000Y-132950000D01*
X129887500Y-132950000D02*
X129887500Y-133678100D01*
%TO.N,BTN4_OUT*%
X149887500Y-131050000D02*
X149887500Y-137125700D01*
X151476700Y-131050000D02*
X168151700Y-131050000D01*
X168151700Y-131050000D02*
X172000000Y-127201700D01*
X150682100Y-131050000D02*
X151476700Y-131050000D01*
X149887500Y-137125700D02*
X149543300Y-137469900D01*
X172000000Y-126668900D02*
X172000000Y-127201700D01*
X150682100Y-131050000D02*
X149887500Y-131050000D01*
%TO.N,BTN7_OUT*%
X149112500Y-131050000D02*
X172000000Y-108162500D01*
X148317900Y-131050000D02*
X149112500Y-131050000D01*
X148317900Y-131050000D02*
X147523300Y-131050000D01*
X147523300Y-131050000D02*
X147400800Y-131050000D01*
X147400800Y-131050000D02*
X147340800Y-130990000D01*
X172000000Y-108162500D02*
X172000000Y-90668900D01*
%TO.N,BTN1_INT*%
X105081100Y-126668900D02*
X103250000Y-128500000D01*
X105081100Y-126668900D02*
X105081100Y-125331100D01*
X107000000Y-126668900D02*
X107000000Y-126136100D01*
X112000000Y-125331100D02*
X112000000Y-125863900D01*
X112000000Y-125863900D02*
X107272200Y-125863900D01*
X105081100Y-125331100D02*
X103250000Y-123500000D01*
X107000000Y-126668900D02*
X105081100Y-126668900D01*
X107272200Y-125863900D02*
X107000000Y-126136100D01*
%TO.N,BTN4_INT*%
X167000000Y-126402500D02*
X167000000Y-126136100D01*
X167000000Y-126402500D02*
X165347500Y-126402500D01*
X165347500Y-126402500D02*
X163250000Y-128500000D01*
X172000000Y-125863900D02*
X167272200Y-125863900D01*
X165347500Y-126402500D02*
X163250000Y-124305000D01*
X167272200Y-125863900D02*
X167000000Y-126136100D01*
X163250000Y-124305000D02*
X163250000Y-123500000D01*
X167000000Y-126668900D02*
X167000000Y-126402500D01*
X172000000Y-125331100D02*
X172000000Y-125863900D01*
%TO.N,BTN7_INT*%
X165347500Y-89597500D02*
X163250000Y-87500000D01*
X167000000Y-90402500D02*
X167000000Y-90136100D01*
X172000000Y-89331100D02*
X172000000Y-89863900D01*
X167272200Y-89863900D02*
X167000000Y-90136100D01*
X172000000Y-89863900D02*
X167272200Y-89863900D01*
X165347500Y-90402500D02*
X163250000Y-92500000D01*
X167000000Y-90668900D02*
X167000000Y-90402500D01*
X165347500Y-90402500D02*
X165347500Y-89597500D01*
X167000000Y-90402500D02*
X165347500Y-90402500D01*
%TO.N,BTN0_OUT*%
X112000000Y-90668900D02*
X112000000Y-91201700D01*
X115967400Y-95169100D02*
X112000000Y-91201700D01*
X130839100Y-106991100D02*
X119017100Y-95169100D01*
X142237200Y-131050000D02*
X150187200Y-139000000D01*
X130839100Y-131050000D02*
X130839100Y-106991100D01*
X130839100Y-131050000D02*
X142237200Y-131050000D01*
X150187200Y-139000000D02*
X150750000Y-139000000D01*
X130839100Y-131050000D02*
X130682100Y-131050000D01*
X119017100Y-95169100D02*
X115967400Y-95169100D01*
%TD*%
%TA.AperFunction,Conductor*%
%TO.N,GND*%
G36*
X142069274Y-133279601D02*
G01*
X146286365Y-137496692D01*
X146290466Y-137506591D01*
X146286365Y-137516490D01*
X146276466Y-137520591D01*
X146272843Y-137520114D01*
X146244053Y-137512400D01*
X139455819Y-137512400D01*
X139455803Y-137512399D01*
X139454953Y-137512399D01*
X139369248Y-137512399D01*
X139286462Y-137534582D01*
X139286460Y-137534582D01*
X139286457Y-137534584D01*
X139212240Y-137577432D01*
X139181938Y-137607735D01*
X139151635Y-137638038D01*
X139151633Y-137638040D01*
X138683774Y-138105897D01*
X138673875Y-138109997D01*
X138668518Y-138108931D01*
X138576813Y-138070946D01*
X138536851Y-138054393D01*
X138536845Y-138054391D01*
X138346856Y-138016600D01*
X138153144Y-138016600D01*
X137963154Y-138054391D01*
X137963148Y-138054393D01*
X137784186Y-138128521D01*
X137623113Y-138236148D01*
X137486148Y-138373113D01*
X137378521Y-138534186D01*
X137304393Y-138713148D01*
X137304391Y-138713154D01*
X137266600Y-138903144D01*
X137266600Y-139096855D01*
X137304391Y-139286845D01*
X137304393Y-139286851D01*
X137378521Y-139465813D01*
X137395454Y-139491155D01*
X137486144Y-139626881D01*
X137486145Y-139626882D01*
X137486148Y-139626886D01*
X137623113Y-139763851D01*
X137623116Y-139763853D01*
X137623119Y-139763856D01*
X137625369Y-139765359D01*
X137631323Y-139774268D01*
X137629233Y-139784777D01*
X137620324Y-139790731D01*
X137617592Y-139791000D01*
X136382408Y-139791000D01*
X136372509Y-139786899D01*
X136368408Y-139777000D01*
X136372509Y-139767101D01*
X136374628Y-139765361D01*
X136376881Y-139763856D01*
X136513856Y-139626881D01*
X136621478Y-139465814D01*
X136695608Y-139286847D01*
X136733400Y-139096856D01*
X136733400Y-138903144D01*
X136695608Y-138713153D01*
X136621478Y-138534186D01*
X136513856Y-138373119D01*
X136513853Y-138373116D01*
X136513851Y-138373113D01*
X136376886Y-138236148D01*
X136376882Y-138236145D01*
X136376881Y-138236144D01*
X136215814Y-138128522D01*
X136215815Y-138128522D01*
X136215813Y-138128521D01*
X136036851Y-138054393D01*
X136036845Y-138054391D01*
X135846856Y-138016600D01*
X135653144Y-138016600D01*
X135463154Y-138054391D01*
X135463148Y-138054393D01*
X135284186Y-138128521D01*
X135123113Y-138236148D01*
X134986148Y-138373113D01*
X134878521Y-138534186D01*
X134804393Y-138713148D01*
X134804391Y-138713154D01*
X134766600Y-138903144D01*
X134766600Y-139096855D01*
X134804391Y-139286845D01*
X134804393Y-139286851D01*
X134878521Y-139465813D01*
X134895454Y-139491155D01*
X134986144Y-139626881D01*
X134986145Y-139626882D01*
X134986148Y-139626886D01*
X135123113Y-139763851D01*
X135123116Y-139763853D01*
X135123119Y-139763856D01*
X135125369Y-139765359D01*
X135131323Y-139774268D01*
X135129233Y-139784777D01*
X135120324Y-139790731D01*
X135117592Y-139791000D01*
X133882408Y-139791000D01*
X133872509Y-139786899D01*
X133868408Y-139777000D01*
X133872509Y-139767101D01*
X133874628Y-139765361D01*
X133876881Y-139763856D01*
X134013856Y-139626881D01*
X134121478Y-139465814D01*
X134195608Y-139286847D01*
X134233400Y-139096856D01*
X134233400Y-138903144D01*
X134195608Y-138713153D01*
X134121478Y-138534186D01*
X134013856Y-138373119D01*
X134013853Y-138373116D01*
X134013851Y-138373113D01*
X133876886Y-138236148D01*
X133876882Y-138236145D01*
X133876881Y-138236144D01*
X133715814Y-138128522D01*
X133715815Y-138128522D01*
X133715813Y-138128521D01*
X133536851Y-138054393D01*
X133536845Y-138054391D01*
X133346856Y-138016600D01*
X133153144Y-138016600D01*
X132963154Y-138054391D01*
X132963148Y-138054393D01*
X132784186Y-138128521D01*
X132623113Y-138236148D01*
X132486148Y-138373113D01*
X132378521Y-138534186D01*
X132304393Y-138713148D01*
X132304391Y-138713154D01*
X132266600Y-138903144D01*
X132266600Y-139096855D01*
X132304391Y-139286845D01*
X132304393Y-139286851D01*
X132378521Y-139465813D01*
X132395454Y-139491155D01*
X132486144Y-139626881D01*
X132486145Y-139626882D01*
X132486148Y-139626886D01*
X132623113Y-139763851D01*
X132623116Y-139763853D01*
X132623119Y-139763856D01*
X132625369Y-139765359D01*
X132631323Y-139774268D01*
X132629233Y-139784777D01*
X132620324Y-139790731D01*
X132617592Y-139791000D01*
X131367193Y-139791000D01*
X131357294Y-139786899D01*
X131357293Y-139786899D01*
X131007650Y-139437255D01*
X131061612Y-139406101D01*
X131156101Y-139311612D01*
X131187255Y-139257651D01*
X131569501Y-139639897D01*
X131569502Y-139639897D01*
X131668889Y-139491155D01*
X131747050Y-139302457D01*
X131747052Y-139302451D01*
X131786900Y-139102125D01*
X131786900Y-138897874D01*
X131747052Y-138697548D01*
X131747050Y-138697542D01*
X131668889Y-138508844D01*
X131569501Y-138360101D01*
X131187255Y-138742348D01*
X131156101Y-138688388D01*
X131061612Y-138593899D01*
X131007650Y-138562744D01*
X131389897Y-138180497D01*
X131241155Y-138081110D01*
X131052457Y-138002949D01*
X131052451Y-138002947D01*
X130852126Y-137963100D01*
X130647874Y-137963100D01*
X130447548Y-138002947D01*
X130447542Y-138002949D01*
X130258844Y-138081110D01*
X130110102Y-138180497D01*
X130492349Y-138562743D01*
X130438388Y-138593899D01*
X130343899Y-138688388D01*
X130312744Y-138742349D01*
X129930497Y-138360102D01*
X129831110Y-138508844D01*
X129752949Y-138697542D01*
X129752947Y-138697548D01*
X129713100Y-138897874D01*
X129713100Y-139102125D01*
X129752947Y-139302451D01*
X129752949Y-139302457D01*
X129831110Y-139491155D01*
X129930497Y-139639897D01*
X130312744Y-139257650D01*
X130343899Y-139311612D01*
X130438388Y-139406101D01*
X130492349Y-139437255D01*
X130142707Y-139786899D01*
X130132807Y-139791000D01*
X128882408Y-139791000D01*
X128872509Y-139786899D01*
X128868408Y-139777000D01*
X128872509Y-139767101D01*
X128874628Y-139765361D01*
X128876881Y-139763856D01*
X129013856Y-139626881D01*
X129121478Y-139465814D01*
X129195608Y-139286847D01*
X129233400Y-139096856D01*
X129233400Y-138903144D01*
X129195608Y-138713153D01*
X129121478Y-138534186D01*
X129013856Y-138373119D01*
X129013853Y-138373116D01*
X129013851Y-138373113D01*
X128876886Y-138236148D01*
X128876882Y-138236145D01*
X128876881Y-138236144D01*
X128715814Y-138128522D01*
X128715815Y-138128522D01*
X128715813Y-138128521D01*
X128584142Y-138073981D01*
X128576566Y-138066405D01*
X128575500Y-138061047D01*
X128575500Y-134570025D01*
X128579599Y-134560127D01*
X129170499Y-133969226D01*
X129180398Y-133965126D01*
X129190297Y-133969226D01*
X129193920Y-133975501D01*
X129219908Y-134072486D01*
X129219909Y-134072488D01*
X129219910Y-134072490D01*
X129285798Y-134186612D01*
X129285800Y-134186615D01*
X129378984Y-134279799D01*
X129378987Y-134279801D01*
X129420489Y-134303762D01*
X129493114Y-134345692D01*
X129620408Y-134379800D01*
X129620411Y-134379800D01*
X129752189Y-134379800D01*
X129752192Y-134379800D01*
X129879486Y-134345692D01*
X129993614Y-134279800D01*
X130086800Y-134186614D01*
X130152692Y-134072486D01*
X130186800Y-133945192D01*
X130186800Y-133814449D01*
X130188676Y-133807448D01*
X130190818Y-133803739D01*
X130213001Y-133720953D01*
X130213001Y-133635247D01*
X130213001Y-133634389D01*
X130213000Y-133634380D01*
X130213000Y-133379500D01*
X130217101Y-133369601D01*
X130227000Y-133365500D01*
X131150000Y-133365500D01*
X131195728Y-133360348D01*
X131278127Y-133320666D01*
X131309942Y-133280770D01*
X131319321Y-133275588D01*
X131320888Y-133275500D01*
X142059375Y-133275500D01*
X142069274Y-133279601D01*
G37*
%TD.AperFunction*%
%TA.AperFunction,Conductor*%
G36*
X119211497Y-124342924D02*
G01*
X119211499Y-124342926D01*
X127129036Y-132260464D01*
X127129039Y-132260466D01*
X127187574Y-132294261D01*
X127203261Y-132303318D01*
X127286047Y-132325500D01*
X127480447Y-132325500D01*
X127674456Y-132325500D01*
X127684355Y-132329601D01*
X127687069Y-132333425D01*
X127689332Y-132338124D01*
X127689333Y-132338125D01*
X127689334Y-132338127D01*
X127760837Y-132395149D01*
X127849999Y-132415499D01*
X127849999Y-132415500D01*
X128773000Y-132415500D01*
X128782899Y-132419601D01*
X128787000Y-132429500D01*
X128787000Y-132520500D01*
X128782899Y-132530399D01*
X128773000Y-132534500D01*
X127849999Y-132534500D01*
X127804273Y-132539651D01*
X127721873Y-132579333D01*
X127690058Y-132619229D01*
X127680679Y-132624412D01*
X127679112Y-132624500D01*
X127480446Y-132624500D01*
X127397664Y-132646681D01*
X127397656Y-132646684D01*
X127323440Y-132689532D01*
X127188616Y-132824357D01*
X126985573Y-133027399D01*
X126975675Y-133031500D01*
X106367625Y-133031500D01*
X106357726Y-133027399D01*
X102977678Y-129647351D01*
X102973577Y-129637452D01*
X102977678Y-129627553D01*
X102987577Y-129623452D01*
X102989762Y-129623623D01*
X103159454Y-129650500D01*
X103340546Y-129650500D01*
X103519409Y-129622171D01*
X103691639Y-129566211D01*
X103852994Y-129483996D01*
X103999501Y-129377553D01*
X104127553Y-129249501D01*
X104233996Y-129102994D01*
X104316211Y-128941639D01*
X104372171Y-128769409D01*
X104400500Y-128590546D01*
X104400500Y-128409454D01*
X104372171Y-128230591D01*
X104316211Y-128058361D01*
X104316210Y-128058360D01*
X104316210Y-128058358D01*
X104297097Y-128020848D01*
X104265387Y-127958615D01*
X104264547Y-127947936D01*
X104267961Y-127942364D01*
X105211827Y-126998500D01*
X105221726Y-126994400D01*
X106351335Y-126994400D01*
X106361234Y-126998501D01*
X106363947Y-127002323D01*
X106364334Y-127003126D01*
X106435837Y-127060148D01*
X106524999Y-127080498D01*
X106524999Y-127080499D01*
X106525000Y-127080499D01*
X107475000Y-127080499D01*
X107520728Y-127075347D01*
X107603127Y-127035665D01*
X107660149Y-126964162D01*
X107680500Y-126874999D01*
X107680500Y-126462869D01*
X107680500Y-126462868D01*
X111319500Y-126462868D01*
X111319500Y-126874999D01*
X111324651Y-126920725D01*
X111364333Y-127003125D01*
X111364334Y-127003126D01*
X111435837Y-127060148D01*
X111524999Y-127080498D01*
X111524999Y-127080499D01*
X111525000Y-127080499D01*
X111660500Y-127080499D01*
X111670399Y-127084600D01*
X111674500Y-127094499D01*
X111674500Y-127244553D01*
X111696681Y-127327334D01*
X111696684Y-127327342D01*
X111739533Y-127401560D01*
X111739535Y-127401563D01*
X111800136Y-127462164D01*
X111800139Y-127462166D01*
X111839014Y-127484610D01*
X111874362Y-127505018D01*
X111957147Y-127527200D01*
X112392175Y-127527200D01*
X112402074Y-127531301D01*
X115251499Y-130380725D01*
X115255600Y-130390624D01*
X115255600Y-130490892D01*
X115280443Y-130583610D01*
X115289707Y-130618182D01*
X115289710Y-130618190D01*
X115355598Y-130732312D01*
X115355600Y-130732315D01*
X115448784Y-130825499D01*
X115448787Y-130825501D01*
X115503023Y-130856814D01*
X115562914Y-130891392D01*
X115690208Y-130925500D01*
X115690211Y-130925500D01*
X115821989Y-130925500D01*
X115821992Y-130925500D01*
X115949286Y-130891392D01*
X116063414Y-130825500D01*
X116156600Y-130732314D01*
X116222492Y-130618186D01*
X116256600Y-130490892D01*
X116256600Y-130359108D01*
X116222492Y-130231814D01*
X116187481Y-130171173D01*
X116156601Y-130117687D01*
X116156599Y-130117684D01*
X116063415Y-130024500D01*
X116063412Y-130024498D01*
X115949290Y-129958610D01*
X115949288Y-129958609D01*
X115949286Y-129958608D01*
X115821992Y-129924500D01*
X115721724Y-129924500D01*
X115711825Y-129920399D01*
X115495817Y-129704391D01*
X115491716Y-129694492D01*
X115495817Y-129684593D01*
X115505716Y-129680492D01*
X115507906Y-129680664D01*
X115655243Y-129704000D01*
X115844757Y-129704000D01*
X116031937Y-129674353D01*
X116212178Y-129615790D01*
X116381030Y-129529754D01*
X116381046Y-129529744D01*
X116507942Y-129437548D01*
X116507942Y-129437547D01*
X116110958Y-129040563D01*
X116164351Y-129004888D01*
X116254888Y-128914351D01*
X116290562Y-128860958D01*
X116687546Y-129257942D01*
X116687548Y-129257942D01*
X116779744Y-129131046D01*
X116779754Y-129131030D01*
X116865790Y-128962178D01*
X116924353Y-128781937D01*
X116954000Y-128594756D01*
X116954000Y-128405243D01*
X116924353Y-128218062D01*
X116865790Y-128037821D01*
X116779754Y-127868969D01*
X116779744Y-127868953D01*
X116687548Y-127742056D01*
X116687547Y-127742056D01*
X116290562Y-128139040D01*
X116254888Y-128085649D01*
X116164351Y-127995112D01*
X116110958Y-127959436D01*
X116507942Y-127562452D01*
X116507942Y-127562450D01*
X116381046Y-127470255D01*
X116381030Y-127470245D01*
X116212178Y-127384209D01*
X116031937Y-127325646D01*
X115844757Y-127296000D01*
X115655243Y-127296000D01*
X115468062Y-127325646D01*
X115287821Y-127384209D01*
X115118969Y-127470245D01*
X115118953Y-127470255D01*
X114992056Y-127562450D01*
X114992056Y-127562451D01*
X115389041Y-127959436D01*
X115335649Y-127995112D01*
X115245112Y-128085649D01*
X115209436Y-128139041D01*
X114812451Y-127742056D01*
X114812450Y-127742056D01*
X114720255Y-127868953D01*
X114720245Y-127868969D01*
X114634209Y-128037821D01*
X114575646Y-128218062D01*
X114546000Y-128405243D01*
X114546000Y-128594756D01*
X114569335Y-128742093D01*
X114566833Y-128752512D01*
X114557697Y-128758111D01*
X114547278Y-128755609D01*
X114545608Y-128754182D01*
X114200880Y-128409454D01*
X112732662Y-126941235D01*
X112732661Y-126941234D01*
X112732659Y-126941232D01*
X112682163Y-126912079D01*
X112675640Y-126903579D01*
X112675514Y-126896841D01*
X112680500Y-126874999D01*
X112680500Y-126462869D01*
X112675348Y-126417141D01*
X112635666Y-126334742D01*
X112564163Y-126277720D01*
X112564161Y-126277719D01*
X112475000Y-126257369D01*
X111525000Y-126257369D01*
X111524999Y-126257369D01*
X111479273Y-126262520D01*
X111396873Y-126302202D01*
X111339851Y-126373706D01*
X111339850Y-126373707D01*
X111319500Y-126462868D01*
X107680500Y-126462868D01*
X107675348Y-126417141D01*
X107635666Y-126334742D01*
X107564163Y-126277720D01*
X107564161Y-126277719D01*
X107475000Y-126257369D01*
X107372856Y-126257369D01*
X107362957Y-126253268D01*
X107358856Y-126243369D01*
X107362957Y-126233470D01*
X107402926Y-126193501D01*
X107412825Y-126189400D01*
X112042850Y-126189400D01*
X112042853Y-126189400D01*
X112125638Y-126167218D01*
X112199862Y-126124365D01*
X112260465Y-126063762D01*
X112303318Y-125989538D01*
X112325500Y-125906753D01*
X112325500Y-125756631D01*
X112329601Y-125746732D01*
X112339500Y-125742631D01*
X112475000Y-125742631D01*
X112520728Y-125737479D01*
X112603127Y-125697797D01*
X112660149Y-125626294D01*
X112680500Y-125537131D01*
X112680500Y-125137800D01*
X112684601Y-125127901D01*
X112694500Y-125123800D01*
X118318850Y-125123800D01*
X118318853Y-125123800D01*
X118401639Y-125101618D01*
X118475862Y-125058765D01*
X119191701Y-124342925D01*
X119201600Y-124338825D01*
X119211497Y-124342924D01*
G37*
%TD.AperFunction*%
%TA.AperFunction,Conductor*%
G36*
X196500781Y-74500088D02*
G01*
X196832217Y-74537431D01*
X196835267Y-74538128D01*
X197130138Y-74641308D01*
X197149337Y-74648026D01*
X197152161Y-74649386D01*
X197433900Y-74826414D01*
X197436351Y-74828369D01*
X197671630Y-75063648D01*
X197673585Y-75066099D01*
X197850613Y-75347838D01*
X197851973Y-75350662D01*
X197961870Y-75664728D01*
X197962568Y-75667784D01*
X197999912Y-75999217D01*
X198000000Y-76000785D01*
X198000000Y-139999214D01*
X197999912Y-140000782D01*
X197962568Y-140332215D01*
X197961870Y-140335271D01*
X197851973Y-140649337D01*
X197850613Y-140652161D01*
X197673585Y-140933900D01*
X197671630Y-140936351D01*
X197436351Y-141171630D01*
X197433900Y-141173585D01*
X197152161Y-141350613D01*
X197149337Y-141351973D01*
X196835271Y-141461870D01*
X196832215Y-141462568D01*
X196566439Y-141492514D01*
X196500780Y-141499912D01*
X196499214Y-141500000D01*
X82500786Y-141500000D01*
X82499219Y-141499912D01*
X82416852Y-141490631D01*
X82167784Y-141462568D01*
X82164728Y-141461870D01*
X81850662Y-141351973D01*
X81847838Y-141350613D01*
X81566099Y-141173585D01*
X81563648Y-141171630D01*
X81328369Y-140936351D01*
X81326414Y-140933900D01*
X81149386Y-140652161D01*
X81148026Y-140649337D01*
X81093813Y-140494406D01*
X81038128Y-140335267D01*
X81037431Y-140332217D01*
X81000088Y-140000781D01*
X81000000Y-139999214D01*
X81000000Y-138000000D01*
X81500000Y-138000000D01*
X81507989Y-138081110D01*
X81557644Y-138585272D01*
X81557645Y-138585276D01*
X81725545Y-139138767D01*
X81728361Y-139148050D01*
X81815787Y-139311612D01*
X82005590Y-139666709D01*
X82005592Y-139666712D01*
X82378678Y-140121320D01*
X82833286Y-140494406D01*
X82833289Y-140494408D01*
X83351949Y-140771638D01*
X83628089Y-140855404D01*
X83886856Y-140933900D01*
X83914729Y-140942355D01*
X84500000Y-141000000D01*
X85085270Y-140942355D01*
X85648050Y-140771638D01*
X86166710Y-140494408D01*
X86621320Y-140121320D01*
X86994408Y-139666710D01*
X87271638Y-139148050D01*
X87442355Y-138585270D01*
X87500000Y-138000000D01*
X87442355Y-137414729D01*
X87271638Y-136851949D01*
X86994408Y-136333289D01*
X86994406Y-136333286D01*
X86621320Y-135878678D01*
X86166712Y-135505592D01*
X86166709Y-135505590D01*
X85954563Y-135392196D01*
X85648050Y-135228361D01*
X85648047Y-135228360D01*
X85648045Y-135228359D01*
X85085276Y-135057645D01*
X85085272Y-135057644D01*
X84695090Y-135019214D01*
X84500000Y-135000000D01*
X84499999Y-135000000D01*
X83914726Y-135057644D01*
X83914722Y-135057645D01*
X83351953Y-135228359D01*
X82833289Y-135505590D01*
X82833286Y-135505592D01*
X82378678Y-135878678D01*
X82005592Y-136333286D01*
X82005590Y-136333289D01*
X81728359Y-136851953D01*
X81557645Y-137414722D01*
X81557644Y-137414726D01*
X81512764Y-137870400D01*
X81500000Y-138000000D01*
X81000000Y-138000000D01*
X81000000Y-105409454D01*
X84099500Y-105409454D01*
X84099500Y-105590545D01*
X84127829Y-105769409D01*
X84183789Y-105941641D01*
X84266002Y-106102990D01*
X84266012Y-106103006D01*
X84372445Y-106249499D01*
X84372452Y-106249507D01*
X84500492Y-106377547D01*
X84500500Y-106377554D01*
X84646993Y-106483987D01*
X84646997Y-106483989D01*
X84647006Y-106483996D01*
X84727683Y-106525103D01*
X84808358Y-106566210D01*
X84808360Y-106566210D01*
X84808361Y-106566211D01*
X84914827Y-106600803D01*
X84922974Y-106607761D01*
X84924500Y-106614117D01*
X84924500Y-109385881D01*
X84920399Y-109395780D01*
X84914826Y-109399196D01*
X84808358Y-109433789D01*
X84647009Y-109516002D01*
X84646993Y-109516012D01*
X84500500Y-109622445D01*
X84500492Y-109622452D01*
X84372452Y-109750492D01*
X84372445Y-109750500D01*
X84266012Y-109896993D01*
X84266002Y-109897009D01*
X84183789Y-110058358D01*
X84127829Y-110230590D01*
X84099500Y-110409454D01*
X84099500Y-110590545D01*
X84127829Y-110769409D01*
X84183789Y-110941641D01*
X84266002Y-111102990D01*
X84266012Y-111103006D01*
X84372445Y-111249499D01*
X84372452Y-111249507D01*
X84500492Y-111377547D01*
X84500500Y-111377554D01*
X84646993Y-111483987D01*
X84646997Y-111483989D01*
X84647006Y-111483996D01*
X84727683Y-111525103D01*
X84808358Y-111566210D01*
X84808360Y-111566210D01*
X84808361Y-111566211D01*
X84980591Y-111622171D01*
X85159454Y-111650500D01*
X85340546Y-111650500D01*
X85519409Y-111622171D01*
X85691639Y-111566211D01*
X85852994Y-111483996D01*
X85999501Y-111377553D01*
X86127553Y-111249501D01*
X86233996Y-111102994D01*
X86316211Y-110941639D01*
X86350803Y-110835174D01*
X86357762Y-110827026D01*
X86364118Y-110825500D01*
X86945350Y-110825500D01*
X86945353Y-110825500D01*
X87028139Y-110803318D01*
X87102362Y-110760465D01*
X88778227Y-109084600D01*
X88788126Y-109080499D01*
X89475000Y-109080499D01*
X89520728Y-109075347D01*
X89603127Y-109035665D01*
X89660149Y-108964162D01*
X89680500Y-108874999D01*
X89680500Y-108462869D01*
X89675348Y-108417141D01*
X89635666Y-108334742D01*
X89564163Y-108277720D01*
X89564161Y-108277719D01*
X89475000Y-108257369D01*
X89372856Y-108257369D01*
X89362957Y-108253268D01*
X89358856Y-108243369D01*
X89362957Y-108233470D01*
X89402926Y-108193501D01*
X89412825Y-108189400D01*
X94042850Y-108189400D01*
X94042853Y-108189400D01*
X94125638Y-108167218D01*
X94199862Y-108124365D01*
X94260465Y-108063762D01*
X94303318Y-107989538D01*
X94325500Y-107906753D01*
X94325500Y-107756631D01*
X94329601Y-107746732D01*
X94339500Y-107742631D01*
X94475000Y-107742631D01*
X94520728Y-107737479D01*
X94603127Y-107697797D01*
X94660149Y-107626294D01*
X94680500Y-107537131D01*
X94680500Y-107125001D01*
X94675348Y-107079273D01*
X94635666Y-106996874D01*
X94564163Y-106939852D01*
X94564161Y-106939851D01*
X94475000Y-106919501D01*
X93525000Y-106919501D01*
X93524999Y-106919501D01*
X93479273Y-106924652D01*
X93396873Y-106964334D01*
X93339851Y-107035838D01*
X93339850Y-107035839D01*
X93319500Y-107125000D01*
X93319500Y-107524400D01*
X93315399Y-107534299D01*
X93305500Y-107538400D01*
X89694500Y-107538400D01*
X89684601Y-107534299D01*
X89680500Y-107524400D01*
X89680500Y-107125000D01*
X89677705Y-107100194D01*
X89680671Y-107089898D01*
X89684610Y-107086507D01*
X89732662Y-107058765D01*
X90035981Y-106755446D01*
X90369115Y-106422313D01*
X91386185Y-105405243D01*
X96546000Y-105405243D01*
X96546000Y-105594756D01*
X96575646Y-105781937D01*
X96634209Y-105962178D01*
X96720245Y-106131030D01*
X96720255Y-106131046D01*
X96812450Y-106257942D01*
X96812452Y-106257942D01*
X97209436Y-105860958D01*
X97245112Y-105914351D01*
X97335649Y-106004888D01*
X97389041Y-106040562D01*
X96992056Y-106437547D01*
X96992056Y-106437548D01*
X97118953Y-106529744D01*
X97118969Y-106529754D01*
X97287821Y-106615790D01*
X97468062Y-106674353D01*
X97655243Y-106704000D01*
X97844757Y-106704000D01*
X98031937Y-106674353D01*
X98212178Y-106615790D01*
X98381030Y-106529754D01*
X98381046Y-106529744D01*
X98507942Y-106437548D01*
X98507942Y-106437546D01*
X98110958Y-106040562D01*
X98164351Y-106004888D01*
X98254888Y-105914351D01*
X98290562Y-105860958D01*
X98687546Y-106257942D01*
X98687548Y-106257942D01*
X98779744Y-106131046D01*
X98779754Y-106131030D01*
X98865790Y-105962178D01*
X98924353Y-105781937D01*
X98954000Y-105594756D01*
X98954000Y-105405243D01*
X98924353Y-105218062D01*
X98865790Y-105037821D01*
X98779754Y-104868969D01*
X98779744Y-104868953D01*
X98687548Y-104742056D01*
X98687547Y-104742056D01*
X98290562Y-105139040D01*
X98254888Y-105085649D01*
X98164351Y-104995112D01*
X98110958Y-104959436D01*
X98507942Y-104562452D01*
X98507942Y-104562450D01*
X98381046Y-104470255D01*
X98381030Y-104470245D01*
X98212178Y-104384209D01*
X98031937Y-104325646D01*
X97844757Y-104296000D01*
X97655243Y-104296000D01*
X97468062Y-104325646D01*
X97287821Y-104384209D01*
X97118969Y-104470245D01*
X97118953Y-104470255D01*
X96992056Y-104562450D01*
X96992056Y-104562451D01*
X97389041Y-104959436D01*
X97335649Y-104995112D01*
X97245112Y-105085649D01*
X97209436Y-105139041D01*
X96812451Y-104742056D01*
X96812450Y-104742056D01*
X96720255Y-104868953D01*
X96720245Y-104868969D01*
X96634209Y-105037821D01*
X96575646Y-105218062D01*
X96546000Y-105405243D01*
X91386185Y-105405243D01*
X92233540Y-104557888D01*
X102627001Y-94164426D01*
X102636900Y-94160325D01*
X102646799Y-94164426D01*
X118679336Y-110196964D01*
X118679339Y-110196966D01*
X118726209Y-110224026D01*
X118753561Y-110239818D01*
X118836347Y-110262000D01*
X118862100Y-110262000D01*
X118871999Y-110266101D01*
X118876100Y-110276000D01*
X118876100Y-123732075D01*
X118871999Y-123741974D01*
X118145274Y-124468699D01*
X118135375Y-124472800D01*
X116502510Y-124472800D01*
X116492611Y-124468699D01*
X116488510Y-124458800D01*
X116492611Y-124448901D01*
X116494281Y-124447474D01*
X116507942Y-124437548D01*
X116507942Y-124437546D01*
X116110958Y-124040562D01*
X116164351Y-124004888D01*
X116254888Y-123914351D01*
X116290562Y-123860958D01*
X116687546Y-124257942D01*
X116687548Y-124257942D01*
X116779744Y-124131046D01*
X116779754Y-124131030D01*
X116865790Y-123962178D01*
X116924353Y-123781937D01*
X116954000Y-123594756D01*
X116954000Y-123405243D01*
X116924353Y-123218062D01*
X116865790Y-123037821D01*
X116779754Y-122868969D01*
X116779744Y-122868953D01*
X116687548Y-122742056D01*
X116687547Y-122742056D01*
X116290562Y-123139040D01*
X116254888Y-123085649D01*
X116164351Y-122995112D01*
X116110958Y-122959436D01*
X116507942Y-122562452D01*
X116507942Y-122562450D01*
X116381046Y-122470255D01*
X116381030Y-122470245D01*
X116212178Y-122384209D01*
X116031937Y-122325646D01*
X115844757Y-122296000D01*
X115655243Y-122296000D01*
X115468062Y-122325646D01*
X115287821Y-122384209D01*
X115118969Y-122470245D01*
X115118953Y-122470255D01*
X114992056Y-122562450D01*
X114992056Y-122562451D01*
X115389041Y-122959436D01*
X115335649Y-122995112D01*
X115245112Y-123085649D01*
X115209436Y-123139041D01*
X114812451Y-122742056D01*
X114812450Y-122742056D01*
X114720255Y-122868953D01*
X114720245Y-122868969D01*
X114634209Y-123037821D01*
X114575646Y-123218062D01*
X114546000Y-123405243D01*
X114546000Y-123594756D01*
X114575646Y-123781937D01*
X114634209Y-123962178D01*
X114720245Y-124131030D01*
X114720255Y-124131046D01*
X114812450Y-124257942D01*
X114812452Y-124257942D01*
X115209436Y-123860958D01*
X115245112Y-123914351D01*
X115335649Y-124004888D01*
X115389041Y-124040562D01*
X114992056Y-124437547D01*
X114992056Y-124437548D01*
X115005718Y-124447474D01*
X115011317Y-124456610D01*
X115008815Y-124467029D01*
X114999679Y-124472628D01*
X114997489Y-124472800D01*
X106957146Y-124472800D01*
X106874365Y-124494981D01*
X106874357Y-124494984D01*
X106800139Y-124537833D01*
X106800136Y-124537835D01*
X106739535Y-124598436D01*
X106739533Y-124598439D01*
X106696684Y-124672657D01*
X106696681Y-124672665D01*
X106674500Y-124755446D01*
X106674500Y-124905501D01*
X106670399Y-124915400D01*
X106660500Y-124919501D01*
X106524999Y-124919501D01*
X106479273Y-124924652D01*
X106396873Y-124964334D01*
X106339851Y-125035838D01*
X106339850Y-125035839D01*
X106319500Y-125125000D01*
X106319500Y-125537131D01*
X106324651Y-125582857D01*
X106364333Y-125665257D01*
X106364334Y-125665258D01*
X106435837Y-125722280D01*
X106524999Y-125742630D01*
X106524999Y-125742631D01*
X106525000Y-125742631D01*
X106899344Y-125742631D01*
X106909243Y-125746732D01*
X106913344Y-125756631D01*
X106909243Y-125766530D01*
X106824387Y-125851385D01*
X106739532Y-125936240D01*
X106696683Y-126010457D01*
X106696683Y-126010459D01*
X106696682Y-126010462D01*
X106674500Y-126093246D01*
X106674500Y-126243369D01*
X106670399Y-126253268D01*
X106660500Y-126257369D01*
X106524999Y-126257369D01*
X106479273Y-126262520D01*
X106396873Y-126302202D01*
X106368223Y-126338129D01*
X106358844Y-126343312D01*
X106357277Y-126343400D01*
X105420600Y-126343400D01*
X105410701Y-126339299D01*
X105406600Y-126329400D01*
X105406600Y-125288250D01*
X105406600Y-125288247D01*
X105384418Y-125205462D01*
X105345354Y-125137800D01*
X105341567Y-125131240D01*
X105311942Y-125101615D01*
X105280962Y-125070635D01*
X104267963Y-124057636D01*
X104263862Y-124047737D01*
X104265387Y-124041384D01*
X104316211Y-123941639D01*
X104372171Y-123769409D01*
X104400500Y-123590546D01*
X104400500Y-123409454D01*
X104372171Y-123230591D01*
X104316211Y-123058361D01*
X104316210Y-123058360D01*
X104316210Y-123058358D01*
X104247739Y-122923978D01*
X104233996Y-122897006D01*
X104213614Y-122868953D01*
X104127554Y-122750500D01*
X104127547Y-122750492D01*
X103999507Y-122622452D01*
X103999499Y-122622445D01*
X103939857Y-122579113D01*
X103853006Y-122516012D01*
X103852998Y-122516007D01*
X103852994Y-122516004D01*
X103847172Y-122513037D01*
X103691641Y-122433789D01*
X103519409Y-122377829D01*
X103340546Y-122349500D01*
X103159454Y-122349500D01*
X102980590Y-122377829D01*
X102808358Y-122433789D01*
X102647009Y-122516002D01*
X102646993Y-122516012D01*
X102500500Y-122622445D01*
X102500492Y-122622452D01*
X102372452Y-122750492D01*
X102372445Y-122750500D01*
X102266012Y-122896993D01*
X102266002Y-122897009D01*
X102183789Y-123058358D01*
X102127829Y-123230590D01*
X102099500Y-123409454D01*
X102099500Y-123590545D01*
X102127829Y-123769409D01*
X102183789Y-123941641D01*
X102266002Y-124102990D01*
X102266012Y-124103006D01*
X102372445Y-124249499D01*
X102372452Y-124249507D01*
X102500492Y-124377547D01*
X102500500Y-124377554D01*
X102646993Y-124483987D01*
X102646997Y-124483989D01*
X102647006Y-124483996D01*
X102708616Y-124515388D01*
X102808358Y-124566210D01*
X102808360Y-124566210D01*
X102808361Y-124566211D01*
X102980591Y-124622171D01*
X103159454Y-124650500D01*
X103340546Y-124650500D01*
X103519409Y-124622171D01*
X103691639Y-124566211D01*
X103791383Y-124515387D01*
X103802063Y-124514547D01*
X103807636Y-124517963D01*
X104751499Y-125461826D01*
X104755600Y-125471725D01*
X104755600Y-126528273D01*
X104751499Y-126538172D01*
X104751499Y-126538173D01*
X103807635Y-127482036D01*
X103797736Y-127486136D01*
X103791381Y-127484610D01*
X103766119Y-127471738D01*
X103691641Y-127433789D01*
X103519409Y-127377829D01*
X103340546Y-127349500D01*
X103159454Y-127349500D01*
X102980590Y-127377829D01*
X102808358Y-127433789D01*
X102647009Y-127516002D01*
X102646993Y-127516012D01*
X102500500Y-127622445D01*
X102500492Y-127622452D01*
X102372452Y-127750492D01*
X102372445Y-127750500D01*
X102266012Y-127896993D01*
X102266002Y-127897009D01*
X102183789Y-128058358D01*
X102127829Y-128230590D01*
X102099500Y-128409454D01*
X102099500Y-128590545D01*
X102126375Y-128760232D01*
X102123873Y-128770651D01*
X102114737Y-128776250D01*
X102104318Y-128773748D01*
X102102648Y-128772321D01*
X94329601Y-120999274D01*
X94325500Y-120989375D01*
X94325500Y-110405243D01*
X96546000Y-110405243D01*
X96546000Y-110594756D01*
X96575646Y-110781937D01*
X96634209Y-110962178D01*
X96720245Y-111131030D01*
X96720255Y-111131046D01*
X96812450Y-111257942D01*
X96812452Y-111257942D01*
X97209436Y-110860958D01*
X97245112Y-110914351D01*
X97335649Y-111004888D01*
X97389041Y-111040562D01*
X96992056Y-111437547D01*
X96992056Y-111437548D01*
X97118953Y-111529744D01*
X97118969Y-111529754D01*
X97287821Y-111615790D01*
X97468062Y-111674353D01*
X97655243Y-111704000D01*
X97844757Y-111704000D01*
X98031937Y-111674353D01*
X98212178Y-111615790D01*
X98381030Y-111529754D01*
X98381046Y-111529744D01*
X98507942Y-111437548D01*
X98507942Y-111437546D01*
X98110958Y-111040562D01*
X98164351Y-111004888D01*
X98254888Y-110914351D01*
X98290562Y-110860958D01*
X98687546Y-111257942D01*
X98687548Y-111257942D01*
X98779744Y-111131046D01*
X98779754Y-111131030D01*
X98865790Y-110962178D01*
X98924353Y-110781937D01*
X98954000Y-110594756D01*
X98954000Y-110405243D01*
X98924353Y-110218062D01*
X98865790Y-110037821D01*
X98779754Y-109868969D01*
X98779744Y-109868953D01*
X98687548Y-109742056D01*
X98687547Y-109742056D01*
X98290562Y-110139040D01*
X98254888Y-110085649D01*
X98164351Y-109995112D01*
X98110958Y-109959436D01*
X98507942Y-109562452D01*
X98507942Y-109562450D01*
X98381046Y-109470255D01*
X98381030Y-109470245D01*
X98212178Y-109384209D01*
X98031937Y-109325646D01*
X97844757Y-109296000D01*
X97655243Y-109296000D01*
X97468062Y-109325646D01*
X97287821Y-109384209D01*
X97118969Y-109470245D01*
X97118953Y-109470255D01*
X96992056Y-109562450D01*
X96992056Y-109562451D01*
X97389041Y-109959436D01*
X97335649Y-109995112D01*
X97245112Y-110085649D01*
X97209436Y-110139041D01*
X96812451Y-109742056D01*
X96812450Y-109742056D01*
X96720255Y-109868953D01*
X96720245Y-109868969D01*
X96634209Y-110037821D01*
X96575646Y-110218062D01*
X96546000Y-110405243D01*
X94325500Y-110405243D01*
X94325500Y-109094499D01*
X94329601Y-109084600D01*
X94339500Y-109080499D01*
X94475000Y-109080499D01*
X94520728Y-109075347D01*
X94603127Y-109035665D01*
X94660149Y-108964162D01*
X94680500Y-108874999D01*
X94680500Y-108462869D01*
X94675348Y-108417141D01*
X94635666Y-108334742D01*
X94564163Y-108277720D01*
X94564161Y-108277719D01*
X94475000Y-108257369D01*
X93525000Y-108257369D01*
X93524999Y-108257369D01*
X93479273Y-108262520D01*
X93396873Y-108302202D01*
X93339851Y-108373706D01*
X93319500Y-108462868D01*
X93319500Y-108874999D01*
X93324651Y-108920725D01*
X93364333Y-109003125D01*
X93364334Y-109003126D01*
X93435837Y-109060148D01*
X93524999Y-109080498D01*
X93524999Y-109080499D01*
X93525000Y-109080499D01*
X93660500Y-109080499D01*
X93670399Y-109084600D01*
X93674500Y-109094499D01*
X93674500Y-121172853D01*
X93696681Y-121255635D01*
X93696684Y-121255643D01*
X93739533Y-121329860D01*
X93739535Y-121329863D01*
X106027136Y-133617464D01*
X106027139Y-133617466D01*
X106056435Y-133634380D01*
X106101361Y-133660318D01*
X106184147Y-133682500D01*
X126776800Y-133682500D01*
X126786699Y-133686601D01*
X126790800Y-133696500D01*
X126790800Y-139493353D01*
X126812981Y-139576135D01*
X126812984Y-139576143D01*
X126855833Y-139650360D01*
X126855835Y-139650363D01*
X127582436Y-140376964D01*
X127582439Y-140376966D01*
X127582441Y-140376967D01*
X127656661Y-140419818D01*
X127739447Y-140442000D01*
X127739450Y-140442000D01*
X144676350Y-140442000D01*
X144676353Y-140442000D01*
X144759139Y-140419818D01*
X144833362Y-140376965D01*
X145316223Y-139894102D01*
X145326122Y-139890002D01*
X145331480Y-139891068D01*
X145463148Y-139945606D01*
X145463153Y-139945608D01*
X145653144Y-139983400D01*
X145846856Y-139983400D01*
X146036847Y-139945608D01*
X146215814Y-139871478D01*
X146376881Y-139763856D01*
X146513856Y-139626881D01*
X146621478Y-139465814D01*
X146623333Y-139461334D01*
X146630908Y-139453758D01*
X146641623Y-139453757D01*
X146646163Y-139456790D01*
X147134979Y-139945606D01*
X147566140Y-140376767D01*
X147631589Y-140414553D01*
X147640361Y-140419618D01*
X147723147Y-140441800D01*
X147723150Y-140441800D01*
X151337950Y-140441800D01*
X151337953Y-140441800D01*
X151420739Y-140419618D01*
X151474213Y-140388744D01*
X151494959Y-140376767D01*
X151494959Y-140376766D01*
X151494962Y-140376765D01*
X152147307Y-139724417D01*
X152147317Y-139724410D01*
X152209064Y-139662663D01*
X152209066Y-139662660D01*
X152216166Y-139650362D01*
X152251918Y-139588438D01*
X152274101Y-139505652D01*
X152274101Y-139419947D01*
X152274101Y-139419089D01*
X152274100Y-139419080D01*
X152274100Y-138000000D01*
X191500000Y-138000000D01*
X191557644Y-138585272D01*
X191557645Y-138585276D01*
X191725545Y-139138767D01*
X191728361Y-139148050D01*
X191815787Y-139311612D01*
X192005590Y-139666709D01*
X192005592Y-139666712D01*
X192378678Y-140121320D01*
X192833286Y-140494406D01*
X192833289Y-140494408D01*
X193351949Y-140771638D01*
X193628089Y-140855404D01*
X193886856Y-140933900D01*
X193914729Y-140942355D01*
X194500000Y-141000000D01*
X195085270Y-140942355D01*
X195648050Y-140771638D01*
X196166710Y-140494408D01*
X196621320Y-140121320D01*
X196994408Y-139666710D01*
X197271638Y-139148050D01*
X197442355Y-138585270D01*
X197500000Y-138000000D01*
X197442355Y-137414729D01*
X197271638Y-136851949D01*
X196994408Y-136333289D01*
X196994406Y-136333286D01*
X196621320Y-135878678D01*
X196166712Y-135505592D01*
X196166709Y-135505590D01*
X195954563Y-135392196D01*
X195648050Y-135228361D01*
X195648047Y-135228360D01*
X195648045Y-135228359D01*
X195085276Y-135057645D01*
X195085272Y-135057644D01*
X194695090Y-135019214D01*
X194500000Y-135000000D01*
X194499999Y-135000000D01*
X193914726Y-135057644D01*
X193914722Y-135057645D01*
X193351953Y-135228359D01*
X192833289Y-135505590D01*
X192833286Y-135505592D01*
X192378678Y-135878678D01*
X192005592Y-136333286D01*
X192005590Y-136333289D01*
X191728359Y-136851953D01*
X191557645Y-137414722D01*
X191557644Y-137414726D01*
X191500000Y-138000000D01*
X152274100Y-138000000D01*
X152274100Y-133577600D01*
X152278201Y-133567701D01*
X152288100Y-133563600D01*
X167921450Y-133563600D01*
X167921453Y-133563600D01*
X168004239Y-133541418D01*
X168078462Y-133498565D01*
X170111790Y-131465237D01*
X172154715Y-129422313D01*
X173171785Y-128405243D01*
X174546000Y-128405243D01*
X174546000Y-128594756D01*
X174575646Y-128781937D01*
X174634209Y-128962178D01*
X174720245Y-129131030D01*
X174720255Y-129131046D01*
X174812450Y-129257942D01*
X174812452Y-129257942D01*
X175209436Y-128860958D01*
X175245112Y-128914351D01*
X175335649Y-129004888D01*
X175389041Y-129040562D01*
X174992056Y-129437547D01*
X174992056Y-129437548D01*
X175118953Y-129529744D01*
X175118969Y-129529754D01*
X175287821Y-129615790D01*
X175468062Y-129674353D01*
X175655243Y-129704000D01*
X175844757Y-129704000D01*
X176031937Y-129674353D01*
X176212178Y-129615790D01*
X176381030Y-129529754D01*
X176381046Y-129529744D01*
X176507942Y-129437548D01*
X176507942Y-129437546D01*
X176110958Y-129040562D01*
X176164351Y-129004888D01*
X176254888Y-128914351D01*
X176290562Y-128860958D01*
X176687546Y-129257942D01*
X176687548Y-129257942D01*
X176779744Y-129131046D01*
X176779754Y-129131030D01*
X176865790Y-128962178D01*
X176924353Y-128781937D01*
X176954000Y-128594756D01*
X176954000Y-128405243D01*
X176924353Y-128218062D01*
X176865790Y-128037821D01*
X176779754Y-127868969D01*
X176779744Y-127868953D01*
X176687548Y-127742056D01*
X176687547Y-127742056D01*
X176290562Y-128139040D01*
X176254888Y-128085649D01*
X176164351Y-127995112D01*
X176110958Y-127959436D01*
X176507942Y-127562452D01*
X176507942Y-127562450D01*
X176381046Y-127470255D01*
X176381030Y-127470245D01*
X176212178Y-127384209D01*
X176031937Y-127325646D01*
X175844757Y-127296000D01*
X175655243Y-127296000D01*
X175468062Y-127325646D01*
X175287821Y-127384209D01*
X175118969Y-127470245D01*
X175118953Y-127470255D01*
X174992056Y-127562450D01*
X174992056Y-127562451D01*
X175389041Y-127959436D01*
X175335649Y-127995112D01*
X175245112Y-128085649D01*
X175209436Y-128139041D01*
X174812451Y-127742056D01*
X174812450Y-127742056D01*
X174720255Y-127868953D01*
X174720245Y-127868969D01*
X174634209Y-128037821D01*
X174575646Y-128218062D01*
X174546000Y-128405243D01*
X173171785Y-128405243D01*
X190154715Y-111422313D01*
X190260464Y-111316563D01*
X190260466Y-111316560D01*
X190303318Y-111242339D01*
X190325500Y-111159553D01*
X190325500Y-111073847D01*
X190325500Y-110405243D01*
X192546000Y-110405243D01*
X192546000Y-110594756D01*
X192575646Y-110781937D01*
X192634209Y-110962178D01*
X192720245Y-111131030D01*
X192720255Y-111131046D01*
X192812450Y-111257942D01*
X192812452Y-111257942D01*
X193209436Y-110860958D01*
X193245112Y-110914351D01*
X193335649Y-111004888D01*
X193389041Y-111040562D01*
X192992056Y-111437547D01*
X192992056Y-111437548D01*
X193118953Y-111529744D01*
X193118969Y-111529754D01*
X193287821Y-111615790D01*
X193468062Y-111674353D01*
X193655243Y-111704000D01*
X193844757Y-111704000D01*
X194031937Y-111674353D01*
X194212178Y-111615790D01*
X194381030Y-111529754D01*
X194381046Y-111529744D01*
X194507942Y-111437548D01*
X194507942Y-111437546D01*
X194110958Y-111040562D01*
X194164351Y-111004888D01*
X194254888Y-110914351D01*
X194290562Y-110860958D01*
X194687546Y-111257942D01*
X194687548Y-111257942D01*
X194779744Y-111131046D01*
X194779754Y-111131030D01*
X194865790Y-110962178D01*
X194924353Y-110781937D01*
X194954000Y-110594756D01*
X194954000Y-110405243D01*
X194924353Y-110218062D01*
X194865790Y-110037821D01*
X194779754Y-109868969D01*
X194779744Y-109868953D01*
X194687548Y-109742056D01*
X194687547Y-109742056D01*
X194290562Y-110139040D01*
X194254888Y-110085649D01*
X194164351Y-109995112D01*
X194110958Y-109959436D01*
X194507942Y-109562452D01*
X194507942Y-109562450D01*
X194381046Y-109470255D01*
X194381030Y-109470245D01*
X194212178Y-109384209D01*
X194031937Y-109325646D01*
X193844757Y-109296000D01*
X193655243Y-109296000D01*
X193468062Y-109325646D01*
X193287821Y-109384209D01*
X193118969Y-109470245D01*
X193118953Y-109470255D01*
X192992056Y-109562450D01*
X192992056Y-109562451D01*
X193389041Y-109959436D01*
X193335649Y-109995112D01*
X193245112Y-110085649D01*
X193209436Y-110139041D01*
X192812451Y-109742056D01*
X192812450Y-109742056D01*
X192720255Y-109868953D01*
X192720245Y-109868969D01*
X192634209Y-110037821D01*
X192575646Y-110218062D01*
X192546000Y-110405243D01*
X190325500Y-110405243D01*
X190325500Y-109094499D01*
X190329601Y-109084600D01*
X190339500Y-109080499D01*
X190475000Y-109080499D01*
X190520728Y-109075347D01*
X190603127Y-109035665D01*
X190660149Y-108964162D01*
X190680500Y-108874999D01*
X190680500Y-108462869D01*
X190675348Y-108417141D01*
X190635666Y-108334742D01*
X190564163Y-108277720D01*
X190564161Y-108277719D01*
X190475000Y-108257369D01*
X190100656Y-108257369D01*
X190090757Y-108253268D01*
X190086656Y-108243369D01*
X190090757Y-108233470D01*
X190260465Y-108063762D01*
X190303318Y-107989539D01*
X190325500Y-107906753D01*
X190325500Y-107821047D01*
X190325500Y-107756631D01*
X190329601Y-107746732D01*
X190339500Y-107742631D01*
X190475000Y-107742631D01*
X190520728Y-107737479D01*
X190603127Y-107697797D01*
X190660149Y-107626294D01*
X190680500Y-107537131D01*
X190680500Y-107125001D01*
X190675348Y-107079273D01*
X190635666Y-106996874D01*
X190564163Y-106939852D01*
X190564161Y-106939851D01*
X190475000Y-106919501D01*
X189525000Y-106919501D01*
X189524999Y-106919501D01*
X189479273Y-106924652D01*
X189396873Y-106964334D01*
X189339851Y-107035838D01*
X189339850Y-107035839D01*
X189319500Y-107125000D01*
X189319500Y-107537131D01*
X189324651Y-107582857D01*
X189364333Y-107665257D01*
X189364334Y-107665258D01*
X189435837Y-107722280D01*
X189524999Y-107742630D01*
X189524999Y-107742631D01*
X189525000Y-107742631D01*
X189627144Y-107742631D01*
X189637043Y-107746732D01*
X189641144Y-107756631D01*
X189637043Y-107766530D01*
X189597074Y-107806499D01*
X189587175Y-107810600D01*
X184957146Y-107810600D01*
X184874365Y-107832781D01*
X184874357Y-107832784D01*
X184800139Y-107875633D01*
X184800136Y-107875635D01*
X184739535Y-107936236D01*
X184739533Y-107936239D01*
X184696684Y-108010457D01*
X184696681Y-108010465D01*
X184674500Y-108093246D01*
X184674500Y-108243369D01*
X184670399Y-108253268D01*
X184660500Y-108257369D01*
X184524999Y-108257369D01*
X184479273Y-108262520D01*
X184396873Y-108302202D01*
X184339851Y-108373706D01*
X184319500Y-108462868D01*
X184319500Y-108862200D01*
X184315399Y-108872099D01*
X184305500Y-108876200D01*
X182505446Y-108876200D01*
X182422665Y-108898381D01*
X182422657Y-108898384D01*
X182383962Y-108920725D01*
X182383959Y-108920727D01*
X182361438Y-108933728D01*
X182348437Y-108941235D01*
X181807635Y-109482036D01*
X181797736Y-109486136D01*
X181791381Y-109484610D01*
X181766119Y-109471738D01*
X181691641Y-109433789D01*
X181519409Y-109377829D01*
X181340546Y-109349500D01*
X181159454Y-109349500D01*
X180980590Y-109377829D01*
X180808358Y-109433789D01*
X180647009Y-109516002D01*
X180646993Y-109516012D01*
X180500500Y-109622445D01*
X180500492Y-109622452D01*
X180372452Y-109750492D01*
X180372445Y-109750500D01*
X180266012Y-109896993D01*
X180266002Y-109897009D01*
X180183789Y-110058358D01*
X180127829Y-110230590D01*
X180099500Y-110409454D01*
X180099500Y-110590545D01*
X180127829Y-110769409D01*
X180183789Y-110941641D01*
X180266002Y-111102990D01*
X180266012Y-111103006D01*
X180372445Y-111249499D01*
X180372452Y-111249507D01*
X180500492Y-111377547D01*
X180500500Y-111377554D01*
X180646993Y-111483987D01*
X180646997Y-111483989D01*
X180647006Y-111483996D01*
X180727683Y-111525103D01*
X180808358Y-111566210D01*
X180808360Y-111566210D01*
X180808361Y-111566211D01*
X180980591Y-111622171D01*
X181159454Y-111650500D01*
X181340546Y-111650500D01*
X181519409Y-111622171D01*
X181691639Y-111566211D01*
X181852994Y-111483996D01*
X181999501Y-111377553D01*
X182127553Y-111249501D01*
X182233996Y-111102994D01*
X182316211Y-110941639D01*
X182372171Y-110769409D01*
X182400500Y-110590546D01*
X182400500Y-110409454D01*
X182372171Y-110230591D01*
X182316211Y-110058361D01*
X182316210Y-110058360D01*
X182316210Y-110058358D01*
X182297097Y-110020848D01*
X182265387Y-109958615D01*
X182264547Y-109947936D01*
X182267961Y-109942364D01*
X182679027Y-109531300D01*
X182688926Y-109527200D01*
X185042850Y-109527200D01*
X185042853Y-109527200D01*
X185125638Y-109505018D01*
X185199862Y-109462165D01*
X185260465Y-109401562D01*
X185303318Y-109327338D01*
X185325500Y-109244553D01*
X185325500Y-109094499D01*
X185329601Y-109084600D01*
X185339500Y-109080499D01*
X185475000Y-109080499D01*
X185520728Y-109075347D01*
X185603127Y-109035665D01*
X185660149Y-108964162D01*
X185680500Y-108874999D01*
X185680500Y-108475600D01*
X185684601Y-108465701D01*
X185694500Y-108461600D01*
X189305500Y-108461600D01*
X189315399Y-108465701D01*
X189319500Y-108475600D01*
X189319500Y-108874999D01*
X189324651Y-108920725D01*
X189364333Y-109003125D01*
X189364334Y-109003126D01*
X189435837Y-109060148D01*
X189524999Y-109080498D01*
X189524999Y-109080499D01*
X189525000Y-109080499D01*
X189660500Y-109080499D01*
X189670399Y-109084600D01*
X189674500Y-109094499D01*
X189674500Y-110976074D01*
X189670399Y-110985973D01*
X176964214Y-123692157D01*
X176954315Y-123696258D01*
X176944416Y-123692157D01*
X176940315Y-123682258D01*
X176940487Y-123680068D01*
X176954000Y-123594756D01*
X176954000Y-123405243D01*
X176924353Y-123218062D01*
X176865790Y-123037821D01*
X176779754Y-122868969D01*
X176779744Y-122868953D01*
X176687548Y-122742056D01*
X176687547Y-122742056D01*
X176290563Y-123139041D01*
X176254888Y-123085649D01*
X176164351Y-122995112D01*
X176110958Y-122959436D01*
X176507942Y-122562452D01*
X176507942Y-122562450D01*
X176381046Y-122470255D01*
X176381030Y-122470245D01*
X176212178Y-122384209D01*
X176031937Y-122325646D01*
X175844757Y-122296000D01*
X175655243Y-122296000D01*
X175468062Y-122325646D01*
X175287821Y-122384209D01*
X175118969Y-122470245D01*
X175118953Y-122470255D01*
X174992056Y-122562450D01*
X174992056Y-122562451D01*
X175389041Y-122959436D01*
X175335649Y-122995112D01*
X175245112Y-123085649D01*
X175209436Y-123139041D01*
X174812451Y-122742056D01*
X174812450Y-122742056D01*
X174720255Y-122868953D01*
X174720245Y-122868969D01*
X174634209Y-123037821D01*
X174575646Y-123218062D01*
X174546000Y-123405243D01*
X174546000Y-123594756D01*
X174575646Y-123781937D01*
X174634209Y-123962178D01*
X174720245Y-124131030D01*
X174720255Y-124131046D01*
X174812450Y-124257942D01*
X174812452Y-124257942D01*
X175209436Y-123860958D01*
X175245112Y-123914351D01*
X175335649Y-124004888D01*
X175389041Y-124040563D01*
X174992056Y-124437547D01*
X174992056Y-124437548D01*
X175118953Y-124529744D01*
X175118969Y-124529754D01*
X175287821Y-124615790D01*
X175468062Y-124674353D01*
X175655243Y-124704000D01*
X175844757Y-124704000D01*
X175930068Y-124690487D01*
X175940487Y-124692989D01*
X175946086Y-124702125D01*
X175943584Y-124712544D01*
X175942157Y-124714214D01*
X167747874Y-132908499D01*
X167737975Y-132912600D01*
X151905425Y-132912600D01*
X151895526Y-132908499D01*
X151676562Y-132689535D01*
X151676561Y-132689534D01*
X151676559Y-132689532D01*
X151602343Y-132646684D01*
X151602341Y-132646683D01*
X151602339Y-132646682D01*
X151519553Y-132624500D01*
X151325544Y-132624500D01*
X151315645Y-132620399D01*
X151312931Y-132616575D01*
X151310667Y-132611875D01*
X151310666Y-132611874D01*
X151310666Y-132611873D01*
X151239163Y-132554851D01*
X151239161Y-132554850D01*
X151150000Y-132534500D01*
X150227000Y-132534500D01*
X150217101Y-132530399D01*
X150213000Y-132520500D01*
X150213000Y-132483000D01*
X150217101Y-132473101D01*
X150227000Y-132469000D01*
X151150000Y-132469000D01*
X151249113Y-132449285D01*
X151333140Y-132393140D01*
X151389285Y-132309113D01*
X151409000Y-132209999D01*
X151409000Y-131790000D01*
X151389285Y-131690886D01*
X151333140Y-131606859D01*
X151249113Y-131550714D01*
X151150000Y-131531000D01*
X150227000Y-131531000D01*
X150217101Y-131526899D01*
X150213000Y-131517000D01*
X150213000Y-131479500D01*
X150217101Y-131469601D01*
X150227000Y-131465500D01*
X151150000Y-131465500D01*
X151195728Y-131460348D01*
X151278127Y-131420666D01*
X151309942Y-131380770D01*
X151319321Y-131375588D01*
X151320888Y-131375500D01*
X168194550Y-131375500D01*
X168194553Y-131375500D01*
X168277339Y-131353318D01*
X168351562Y-131310465D01*
X172260465Y-127401562D01*
X172303318Y-127327339D01*
X172325500Y-127244553D01*
X172325500Y-127158847D01*
X172325500Y-127094499D01*
X172329601Y-127084600D01*
X172339500Y-127080499D01*
X172475000Y-127080499D01*
X172520728Y-127075347D01*
X172603127Y-127035665D01*
X172660149Y-126964162D01*
X172680500Y-126874999D01*
X172680500Y-126462869D01*
X172675348Y-126417141D01*
X172635666Y-126334742D01*
X172564163Y-126277720D01*
X172564161Y-126277719D01*
X172475000Y-126257369D01*
X171525000Y-126257369D01*
X171524999Y-126257369D01*
X171479273Y-126262520D01*
X171396873Y-126302202D01*
X171339851Y-126373706D01*
X171339850Y-126373707D01*
X171319500Y-126462868D01*
X171319500Y-126874999D01*
X171324651Y-126920725D01*
X171364333Y-127003125D01*
X171364334Y-127003126D01*
X171435837Y-127060148D01*
X171524999Y-127080498D01*
X171524999Y-127080499D01*
X171525000Y-127080499D01*
X171627076Y-127080499D01*
X171636975Y-127084600D01*
X171641076Y-127094499D01*
X171636975Y-127104398D01*
X168020974Y-130720399D01*
X168011075Y-130724500D01*
X151325544Y-130724500D01*
X151315645Y-130720399D01*
X151312931Y-130716575D01*
X151310667Y-130711875D01*
X151310666Y-130711874D01*
X151310666Y-130711873D01*
X151239163Y-130654851D01*
X151239161Y-130654850D01*
X151150000Y-130634500D01*
X150214150Y-130634500D01*
X150214149Y-130634500D01*
X150168423Y-130639651D01*
X150086023Y-130679333D01*
X150054208Y-130719229D01*
X150044829Y-130724412D01*
X150043262Y-130724500D01*
X149932125Y-130724500D01*
X149922226Y-130720399D01*
X149918125Y-130710500D01*
X149922226Y-130700601D01*
X172260464Y-108362363D01*
X172260466Y-108362360D01*
X172271413Y-108343400D01*
X172303318Y-108288139D01*
X172325500Y-108205353D01*
X172325500Y-108119647D01*
X172325500Y-91094499D01*
X172329601Y-91084600D01*
X172339500Y-91080499D01*
X172475000Y-91080499D01*
X172520728Y-91075347D01*
X172603127Y-91035665D01*
X172660149Y-90964162D01*
X172680500Y-90874999D01*
X172680500Y-90462869D01*
X172675348Y-90417141D01*
X172635666Y-90334742D01*
X172564163Y-90277720D01*
X172564161Y-90277719D01*
X172475000Y-90257369D01*
X171525000Y-90257369D01*
X171524999Y-90257369D01*
X171479273Y-90262520D01*
X171396873Y-90302202D01*
X171339851Y-90373706D01*
X171319500Y-90462868D01*
X171319500Y-90874999D01*
X171324651Y-90920725D01*
X171364333Y-91003125D01*
X171364334Y-91003126D01*
X171435837Y-91060148D01*
X171524999Y-91080498D01*
X171524999Y-91080499D01*
X171525000Y-91080499D01*
X171660500Y-91080499D01*
X171670399Y-91084600D01*
X171674500Y-91094499D01*
X171674500Y-108021875D01*
X171670399Y-108031774D01*
X148981774Y-130720399D01*
X148971875Y-130724500D01*
X148961394Y-130724500D01*
X148951495Y-130720399D01*
X148948781Y-130716575D01*
X148946517Y-130711875D01*
X148946516Y-130711874D01*
X148946516Y-130711873D01*
X148875013Y-130654851D01*
X148875011Y-130654850D01*
X148785850Y-130634500D01*
X147850000Y-130634500D01*
X147849999Y-130634500D01*
X147804273Y-130639651D01*
X147741670Y-130669798D01*
X147730972Y-130670398D01*
X147725698Y-130667084D01*
X147648114Y-130589500D01*
X147648113Y-130589499D01*
X147648111Y-130589497D01*
X147533990Y-130523610D01*
X147533988Y-130523609D01*
X147533986Y-130523608D01*
X147406692Y-130489500D01*
X147274908Y-130489500D01*
X147274907Y-130489500D01*
X147147617Y-130523607D01*
X147147609Y-130523610D01*
X147033487Y-130589498D01*
X147033484Y-130589500D01*
X146940300Y-130682684D01*
X146940298Y-130682687D01*
X146874410Y-130796809D01*
X146874407Y-130796817D01*
X146840300Y-130924107D01*
X146840300Y-131055892D01*
X146874407Y-131183182D01*
X146874410Y-131183190D01*
X146940298Y-131297312D01*
X146940300Y-131297315D01*
X147033484Y-131390499D01*
X147033487Y-131390501D01*
X147085735Y-131420666D01*
X147147614Y-131456392D01*
X147274908Y-131490500D01*
X147274911Y-131490500D01*
X147406689Y-131490500D01*
X147406692Y-131490500D01*
X147533986Y-131456392D01*
X147616210Y-131408919D01*
X147648111Y-131390502D01*
X147648111Y-131390501D01*
X147648114Y-131390500D01*
X147659013Y-131379600D01*
X147668911Y-131375500D01*
X147674456Y-131375500D01*
X147684355Y-131379601D01*
X147687069Y-131383425D01*
X147689332Y-131388124D01*
X147689333Y-131388125D01*
X147689334Y-131388127D01*
X147760837Y-131445149D01*
X147849999Y-131465499D01*
X147849999Y-131465500D01*
X147850000Y-131465500D01*
X148785850Y-131465500D01*
X148831578Y-131460348D01*
X148913977Y-131420666D01*
X148945792Y-131380770D01*
X148955171Y-131375588D01*
X148956738Y-131375500D01*
X149155350Y-131375500D01*
X149155353Y-131375500D01*
X149238139Y-131353318D01*
X149312362Y-131310465D01*
X149538101Y-131084725D01*
X149548000Y-131080625D01*
X149557899Y-131084725D01*
X149562000Y-131094625D01*
X149562000Y-136955400D01*
X149557899Y-136965299D01*
X149548000Y-136969400D01*
X149477407Y-136969400D01*
X149350117Y-137003507D01*
X149350109Y-137003510D01*
X149235987Y-137069398D01*
X149235984Y-137069400D01*
X149142800Y-137162584D01*
X149142798Y-137162587D01*
X149076910Y-137276709D01*
X149076909Y-137276711D01*
X149076908Y-137276714D01*
X149064032Y-137324765D01*
X149050920Y-137373697D01*
X149044397Y-137382197D01*
X149033773Y-137383596D01*
X149027498Y-137379972D01*
X142437063Y-130789535D01*
X142437060Y-130789533D01*
X142362843Y-130746684D01*
X142362841Y-130746683D01*
X142362839Y-130746682D01*
X142280053Y-130724500D01*
X131325544Y-130724500D01*
X131315645Y-130720399D01*
X131312931Y-130716575D01*
X131310667Y-130711875D01*
X131310666Y-130711874D01*
X131310666Y-130711873D01*
X131239163Y-130654851D01*
X131239161Y-130654850D01*
X131175485Y-130640316D01*
X131166746Y-130634115D01*
X131164600Y-130626667D01*
X131164600Y-129634107D01*
X143450400Y-129634107D01*
X143450400Y-129765892D01*
X143484507Y-129893182D01*
X143484510Y-129893190D01*
X143550397Y-130007311D01*
X143550399Y-130007313D01*
X143550400Y-130007314D01*
X143621299Y-130078213D01*
X143625400Y-130088112D01*
X143625400Y-130263147D01*
X143625400Y-130348853D01*
X143628147Y-130359107D01*
X143647581Y-130431635D01*
X143647584Y-130431643D01*
X143690433Y-130505860D01*
X143690435Y-130505863D01*
X145322572Y-132137999D01*
X146910834Y-133726261D01*
X146910835Y-133726262D01*
X146971437Y-133786864D01*
X146971440Y-133786867D01*
X147014206Y-133811557D01*
X147045662Y-133829718D01*
X147128447Y-133851900D01*
X147128450Y-133851900D01*
X148999850Y-133851900D01*
X148999853Y-133851900D01*
X149082639Y-133829718D01*
X149156862Y-133786865D01*
X149372965Y-133570762D01*
X149415818Y-133496539D01*
X149438000Y-133413753D01*
X149438000Y-133328047D01*
X149438000Y-131957147D01*
X149415818Y-131874362D01*
X149390602Y-131830686D01*
X149372966Y-131800139D01*
X149372964Y-131800136D01*
X149312363Y-131739535D01*
X149312360Y-131739533D01*
X149238142Y-131696684D01*
X149238140Y-131696683D01*
X149238138Y-131696682D01*
X149155353Y-131674500D01*
X148961394Y-131674500D01*
X148951495Y-131670399D01*
X148948781Y-131666575D01*
X148946517Y-131661875D01*
X148946516Y-131661874D01*
X148946516Y-131661873D01*
X148875013Y-131604851D01*
X148875011Y-131604850D01*
X148785850Y-131584500D01*
X147850000Y-131584500D01*
X147849999Y-131584500D01*
X147804273Y-131589651D01*
X147721873Y-131629333D01*
X147664851Y-131700837D01*
X147664850Y-131700838D01*
X147644500Y-131789999D01*
X147644500Y-132210000D01*
X147649651Y-132255727D01*
X147649781Y-132255996D01*
X147649793Y-132256221D01*
X147649978Y-132256861D01*
X147649832Y-132256903D01*
X147650383Y-132266694D01*
X147643243Y-132274684D01*
X147632545Y-132275286D01*
X147630168Y-132274195D01*
X147533890Y-132218610D01*
X147533888Y-132218609D01*
X147533886Y-132218608D01*
X147406592Y-132184500D01*
X147274808Y-132184500D01*
X147274807Y-132184500D01*
X147147517Y-132218607D01*
X147147509Y-132218610D01*
X147033387Y-132284498D01*
X147033384Y-132284500D01*
X146940200Y-132377684D01*
X146940198Y-132377687D01*
X146874310Y-132491809D01*
X146874307Y-132491817D01*
X146840200Y-132619107D01*
X146840200Y-132701175D01*
X146836099Y-132711074D01*
X146826200Y-132715175D01*
X146816301Y-132711074D01*
X146267126Y-132161899D01*
X146263025Y-132152000D01*
X146267126Y-132142101D01*
X146277025Y-132138000D01*
X146281389Y-132138000D01*
X146281392Y-132138000D01*
X146408686Y-132103892D01*
X146522814Y-132038000D01*
X146616000Y-131944814D01*
X146681892Y-131830686D01*
X146716000Y-131703392D01*
X146716000Y-131571608D01*
X146681892Y-131444314D01*
X146655075Y-131397865D01*
X146616001Y-131330187D01*
X146615999Y-131330184D01*
X146545101Y-131259286D01*
X146541000Y-131249387D01*
X146541000Y-117126825D01*
X146545101Y-117116926D01*
X152239715Y-111422313D01*
X153256785Y-110405243D01*
X156546000Y-110405243D01*
X156546000Y-110594756D01*
X156575646Y-110781937D01*
X156634209Y-110962178D01*
X156720245Y-111131030D01*
X156720255Y-111131046D01*
X156812450Y-111257942D01*
X156812452Y-111257942D01*
X157209436Y-110860958D01*
X157245112Y-110914351D01*
X157335649Y-111004888D01*
X157389041Y-111040562D01*
X156992056Y-111437547D01*
X156992056Y-111437548D01*
X157118953Y-111529744D01*
X157118969Y-111529754D01*
X157287821Y-111615790D01*
X157468062Y-111674353D01*
X157655243Y-111704000D01*
X157844757Y-111704000D01*
X158031937Y-111674353D01*
X158212178Y-111615790D01*
X158381030Y-111529754D01*
X158381046Y-111529744D01*
X158507942Y-111437548D01*
X158507942Y-111437546D01*
X158110958Y-111040562D01*
X158164351Y-111004888D01*
X158254888Y-110914351D01*
X158290562Y-110860958D01*
X158687546Y-111257942D01*
X158687548Y-111257942D01*
X158779744Y-111131046D01*
X158779754Y-111131030D01*
X158865790Y-110962178D01*
X158924353Y-110781937D01*
X158954000Y-110594756D01*
X158954000Y-110405243D01*
X158924353Y-110218062D01*
X158865790Y-110037821D01*
X158779754Y-109868969D01*
X158779744Y-109868953D01*
X158687548Y-109742056D01*
X158687547Y-109742056D01*
X158290562Y-110139040D01*
X158254888Y-110085649D01*
X158164351Y-109995112D01*
X158110958Y-109959436D01*
X158507942Y-109562452D01*
X158507942Y-109562450D01*
X158381046Y-109470255D01*
X158381030Y-109470245D01*
X158212178Y-109384209D01*
X158031937Y-109325646D01*
X157844757Y-109296000D01*
X157655243Y-109296000D01*
X157468062Y-109325646D01*
X157287821Y-109384209D01*
X157118969Y-109470245D01*
X157118953Y-109470255D01*
X156992056Y-109562450D01*
X156992056Y-109562451D01*
X157389041Y-109959436D01*
X157335649Y-109995112D01*
X157245112Y-110085649D01*
X157209436Y-110139041D01*
X156812451Y-109742056D01*
X156812450Y-109742056D01*
X156720255Y-109868953D01*
X156720245Y-109868969D01*
X156634209Y-110037821D01*
X156575646Y-110218062D01*
X156546000Y-110405243D01*
X153256785Y-110405243D01*
X154104140Y-109557888D01*
X154260463Y-109401564D01*
X154260464Y-109401563D01*
X154260465Y-109401562D01*
X154302397Y-109328931D01*
X154302399Y-109328930D01*
X154303315Y-109327342D01*
X154303317Y-109327339D01*
X154303318Y-109327338D01*
X154325500Y-109244553D01*
X154325500Y-109094499D01*
X154329601Y-109084600D01*
X154339500Y-109080499D01*
X154475000Y-109080499D01*
X154520728Y-109075347D01*
X154603127Y-109035665D01*
X154660149Y-108964162D01*
X154680500Y-108874999D01*
X154680500Y-108462869D01*
X154675348Y-108417141D01*
X154635666Y-108334742D01*
X154564163Y-108277720D01*
X154564161Y-108277719D01*
X154475000Y-108257369D01*
X153525000Y-108257369D01*
X153524999Y-108257369D01*
X153479273Y-108262520D01*
X153396873Y-108302202D01*
X153339851Y-108373706D01*
X153319500Y-108462868D01*
X153319500Y-108874999D01*
X153324651Y-108920725D01*
X153364333Y-109003125D01*
X153364334Y-109003126D01*
X153435837Y-109060148D01*
X153524999Y-109080498D01*
X153524999Y-109080499D01*
X153525000Y-109080499D01*
X153627076Y-109080499D01*
X153636975Y-109084600D01*
X153641076Y-109094499D01*
X153636975Y-109104398D01*
X145955035Y-116786336D01*
X145955033Y-116786339D01*
X145912183Y-116860557D01*
X145912183Y-116860559D01*
X145912182Y-116860562D01*
X145890000Y-116943346D01*
X145890000Y-131249387D01*
X145885899Y-131259286D01*
X145815000Y-131330184D01*
X145814998Y-131330187D01*
X145749110Y-131444309D01*
X145749107Y-131444317D01*
X145715000Y-131571607D01*
X145715000Y-131575975D01*
X145710899Y-131585874D01*
X145701000Y-131589975D01*
X145691101Y-131585874D01*
X144280501Y-130175274D01*
X144276400Y-130165375D01*
X144276400Y-130088112D01*
X144280501Y-130078213D01*
X144351400Y-130007314D01*
X144417292Y-129893186D01*
X144451400Y-129765892D01*
X144451400Y-129634108D01*
X144417292Y-129506814D01*
X144351400Y-129392686D01*
X144351399Y-129392684D01*
X144280501Y-129321786D01*
X144276400Y-129311887D01*
X144276400Y-111160389D01*
X144280501Y-111150490D01*
X144290400Y-111146389D01*
X144300299Y-111150490D01*
X144301722Y-111152156D01*
X144335352Y-111198444D01*
X144372445Y-111249499D01*
X144372452Y-111249507D01*
X144500492Y-111377547D01*
X144500500Y-111377554D01*
X144646993Y-111483987D01*
X144646997Y-111483989D01*
X144647006Y-111483996D01*
X144727683Y-111525103D01*
X144808358Y-111566210D01*
X144808360Y-111566210D01*
X144808361Y-111566211D01*
X144980591Y-111622171D01*
X145159454Y-111650500D01*
X145340546Y-111650500D01*
X145519409Y-111622171D01*
X145691639Y-111566211D01*
X145852994Y-111483996D01*
X145999501Y-111377553D01*
X146127553Y-111249501D01*
X146233996Y-111102994D01*
X146316211Y-110941639D01*
X146372171Y-110769409D01*
X146400500Y-110590546D01*
X146400500Y-110409454D01*
X146372171Y-110230591D01*
X146316211Y-110058361D01*
X146316210Y-110058360D01*
X146316210Y-110058358D01*
X146297097Y-110020848D01*
X146265387Y-109958615D01*
X146264547Y-109947936D01*
X146267961Y-109942364D01*
X147211827Y-108998500D01*
X147221726Y-108994400D01*
X148351335Y-108994400D01*
X148361234Y-108998501D01*
X148363947Y-109002323D01*
X148364334Y-109003126D01*
X148435837Y-109060148D01*
X148524999Y-109080498D01*
X148524999Y-109080499D01*
X148525000Y-109080499D01*
X149475000Y-109080499D01*
X149520728Y-109075347D01*
X149603127Y-109035665D01*
X149660149Y-108964162D01*
X149680500Y-108874999D01*
X149680500Y-108462869D01*
X149675348Y-108417141D01*
X149635666Y-108334742D01*
X149564163Y-108277720D01*
X149564161Y-108277719D01*
X149475000Y-108257369D01*
X149372856Y-108257369D01*
X149362957Y-108253268D01*
X149358856Y-108243369D01*
X149362957Y-108233470D01*
X149402926Y-108193501D01*
X149412825Y-108189400D01*
X154042850Y-108189400D01*
X154042853Y-108189400D01*
X154125638Y-108167218D01*
X154199862Y-108124365D01*
X154260465Y-108063762D01*
X154303318Y-107989538D01*
X154325500Y-107906753D01*
X154325500Y-107756631D01*
X154329601Y-107746732D01*
X154339500Y-107742631D01*
X154475000Y-107742631D01*
X154520728Y-107737479D01*
X154603127Y-107697797D01*
X154660149Y-107626294D01*
X154680500Y-107537131D01*
X154680500Y-107125001D01*
X154675348Y-107079273D01*
X154635666Y-106996874D01*
X154564163Y-106939852D01*
X154564161Y-106939851D01*
X154475000Y-106919501D01*
X153525000Y-106919501D01*
X153524999Y-106919501D01*
X153479273Y-106924652D01*
X153396873Y-106964334D01*
X153339851Y-107035838D01*
X153339850Y-107035839D01*
X153319500Y-107125000D01*
X153319500Y-107524400D01*
X153315399Y-107534299D01*
X153305500Y-107538400D01*
X149694500Y-107538400D01*
X149684601Y-107534299D01*
X149680500Y-107524400D01*
X149680500Y-107125000D01*
X149675348Y-107079274D01*
X149665471Y-107058765D01*
X149635666Y-106996874D01*
X149564163Y-106939852D01*
X149564161Y-106939851D01*
X149475000Y-106919501D01*
X149339500Y-106919501D01*
X149329601Y-106915400D01*
X149325500Y-106905501D01*
X149325500Y-105405243D01*
X156546000Y-105405243D01*
X156546000Y-105594756D01*
X156575646Y-105781937D01*
X156634209Y-105962178D01*
X156720245Y-106131030D01*
X156720255Y-106131046D01*
X156812450Y-106257942D01*
X156812452Y-106257942D01*
X157209436Y-105860958D01*
X157245112Y-105914351D01*
X157335649Y-106004888D01*
X157389041Y-106040562D01*
X156992056Y-106437547D01*
X156992056Y-106437548D01*
X157118953Y-106529744D01*
X157118969Y-106529754D01*
X157287821Y-106615790D01*
X157468062Y-106674353D01*
X157655243Y-106704000D01*
X157844757Y-106704000D01*
X158031937Y-106674353D01*
X158212178Y-106615790D01*
X158381030Y-106529754D01*
X158381046Y-106529744D01*
X158507942Y-106437548D01*
X158507942Y-106437546D01*
X158110958Y-106040562D01*
X158164351Y-106004888D01*
X158254888Y-105914351D01*
X158290562Y-105860958D01*
X158687546Y-106257942D01*
X158687548Y-106257942D01*
X158779744Y-106131046D01*
X158779754Y-106131030D01*
X158865790Y-105962178D01*
X158924353Y-105781937D01*
X158954000Y-105594756D01*
X158954000Y-105405243D01*
X158924353Y-105218062D01*
X158865790Y-105037821D01*
X158779754Y-104868969D01*
X158779744Y-104868953D01*
X158687548Y-104742056D01*
X158687547Y-104742056D01*
X158290562Y-105139040D01*
X158254888Y-105085649D01*
X158164351Y-104995112D01*
X158110958Y-104959436D01*
X158507942Y-104562452D01*
X158507942Y-104562450D01*
X158381046Y-104470255D01*
X158381030Y-104470245D01*
X158212178Y-104384209D01*
X158031937Y-104325646D01*
X157844757Y-104296000D01*
X157655243Y-104296000D01*
X157468062Y-104325646D01*
X157287821Y-104384209D01*
X157118969Y-104470245D01*
X157118953Y-104470255D01*
X156992056Y-104562450D01*
X156992056Y-104562451D01*
X157389041Y-104959436D01*
X157335649Y-104995112D01*
X157245112Y-105085649D01*
X157209436Y-105139041D01*
X156812451Y-104742056D01*
X156812450Y-104742056D01*
X156720255Y-104868953D01*
X156720245Y-104868969D01*
X156634209Y-105037821D01*
X156575646Y-105218062D01*
X156546000Y-105405243D01*
X149325500Y-105405243D01*
X149325500Y-100044424D01*
X149329600Y-100034526D01*
X162096288Y-87267837D01*
X162106186Y-87263737D01*
X162116085Y-87267838D01*
X162120186Y-87277737D01*
X162120014Y-87279927D01*
X162099500Y-87409453D01*
X162099500Y-87590545D01*
X162127829Y-87769409D01*
X162183789Y-87941641D01*
X162266002Y-88102990D01*
X162266012Y-88103006D01*
X162372445Y-88249499D01*
X162372452Y-88249507D01*
X162500492Y-88377547D01*
X162500500Y-88377554D01*
X162646993Y-88483987D01*
X162646997Y-88483989D01*
X162647006Y-88483996D01*
X162708616Y-88515388D01*
X162808358Y-88566210D01*
X162808360Y-88566210D01*
X162808361Y-88566211D01*
X162980591Y-88622171D01*
X163159454Y-88650500D01*
X163340546Y-88650500D01*
X163519409Y-88622171D01*
X163691639Y-88566211D01*
X163791383Y-88515387D01*
X163802063Y-88514547D01*
X163807636Y-88517963D01*
X165017899Y-89728226D01*
X165022000Y-89738125D01*
X165022000Y-90261874D01*
X165017899Y-90271773D01*
X163807636Y-91482035D01*
X163797737Y-91486136D01*
X163791381Y-91484610D01*
X163691641Y-91433789D01*
X163519409Y-91377829D01*
X163340546Y-91349500D01*
X163159454Y-91349500D01*
X162980590Y-91377829D01*
X162808358Y-91433789D01*
X162647009Y-91516002D01*
X162646993Y-91516012D01*
X162500500Y-91622445D01*
X162500492Y-91622452D01*
X162372452Y-91750492D01*
X162372445Y-91750500D01*
X162266012Y-91896993D01*
X162266002Y-91897009D01*
X162183789Y-92058358D01*
X162127829Y-92230590D01*
X162099500Y-92409454D01*
X162099500Y-92590545D01*
X162127829Y-92769409D01*
X162183789Y-92941641D01*
X162266002Y-93102990D01*
X162266012Y-93103006D01*
X162372445Y-93249499D01*
X162372452Y-93249507D01*
X162500492Y-93377547D01*
X162500500Y-93377554D01*
X162646993Y-93483987D01*
X162646997Y-93483989D01*
X162647006Y-93483996D01*
X162727683Y-93525103D01*
X162808358Y-93566210D01*
X162808360Y-93566210D01*
X162808361Y-93566211D01*
X162980591Y-93622171D01*
X163159454Y-93650500D01*
X163340546Y-93650500D01*
X163519409Y-93622171D01*
X163691639Y-93566211D01*
X163852994Y-93483996D01*
X163999501Y-93377553D01*
X164127553Y-93249501D01*
X164233996Y-93102994D01*
X164316211Y-92941639D01*
X164372171Y-92769409D01*
X164400500Y-92590546D01*
X164400500Y-92409454D01*
X164372171Y-92230591D01*
X164316211Y-92058361D01*
X164316210Y-92058360D01*
X164316210Y-92058358D01*
X164265388Y-91958617D01*
X164264547Y-91947935D01*
X164267959Y-91942366D01*
X165478227Y-90732099D01*
X165488125Y-90728000D01*
X166305500Y-90728000D01*
X166315399Y-90732101D01*
X166319500Y-90742000D01*
X166319500Y-90874999D01*
X166324651Y-90920725D01*
X166364333Y-91003125D01*
X166364334Y-91003126D01*
X166435837Y-91060148D01*
X166524999Y-91080498D01*
X166524999Y-91080499D01*
X166525000Y-91080499D01*
X167475000Y-91080499D01*
X167520728Y-91075347D01*
X167603127Y-91035665D01*
X167660149Y-90964162D01*
X167680500Y-90874999D01*
X167680500Y-90462869D01*
X167675348Y-90417141D01*
X167635666Y-90334742D01*
X167564163Y-90277720D01*
X167564161Y-90277719D01*
X167475000Y-90257369D01*
X167372856Y-90257369D01*
X167362957Y-90253268D01*
X167358856Y-90243369D01*
X167362957Y-90233470D01*
X167402926Y-90193501D01*
X167412825Y-90189400D01*
X172042850Y-90189400D01*
X172042853Y-90189400D01*
X172125638Y-90167218D01*
X172199862Y-90124365D01*
X172260465Y-90063762D01*
X172303318Y-89989538D01*
X172325500Y-89906753D01*
X172325500Y-89756631D01*
X172329601Y-89746732D01*
X172339500Y-89742631D01*
X172475000Y-89742631D01*
X172520728Y-89737479D01*
X172603127Y-89697797D01*
X172660149Y-89626294D01*
X172680500Y-89537131D01*
X172680500Y-89319124D01*
X172684601Y-89309225D01*
X172694500Y-89305124D01*
X172704399Y-89309225D01*
X173189899Y-89794725D01*
X173194000Y-89804624D01*
X173194000Y-101836353D01*
X173216181Y-101919135D01*
X173216184Y-101919143D01*
X173259033Y-101993360D01*
X173259035Y-101993363D01*
X178194699Y-106929026D01*
X178198800Y-106938925D01*
X178198800Y-113133374D01*
X178194699Y-113143273D01*
X166739535Y-124598436D01*
X166739533Y-124598439D01*
X166696683Y-124672657D01*
X166696683Y-124672659D01*
X166696682Y-124672662D01*
X166674500Y-124755446D01*
X166674500Y-124905501D01*
X166670399Y-124915400D01*
X166660500Y-124919501D01*
X166524999Y-124919501D01*
X166479273Y-124924652D01*
X166396873Y-124964334D01*
X166339851Y-125035838D01*
X166339850Y-125035839D01*
X166319500Y-125125000D01*
X166319500Y-125537131D01*
X166324651Y-125582857D01*
X166364333Y-125665257D01*
X166364334Y-125665258D01*
X166435837Y-125722280D01*
X166524999Y-125742630D01*
X166524999Y-125742631D01*
X166525000Y-125742631D01*
X166899344Y-125742631D01*
X166909243Y-125746732D01*
X166913344Y-125756631D01*
X166909243Y-125766530D01*
X166824387Y-125851385D01*
X166739532Y-125936240D01*
X166696681Y-126010460D01*
X166696682Y-126010460D01*
X166696682Y-126010462D01*
X166681633Y-126066624D01*
X166675110Y-126075124D01*
X166668110Y-126077000D01*
X165488125Y-126077000D01*
X165478226Y-126072899D01*
X163885625Y-124480298D01*
X163881524Y-124470399D01*
X163885625Y-124460500D01*
X163887285Y-124459080D01*
X163999501Y-124377553D01*
X164127553Y-124249501D01*
X164233996Y-124102994D01*
X164316211Y-123941639D01*
X164372171Y-123769409D01*
X164400500Y-123590546D01*
X164400500Y-123409454D01*
X164372171Y-123230591D01*
X164316211Y-123058361D01*
X164316210Y-123058360D01*
X164316210Y-123058358D01*
X164247739Y-122923978D01*
X164233996Y-122897006D01*
X164213614Y-122868953D01*
X164127554Y-122750500D01*
X164127547Y-122750492D01*
X163999507Y-122622452D01*
X163999499Y-122622445D01*
X163853006Y-122516012D01*
X163852998Y-122516007D01*
X163852994Y-122516004D01*
X163847172Y-122513037D01*
X163691641Y-122433789D01*
X163519409Y-122377829D01*
X163340546Y-122349500D01*
X163159454Y-122349500D01*
X162980590Y-122377829D01*
X162808358Y-122433789D01*
X162647009Y-122516002D01*
X162646993Y-122516012D01*
X162500500Y-122622445D01*
X162500492Y-122622452D01*
X162372452Y-122750492D01*
X162372445Y-122750500D01*
X162266012Y-122896993D01*
X162266002Y-122897009D01*
X162183789Y-123058358D01*
X162127829Y-123230590D01*
X162099500Y-123409454D01*
X162099500Y-123590545D01*
X162127829Y-123769409D01*
X162183789Y-123941641D01*
X162266002Y-124102990D01*
X162266012Y-124103006D01*
X162372445Y-124249499D01*
X162372452Y-124249507D01*
X162500492Y-124377547D01*
X162500500Y-124377554D01*
X162646993Y-124483987D01*
X162646997Y-124483989D01*
X162647006Y-124483996D01*
X162708616Y-124515388D01*
X162808358Y-124566210D01*
X162808360Y-124566210D01*
X162808361Y-124566211D01*
X162980591Y-124622171D01*
X163126112Y-124645218D01*
X163133820Y-124649147D01*
X164877273Y-126392600D01*
X164881374Y-126402499D01*
X164877273Y-126412398D01*
X163807636Y-127482035D01*
X163797737Y-127486136D01*
X163791381Y-127484610D01*
X163691641Y-127433789D01*
X163519409Y-127377829D01*
X163340546Y-127349500D01*
X163159454Y-127349500D01*
X162980590Y-127377829D01*
X162808358Y-127433789D01*
X162647009Y-127516002D01*
X162646993Y-127516012D01*
X162500500Y-127622445D01*
X162500492Y-127622452D01*
X162372452Y-127750492D01*
X162372445Y-127750500D01*
X162266012Y-127896993D01*
X162266002Y-127897009D01*
X162183789Y-128058358D01*
X162127829Y-128230590D01*
X162099500Y-128409454D01*
X162099500Y-128590545D01*
X162127829Y-128769409D01*
X162183789Y-128941641D01*
X162266002Y-129102990D01*
X162266012Y-129103006D01*
X162372445Y-129249499D01*
X162372452Y-129249507D01*
X162500492Y-129377547D01*
X162500500Y-129377554D01*
X162646993Y-129483987D01*
X162646997Y-129483989D01*
X162647006Y-129483996D01*
X162727683Y-129525103D01*
X162808358Y-129566210D01*
X162808360Y-129566210D01*
X162808361Y-129566211D01*
X162980591Y-129622171D01*
X163159454Y-129650500D01*
X163340546Y-129650500D01*
X163519409Y-129622171D01*
X163691639Y-129566211D01*
X163852994Y-129483996D01*
X163999501Y-129377553D01*
X164127553Y-129249501D01*
X164233996Y-129102994D01*
X164316211Y-128941639D01*
X164372171Y-128769409D01*
X164400500Y-128590546D01*
X164400500Y-128409454D01*
X164372171Y-128230591D01*
X164316211Y-128058361D01*
X164316210Y-128058360D01*
X164316210Y-128058358D01*
X164265388Y-127958617D01*
X164264547Y-127947935D01*
X164267959Y-127942366D01*
X165478227Y-126732099D01*
X165488125Y-126728000D01*
X166305500Y-126728000D01*
X166315399Y-126732101D01*
X166319500Y-126742000D01*
X166319500Y-126874999D01*
X166324651Y-126920725D01*
X166364333Y-127003125D01*
X166364334Y-127003126D01*
X166435837Y-127060148D01*
X166524999Y-127080498D01*
X166524999Y-127080499D01*
X166525000Y-127080499D01*
X167475000Y-127080499D01*
X167520728Y-127075347D01*
X167603127Y-127035665D01*
X167660149Y-126964162D01*
X167680500Y-126874999D01*
X167680500Y-126462869D01*
X167675348Y-126417141D01*
X167635666Y-126334742D01*
X167564163Y-126277720D01*
X167564161Y-126277719D01*
X167475000Y-126257369D01*
X167372856Y-126257369D01*
X167362957Y-126253268D01*
X167358856Y-126243369D01*
X167362957Y-126233470D01*
X167402926Y-126193501D01*
X167412825Y-126189400D01*
X172042850Y-126189400D01*
X172042853Y-126189400D01*
X172125638Y-126167218D01*
X172199862Y-126124365D01*
X172260465Y-126063762D01*
X172303318Y-125989538D01*
X172325500Y-125906753D01*
X172325500Y-125756631D01*
X172329601Y-125746732D01*
X172339500Y-125742631D01*
X172475000Y-125742631D01*
X172520728Y-125737479D01*
X172603127Y-125697797D01*
X172660149Y-125626294D01*
X172680500Y-125537131D01*
X172680500Y-125125001D01*
X172675348Y-125079273D01*
X172635666Y-124996874D01*
X172564163Y-124939852D01*
X172564161Y-124939851D01*
X172475000Y-124919501D01*
X171525000Y-124919501D01*
X171524999Y-124919501D01*
X171479273Y-124924652D01*
X171396873Y-124964334D01*
X171339851Y-125035838D01*
X171339850Y-125035839D01*
X171319500Y-125125000D01*
X171319500Y-125524400D01*
X171315399Y-125534299D01*
X171305500Y-125538400D01*
X167694500Y-125538400D01*
X167684601Y-125534299D01*
X167680500Y-125524400D01*
X167680500Y-125125000D01*
X167675348Y-125079274D01*
X167671188Y-125070636D01*
X167635666Y-124996874D01*
X167564163Y-124939852D01*
X167564161Y-124939851D01*
X167475000Y-124919501D01*
X167372924Y-124919501D01*
X167363025Y-124915400D01*
X167358924Y-124905501D01*
X167363025Y-124895602D01*
X178784763Y-113473864D01*
X178784765Y-113473862D01*
X178826697Y-113401231D01*
X178826699Y-113401230D01*
X178827146Y-113400453D01*
X178827617Y-113399639D01*
X178827618Y-113399638D01*
X178849800Y-113316853D01*
X178849800Y-107137800D01*
X178853901Y-107127901D01*
X178863800Y-107123800D01*
X184305500Y-107123800D01*
X184315399Y-107127901D01*
X184319500Y-107137800D01*
X184319500Y-107537131D01*
X184324651Y-107582857D01*
X184364333Y-107665257D01*
X184364334Y-107665258D01*
X184435837Y-107722280D01*
X184524999Y-107742630D01*
X184524999Y-107742631D01*
X184525000Y-107742631D01*
X185475000Y-107742631D01*
X185520728Y-107737479D01*
X185603127Y-107697797D01*
X185660149Y-107626294D01*
X185680500Y-107537131D01*
X185680500Y-107125001D01*
X185675348Y-107079273D01*
X185635666Y-106996874D01*
X185564163Y-106939852D01*
X185564161Y-106939851D01*
X185475000Y-106919501D01*
X185339500Y-106919501D01*
X185329601Y-106915400D01*
X185325500Y-106905501D01*
X185325500Y-106755450D01*
X185325500Y-106755447D01*
X185303318Y-106672662D01*
X185270483Y-106615790D01*
X185260466Y-106598439D01*
X185260464Y-106598436D01*
X185199863Y-106537835D01*
X185199860Y-106537833D01*
X185125642Y-106494984D01*
X185125640Y-106494983D01*
X185125638Y-106494982D01*
X185042853Y-106472800D01*
X181911492Y-106472800D01*
X181901593Y-106468699D01*
X181897492Y-106458800D01*
X181901593Y-106448901D01*
X181903263Y-106447474D01*
X181939858Y-106420886D01*
X181948066Y-106414921D01*
X181999501Y-106377553D01*
X182127553Y-106249501D01*
X182233996Y-106102994D01*
X182316211Y-105941639D01*
X182372171Y-105769409D01*
X182400500Y-105590546D01*
X182400500Y-105409454D01*
X182399833Y-105405243D01*
X192546000Y-105405243D01*
X192546000Y-105594756D01*
X192575646Y-105781937D01*
X192634209Y-105962178D01*
X192720245Y-106131030D01*
X192720255Y-106131046D01*
X192812450Y-106257942D01*
X192812452Y-106257942D01*
X193209436Y-105860958D01*
X193245112Y-105914351D01*
X193335649Y-106004888D01*
X193389041Y-106040562D01*
X192992056Y-106437547D01*
X192992056Y-106437548D01*
X193118953Y-106529744D01*
X193118969Y-106529754D01*
X193287821Y-106615790D01*
X193468062Y-106674353D01*
X193655243Y-106704000D01*
X193844757Y-106704000D01*
X194031937Y-106674353D01*
X194212178Y-106615790D01*
X194381030Y-106529754D01*
X194381046Y-106529744D01*
X194507942Y-106437548D01*
X194507942Y-106437546D01*
X194110958Y-106040562D01*
X194164351Y-106004888D01*
X194254888Y-105914351D01*
X194290562Y-105860958D01*
X194687546Y-106257942D01*
X194687548Y-106257942D01*
X194779744Y-106131046D01*
X194779754Y-106131030D01*
X194865790Y-105962178D01*
X194924353Y-105781937D01*
X194954000Y-105594756D01*
X194954000Y-105405243D01*
X194924353Y-105218062D01*
X194865790Y-105037821D01*
X194779754Y-104868969D01*
X194779744Y-104868953D01*
X194687548Y-104742056D01*
X194687547Y-104742056D01*
X194290562Y-105139040D01*
X194254888Y-105085649D01*
X194164351Y-104995112D01*
X194110958Y-104959436D01*
X194507942Y-104562452D01*
X194507942Y-104562450D01*
X194381046Y-104470255D01*
X194381030Y-104470245D01*
X194212178Y-104384209D01*
X194031937Y-104325646D01*
X193844757Y-104296000D01*
X193655243Y-104296000D01*
X193468062Y-104325646D01*
X193287821Y-104384209D01*
X193118969Y-104470245D01*
X193118953Y-104470255D01*
X192992056Y-104562450D01*
X192992056Y-104562451D01*
X193389041Y-104959436D01*
X193335649Y-104995112D01*
X193245112Y-105085649D01*
X193209436Y-105139041D01*
X192812451Y-104742056D01*
X192812450Y-104742056D01*
X192720255Y-104868953D01*
X192720245Y-104868969D01*
X192634209Y-105037821D01*
X192575646Y-105218062D01*
X192546000Y-105405243D01*
X182399833Y-105405243D01*
X182372171Y-105230591D01*
X182316211Y-105058361D01*
X182316210Y-105058360D01*
X182316210Y-105058358D01*
X182247739Y-104923978D01*
X182233996Y-104897006D01*
X182213614Y-104868953D01*
X182127554Y-104750500D01*
X182127547Y-104750492D01*
X181999507Y-104622452D01*
X181999499Y-104622445D01*
X181939857Y-104579113D01*
X181853006Y-104516012D01*
X181852998Y-104516007D01*
X181852994Y-104516004D01*
X181847172Y-104513037D01*
X181691641Y-104433789D01*
X181519409Y-104377829D01*
X181340546Y-104349500D01*
X181159454Y-104349500D01*
X180980590Y-104377829D01*
X180808358Y-104433789D01*
X180647009Y-104516002D01*
X180646993Y-104516012D01*
X180500500Y-104622445D01*
X180500492Y-104622452D01*
X180372452Y-104750492D01*
X180372445Y-104750500D01*
X180266012Y-104896993D01*
X180266002Y-104897009D01*
X180183789Y-105058358D01*
X180127829Y-105230590D01*
X180099500Y-105409454D01*
X180099500Y-105590545D01*
X180127829Y-105769409D01*
X180183789Y-105941641D01*
X180266002Y-106102990D01*
X180266012Y-106103006D01*
X180372445Y-106249499D01*
X180372452Y-106249507D01*
X180500492Y-106377547D01*
X180500500Y-106377554D01*
X180596737Y-106447474D01*
X180602336Y-106456610D01*
X180599834Y-106467029D01*
X180590698Y-106472628D01*
X180588508Y-106472800D01*
X178664925Y-106472800D01*
X178655026Y-106468699D01*
X173849101Y-101662774D01*
X173845000Y-101652875D01*
X173845000Y-92405243D01*
X174546000Y-92405243D01*
X174546000Y-92594756D01*
X174575646Y-92781937D01*
X174634209Y-92962178D01*
X174720245Y-93131030D01*
X174720255Y-93131046D01*
X174812450Y-93257942D01*
X174812452Y-93257942D01*
X175209436Y-92860958D01*
X175245112Y-92914351D01*
X175335649Y-93004888D01*
X175389041Y-93040562D01*
X174992056Y-93437547D01*
X174992056Y-93437548D01*
X175118953Y-93529744D01*
X175118969Y-93529754D01*
X175287821Y-93615790D01*
X175468062Y-93674353D01*
X175655243Y-93704000D01*
X175844757Y-93704000D01*
X176031937Y-93674353D01*
X176212178Y-93615790D01*
X176381030Y-93529754D01*
X176381046Y-93529744D01*
X176507942Y-93437548D01*
X176507942Y-93437546D01*
X176110958Y-93040562D01*
X176164351Y-93004888D01*
X176254888Y-92914351D01*
X176290562Y-92860958D01*
X176687546Y-93257942D01*
X176687548Y-93257942D01*
X176779744Y-93131046D01*
X176779754Y-93131030D01*
X176865790Y-92962178D01*
X176924353Y-92781937D01*
X176954000Y-92594756D01*
X176954000Y-92405243D01*
X176924353Y-92218062D01*
X176865790Y-92037821D01*
X176779754Y-91868969D01*
X176779744Y-91868953D01*
X176687548Y-91742056D01*
X176687547Y-91742056D01*
X176290562Y-92139040D01*
X176254888Y-92085649D01*
X176164351Y-91995112D01*
X176110958Y-91959436D01*
X176507942Y-91562452D01*
X176507942Y-91562450D01*
X176381046Y-91470255D01*
X176381030Y-91470245D01*
X176212178Y-91384209D01*
X176031937Y-91325646D01*
X175844757Y-91296000D01*
X175655243Y-91296000D01*
X175468062Y-91325646D01*
X175287821Y-91384209D01*
X175118969Y-91470245D01*
X175118953Y-91470255D01*
X174992056Y-91562450D01*
X174992056Y-91562451D01*
X175389041Y-91959436D01*
X175335649Y-91995112D01*
X175245112Y-92085649D01*
X175209436Y-92139041D01*
X174812451Y-91742056D01*
X174812450Y-91742056D01*
X174720255Y-91868953D01*
X174720245Y-91868969D01*
X174634209Y-92037821D01*
X174575646Y-92218062D01*
X174546000Y-92405243D01*
X173845000Y-92405243D01*
X173845000Y-89707988D01*
X173845001Y-89707975D01*
X173845001Y-89621150D01*
X173845001Y-89621147D01*
X173822818Y-89538361D01*
X173784424Y-89471862D01*
X173779965Y-89464138D01*
X173779962Y-89464135D01*
X173779960Y-89464132D01*
X173718890Y-89403062D01*
X173718867Y-89403041D01*
X172853659Y-88537832D01*
X172779443Y-88494984D01*
X172779441Y-88494983D01*
X172779439Y-88494982D01*
X172696653Y-88472800D01*
X167042853Y-88472800D01*
X166957147Y-88472800D01*
X166957146Y-88472800D01*
X166894981Y-88489456D01*
X166884358Y-88488057D01*
X166881459Y-88485832D01*
X165810219Y-87414592D01*
X165800870Y-87405243D01*
X174546000Y-87405243D01*
X174546000Y-87594756D01*
X174575646Y-87781937D01*
X174634209Y-87962178D01*
X174720245Y-88131030D01*
X174720255Y-88131046D01*
X174812450Y-88257942D01*
X174812452Y-88257942D01*
X175209436Y-87860958D01*
X175245112Y-87914351D01*
X175335649Y-88004888D01*
X175389041Y-88040562D01*
X174992056Y-88437547D01*
X174992056Y-88437548D01*
X175118953Y-88529744D01*
X175118969Y-88529754D01*
X175287821Y-88615790D01*
X175468062Y-88674353D01*
X175655243Y-88704000D01*
X175844757Y-88704000D01*
X176031937Y-88674353D01*
X176212178Y-88615790D01*
X176381030Y-88529754D01*
X176381046Y-88529744D01*
X176507942Y-88437548D01*
X176507942Y-88437546D01*
X176110958Y-88040562D01*
X176164351Y-88004888D01*
X176254888Y-87914351D01*
X176290562Y-87860958D01*
X176687546Y-88257942D01*
X176687548Y-88257942D01*
X176779744Y-88131046D01*
X176779754Y-88131030D01*
X176865790Y-87962178D01*
X176924353Y-87781937D01*
X176954000Y-87594756D01*
X176954000Y-87405243D01*
X176924353Y-87218062D01*
X176865790Y-87037821D01*
X176779754Y-86868969D01*
X176779744Y-86868953D01*
X176687548Y-86742056D01*
X176687547Y-86742056D01*
X176290562Y-87139040D01*
X176254888Y-87085649D01*
X176164351Y-86995112D01*
X176110958Y-86959436D01*
X176507942Y-86562452D01*
X176507942Y-86562450D01*
X176381046Y-86470255D01*
X176381030Y-86470245D01*
X176212178Y-86384209D01*
X176031937Y-86325646D01*
X175844757Y-86296000D01*
X175655243Y-86296000D01*
X175468062Y-86325646D01*
X175287821Y-86384209D01*
X175118969Y-86470245D01*
X175118953Y-86470255D01*
X174992056Y-86562450D01*
X174992056Y-86562451D01*
X175389041Y-86959436D01*
X175335649Y-86995112D01*
X175245112Y-87085649D01*
X175209436Y-87139041D01*
X174812451Y-86742056D01*
X174812450Y-86742056D01*
X174720255Y-86868953D01*
X174720245Y-86868969D01*
X174634209Y-87037821D01*
X174575646Y-87218062D01*
X174546000Y-87405243D01*
X165800870Y-87405243D01*
X164973313Y-86577686D01*
X164973312Y-86577684D01*
X164276863Y-85881235D01*
X164276860Y-85881233D01*
X164202643Y-85838384D01*
X164202641Y-85838383D01*
X164202639Y-85838382D01*
X164119853Y-85816200D01*
X162719247Y-85816200D01*
X162719246Y-85816200D01*
X162636465Y-85838381D01*
X162636457Y-85838384D01*
X162562239Y-85881233D01*
X162562236Y-85881235D01*
X148739535Y-99703936D01*
X148739533Y-99703939D01*
X148696683Y-99778157D01*
X148696683Y-99778159D01*
X148696682Y-99778162D01*
X148674500Y-99860946D01*
X148674500Y-106905501D01*
X148670399Y-106915400D01*
X148660500Y-106919501D01*
X148524999Y-106919501D01*
X148479273Y-106924652D01*
X148396873Y-106964334D01*
X148368169Y-107000329D01*
X148358790Y-107005512D01*
X148357223Y-107005600D01*
X146564946Y-107005600D01*
X146482164Y-107027781D01*
X146482156Y-107027784D01*
X146407939Y-107070633D01*
X146407936Y-107070635D01*
X143690435Y-109788136D01*
X143690433Y-109788139D01*
X143647583Y-109862357D01*
X143647583Y-109862359D01*
X143647582Y-109862362D01*
X143625400Y-109945146D01*
X143625400Y-129311887D01*
X143621299Y-129321786D01*
X143550400Y-129392684D01*
X143550398Y-129392687D01*
X143484510Y-129506809D01*
X143484507Y-129506817D01*
X143450400Y-129634107D01*
X131164600Y-129634107D01*
X131164600Y-110405243D01*
X132546000Y-110405243D01*
X132546000Y-110594756D01*
X132575646Y-110781937D01*
X132634209Y-110962178D01*
X132720245Y-111131030D01*
X132720255Y-111131046D01*
X132812450Y-111257942D01*
X132812452Y-111257942D01*
X133209436Y-110860958D01*
X133245112Y-110914351D01*
X133335649Y-111004888D01*
X133389041Y-111040562D01*
X132992056Y-111437547D01*
X132992056Y-111437548D01*
X133118953Y-111529744D01*
X133118969Y-111529754D01*
X133287821Y-111615790D01*
X133468062Y-111674353D01*
X133655243Y-111704000D01*
X133844757Y-111704000D01*
X134031937Y-111674353D01*
X134212178Y-111615790D01*
X134381030Y-111529754D01*
X134381046Y-111529744D01*
X134507942Y-111437548D01*
X134507942Y-111437546D01*
X134110958Y-111040562D01*
X134164351Y-111004888D01*
X134254888Y-110914351D01*
X134290562Y-110860958D01*
X134687546Y-111257942D01*
X134687548Y-111257942D01*
X134779744Y-111131046D01*
X134779754Y-111131030D01*
X134865790Y-110962178D01*
X134924353Y-110781937D01*
X134954000Y-110594756D01*
X134954000Y-110405243D01*
X134924353Y-110218062D01*
X134865790Y-110037821D01*
X134779754Y-109868969D01*
X134779744Y-109868953D01*
X134687548Y-109742056D01*
X134687547Y-109742056D01*
X134290562Y-110139040D01*
X134254888Y-110085649D01*
X134164351Y-109995112D01*
X134110958Y-109959436D01*
X134507942Y-109562452D01*
X134507942Y-109562450D01*
X134381046Y-109470255D01*
X134381030Y-109470245D01*
X134212178Y-109384209D01*
X134031937Y-109325646D01*
X133844757Y-109296000D01*
X133655243Y-109296000D01*
X133468062Y-109325646D01*
X133287821Y-109384209D01*
X133118969Y-109470245D01*
X133118953Y-109470255D01*
X132992056Y-109562450D01*
X132992056Y-109562451D01*
X133389041Y-109959436D01*
X133335649Y-109995112D01*
X133245112Y-110085649D01*
X133209436Y-110139041D01*
X132812451Y-109742056D01*
X132812450Y-109742056D01*
X132720255Y-109868953D01*
X132720245Y-109868969D01*
X132634209Y-110037821D01*
X132575646Y-110218062D01*
X132546000Y-110405243D01*
X131164600Y-110405243D01*
X131164600Y-107035088D01*
X131164601Y-107035075D01*
X131164601Y-106948250D01*
X131164601Y-106948247D01*
X131142418Y-106865461D01*
X131120991Y-106828350D01*
X131099565Y-106791238D01*
X131099564Y-106791237D01*
X131099563Y-106791235D01*
X131038485Y-106730157D01*
X131038462Y-106730136D01*
X129713569Y-105405243D01*
X132546000Y-105405243D01*
X132546000Y-105594756D01*
X132575646Y-105781937D01*
X132634209Y-105962178D01*
X132720245Y-106131030D01*
X132720255Y-106131046D01*
X132812450Y-106257942D01*
X132812452Y-106257942D01*
X133209436Y-105860958D01*
X133245112Y-105914351D01*
X133335649Y-106004888D01*
X133389041Y-106040562D01*
X132992056Y-106437547D01*
X132992056Y-106437548D01*
X133118953Y-106529744D01*
X133118969Y-106529754D01*
X133287821Y-106615790D01*
X133468062Y-106674353D01*
X133655243Y-106704000D01*
X133844757Y-106704000D01*
X134031937Y-106674353D01*
X134212178Y-106615790D01*
X134381030Y-106529754D01*
X134381046Y-106529744D01*
X134507942Y-106437548D01*
X134507942Y-106437546D01*
X134110958Y-106040562D01*
X134164351Y-106004888D01*
X134254888Y-105914351D01*
X134290562Y-105860958D01*
X134687546Y-106257942D01*
X134687548Y-106257942D01*
X134779744Y-106131046D01*
X134779754Y-106131030D01*
X134865790Y-105962178D01*
X134924353Y-105781937D01*
X134954000Y-105594756D01*
X134954000Y-105409454D01*
X144099500Y-105409454D01*
X144099500Y-105590545D01*
X144127829Y-105769409D01*
X144183789Y-105941641D01*
X144266002Y-106102990D01*
X144266012Y-106103006D01*
X144372445Y-106249499D01*
X144372452Y-106249507D01*
X144500492Y-106377547D01*
X144500500Y-106377554D01*
X144646993Y-106483987D01*
X144646997Y-106483989D01*
X144647006Y-106483996D01*
X144727683Y-106525103D01*
X144808358Y-106566210D01*
X144808360Y-106566210D01*
X144808361Y-106566211D01*
X144980591Y-106622171D01*
X145159454Y-106650500D01*
X145340546Y-106650500D01*
X145519409Y-106622171D01*
X145691639Y-106566211D01*
X145852994Y-106483996D01*
X145999501Y-106377553D01*
X146127553Y-106249501D01*
X146233996Y-106102994D01*
X146316211Y-105941639D01*
X146372171Y-105769409D01*
X146400500Y-105590546D01*
X146400500Y-105409454D01*
X146372171Y-105230591D01*
X146316211Y-105058361D01*
X146316210Y-105058360D01*
X146316210Y-105058358D01*
X146247739Y-104923978D01*
X146233996Y-104897006D01*
X146213614Y-104868953D01*
X146127554Y-104750500D01*
X146127547Y-104750492D01*
X145999507Y-104622452D01*
X145999499Y-104622445D01*
X145853006Y-104516012D01*
X145852998Y-104516007D01*
X145852994Y-104516004D01*
X145847172Y-104513037D01*
X145691641Y-104433789D01*
X145519409Y-104377829D01*
X145340546Y-104349500D01*
X145159454Y-104349500D01*
X144980590Y-104377829D01*
X144808358Y-104433789D01*
X144647009Y-104516002D01*
X144646993Y-104516012D01*
X144500500Y-104622445D01*
X144500492Y-104622452D01*
X144372452Y-104750492D01*
X144372445Y-104750500D01*
X144266012Y-104896993D01*
X144266002Y-104897009D01*
X144183789Y-105058358D01*
X144127829Y-105230590D01*
X144099500Y-105409454D01*
X134954000Y-105409454D01*
X134954000Y-105405243D01*
X134924353Y-105218062D01*
X134865790Y-105037821D01*
X134779754Y-104868969D01*
X134779744Y-104868953D01*
X134687548Y-104742056D01*
X134687547Y-104742056D01*
X134290562Y-105139040D01*
X134254888Y-105085649D01*
X134164351Y-104995112D01*
X134110958Y-104959436D01*
X134507942Y-104562452D01*
X134507942Y-104562450D01*
X134381046Y-104470255D01*
X134381030Y-104470245D01*
X134212178Y-104384209D01*
X134031937Y-104325646D01*
X133844757Y-104296000D01*
X133655243Y-104296000D01*
X133468062Y-104325646D01*
X133287821Y-104384209D01*
X133118969Y-104470245D01*
X133118953Y-104470255D01*
X132992056Y-104562450D01*
X132992056Y-104562451D01*
X133389041Y-104959436D01*
X133335649Y-104995112D01*
X133245112Y-105085649D01*
X133209436Y-105139041D01*
X132812451Y-104742056D01*
X132812450Y-104742056D01*
X132720255Y-104868953D01*
X132720245Y-104868969D01*
X132634209Y-105037821D01*
X132575646Y-105218062D01*
X132546000Y-105405243D01*
X129713569Y-105405243D01*
X128886012Y-104577686D01*
X119216963Y-94908635D01*
X119216960Y-94908633D01*
X119142743Y-94865784D01*
X119142741Y-94865783D01*
X119142739Y-94865782D01*
X119059953Y-94843600D01*
X116108025Y-94843600D01*
X116098126Y-94839499D01*
X113663870Y-92405243D01*
X114546000Y-92405243D01*
X114546000Y-92594756D01*
X114575646Y-92781937D01*
X114634209Y-92962178D01*
X114720245Y-93131030D01*
X114720255Y-93131046D01*
X114812450Y-93257942D01*
X114812452Y-93257942D01*
X115209436Y-92860958D01*
X115245112Y-92914351D01*
X115335649Y-93004888D01*
X115389041Y-93040562D01*
X114992056Y-93437547D01*
X114992056Y-93437548D01*
X115118953Y-93529744D01*
X115118969Y-93529754D01*
X115287821Y-93615790D01*
X115468062Y-93674353D01*
X115655243Y-93704000D01*
X115844757Y-93704000D01*
X116031937Y-93674353D01*
X116212178Y-93615790D01*
X116381030Y-93529754D01*
X116381046Y-93529744D01*
X116507942Y-93437548D01*
X116507942Y-93437546D01*
X116110958Y-93040562D01*
X116164351Y-93004888D01*
X116254888Y-92914351D01*
X116290562Y-92860958D01*
X116687546Y-93257942D01*
X116687548Y-93257942D01*
X116779744Y-93131046D01*
X116779754Y-93131030D01*
X116865790Y-92962178D01*
X116924353Y-92781937D01*
X116954000Y-92594756D01*
X116954000Y-92405243D01*
X116924353Y-92218062D01*
X116865790Y-92037821D01*
X116779754Y-91868969D01*
X116779744Y-91868953D01*
X116687548Y-91742056D01*
X116687547Y-91742056D01*
X116290562Y-92139040D01*
X116254888Y-92085649D01*
X116164351Y-91995112D01*
X116110958Y-91959436D01*
X116507942Y-91562452D01*
X116507942Y-91562450D01*
X116381046Y-91470255D01*
X116381030Y-91470245D01*
X116212178Y-91384209D01*
X116031937Y-91325646D01*
X115844757Y-91296000D01*
X115655243Y-91296000D01*
X115468062Y-91325646D01*
X115287821Y-91384209D01*
X115118969Y-91470245D01*
X115118953Y-91470255D01*
X114992056Y-91562450D01*
X114992056Y-91562451D01*
X115389041Y-91959436D01*
X115335649Y-91995112D01*
X115245112Y-92085649D01*
X115209436Y-92139041D01*
X114812451Y-91742056D01*
X114812450Y-91742056D01*
X114720255Y-91868953D01*
X114720245Y-91868969D01*
X114634209Y-92037821D01*
X114575646Y-92218062D01*
X114546000Y-92405243D01*
X113663870Y-92405243D01*
X112363025Y-91104398D01*
X112358924Y-91094499D01*
X112363025Y-91084600D01*
X112372924Y-91080499D01*
X112475000Y-91080499D01*
X112520728Y-91075347D01*
X112603127Y-91035665D01*
X112660149Y-90964162D01*
X112680500Y-90874999D01*
X112680500Y-90462869D01*
X112675348Y-90417141D01*
X112635666Y-90334742D01*
X112564163Y-90277720D01*
X112564161Y-90277719D01*
X112475000Y-90257369D01*
X111525000Y-90257369D01*
X111524999Y-90257369D01*
X111479273Y-90262520D01*
X111396873Y-90302202D01*
X111339851Y-90373706D01*
X111319500Y-90462868D01*
X111319500Y-90874999D01*
X111324651Y-90920725D01*
X111364333Y-91003125D01*
X111364334Y-91003126D01*
X111435837Y-91060148D01*
X111524999Y-91080498D01*
X111524999Y-91080499D01*
X111525000Y-91080499D01*
X111660500Y-91080499D01*
X111670399Y-91084600D01*
X111674500Y-91094499D01*
X111674500Y-91244553D01*
X111696681Y-91327335D01*
X111696684Y-91327343D01*
X111739533Y-91401560D01*
X111739535Y-91401563D01*
X115767536Y-95429564D01*
X115767539Y-95429566D01*
X115826074Y-95463361D01*
X115841761Y-95472418D01*
X115924547Y-95494600D01*
X118876475Y-95494600D01*
X118886374Y-95498701D01*
X130283276Y-106895602D01*
X130287377Y-106905501D01*
X130283276Y-106915400D01*
X130273377Y-106919501D01*
X129524999Y-106919501D01*
X129479273Y-106924652D01*
X129396873Y-106964334D01*
X129339851Y-107035838D01*
X129339850Y-107035839D01*
X129319500Y-107125000D01*
X129319500Y-107524400D01*
X129315399Y-107534299D01*
X129305500Y-107538400D01*
X125694500Y-107538400D01*
X125684601Y-107534299D01*
X125680500Y-107524400D01*
X125680500Y-107125000D01*
X125675348Y-107079274D01*
X125665471Y-107058765D01*
X125635666Y-106996874D01*
X125564163Y-106939852D01*
X125564161Y-106939851D01*
X125475000Y-106919501D01*
X124525000Y-106919501D01*
X124524999Y-106919501D01*
X124479273Y-106924652D01*
X124396873Y-106964334D01*
X124368169Y-107000329D01*
X124358790Y-107005512D01*
X124357223Y-107005600D01*
X121764146Y-107005600D01*
X121681364Y-107027781D01*
X121681356Y-107027784D01*
X121607139Y-107070633D01*
X121607136Y-107070635D01*
X119070874Y-109606899D01*
X119060975Y-109611000D01*
X119019825Y-109611000D01*
X119009926Y-109606899D01*
X114812481Y-105409454D01*
X120099500Y-105409454D01*
X120099500Y-105590545D01*
X120127829Y-105769409D01*
X120183789Y-105941641D01*
X120266002Y-106102990D01*
X120266012Y-106103006D01*
X120372445Y-106249499D01*
X120372452Y-106249507D01*
X120500492Y-106377547D01*
X120500500Y-106377554D01*
X120646993Y-106483987D01*
X120646997Y-106483989D01*
X120647006Y-106483996D01*
X120727683Y-106525103D01*
X120808358Y-106566210D01*
X120808360Y-106566210D01*
X120808361Y-106566211D01*
X120980591Y-106622171D01*
X121159454Y-106650500D01*
X121340546Y-106650500D01*
X121519409Y-106622171D01*
X121691639Y-106566211D01*
X121852994Y-106483996D01*
X121999501Y-106377553D01*
X122127553Y-106249501D01*
X122233996Y-106102994D01*
X122316211Y-105941639D01*
X122372171Y-105769409D01*
X122400500Y-105590546D01*
X122400500Y-105409454D01*
X122372171Y-105230591D01*
X122316211Y-105058361D01*
X122316210Y-105058360D01*
X122316210Y-105058358D01*
X122247739Y-104923978D01*
X122233996Y-104897006D01*
X122213614Y-104868953D01*
X122127554Y-104750500D01*
X122127547Y-104750492D01*
X121999507Y-104622452D01*
X121999499Y-104622445D01*
X121853006Y-104516012D01*
X121852998Y-104516007D01*
X121852994Y-104516004D01*
X121847172Y-104513037D01*
X121691641Y-104433789D01*
X121519409Y-104377829D01*
X121340546Y-104349500D01*
X121159454Y-104349500D01*
X120980590Y-104377829D01*
X120808358Y-104433789D01*
X120647009Y-104516002D01*
X120646993Y-104516012D01*
X120500500Y-104622445D01*
X120500492Y-104622452D01*
X120372452Y-104750492D01*
X120372445Y-104750500D01*
X120266012Y-104896993D01*
X120266002Y-104897009D01*
X120183789Y-105058358D01*
X120127829Y-105230590D01*
X120099500Y-105409454D01*
X114812481Y-105409454D01*
X103064059Y-93661032D01*
X103059958Y-93651133D01*
X103064059Y-93641234D01*
X103073958Y-93637133D01*
X103076143Y-93637304D01*
X103159454Y-93650500D01*
X103340546Y-93650500D01*
X103519409Y-93622171D01*
X103691639Y-93566211D01*
X103852994Y-93483996D01*
X103999501Y-93377553D01*
X104127553Y-93249501D01*
X104233996Y-93102994D01*
X104316211Y-92941639D01*
X104372171Y-92769409D01*
X104400500Y-92590546D01*
X104400500Y-92409454D01*
X104372171Y-92230591D01*
X104316211Y-92058361D01*
X104316210Y-92058360D01*
X104316210Y-92058358D01*
X104297097Y-92020848D01*
X104265387Y-91958615D01*
X104264547Y-91947936D01*
X104267961Y-91942364D01*
X105211827Y-90998500D01*
X105221726Y-90994400D01*
X106351335Y-90994400D01*
X106361234Y-90998501D01*
X106363947Y-91002323D01*
X106364334Y-91003126D01*
X106435837Y-91060148D01*
X106524999Y-91080498D01*
X106524999Y-91080499D01*
X106525000Y-91080499D01*
X107475000Y-91080499D01*
X107520728Y-91075347D01*
X107603127Y-91035665D01*
X107660149Y-90964162D01*
X107680500Y-90874999D01*
X107680500Y-90462869D01*
X107675348Y-90417141D01*
X107635666Y-90334742D01*
X107564163Y-90277720D01*
X107564161Y-90277719D01*
X107475000Y-90257369D01*
X107372856Y-90257369D01*
X107362957Y-90253268D01*
X107358856Y-90243369D01*
X107362957Y-90233470D01*
X107402926Y-90193501D01*
X107412825Y-90189400D01*
X112042850Y-90189400D01*
X112042853Y-90189400D01*
X112125638Y-90167218D01*
X112199862Y-90124365D01*
X112260465Y-90063762D01*
X112303318Y-89989538D01*
X112325500Y-89906753D01*
X112325500Y-89756631D01*
X112329601Y-89746732D01*
X112339500Y-89742631D01*
X112475000Y-89742631D01*
X112520728Y-89737479D01*
X112603127Y-89697797D01*
X112660149Y-89626294D01*
X112680500Y-89537131D01*
X112680500Y-89125001D01*
X112675348Y-89079273D01*
X112635666Y-88996874D01*
X112564163Y-88939852D01*
X112564161Y-88939851D01*
X112475000Y-88919501D01*
X111525000Y-88919501D01*
X111524999Y-88919501D01*
X111479273Y-88924652D01*
X111396873Y-88964334D01*
X111339851Y-89035838D01*
X111319500Y-89125000D01*
X111319500Y-89524400D01*
X111315399Y-89534299D01*
X111305500Y-89538400D01*
X108142400Y-89538400D01*
X108132501Y-89534299D01*
X108128400Y-89524400D01*
X108128400Y-88828750D01*
X108128400Y-88828747D01*
X108106218Y-88745962D01*
X108101152Y-88737187D01*
X108063367Y-88671740D01*
X108042127Y-88650500D01*
X108002762Y-88611135D01*
X107333266Y-87941639D01*
X106806220Y-87414592D01*
X106796871Y-87405243D01*
X114546000Y-87405243D01*
X114546000Y-87594756D01*
X114575646Y-87781937D01*
X114634209Y-87962178D01*
X114720245Y-88131030D01*
X114720255Y-88131046D01*
X114812450Y-88257942D01*
X114812452Y-88257942D01*
X115209436Y-87860958D01*
X115245112Y-87914351D01*
X115335649Y-88004888D01*
X115389041Y-88040562D01*
X114992056Y-88437547D01*
X114992056Y-88437548D01*
X115118953Y-88529744D01*
X115118969Y-88529754D01*
X115287821Y-88615790D01*
X115468062Y-88674353D01*
X115655243Y-88704000D01*
X115844757Y-88704000D01*
X116031937Y-88674353D01*
X116212178Y-88615790D01*
X116381030Y-88529754D01*
X116381046Y-88529744D01*
X116507942Y-88437548D01*
X116507942Y-88437546D01*
X116110958Y-88040562D01*
X116164351Y-88004888D01*
X116254888Y-87914351D01*
X116290562Y-87860958D01*
X116687546Y-88257942D01*
X116687548Y-88257942D01*
X116779744Y-88131046D01*
X116779754Y-88131030D01*
X116865790Y-87962178D01*
X116924353Y-87781937D01*
X116954000Y-87594756D01*
X116954000Y-87405243D01*
X116924353Y-87218062D01*
X116865790Y-87037821D01*
X116779754Y-86868969D01*
X116779744Y-86868953D01*
X116687548Y-86742056D01*
X116687547Y-86742056D01*
X116290562Y-87139040D01*
X116254888Y-87085649D01*
X116164351Y-86995112D01*
X116110958Y-86959436D01*
X116507942Y-86562452D01*
X116507942Y-86562450D01*
X116381046Y-86470255D01*
X116381030Y-86470245D01*
X116212178Y-86384209D01*
X116031937Y-86325646D01*
X115844757Y-86296000D01*
X115655243Y-86296000D01*
X115468062Y-86325646D01*
X115287821Y-86384209D01*
X115118969Y-86470245D01*
X115118953Y-86470255D01*
X114992056Y-86562450D01*
X114992056Y-86562451D01*
X115389041Y-86959436D01*
X115335649Y-86995112D01*
X115245112Y-87085649D01*
X115209436Y-87139041D01*
X114812451Y-86742056D01*
X114812450Y-86742056D01*
X114720255Y-86868953D01*
X114720245Y-86868969D01*
X114634209Y-87037821D01*
X114575646Y-87218062D01*
X114546000Y-87405243D01*
X106796871Y-87405243D01*
X106631163Y-87239535D01*
X106631160Y-87239533D01*
X106556943Y-87196684D01*
X106556941Y-87196683D01*
X106556939Y-87196682D01*
X106474153Y-87174500D01*
X104364118Y-87174500D01*
X104354219Y-87170399D01*
X104350803Y-87164826D01*
X104316210Y-87058358D01*
X104247739Y-86923978D01*
X104233996Y-86897006D01*
X104213614Y-86868953D01*
X104127554Y-86750500D01*
X104127547Y-86750492D01*
X103999507Y-86622452D01*
X103999499Y-86622445D01*
X103939857Y-86579113D01*
X103853006Y-86516012D01*
X103852998Y-86516007D01*
X103852994Y-86516004D01*
X103847172Y-86513037D01*
X103691641Y-86433789D01*
X103519409Y-86377829D01*
X103340546Y-86349500D01*
X103159454Y-86349500D01*
X102980590Y-86377829D01*
X102808358Y-86433789D01*
X102647009Y-86516002D01*
X102646993Y-86516012D01*
X102500500Y-86622445D01*
X102500492Y-86622452D01*
X102372452Y-86750492D01*
X102372445Y-86750500D01*
X102266012Y-86896993D01*
X102266002Y-86897009D01*
X102183789Y-87058358D01*
X102127829Y-87230590D01*
X102099500Y-87409454D01*
X102099500Y-87590545D01*
X102127829Y-87769409D01*
X102183789Y-87941641D01*
X102266002Y-88102990D01*
X102266012Y-88103006D01*
X102372445Y-88249499D01*
X102372452Y-88249507D01*
X102500492Y-88377547D01*
X102500500Y-88377554D01*
X102646993Y-88483987D01*
X102646997Y-88483989D01*
X102647006Y-88483996D01*
X102708616Y-88515388D01*
X102808358Y-88566210D01*
X102808360Y-88566210D01*
X102808361Y-88566211D01*
X102980591Y-88622171D01*
X103159454Y-88650500D01*
X103340546Y-88650500D01*
X103519409Y-88622171D01*
X103691639Y-88566211D01*
X103852994Y-88483996D01*
X103999501Y-88377553D01*
X104127553Y-88249501D01*
X104233996Y-88102994D01*
X104316211Y-87941639D01*
X104350803Y-87835174D01*
X104357762Y-87827026D01*
X104364118Y-87825500D01*
X106290675Y-87825500D01*
X106300574Y-87829601D01*
X107366575Y-88895602D01*
X107370676Y-88905501D01*
X107366575Y-88915400D01*
X107356676Y-88919501D01*
X106524999Y-88919501D01*
X106479273Y-88924652D01*
X106396873Y-88964334D01*
X106368169Y-89000329D01*
X106358790Y-89005512D01*
X106357223Y-89005600D01*
X104542746Y-89005600D01*
X104459965Y-89027781D01*
X104459957Y-89027784D01*
X104446009Y-89035838D01*
X104385739Y-89070633D01*
X104385736Y-89070635D01*
X101697335Y-91759036D01*
X101697333Y-91759039D01*
X101654483Y-91833257D01*
X101654483Y-91833259D01*
X101654482Y-91833261D01*
X101654482Y-91833262D01*
X101632300Y-91916047D01*
X101632300Y-92972247D01*
X101632300Y-93057953D01*
X101650270Y-93125021D01*
X101654481Y-93140735D01*
X101654484Y-93140743D01*
X101697333Y-93214960D01*
X101697335Y-93214963D01*
X102166673Y-93684301D01*
X102170774Y-93694200D01*
X102166673Y-93704099D01*
X89402074Y-106468699D01*
X89392175Y-106472800D01*
X88957146Y-106472800D01*
X88874365Y-106494981D01*
X88874357Y-106494984D01*
X88800139Y-106537833D01*
X88800136Y-106537835D01*
X88739535Y-106598436D01*
X88739533Y-106598439D01*
X88696684Y-106672657D01*
X88696681Y-106672665D01*
X88674500Y-106755446D01*
X88674500Y-106905501D01*
X88670399Y-106915400D01*
X88660500Y-106919501D01*
X88524999Y-106919501D01*
X88479273Y-106924652D01*
X88396873Y-106964334D01*
X88339851Y-107035838D01*
X88339850Y-107035839D01*
X88319500Y-107125000D01*
X88319500Y-107537131D01*
X88324651Y-107582857D01*
X88364333Y-107665257D01*
X88364334Y-107665258D01*
X88435837Y-107722280D01*
X88524999Y-107742630D01*
X88524999Y-107742631D01*
X88525000Y-107742631D01*
X88899344Y-107742631D01*
X88909243Y-107746732D01*
X88913344Y-107756631D01*
X88909243Y-107766530D01*
X88865173Y-107810600D01*
X88739532Y-107936240D01*
X88696683Y-108010457D01*
X88696683Y-108010459D01*
X88696682Y-108010462D01*
X88674500Y-108093246D01*
X88674500Y-108243369D01*
X88670399Y-108253268D01*
X88660500Y-108257369D01*
X88524999Y-108257369D01*
X88479273Y-108262520D01*
X88396873Y-108302202D01*
X88339851Y-108373706D01*
X88319500Y-108462868D01*
X88319500Y-108616875D01*
X88315399Y-108626774D01*
X86771774Y-110170399D01*
X86761875Y-110174500D01*
X86364118Y-110174500D01*
X86354219Y-110170399D01*
X86350803Y-110164826D01*
X86316210Y-110058358D01*
X86258525Y-109945147D01*
X86233996Y-109897006D01*
X86228426Y-109889340D01*
X86127554Y-109750500D01*
X86127547Y-109750492D01*
X85999507Y-109622452D01*
X85999499Y-109622445D01*
X85853006Y-109516012D01*
X85852998Y-109516007D01*
X85852994Y-109516004D01*
X85831427Y-109505015D01*
X85691641Y-109433789D01*
X85585174Y-109399196D01*
X85577026Y-109392237D01*
X85575500Y-109385881D01*
X85575500Y-106614117D01*
X85579601Y-106604218D01*
X85585171Y-106600803D01*
X85691639Y-106566211D01*
X85852994Y-106483996D01*
X85999501Y-106377553D01*
X86127553Y-106249501D01*
X86233996Y-106102994D01*
X86316211Y-105941639D01*
X86372171Y-105769409D01*
X86400500Y-105590546D01*
X86400500Y-105409454D01*
X86372171Y-105230591D01*
X86316211Y-105058361D01*
X86316210Y-105058360D01*
X86316210Y-105058358D01*
X86247739Y-104923978D01*
X86233996Y-104897006D01*
X86213614Y-104868953D01*
X86127554Y-104750500D01*
X86127547Y-104750492D01*
X85999507Y-104622452D01*
X85999499Y-104622445D01*
X85853006Y-104516012D01*
X85852998Y-104516007D01*
X85852994Y-104516004D01*
X85847172Y-104513037D01*
X85691641Y-104433789D01*
X85519409Y-104377829D01*
X85340546Y-104349500D01*
X85159454Y-104349500D01*
X84980590Y-104377829D01*
X84808358Y-104433789D01*
X84647009Y-104516002D01*
X84646993Y-104516012D01*
X84500500Y-104622445D01*
X84500492Y-104622452D01*
X84372452Y-104750492D01*
X84372445Y-104750500D01*
X84266012Y-104896993D01*
X84266002Y-104897009D01*
X84183789Y-105058358D01*
X84127829Y-105230590D01*
X84099500Y-105409454D01*
X81000000Y-105409454D01*
X81000000Y-77999999D01*
X81500000Y-77999999D01*
X81557644Y-78585272D01*
X81557645Y-78585276D01*
X81728359Y-79148045D01*
X81728361Y-79148050D01*
X81892196Y-79454563D01*
X82005590Y-79666709D01*
X82005592Y-79666712D01*
X82378678Y-80121320D01*
X82833286Y-80494406D01*
X82833289Y-80494408D01*
X83351949Y-80771638D01*
X83914729Y-80942355D01*
X84500000Y-81000000D01*
X85085270Y-80942355D01*
X85648050Y-80771638D01*
X86166710Y-80494408D01*
X86621320Y-80121320D01*
X86994408Y-79666710D01*
X87271638Y-79148050D01*
X87442355Y-78585270D01*
X87500000Y-78000000D01*
X191500000Y-78000000D01*
X191557644Y-78585272D01*
X191557645Y-78585276D01*
X191728359Y-79148045D01*
X191728361Y-79148050D01*
X191892196Y-79454563D01*
X192005590Y-79666709D01*
X192005592Y-79666712D01*
X192378678Y-80121320D01*
X192833286Y-80494406D01*
X192833289Y-80494408D01*
X193351949Y-80771638D01*
X193914729Y-80942355D01*
X194500000Y-81000000D01*
X195085270Y-80942355D01*
X195648050Y-80771638D01*
X196166710Y-80494408D01*
X196621320Y-80121320D01*
X196994408Y-79666710D01*
X197271638Y-79148050D01*
X197442355Y-78585270D01*
X197500000Y-78000000D01*
X197442355Y-77414729D01*
X197271638Y-76851949D01*
X196994408Y-76333289D01*
X196897441Y-76215134D01*
X196621320Y-75878678D01*
X196166712Y-75505592D01*
X196166709Y-75505590D01*
X195954563Y-75392196D01*
X195648050Y-75228361D01*
X195648047Y-75228360D01*
X195648045Y-75228359D01*
X195085276Y-75057645D01*
X195085272Y-75057644D01*
X194695090Y-75019214D01*
X194500000Y-75000000D01*
X194499999Y-75000000D01*
X193914726Y-75057644D01*
X193914722Y-75057645D01*
X193351953Y-75228359D01*
X192833289Y-75505590D01*
X192833286Y-75505592D01*
X192378678Y-75878678D01*
X192005592Y-76333286D01*
X192005590Y-76333289D01*
X191728359Y-76851953D01*
X191557645Y-77414722D01*
X191557644Y-77414726D01*
X191500000Y-78000000D01*
X87500000Y-78000000D01*
X87442355Y-77414729D01*
X87271638Y-76851949D01*
X86994408Y-76333289D01*
X86897441Y-76215134D01*
X86621320Y-75878678D01*
X86166712Y-75505592D01*
X86166709Y-75505590D01*
X85954563Y-75392196D01*
X85648050Y-75228361D01*
X85648047Y-75228360D01*
X85648045Y-75228359D01*
X85085276Y-75057645D01*
X85085272Y-75057644D01*
X84695090Y-75019214D01*
X84500000Y-75000000D01*
X84499999Y-75000000D01*
X83914726Y-75057644D01*
X83914722Y-75057645D01*
X83351953Y-75228359D01*
X82833289Y-75505590D01*
X82833286Y-75505592D01*
X82378678Y-75878678D01*
X82005592Y-76333286D01*
X82005590Y-76333289D01*
X81728359Y-76851953D01*
X81557645Y-77414722D01*
X81557644Y-77414726D01*
X81500000Y-77999999D01*
X81000000Y-77999999D01*
X81000000Y-76000785D01*
X81000088Y-75999218D01*
X81000088Y-75999217D01*
X81037432Y-75667780D01*
X81038127Y-75664733D01*
X81148027Y-75350659D01*
X81149386Y-75347838D01*
X81326417Y-75066094D01*
X81328365Y-75063652D01*
X81563652Y-74828365D01*
X81566094Y-74826417D01*
X81847841Y-74649384D01*
X81850659Y-74648027D01*
X82164733Y-74538127D01*
X82167780Y-74537432D01*
X82499219Y-74500088D01*
X82500786Y-74500000D01*
X196499214Y-74500000D01*
X196500781Y-74500088D01*
G37*
%TD.AperFunction*%
%TD*%
M02*
