%TF.GenerationSoftware,KiCad,Pcbnew,9.0.9.1-1.fc43*%
%TF.CreationDate,2026-06-26T00:54:02-06:00*%
%TF.ProjectId,arcade-controller-routed,61726361-6465-42d6-936f-6e74726f6c6c,rev?*%
%TF.SameCoordinates,Original*%
%TF.FileFunction,AssemblyDrawing,Bot*%
%FSLAX46Y46*%
G04 Gerber Fmt 4.6, Leading zero omitted, Abs format (unit mm)*
G04 Created by KiCad (PCBNEW 9.0.9.1-1.fc43) date 2026-06-26 00:54:02*
%MOMM*%
%LPD*%
G01*
G04 APERTURE LIST*
%ADD10C,0.075000*%
G04 APERTURE END LIST*
D10*
X153882142Y-107863457D02*
X153867856Y-107849171D01*
X153867856Y-107849171D02*
X153839285Y-107834885D01*
X153839285Y-107834885D02*
X153767856Y-107834885D01*
X153767856Y-107834885D02*
X153739285Y-107849171D01*
X153739285Y-107849171D02*
X153724999Y-107863457D01*
X153724999Y-107863457D02*
X153710713Y-107892028D01*
X153710713Y-107892028D02*
X153710713Y-107920600D01*
X153710713Y-107920600D02*
X153724999Y-107963457D01*
X153724999Y-107963457D02*
X153896427Y-108134885D01*
X153896427Y-108134885D02*
X153710713Y-108134885D01*
X153596428Y-107863457D02*
X153582142Y-107849171D01*
X153582142Y-107849171D02*
X153553571Y-107834885D01*
X153553571Y-107834885D02*
X153482142Y-107834885D01*
X153482142Y-107834885D02*
X153453571Y-107849171D01*
X153453571Y-107849171D02*
X153439285Y-107863457D01*
X153439285Y-107863457D02*
X153424999Y-107892028D01*
X153424999Y-107892028D02*
X153424999Y-107920600D01*
X153424999Y-107920600D02*
X153439285Y-107963457D01*
X153439285Y-107963457D02*
X153610713Y-108134885D01*
X153610713Y-108134885D02*
X153424999Y-108134885D01*
X153239285Y-107834885D02*
X153210714Y-107834885D01*
X153210714Y-107834885D02*
X153182142Y-107849171D01*
X153182142Y-107849171D02*
X153167857Y-107863457D01*
X153167857Y-107863457D02*
X153153571Y-107892028D01*
X153153571Y-107892028D02*
X153139285Y-107949171D01*
X153139285Y-107949171D02*
X153139285Y-108020600D01*
X153139285Y-108020600D02*
X153153571Y-108077742D01*
X153153571Y-108077742D02*
X153167857Y-108106314D01*
X153167857Y-108106314D02*
X153182142Y-108120600D01*
X153182142Y-108120600D02*
X153210714Y-108134885D01*
X153210714Y-108134885D02*
X153239285Y-108134885D01*
X153239285Y-108134885D02*
X153267857Y-108120600D01*
X153267857Y-108120600D02*
X153282142Y-108106314D01*
X153282142Y-108106314D02*
X153296428Y-108077742D01*
X153296428Y-108077742D02*
X153310714Y-108020600D01*
X153310714Y-108020600D02*
X153310714Y-107949171D01*
X153310714Y-107949171D02*
X153296428Y-107892028D01*
X153296428Y-107892028D02*
X153282142Y-107863457D01*
X153282142Y-107863457D02*
X153267857Y-107849171D01*
X153267857Y-107849171D02*
X153239285Y-107834885D01*
X152796429Y-108134885D02*
X152725000Y-108134885D01*
X152725000Y-108134885D02*
X152725000Y-108077742D01*
X152725000Y-108077742D02*
X152753572Y-108063457D01*
X152753572Y-108063457D02*
X152782143Y-108034885D01*
X152782143Y-108034885D02*
X152796429Y-107992028D01*
X152796429Y-107992028D02*
X152796429Y-107920600D01*
X152796429Y-107920600D02*
X152782143Y-107877742D01*
X152782143Y-107877742D02*
X152753572Y-107849171D01*
X152753572Y-107849171D02*
X152710714Y-107834885D01*
X152710714Y-107834885D02*
X152653572Y-107834885D01*
X152653572Y-107834885D02*
X152610714Y-107849171D01*
X152610714Y-107849171D02*
X152582143Y-107877742D01*
X152582143Y-107877742D02*
X152567857Y-107920600D01*
X152567857Y-107920600D02*
X152567857Y-107992028D01*
X152567857Y-107992028D02*
X152582143Y-108034885D01*
X152582143Y-108034885D02*
X152610714Y-108063457D01*
X152610714Y-108063457D02*
X152639286Y-108077742D01*
X152639286Y-108077742D02*
X152639286Y-108134885D01*
X152639286Y-108134885D02*
X152567857Y-108134885D01*
X111882142Y-125863457D02*
X111867856Y-125849171D01*
X111867856Y-125849171D02*
X111839285Y-125834885D01*
X111839285Y-125834885D02*
X111767856Y-125834885D01*
X111767856Y-125834885D02*
X111739285Y-125849171D01*
X111739285Y-125849171D02*
X111724999Y-125863457D01*
X111724999Y-125863457D02*
X111710713Y-125892028D01*
X111710713Y-125892028D02*
X111710713Y-125920600D01*
X111710713Y-125920600D02*
X111724999Y-125963457D01*
X111724999Y-125963457D02*
X111896427Y-126134885D01*
X111896427Y-126134885D02*
X111710713Y-126134885D01*
X111596428Y-125863457D02*
X111582142Y-125849171D01*
X111582142Y-125849171D02*
X111553571Y-125834885D01*
X111553571Y-125834885D02*
X111482142Y-125834885D01*
X111482142Y-125834885D02*
X111453571Y-125849171D01*
X111453571Y-125849171D02*
X111439285Y-125863457D01*
X111439285Y-125863457D02*
X111424999Y-125892028D01*
X111424999Y-125892028D02*
X111424999Y-125920600D01*
X111424999Y-125920600D02*
X111439285Y-125963457D01*
X111439285Y-125963457D02*
X111610713Y-126134885D01*
X111610713Y-126134885D02*
X111424999Y-126134885D01*
X111239285Y-125834885D02*
X111210714Y-125834885D01*
X111210714Y-125834885D02*
X111182142Y-125849171D01*
X111182142Y-125849171D02*
X111167857Y-125863457D01*
X111167857Y-125863457D02*
X111153571Y-125892028D01*
X111153571Y-125892028D02*
X111139285Y-125949171D01*
X111139285Y-125949171D02*
X111139285Y-126020600D01*
X111139285Y-126020600D02*
X111153571Y-126077742D01*
X111153571Y-126077742D02*
X111167857Y-126106314D01*
X111167857Y-126106314D02*
X111182142Y-126120600D01*
X111182142Y-126120600D02*
X111210714Y-126134885D01*
X111210714Y-126134885D02*
X111239285Y-126134885D01*
X111239285Y-126134885D02*
X111267857Y-126120600D01*
X111267857Y-126120600D02*
X111282142Y-126106314D01*
X111282142Y-126106314D02*
X111296428Y-126077742D01*
X111296428Y-126077742D02*
X111310714Y-126020600D01*
X111310714Y-126020600D02*
X111310714Y-125949171D01*
X111310714Y-125949171D02*
X111296428Y-125892028D01*
X111296428Y-125892028D02*
X111282142Y-125863457D01*
X111282142Y-125863457D02*
X111267857Y-125849171D01*
X111267857Y-125849171D02*
X111239285Y-125834885D01*
X110796429Y-126134885D02*
X110725000Y-126134885D01*
X110725000Y-126134885D02*
X110725000Y-126077742D01*
X110725000Y-126077742D02*
X110753572Y-126063457D01*
X110753572Y-126063457D02*
X110782143Y-126034885D01*
X110782143Y-126034885D02*
X110796429Y-125992028D01*
X110796429Y-125992028D02*
X110796429Y-125920600D01*
X110796429Y-125920600D02*
X110782143Y-125877742D01*
X110782143Y-125877742D02*
X110753572Y-125849171D01*
X110753572Y-125849171D02*
X110710714Y-125834885D01*
X110710714Y-125834885D02*
X110653572Y-125834885D01*
X110653572Y-125834885D02*
X110610714Y-125849171D01*
X110610714Y-125849171D02*
X110582143Y-125877742D01*
X110582143Y-125877742D02*
X110567857Y-125920600D01*
X110567857Y-125920600D02*
X110567857Y-125992028D01*
X110567857Y-125992028D02*
X110582143Y-126034885D01*
X110582143Y-126034885D02*
X110610714Y-126063457D01*
X110610714Y-126063457D02*
X110639286Y-126077742D01*
X110639286Y-126077742D02*
X110639286Y-126134885D01*
X110639286Y-126134885D02*
X110567857Y-126134885D01*
X88689284Y-108134885D02*
X88860713Y-108134885D01*
X88774998Y-108134885D02*
X88774998Y-107834885D01*
X88774998Y-107834885D02*
X88803570Y-107877742D01*
X88803570Y-107877742D02*
X88832141Y-107906314D01*
X88832141Y-107906314D02*
X88860713Y-107920600D01*
X88503570Y-107834885D02*
X88474999Y-107834885D01*
X88474999Y-107834885D02*
X88446427Y-107849171D01*
X88446427Y-107849171D02*
X88432142Y-107863457D01*
X88432142Y-107863457D02*
X88417856Y-107892028D01*
X88417856Y-107892028D02*
X88403570Y-107949171D01*
X88403570Y-107949171D02*
X88403570Y-108020600D01*
X88403570Y-108020600D02*
X88417856Y-108077742D01*
X88417856Y-108077742D02*
X88432142Y-108106314D01*
X88432142Y-108106314D02*
X88446427Y-108120600D01*
X88446427Y-108120600D02*
X88474999Y-108134885D01*
X88474999Y-108134885D02*
X88503570Y-108134885D01*
X88503570Y-108134885D02*
X88532142Y-108120600D01*
X88532142Y-108120600D02*
X88546427Y-108106314D01*
X88546427Y-108106314D02*
X88560713Y-108077742D01*
X88560713Y-108077742D02*
X88574999Y-108020600D01*
X88574999Y-108020600D02*
X88574999Y-107949171D01*
X88574999Y-107949171D02*
X88560713Y-107892028D01*
X88560713Y-107892028D02*
X88546427Y-107863457D01*
X88546427Y-107863457D02*
X88532142Y-107849171D01*
X88532142Y-107849171D02*
X88503570Y-107834885D01*
X88046428Y-108134885D02*
X88046428Y-107834885D01*
X88017857Y-108020600D02*
X87932142Y-108134885D01*
X87932142Y-107934885D02*
X88046428Y-108049171D01*
X87817857Y-108134885D02*
X87746428Y-108134885D01*
X87746428Y-108134885D02*
X87746428Y-108077742D01*
X87746428Y-108077742D02*
X87775000Y-108063457D01*
X87775000Y-108063457D02*
X87803571Y-108034885D01*
X87803571Y-108034885D02*
X87817857Y-107992028D01*
X87817857Y-107992028D02*
X87817857Y-107920600D01*
X87817857Y-107920600D02*
X87803571Y-107877742D01*
X87803571Y-107877742D02*
X87775000Y-107849171D01*
X87775000Y-107849171D02*
X87732142Y-107834885D01*
X87732142Y-107834885D02*
X87675000Y-107834885D01*
X87675000Y-107834885D02*
X87632142Y-107849171D01*
X87632142Y-107849171D02*
X87603571Y-107877742D01*
X87603571Y-107877742D02*
X87589285Y-107920600D01*
X87589285Y-107920600D02*
X87589285Y-107992028D01*
X87589285Y-107992028D02*
X87603571Y-108034885D01*
X87603571Y-108034885D02*
X87632142Y-108063457D01*
X87632142Y-108063457D02*
X87660714Y-108077742D01*
X87660714Y-108077742D02*
X87660714Y-108134885D01*
X87660714Y-108134885D02*
X87589285Y-108134885D01*
X106689284Y-90134885D02*
X106860713Y-90134885D01*
X106774998Y-90134885D02*
X106774998Y-89834885D01*
X106774998Y-89834885D02*
X106803570Y-89877742D01*
X106803570Y-89877742D02*
X106832141Y-89906314D01*
X106832141Y-89906314D02*
X106860713Y-89920600D01*
X106503570Y-89834885D02*
X106474999Y-89834885D01*
X106474999Y-89834885D02*
X106446427Y-89849171D01*
X106446427Y-89849171D02*
X106432142Y-89863457D01*
X106432142Y-89863457D02*
X106417856Y-89892028D01*
X106417856Y-89892028D02*
X106403570Y-89949171D01*
X106403570Y-89949171D02*
X106403570Y-90020600D01*
X106403570Y-90020600D02*
X106417856Y-90077742D01*
X106417856Y-90077742D02*
X106432142Y-90106314D01*
X106432142Y-90106314D02*
X106446427Y-90120600D01*
X106446427Y-90120600D02*
X106474999Y-90134885D01*
X106474999Y-90134885D02*
X106503570Y-90134885D01*
X106503570Y-90134885D02*
X106532142Y-90120600D01*
X106532142Y-90120600D02*
X106546427Y-90106314D01*
X106546427Y-90106314D02*
X106560713Y-90077742D01*
X106560713Y-90077742D02*
X106574999Y-90020600D01*
X106574999Y-90020600D02*
X106574999Y-89949171D01*
X106574999Y-89949171D02*
X106560713Y-89892028D01*
X106560713Y-89892028D02*
X106546427Y-89863457D01*
X106546427Y-89863457D02*
X106532142Y-89849171D01*
X106532142Y-89849171D02*
X106503570Y-89834885D01*
X106046428Y-90134885D02*
X106046428Y-89834885D01*
X106017857Y-90020600D02*
X105932142Y-90134885D01*
X105932142Y-89934885D02*
X106046428Y-90049171D01*
X105817857Y-90134885D02*
X105746428Y-90134885D01*
X105746428Y-90134885D02*
X105746428Y-90077742D01*
X105746428Y-90077742D02*
X105775000Y-90063457D01*
X105775000Y-90063457D02*
X105803571Y-90034885D01*
X105803571Y-90034885D02*
X105817857Y-89992028D01*
X105817857Y-89992028D02*
X105817857Y-89920600D01*
X105817857Y-89920600D02*
X105803571Y-89877742D01*
X105803571Y-89877742D02*
X105775000Y-89849171D01*
X105775000Y-89849171D02*
X105732142Y-89834885D01*
X105732142Y-89834885D02*
X105675000Y-89834885D01*
X105675000Y-89834885D02*
X105632142Y-89849171D01*
X105632142Y-89849171D02*
X105603571Y-89877742D01*
X105603571Y-89877742D02*
X105589285Y-89920600D01*
X105589285Y-89920600D02*
X105589285Y-89992028D01*
X105589285Y-89992028D02*
X105603571Y-90034885D01*
X105603571Y-90034885D02*
X105632142Y-90063457D01*
X105632142Y-90063457D02*
X105660714Y-90077742D01*
X105660714Y-90077742D02*
X105660714Y-90134885D01*
X105660714Y-90134885D02*
X105589285Y-90134885D01*
X148689284Y-108134885D02*
X148860713Y-108134885D01*
X148774998Y-108134885D02*
X148774998Y-107834885D01*
X148774998Y-107834885D02*
X148803570Y-107877742D01*
X148803570Y-107877742D02*
X148832141Y-107906314D01*
X148832141Y-107906314D02*
X148860713Y-107920600D01*
X148503570Y-107834885D02*
X148474999Y-107834885D01*
X148474999Y-107834885D02*
X148446427Y-107849171D01*
X148446427Y-107849171D02*
X148432142Y-107863457D01*
X148432142Y-107863457D02*
X148417856Y-107892028D01*
X148417856Y-107892028D02*
X148403570Y-107949171D01*
X148403570Y-107949171D02*
X148403570Y-108020600D01*
X148403570Y-108020600D02*
X148417856Y-108077742D01*
X148417856Y-108077742D02*
X148432142Y-108106314D01*
X148432142Y-108106314D02*
X148446427Y-108120600D01*
X148446427Y-108120600D02*
X148474999Y-108134885D01*
X148474999Y-108134885D02*
X148503570Y-108134885D01*
X148503570Y-108134885D02*
X148532142Y-108120600D01*
X148532142Y-108120600D02*
X148546427Y-108106314D01*
X148546427Y-108106314D02*
X148560713Y-108077742D01*
X148560713Y-108077742D02*
X148574999Y-108020600D01*
X148574999Y-108020600D02*
X148574999Y-107949171D01*
X148574999Y-107949171D02*
X148560713Y-107892028D01*
X148560713Y-107892028D02*
X148546427Y-107863457D01*
X148546427Y-107863457D02*
X148532142Y-107849171D01*
X148532142Y-107849171D02*
X148503570Y-107834885D01*
X148046428Y-108134885D02*
X148046428Y-107834885D01*
X148017857Y-108020600D02*
X147932142Y-108134885D01*
X147932142Y-107934885D02*
X148046428Y-108049171D01*
X147817857Y-108134885D02*
X147746428Y-108134885D01*
X147746428Y-108134885D02*
X147746428Y-108077742D01*
X147746428Y-108077742D02*
X147775000Y-108063457D01*
X147775000Y-108063457D02*
X147803571Y-108034885D01*
X147803571Y-108034885D02*
X147817857Y-107992028D01*
X147817857Y-107992028D02*
X147817857Y-107920600D01*
X147817857Y-107920600D02*
X147803571Y-107877742D01*
X147803571Y-107877742D02*
X147775000Y-107849171D01*
X147775000Y-107849171D02*
X147732142Y-107834885D01*
X147732142Y-107834885D02*
X147675000Y-107834885D01*
X147675000Y-107834885D02*
X147632142Y-107849171D01*
X147632142Y-107849171D02*
X147603571Y-107877742D01*
X147603571Y-107877742D02*
X147589285Y-107920600D01*
X147589285Y-107920600D02*
X147589285Y-107992028D01*
X147589285Y-107992028D02*
X147603571Y-108034885D01*
X147603571Y-108034885D02*
X147632142Y-108063457D01*
X147632142Y-108063457D02*
X147660714Y-108077742D01*
X147660714Y-108077742D02*
X147660714Y-108134885D01*
X147660714Y-108134885D02*
X147589285Y-108134885D01*
X124689284Y-108134885D02*
X124860713Y-108134885D01*
X124774998Y-108134885D02*
X124774998Y-107834885D01*
X124774998Y-107834885D02*
X124803570Y-107877742D01*
X124803570Y-107877742D02*
X124832141Y-107906314D01*
X124832141Y-107906314D02*
X124860713Y-107920600D01*
X124503570Y-107834885D02*
X124474999Y-107834885D01*
X124474999Y-107834885D02*
X124446427Y-107849171D01*
X124446427Y-107849171D02*
X124432142Y-107863457D01*
X124432142Y-107863457D02*
X124417856Y-107892028D01*
X124417856Y-107892028D02*
X124403570Y-107949171D01*
X124403570Y-107949171D02*
X124403570Y-108020600D01*
X124403570Y-108020600D02*
X124417856Y-108077742D01*
X124417856Y-108077742D02*
X124432142Y-108106314D01*
X124432142Y-108106314D02*
X124446427Y-108120600D01*
X124446427Y-108120600D02*
X124474999Y-108134885D01*
X124474999Y-108134885D02*
X124503570Y-108134885D01*
X124503570Y-108134885D02*
X124532142Y-108120600D01*
X124532142Y-108120600D02*
X124546427Y-108106314D01*
X124546427Y-108106314D02*
X124560713Y-108077742D01*
X124560713Y-108077742D02*
X124574999Y-108020600D01*
X124574999Y-108020600D02*
X124574999Y-107949171D01*
X124574999Y-107949171D02*
X124560713Y-107892028D01*
X124560713Y-107892028D02*
X124546427Y-107863457D01*
X124546427Y-107863457D02*
X124532142Y-107849171D01*
X124532142Y-107849171D02*
X124503570Y-107834885D01*
X124046428Y-108134885D02*
X124046428Y-107834885D01*
X124017857Y-108020600D02*
X123932142Y-108134885D01*
X123932142Y-107934885D02*
X124046428Y-108049171D01*
X123817857Y-108134885D02*
X123746428Y-108134885D01*
X123746428Y-108134885D02*
X123746428Y-108077742D01*
X123746428Y-108077742D02*
X123775000Y-108063457D01*
X123775000Y-108063457D02*
X123803571Y-108034885D01*
X123803571Y-108034885D02*
X123817857Y-107992028D01*
X123817857Y-107992028D02*
X123817857Y-107920600D01*
X123817857Y-107920600D02*
X123803571Y-107877742D01*
X123803571Y-107877742D02*
X123775000Y-107849171D01*
X123775000Y-107849171D02*
X123732142Y-107834885D01*
X123732142Y-107834885D02*
X123675000Y-107834885D01*
X123675000Y-107834885D02*
X123632142Y-107849171D01*
X123632142Y-107849171D02*
X123603571Y-107877742D01*
X123603571Y-107877742D02*
X123589285Y-107920600D01*
X123589285Y-107920600D02*
X123589285Y-107992028D01*
X123589285Y-107992028D02*
X123603571Y-108034885D01*
X123603571Y-108034885D02*
X123632142Y-108063457D01*
X123632142Y-108063457D02*
X123660714Y-108077742D01*
X123660714Y-108077742D02*
X123660714Y-108134885D01*
X123660714Y-108134885D02*
X123589285Y-108134885D01*
X166689284Y-126134885D02*
X166860713Y-126134885D01*
X166774998Y-126134885D02*
X166774998Y-125834885D01*
X166774998Y-125834885D02*
X166803570Y-125877742D01*
X166803570Y-125877742D02*
X166832141Y-125906314D01*
X166832141Y-125906314D02*
X166860713Y-125920600D01*
X166503570Y-125834885D02*
X166474999Y-125834885D01*
X166474999Y-125834885D02*
X166446427Y-125849171D01*
X166446427Y-125849171D02*
X166432142Y-125863457D01*
X166432142Y-125863457D02*
X166417856Y-125892028D01*
X166417856Y-125892028D02*
X166403570Y-125949171D01*
X166403570Y-125949171D02*
X166403570Y-126020600D01*
X166403570Y-126020600D02*
X166417856Y-126077742D01*
X166417856Y-126077742D02*
X166432142Y-126106314D01*
X166432142Y-126106314D02*
X166446427Y-126120600D01*
X166446427Y-126120600D02*
X166474999Y-126134885D01*
X166474999Y-126134885D02*
X166503570Y-126134885D01*
X166503570Y-126134885D02*
X166532142Y-126120600D01*
X166532142Y-126120600D02*
X166546427Y-126106314D01*
X166546427Y-126106314D02*
X166560713Y-126077742D01*
X166560713Y-126077742D02*
X166574999Y-126020600D01*
X166574999Y-126020600D02*
X166574999Y-125949171D01*
X166574999Y-125949171D02*
X166560713Y-125892028D01*
X166560713Y-125892028D02*
X166546427Y-125863457D01*
X166546427Y-125863457D02*
X166532142Y-125849171D01*
X166532142Y-125849171D02*
X166503570Y-125834885D01*
X166046428Y-126134885D02*
X166046428Y-125834885D01*
X166017857Y-126020600D02*
X165932142Y-126134885D01*
X165932142Y-125934885D02*
X166046428Y-126049171D01*
X165817857Y-126134885D02*
X165746428Y-126134885D01*
X165746428Y-126134885D02*
X165746428Y-126077742D01*
X165746428Y-126077742D02*
X165775000Y-126063457D01*
X165775000Y-126063457D02*
X165803571Y-126034885D01*
X165803571Y-126034885D02*
X165817857Y-125992028D01*
X165817857Y-125992028D02*
X165817857Y-125920600D01*
X165817857Y-125920600D02*
X165803571Y-125877742D01*
X165803571Y-125877742D02*
X165775000Y-125849171D01*
X165775000Y-125849171D02*
X165732142Y-125834885D01*
X165732142Y-125834885D02*
X165675000Y-125834885D01*
X165675000Y-125834885D02*
X165632142Y-125849171D01*
X165632142Y-125849171D02*
X165603571Y-125877742D01*
X165603571Y-125877742D02*
X165589285Y-125920600D01*
X165589285Y-125920600D02*
X165589285Y-125992028D01*
X165589285Y-125992028D02*
X165603571Y-126034885D01*
X165603571Y-126034885D02*
X165632142Y-126063457D01*
X165632142Y-126063457D02*
X165660714Y-126077742D01*
X165660714Y-126077742D02*
X165660714Y-126134885D01*
X165660714Y-126134885D02*
X165589285Y-126134885D01*
X106689284Y-126134885D02*
X106860713Y-126134885D01*
X106774998Y-126134885D02*
X106774998Y-125834885D01*
X106774998Y-125834885D02*
X106803570Y-125877742D01*
X106803570Y-125877742D02*
X106832141Y-125906314D01*
X106832141Y-125906314D02*
X106860713Y-125920600D01*
X106503570Y-125834885D02*
X106474999Y-125834885D01*
X106474999Y-125834885D02*
X106446427Y-125849171D01*
X106446427Y-125849171D02*
X106432142Y-125863457D01*
X106432142Y-125863457D02*
X106417856Y-125892028D01*
X106417856Y-125892028D02*
X106403570Y-125949171D01*
X106403570Y-125949171D02*
X106403570Y-126020600D01*
X106403570Y-126020600D02*
X106417856Y-126077742D01*
X106417856Y-126077742D02*
X106432142Y-126106314D01*
X106432142Y-126106314D02*
X106446427Y-126120600D01*
X106446427Y-126120600D02*
X106474999Y-126134885D01*
X106474999Y-126134885D02*
X106503570Y-126134885D01*
X106503570Y-126134885D02*
X106532142Y-126120600D01*
X106532142Y-126120600D02*
X106546427Y-126106314D01*
X106546427Y-126106314D02*
X106560713Y-126077742D01*
X106560713Y-126077742D02*
X106574999Y-126020600D01*
X106574999Y-126020600D02*
X106574999Y-125949171D01*
X106574999Y-125949171D02*
X106560713Y-125892028D01*
X106560713Y-125892028D02*
X106546427Y-125863457D01*
X106546427Y-125863457D02*
X106532142Y-125849171D01*
X106532142Y-125849171D02*
X106503570Y-125834885D01*
X106046428Y-126134885D02*
X106046428Y-125834885D01*
X106017857Y-126020600D02*
X105932142Y-126134885D01*
X105932142Y-125934885D02*
X106046428Y-126049171D01*
X105817857Y-126134885D02*
X105746428Y-126134885D01*
X105746428Y-126134885D02*
X105746428Y-126077742D01*
X105746428Y-126077742D02*
X105775000Y-126063457D01*
X105775000Y-126063457D02*
X105803571Y-126034885D01*
X105803571Y-126034885D02*
X105817857Y-125992028D01*
X105817857Y-125992028D02*
X105817857Y-125920600D01*
X105817857Y-125920600D02*
X105803571Y-125877742D01*
X105803571Y-125877742D02*
X105775000Y-125849171D01*
X105775000Y-125849171D02*
X105732142Y-125834885D01*
X105732142Y-125834885D02*
X105675000Y-125834885D01*
X105675000Y-125834885D02*
X105632142Y-125849171D01*
X105632142Y-125849171D02*
X105603571Y-125877742D01*
X105603571Y-125877742D02*
X105589285Y-125920600D01*
X105589285Y-125920600D02*
X105589285Y-125992028D01*
X105589285Y-125992028D02*
X105603571Y-126034885D01*
X105603571Y-126034885D02*
X105632142Y-126063457D01*
X105632142Y-126063457D02*
X105660714Y-126077742D01*
X105660714Y-126077742D02*
X105660714Y-126134885D01*
X105660714Y-126134885D02*
X105589285Y-126134885D01*
X184689284Y-108134885D02*
X184860713Y-108134885D01*
X184774998Y-108134885D02*
X184774998Y-107834885D01*
X184774998Y-107834885D02*
X184803570Y-107877742D01*
X184803570Y-107877742D02*
X184832141Y-107906314D01*
X184832141Y-107906314D02*
X184860713Y-107920600D01*
X184503570Y-107834885D02*
X184474999Y-107834885D01*
X184474999Y-107834885D02*
X184446427Y-107849171D01*
X184446427Y-107849171D02*
X184432142Y-107863457D01*
X184432142Y-107863457D02*
X184417856Y-107892028D01*
X184417856Y-107892028D02*
X184403570Y-107949171D01*
X184403570Y-107949171D02*
X184403570Y-108020600D01*
X184403570Y-108020600D02*
X184417856Y-108077742D01*
X184417856Y-108077742D02*
X184432142Y-108106314D01*
X184432142Y-108106314D02*
X184446427Y-108120600D01*
X184446427Y-108120600D02*
X184474999Y-108134885D01*
X184474999Y-108134885D02*
X184503570Y-108134885D01*
X184503570Y-108134885D02*
X184532142Y-108120600D01*
X184532142Y-108120600D02*
X184546427Y-108106314D01*
X184546427Y-108106314D02*
X184560713Y-108077742D01*
X184560713Y-108077742D02*
X184574999Y-108020600D01*
X184574999Y-108020600D02*
X184574999Y-107949171D01*
X184574999Y-107949171D02*
X184560713Y-107892028D01*
X184560713Y-107892028D02*
X184546427Y-107863457D01*
X184546427Y-107863457D02*
X184532142Y-107849171D01*
X184532142Y-107849171D02*
X184503570Y-107834885D01*
X184046428Y-108134885D02*
X184046428Y-107834885D01*
X184017857Y-108020600D02*
X183932142Y-108134885D01*
X183932142Y-107934885D02*
X184046428Y-108049171D01*
X183817857Y-108134885D02*
X183746428Y-108134885D01*
X183746428Y-108134885D02*
X183746428Y-108077742D01*
X183746428Y-108077742D02*
X183775000Y-108063457D01*
X183775000Y-108063457D02*
X183803571Y-108034885D01*
X183803571Y-108034885D02*
X183817857Y-107992028D01*
X183817857Y-107992028D02*
X183817857Y-107920600D01*
X183817857Y-107920600D02*
X183803571Y-107877742D01*
X183803571Y-107877742D02*
X183775000Y-107849171D01*
X183775000Y-107849171D02*
X183732142Y-107834885D01*
X183732142Y-107834885D02*
X183675000Y-107834885D01*
X183675000Y-107834885D02*
X183632142Y-107849171D01*
X183632142Y-107849171D02*
X183603571Y-107877742D01*
X183603571Y-107877742D02*
X183589285Y-107920600D01*
X183589285Y-107920600D02*
X183589285Y-107992028D01*
X183589285Y-107992028D02*
X183603571Y-108034885D01*
X183603571Y-108034885D02*
X183632142Y-108063457D01*
X183632142Y-108063457D02*
X183660714Y-108077742D01*
X183660714Y-108077742D02*
X183660714Y-108134885D01*
X183660714Y-108134885D02*
X183589285Y-108134885D01*
X166689284Y-90134885D02*
X166860713Y-90134885D01*
X166774998Y-90134885D02*
X166774998Y-89834885D01*
X166774998Y-89834885D02*
X166803570Y-89877742D01*
X166803570Y-89877742D02*
X166832141Y-89906314D01*
X166832141Y-89906314D02*
X166860713Y-89920600D01*
X166503570Y-89834885D02*
X166474999Y-89834885D01*
X166474999Y-89834885D02*
X166446427Y-89849171D01*
X166446427Y-89849171D02*
X166432142Y-89863457D01*
X166432142Y-89863457D02*
X166417856Y-89892028D01*
X166417856Y-89892028D02*
X166403570Y-89949171D01*
X166403570Y-89949171D02*
X166403570Y-90020600D01*
X166403570Y-90020600D02*
X166417856Y-90077742D01*
X166417856Y-90077742D02*
X166432142Y-90106314D01*
X166432142Y-90106314D02*
X166446427Y-90120600D01*
X166446427Y-90120600D02*
X166474999Y-90134885D01*
X166474999Y-90134885D02*
X166503570Y-90134885D01*
X166503570Y-90134885D02*
X166532142Y-90120600D01*
X166532142Y-90120600D02*
X166546427Y-90106314D01*
X166546427Y-90106314D02*
X166560713Y-90077742D01*
X166560713Y-90077742D02*
X166574999Y-90020600D01*
X166574999Y-90020600D02*
X166574999Y-89949171D01*
X166574999Y-89949171D02*
X166560713Y-89892028D01*
X166560713Y-89892028D02*
X166546427Y-89863457D01*
X166546427Y-89863457D02*
X166532142Y-89849171D01*
X166532142Y-89849171D02*
X166503570Y-89834885D01*
X166046428Y-90134885D02*
X166046428Y-89834885D01*
X166017857Y-90020600D02*
X165932142Y-90134885D01*
X165932142Y-89934885D02*
X166046428Y-90049171D01*
X165817857Y-90134885D02*
X165746428Y-90134885D01*
X165746428Y-90134885D02*
X165746428Y-90077742D01*
X165746428Y-90077742D02*
X165775000Y-90063457D01*
X165775000Y-90063457D02*
X165803571Y-90034885D01*
X165803571Y-90034885D02*
X165817857Y-89992028D01*
X165817857Y-89992028D02*
X165817857Y-89920600D01*
X165817857Y-89920600D02*
X165803571Y-89877742D01*
X165803571Y-89877742D02*
X165775000Y-89849171D01*
X165775000Y-89849171D02*
X165732142Y-89834885D01*
X165732142Y-89834885D02*
X165675000Y-89834885D01*
X165675000Y-89834885D02*
X165632142Y-89849171D01*
X165632142Y-89849171D02*
X165603571Y-89877742D01*
X165603571Y-89877742D02*
X165589285Y-89920600D01*
X165589285Y-89920600D02*
X165589285Y-89992028D01*
X165589285Y-89992028D02*
X165603571Y-90034885D01*
X165603571Y-90034885D02*
X165632142Y-90063457D01*
X165632142Y-90063457D02*
X165660714Y-90077742D01*
X165660714Y-90077742D02*
X165660714Y-90134885D01*
X165660714Y-90134885D02*
X165589285Y-90134885D01*
X171882142Y-89863457D02*
X171867856Y-89849171D01*
X171867856Y-89849171D02*
X171839285Y-89834885D01*
X171839285Y-89834885D02*
X171767856Y-89834885D01*
X171767856Y-89834885D02*
X171739285Y-89849171D01*
X171739285Y-89849171D02*
X171724999Y-89863457D01*
X171724999Y-89863457D02*
X171710713Y-89892028D01*
X171710713Y-89892028D02*
X171710713Y-89920600D01*
X171710713Y-89920600D02*
X171724999Y-89963457D01*
X171724999Y-89963457D02*
X171896427Y-90134885D01*
X171896427Y-90134885D02*
X171710713Y-90134885D01*
X171596428Y-89863457D02*
X171582142Y-89849171D01*
X171582142Y-89849171D02*
X171553571Y-89834885D01*
X171553571Y-89834885D02*
X171482142Y-89834885D01*
X171482142Y-89834885D02*
X171453571Y-89849171D01*
X171453571Y-89849171D02*
X171439285Y-89863457D01*
X171439285Y-89863457D02*
X171424999Y-89892028D01*
X171424999Y-89892028D02*
X171424999Y-89920600D01*
X171424999Y-89920600D02*
X171439285Y-89963457D01*
X171439285Y-89963457D02*
X171610713Y-90134885D01*
X171610713Y-90134885D02*
X171424999Y-90134885D01*
X171239285Y-89834885D02*
X171210714Y-89834885D01*
X171210714Y-89834885D02*
X171182142Y-89849171D01*
X171182142Y-89849171D02*
X171167857Y-89863457D01*
X171167857Y-89863457D02*
X171153571Y-89892028D01*
X171153571Y-89892028D02*
X171139285Y-89949171D01*
X171139285Y-89949171D02*
X171139285Y-90020600D01*
X171139285Y-90020600D02*
X171153571Y-90077742D01*
X171153571Y-90077742D02*
X171167857Y-90106314D01*
X171167857Y-90106314D02*
X171182142Y-90120600D01*
X171182142Y-90120600D02*
X171210714Y-90134885D01*
X171210714Y-90134885D02*
X171239285Y-90134885D01*
X171239285Y-90134885D02*
X171267857Y-90120600D01*
X171267857Y-90120600D02*
X171282142Y-90106314D01*
X171282142Y-90106314D02*
X171296428Y-90077742D01*
X171296428Y-90077742D02*
X171310714Y-90020600D01*
X171310714Y-90020600D02*
X171310714Y-89949171D01*
X171310714Y-89949171D02*
X171296428Y-89892028D01*
X171296428Y-89892028D02*
X171282142Y-89863457D01*
X171282142Y-89863457D02*
X171267857Y-89849171D01*
X171267857Y-89849171D02*
X171239285Y-89834885D01*
X170796429Y-90134885D02*
X170725000Y-90134885D01*
X170725000Y-90134885D02*
X170725000Y-90077742D01*
X170725000Y-90077742D02*
X170753572Y-90063457D01*
X170753572Y-90063457D02*
X170782143Y-90034885D01*
X170782143Y-90034885D02*
X170796429Y-89992028D01*
X170796429Y-89992028D02*
X170796429Y-89920600D01*
X170796429Y-89920600D02*
X170782143Y-89877742D01*
X170782143Y-89877742D02*
X170753572Y-89849171D01*
X170753572Y-89849171D02*
X170710714Y-89834885D01*
X170710714Y-89834885D02*
X170653572Y-89834885D01*
X170653572Y-89834885D02*
X170610714Y-89849171D01*
X170610714Y-89849171D02*
X170582143Y-89877742D01*
X170582143Y-89877742D02*
X170567857Y-89920600D01*
X170567857Y-89920600D02*
X170567857Y-89992028D01*
X170567857Y-89992028D02*
X170582143Y-90034885D01*
X170582143Y-90034885D02*
X170610714Y-90063457D01*
X170610714Y-90063457D02*
X170639286Y-90077742D01*
X170639286Y-90077742D02*
X170639286Y-90134885D01*
X170639286Y-90134885D02*
X170567857Y-90134885D01*
X93882142Y-107863457D02*
X93867856Y-107849171D01*
X93867856Y-107849171D02*
X93839285Y-107834885D01*
X93839285Y-107834885D02*
X93767856Y-107834885D01*
X93767856Y-107834885D02*
X93739285Y-107849171D01*
X93739285Y-107849171D02*
X93724999Y-107863457D01*
X93724999Y-107863457D02*
X93710713Y-107892028D01*
X93710713Y-107892028D02*
X93710713Y-107920600D01*
X93710713Y-107920600D02*
X93724999Y-107963457D01*
X93724999Y-107963457D02*
X93896427Y-108134885D01*
X93896427Y-108134885D02*
X93710713Y-108134885D01*
X93596428Y-107863457D02*
X93582142Y-107849171D01*
X93582142Y-107849171D02*
X93553571Y-107834885D01*
X93553571Y-107834885D02*
X93482142Y-107834885D01*
X93482142Y-107834885D02*
X93453571Y-107849171D01*
X93453571Y-107849171D02*
X93439285Y-107863457D01*
X93439285Y-107863457D02*
X93424999Y-107892028D01*
X93424999Y-107892028D02*
X93424999Y-107920600D01*
X93424999Y-107920600D02*
X93439285Y-107963457D01*
X93439285Y-107963457D02*
X93610713Y-108134885D01*
X93610713Y-108134885D02*
X93424999Y-108134885D01*
X93239285Y-107834885D02*
X93210714Y-107834885D01*
X93210714Y-107834885D02*
X93182142Y-107849171D01*
X93182142Y-107849171D02*
X93167857Y-107863457D01*
X93167857Y-107863457D02*
X93153571Y-107892028D01*
X93153571Y-107892028D02*
X93139285Y-107949171D01*
X93139285Y-107949171D02*
X93139285Y-108020600D01*
X93139285Y-108020600D02*
X93153571Y-108077742D01*
X93153571Y-108077742D02*
X93167857Y-108106314D01*
X93167857Y-108106314D02*
X93182142Y-108120600D01*
X93182142Y-108120600D02*
X93210714Y-108134885D01*
X93210714Y-108134885D02*
X93239285Y-108134885D01*
X93239285Y-108134885D02*
X93267857Y-108120600D01*
X93267857Y-108120600D02*
X93282142Y-108106314D01*
X93282142Y-108106314D02*
X93296428Y-108077742D01*
X93296428Y-108077742D02*
X93310714Y-108020600D01*
X93310714Y-108020600D02*
X93310714Y-107949171D01*
X93310714Y-107949171D02*
X93296428Y-107892028D01*
X93296428Y-107892028D02*
X93282142Y-107863457D01*
X93282142Y-107863457D02*
X93267857Y-107849171D01*
X93267857Y-107849171D02*
X93239285Y-107834885D01*
X92796429Y-108134885D02*
X92725000Y-108134885D01*
X92725000Y-108134885D02*
X92725000Y-108077742D01*
X92725000Y-108077742D02*
X92753572Y-108063457D01*
X92753572Y-108063457D02*
X92782143Y-108034885D01*
X92782143Y-108034885D02*
X92796429Y-107992028D01*
X92796429Y-107992028D02*
X92796429Y-107920600D01*
X92796429Y-107920600D02*
X92782143Y-107877742D01*
X92782143Y-107877742D02*
X92753572Y-107849171D01*
X92753572Y-107849171D02*
X92710714Y-107834885D01*
X92710714Y-107834885D02*
X92653572Y-107834885D01*
X92653572Y-107834885D02*
X92610714Y-107849171D01*
X92610714Y-107849171D02*
X92582143Y-107877742D01*
X92582143Y-107877742D02*
X92567857Y-107920600D01*
X92567857Y-107920600D02*
X92567857Y-107992028D01*
X92567857Y-107992028D02*
X92582143Y-108034885D01*
X92582143Y-108034885D02*
X92610714Y-108063457D01*
X92610714Y-108063457D02*
X92639286Y-108077742D01*
X92639286Y-108077742D02*
X92639286Y-108134885D01*
X92639286Y-108134885D02*
X92567857Y-108134885D01*
X171882142Y-125863457D02*
X171867856Y-125849171D01*
X171867856Y-125849171D02*
X171839285Y-125834885D01*
X171839285Y-125834885D02*
X171767856Y-125834885D01*
X171767856Y-125834885D02*
X171739285Y-125849171D01*
X171739285Y-125849171D02*
X171724999Y-125863457D01*
X171724999Y-125863457D02*
X171710713Y-125892028D01*
X171710713Y-125892028D02*
X171710713Y-125920600D01*
X171710713Y-125920600D02*
X171724999Y-125963457D01*
X171724999Y-125963457D02*
X171896427Y-126134885D01*
X171896427Y-126134885D02*
X171710713Y-126134885D01*
X171596428Y-125863457D02*
X171582142Y-125849171D01*
X171582142Y-125849171D02*
X171553571Y-125834885D01*
X171553571Y-125834885D02*
X171482142Y-125834885D01*
X171482142Y-125834885D02*
X171453571Y-125849171D01*
X171453571Y-125849171D02*
X171439285Y-125863457D01*
X171439285Y-125863457D02*
X171424999Y-125892028D01*
X171424999Y-125892028D02*
X171424999Y-125920600D01*
X171424999Y-125920600D02*
X171439285Y-125963457D01*
X171439285Y-125963457D02*
X171610713Y-126134885D01*
X171610713Y-126134885D02*
X171424999Y-126134885D01*
X171239285Y-125834885D02*
X171210714Y-125834885D01*
X171210714Y-125834885D02*
X171182142Y-125849171D01*
X171182142Y-125849171D02*
X171167857Y-125863457D01*
X171167857Y-125863457D02*
X171153571Y-125892028D01*
X171153571Y-125892028D02*
X171139285Y-125949171D01*
X171139285Y-125949171D02*
X171139285Y-126020600D01*
X171139285Y-126020600D02*
X171153571Y-126077742D01*
X171153571Y-126077742D02*
X171167857Y-126106314D01*
X171167857Y-126106314D02*
X171182142Y-126120600D01*
X171182142Y-126120600D02*
X171210714Y-126134885D01*
X171210714Y-126134885D02*
X171239285Y-126134885D01*
X171239285Y-126134885D02*
X171267857Y-126120600D01*
X171267857Y-126120600D02*
X171282142Y-126106314D01*
X171282142Y-126106314D02*
X171296428Y-126077742D01*
X171296428Y-126077742D02*
X171310714Y-126020600D01*
X171310714Y-126020600D02*
X171310714Y-125949171D01*
X171310714Y-125949171D02*
X171296428Y-125892028D01*
X171296428Y-125892028D02*
X171282142Y-125863457D01*
X171282142Y-125863457D02*
X171267857Y-125849171D01*
X171267857Y-125849171D02*
X171239285Y-125834885D01*
X170796429Y-126134885D02*
X170725000Y-126134885D01*
X170725000Y-126134885D02*
X170725000Y-126077742D01*
X170725000Y-126077742D02*
X170753572Y-126063457D01*
X170753572Y-126063457D02*
X170782143Y-126034885D01*
X170782143Y-126034885D02*
X170796429Y-125992028D01*
X170796429Y-125992028D02*
X170796429Y-125920600D01*
X170796429Y-125920600D02*
X170782143Y-125877742D01*
X170782143Y-125877742D02*
X170753572Y-125849171D01*
X170753572Y-125849171D02*
X170710714Y-125834885D01*
X170710714Y-125834885D02*
X170653572Y-125834885D01*
X170653572Y-125834885D02*
X170610714Y-125849171D01*
X170610714Y-125849171D02*
X170582143Y-125877742D01*
X170582143Y-125877742D02*
X170567857Y-125920600D01*
X170567857Y-125920600D02*
X170567857Y-125992028D01*
X170567857Y-125992028D02*
X170582143Y-126034885D01*
X170582143Y-126034885D02*
X170610714Y-126063457D01*
X170610714Y-126063457D02*
X170639286Y-126077742D01*
X170639286Y-126077742D02*
X170639286Y-126134885D01*
X170639286Y-126134885D02*
X170567857Y-126134885D01*
X129882142Y-107863457D02*
X129867856Y-107849171D01*
X129867856Y-107849171D02*
X129839285Y-107834885D01*
X129839285Y-107834885D02*
X129767856Y-107834885D01*
X129767856Y-107834885D02*
X129739285Y-107849171D01*
X129739285Y-107849171D02*
X129724999Y-107863457D01*
X129724999Y-107863457D02*
X129710713Y-107892028D01*
X129710713Y-107892028D02*
X129710713Y-107920600D01*
X129710713Y-107920600D02*
X129724999Y-107963457D01*
X129724999Y-107963457D02*
X129896427Y-108134885D01*
X129896427Y-108134885D02*
X129710713Y-108134885D01*
X129596428Y-107863457D02*
X129582142Y-107849171D01*
X129582142Y-107849171D02*
X129553571Y-107834885D01*
X129553571Y-107834885D02*
X129482142Y-107834885D01*
X129482142Y-107834885D02*
X129453571Y-107849171D01*
X129453571Y-107849171D02*
X129439285Y-107863457D01*
X129439285Y-107863457D02*
X129424999Y-107892028D01*
X129424999Y-107892028D02*
X129424999Y-107920600D01*
X129424999Y-107920600D02*
X129439285Y-107963457D01*
X129439285Y-107963457D02*
X129610713Y-108134885D01*
X129610713Y-108134885D02*
X129424999Y-108134885D01*
X129239285Y-107834885D02*
X129210714Y-107834885D01*
X129210714Y-107834885D02*
X129182142Y-107849171D01*
X129182142Y-107849171D02*
X129167857Y-107863457D01*
X129167857Y-107863457D02*
X129153571Y-107892028D01*
X129153571Y-107892028D02*
X129139285Y-107949171D01*
X129139285Y-107949171D02*
X129139285Y-108020600D01*
X129139285Y-108020600D02*
X129153571Y-108077742D01*
X129153571Y-108077742D02*
X129167857Y-108106314D01*
X129167857Y-108106314D02*
X129182142Y-108120600D01*
X129182142Y-108120600D02*
X129210714Y-108134885D01*
X129210714Y-108134885D02*
X129239285Y-108134885D01*
X129239285Y-108134885D02*
X129267857Y-108120600D01*
X129267857Y-108120600D02*
X129282142Y-108106314D01*
X129282142Y-108106314D02*
X129296428Y-108077742D01*
X129296428Y-108077742D02*
X129310714Y-108020600D01*
X129310714Y-108020600D02*
X129310714Y-107949171D01*
X129310714Y-107949171D02*
X129296428Y-107892028D01*
X129296428Y-107892028D02*
X129282142Y-107863457D01*
X129282142Y-107863457D02*
X129267857Y-107849171D01*
X129267857Y-107849171D02*
X129239285Y-107834885D01*
X128796429Y-108134885D02*
X128725000Y-108134885D01*
X128725000Y-108134885D02*
X128725000Y-108077742D01*
X128725000Y-108077742D02*
X128753572Y-108063457D01*
X128753572Y-108063457D02*
X128782143Y-108034885D01*
X128782143Y-108034885D02*
X128796429Y-107992028D01*
X128796429Y-107992028D02*
X128796429Y-107920600D01*
X128796429Y-107920600D02*
X128782143Y-107877742D01*
X128782143Y-107877742D02*
X128753572Y-107849171D01*
X128753572Y-107849171D02*
X128710714Y-107834885D01*
X128710714Y-107834885D02*
X128653572Y-107834885D01*
X128653572Y-107834885D02*
X128610714Y-107849171D01*
X128610714Y-107849171D02*
X128582143Y-107877742D01*
X128582143Y-107877742D02*
X128567857Y-107920600D01*
X128567857Y-107920600D02*
X128567857Y-107992028D01*
X128567857Y-107992028D02*
X128582143Y-108034885D01*
X128582143Y-108034885D02*
X128610714Y-108063457D01*
X128610714Y-108063457D02*
X128639286Y-108077742D01*
X128639286Y-108077742D02*
X128639286Y-108134885D01*
X128639286Y-108134885D02*
X128567857Y-108134885D01*
X111882142Y-89863457D02*
X111867856Y-89849171D01*
X111867856Y-89849171D02*
X111839285Y-89834885D01*
X111839285Y-89834885D02*
X111767856Y-89834885D01*
X111767856Y-89834885D02*
X111739285Y-89849171D01*
X111739285Y-89849171D02*
X111724999Y-89863457D01*
X111724999Y-89863457D02*
X111710713Y-89892028D01*
X111710713Y-89892028D02*
X111710713Y-89920600D01*
X111710713Y-89920600D02*
X111724999Y-89963457D01*
X111724999Y-89963457D02*
X111896427Y-90134885D01*
X111896427Y-90134885D02*
X111710713Y-90134885D01*
X111596428Y-89863457D02*
X111582142Y-89849171D01*
X111582142Y-89849171D02*
X111553571Y-89834885D01*
X111553571Y-89834885D02*
X111482142Y-89834885D01*
X111482142Y-89834885D02*
X111453571Y-89849171D01*
X111453571Y-89849171D02*
X111439285Y-89863457D01*
X111439285Y-89863457D02*
X111424999Y-89892028D01*
X111424999Y-89892028D02*
X111424999Y-89920600D01*
X111424999Y-89920600D02*
X111439285Y-89963457D01*
X111439285Y-89963457D02*
X111610713Y-90134885D01*
X111610713Y-90134885D02*
X111424999Y-90134885D01*
X111239285Y-89834885D02*
X111210714Y-89834885D01*
X111210714Y-89834885D02*
X111182142Y-89849171D01*
X111182142Y-89849171D02*
X111167857Y-89863457D01*
X111167857Y-89863457D02*
X111153571Y-89892028D01*
X111153571Y-89892028D02*
X111139285Y-89949171D01*
X111139285Y-89949171D02*
X111139285Y-90020600D01*
X111139285Y-90020600D02*
X111153571Y-90077742D01*
X111153571Y-90077742D02*
X111167857Y-90106314D01*
X111167857Y-90106314D02*
X111182142Y-90120600D01*
X111182142Y-90120600D02*
X111210714Y-90134885D01*
X111210714Y-90134885D02*
X111239285Y-90134885D01*
X111239285Y-90134885D02*
X111267857Y-90120600D01*
X111267857Y-90120600D02*
X111282142Y-90106314D01*
X111282142Y-90106314D02*
X111296428Y-90077742D01*
X111296428Y-90077742D02*
X111310714Y-90020600D01*
X111310714Y-90020600D02*
X111310714Y-89949171D01*
X111310714Y-89949171D02*
X111296428Y-89892028D01*
X111296428Y-89892028D02*
X111282142Y-89863457D01*
X111282142Y-89863457D02*
X111267857Y-89849171D01*
X111267857Y-89849171D02*
X111239285Y-89834885D01*
X110796429Y-90134885D02*
X110725000Y-90134885D01*
X110725000Y-90134885D02*
X110725000Y-90077742D01*
X110725000Y-90077742D02*
X110753572Y-90063457D01*
X110753572Y-90063457D02*
X110782143Y-90034885D01*
X110782143Y-90034885D02*
X110796429Y-89992028D01*
X110796429Y-89992028D02*
X110796429Y-89920600D01*
X110796429Y-89920600D02*
X110782143Y-89877742D01*
X110782143Y-89877742D02*
X110753572Y-89849171D01*
X110753572Y-89849171D02*
X110710714Y-89834885D01*
X110710714Y-89834885D02*
X110653572Y-89834885D01*
X110653572Y-89834885D02*
X110610714Y-89849171D01*
X110610714Y-89849171D02*
X110582143Y-89877742D01*
X110582143Y-89877742D02*
X110567857Y-89920600D01*
X110567857Y-89920600D02*
X110567857Y-89992028D01*
X110567857Y-89992028D02*
X110582143Y-90034885D01*
X110582143Y-90034885D02*
X110610714Y-90063457D01*
X110610714Y-90063457D02*
X110639286Y-90077742D01*
X110639286Y-90077742D02*
X110639286Y-90134885D01*
X110639286Y-90134885D02*
X110567857Y-90134885D01*
X189882142Y-107863457D02*
X189867856Y-107849171D01*
X189867856Y-107849171D02*
X189839285Y-107834885D01*
X189839285Y-107834885D02*
X189767856Y-107834885D01*
X189767856Y-107834885D02*
X189739285Y-107849171D01*
X189739285Y-107849171D02*
X189724999Y-107863457D01*
X189724999Y-107863457D02*
X189710713Y-107892028D01*
X189710713Y-107892028D02*
X189710713Y-107920600D01*
X189710713Y-107920600D02*
X189724999Y-107963457D01*
X189724999Y-107963457D02*
X189896427Y-108134885D01*
X189896427Y-108134885D02*
X189710713Y-108134885D01*
X189596428Y-107863457D02*
X189582142Y-107849171D01*
X189582142Y-107849171D02*
X189553571Y-107834885D01*
X189553571Y-107834885D02*
X189482142Y-107834885D01*
X189482142Y-107834885D02*
X189453571Y-107849171D01*
X189453571Y-107849171D02*
X189439285Y-107863457D01*
X189439285Y-107863457D02*
X189424999Y-107892028D01*
X189424999Y-107892028D02*
X189424999Y-107920600D01*
X189424999Y-107920600D02*
X189439285Y-107963457D01*
X189439285Y-107963457D02*
X189610713Y-108134885D01*
X189610713Y-108134885D02*
X189424999Y-108134885D01*
X189239285Y-107834885D02*
X189210714Y-107834885D01*
X189210714Y-107834885D02*
X189182142Y-107849171D01*
X189182142Y-107849171D02*
X189167857Y-107863457D01*
X189167857Y-107863457D02*
X189153571Y-107892028D01*
X189153571Y-107892028D02*
X189139285Y-107949171D01*
X189139285Y-107949171D02*
X189139285Y-108020600D01*
X189139285Y-108020600D02*
X189153571Y-108077742D01*
X189153571Y-108077742D02*
X189167857Y-108106314D01*
X189167857Y-108106314D02*
X189182142Y-108120600D01*
X189182142Y-108120600D02*
X189210714Y-108134885D01*
X189210714Y-108134885D02*
X189239285Y-108134885D01*
X189239285Y-108134885D02*
X189267857Y-108120600D01*
X189267857Y-108120600D02*
X189282142Y-108106314D01*
X189282142Y-108106314D02*
X189296428Y-108077742D01*
X189296428Y-108077742D02*
X189310714Y-108020600D01*
X189310714Y-108020600D02*
X189310714Y-107949171D01*
X189310714Y-107949171D02*
X189296428Y-107892028D01*
X189296428Y-107892028D02*
X189282142Y-107863457D01*
X189282142Y-107863457D02*
X189267857Y-107849171D01*
X189267857Y-107849171D02*
X189239285Y-107834885D01*
X188796429Y-108134885D02*
X188725000Y-108134885D01*
X188725000Y-108134885D02*
X188725000Y-108077742D01*
X188725000Y-108077742D02*
X188753572Y-108063457D01*
X188753572Y-108063457D02*
X188782143Y-108034885D01*
X188782143Y-108034885D02*
X188796429Y-107992028D01*
X188796429Y-107992028D02*
X188796429Y-107920600D01*
X188796429Y-107920600D02*
X188782143Y-107877742D01*
X188782143Y-107877742D02*
X188753572Y-107849171D01*
X188753572Y-107849171D02*
X188710714Y-107834885D01*
X188710714Y-107834885D02*
X188653572Y-107834885D01*
X188653572Y-107834885D02*
X188610714Y-107849171D01*
X188610714Y-107849171D02*
X188582143Y-107877742D01*
X188582143Y-107877742D02*
X188567857Y-107920600D01*
X188567857Y-107920600D02*
X188567857Y-107992028D01*
X188567857Y-107992028D02*
X188582143Y-108034885D01*
X188582143Y-108034885D02*
X188610714Y-108063457D01*
X188610714Y-108063457D02*
X188639286Y-108077742D01*
X188639286Y-108077742D02*
X188639286Y-108134885D01*
X188639286Y-108134885D02*
X188567857Y-108134885D01*
M02*
